<svg version="1.1" xmlns="http://www.w3.org/2000/svg" xmlns:xlink="http://www.w3.org/1999/xlink" width="1026" height="826"><defs><clipPath id="ZACUJIPTOCKa"><path fill="none" stroke="none" d=" M 0 0 L 1026 0 L 1026 826 L 0 826 L 0 0 Z"/></clipPath></defs><g transform="scale(1,1)" clip-path="url(#ZACUJIPTOCKa)"><g><rect fill="rgb(255,255,255)" stroke="none" x="0" y="0" width="1026" height="826" fill-opacity="1"/><path fill="none" stroke="rgb(192,192,192)" paint-order="fill stroke markers" d=" M 13.5 0.5 L 13.5 826.5 M 13.5 0.5 L 13.5 826.5 M 63.5 0.5 L 63.5 826.5 M 113.5 0.5 L 113.5 826.5 M 163.5 0.5 L 163.5 826.5 M 213.5 0.5 L 213.5 826.5 M 263.5 0.5 L 263.5 826.5 M 313.5 0.5 L 313.5 826.5 M 363.5 0.5 L 363.5 826.5 M 413.5 0.5 L 413.5 826.5 M 463.5 0.5 L 463.5 826.5 M 563.5 0.5 L 563.5 826.5 M 613.5 0.5 L 613.5 826.5 M 663.5 0.5 L 663.5 826.5 M 713.5 0.5 L 713.5 826.5 M 763.5 0.5 L 763.5 826.5 M 813.5 0.5 L 813.5 826.5 M 863.5 0.5 L 863.5 826.5 M 913.5 0.5 L 913.5 826.5 M 963.5 0.5 L 963.5 826.5 M 1013.5 0.5 L 1013.5 826.5" stroke-opacity="1" stroke-linecap="round" stroke-linejoin="round" stroke-miterlimit="10"/><path fill="none" stroke="rgb(192,192,192)" paint-order="fill stroke markers" d=" M 3.5 0.5 L 3.5 826.5 M 23.5 0.5 L 23.5 826.5 M 33.5 0.5 L 33.5 826.5 M 43.5 0.5 L 43.5 826.5 M 53.5 0.5 L 53.5 826.5 M 73.5 0.5 L 73.5 826.5 M 83.5 0.5 L 83.5 826.5 M 93.5 0.5 L 93.5 826.5 M 103.5 0.5 L 103.5 826.5 M 123.5 0.5 L 123.5 826.5 M 133.5 0.5 L 133.5 826.5 M 143.5 0.5 L 143.5 826.5 M 153.5 0.5 L 153.5 826.5 M 173.5 0.5 L 173.5 826.5 M 183.5 0.5 L 183.5 826.5 M 193.5 0.5 L 193.5 826.5 M 203.5 0.5 L 203.5 826.5 M 223.5 0.5 L 223.5 826.5 M 233.5 0.5 L 233.5 826.5 M 243.5 0.5 L 243.5 826.5 M 253.5 0.5 L 253.5 826.5 M 273.5 0.5 L 273.5 826.5 M 283.5 0.5 L 283.5 826.5 M 293.5 0.5 L 293.5 826.5 M 303.5 0.5 L 303.5 826.5 M 323.5 0.5 L 323.5 826.5 M 333.5 0.5 L 333.5 826.5 M 343.5 0.5 L 343.5 826.5 M 353.5 0.5 L 353.5 826.5 M 373.5 0.5 L 373.5 826.5 M 383.5 0.5 L 383.5 826.5 M 393.5 0.5 L 393.5 826.5 M 403.5 0.5 L 403.5 826.5 M 423.5 0.5 L 423.5 826.5 M 433.5 0.5 L 433.5 826.5 M 443.5 0.5 L 443.5 826.5 M 453.5 0.5 L 453.5 826.5 M 473.5 0.5 L 473.5 826.5 M 483.5 0.5 L 483.5 826.5 M 493.5 0.5 L 493.5 826.5 M 503.5 0.5 L 503.5 826.5 M 523.5 0.5 L 523.5 826.5 M 533.5 0.5 L 533.5 826.5 M 543.5 0.5 L 543.5 826.5 M 553.5 0.5 L 553.5 826.5 M 573.5 0.5 L 573.5 826.5 M 583.5 0.5 L 583.5 826.5 M 593.5 0.5 L 593.5 826.5 M 603.5 0.5 L 603.5 826.5 M 623.5 0.5 L 623.5 826.5 M 633.5 0.5 L 633.5 826.5 M 643.5 0.5 L 643.5 826.5 M 653.5 0.5 L 653.5 826.5 M 673.5 0.5 L 673.5 826.5 M 683.5 0.5 L 683.5 826.5 M 693.5 0.5 L 693.5 826.5 M 703.5 0.5 L 703.5 826.5 M 723.5 0.5 L 723.5 826.5 M 733.5 0.5 L 733.5 826.5 M 743.5 0.5 L 743.5 826.5 M 753.5 0.5 L 753.5 826.5 M 773.5 0.5 L 773.5 826.5 M 783.5 0.5 L 783.5 826.5 M 793.5 0.5 L 793.5 826.5 M 803.5 0.5 L 803.5 826.5 M 822.5 0.5 L 822.5 826.5 M 832.5 0.5 L 832.5 826.5 M 842.5 0.5 L 842.5 826.5 M 852.5 0.5 L 852.5 826.5 M 872.5 0.5 L 872.5 826.5 M 882.5 0.5 L 882.5 826.5 M 892.5 0.5 L 892.5 826.5 M 902.5 0.5 L 902.5 826.5 M 922.5 0.5 L 922.5 826.5 M 932.5 0.5 L 932.5 826.5 M 942.5 0.5 L 942.5 826.5 M 952.5 0.5 L 952.5 826.5 M 972.5 0.5 L 972.5 826.5 M 982.5 0.5 L 982.5 826.5 M 992.5 0.5 L 992.5 826.5 M 1002.5 0.5 L 1002.5 826.5 M 1022.5 0.5 L 1022.5 826.5" stroke-opacity="0.23529411764705882" stroke-linecap="round" stroke-linejoin="round" stroke-miterlimit="10"/><path fill="none" stroke="rgb(192,192,192)" paint-order="fill stroke markers" d=" M 0.5 41.5 L 1026.5 41.5 M 0.5 41.5 L 1026.5 41.5 M 0.5 91.5 L 1026.5 91.5 M 0.5 141.5 L 1026.5 141.5 M 0.5 191.5 L 1026.5 191.5 M 0.5 241.5 L 1026.5 241.5 M 0.5 291.5 L 1026.5 291.5 M 0.5 341.5 L 1026.5 341.5 M 0.5 391.5 L 1026.5 391.5 M 0.5 491.5 L 1026.5 491.5 M 0.5 541.5 L 1026.5 541.5 M 0.5 591.5 L 1026.5 591.5 M 0.5 641.5 L 1026.5 641.5 M 0.5 691.5 L 1026.5 691.5 M 0.5 741.5 L 1026.5 741.5 M 0.5 791.5 L 1026.5 791.5" stroke-opacity="1" stroke-linecap="round" stroke-linejoin="round" stroke-miterlimit="10"/><path fill="none" stroke="rgb(192,192,192)" paint-order="fill stroke markers" d=" M 0.5 1.5 L 1026.5 1.5 M 0.5 11.5 L 1026.5 11.5 M 0.5 21.5 L 1026.5 21.5 M 0.5 31.5 L 1026.5 31.5 M 0.5 51.5 L 1026.5 51.5 M 0.5 61.5 L 1026.5 61.5 M 0.5 71.5 L 1026.5 71.5 M 0.5 81.5 L 1026.5 81.5 M 0.5 101.5 L 1026.5 101.5 M 0.5 111.5 L 1026.5 111.5 M 0.5 121.5 L 1026.5 121.5 M 0.5 131.5 L 1026.5 131.5 M 0.5 151.5 L 1026.5 151.5 M 0.5 161.5 L 1026.5 161.5 M 0.5 171.5 L 1026.5 171.5 M 0.5 181.5 L 1026.5 181.5 M 0.5 201.5 L 1026.5 201.5 M 0.5 211.5 L 1026.5 211.5 M 0.5 221.5 L 1026.5 221.5 M 0.5 231.5 L 1026.5 231.5 M 0.5 251.5 L 1026.5 251.5 M 0.5 261.5 L 1026.5 261.5 M 0.5 271.5 L 1026.5 271.5 M 0.5 281.5 L 1026.5 281.5 M 0.5 301.5 L 1026.5 301.5 M 0.5 311.5 L 1026.5 311.5 M 0.5 321.5 L 1026.5 321.5 M 0.5 331.5 L 1026.5 331.5 M 0.5 351.5 L 1026.5 351.5 M 0.5 361.5 L 1026.5 361.5 M 0.5 371.5 L 1026.5 371.5 M 0.5 381.5 L 1026.5 381.5 M 0.5 401.5 L 1026.5 401.5 M 0.5 411.5 L 1026.5 411.5 M 0.5 421.5 L 1026.5 421.5 M 0.5 431.5 L 1026.5 431.5 M 0.5 451.5 L 1026.5 451.5 M 0.5 461.5 L 1026.5 461.5 M 0.5 471.5 L 1026.5 471.5 M 0.5 481.5 L 1026.5 481.5 M 0.5 501.5 L 1026.5 501.5 M 0.5 511.5 L 1026.5 511.5 M 0.5 521.5 L 1026.5 521.5 M 0.5 531.5 L 1026.5 531.5 M 0.5 551.5 L 1026.5 551.5 M 0.5 561.5 L 1026.5 561.5 M 0.5 571.5 L 1026.5 571.5 M 0.5 581.5 L 1026.5 581.5 M 0.5 601.5 L 1026.5 601.5 M 0.5 611.5 L 1026.5 611.5 M 0.5 621.5 L 1026.5 621.5 M 0.5 631.5 L 1026.5 631.5 M 0.5 651.5 L 1026.5 651.5 M 0.5 661.5 L 1026.5 661.5 M 0.5 671.5 L 1026.5 671.5 M 0.5 681.5 L 1026.5 681.5 M 0.5 701.5 L 1026.5 701.5 M 0.5 711.5 L 1026.5 711.5 M 0.5 721.5 L 1026.5 721.5 M 0.5 731.5 L 1026.5 731.5 M 0.5 751.5 L 1026.5 751.5 M 0.5 761.5 L 1026.5 761.5 M 0.5 771.5 L 1026.5 771.5 M 0.5 781.5 L 1026.5 781.5 M 0.5 801.5 L 1026.5 801.5 M 0.5 811.5 L 1026.5 811.5 M 0.5 821.5 L 1026.5 821.5" stroke-opacity="0.23529411764705882" stroke-linecap="round" stroke-linejoin="round" stroke-miterlimit="10"/><path fill="none" stroke="rgb(37,37,37)" paint-order="fill stroke markers" d=" M 513.5 2.5 L 513.5 826.5" stroke-opacity="1" stroke-miterlimit="10"/><path fill="none" stroke="rgb(37,37,37)" paint-order="fill stroke markers" d=" M 513.5 1.5 L 506.5 8.5" stroke-opacity="1" stroke-miterlimit="10"/><path fill="none" stroke="rgb(37,37,37)" paint-order="fill stroke markers" d=" M 513.5 1.5 L 520.5 8.5" stroke-opacity="1" stroke-miterlimit="10"/><path fill="none" stroke="rgb(37,37,37)" paint-order="fill stroke markers" d=" M 0.5 441.5 L 1024.5 441.5" stroke-opacity="1" stroke-miterlimit="10"/><path fill="none" stroke="rgb(37,37,37)" paint-order="fill stroke markers" d=" M 1025.5 441.5 L 1018.5 434.5" stroke-opacity="1" stroke-miterlimit="10"/><path fill="none" stroke="rgb(37,37,37)" paint-order="fill stroke markers" d=" M 1025.5 441.5 L 1018.5 448.5" stroke-opacity="1" stroke-miterlimit="10"/><text fill="rgb(37,37,37)" stroke="none" font-family="geogebra-sans-serif, sans-serif" font-size="21px" font-style="normal" font-weight="normal" text-decoration="normal" x="-1" y="466" text-anchor="start" dominant-baseline="alphabetic" fill-opacity="1">–10</text><text fill="none" stroke="rgb(255,255,255)" font-family="geogebra-sans-serif, sans-serif" font-size="21px" font-style="normal" font-weight="normal" text-decoration="normal" x="-1" y="466" text-anchor="start" dominant-baseline="alphabetic" stroke-opacity="1" stroke-linejoin="bevel" stroke-miterlimit="10" stroke-width="3">–10</text><text fill="rgb(37,37,37)" stroke="none" font-family="geogebra-sans-serif, sans-serif" font-size="21px" font-style="normal" font-weight="normal" text-decoration="normal" x="-1" y="466" text-anchor="start" dominant-baseline="alphabetic" fill-opacity="1">–10</text><text fill="rgb(37,37,37)" stroke="none" font-family="geogebra-sans-serif, sans-serif" font-size="21px" font-style="normal" font-weight="normal" text-decoration="normal" x="53" y="466" text-anchor="start" dominant-baseline="alphabetic" fill-opacity="1">–9</text><text fill="none" stroke="rgb(255,255,255)" font-family="geogebra-sans-serif, sans-serif" font-size="21px" font-style="normal" font-weight="normal" text-decoration="normal" x="53" y="466" text-anchor="start" dominant-baseline="alphabetic" stroke-opacity="1" stroke-linejoin="bevel" stroke-miterlimit="10" stroke-width="3">–9</text><text fill="rgb(37,37,37)" stroke="none" font-family="geogebra-sans-serif, sans-serif" font-size="21px" font-style="normal" font-weight="normal" text-decoration="normal" x="53" y="466" text-anchor="start" dominant-baseline="alphabetic" fill-opacity="1">–9</text><text fill="rgb(37,37,37)" stroke="none" font-family="geogebra-sans-serif, sans-serif" font-size="21px" font-style="normal" font-weight="normal" text-decoration="normal" x="103" y="466" text-anchor="start" dominant-baseline="alphabetic" fill-opacity="1">–8</text><text fill="none" stroke="rgb(255,255,255)" font-family="geogebra-sans-serif, sans-serif" font-size="21px" font-style="normal" font-weight="normal" text-decoration="normal" x="103" y="466" text-anchor="start" dominant-baseline="alphabetic" stroke-opacity="1" stroke-linejoin="bevel" stroke-miterlimit="10" stroke-width="3">–8</text><text fill="rgb(37,37,37)" stroke="none" font-family="geogebra-sans-serif, sans-serif" font-size="21px" font-style="normal" font-weight="normal" text-decoration="normal" x="103" y="466" text-anchor="start" dominant-baseline="alphabetic" fill-opacity="1">–8</text><text fill="rgb(37,37,37)" stroke="none" font-family="geogebra-sans-serif, sans-serif" font-size="21px" font-style="normal" font-weight="normal" text-decoration="normal" x="153" y="466" text-anchor="start" dominant-baseline="alphabetic" fill-opacity="1">–7</text><text fill="none" stroke="rgb(255,255,255)" font-family="geogebra-sans-serif, sans-serif" font-size="21px" font-style="normal" font-weight="normal" text-decoration="normal" x="153" y="466" text-anchor="start" dominant-baseline="alphabetic" stroke-opacity="1" stroke-linejoin="bevel" stroke-miterlimit="10" stroke-width="3">–7</text><text fill="rgb(37,37,37)" stroke="none" font-family="geogebra-sans-serif, sans-serif" font-size="21px" font-style="normal" font-weight="normal" text-decoration="normal" x="153" y="466" text-anchor="start" dominant-baseline="alphabetic" fill-opacity="1">–7</text><text fill="rgb(37,37,37)" stroke="none" font-family="geogebra-sans-serif, sans-serif" font-size="21px" font-style="normal" font-weight="normal" text-decoration="normal" x="203" y="466" text-anchor="start" dominant-baseline="alphabetic" fill-opacity="1">–6</text><text fill="none" stroke="rgb(255,255,255)" font-family="geogebra-sans-serif, sans-serif" font-size="21px" font-style="normal" font-weight="normal" text-decoration="normal" x="203" y="466" text-anchor="start" dominant-baseline="alphabetic" stroke-opacity="1" stroke-linejoin="bevel" stroke-miterlimit="10" stroke-width="3">–6</text><text fill="rgb(37,37,37)" stroke="none" font-family="geogebra-sans-serif, sans-serif" font-size="21px" font-style="normal" font-weight="normal" text-decoration="normal" x="203" y="466" text-anchor="start" dominant-baseline="alphabetic" fill-opacity="1">–6</text><text fill="rgb(37,37,37)" stroke="none" font-family="geogebra-sans-serif, sans-serif" font-size="21px" font-style="normal" font-weight="normal" text-decoration="normal" x="253" y="466" text-anchor="start" dominant-baseline="alphabetic" fill-opacity="1">–5</text><text fill="none" stroke="rgb(255,255,255)" font-family="geogebra-sans-serif, sans-serif" font-size="21px" font-style="normal" font-weight="normal" text-decoration="normal" x="253" y="466" text-anchor="start" dominant-baseline="alphabetic" stroke-opacity="1" stroke-linejoin="bevel" stroke-miterlimit="10" stroke-width="3">–5</text><text fill="rgb(37,37,37)" stroke="none" font-family="geogebra-sans-serif, sans-serif" font-size="21px" font-style="normal" font-weight="normal" text-decoration="normal" x="253" y="466" text-anchor="start" dominant-baseline="alphabetic" fill-opacity="1">–5</text><text fill="rgb(37,37,37)" stroke="none" font-family="geogebra-sans-serif, sans-serif" font-size="21px" font-style="normal" font-weight="normal" text-decoration="normal" x="303" y="466" text-anchor="start" dominant-baseline="alphabetic" fill-opacity="1">–4</text><text fill="none" stroke="rgb(255,255,255)" font-family="geogebra-sans-serif, sans-serif" font-size="21px" font-style="normal" font-weight="normal" text-decoration="normal" x="303" y="466" text-anchor="start" dominant-baseline="alphabetic" stroke-opacity="1" stroke-linejoin="bevel" stroke-miterlimit="10" stroke-width="3">–4</text><text fill="rgb(37,37,37)" stroke="none" font-family="geogebra-sans-serif, sans-serif" font-size="21px" font-style="normal" font-weight="normal" text-decoration="normal" x="303" y="466" text-anchor="start" dominant-baseline="alphabetic" fill-opacity="1">–4</text><text fill="rgb(37,37,37)" stroke="none" font-family="geogebra-sans-serif, sans-serif" font-size="21px" font-style="normal" font-weight="normal" text-decoration="normal" x="353" y="466" text-anchor="start" dominant-baseline="alphabetic" fill-opacity="1">–3</text><text fill="none" stroke="rgb(255,255,255)" font-family="geogebra-sans-serif, sans-serif" font-size="21px" font-style="normal" font-weight="normal" text-decoration="normal" x="353" y="466" text-anchor="start" dominant-baseline="alphabetic" stroke-opacity="1" stroke-linejoin="bevel" stroke-miterlimit="10" stroke-width="3">–3</text><text fill="rgb(37,37,37)" stroke="none" font-family="geogebra-sans-serif, sans-serif" font-size="21px" font-style="normal" font-weight="normal" text-decoration="normal" x="353" y="466" text-anchor="start" dominant-baseline="alphabetic" fill-opacity="1">–3</text><text fill="rgb(37,37,37)" stroke="none" font-family="geogebra-sans-serif, sans-serif" font-size="21px" font-style="normal" font-weight="normal" text-decoration="normal" x="403" y="466" text-anchor="start" dominant-baseline="alphabetic" fill-opacity="1">–2</text><text fill="none" stroke="rgb(255,255,255)" font-family="geogebra-sans-serif, sans-serif" font-size="21px" font-style="normal" font-weight="normal" text-decoration="normal" x="403" y="466" text-anchor="start" dominant-baseline="alphabetic" stroke-opacity="1" stroke-linejoin="bevel" stroke-miterlimit="10" stroke-width="3">–2</text><text fill="rgb(37,37,37)" stroke="none" font-family="geogebra-sans-serif, sans-serif" font-size="21px" font-style="normal" font-weight="normal" text-decoration="normal" x="403" y="466" text-anchor="start" dominant-baseline="alphabetic" fill-opacity="1">–2</text><text fill="rgb(37,37,37)" stroke="none" font-family="geogebra-sans-serif, sans-serif" font-size="21px" font-style="normal" font-weight="normal" text-decoration="normal" x="453" y="466" text-anchor="start" dominant-baseline="alphabetic" fill-opacity="1">–1</text><text fill="none" stroke="rgb(255,255,255)" font-family="geogebra-sans-serif, sans-serif" font-size="21px" font-style="normal" font-weight="normal" text-decoration="normal" x="453" y="466" text-anchor="start" dominant-baseline="alphabetic" stroke-opacity="1" stroke-linejoin="bevel" stroke-miterlimit="10" stroke-width="3">–1</text><text fill="rgb(37,37,37)" stroke="none" font-family="geogebra-sans-serif, sans-serif" font-size="21px" font-style="normal" font-weight="normal" text-decoration="normal" x="453" y="466" text-anchor="start" dominant-baseline="alphabetic" fill-opacity="1">–1</text><text fill="rgb(37,37,37)" stroke="none" font-family="geogebra-sans-serif, sans-serif" font-size="21px" font-style="normal" font-weight="normal" text-decoration="normal" x="558" y="466" text-anchor="start" dominant-baseline="alphabetic" fill-opacity="1">1</text><text fill="none" stroke="rgb(255,255,255)" font-family="geogebra-sans-serif, sans-serif" font-size="21px" font-style="normal" font-weight="normal" text-decoration="normal" x="558" y="466" text-anchor="start" dominant-baseline="alphabetic" stroke-opacity="1" stroke-linejoin="bevel" stroke-miterlimit="10" stroke-width="3">1</text><text fill="rgb(37,37,37)" stroke="none" font-family="geogebra-sans-serif, sans-serif" font-size="21px" font-style="normal" font-weight="normal" text-decoration="normal" x="558" y="466" text-anchor="start" dominant-baseline="alphabetic" fill-opacity="1">1</text><text fill="rgb(37,37,37)" stroke="none" font-family="geogebra-sans-serif, sans-serif" font-size="21px" font-style="normal" font-weight="normal" text-decoration="normal" x="608" y="466" text-anchor="start" dominant-baseline="alphabetic" fill-opacity="1">2</text><text fill="none" stroke="rgb(255,255,255)" font-family="geogebra-sans-serif, sans-serif" font-size="21px" font-style="normal" font-weight="normal" text-decoration="normal" x="608" y="466" text-anchor="start" dominant-baseline="alphabetic" stroke-opacity="1" stroke-linejoin="bevel" stroke-miterlimit="10" stroke-width="3">2</text><text fill="rgb(37,37,37)" stroke="none" font-family="geogebra-sans-serif, sans-serif" font-size="21px" font-style="normal" font-weight="normal" text-decoration="normal" x="608" y="466" text-anchor="start" dominant-baseline="alphabetic" fill-opacity="1">2</text><text fill="rgb(37,37,37)" stroke="none" font-family="geogebra-sans-serif, sans-serif" font-size="21px" font-style="normal" font-weight="normal" text-decoration="normal" x="658" y="466" text-anchor="start" dominant-baseline="alphabetic" fill-opacity="1">3</text><text fill="none" stroke="rgb(255,255,255)" font-family="geogebra-sans-serif, sans-serif" font-size="21px" font-style="normal" font-weight="normal" text-decoration="normal" x="658" y="466" text-anchor="start" dominant-baseline="alphabetic" stroke-opacity="1" stroke-linejoin="bevel" stroke-miterlimit="10" stroke-width="3">3</text><text fill="rgb(37,37,37)" stroke="none" font-family="geogebra-sans-serif, sans-serif" font-size="21px" font-style="normal" font-weight="normal" text-decoration="normal" x="658" y="466" text-anchor="start" dominant-baseline="alphabetic" fill-opacity="1">3</text><text fill="rgb(37,37,37)" stroke="none" font-family="geogebra-sans-serif, sans-serif" font-size="21px" font-style="normal" font-weight="normal" text-decoration="normal" x="708" y="466" text-anchor="start" dominant-baseline="alphabetic" fill-opacity="1">4</text><text fill="none" stroke="rgb(255,255,255)" font-family="geogebra-sans-serif, sans-serif" font-size="21px" font-style="normal" font-weight="normal" text-decoration="normal" x="708" y="466" text-anchor="start" dominant-baseline="alphabetic" stroke-opacity="1" stroke-linejoin="bevel" stroke-miterlimit="10" stroke-width="3">4</text><text fill="rgb(37,37,37)" stroke="none" font-family="geogebra-sans-serif, sans-serif" font-size="21px" font-style="normal" font-weight="normal" text-decoration="normal" x="708" y="466" text-anchor="start" dominant-baseline="alphabetic" fill-opacity="1">4</text><text fill="rgb(37,37,37)" stroke="none" font-family="geogebra-sans-serif, sans-serif" font-size="21px" font-style="normal" font-weight="normal" text-decoration="normal" x="758" y="466" text-anchor="start" dominant-baseline="alphabetic" fill-opacity="1">5</text><text fill="none" stroke="rgb(255,255,255)" font-family="geogebra-sans-serif, sans-serif" font-size="21px" font-style="normal" font-weight="normal" text-decoration="normal" x="758" y="466" text-anchor="start" dominant-baseline="alphabetic" stroke-opacity="1" stroke-linejoin="bevel" stroke-miterlimit="10" stroke-width="3">5</text><text fill="rgb(37,37,37)" stroke="none" font-family="geogebra-sans-serif, sans-serif" font-size="21px" font-style="normal" font-weight="normal" text-decoration="normal" x="758" y="466" text-anchor="start" dominant-baseline="alphabetic" fill-opacity="1">5</text><text fill="rgb(37,37,37)" stroke="none" font-family="geogebra-sans-serif, sans-serif" font-size="21px" font-style="normal" font-weight="normal" text-decoration="normal" x="808" y="466" text-anchor="start" dominant-baseline="alphabetic" fill-opacity="1">6</text><text fill="none" stroke="rgb(255,255,255)" font-family="geogebra-sans-serif, sans-serif" font-size="21px" font-style="normal" font-weight="normal" text-decoration="normal" x="808" y="466" text-anchor="start" dominant-baseline="alphabetic" stroke-opacity="1" stroke-linejoin="bevel" stroke-miterlimit="10" stroke-width="3">6</text><text fill="rgb(37,37,37)" stroke="none" font-family="geogebra-sans-serif, sans-serif" font-size="21px" font-style="normal" font-weight="normal" text-decoration="normal" x="808" y="466" text-anchor="start" dominant-baseline="alphabetic" fill-opacity="1">6</text><text fill="rgb(37,37,37)" stroke="none" font-family="geogebra-sans-serif, sans-serif" font-size="21px" font-style="normal" font-weight="normal" text-decoration="normal" x="858" y="466" text-anchor="start" dominant-baseline="alphabetic" fill-opacity="1">7</text><text fill="none" stroke="rgb(255,255,255)" font-family="geogebra-sans-serif, sans-serif" font-size="21px" font-style="normal" font-weight="normal" text-decoration="normal" x="858" y="466" text-anchor="start" dominant-baseline="alphabetic" stroke-opacity="1" stroke-linejoin="bevel" stroke-miterlimit="10" stroke-width="3">7</text><text fill="rgb(37,37,37)" stroke="none" font-family="geogebra-sans-serif, sans-serif" font-size="21px" font-style="normal" font-weight="normal" text-decoration="normal" x="858" y="466" text-anchor="start" dominant-baseline="alphabetic" fill-opacity="1">7</text><text fill="rgb(37,37,37)" stroke="none" font-family="geogebra-sans-serif, sans-serif" font-size="21px" font-style="normal" font-weight="normal" text-decoration="normal" x="908" y="466" text-anchor="start" dominant-baseline="alphabetic" fill-opacity="1">8</text><text fill="none" stroke="rgb(255,255,255)" font-family="geogebra-sans-serif, sans-serif" font-size="21px" font-style="normal" font-weight="normal" text-decoration="normal" x="908" y="466" text-anchor="start" dominant-baseline="alphabetic" stroke-opacity="1" stroke-linejoin="bevel" stroke-miterlimit="10" stroke-width="3">8</text><text fill="rgb(37,37,37)" stroke="none" font-family="geogebra-sans-serif, sans-serif" font-size="21px" font-style="normal" font-weight="normal" text-decoration="normal" x="908" y="466" text-anchor="start" dominant-baseline="alphabetic" fill-opacity="1">8</text><text fill="rgb(37,37,37)" stroke="none" font-family="geogebra-sans-serif, sans-serif" font-size="21px" font-style="normal" font-weight="normal" text-decoration="normal" x="958" y="466" text-anchor="start" dominant-baseline="alphabetic" fill-opacity="1">9</text><text fill="none" stroke="rgb(255,255,255)" font-family="geogebra-sans-serif, sans-serif" font-size="21px" font-style="normal" font-weight="normal" text-decoration="normal" x="958" y="466" text-anchor="start" dominant-baseline="alphabetic" stroke-opacity="1" stroke-linejoin="bevel" stroke-miterlimit="10" stroke-width="3">9</text><text fill="rgb(37,37,37)" stroke="none" font-family="geogebra-sans-serif, sans-serif" font-size="21px" font-style="normal" font-weight="normal" text-decoration="normal" x="958" y="466" text-anchor="start" dominant-baseline="alphabetic" fill-opacity="1">9</text><text fill="rgb(37,37,37)" stroke="none" font-family="geogebra-sans-serif, sans-serif" font-size="21px" font-style="normal" font-weight="normal" text-decoration="normal" x="1003" y="466" text-anchor="start" dominant-baseline="alphabetic" fill-opacity="1">10</text><text fill="none" stroke="rgb(255,255,255)" font-family="geogebra-sans-serif, sans-serif" font-size="21px" font-style="normal" font-weight="normal" text-decoration="normal" x="1003" y="466" text-anchor="start" dominant-baseline="alphabetic" stroke-opacity="1" stroke-linejoin="bevel" stroke-miterlimit="10" stroke-width="3">10</text><text fill="rgb(37,37,37)" stroke="none" font-family="geogebra-sans-serif, sans-serif" font-size="21px" font-style="normal" font-weight="normal" text-decoration="normal" x="1003" y="466" text-anchor="start" dominant-baseline="alphabetic" fill-opacity="1">10</text><text fill="rgb(37,37,37)" stroke="none" font-family="geogebra-sans-serif, sans-serif" font-size="21px" font-style="normal" font-weight="normal" text-decoration="normal" x="480" y="801" text-anchor="start" dominant-baseline="alphabetic" fill-opacity="1">–7</text><text fill="none" stroke="rgb(255,255,255)" font-family="geogebra-sans-serif, sans-serif" font-size="21px" font-style="normal" font-weight="normal" text-decoration="normal" x="480" y="801" text-anchor="start" dominant-baseline="alphabetic" stroke-opacity="1" stroke-linejoin="bevel" stroke-miterlimit="10" stroke-width="3">–7</text><text fill="rgb(37,37,37)" stroke="none" font-family="geogebra-sans-serif, sans-serif" font-size="21px" font-style="normal" font-weight="normal" text-decoration="normal" x="480" y="801" text-anchor="start" dominant-baseline="alphabetic" fill-opacity="1">–7</text><text fill="rgb(37,37,37)" stroke="none" font-family="geogebra-sans-serif, sans-serif" font-size="21px" font-style="normal" font-weight="normal" text-decoration="normal" x="480" y="751" text-anchor="start" dominant-baseline="alphabetic" fill-opacity="1">–6</text><text fill="none" stroke="rgb(255,255,255)" font-family="geogebra-sans-serif, sans-serif" font-size="21px" font-style="normal" font-weight="normal" text-decoration="normal" x="480" y="751" text-anchor="start" dominant-baseline="alphabetic" stroke-opacity="1" stroke-linejoin="bevel" stroke-miterlimit="10" stroke-width="3">–6</text><text fill="rgb(37,37,37)" stroke="none" font-family="geogebra-sans-serif, sans-serif" font-size="21px" font-style="normal" font-weight="normal" text-decoration="normal" x="480" y="751" text-anchor="start" dominant-baseline="alphabetic" fill-opacity="1">–6</text><text fill="rgb(37,37,37)" stroke="none" font-family="geogebra-sans-serif, sans-serif" font-size="21px" font-style="normal" font-weight="normal" text-decoration="normal" x="480" y="701" text-anchor="start" dominant-baseline="alphabetic" fill-opacity="1">–5</text><text fill="none" stroke="rgb(255,255,255)" font-family="geogebra-sans-serif, sans-serif" font-size="21px" font-style="normal" font-weight="normal" text-decoration="normal" x="480" y="701" text-anchor="start" dominant-baseline="alphabetic" stroke-opacity="1" stroke-linejoin="bevel" stroke-miterlimit="10" stroke-width="3">–5</text><text fill="rgb(37,37,37)" stroke="none" font-family="geogebra-sans-serif, sans-serif" font-size="21px" font-style="normal" font-weight="normal" text-decoration="normal" x="480" y="701" text-anchor="start" dominant-baseline="alphabetic" fill-opacity="1">–5</text><text fill="rgb(37,37,37)" stroke="none" font-family="geogebra-sans-serif, sans-serif" font-size="21px" font-style="normal" font-weight="normal" text-decoration="normal" x="480" y="651" text-anchor="start" dominant-baseline="alphabetic" fill-opacity="1">–4</text><text fill="none" stroke="rgb(255,255,255)" font-family="geogebra-sans-serif, sans-serif" font-size="21px" font-style="normal" font-weight="normal" text-decoration="normal" x="480" y="651" text-anchor="start" dominant-baseline="alphabetic" stroke-opacity="1" stroke-linejoin="bevel" stroke-miterlimit="10" stroke-width="3">–4</text><text fill="rgb(37,37,37)" stroke="none" font-family="geogebra-sans-serif, sans-serif" font-size="21px" font-style="normal" font-weight="normal" text-decoration="normal" x="480" y="651" text-anchor="start" dominant-baseline="alphabetic" fill-opacity="1">–4</text><text fill="rgb(37,37,37)" stroke="none" font-family="geogebra-sans-serif, sans-serif" font-size="21px" font-style="normal" font-weight="normal" text-decoration="normal" x="480" y="601" text-anchor="start" dominant-baseline="alphabetic" fill-opacity="1">–3</text><text fill="none" stroke="rgb(255,255,255)" font-family="geogebra-sans-serif, sans-serif" font-size="21px" font-style="normal" font-weight="normal" text-decoration="normal" x="480" y="601" text-anchor="start" dominant-baseline="alphabetic" stroke-opacity="1" stroke-linejoin="bevel" stroke-miterlimit="10" stroke-width="3">–3</text><text fill="rgb(37,37,37)" stroke="none" font-family="geogebra-sans-serif, sans-serif" font-size="21px" font-style="normal" font-weight="normal" text-decoration="normal" x="480" y="601" text-anchor="start" dominant-baseline="alphabetic" fill-opacity="1">–3</text><text fill="rgb(37,37,37)" stroke="none" font-family="geogebra-sans-serif, sans-serif" font-size="21px" font-style="normal" font-weight="normal" text-decoration="normal" x="480" y="551" text-anchor="start" dominant-baseline="alphabetic" fill-opacity="1">–2</text><text fill="none" stroke="rgb(255,255,255)" font-family="geogebra-sans-serif, sans-serif" font-size="21px" font-style="normal" font-weight="normal" text-decoration="normal" x="480" y="551" text-anchor="start" dominant-baseline="alphabetic" stroke-opacity="1" stroke-linejoin="bevel" stroke-miterlimit="10" stroke-width="3">–2</text><text fill="rgb(37,37,37)" stroke="none" font-family="geogebra-sans-serif, sans-serif" font-size="21px" font-style="normal" font-weight="normal" text-decoration="normal" x="480" y="551" text-anchor="start" dominant-baseline="alphabetic" fill-opacity="1">–2</text><text fill="rgb(37,37,37)" stroke="none" font-family="geogebra-sans-serif, sans-serif" font-size="21px" font-style="normal" font-weight="normal" text-decoration="normal" x="480" y="501" text-anchor="start" dominant-baseline="alphabetic" fill-opacity="1">–1</text><text fill="none" stroke="rgb(255,255,255)" font-family="geogebra-sans-serif, sans-serif" font-size="21px" font-style="normal" font-weight="normal" text-decoration="normal" x="480" y="501" text-anchor="start" dominant-baseline="alphabetic" stroke-opacity="1" stroke-linejoin="bevel" stroke-miterlimit="10" stroke-width="3">–1</text><text fill="rgb(37,37,37)" stroke="none" font-family="geogebra-sans-serif, sans-serif" font-size="21px" font-style="normal" font-weight="normal" text-decoration="normal" x="480" y="501" text-anchor="start" dominant-baseline="alphabetic" fill-opacity="1">–1</text><text fill="rgb(37,37,37)" stroke="none" font-family="geogebra-sans-serif, sans-serif" font-size="21px" font-style="normal" font-weight="normal" text-decoration="normal" x="491" y="400" text-anchor="start" dominant-baseline="alphabetic" fill-opacity="1">1</text><text fill="none" stroke="rgb(255,255,255)" font-family="geogebra-sans-serif, sans-serif" font-size="21px" font-style="normal" font-weight="normal" text-decoration="normal" x="491" y="400" text-anchor="start" dominant-baseline="alphabetic" stroke-opacity="1" stroke-linejoin="bevel" stroke-miterlimit="10" stroke-width="3">1</text><text fill="rgb(37,37,37)" stroke="none" font-family="geogebra-sans-serif, sans-serif" font-size="21px" font-style="normal" font-weight="normal" text-decoration="normal" x="491" y="400" text-anchor="start" dominant-baseline="alphabetic" fill-opacity="1">1</text><text fill="rgb(37,37,37)" stroke="none" font-family="geogebra-sans-serif, sans-serif" font-size="21px" font-style="normal" font-weight="normal" text-decoration="normal" x="491" y="350" text-anchor="start" dominant-baseline="alphabetic" fill-opacity="1">2</text><text fill="none" stroke="rgb(255,255,255)" font-family="geogebra-sans-serif, sans-serif" font-size="21px" font-style="normal" font-weight="normal" text-decoration="normal" x="491" y="350" text-anchor="start" dominant-baseline="alphabetic" stroke-opacity="1" stroke-linejoin="bevel" stroke-miterlimit="10" stroke-width="3">2</text><text fill="rgb(37,37,37)" stroke="none" font-family="geogebra-sans-serif, sans-serif" font-size="21px" font-style="normal" font-weight="normal" text-decoration="normal" x="491" y="350" text-anchor="start" dominant-baseline="alphabetic" fill-opacity="1">2</text><text fill="rgb(37,37,37)" stroke="none" font-family="geogebra-sans-serif, sans-serif" font-size="21px" font-style="normal" font-weight="normal" text-decoration="normal" x="491" y="300" text-anchor="start" dominant-baseline="alphabetic" fill-opacity="1">3</text><text fill="none" stroke="rgb(255,255,255)" font-family="geogebra-sans-serif, sans-serif" font-size="21px" font-style="normal" font-weight="normal" text-decoration="normal" x="491" y="300" text-anchor="start" dominant-baseline="alphabetic" stroke-opacity="1" stroke-linejoin="bevel" stroke-miterlimit="10" stroke-width="3">3</text><text fill="rgb(37,37,37)" stroke="none" font-family="geogebra-sans-serif, sans-serif" font-size="21px" font-style="normal" font-weight="normal" text-decoration="normal" x="491" y="300" text-anchor="start" dominant-baseline="alphabetic" fill-opacity="1">3</text><text fill="rgb(37,37,37)" stroke="none" font-family="geogebra-sans-serif, sans-serif" font-size="21px" font-style="normal" font-weight="normal" text-decoration="normal" x="491" y="250" text-anchor="start" dominant-baseline="alphabetic" fill-opacity="1">4</text><text fill="none" stroke="rgb(255,255,255)" font-family="geogebra-sans-serif, sans-serif" font-size="21px" font-style="normal" font-weight="normal" text-decoration="normal" x="491" y="250" text-anchor="start" dominant-baseline="alphabetic" stroke-opacity="1" stroke-linejoin="bevel" stroke-miterlimit="10" stroke-width="3">4</text><text fill="rgb(37,37,37)" stroke="none" font-family="geogebra-sans-serif, sans-serif" font-size="21px" font-style="normal" font-weight="normal" text-decoration="normal" x="491" y="250" text-anchor="start" dominant-baseline="alphabetic" fill-opacity="1">4</text><text fill="rgb(37,37,37)" stroke="none" font-family="geogebra-sans-serif, sans-serif" font-size="21px" font-style="normal" font-weight="normal" text-decoration="normal" x="491" y="200" text-anchor="start" dominant-baseline="alphabetic" fill-opacity="1">5</text><text fill="none" stroke="rgb(255,255,255)" font-family="geogebra-sans-serif, sans-serif" font-size="21px" font-style="normal" font-weight="normal" text-decoration="normal" x="491" y="200" text-anchor="start" dominant-baseline="alphabetic" stroke-opacity="1" stroke-linejoin="bevel" stroke-miterlimit="10" stroke-width="3">5</text><text fill="rgb(37,37,37)" stroke="none" font-family="geogebra-sans-serif, sans-serif" font-size="21px" font-style="normal" font-weight="normal" text-decoration="normal" x="491" y="200" text-anchor="start" dominant-baseline="alphabetic" fill-opacity="1">5</text><text fill="rgb(37,37,37)" stroke="none" font-family="geogebra-sans-serif, sans-serif" font-size="21px" font-style="normal" font-weight="normal" text-decoration="normal" x="491" y="150" text-anchor="start" dominant-baseline="alphabetic" fill-opacity="1">6</text><text fill="none" stroke="rgb(255,255,255)" font-family="geogebra-sans-serif, sans-serif" font-size="21px" font-style="normal" font-weight="normal" text-decoration="normal" x="491" y="150" text-anchor="start" dominant-baseline="alphabetic" stroke-opacity="1" stroke-linejoin="bevel" stroke-miterlimit="10" stroke-width="3">6</text><text fill="rgb(37,37,37)" stroke="none" font-family="geogebra-sans-serif, sans-serif" font-size="21px" font-style="normal" font-weight="normal" text-decoration="normal" x="491" y="150" text-anchor="start" dominant-baseline="alphabetic" fill-opacity="1">6</text><text fill="rgb(37,37,37)" stroke="none" font-family="geogebra-sans-serif, sans-serif" font-size="21px" font-style="normal" font-weight="normal" text-decoration="normal" x="491" y="100" text-anchor="start" dominant-baseline="alphabetic" fill-opacity="1">7</text><text fill="none" stroke="rgb(255,255,255)" font-family="geogebra-sans-serif, sans-serif" font-size="21px" font-style="normal" font-weight="normal" text-decoration="normal" x="491" y="100" text-anchor="start" dominant-baseline="alphabetic" stroke-opacity="1" stroke-linejoin="bevel" stroke-miterlimit="10" stroke-width="3">7</text><text fill="rgb(37,37,37)" stroke="none" font-family="geogebra-sans-serif, sans-serif" font-size="21px" font-style="normal" font-weight="normal" text-decoration="normal" x="491" y="100" text-anchor="start" dominant-baseline="alphabetic" fill-opacity="1">7</text><text fill="rgb(37,37,37)" stroke="none" font-family="geogebra-sans-serif, sans-serif" font-size="21px" font-style="normal" font-weight="normal" text-decoration="normal" x="491" y="50" text-anchor="start" dominant-baseline="alphabetic" fill-opacity="1">8</text><text fill="none" stroke="rgb(255,255,255)" font-family="geogebra-sans-serif, sans-serif" font-size="21px" font-style="normal" font-weight="normal" text-decoration="normal" x="491" y="50" text-anchor="start" dominant-baseline="alphabetic" stroke-opacity="1" stroke-linejoin="bevel" stroke-miterlimit="10" stroke-width="3">8</text><text fill="rgb(37,37,37)" stroke="none" font-family="geogebra-sans-serif, sans-serif" font-size="21px" font-style="normal" font-weight="normal" text-decoration="normal" x="491" y="50" text-anchor="start" dominant-baseline="alphabetic" fill-opacity="1">8</text><text fill="rgb(37,37,37)" stroke="none" font-family="geogebra-sans-serif, sans-serif" font-size="21px" font-style="normal" font-weight="normal" text-decoration="normal" x="491" y="466" text-anchor="start" dominant-baseline="alphabetic" fill-opacity="1">0</text><text fill="none" stroke="rgb(255,255,255)" font-family="geogebra-sans-serif, sans-serif" font-size="21px" font-style="normal" font-weight="normal" text-decoration="normal" x="491" y="466" text-anchor="start" dominant-baseline="alphabetic" stroke-opacity="1" stroke-linejoin="bevel" stroke-miterlimit="10" stroke-width="3">0</text><text fill="rgb(37,37,37)" stroke="none" font-family="geogebra-sans-serif, sans-serif" font-size="21px" font-style="normal" font-weight="normal" text-decoration="normal" x="491" y="466" text-anchor="start" dominant-baseline="alphabetic" fill-opacity="1">0</text><path fill="none" stroke="rgb(219,97,20)" paint-order="fill stroke markers" d=" M 1 446.3732943469786 L 1 446.3828125 L 1 446.3828125 L 1.9999999999999432 446.39236790606657 L 1.9999999999999432 446.39236790606657 L 2.999999999999943 446.40196078431376 L 2.999999999999943 446.40196078431376 L 4 446.4115913555992 L 4 446.4115913555992 L 5 446.4212598425197 L 5 446.4212598425197 L 5.999999999999943 446.43096646942803 L 5.999999999999943 446.43096646942803 L 6.999999999999943 446.4407114624506 L 6.999999999999943 446.4407114624506 L 8 446.450495049505 L 8 446.450495049505 L 9 446.46031746031747 L 9 446.46031746031747 L 9.999999999999943 446.47017892644135 L 9.999999999999943 446.47017892644135 L 10.999999999999943 446.4800796812749 L 10.999999999999943 446.4800796812749 L 12 446.49001996007985 L 12 446.49001996007985 L 13 446.5 L 13 446.5 L 13.999999999999943 446.5100200400802 L 13.999999999999943 446.5100200400802 L 14.999999999999943 446.52008032128515 L 14.999999999999943 446.52008032128515 L 16 446.5301810865191 L 16 446.5301810865191 L 17 446.5403225806452 L 17 446.5403225806452 L 17.999999999999943 446.5505050505051 L 17.999999999999943 446.5505050505051 L 18.999999999999943 446.5607287449393 L 18.999999999999943 446.5607287449393 L 20 446.57099391480733 L 20 446.57099391480733 L 21 446.58130081300817 L 21 446.58130081300817 L 21.999999999999943 446.59164969450103 L 21.999999999999943 446.59164969450103 L 22.999999999999943 446.60204081632656 L 22.999999999999943 446.60204081632656 L 24 446.61247443762784 L 24 446.61247443762784 L 25 446.62295081967216 L 25 446.62295081967216 L 25.999999999999943 446.6334702258727 L 25.999999999999943 446.6334702258727 L 26.999999999999943 446.6440329218107 L 26.999999999999943 446.6440329218107 L 28 446.6546391752577 L 28 446.6546391752577 L 29 446.6652892561984 L 29 446.6652892561984 L 30 446.675983436853 L 30 446.675983436853 L 30.999999999999943 446.6867219917013 L 30.999999999999943 446.6867219917013 L 32 446.6975051975052 L 32 446.6975051975052 L 33 446.70833333333337 L 33 446.70833333333337 L 34 446.7192066805846 L 34 446.7192066805846 L 34.99999999999994 446.7301255230126 L 34.99999999999994 446.7301255230126 L 35.99999999999994 446.74109014675054 L 35.99999999999994 446.74109014675054 L 37 446.75210084033614 L 37 446.75210084033614 L 38 446.7631578947369 L 38 446.7631578947369 L 38.99999999999994 446.7742616033755 L 38.99999999999994 446.7742616033755 L 39.99999999999994 446.78541226215646 L 39.99999999999994 446.78541226215646 L 41 446.79661016949154 L 41 446.79661016949154 L 42 446.807855626327 L 42 446.807855626327 L 42.99999999999994 446.8191489361702 L 42.99999999999994 446.8191489361702 L 43.99999999999994 446.8304904051173 L 43.99999999999994 446.8304904051173 L 45 446.84188034188037 L 45 446.84188034188037 L 46 446.8533190578159 L 46 446.8533190578159 L 46.99999999999994 446.8648068669528 L 46.99999999999994 446.8648068669528 L 47.99999999999994 446.8763440860215 L 47.99999999999994 446.8763440860215 L 49 446.8879310344828 L 49 446.8879310344828 L 50 446.89956803455726 L 50 446.89956803455726 L 50.99999999999994 446.9112554112554 L 50.99999999999994 446.9112554112554 L 51.99999999999994 446.92299349240784 L 51.99999999999994 446.92299349240784 L 53 446.9347826086957 L 53 446.9347826086957 L 54 446.9466230936819 L 54 446.9466230936819 L 54.99999999999994 446.9585152838428 L 54.99999999999994 446.9585152838428 L 55.99999999999994 446.97045951859957 L 55.99999999999994 446.97045951859957 L 57 446.9824561403509 L 57 446.9824561403509 L 58 446.9945054945055 L 58 446.9945054945055 L 59 447.00660792951544 L 59 447.00660792951544 L 59.99999999999994 447.0187637969095 L 59.99999999999994 447.0187637969095 L 61 447.03097345132744 L 61 447.03097345132744 L 62 447.04323725055434 L 62 447.04323725055434 L 63 447.0555555555556 L 63 447.0555555555556 L 63.99999999999994 447.0679287305123 L 63.99999999999994 447.0679287305123 L 65 447.08035714285717 L 65 447.08035714285717 L 66 447.092841163311 L 66 447.092841163311 L 67 447.1053811659193 L 67 447.1053811659193 L 67.99999999999994 447.1179775280899 L 67.99999999999994 447.1179775280899 L 68.99999999999994 447.13063063063066 L 68.99999999999994 447.13063063063066 L 70 447.14334085778785 L 70 447.14334085778785 L 71 447.1561085972851 L 71 447.1561085972851 L 71.99999999999994 447.16893424036283 L 71.99999999999994 447.16893424036283 L 72.99999999999994 447.1818181818182 L 72.99999999999994 447.1818181818182 L 74 447.1947608200456 L 74 447.1947608200456 L 75 447.2077625570777 L 75 447.2077625570777 L 75.99999999999994 447.220823798627 L 75.99999999999994 447.220823798627 L 76.99999999999994 447.23394495412845 L 76.99999999999994 447.23394495412845 L 78 447.2471264367816 L 78 447.2471264367816 L 79 447.2603686635945 L 79 447.2603686635945 L 79.99999999999994 447.27367205542726 L 79.99999999999994 447.27367205542726 L 80.99999999999994 447.28703703703707 L 80.99999999999994 447.28703703703707 L 82 447.300464037123 L 82 447.300464037123 L 83 447.31395348837214 L 83 447.31395348837214 L 83.99999999999994 447.32750582750583 L 83.99999999999994 447.32750582750583 L 84.99999999999994 447.3411214953271 L 84.99999999999994 447.3411214953271 L 86 447.3548009367682 L 86 447.3548009367682 L 87 447.368544600939 L 87 447.368544600939 L 88 447.3823529411765 L 88 447.3823529411765 L 88.99999999999994 447.39622641509436 L 88.99999999999994 447.39622641509436 L 90 447.4101654846336 L 90 447.4101654846336 L 91 447.42417061611377 L 91 447.42417061611377 L 92 447.43824228028507 L 92 447.43824228028507 L 92.99999999999994 447.45238095238096 L 92.99999999999994 447.45238095238096 L 94 447.46658711217185 L 94 447.46658711217185 L 95 447.48086124401914 L 95 447.48086124401914 L 96 447.4952038369305 L 96 447.4952038369305 L 96.99999999999994 447.5096153846154 L 96.99999999999994 447.5096153846154 L 97.99999999999994 447.5240963855422 L 97.99999999999994 447.5240963855422 L 99 447.5386473429952 L 99 447.5386473429952 L 100 447.55326876513317 L 100 447.55326876513317 L 100.99999999999994 447.5679611650486 L 100.99999999999994 447.5679611650486 L 101.99999999999994 447.5827250608273 L 101.99999999999994 447.5827250608273 L 103 447.5975609756098 L 103 447.5975609756098 L 104 447.61246943765286 L 104 447.61246943765286 L 104.99999999999994 447.62745098039215 L 104.99999999999994 447.62745098039215 L 105.99999999999994 447.6425061425062 L 105.99999999999994 447.6425061425062 L 107 447.6576354679803 L 107 447.6576354679803 L 108 447.67283950617286 L 108 447.67283950617286 L 108.99999999999994 447.6881188118812 L 108.99999999999994 447.6881188118812 L 109.99999999999994 447.7034739454094 L 109.99999999999994 447.7034739454094 L 111 447.71890547263683 L 111 447.71890547263683 L 112 447.7344139650873 L 112 447.7344139650873 L 112.99999999999994 447.75 L 112.99999999999994 447.75 L 114 447.765664160401 L 114 447.765664160401 L 114.99999999999994 447.7814070351759 L 114.99999999999994 447.7814070351759 L 116 447.7972292191436 L 116 447.7972292191436 L 116.99999999999994 447.81313131313135 L 116.99999999999994 447.81313131313135 L 118 447.82911392405066 L 118 447.82911392405066 L 119 447.84517766497464 L 119 447.84517766497464 L 120 447.8613231552163 L 120 447.8613231552163 L 121 447.8775510204082 L 121 447.8775510204082 L 122 447.8938618925831 L 122 447.8938618925831 L 123 447.9102564102564 L 123 447.9102564102564 L 124 447.926735218509 L 124 447.926735218509 L 125 447.9432989690722 L 125 447.9432989690722 L 126 447.95994832041345 L 126 447.95994832041345 L 127 447.97668393782385 L 127 447.97668393782385 L 128 447.9935064935065 L 128 447.9935064935065 L 129 448.0104166666667 L 129 448.0104166666667 L 129.99999999999994 448.02741514360315 L 129.99999999999994 448.02741514360315 L 131 448.0445026178011 L 131 448.0445026178011 L 131.99999999999994 448.0616797900263 L 131.99999999999994 448.0616797900263 L 133 448.0789473684211 L 133 448.0789473684211 L 133.99999999999994 448.0963060686016 L 133.99999999999994 448.0963060686016 L 135 448.11375661375666 L 135 448.11375661375666 L 135.99999999999994 448.13129973474804 L 135.99999999999994 448.13129973474804 L 137 448.1489361702128 L 137 448.1489361702128 L 137.99999999999994 448.1666666666667 L 137.99999999999994 448.1666666666667 L 139 448.1844919786096 L 139 448.1844919786096 L 139.99999999999994 448.20241286863273 L 139.99999999999994 448.20241286863273 L 141 448.2204301075269 L 141 448.2204301075269 L 141.99999999999994 448.23854447439356 L 141.99999999999994 448.23854447439356 L 143 448.2567567567568 L 143 448.2567567567568 L 143.99999999999994 448.2750677506775 L 143.99999999999994 448.2750677506775 L 145 448.2934782608696 L 145 448.2934782608696 L 145.99999999999994 448.31198910081747 L 145.99999999999994 448.31198910081747 L 147 448.3306010928962 L 147 448.3306010928962 L 148 448.3493150684932 L 148 448.3493150684932 L 149 448.3681318681319 L 149 448.3681318681319 L 150 448.38705234159784 L 150 448.38705234159784 L 151 448.40607734806633 L 151 448.40607734806633 L 152 448.42520775623274 L 152 448.42520775623274 L 153 448.44444444444446 L 153 448.44444444444446 L 154 448.4637883008357 L 154 448.4637883008357 L 155 448.4832402234637 L 155 448.4832402234637 L 156 448.5028011204482 L 156 448.5028011204482 L 157 448.5224719101124 L 157 448.5224719101124 L 158 448.5422535211268 L 158 448.5422535211268 L 159 448.5621468926554 L 159 448.5621468926554 L 160 448.58215297450425 L 160 448.58215297450425 L 161 448.60227272727275 L 161 448.60227272727275 L 162 448.62250712250716 L 162 448.62250712250716 L 162.99999999999994 448.64285714285717 L 162.99999999999994 448.64285714285717 L 164 448.663323782235 L 164 448.663323782235 L 164.99999999999994 448.68390804597703 L 164.99999999999994 448.68390804597703 L 166 448.7046109510087 L 166 448.7046109510087 L 166.99999999999994 448.7254335260116 L 166.99999999999994 448.7254335260116 L 168 448.74637681159425 L 168 448.74637681159425 L 168.99999999999994 448.76744186046517 L 168.99999999999994 448.76744186046517 L 170 448.78862973760937 L 170 448.78862973760937 L 170.99999999999994 448.8099415204679 L 170.99999999999994 448.8099415204679 L 172 448.8313782991203 L 172 448.8313782991203 L 172.99999999999994 448.8529411764706 L 172.99999999999994 448.8529411764706 L 174 448.8746312684366 L 174 448.8746312684366 L 174.99999999999994 448.896449704142 L 174.99999999999994 448.896449704142 L 176 448.9183976261128 L 176 448.9183976261128 L 176.99999999999994 448.9404761904762 L 176.99999999999994 448.9404761904762 L 178 448.9626865671642 L 178 448.9626865671642 L 179 448.9850299401198 L 179 448.9850299401198 L 180 449.0075075075075 L 180 449.0075075075075 L 181 449.0301204819277 L 181 449.0301204819277 L 182 449.0528700906345 L 182 449.0528700906345 L 183 449.0757575757576 L 183 449.0757575757576 L 184 449.0987841945289 L 184 449.0987841945289 L 185 449.1219512195122 L 185 449.1219512195122 L 186 449.14525993883797 L 186 449.14525993883797 L 187 449.16871165644176 L 187 449.16871165644176 L 188 449.19230769230774 L 188 449.19230769230774 L 189 449.2160493827161 L 189 449.2160493827161 L 190 449.2399380804954 L 190 449.2399380804954 L 191 449.2639751552795 L 191 449.2639751552795 L 192 449.2881619937695 L 192 449.2881619937695 L 193 449.31250000000006 L 193 449.31250000000006 L 193.99999999999994 449.3369905956113 L 193.99999999999994 449.3369905956113 L 195 449.36163522012583 L 195 449.36163522012583 L 195.99999999999994 449.3864353312303 L 195.99999999999994 449.3864353312303 L 197 449.41139240506334 L 197 449.41139240506334 L 197.99999999999994 449.43650793650795 L 197.99999999999994 449.43650793650795 L 199 449.4617834394905 L 199 449.4617834394905 L 199.99999999999994 449.48722044728436 L 199.99999999999994 449.48722044728436 L 201 449.51282051282055 L 201 449.51282051282055 L 201.99999999999994 449.53858520900326 L 201.99999999999994 449.53858520900326 L 203 449.5645161290323 L 203 449.5645161290323 L 203.99999999999994 449.59061488673143 L 203.99999999999994 449.59061488673143 L 205 449.6168831168832 L 205 449.6168831168832 L 205.99999999999994 449.6433224755701 L 205.99999999999994 449.6433224755701 L 207 449.6699346405229 L 207 449.6699346405229 L 208 449.69672131147547 L 208 449.69672131147547 L 209 449.72368421052636 L 209 449.72368421052636 L 210 449.7508250825083 L 210 449.7508250825083 L 211 449.7781456953643 L 211 449.7781456953643 L 212 449.8056478405316 L 212 449.8056478405316 L 213 449.83333333333337 L 213 449.83333333333337 L 214 449.86120401337797 L 214 449.86120401337797 L 215 449.88926174496646 L 215 449.88926174496646 L 216 449.91750841750843 L 216 449.91750841750843 L 217 449.945945945946 L 217 449.945945945946 L 218 449.9745762711865 L 218 449.9745762711865 L 219 450.0034013605443 L 219 450.0034013605443 L 220 450.0324232081912 L 220 450.0324232081912 L 221 450.06164383561645 L 221 450.06164383561645 L 222 450.09106529209623 L 222 450.09106529209623 L 223 450.12068965517244 L 223 450.12068965517244 L 224 450.1505190311419 L 224 450.1505190311419 L 224.99999999999994 450.1805555555556 L 224.99999999999994 450.1805555555556 L 226 450.2108013937283 L 226 450.2108013937283 L 226.99999999999994 450.2412587412588 L 226.99999999999994 450.2412587412588 L 228 450.2719298245614 L 228 450.2719298245614 L 228.99999999999994 450.3028169014085 L 228.99999999999994 450.3028169014085 L 230 450.33392226148413 L 230 450.33392226148413 L 230.99999999999994 450.36524822695037 L 230.99999999999994 450.36524822695037 L 232 450.396797153025 L 232 450.396797153025 L 232.99999999999994 450.42857142857144 L 232.99999999999994 450.42857142857144 L 234 450.46057347670256 L 234 450.46057347670256 L 234.99999999999994 450.4928057553957 L 234.99999999999994 450.4928057553957 L 236 450.52527075812276 L 236 450.52527075812276 L 237 450.5579710144928 L 237 450.5579710144928 L 238 450.5909090909091 L 238 450.5909090909091 L 239 450.62408759124094 L 239 450.62408759124094 L 240 450.6575091575092 L 240 450.6575091575092 L 241 450.6911764705883 L 241 450.6911764705883 L 242 450.72509225092256 L 242 450.72509225092256 L 243 450.7592592592593 L 243 450.7592592592593 L 244 450.7936802973978 L 244 450.7936802973978 L 245 450.82835820895525 L 245 450.82835820895525 L 246 450.86329588014985 L 246 450.86329588014985 L 247 450.89849624060156 L 247 450.89849624060156 L 248 450.933962264151 L 248 450.933962264151 L 249 450.969696969697 L 249 450.969696969697 L 250 451.0057034220533 L 250 451.0057034220533 L 251 451.04198473282446 L 251 451.04198473282446 L 252 451.07854406130275 L 252 451.07854406130275 L 253 451.11538461538464 L 253 451.11538461538464 L 254 451.1525096525097 L 254 451.1525096525097 L 255 451.18992248062017 L 255 451.18992248062017 L 256 451.227626459144 L 256 451.227626459144 L 257 451.26562500000006 L 257 451.26562500000006 L 258 451.3039215686275 L 258 451.3039215686275 L 259 451.3425196850394 L 259 451.3425196850394 L 260 451.38142292490124 L 260 451.38142292490124 L 261 451.42063492063494 L 261 451.42063492063494 L 262 451.46015936254986 L 262 451.46015936254986 L 263 451.50000000000006 L 263 451.50000000000006 L 264 451.5401606425703 L 264 451.5401606425703 L 265 451.58064516129036 L 265 451.58064516129036 L 266 451.6214574898786 L 266 451.6214574898786 L 267 451.6626016260163 L 267 451.6626016260163 L 268 451.70408163265313 L 268 451.70408163265313 L 269 451.7459016393443 L 269 451.7459016393443 L 270 451.78806584362144 L 270 451.78806584362144 L 271 451.83057851239676 L 271 451.83057851239676 L 272 451.8734439834025 L 272 451.8734439834025 L 273 451.9166666666667 L 273 451.9166666666667 L 274 451.9602510460251 L 274 451.9602510460251 L 275 452.00420168067234 L 275 452.00420168067234 L 276 452.0485232067511 L 276 452.0485232067511 L 277 452.0932203389831 L 277 452.0932203389831 L 278 452.13829787234044 L 278 452.13829787234044 L 279 452.18376068376074 L 279 452.18376068376074 L 280 452.22961373390564 L 280 452.22961373390564 L 281 452.2758620689656 L 281 452.2758620689656 L 282 452.3225108225109 L 282 452.3225108225109 L 283 452.36956521739137 L 283 452.36956521739137 L 284 452.41703056768563 L 284 452.41703056768563 L 285 452.4649122807018 L 285 452.4649122807018 L 286 452.5132158590309 L 286 452.5132158590309 L 287 452.56194690265494 L 287 452.56194690265494 L 288 452.61111111111114 L 288 452.61111111111114 L 289 452.66071428571433 L 289 452.66071428571433 L 290 452.7107623318386 L 290 452.7107623318386 L 291 452.7612612612613 L 291 452.7612612612613 L 292 452.81221719457017 L 292 452.81221719457017 L 293 452.86363636363643 L 293 452.86363636363643 L 294 452.9155251141553 L 294 452.9155251141553 L 295 452.96788990825695 L 295 452.96788990825695 L 296 453.020737327189 L 296 453.020737327189 L 297 453.07407407407413 L 297 453.07407407407413 L 298 453.1279069767442 L 298 453.1279069767442 L 299 453.18224299065423 L 299 453.18224299065423 L 300 453.237089201878 L 300 453.237089201878 L 301 453.2924528301887 L 301 453.2924528301887 L 302 453.34834123222754 L 302 453.34834123222754 L 303 453.4047619047619 L 303 453.4047619047619 L 304 453.46172248803833 L 304 453.46172248803833 L 305 453.51923076923083 L 305 453.51923076923083 L 306 453.5772946859904 L 306 453.5772946859904 L 307 453.6359223300971 L 307 453.6359223300971 L 308 453.69512195121956 L 308 453.69512195121956 L 309 453.75490196078437 L 309 453.75490196078437 L 310 453.81527093596065 L 310 453.81527093596065 L 311 453.87623762376245 L 311 453.87623762376245 L 312 453.93781094527367 L 312 453.93781094527367 L 313 454.00000000000006 L 313 454.00000000000006 L 314 454.0628140703518 L 314 454.0628140703518 L 315 454.1262626262627 L 315 454.1262626262627 L 316 454.1903553299493 L 316 454.1903553299493 L 317 454.2551020408164 L 317 454.2551020408164 L 318 454.3205128205129 L 318 454.3205128205129 L 319 454.3865979381444 L 319 454.3865979381444 L 320 454.4533678756477 L 320 454.4533678756477 L 321 454.52083333333337 L 321 454.52083333333337 L 322 454.58900523560214 L 322 454.58900523560214 L 323 454.65789473684214 L 323 454.65789473684214 L 324 454.72751322751327 L 324 454.72751322751327 L 325 454.7978723404256 L 325 454.7978723404256 L 326 454.8689839572193 L 326 454.8689839572193 L 327 454.9408602150538 L 327 454.9408602150538 L 328 455.01351351351354 L 328 455.01351351351354 L 329 455.0869565217392 L 329 455.0869565217392 L 330 455.16120218579243 L 330 455.16120218579243 L 331 455.2362637362638 L 331 455.2362637362638 L 332 455.31215469613267 L 332 455.31215469613267 L 333 455.38888888888897 L 333 455.38888888888897 L 334 455.46648044692745 L 334 455.46648044692745 L 335 455.5449438202248 L 335 455.5449438202248 L 336 455.6242937853108 L 336 455.6242937853108 L 337 455.7045454545455 L 337 455.7045454545455 L 338 455.78571428571433 L 338 455.78571428571433 L 339 455.86781609195407 L 339 455.86781609195407 L 340 455.95086705202317 L 340 455.95086705202317 L 341 456.0348837209303 L 341 456.0348837209303 L 342 456.11988304093575 L 342 456.11988304093575 L 343 456.2058823529412 L 343 456.2058823529412 L 344 456.2928994082841 L 344 456.2928994082841 L 345 456.38095238095246 L 345 456.38095238095246 L 346 456.4700598802396 L 346 456.4700598802396 L 347 456.5602409638555 L 347 456.5602409638555 L 348 456.65151515151524 L 348 456.65151515151524 L 349 456.74390243902445 L 349 456.74390243902445 L 350 456.8374233128835 L 350 456.8374233128835 L 351 456.93209876543216 L 351 456.93209876543216 L 352 457.02795031055905 L 352 457.02795031055905 L 353 457.12500000000006 L 353 457.12500000000006 L 354 457.2232704402516 L 354 457.2232704402516 L 355 457.3227848101267 L 355 457.3227848101267 L 356 457.423566878981 L 356 457.423566878981 L 357 457.5256410256411 L 357 457.5256410256411 L 358 457.62903225806457 L 358 457.62903225806457 L 359 457.7337662337663 L 359 457.7337662337663 L 360 457.8398692810458 L 360 457.8398692810458 L 361 457.9473684210527 L 361 457.9473684210527 L 362 458.0562913907286 L 362 458.0562913907286 L 363 458.16666666666674 L 363 458.16666666666674 L 364 458.278523489933 L 364 458.278523489933 L 365 458.391891891892 L 365 458.391891891892 L 366 458.5068027210885 L 366 458.5068027210885 L 367 458.62328767123296 L 367 458.62328767123296 L 368 458.7413793103449 L 368 458.7413793103449 L 369 458.8611111111112 L 369 458.8611111111112 L 370 458.98251748251755 L 370 458.98251748251755 L 371 459.10563380281695 L 371 459.10563380281695 L 372 459.2304964539008 L 372 459.2304964539008 L 373 459.35714285714295 L 373 459.35714285714295 L 374 459.48561151079144 L 374 459.48561151079144 L 375 459.61594202898556 L 375 459.61594202898556 L 376 459.7481751824818 L 376 459.7481751824818 L 377 459.8823529411765 L 377 459.8823529411765 L 378 460.0185185185186 L 378 460.0185185185186 L 379 460.1567164179105 L 379 460.1567164179105 L 380 460.29699248120306 L 380 460.29699248120306 L 381 460.439393939394 L 381 460.439393939394 L 382 460.5839694656489 L 382 460.5839694656489 L 383 460.7307692307693 L 383 460.7307692307693 L 384 460.8798449612404 L 384 460.8798449612404 L 385 461.03125000000006 L 385 461.03125000000006 L 386 461.1850393700788 L 386 461.1850393700788 L 387 461.34126984126993 L 387 461.34126984126993 L 388 461.50000000000006 L 388 461.50000000000006 L 389 461.6612903225807 L 389 461.6612903225807 L 390 461.8252032520326 L 390 461.8252032520326 L 391 461.9918032786886 L 391 461.9918032786886 L 392 462.16115702479345 L 392 462.16115702479345 L 393 462.3333333333334 L 393 462.3333333333334 L 394 462.5084033613446 L 394 462.5084033613446 L 395 462.6864406779662 L 395 462.6864406779662 L 396 462.8675213675215 L 396 462.8675213675215 L 397 463.0517241379311 L 397 463.0517241379311 L 398 463.2391304347827 L 398 463.2391304347827 L 399 463.4298245614036 L 399 463.4298245614036 L 400 463.6238938053098 L 400 463.6238938053098 L 401 463.82142857142867 L 401 463.82142857142867 L 402 464.0225225225226 L 402 464.0225225225226 L 403 464.2272727272728 L 403 464.2272727272728 L 404 464.43577981651384 L 404 464.43577981651384 L 405 464.64814814814827 L 405 464.64814814814827 L 406 464.8644859813085 L 406 464.8644859813085 L 407 465.08490566037744 L 407 465.08490566037744 L 408 465.3095238095239 L 408 465.3095238095239 L 409 465.53846153846166 L 409 465.53846153846166 L 410 465.7718446601943 L 410 465.7718446601943 L 411 466.00980392156873 L 411 466.00980392156873 L 412 466.25247524752484 L 412 466.25247524752484 L 413 466.5000000000001 L 413 466.5000000000001 L 414 466.75252525252534 L 414 466.75252525252534 L 415 467.01020408163276 L 415 467.01020408163276 L 416 467.27319587628875 L 416 467.27319587628875 L 417 467.5416666666668 L 417 467.5416666666668 L 418 467.81578947368433 L 418 467.81578947368433 L 419 468.09574468085117 L 419 468.09574468085117 L 420 468.38172043010763 L 420 468.38172043010763 L 421 468.67391304347836 L 421 468.67391304347836 L 422 468.9725274725276 L 422 468.9725274725276 L 423 469.2777777777779 L 423 469.2777777777779 L 424 469.58988764044955 L 424 469.58988764044955 L 425 469.90909090909105 L 425 469.90909090909105 L 426 470.23563218390814 L 426 470.23563218390814 L 427 470.56976744186056 L 427 470.56976744186056 L 428 470.9117647058825 L 428 470.9117647058825 L 429 471.2619047619049 L 429 471.2619047619049 L 430 471.62048192771096 L 430 471.62048192771096 L 431 471.9878048780489 L 431 471.9878048780489 L 432 472.3641975308643 L 432 472.3641975308643 L 433 472.7500000000001 L 433 472.7500000000001 L 434 473.1455696202533 L 434 473.1455696202533 L 435 473.55128205128216 L 435 473.55128205128216 L 436 473.9675324675326 L 436 473.9675324675326 L 437 474.39473684210543 L 437 474.39473684210543 L 438 474.8333333333335 L 438 474.8333333333335 L 439 475.2837837837839 L 439 475.2837837837839 L 440 475.7465753424659 L 440 475.7465753424659 L 441 476.22222222222234 L 441 476.22222222222234 L 442 476.71126760563396 L 442 476.71126760563396 L 443 477.21428571428584 L 443 477.21428571428584 L 444 477.7318840579712 L 444 477.7318840579712 L 445 478.2647058823531 L 445 478.2647058823531 L 446 478.81343283582106 L 446 478.81343283582106 L 447 479.37878787878805 L 447 479.37878787878805 L 448 479.9615384615386 L 448 479.9615384615386 L 449 480.56250000000017 L 449 480.56250000000017 L 450 481.18253968253987 L 450 481.18253968253987 L 451 481.82258064516145 L 451 481.82258064516145 L 452 482.48360655737724 L 452 482.48360655737724 L 453 483.16666666666686 L 453 483.16666666666686 L 454 483.87288135593235 L 454 483.87288135593235 L 455 484.60344827586226 L 455 484.60344827586226 L 456 485.3596491228072 L 456 485.3596491228072 L 457 486.14285714285734 L 457 486.14285714285734 L 458 486.9545454545456 L 458 486.9545454545456 L 459 487.7962962962965 L 459 487.7962962962965 L 460 488.6698113207549 L 460 488.6698113207549 L 461 489.57692307692326 L 461 489.57692307692326 L 462 490.51960784313746 L 462 490.51960784313746 L 463 491.5000000000002 L 463 491.5000000000002 L 464 492.52040816326553 L 464 492.52040816326553 L 465 493.58333333333354 L 465 493.58333333333354 L 466 494.69148936170234 L 466 494.69148936170234 L 467 495.84782608695673 L 467 495.84782608695673 L 468 497.05555555555577 L 468 497.05555555555577 L 469 498.31818181818204 L 469 498.31818181818204 L 470 499.6395348837212 L 470 499.6395348837212 L 471 501.02380952380975 L 471 501.02380952380975 L 472 502.4756097560978 L 472 502.4756097560978 L 473 504.0000000000002 L 473 504.0000000000002 L 474 505.6025641025644 L 474 505.6025641025644 L 475 507.2894736842108 L 475 507.2894736842108 L 476 509.06756756756783 L 476 509.06756756756783 L 477 510.94444444444474 L 477 510.94444444444474 L 478 512.9285714285717 L 478 512.9285714285717 L 479 515.0294117647062 L 479 515.0294117647062 L 480 517.2575757575761 L 480 517.2575757575761 L 481 519.6250000000003 L 481 519.6250000000003 L 482 522.1451612903229 L 482 522.1451612903229 L 483 524.8333333333337 L 483 524.8333333333337 L 484 527.7068965517245 L 484 527.7068965517245 L 485 530.7857142857147 L 485 530.7857142857147 L 486 534.092592592593 L 486 534.092592592593 L 487 537.6538461538465 L 487 537.6538461538465 L 488 541.5000000000005 L 488 541.5000000000005 L 489 545.6666666666671 L 489 545.6666666666671 L 490 550.1956521739135 L 490 550.1956521739135 L 491 555.1363636363641 L 491 555.1363636363641 L 492 560.5476190476195 L 492 560.5476190476195 L 493 566.5000000000005 L 493 566.5000000000005 L 494 573.0789473684216 L 494 573.0789473684216 L 495 580.3888888888895 L 495 580.3888888888895 L 496 588.5588235294124 L 496 588.5588235294124 L 497 597.7500000000007 L 497 597.7500000000007 L 498 608.1666666666674 L 498 608.1666666666674 L 499 620.0714285714294 L 499 620.0714285714294 L 500 633.8076923076931 L 500 633.8076923076931 L 501 649.8333333333342 L 501 649.8333333333342 L 502 668.7727272727282 L 502 668.7727272727282 L 503 691.500000000001 L 503 691.500000000001 L 504 719.277777777779 L 504 719.277777777779 L 505 754.0000000000014 L 505 754.0000000000014 L 506 798.6428571428587 L 506 798.6428571428587 L 507 858.1666666666683 L 507 858.1666666666683 L 508 941.500000000002 L 508 941.500000000002 L 509 1066.5000000000027 L 509 1066.5000000000027 L 510 1274.8333333333367 L 510 1274.8333333333367 L 511 1691.5000000000052 L 511 1691.5000000000052 L 512 2941.5000000000105 M 515 -2058.5000000000105 L 515 -808.5000000000052 L 515 -808.5000000000052 L 516 -391.8333333333368 L 516 -391.8333333333368 L 517 -183.50000000000261 L 517 -183.50000000000261 L 518 -58.500000000002046 L 518 -58.500000000002046 L 519 24.83333333333161 L 519 24.83333333333161 L 520 84.35714285714135 L 520 84.35714285714135 L 521 128.9999999999987 L 521 128.9999999999987 L 522 163.7222222222211 L 522 163.7222222222211 L 523 191.49999999999898 L 523 191.49999999999898 L 524 214.22727272727178 L 524 214.22727272727178 L 525 233.1666666666658 L 525 233.1666666666658 L 526 249.1923076923069 L 526 249.1923076923069 L 527 262.92857142857065 L 527 262.92857142857065 L 528 274.83333333333263 L 528 274.83333333333263 L 529 285.2499999999993 L 529 285.2499999999993 L 530 294.4411764705876 L 530 294.4411764705876 L 531 302.6111111111105 L 531 302.6111111111105 L 532 309.9210526315784 L 532 309.9210526315784 L 533 316.4999999999995 L 533 316.4999999999995 L 534 322.45238095238045 L 534 322.45238095238045 L 535 327.8636363636359 L 535 327.8636363636359 L 536 332.80434782608654 L 536 332.80434782608654 L 537 337.3333333333329 L 537 337.3333333333329 L 538 341.4999999999996 L 538 341.4999999999996 L 539 345.34615384615347 L 539 345.34615384615347 L 540 348.90740740740705 L 540 348.90740740740705 L 541 352.2142857142853 L 541 352.2142857142853 L 542 355.2931034482755 L 542 355.2931034482755 L 543 358.1666666666663 L 543 358.1666666666663 L 544 360.8548387096771 L 544 360.8548387096771 L 545 363.37499999999966 L 545 363.37499999999966 L 546 365.7424242424239 L 546 365.7424242424239 L 547 367.9705882352938 L 547 367.9705882352938 L 548 370.07142857142827 L 548 370.07142857142827 L 549 372.05555555555526 L 549 372.05555555555526 L 550 373.93243243243217 L 550 373.93243243243217 L 551 375.7105263157892 L 551 375.7105263157892 L 552 377.3974358974356 L 552 377.3974358974356 L 553 378.9999999999998 L 553 378.9999999999998 L 554 380.5243902439022 L 554 380.5243902439022 L 555 381.97619047619025 L 555 381.97619047619025 L 556 383.3604651162788 L 556 383.3604651162788 L 557 384.68181818181796 L 557 384.68181818181796 L 558 385.94444444444423 L 558 385.94444444444423 L 559 387.15217391304327 L 559 387.15217391304327 L 560 388.30851063829766 L 560 388.30851063829766 L 561 389.41666666666646 L 561 389.41666666666646 L 562 390.47959183673447 L 562 390.47959183673447 L 563 391.4999999999998 L 563 391.4999999999998 L 564 392.48039215686254 L 564 392.48039215686254 L 565 393.42307692307674 L 565 393.42307692307674 L 566 394.3301886792451 L 566 394.3301886792451 L 567 395.2037037037035 L 567 395.2037037037035 L 568 396.0454545454544 L 568 396.0454545454544 L 569 396.85714285714266 L 569 396.85714285714266 L 570 397.6403508771928 L 570 397.6403508771928 L 571 398.39655172413774 L 571 398.39655172413774 L 572 399.12711864406765 L 572 399.12711864406765 L 573 399.83333333333314 L 573 399.83333333333314 L 574 400.51639344262276 L 574 400.51639344262276 L 575 401.17741935483855 L 575 401.17741935483855 L 576 401.81746031746013 L 576 401.81746031746013 L 577 402.43749999999983 L 577 402.43749999999983 L 578 403.0384615384614 L 578 403.0384615384614 L 579 403.62121212121195 L 579 403.62121212121195 L 580 404.18656716417894 L 580 404.18656716417894 L 581 404.7352941176469 L 581 404.7352941176469 L 582 405.2681159420288 L 582 405.2681159420288 L 583 405.78571428571416 L 583 405.78571428571416 L 584 406.28873239436604 L 584 406.28873239436604 L 585 406.77777777777766 L 585 406.77777777777766 L 586 407.2534246575341 L 586 407.2534246575341 L 587 407.7162162162161 L 587 407.7162162162161 L 588 408.1666666666665 L 588 408.1666666666665 L 589 408.60526315789457 L 589 408.60526315789457 L 590 409.0324675324674 L 590 409.0324675324674 L 591 409.44871794871784 L 591 409.44871794871784 L 592 409.8544303797467 L 592 409.8544303797467 L 593 410.2499999999999 L 593 410.2499999999999 L 594 410.6358024691357 L 594 410.6358024691357 L 595 411.0121951219511 L 595 411.0121951219511 L 596 411.37951807228904 L 596 411.37951807228904 L 597 411.7380952380951 L 597 411.7380952380951 L 598 412.0882352941175 L 598 412.0882352941175 L 599 412.43023255813944 L 599 412.43023255813944 L 600 412.76436781609186 L 600 412.76436781609186 L 601 413.09090909090895 L 601 413.09090909090895 L 602 413.41011235955045 L 602 413.41011235955045 L 603 413.7222222222221 L 603 413.7222222222221 L 604 414.0274725274724 L 604 414.0274725274724 L 605 414.32608695652164 L 605 414.32608695652164 L 606 414.61827956989237 L 606 414.61827956989237 L 607 414.90425531914883 L 607 414.90425531914883 L 608 415.18421052631567 L 608 415.18421052631567 L 609 415.4583333333332 L 609 415.4583333333332 L 610 415.72680412371125 L 610 415.72680412371125 L 611 415.98979591836724 L 611 415.98979591836724 L 612 416.24747474747466 L 612 416.24747474747466 L 613 416.4999999999999 L 613 416.4999999999999 L 614 416.74752475247516 L 614 416.74752475247516 L 615 416.99019607843127 L 615 416.99019607843127 L 616 417.2281553398057 L 616 417.2281553398057 L 617 417.46153846153834 L 617 417.46153846153834 L 618 417.6904761904761 L 618 417.6904761904761 L 619 417.91509433962256 L 619 417.91509433962256 L 620 418.1355140186915 L 620 418.1355140186915 L 621 418.35185185185173 L 621 418.35185185185173 L 622 418.56422018348616 L 622 418.56422018348616 L 623 418.7727272727272 L 623 418.7727272727272 L 624 418.9774774774774 L 624 418.9774774774774 L 625 419.17857142857133 L 625 419.17857142857133 L 626 419.3761061946902 L 626 419.3761061946902 L 627 419.5701754385964 L 627 419.5701754385964 L 628 419.7608695652173 L 628 419.7608695652173 L 629 419.9482758620689 L 629 419.9482758620689 L 630 420.1324786324785 L 630 420.1324786324785 L 631 420.3135593220338 L 631 420.3135593220338 L 632 420.4915966386554 L 632 420.4915966386554 L 633 420.6666666666666 L 633 420.6666666666666 L 634 420.83884297520655 L 634 420.83884297520655 L 635 421.0081967213114 L 635 421.0081967213114 L 636 421.1747967479674 L 636 421.1747967479674 L 637 421.3387096774193 L 637 421.3387096774193 L 638 421.49999999999994 L 638 421.49999999999994 L 639 421.65873015873007 L 639 421.65873015873007 L 640 421.8149606299212 L 640 421.8149606299212 L 641 421.96874999999994 L 641 421.96874999999994 L 642 422.1201550387596 L 642 422.1201550387596 L 643 422.2692307692307 L 643 422.2692307692307 L 644 422.4160305343511 L 644 422.4160305343511 L 645 422.560606060606 L 645 422.560606060606 L 646 422.70300751879694 L 646 422.70300751879694 L 647 422.8432835820895 L 647 422.8432835820895 L 648 422.9814814814814 L 648 422.9814814814814 L 649 423.1176470588235 L 649 423.1176470588235 L 650 423.2518248175182 L 650 423.2518248175182 L 651 423.38405797101444 L 651 423.38405797101444 L 652 423.51438848920856 L 652 423.51438848920856 L 653 423.64285714285705 L 653 423.64285714285705 L 654 423.7695035460992 L 654 423.7695035460992 L 655 423.89436619718305 L 655 423.89436619718305 L 656 424.01748251748245 L 656 424.01748251748245 L 657 424.1388888888888 L 657 424.1388888888888 L 658 424.2586206896551 L 658 424.2586206896551 L 659 424.37671232876704 L 659 424.37671232876704 L 660 424.4931972789115 L 660 424.4931972789115 L 661 424.608108108108 L 661 424.608108108108 L 662 424.721476510067 L 662 424.721476510067 L 663 424.83333333333326 L 663 424.83333333333326 L 664 424.9437086092714 L 664 424.9437086092714 L 665 425.0526315789473 L 665 425.0526315789473 L 666 425.1601307189542 L 666 425.1601307189542 L 667 425.2662337662337 L 667 425.2662337662337 L 668 425.37096774193543 L 668 425.37096774193543 L 669 425.4743589743589 L 669 425.4743589743589 L 670 425.576433121019 L 670 425.576433121019 L 671 425.6772151898733 L 671 425.6772151898733 L 672 425.7767295597484 L 672 425.7767295597484 L 673 425.87499999999994 L 673 425.87499999999994 L 674 425.97204968944095 L 674 425.97204968944095 L 675 426.06790123456784 L 675 426.06790123456784 L 676 426.1625766871165 L 676 426.1625766871165 L 677 426.25609756097555 L 677 426.25609756097555 L 678 426.34848484848476 L 678 426.34848484848476 L 679 426.4397590361445 L 679 426.4397590361445 L 680 426.5299401197604 L 680 426.5299401197604 L 681 426.61904761904754 L 681 426.61904761904754 L 682 426.7071005917159 L 682 426.7071005917159 L 683 426.7941176470588 L 683 426.7941176470588 L 684 426.88011695906425 L 684 426.88011695906425 L 685 426.9651162790697 L 685 426.9651162790697 L 686 427.04913294797683 L 686 427.04913294797683 L 687 427.13218390804593 L 687 427.13218390804593 L 688 427.21428571428567 L 688 427.21428571428567 L 689 427.2954545454545 L 689 427.2954545454545 L 690 427.3757062146892 L 690 427.3757062146892 L 691 427.4550561797752 L 691 427.4550561797752 L 692 427.53351955307255 L 692 427.53351955307255 L 693 427.61111111111103 L 693 427.61111111111103 L 694 427.68784530386733 L 694 427.68784530386733 L 695 427.7637362637362 L 695 427.7637362637362 L 696 427.83879781420757 L 696 427.83879781420757 L 697 427.9130434782608 L 697 427.9130434782608 L 698 427.98648648648646 L 698 427.98648648648646 L 699 428.0591397849462 L 699 428.0591397849462 L 700 428.1310160427807 L 700 428.1310160427807 L 701 428.2021276595744 L 701 428.2021276595744 L 702 428.27248677248673 L 702 428.27248677248673 L 703 428.34210526315786 L 703 428.34210526315786 L 704 428.41099476439786 L 704 428.41099476439786 L 705 428.47916666666663 L 705 428.47916666666663 L 706 428.5466321243523 L 706 428.5466321243523 L 707 428.6134020618556 L 707 428.6134020618556 L 708 428.6794871794871 L 708 428.6794871794871 L 709 428.7448979591836 L 709 428.7448979591836 L 710 428.8096446700507 L 710 428.8096446700507 L 711 428.8737373737373 L 711 428.8737373737373 L 712 428.9371859296482 L 712 428.9371859296482 L 713 428.99999999999994 L 713 428.99999999999994 L 714 429.06218905472633 L 714 429.06218905472633 L 715 429.12376237623755 L 715 429.12376237623755 L 716 429.18472906403935 L 716 429.18472906403935 L 717 429.24509803921563 L 717 429.24509803921563 L 718 429.30487804878044 L 718 429.30487804878044 L 719 429.3640776699029 L 719 429.3640776699029 L 720 429.4227053140096 L 720 429.4227053140096 L 721 429.48076923076917 L 721 429.48076923076917 L 722 429.53827751196167 L 722 429.53827751196167 L 723 429.5952380952381 L 723 429.5952380952381 L 724 429.65165876777246 L 724 429.65165876777246 L 725 429.7075471698113 L 725 429.7075471698113 L 726 429.762910798122 L 726 429.762910798122 L 727 429.81775700934577 L 727 429.81775700934577 L 728 429.8720930232558 L 728 429.8720930232558 L 729 429.92592592592587 L 729 429.92592592592587 L 730 429.979262672811 L 730 429.979262672811 L 731 430.03211009174305 L 731 430.03211009174305 L 732 430.0844748858447 L 732 430.0844748858447 L 733 430.13636363636357 L 733 430.13636363636357 L 734 430.18778280542983 L 734 430.18778280542983 L 735 430.2387387387387 L 735 430.2387387387387 L 736 430.2892376681614 L 736 430.2892376681614 L 737 430.33928571428567 L 737 430.33928571428567 L 738 430.38888888888886 L 738 430.38888888888886 L 739 430.43805309734506 L 739 430.43805309734506 L 740 430.4867841409691 L 740 430.4867841409691 L 741 430.5350877192982 L 741 430.5350877192982 L 742 430.58296943231437 L 742 430.58296943231437 L 743 430.63043478260863 L 743 430.63043478260863 L 744 430.6774891774891 L 744 430.6774891774891 L 745 430.7241379310344 L 745 430.7241379310344 L 746 430.77038626609436 L 746 430.77038626609436 L 747 430.81623931623926 L 747 430.81623931623926 L 748 430.86170212765956 L 748 430.86170212765956 L 749 430.9067796610169 L 749 430.9067796610169 L 750 430.9514767932489 L 750 430.9514767932489 L 751 430.99579831932766 L 751 430.99579831932766 L 752 431.0397489539749 L 752 431.0397489539749 L 753 431.0833333333333 L 753 431.0833333333333 L 754 431.1265560165975 L 754 431.1265560165975 L 755 431.16942148760324 L 755 431.16942148760324 L 756 431.21193415637856 L 756 431.21193415637856 L 757 431.2540983606557 L 757 431.2540983606557 L 758 431.29591836734687 L 758 431.29591836734687 L 759 431.3373983739837 L 759 431.3373983739837 L 760 431.3785425101214 L 760 431.3785425101214 L 761 431.41935483870964 L 761 431.41935483870964 L 762 431.4598393574297 L 762 431.4598393574297 L 763 431.49999999999994 L 763 431.49999999999994 L 764 431.53984063745014 L 764 431.53984063745014 L 765 431.57936507936506 L 765 431.57936507936506 L 766 431.61857707509876 L 766 431.61857707509876 L 767 431.6574803149606 L 767 431.6574803149606 L 768 431.6960784313725 L 768 431.6960784313725 L 769 431.73437499999994 L 769 431.73437499999994 L 770 431.772373540856 L 770 431.772373540856 L 771 431.81007751937983 L 771 431.81007751937983 L 772 431.8474903474903 L 772 431.8474903474903 L 773 431.88461538461536 L 773 431.88461538461536 L 774 431.92145593869725 L 774 431.92145593869725 L 775 431.95801526717554 L 775 431.95801526717554 L 776 431.9942965779467 L 776 431.9942965779467 L 777 432.030303030303 L 777 432.030303030303 L 778 432.066037735849 L 778 432.066037735849 L 779 432.10150375939844 L 779 432.10150375939844 L 780 432.13670411985015 L 780 432.13670411985015 L 781 432.17164179104475 L 781 432.17164179104475 L 782 432.2063197026022 L 782 432.2063197026022 L 783 432.2407407407407 L 783 432.2407407407407 L 784 432.27490774907744 L 784 432.27490774907744 L 785 432.3088235294117 L 785 432.3088235294117 L 786 432.3424908424908 L 786 432.3424908424908 L 787 432.37591240875906 L 787 432.37591240875906 L 788 432.4090909090909 L 788 432.4090909090909 L 789 432.4420289855072 L 789 432.4420289855072 L 790 432.47472924187724 L 790 432.47472924187724 L 791 432.5071942446043 L 791 432.5071942446043 L 792 432.53942652329744 L 792 432.53942652329744 L 793 432.57142857142856 L 793 432.57142857142856 L 794 432.603202846975 L 794 432.603202846975 L 795 432.63475177304963 L 795 432.63475177304963 L 796 432.66607773851587 L 796 432.66607773851587 L 797 432.6971830985915 L 797 432.6971830985915 L 798 432.7280701754386 L 798 432.7280701754386 L 799 432.7587412587412 L 799 432.7587412587412 L 800 432.7891986062717 L 800 432.7891986062717 L 801 432.8194444444444 L 801 432.8194444444444 L 802 432.8494809688581 L 802 432.8494809688581 L 803 432.87931034482756 L 803 432.87931034482756 L 804 432.90893470790377 L 804 432.90893470790377 L 805 432.93835616438355 L 805 432.93835616438355 L 806 432.9675767918088 L 806 432.9675767918088 L 807 432.9965986394557 L 807 432.9965986394557 L 808 433.0254237288135 L 808 433.0254237288135 L 809 433.054054054054 L 809 433.054054054054 L 810 433.08249158249157 L 810 433.08249158249157 L 811 433.11073825503354 L 811 433.11073825503354 L 812 433.13879598662203 L 812 433.13879598662203 L 813 433.16666666666663 L 813 433.16666666666663 L 814 433.1943521594684 L 814 433.1943521594684 L 815 433.2218543046357 L 815 433.2218543046357 L 816 433.2491749174917 L 816 433.2491749174917 L 817 433.27631578947364 L 817 433.27631578947364 L 818 433.30327868852453 L 818 433.30327868852453 L 819 433.3300653594771 L 819 433.3300653594771 L 820 433.3566775244299 L 820 433.3566775244299 L 821 433.3831168831168 L 821 433.3831168831168 L 822 433.40938511326857 L 822 433.40938511326857 L 823 433.4354838709677 L 823 433.4354838709677 L 824 433.46141479099674 L 824 433.46141479099674 L 825 433.48717948717945 L 825 433.48717948717945 L 826 433.51277955271564 L 826 433.51277955271564 L 827 433.5382165605095 L 827 433.5382165605095 L 828 433.56349206349205 L 828 433.56349206349205 L 829 433.58860759493666 L 829 433.58860759493666 L 830 433.6135646687697 L 830 433.6135646687697 L 831 433.63836477987417 L 831 433.63836477987417 L 832 433.6630094043887 L 832 433.6630094043887 L 833 433.68749999999994 L 833 433.68749999999994 L 834 433.7118380062305 L 834 433.7118380062305 L 835 433.7360248447205 L 835 433.7360248447205 L 836 433.7600619195046 L 836 433.7600619195046 L 837 433.7839506172839 L 837 433.7839506172839 L 838 433.80769230769226 L 838 433.80769230769226 L 839 433.83128834355824 L 839 433.83128834355824 L 840 433.85474006116203 L 840 433.85474006116203 L 841 433.8780487804878 L 841 433.8780487804878 L 842 433.9012158054711 L 842 433.9012158054711 L 843 433.9242424242424 L 843 433.9242424242424 L 844 433.9471299093655 L 844 433.9471299093655 L 845 433.9698795180723 L 845 433.9698795180723 L 846 433.9924924924925 L 846 433.9924924924925 L 847 434.0149700598802 L 847 434.0149700598802 L 848 434.0373134328358 L 848 434.0373134328358 L 849 434.0595238095238 L 849 434.0595238095238 L 850 434.0816023738872 L 850 434.0816023738872 L 851 434.103550295858 L 851 434.103550295858 L 852 434.1253687315634 L 852 434.1253687315634 L 853 434.1470588235294 L 853 434.1470588235294 L 854 434.1686217008797 L 854 434.1686217008797 L 855 434.1900584795321 L 855 434.1900584795321 L 856 434.21137026239063 L 856 434.21137026239063 L 857 434.23255813953483 L 857 434.23255813953483 L 858 434.25362318840575 L 858 434.25362318840575 L 859 434.2745664739884 L 859 434.2745664739884 L 860 434.2953890489913 L 860 434.2953890489913 L 861 434.31609195402297 L 861 434.31609195402297 L 862 434.336676217765 L 862 434.336676217765 L 863 434.35714285714283 L 863 434.35714285714283 L 864 434.37749287749284 L 864 434.37749287749284 L 865 434.39772727272725 L 865 434.39772727272725 L 866 434.41784702549575 L 866 434.41784702549575 L 867 434.4378531073446 L 867 434.4378531073446 L 868 434.4577464788732 L 868 434.4577464788732 L 869 434.4775280898876 L 869 434.4775280898876 L 870 434.4971988795518 L 870 434.4971988795518 L 871 434.5167597765363 L 871 434.5167597765363 L 872 434.5362116991643 L 872 434.5362116991643 L 873 434.55555555555554 L 873 434.55555555555554 L 874 434.57479224376726 L 874 434.57479224376726 L 875 434.59392265193367 L 875 434.59392265193367 L 876 434.61294765840216 L 876 434.61294765840216 L 877 434.6318681318681 L 877 434.6318681318681 L 878 434.6506849315068 L 878 434.6506849315068 L 879 434.6693989071038 L 879 434.6693989071038 L 880 434.68801089918253 L 880 434.68801089918253 L 881 434.7065217391304 L 881 434.7065217391304 L 882 434.7249322493225 L 882 434.7249322493225 L 883 434.7432432432432 L 883 434.7432432432432 L 884 434.76145552560644 L 884 434.76145552560644 L 885 434.7795698924731 L 885 434.7795698924731 L 886 434.79758713136727 L 886 434.79758713136727 L 887 434.8155080213904 L 887 434.8155080213904 L 888 434.8333333333333 L 888 434.8333333333333 L 889 434.8510638297872 L 889 434.8510638297872 L 890 434.86870026525196 L 890 434.86870026525196 L 891 434.88624338624334 L 891 434.88624338624334 L 892 434.9036939313984 L 892 434.9036939313984 L 893 434.9210526315789 L 893 434.9210526315789 L 894 434.9383202099737 L 894 434.9383202099737 L 895 434.9554973821989 L 895 434.9554973821989 L 896 434.97258485639685 L 896 434.97258485639685 L 897 434.9895833333333 L 897 434.9895833333333 L 898 435.0064935064935 L 898 435.0064935064935 L 899 435.02331606217615 L 899 435.02331606217615 L 900 435.04005167958655 L 900 435.04005167958655 L 901 435.0567010309278 L 901 435.0567010309278 L 902 435.073264781491 L 902 435.073264781491 L 903 435.0897435897436 L 903 435.0897435897436 L 904 435.1061381074169 L 904 435.1061381074169 L 905 435.1224489795918 L 905 435.1224489795918 L 906 435.1386768447837 L 906 435.1386768447837 L 907 435.15482233502536 L 907 435.15482233502536 L 908 435.17088607594934 L 908 435.17088607594934 L 909 435.18686868686865 L 909 435.18686868686865 L 910 435.2027707808564 L 910 435.2027707808564 L 911 435.2185929648241 L 911 435.2185929648241 L 912 435.234335839599 L 912 435.234335839599 L 913 435.25 L 913 435.25 L 914 435.2655860349127 L 914 435.2655860349127 L 915 435.28109452736317 L 915 435.28109452736317 L 916 435.2965260545906 L 916 435.2965260545906 L 917 435.3118811881188 L 917 435.3118811881188 L 918 435.32716049382714 L 918 435.32716049382714 L 919 435.3423645320197 L 919 435.3423645320197 L 920 435.3574938574938 L 920 435.3574938574938 L 921 435.37254901960785 L 921 435.37254901960785 L 922 435.38753056234714 L 922 435.38753056234714 L 923 435.4024390243902 L 923 435.4024390243902 L 924 435.4172749391727 L 924 435.4172749391727 L 925 435.4320388349514 L 925 435.4320388349514 L 926 435.44673123486683 L 926 435.44673123486683 L 927 435.4613526570048 L 927 435.4613526570048 L 928 435.4759036144578 L 928 435.4759036144578 L 929 435.4903846153846 L 929 435.4903846153846 L 930 435.5047961630695 L 930 435.5047961630695 L 931 435.51913875598086 L 931 435.51913875598086 L 932 435.53341288782815 L 932 435.53341288782815 L 933 435.54761904761904 L 933 435.54761904761904 L 934 435.56175771971493 L 934 435.56175771971493 L 935 435.57582938388623 L 935 435.57582938388623 L 936 435.5898345153664 L 936 435.5898345153664 L 937 435.60377358490564 L 937 435.60377358490564 L 938 435.6176470588235 L 938 435.6176470588235 L 939 435.631455399061 L 939 435.631455399061 L 940 435.6451990632318 L 940 435.6451990632318 L 941 435.6588785046729 L 941 435.6588785046729 L 942 435.67249417249417 L 942 435.67249417249417 L 943 435.68604651162786 L 943 435.68604651162786 L 944 435.699535962877 L 944 435.699535962877 L 945 435.71296296296293 L 945 435.71296296296293 L 946 435.72632794457274 L 946 435.72632794457274 L 947 435.7396313364055 L 947 435.7396313364055 L 948 435.7528735632184 L 948 435.7528735632184 L 949 435.76605504587155 L 949 435.76605504587155 L 950 435.779176201373 L 950 435.779176201373 L 951 435.7922374429223 L 951 435.7922374429223 L 952 435.8052391799544 L 952 435.8052391799544 L 953 435.8181818181818 L 953 435.8181818181818 L 954 435.83106575963717 L 954 435.83106575963717 L 955 435.8438914027149 L 955 435.8438914027149 L 956 435.85665914221215 L 956 435.85665914221215 L 957 435.86936936936934 L 957 435.86936936936934 L 958 435.8820224719101 L 958 435.8820224719101 L 959 435.8946188340807 L 959 435.8946188340807 L 960 435.907158836689 L 960 435.907158836689 L 961 435.91964285714283 L 961 435.91964285714283 L 962 435.9320712694877 L 962 435.9320712694877 L 963 435.9444444444444 L 963 435.9444444444444 L 964 435.95676274944566 L 964 435.95676274944566 L 965 435.96902654867256 L 965 435.96902654867256 L 966 435.9812362030905 L 966 435.9812362030905 L 967 435.99339207048456 L 967 435.99339207048456 L 968 436.0054945054945 L 968 436.0054945054945 L 969 436.0175438596491 L 969 436.0175438596491 L 970 436.02954048140043 L 970 436.02954048140043 L 971 436.0414847161572 L 971 436.0414847161572 L 972 436.0533769063181 L 972 436.0533769063181 L 973 436.0652173913043 L 973 436.0652173913043 L 974 436.07700650759216 L 974 436.07700650759216 L 975 436.0887445887446 L 975 436.0887445887446 L 976 436.10043196544274 L 976 436.10043196544274 L 977 436.1120689655172 L 977 436.1120689655172 L 978 436.1236559139785 L 978 436.1236559139785 L 979 436.1351931330472 L 979 436.1351931330472 L 980 436.1466809421841 L 980 436.1466809421841 L 981 436.15811965811963 L 981 436.15811965811963 L 982 436.1695095948827 L 982 436.1695095948827 L 983 436.1808510638298 L 983 436.1808510638298 L 984 436.192144373673 L 984 436.192144373673 L 985 436.20338983050846 L 985 436.20338983050846 L 986 436.21458773784354 L 986 436.21458773784354 L 987 436.2257383966245 L 987 436.2257383966245 L 988 436.2368421052631 L 988 436.2368421052631 L 989 436.24789915966386 L 989 436.24789915966386 L 990 436.25890985324946 L 990 436.25890985324946 L 991 436.2698744769874 L 991 436.2698744769874 L 992 436.2807933194154 L 992 436.2807933194154 L 993 436.29166666666663 L 993 436.29166666666663 L 994 436.3024948024948 L 994 436.3024948024948 L 995 436.3132780082987 L 995 436.3132780082987 L 996 436.324016563147 L 996 436.324016563147 L 997 436.3347107438016 L 997 436.3347107438016 L 998 436.3453608247423 L 998 436.3453608247423 L 999 436.3559670781893 L 999 436.3559670781893 L 1000 436.3665297741273 L 1000 436.3665297741273 L 1001 436.37704918032784 L 1001 436.37704918032784 L 1002 436.38752556237216 L 1002 436.38752556237216 L 1003 436.39795918367344 L 1003 436.39795918367344 L 1004 436.40835030549897 L 1004 436.40835030549897 L 1005 436.41869918699183 L 1005 436.41869918699183 L 1006 436.42900608519267 L 1006 436.42900608519267 L 1007 436.4392712550607 L 1007 436.4392712550607 L 1008 436.4494949494949 L 1008 436.4494949494949 L 1009 436.4596774193548 L 1009 436.4596774193548 L 1010 436.4698189134809 L 1010 436.4698189134809 L 1011 436.47991967871485 L 1011 436.47991967871485 L 1012 436.4899799599198 L 1012 436.4899799599198 L 1013 436.5 L 1013 436.5 L 1014 436.50998003992015 L 1014 436.50998003992015 L 1015 436.5199203187251 L 1015 436.5199203187251 L 1016 436.52982107355865 L 1016 436.52982107355865 L 1017 436.53968253968253 L 1017 436.53968253968253 L 1018 436.549504950495 L 1018 436.549504950495 L 1019 436.5592885375494 L 1019 436.5592885375494 L 1020 436.56903353057197 L 1020 436.56903353057197 L 1021 436.5787401574803 L 1021 436.5787401574803 L 1022 436.5884086444008 L 1022 436.5884086444008 L 1023 436.59803921568624 L 1023 436.59803921568624 L 1024 436.60763209393343 L 1024 436.60763209393343 L 1025 436.6171875 L 1025 436.6171875 L 1026 436.6267056530214" stroke-opacity="0.8" stroke-linecap="round" stroke-linejoin="round" stroke-miterlimit="10" stroke-width="5"/><g transform="scale(31,31)"><g transform="translate(1.042306993931613,13.99883870967742)"><path fill="rgb(219,97,20)" stroke="none" paint-order="stroke fill markers" d=" M 0.294 -0.64 L 0.294 -0.079 Q 0.294 -0.049 0.306 -0.041 Q 0.323 -0.031 0.387 -0.031 L 0.419 -0.031 L 0.419 0 Q 0.384 -0.003 0.257 -0.003 Q 0.13 -0.003 0.095 0 L 0.095 -0.031 L 0.127 -0.031 Q 0.20400000000000001 -0.031 0.215 -0.049 L 0.216 -0.05 Q 0.22 -0.058 0.22 -0.079 L 0.22 -0.597 Q 0.168 -0.5710000000000001 0.089 -0.5710000000000001 L 0.089 -0.602 Q 0.209 -0.602 0.271 -0.666 Q 0.29 -0.666 0.293 -0.659 L 0.293 -0.659 L 0.293 -0.658 Q 0.294 -0.655 0.294 -0.64 Z"/></g><rect fill="rgb(219,97,20)" stroke="none" x="1.006306993931613" y="14.40534720967742" width="0.5720000000000001" height="0.039999"/><g transform="translate(1.006306993931613,15.361297709677418)"><path fill="rgb(219,97,20)" stroke="none" paint-order="stroke fill markers" d=" M 0.334 -0.302 L 0.3 -0.165 Q 0.28300000000000003 -0.097 0.28300000000000003 -0.077 Q 0.28300000000000003 -0.025 0.32 -0.014 Q 0.328 -0.011 0.338 -0.011 Q 0.388 -0.011 0.429 -0.061 Q 0.456 -0.093 0.47100000000000003 -0.14200000000000002 Q 0.47400000000000003 -0.153 0.484 -0.153 Q 0.496 -0.153 0.496 -0.14300000000000002 Q 0.496 -0.11800000000000001 0.465 -0.07100000000000001 Q 0.41100000000000003 0.011 0.336 0.011 Q 0.268 0.011 0.23700000000000002 -0.046 Q 0.231 -0.055 0.228 -0.065 Q 0.20400000000000001 -0.017 0.162 0.002 Q 0.14300000000000002 0.011 0.123 0.011 Q 0.063 0.011 0.039 -0.024 Q 0.029 -0.037 0.029 -0.055 Q 0.029 -0.092 0.061 -0.107 Q 0.07200000000000001 -0.113 0.084 -0.113 Q 0.114 -0.113 0.12 -0.088 Q 0.121 -0.083 0.121 -0.078 Q 0.121 -0.044 0.08700000000000001 -0.028 Q 0.081 -0.025 0.074 -0.024 Q 0.095 -0.011 0.124 -0.011 Q 0.177 -0.011 0.20800000000000002 -0.082 Q 0.214 -0.097 0.219 -0.115 Q 0.273 -0.319 0.273 -0.353 Q 0.267 -0.41500000000000004 0.219 -0.42 Q 0.167 -0.42 0.124 -0.367 L 0.124 -0.366 Q 0.124 -0.365 0.123 -0.365 Q 0.108 -0.34500000000000003 0.096 -0.319 Q 0.091 -0.307 0.08700000000000001 -0.295 L 0.085 -0.289 Q 0.083 -0.278 0.07200000000000001 -0.278 Q 0.06 -0.278 0.06 -0.28800000000000003 Q 0.06 -0.313 0.092 -0.36 Q 0.146 -0.442 0.221 -0.442 Q 0.298 -0.442 0.329 -0.366 Q 0.361 -0.428 0.41400000000000003 -0.44 Q 0.424 -0.442 0.434 -0.442 Q 0.493 -0.442 0.517 -0.40900000000000003 Q 0.527 -0.395 0.527 -0.376 Q 0.527 -0.335 0.49 -0.321 Q 0.481 -0.318 0.47300000000000003 -0.318 Q 0.442 -0.318 0.436 -0.34500000000000003 Q 0.435 -0.34900000000000003 0.435 -0.353 Q 0.435 -0.383 0.464 -0.4 Q 0.47300000000000003 -0.405 0.483 -0.40700000000000003 Q 0.462 -0.42 0.433 -0.42 Q 0.365 -0.42 0.337 -0.314 Q 0.335 -0.308 0.334 -0.302 Z"/></g></g></g></g></svg>