<svg version="1.1" xmlns="http://www.w3.org/2000/svg" xmlns:xlink="http://www.w3.org/1999/xlink" width="1087" height="963"><defs><clipPath id="uOCZTxXpSiex"><path fill="none" stroke="none" d=" M 0 0 L 1087 0 L 1087 963 L 0 963 L 0 0 Z"/></clipPath></defs><g transform="scale(1,1)" clip-path="url(#uOCZTxXpSiex)"><g><rect fill="rgb(255,255,255)" stroke="none" x="0" y="0" width="1087" height="963" fill-opacity="1"/><path fill="none" stroke="rgb(192,192,192)" paint-order="fill stroke markers" d=" M 108.5 0.5 L 108.5 963.5 M 108.5 0.5 L 108.5 963.5 M 217.5 0.5 L 217.5 963.5 M 326.5 0.5 L 326.5 963.5 M 434.5 0.5 L 434.5 963.5 M 652.5 0.5 L 652.5 963.5 M 760.5 0.5 L 760.5 963.5 M 869.5 0.5 L 869.5 963.5 M 978.5 0.5 L 978.5 963.5 M 1087.5 0.5 L 1087.5 963.5" stroke-opacity="1" stroke-linecap="round" stroke-linejoin="round" stroke-miterlimit="10"/><path fill="none" stroke="rgb(192,192,192)" paint-order="fill stroke markers" d=" M 21.5 0.5 L 21.5 963.5 M 43.5 0.5 L 43.5 963.5 M 65.5 0.5 L 65.5 963.5 M 86.5 0.5 L 86.5 963.5 M 130.5 0.5 L 130.5 963.5 M 152.5 0.5 L 152.5 963.5 M 173.5 0.5 L 173.5 963.5 M 195.5 0.5 L 195.5 963.5 M 239.5 0.5 L 239.5 963.5 M 260.5 0.5 L 260.5 963.5 M 282.5 0.5 L 282.5 963.5 M 304.5 0.5 L 304.5 963.5 M 347.5 0.5 L 347.5 963.5 M 369.5 0.5 L 369.5 963.5 M 391.5 0.5 L 391.5 963.5 M 413.5 0.5 L 413.5 963.5 M 456.5 0.5 L 456.5 963.5 M 478.5 0.5 L 478.5 963.5 M 500.5 0.5 L 500.5 963.5 M 521.5 0.5 L 521.5 963.5 M 565.5 0.5 L 565.5 963.5 M 586.5 0.5 L 586.5 963.5 M 608.5 0.5 L 608.5 963.5 M 630.5 0.5 L 630.5 963.5 M 673.5 0.5 L 673.5 963.5 M 695.5 0.5 L 695.5 963.5 M 717.5 0.5 L 717.5 963.5 M 739.5 0.5 L 739.5 963.5 M 782.5 0.5 L 782.5 963.5 M 804.5 0.5 L 804.5 963.5 M 826.5 0.5 L 826.5 963.5 M 847.5 0.5 L 847.5 963.5 M 891.5 0.5 L 891.5 963.5 M 913.5 0.5 L 913.5 963.5 M 934.5 0.5 L 934.5 963.5 M 956.5 0.5 L 956.5 963.5 M 1000.5 0.5 L 1000.5 963.5 M 1021.5 0.5 L 1021.5 963.5 M 1043.5 0.5 L 1043.5 963.5 M 1065.5 0.5 L 1065.5 963.5" stroke-opacity="0.23529411764705882" stroke-linecap="round" stroke-linejoin="round" stroke-miterlimit="10"/><path fill="none" stroke="rgb(192,192,192)" paint-order="fill stroke markers" d=" M 0.5 27.5 L 1087.5 27.5 M 0.5 27.5 L 1087.5 27.5 M 0.5 178.5 L 1087.5 178.5 M 0.5 330.5 L 1087.5 330.5 M 0.5 632.5 L 1087.5 632.5 M 0.5 784.5 L 1087.5 784.5 M 0.5 935.5 L 1087.5 935.5" stroke-opacity="1" stroke-linecap="round" stroke-linejoin="round" stroke-miterlimit="10"/><path fill="none" stroke="rgb(192,192,192)" paint-order="fill stroke markers" d=" M 0.5 27.5 L 1087.5 27.5 M 0.5 57.5 L 1087.5 57.5 M 0.5 88.5 L 1087.5 88.5 M 0.5 118.5 L 1087.5 118.5 M 0.5 148.5 L 1087.5 148.5 M 0.5 209.5 L 1087.5 209.5 M 0.5 239.5 L 1087.5 239.5 M 0.5 269.5 L 1087.5 269.5 M 0.5 299.5 L 1087.5 299.5 M 0.5 360.5 L 1087.5 360.5 M 0.5 390.5 L 1087.5 390.5 M 0.5 420.5 L 1087.5 420.5 M 0.5 451.5 L 1087.5 451.5 M 0.5 511.5 L 1087.5 511.5 M 0.5 542.5 L 1087.5 542.5 M 0.5 572.5 L 1087.5 572.5 M 0.5 602.5 L 1087.5 602.5 M 0.5 663.5 L 1087.5 663.5 M 0.5 693.5 L 1087.5 693.5 M 0.5 723.5 L 1087.5 723.5 M 0.5 753.5 L 1087.5 753.5 M 0.5 814.5 L 1087.5 814.5 M 0.5 844.5 L 1087.5 844.5 M 0.5 874.5 L 1087.5 874.5 M 0.5 905.5 L 1087.5 905.5" stroke-opacity="0.23529411764705882" stroke-linecap="round" stroke-linejoin="round" stroke-miterlimit="10"/><path fill="none" stroke="rgb(37,37,37)" paint-order="fill stroke markers" d=" M 543.5 2.5 L 543.5 963.5" stroke-opacity="1" stroke-miterlimit="10"/><path fill="none" stroke="rgb(37,37,37)" paint-order="fill stroke markers" d=" M 543.5 1.5 L 537.5 7.5" stroke-opacity="1" stroke-miterlimit="10"/><path fill="none" stroke="rgb(37,37,37)" paint-order="fill stroke markers" d=" M 543.5 1.5 L 549.5 7.5" stroke-opacity="1" stroke-miterlimit="10"/><path fill="none" stroke="rgb(37,37,37)" paint-order="fill stroke markers" d=" M 0.5 481.5 L 1085.5 481.5" stroke-opacity="1" stroke-miterlimit="10"/><path fill="none" stroke="rgb(37,37,37)" paint-order="fill stroke markers" d=" M 1086.5 481.5 L 1080.5 475.5" stroke-opacity="1" stroke-miterlimit="10"/><path fill="none" stroke="rgb(37,37,37)" paint-order="fill stroke markers" d=" M 1086.5 481.5 L 1080.5 487.5" stroke-opacity="1" stroke-miterlimit="10"/><text fill="rgb(37,37,37)" stroke="none" font-family="geogebra-sans-serif, sans-serif" font-size="18px" font-style="normal" font-weight="normal" text-decoration="normal" x="100" y="503" text-anchor="start" dominant-baseline="alphabetic" fill-opacity="1">–4</text><text fill="none" stroke="rgb(255,255,255)" font-family="geogebra-sans-serif, sans-serif" font-size="18px" font-style="normal" font-weight="normal" text-decoration="normal" x="100" y="503" text-anchor="start" dominant-baseline="alphabetic" stroke-opacity="1" stroke-linejoin="bevel" stroke-miterlimit="10" stroke-width="3">–4</text><text fill="rgb(37,37,37)" stroke="none" font-family="geogebra-sans-serif, sans-serif" font-size="18px" font-style="normal" font-weight="normal" text-decoration="normal" x="100" y="503" text-anchor="start" dominant-baseline="alphabetic" fill-opacity="1">–4</text><text fill="rgb(37,37,37)" stroke="none" font-family="geogebra-sans-serif, sans-serif" font-size="18px" font-style="normal" font-weight="normal" text-decoration="normal" x="209" y="503" text-anchor="start" dominant-baseline="alphabetic" fill-opacity="1">–3</text><text fill="none" stroke="rgb(255,255,255)" font-family="geogebra-sans-serif, sans-serif" font-size="18px" font-style="normal" font-weight="normal" text-decoration="normal" x="209" y="503" text-anchor="start" dominant-baseline="alphabetic" stroke-opacity="1" stroke-linejoin="bevel" stroke-miterlimit="10" stroke-width="3">–3</text><text fill="rgb(37,37,37)" stroke="none" font-family="geogebra-sans-serif, sans-serif" font-size="18px" font-style="normal" font-weight="normal" text-decoration="normal" x="209" y="503" text-anchor="start" dominant-baseline="alphabetic" fill-opacity="1">–3</text><text fill="rgb(37,37,37)" stroke="none" font-family="geogebra-sans-serif, sans-serif" font-size="18px" font-style="normal" font-weight="normal" text-decoration="normal" x="318" y="503" text-anchor="start" dominant-baseline="alphabetic" fill-opacity="1">–2</text><text fill="none" stroke="rgb(255,255,255)" font-family="geogebra-sans-serif, sans-serif" font-size="18px" font-style="normal" font-weight="normal" text-decoration="normal" x="318" y="503" text-anchor="start" dominant-baseline="alphabetic" stroke-opacity="1" stroke-linejoin="bevel" stroke-miterlimit="10" stroke-width="3">–2</text><text fill="rgb(37,37,37)" stroke="none" font-family="geogebra-sans-serif, sans-serif" font-size="18px" font-style="normal" font-weight="normal" text-decoration="normal" x="318" y="503" text-anchor="start" dominant-baseline="alphabetic" fill-opacity="1">–2</text><text fill="rgb(37,37,37)" stroke="none" font-family="geogebra-sans-serif, sans-serif" font-size="18px" font-style="normal" font-weight="normal" text-decoration="normal" x="426" y="503" text-anchor="start" dominant-baseline="alphabetic" fill-opacity="1">–1</text><text fill="none" stroke="rgb(255,255,255)" font-family="geogebra-sans-serif, sans-serif" font-size="18px" font-style="normal" font-weight="normal" text-decoration="normal" x="426" y="503" text-anchor="start" dominant-baseline="alphabetic" stroke-opacity="1" stroke-linejoin="bevel" stroke-miterlimit="10" stroke-width="3">–1</text><text fill="rgb(37,37,37)" stroke="none" font-family="geogebra-sans-serif, sans-serif" font-size="18px" font-style="normal" font-weight="normal" text-decoration="normal" x="426" y="503" text-anchor="start" dominant-baseline="alphabetic" fill-opacity="1">–1</text><text fill="rgb(37,37,37)" stroke="none" font-family="geogebra-sans-serif, sans-serif" font-size="18px" font-style="normal" font-weight="normal" text-decoration="normal" x="648" y="503" text-anchor="start" dominant-baseline="alphabetic" fill-opacity="1">1</text><text fill="none" stroke="rgb(255,255,255)" font-family="geogebra-sans-serif, sans-serif" font-size="18px" font-style="normal" font-weight="normal" text-decoration="normal" x="648" y="503" text-anchor="start" dominant-baseline="alphabetic" stroke-opacity="1" stroke-linejoin="bevel" stroke-miterlimit="10" stroke-width="3">1</text><text fill="rgb(37,37,37)" stroke="none" font-family="geogebra-sans-serif, sans-serif" font-size="18px" font-style="normal" font-weight="normal" text-decoration="normal" x="648" y="503" text-anchor="start" dominant-baseline="alphabetic" fill-opacity="1">1</text><text fill="rgb(37,37,37)" stroke="none" font-family="geogebra-sans-serif, sans-serif" font-size="18px" font-style="normal" font-weight="normal" text-decoration="normal" x="757" y="503" text-anchor="start" dominant-baseline="alphabetic" fill-opacity="1">2</text><text fill="none" stroke="rgb(255,255,255)" font-family="geogebra-sans-serif, sans-serif" font-size="18px" font-style="normal" font-weight="normal" text-decoration="normal" x="757" y="503" text-anchor="start" dominant-baseline="alphabetic" stroke-opacity="1" stroke-linejoin="bevel" stroke-miterlimit="10" stroke-width="3">2</text><text fill="rgb(37,37,37)" stroke="none" font-family="geogebra-sans-serif, sans-serif" font-size="18px" font-style="normal" font-weight="normal" text-decoration="normal" x="757" y="503" text-anchor="start" dominant-baseline="alphabetic" fill-opacity="1">2</text><text fill="rgb(37,37,37)" stroke="none" font-family="geogebra-sans-serif, sans-serif" font-size="18px" font-style="normal" font-weight="normal" text-decoration="normal" x="866" y="503" text-anchor="start" dominant-baseline="alphabetic" fill-opacity="1">3</text><text fill="none" stroke="rgb(255,255,255)" font-family="geogebra-sans-serif, sans-serif" font-size="18px" font-style="normal" font-weight="normal" text-decoration="normal" x="866" y="503" text-anchor="start" dominant-baseline="alphabetic" stroke-opacity="1" stroke-linejoin="bevel" stroke-miterlimit="10" stroke-width="3">3</text><text fill="rgb(37,37,37)" stroke="none" font-family="geogebra-sans-serif, sans-serif" font-size="18px" font-style="normal" font-weight="normal" text-decoration="normal" x="866" y="503" text-anchor="start" dominant-baseline="alphabetic" fill-opacity="1">3</text><text fill="rgb(37,37,37)" stroke="none" font-family="geogebra-sans-serif, sans-serif" font-size="18px" font-style="normal" font-weight="normal" text-decoration="normal" x="974" y="503" text-anchor="start" dominant-baseline="alphabetic" fill-opacity="1">4</text><text fill="none" stroke="rgb(255,255,255)" font-family="geogebra-sans-serif, sans-serif" font-size="18px" font-style="normal" font-weight="normal" text-decoration="normal" x="974" y="503" text-anchor="start" dominant-baseline="alphabetic" stroke-opacity="1" stroke-linejoin="bevel" stroke-miterlimit="10" stroke-width="3">4</text><text fill="rgb(37,37,37)" stroke="none" font-family="geogebra-sans-serif, sans-serif" font-size="18px" font-style="normal" font-weight="normal" text-decoration="normal" x="974" y="503" text-anchor="start" dominant-baseline="alphabetic" fill-opacity="1">4</text><text fill="rgb(37,37,37)" stroke="none" font-family="geogebra-sans-serif, sans-serif" font-size="24px" font-style="normal" font-weight="normal" text-decoration="normal" x="548" y="23" text-anchor="start" dominant-baseline="alphabetic" fill-opacity="1">y</text><text fill="rgb(37,37,37)" stroke="none" font-family="geogebra-sans-serif, sans-serif" font-size="18px" font-style="normal" font-weight="normal" text-decoration="normal" x="478" y="943" text-anchor="start" dominant-baseline="alphabetic" fill-opacity="1">–3π / 2</text><text fill="none" stroke="rgb(255,255,255)" font-family="geogebra-sans-serif, sans-serif" font-size="18px" font-style="normal" font-weight="normal" text-decoration="normal" x="478" y="943" text-anchor="start" dominant-baseline="alphabetic" stroke-opacity="1" stroke-linejoin="bevel" stroke-miterlimit="10" stroke-width="3">–3π / 2</text><text fill="rgb(37,37,37)" stroke="none" font-family="geogebra-sans-serif, sans-serif" font-size="18px" font-style="normal" font-weight="normal" text-decoration="normal" x="478" y="943" text-anchor="start" dominant-baseline="alphabetic" fill-opacity="1">–3π / 2</text><text fill="rgb(37,37,37)" stroke="none" font-family="geogebra-sans-serif, sans-serif" font-size="18px" font-style="normal" font-weight="normal" text-decoration="normal" x="513" y="792" text-anchor="start" dominant-baseline="alphabetic" fill-opacity="1">–π</text><text fill="none" stroke="rgb(255,255,255)" font-family="geogebra-sans-serif, sans-serif" font-size="18px" font-style="normal" font-weight="normal" text-decoration="normal" x="513" y="792" text-anchor="start" dominant-baseline="alphabetic" stroke-opacity="1" stroke-linejoin="bevel" stroke-miterlimit="10" stroke-width="3">–π</text><text fill="rgb(37,37,37)" stroke="none" font-family="geogebra-sans-serif, sans-serif" font-size="18px" font-style="normal" font-weight="normal" text-decoration="normal" x="513" y="792" text-anchor="start" dominant-baseline="alphabetic" fill-opacity="1">–π</text><text fill="rgb(37,37,37)" stroke="none" font-family="geogebra-sans-serif, sans-serif" font-size="18px" font-style="normal" font-weight="normal" text-decoration="normal" x="488" y="640" text-anchor="start" dominant-baseline="alphabetic" fill-opacity="1">–π / 2</text><text fill="none" stroke="rgb(255,255,255)" font-family="geogebra-sans-serif, sans-serif" font-size="18px" font-style="normal" font-weight="normal" text-decoration="normal" x="488" y="640" text-anchor="start" dominant-baseline="alphabetic" stroke-opacity="1" stroke-linejoin="bevel" stroke-miterlimit="10" stroke-width="3">–π / 2</text><text fill="rgb(37,37,37)" stroke="none" font-family="geogebra-sans-serif, sans-serif" font-size="18px" font-style="normal" font-weight="normal" text-decoration="normal" x="488" y="640" text-anchor="start" dominant-baseline="alphabetic" fill-opacity="1">–π / 2</text><text fill="rgb(37,37,37)" stroke="none" font-family="geogebra-sans-serif, sans-serif" font-size="18px" font-style="normal" font-weight="normal" text-decoration="normal" x="498" y="338" text-anchor="start" dominant-baseline="alphabetic" fill-opacity="1">π / 2</text><text fill="none" stroke="rgb(255,255,255)" font-family="geogebra-sans-serif, sans-serif" font-size="18px" font-style="normal" font-weight="normal" text-decoration="normal" x="498" y="338" text-anchor="start" dominant-baseline="alphabetic" stroke-opacity="1" stroke-linejoin="bevel" stroke-miterlimit="10" stroke-width="3">π / 2</text><text fill="rgb(37,37,37)" stroke="none" font-family="geogebra-sans-serif, sans-serif" font-size="18px" font-style="normal" font-weight="normal" text-decoration="normal" x="498" y="338" text-anchor="start" dominant-baseline="alphabetic" fill-opacity="1">π / 2</text><text fill="rgb(37,37,37)" stroke="none" font-family="geogebra-sans-serif, sans-serif" font-size="18px" font-style="normal" font-weight="normal" text-decoration="normal" x="523" y="186" text-anchor="start" dominant-baseline="alphabetic" fill-opacity="1">π</text><text fill="none" stroke="rgb(255,255,255)" font-family="geogebra-sans-serif, sans-serif" font-size="18px" font-style="normal" font-weight="normal" text-decoration="normal" x="523" y="186" text-anchor="start" dominant-baseline="alphabetic" stroke-opacity="1" stroke-linejoin="bevel" stroke-miterlimit="10" stroke-width="3">π</text><text fill="rgb(37,37,37)" stroke="none" font-family="geogebra-sans-serif, sans-serif" font-size="18px" font-style="normal" font-weight="normal" text-decoration="normal" x="523" y="186" text-anchor="start" dominant-baseline="alphabetic" fill-opacity="1">π</text><text fill="rgb(37,37,37)" stroke="none" font-family="geogebra-sans-serif, sans-serif" font-size="18px" font-style="normal" font-weight="normal" text-decoration="normal" x="488" y="35" text-anchor="start" dominant-baseline="alphabetic" fill-opacity="1">3π / 2</text><text fill="none" stroke="rgb(255,255,255)" font-family="geogebra-sans-serif, sans-serif" font-size="18px" font-style="normal" font-weight="normal" text-decoration="normal" x="488" y="35" text-anchor="start" dominant-baseline="alphabetic" stroke-opacity="1" stroke-linejoin="bevel" stroke-miterlimit="10" stroke-width="3">3π / 2</text><text fill="rgb(37,37,37)" stroke="none" font-family="geogebra-sans-serif, sans-serif" font-size="18px" font-style="normal" font-weight="normal" text-decoration="normal" x="488" y="35" text-anchor="start" dominant-baseline="alphabetic" fill-opacity="1">3π / 2</text><text fill="rgb(37,37,37)" stroke="none" font-family="geogebra-sans-serif, sans-serif" font-size="18px" font-style="normal" font-weight="normal" text-decoration="normal" x="525" y="503" text-anchor="start" dominant-baseline="alphabetic" fill-opacity="1">0</text><text fill="none" stroke="rgb(255,255,255)" font-family="geogebra-sans-serif, sans-serif" font-size="18px" font-style="normal" font-weight="normal" text-decoration="normal" x="525" y="503" text-anchor="start" dominant-baseline="alphabetic" stroke-opacity="1" stroke-linejoin="bevel" stroke-miterlimit="10" stroke-width="3">0</text><text fill="rgb(37,37,37)" stroke="none" font-family="geogebra-sans-serif, sans-serif" font-size="18px" font-style="normal" font-weight="normal" text-decoration="normal" x="525" y="503" text-anchor="start" dominant-baseline="alphabetic" fill-opacity="1">0</text><path fill="none" stroke="rgb(21,101,192)" paint-order="fill stroke markers" d=" M 435.5 178.96462745930296 L 435.5 189.89937777043787 L 435.5 189.89937777043775 L 436.5 196.01832716515332 L 436.5 196.0183271651532 L 437.5 200.4731941566743 L 437.5 200.47319415667425 L 438.5 204.1626833478109 L 438.5 204.1626833478108 L 439.5 207.3865100829675 L 439.5 207.38651008296745 L 440.5 210.28884595543008 L 440.5 210.28884595542996 L 441.5 212.95221161044037 L 441.5 212.95221161044032 L 442.5 215.4290648793554 L 442.5 215.42906487935534 L 443.5 217.75520393700566 L 443.5 217.7552039370056 L 444.5 219.95634624292893 L 444.5 219.95634624292887 L 445.5 222.05170273937654 L 445.5 222.05170273937642 L 446.5 224.05607146870187 L 446.5 224.05607146870182 L 447.5 225.98113754502268 L 447.5 225.9811375450226 L 448.5 227.8363188237647 L 448.5 227.83631882376463 L 449.5 229.6293374169124 L 449.5 229.6293374169123 L 450.5 231.36661841894593 L 450.5 231.36661841894585 L 451.5 233.0535756897901 L 451.5 233.05357568979002 L 452.5 234.69482148824602 L 452.5 234.69482148824594 L 453.5 236.29432337249537 L 453.5 236.29432337249528 L 454.5 237.8555237231742 L 454.5 237.85552372317412 L 455.5 239.38143222500457 L 455.5 239.3814322250045 L 456.5 240.8746984264032 L 456.5 240.8746984264031 L 457.5 242.33766938232324 L 457.5 242.33766938232316 L 458.5 243.77243596426695 L 458.5 243.77243596426686 L 459.5 245.1808704463405 L 459.5 245.1808704463404 L 460.5 246.56465729497782 L 460.5 246.56465729497774 L 461.5 247.92531860605823 L 461.5 247.92531860605814 L 462.5 249.26423528419784 L 462.5 249.26423528419775 L 463.5 250.58266480387903 L 463.5 250.58266480387894 L 464.5 251.88175620318768 L 464.5 251.8817562031876 L 465.5 253.16256281942216 L 465.5 253.16256281942208 L 466.5 254.42605316869003 L 466.5 254.42605316868995 L 467.5 255.67312028965029 L 467.5 255.6731202896502 L 468.5 256.90458980829266 L 468.5 256.9045898082926 L 469.5 258.1212269313759 L 469.5 258.12122693137576 L 470.5 259.3237425374658 L 470.5 259.3237425374657 L 471.5 260.5127985039205 L 471.5 260.5127985039204 L 472.5 261.6890123837886 L 472.5 261.6890123837885 L 473.5 262.8529615270375 L 473.5 262.85296152703745 L 474.5 264.00518672474453 L 474.5 264.0051867247445 L 475.5 265.1461954420713 L 475.5 265.14619544207125 L 476.5 266.27646469537535 L 476.5 266.2764646953753 L 477.5 267.3964436202233 L 477.5 267.3964436202232 L 478.5 268.50655576998207 L 478.5 268.506555769982 L 479.5 269.6072011787869 L 479.5 269.6072011787868 L 480.5 270.6987582177886 L 480.5 270.6987582177885 L 481.5 271.7815852694913 L 481.5 271.7815852694912 L 482.5 272.85602224154667 L 482.5 272.8560222415466 L 483.5 273.92239193847513 L 483.5 273.922391938475 L 484.5 274.98100130732433 L 484.5 274.9810013073243 L 485.5 276.032142571191 L 485.5 276.0321425711909 L 486.5 277.0760942627521 L 486.5 277.07609426275206 L 487.5 278.11312216843055 L 487.5 278.11312216843044 L 488.5 279.14348019251224 L 488.5 279.14348019251213 L 489.5 280.167411149412 L 489.5 280.16741114941186 L 490.5 281.18514749130946 L 490.5 281.1851474913094 L 491.5 282.1969119775408 L 491.5 282.19691197754076 L 492.5 283.20291829140024 L 492.5 283.2029182914002 L 493.5 284.20337160937106 L 493.5 284.203371609371 L 494.5 285.1984691272535 L 494.5 285.19846912725336 L 495.5 286.18840054716907 L 495.5 286.18840054716895 L 496.5 287.1733485290006 L 496.5 287.17334852900046 L 497.5 288.1534891094499 L 497.5 288.15348910944977 L 498.5 289.1289920915696 L 498.5 289.12899209156956 L 499.5 290.1000214073334 L 499.5 290.1000214073333 L 500.5 291.0667354555542 L 500.5 291.0667354555541 L 501.5 292.0292874172317 L 501.5 292.02928741723167 L 502.5 292.98782555020955 L 502.5 292.98782555020955 L 503.5 293.94249346484196 L 503.5 293.9424934648419 L 504.5 294.8934303822123 L 504.5 294.89343038221216 L 505.5 295.8407713763009 L 505.5 295.84077137630084 L 506.5 296.78464760137405 L 506.5 296.784647601374 L 507.5 297.7251865057504 L 507.5 297.72518650575034 L 508.5 298.6625120330006 L 508.5 298.66251203300055 L 509.5 299.5967448115424 L 509.5 299.59674481154235 L 510.5 300.52800233351235 L 510.5 300.5280023335123 L 511.5 301.45639912371985 L 511.5 301.45639912371985 L 512.5 302.38204689942324 L 512.5 302.38204689942324 L 513.5 303.3050547216061 L 513.5 303.30505472160604 L 514.5 304.2255291383782 L 514.5 304.22552913837814 L 515.5 305.143574321076 L 515.5 305.143574321076 L 516.5 306.05929219359234 L 516.5 306.05929219359234 L 517.5 306.97278255542415 L 517.5 306.9727825554241 L 518.5 307.8841431988915 L 518.5 307.8841431988915 L 519.5 308.793470020947 L 519.5 308.7934700209469 L 520.5 309.7008571299629 L 520.5 309.70085712996286 L 521.5 310.6063969478592 L 521.5 310.60639694785914 L 522.5 311.51018030790607 L 522.5 311.510180307906 L 523.5 312.41229654851577 L 523.5 312.41229654851566 L 524.5 313.31283360331486 L 524.5 313.3128336033148 L 525.5 314.2118780877705 L 525.5 314.2118780877705 L 526.5 315.10951538262685 L 526.5 315.1095153826268 L 527.5 316.00582971439076 L 527.5 316.00582971439076 L 528.5 316.9009042330944 L 528.5 316.90090423309437 L 529.5 317.794821087546 L 529.5 317.7948210875459 L 530.5 318.68766149827036 L 530.5 318.68766149827036 L 531.5 319.5795058283304 L 531.5 319.57950582833035 L 532.5 320.47043365220816 L 532.5 320.47043365220816 L 533.5 321.3605238229194 L 533.5 321.3605238229194 L 534.5 322.24985453752413 L 534.5 322.24985453752413 L 535.5 323.13850340119075 L 535.5 323.13850340119063 L 536.5 324.02654748996355 L 536.5 324.0265474899635 L 537.5 324.9140634123794 L 537.5 324.91406341237933 L 538.5 325.8011273700723 L 538.5 325.80112737007227 L 539.5 326.6878152175026 L 539.5 326.6878152175026 L 540.5 327.57420252094175 L 540.5 327.5742025209417 L 541.5 328.4603646168417 L 541.5 328.4603646168416 L 542.5 329.34637666971526 L 542.5 329.34637666971526 L 543.5 330.2323137296515 L 543.5 330.2323137296514 L 544.5 331.1182507895877 L 544.5 331.1182507895876 L 545.5 332.0042628424613 L 545.5 332.00426284246123 L 546.5 332.8904249383612 L 546.5 332.89042493836115 L 547.5 333.7768122418003 L 547.5 333.77681224180026 L 548.5 334.66350008923064 L 548.5 334.66350008923064 L 549.5 335.55056404692357 L 549.5 335.55056404692357 L 550.5 336.43807996933947 L 550.5 336.43807996933936 L 551.5 337.32612405811227 L 551.5 337.3261240581122 L 552.5 338.21477292177883 L 552.5 338.21477292177883 L 553.5 339.10410363638357 L 553.5 339.10410363638357 L 554.5 339.9941938070948 L 554.5 339.9941938070948 L 555.5 340.88512163097255 L 555.5 340.88512163097255 L 556.5 341.7769659610326 L 556.5 341.77696596103254 L 557.5 342.669806371757 L 557.5 342.669806371757 L 558.5 343.56372322620854 L 558.5 343.5637232262085 L 559.5 344.4587977449122 L 559.5 344.4587977449121 L 560.5 345.3551120766761 L 560.5 345.35511207667605 L 561.5 346.25274937153245 L 561.5 346.2527493715324 L 562.5 347.1517938559881 L 562.5 347.1517938559881 L 563.5 348.0523309107872 L 563.5 348.0523309107872 L 564.5 348.9544471513969 L 564.5 348.95444715139683 L 565.5 349.85823051144376 L 565.5 349.8582305114437 L 566.5 350.76377032934005 L 566.5 350.76377032934 L 567.5 351.671157438356 L 567.5 351.671157438356 L 568.5 352.5804842604114 L 568.5 352.58048426041137 L 569.5 353.4918449038788 L 569.5 353.4918449038788 L 570.5 354.4053352657106 L 570.5 354.40533526571056 L 571.5 355.32105313822694 L 571.5 355.32105313822694 L 572.5 356.23909832092477 L 572.5 356.23909832092477 L 573.5 357.15957273769686 L 573.5 357.1595727376968 L 574.5 358.0825805598797 L 574.5 358.08258055987966 L 575.5 359.0082283355831 L 575.5 359.00822833558306 L 576.5 359.93662512579067 L 576.5 359.9366251257906 L 577.5 360.86788264776055 L 577.5 360.86788264776055 L 578.5 361.8021154263024 L 578.5 361.8021154263023 L 579.5 362.73944095355256 L 579.5 362.7394409535525 L 580.5 363.67997985792897 L 580.5 363.6799798579289 L 581.5 364.6238560830021 L 581.5 364.62385608300207 L 582.5 365.5711970770907 L 582.5 365.5711970770907 L 583.5 366.522133994461 L 583.5 366.522133994461 L 584.5 367.4768019090934 L 584.5 367.47680190909335 L 585.5 368.43534004207123 L 585.5 368.4353400420712 L 586.5 369.3978920037488 L 586.5 369.3978920037488 L 587.5 370.3646060519696 L 587.5 370.36460605196953 L 588.5 371.33563536773335 L 588.5 371.3356353677333 L 589.5 372.3111383498531 L 589.5 372.311138349853 L 590.5 373.29127893030244 L 590.5 373.2912789303024 L 591.5 374.27622691213395 L 591.5 374.2762269121339 L 592.5 375.2661583320495 L 592.5 375.2661583320495 L 593.5 376.2612558499319 L 593.5 376.26125584993184 L 594.5 377.2617091679027 L 594.5 377.26170916790267 L 595.5 378.26771548176214 L 595.5 378.2677154817621 L 596.5 379.2794799679935 L 596.5 379.27947996799344 L 597.5 380.29721630989104 L 597.5 380.297216309891 L 598.5 381.3211472667908 L 598.5 381.3211472667907 L 599.5 382.35150529087247 L 599.5 382.3515052908724 L 600.5 383.3885331965508 L 600.5 383.3885331965507 L 601.5 384.43248488811196 L 601.5 384.43248488811196 L 602.5 385.4836261519787 L 602.5 385.4836261519786 L 603.5 386.54223552082783 L 603.5 386.54223552082783 L 604.5 387.6086052177563 L 604.5 387.6086052177563 L 605.5 388.68304218981166 L 605.5 388.68304218981166 L 606.5 389.76586924151434 L 606.5 389.76586924151434 L 607.5 390.8574262805161 L 607.5 390.85742628051605 L 608.5 391.9580716893209 L 608.5 391.9580716893209 L 609.5 393.06818383907967 L 609.5 393.06818383907967 L 610.5 394.1881627639276 L 610.5 394.18816276392755 L 611.5 395.31843201723166 L 611.5 395.3184320172316 L 612.5 396.4594407345585 L 612.5 396.4594407345584 L 613.5 397.6116659322655 L 613.5 397.61166593226545 L 614.5 398.77561507551434 L 614.5 398.77561507551434 L 615.5 399.95182895538244 L 615.5 399.95182895538244 L 616.5 401.1408849218372 L 616.5 401.14088492183714 L 617.5 402.3434005279271 L 617.5 402.3434005279271 L 618.5 403.5600376510103 L 618.5 403.5600376510103 L 619.5 404.79150716965273 L 619.5 404.79150716965273 L 620.5 406.0385742906129 L 620.5 406.0385742906129 L 621.5 407.30206463988077 L 621.5 407.30206463988077 L 622.5 408.5828712561153 L 622.5 408.58287125611525 L 623.5 409.88196265542393 L 623.5 409.8819626554239 L 624.5 411.20039217510515 L 624.5 411.2003921751051 L 625.5 412.53930885324473 L 625.5 412.53930885324473 L 626.5 413.89997016432517 L 626.5 413.89997016432517 L 627.5 415.2837570129625 L 627.5 415.2837570129625 L 628.5 416.692191495036 L 628.5 416.692191495036 L 629.5 418.1269580769797 L 629.5 418.1269580769797 L 630.5 419.58992903289976 L 630.5 419.58992903289976 L 631.5 421.0831952342984 L 631.5 421.08319523429833 L 632.5 422.60910373612876 L 632.5 422.6091037361287 L 633.5 424.1703040868076 L 633.5 424.1703040868076 L 634.5 425.76980597105694 L 634.5 425.76980597105694 L 635.5 427.4110517695128 L 635.5 427.4110517695128 L 636.5 429.098009040357 L 636.5 429.098009040357 L 637.5 430.8352900423906 L 637.5 430.83529004239057 L 638.5 432.62830863553825 L 638.5 432.6283086355382 L 639.5 434.4834899142803 L 639.5 434.4834899142803 L 640.5 436.4085559906011 L 640.5 436.4085559906011 L 641.5 438.4129247199264 L 641.5 438.4129247199264 L 642.5 440.508281216374 L 642.5 440.508281216374 L 643.5 442.7094235222973 L 643.5 442.7094235222973 L 644.5 445.03556257994757 L 644.5 445.03556257994757 L 645.5 447.5124158488626 L 645.5 447.5124158488626 L 646.5 450.17578150387294 L 646.5 450.17578150387294 L 647.5 453.07811737633546 L 647.5 453.07811737633546 L 648.5 456.3019441114921 L 648.5 456.3019441114921 L 649.5 459.99143330262865 L 649.5 459.99143330262865 L 650.5 464.44630029414964 L 650.5 464.44630029414964 L 651.5 470.5652496888651 L 651.5 470.5652496888651 L 652.5 481.5" stroke-opacity="0.8" stroke-linecap="round" stroke-linejoin="round" stroke-miterlimit="10" stroke-width="5"/><g transform="scale(27,27)"><g transform="translate(18.48148148148148,9.048877185185185)"><path fill="rgb(21,101,192)" stroke="none" paint-order="stroke fill markers" d=" M 0.359 -0.386 Q 0.323 -0.423 0.252 -0.423 Q 0.189 -0.423 0.151 -0.363 Q 0.117 -0.309 0.117 -0.218 Q 0.117 -0.074 0.203 -0.029 Q 0.23 -0.014 0.258 -0.014 Q 0.356 -0.014 0.389 -0.11900000000000001 Q 0.392 -0.129 0.402 -0.129 Q 0.41500000000000004 -0.129 0.41500000000000004 -0.11900000000000001 Q 0.41500000000000004 -0.1 0.393 -0.065 Q 0.34400000000000003 0.011 0.249 0.011 Q 0.155 0.011 0.09 -0.063 Q 0.034 -0.128 0.034 -0.216 Q 0.034 -0.319 0.105 -0.388 Q 0.166 -0.448 0.251 -0.448 Q 0.334 -0.448 0.378 -0.403 Q 0.404 -0.376 0.404 -0.341 Q 0.404 -0.303 0.371 -0.295 Q 0.365 -0.294 0.358 -0.294 Q 0.323 -0.294 0.314 -0.326 Q 0.312 -0.332 0.312 -0.34 Q 0.312 -0.376 0.34700000000000003 -0.384 Q 0.353 -0.386 0.359 -0.386 Z"/></g><g transform="translate(18.92548148148148,9.048877185185185)"><path fill="rgb(21,101,192)" stroke="none" paint-order="stroke fill markers" d=" M 0.47100000000000003 -0.214 L 0.47100000000000003 -0.214 Q 0.47100000000000003 -0.111 0.395 -0.044 Q 0.332 0.011 0.249 0.011 Q 0.153 0.011 0.08700000000000001 -0.061 Q 0.028 -0.126 0.028 -0.214 Q 0.028 -0.316 0.101 -0.386 Q 0.164 -0.448 0.25 -0.448 Q 0.34700000000000003 -0.448 0.41300000000000003 -0.371 Q 0.47100000000000003 -0.304 0.47100000000000003 -0.214 M 0.25 -0.014 L 0.25 -0.014 Q 0.317 -0.014 0.356 -0.07 L 0.366 -0.088 Q 0.388 -0.132 0.388 -0.222 Q 0.388 -0.318 0.362 -0.361 Q 0.319 -0.423 0.249 -0.426 Q 0.187 -0.426 0.147 -0.376 Q 0.14 -0.368 0.135 -0.359 Q 0.111 -0.315 0.111 -0.222 Q 0.111 -0.125 0.136 -0.081 Q 0.178 -0.016 0.25 -0.014 Z"/></g><g transform="translate(19.42548148148148,9.048877185185185)"><path fill="rgb(21,101,192)" stroke="none" paint-order="stroke fill markers" d=" M 0.20800000000000002 -0.194 L 0.20800000000000002 -0.194 Q 0.122 -0.211 0.095 -0.227 Q 0.085 -0.232 0.076 -0.24 Q 0.033 -0.275 0.033 -0.325 Q 0.033 -0.395 0.095 -0.427 Q 0.134 -0.448 0.193 -0.448 Q 0.249 -0.448 0.28700000000000003 -0.42 Q 0.298 -0.429 0.304 -0.436 Q 0.317 -0.448 0.324 -0.448 Q 0.334 -0.439 0.335 -0.424 L 0.335 -0.323 Q 0.335 -0.302 0.329 -0.3 L 0.328 -0.3 L 0.327 -0.299 L 0.322 -0.299 Q 0.311 -0.299 0.31 -0.308 Q 0.303 -0.40900000000000003 0.227 -0.426 Q 0.211 -0.429 0.193 -0.429 Q 0.099 -0.429 0.083 -0.371 Q 0.081 -0.362 0.081 -0.353 Q 0.081 -0.302 0.158 -0.281 Q 0.17300000000000001 -0.277 0.20400000000000001 -0.271 Q 0.276 -0.257 0.307 -0.232 Q 0.313 -0.228 0.318 -0.223 Q 0.36 -0.181 0.36 -0.128 Q 0.36 -0.043000000000000003 0.29 -0.008 Q 0.252 0.011 0.199 0.011 Q 0.134 0.011 0.089 -0.032 L 0.069 -0.009000000000000001 Q 0.049 0.011 0.044 0.011 Q 0.034 0.002 0.033 -0.013000000000000001 L 0.033 -0.145 Q 0.033 -0.167 0.04 -0.169 L 0.04 -0.169 L 0.041 -0.17 L 0.046 -0.17 Q 0.056 -0.17 0.059000000000000004 -0.159 Q 0.059000000000000004 -0.157 0.06 -0.153 Q 0.08600000000000001 -0.037 0.159 -0.016 Q 0.177 -0.011 0.199 -0.011 Q 0.289 -0.011 0.308 -0.074 Q 0.312 -0.08700000000000001 0.312 -0.10200000000000001 Q 0.312 -0.17500000000000002 0.20800000000000002 -0.194 Z"/></g><g transform="translate(19.81948148148148,8.635985185185186) scale(0.7,0.7)"><path fill="rgb(21,101,192)" stroke="none" paint-order="stroke fill markers" d=" M 0.661 -0.23 L 0.116 -0.23 Q 0.084 -0.23 0.083 -0.25 Q 0.083 -0.27 0.116 -0.27 L 0.661 -0.27 Q 0.6930000000000001 -0.27 0.6940000000000001 -0.25 Q 0.6940000000000001 -0.23 0.661 -0.23 Z"/></g><g transform="translate(20.364081481481477,8.635985185185186) scale(0.7,0.7)"><path fill="rgb(21,101,192)" stroke="none" paint-order="stroke fill markers" d=" M 0.294 -0.64 L 0.294 -0.079 Q 0.294 -0.049 0.306 -0.041 Q 0.323 -0.031 0.387 -0.031 L 0.419 -0.031 L 0.419 0 Q 0.384 -0.003 0.257 -0.003 Q 0.13 -0.003 0.095 0 L 0.095 -0.031 L 0.127 -0.031 Q 0.20400000000000001 -0.031 0.215 -0.049 L 0.216 -0.05 Q 0.22 -0.058 0.22 -0.079 L 0.22 -0.597 Q 0.168 -0.5710000000000001 0.089 -0.5710000000000001 L 0.089 -0.602 Q 0.209 -0.602 0.271 -0.666 Q 0.29 -0.666 0.293 -0.659 L 0.293 -0.659 L 0.293 -0.658 Q 0.294 -0.655 0.294 -0.64 Z"/></g><g transform="translate(20.73253081499815,9.048877185185185)"><path fill="rgb(21,101,192)" stroke="none" paint-order="stroke fill markers" d=" M 0.331 0.24 L 0.331 0.24 Q 0.331 0.25 0.321 0.25 Q 0.309 0.25 0.268 0.209 Q 0.20600000000000002 0.147 0.165 0.062 Q 0.099 -0.074 0.099 -0.25 Q 0.099 -0.419 0.162 -0.555 Q 0.214 -0.666 0.294 -0.733 Q 0.315 -0.75 0.321 -0.75 Q 0.331 -0.75 0.331 -0.74 Q 0.331 -0.735 0.318 -0.723 Q 0.157 -0.559 0.157 -0.25 Q 0.157 0.058 0.314 0.218 Q 0.331 0.23500000000000001 0.331 0.24 Z"/></g><g transform="translate(21.12153081499815,9.048877185185185)"><path fill="rgb(21,101,192)" stroke="none" paint-order="stroke fill markers" d=" M 0.334 -0.302 L 0.3 -0.165 Q 0.28300000000000003 -0.097 0.28300000000000003 -0.077 Q 0.28300000000000003 -0.025 0.32 -0.014 Q 0.328 -0.011 0.338 -0.011 Q 0.388 -0.011 0.429 -0.061 Q 0.456 -0.093 0.47100000000000003 -0.14200000000000002 Q 0.47400000000000003 -0.153 0.484 -0.153 Q 0.496 -0.153 0.496 -0.14300000000000002 Q 0.496 -0.11800000000000001 0.465 -0.07100000000000001 Q 0.41100000000000003 0.011 0.336 0.011 Q 0.268 0.011 0.23700000000000002 -0.046 Q 0.231 -0.055 0.228 -0.065 Q 0.20400000000000001 -0.017 0.162 0.002 Q 0.14300000000000002 0.011 0.123 0.011 Q 0.063 0.011 0.039 -0.024 Q 0.029 -0.037 0.029 -0.055 Q 0.029 -0.092 0.061 -0.107 Q 0.07200000000000001 -0.113 0.084 -0.113 Q 0.114 -0.113 0.12 -0.088 Q 0.121 -0.083 0.121 -0.078 Q 0.121 -0.044 0.08700000000000001 -0.028 Q 0.081 -0.025 0.074 -0.024 Q 0.095 -0.011 0.124 -0.011 Q 0.177 -0.011 0.20800000000000002 -0.082 Q 0.214 -0.097 0.219 -0.115 Q 0.273 -0.319 0.273 -0.353 Q 0.267 -0.41500000000000004 0.219 -0.42 Q 0.167 -0.42 0.124 -0.367 L 0.124 -0.366 Q 0.124 -0.365 0.123 -0.365 Q 0.108 -0.34500000000000003 0.096 -0.319 Q 0.091 -0.307 0.08700000000000001 -0.295 L 0.085 -0.289 Q 0.083 -0.278 0.07200000000000001 -0.278 Q 0.06 -0.278 0.06 -0.28800000000000003 Q 0.06 -0.313 0.092 -0.36 Q 0.146 -0.442 0.221 -0.442 Q 0.298 -0.442 0.329 -0.366 Q 0.361 -0.428 0.41400000000000003 -0.44 Q 0.424 -0.442 0.434 -0.442 Q 0.493 -0.442 0.517 -0.40900000000000003 Q 0.527 -0.395 0.527 -0.376 Q 0.527 -0.335 0.49 -0.321 Q 0.481 -0.318 0.47300000000000003 -0.318 Q 0.442 -0.318 0.436 -0.34500000000000003 Q 0.435 -0.34900000000000003 0.435 -0.353 Q 0.435 -0.383 0.464 -0.4 Q 0.47300000000000003 -0.405 0.483 -0.40700000000000003 Q 0.462 -0.42 0.433 -0.42 Q 0.365 -0.42 0.337 -0.314 Q 0.335 -0.308 0.334 -0.302 Z"/></g><g transform="translate(21.693530814998148,9.048877185185185)"><path fill="rgb(21,101,192)" stroke="none" paint-order="stroke fill markers" d=" M 0.289 -0.25 L 0.289 -0.25 Q 0.289 -0.081 0.226 0.055 Q 0.17400000000000002 0.166 0.094 0.233 Q 0.073 0.25 0.067 0.25 Q 0.057 0.25 0.057 0.24 Q 0.057 0.23500000000000001 0.07 0.223 Q 0.231 0.059000000000000004 0.231 -0.25 Q 0.231 -0.555 0.081 -0.712 L 0.076 -0.717 Q 0.057 -0.735 0.057 -0.74 Q 0.057 -0.75 0.067 -0.75 Q 0.079 -0.75 0.12 -0.709 Q 0.182 -0.647 0.223 -0.562 Q 0.289 -0.426 0.289 -0.25 Z"/></g></g></g></g></svg>