<svg version="1.1" xmlns="http://www.w3.org/2000/svg" xmlns:xlink="http://www.w3.org/1999/xlink" width="1087" height="963"><defs><clipPath id="GrqRTFAMCqaE"><path fill="none" stroke="none" d=" M 0 0 L 1087 0 L 1087 963 L 0 963 L 0 0 Z"/></clipPath></defs><g transform="scale(1,1)" clip-path="url(#GrqRTFAMCqaE)"><g><rect fill="rgb(255,255,255)" stroke="none" x="0" y="0" width="1087" height="963" fill-opacity="1"/><path fill="none" stroke="rgb(192,192,192)" paint-order="fill stroke markers" d=" M 108.5 0.5 L 108.5 963.5 M 108.5 0.5 L 108.5 963.5 M 217.5 0.5 L 217.5 963.5 M 326.5 0.5 L 326.5 963.5 M 434.5 0.5 L 434.5 963.5 M 652.5 0.5 L 652.5 963.5 M 760.5 0.5 L 760.5 963.5 M 869.5 0.5 L 869.5 963.5 M 978.5 0.5 L 978.5 963.5 M 1087.5 0.5 L 1087.5 963.5" stroke-opacity="1" stroke-linecap="round" stroke-linejoin="round" stroke-miterlimit="10"/><path fill="none" stroke="rgb(192,192,192)" paint-order="fill stroke markers" d=" M 21.5 0.5 L 21.5 963.5 M 43.5 0.5 L 43.5 963.5 M 65.5 0.5 L 65.5 963.5 M 86.5 0.5 L 86.5 963.5 M 130.5 0.5 L 130.5 963.5 M 152.5 0.5 L 152.5 963.5 M 173.5 0.5 L 173.5 963.5 M 195.5 0.5 L 195.5 963.5 M 239.5 0.5 L 239.5 963.5 M 260.5 0.5 L 260.5 963.5 M 282.5 0.5 L 282.5 963.5 M 304.5 0.5 L 304.5 963.5 M 347.5 0.5 L 347.5 963.5 M 369.5 0.5 L 369.5 963.5 M 391.5 0.5 L 391.5 963.5 M 413.5 0.5 L 413.5 963.5 M 456.5 0.5 L 456.5 963.5 M 478.5 0.5 L 478.5 963.5 M 500.5 0.5 L 500.5 963.5 M 521.5 0.5 L 521.5 963.5 M 565.5 0.5 L 565.5 963.5 M 586.5 0.5 L 586.5 963.5 M 608.5 0.5 L 608.5 963.5 M 630.5 0.5 L 630.5 963.5 M 673.5 0.5 L 673.5 963.5 M 695.5 0.5 L 695.5 963.5 M 717.5 0.5 L 717.5 963.5 M 739.5 0.5 L 739.5 963.5 M 782.5 0.5 L 782.5 963.5 M 804.5 0.5 L 804.5 963.5 M 826.5 0.5 L 826.5 963.5 M 847.5 0.5 L 847.5 963.5 M 891.5 0.5 L 891.5 963.5 M 913.5 0.5 L 913.5 963.5 M 934.5 0.5 L 934.5 963.5 M 956.5 0.5 L 956.5 963.5 M 1000.5 0.5 L 1000.5 963.5 M 1021.5 0.5 L 1021.5 963.5 M 1043.5 0.5 L 1043.5 963.5 M 1065.5 0.5 L 1065.5 963.5" stroke-opacity="0.23529411764705882" stroke-linecap="round" stroke-linejoin="round" stroke-miterlimit="10"/><path fill="none" stroke="rgb(192,192,192)" paint-order="fill stroke markers" d=" M 0.5 27.5 L 1087.5 27.5 M 0.5 27.5 L 1087.5 27.5 M 0.5 178.5 L 1087.5 178.5 M 0.5 330.5 L 1087.5 330.5 M 0.5 632.5 L 1087.5 632.5 M 0.5 784.5 L 1087.5 784.5 M 0.5 935.5 L 1087.5 935.5" stroke-opacity="1" stroke-linecap="round" stroke-linejoin="round" stroke-miterlimit="10"/><path fill="none" stroke="rgb(192,192,192)" paint-order="fill stroke markers" d=" M 0.5 27.5 L 1087.5 27.5 M 0.5 57.5 L 1087.5 57.5 M 0.5 88.5 L 1087.5 88.5 M 0.5 118.5 L 1087.5 118.5 M 0.5 148.5 L 1087.5 148.5 M 0.5 209.5 L 1087.5 209.5 M 0.5 239.5 L 1087.5 239.5 M 0.5 269.5 L 1087.5 269.5 M 0.5 299.5 L 1087.5 299.5 M 0.5 360.5 L 1087.5 360.5 M 0.5 390.5 L 1087.5 390.5 M 0.5 420.5 L 1087.5 420.5 M 0.5 451.5 L 1087.5 451.5 M 0.5 511.5 L 1087.5 511.5 M 0.5 542.5 L 1087.5 542.5 M 0.5 572.5 L 1087.5 572.5 M 0.5 602.5 L 1087.5 602.5 M 0.5 663.5 L 1087.5 663.5 M 0.5 693.5 L 1087.5 693.5 M 0.5 723.5 L 1087.5 723.5 M 0.5 753.5 L 1087.5 753.5 M 0.5 814.5 L 1087.5 814.5 M 0.5 844.5 L 1087.5 844.5 M 0.5 874.5 L 1087.5 874.5 M 0.5 905.5 L 1087.5 905.5" stroke-opacity="0.23529411764705882" stroke-linecap="round" stroke-linejoin="round" stroke-miterlimit="10"/><path fill="none" stroke="rgb(37,37,37)" paint-order="fill stroke markers" d=" M 543.5 2.5 L 543.5 963.5" stroke-opacity="1" stroke-miterlimit="10"/><path fill="none" stroke="rgb(37,37,37)" paint-order="fill stroke markers" d=" M 543.5 1.5 L 537.5 7.5" stroke-opacity="1" stroke-miterlimit="10"/><path fill="none" stroke="rgb(37,37,37)" paint-order="fill stroke markers" d=" M 543.5 1.5 L 549.5 7.5" stroke-opacity="1" stroke-miterlimit="10"/><path fill="none" stroke="rgb(37,37,37)" paint-order="fill stroke markers" d=" M 0.5 481.5 L 1085.5 481.5" stroke-opacity="1" stroke-miterlimit="10"/><path fill="none" stroke="rgb(37,37,37)" paint-order="fill stroke markers" d=" M 1086.5 481.5 L 1080.5 475.5" stroke-opacity="1" stroke-miterlimit="10"/><path fill="none" stroke="rgb(37,37,37)" paint-order="fill stroke markers" d=" M 1086.5 481.5 L 1080.5 487.5" stroke-opacity="1" stroke-miterlimit="10"/><text fill="rgb(37,37,37)" stroke="none" font-family="geogebra-sans-serif, sans-serif" font-size="18px" font-style="normal" font-weight="normal" text-decoration="normal" x="100" y="503" text-anchor="start" dominant-baseline="alphabetic" fill-opacity="1">–4</text><text fill="none" stroke="rgb(255,255,255)" font-family="geogebra-sans-serif, sans-serif" font-size="18px" font-style="normal" font-weight="normal" text-decoration="normal" x="100" y="503" text-anchor="start" dominant-baseline="alphabetic" stroke-opacity="1" stroke-linejoin="bevel" stroke-miterlimit="10" stroke-width="3">–4</text><text fill="rgb(37,37,37)" stroke="none" font-family="geogebra-sans-serif, sans-serif" font-size="18px" font-style="normal" font-weight="normal" text-decoration="normal" x="100" y="503" text-anchor="start" dominant-baseline="alphabetic" fill-opacity="1">–4</text><text fill="rgb(37,37,37)" stroke="none" font-family="geogebra-sans-serif, sans-serif" font-size="18px" font-style="normal" font-weight="normal" text-decoration="normal" x="209" y="503" text-anchor="start" dominant-baseline="alphabetic" fill-opacity="1">–3</text><text fill="none" stroke="rgb(255,255,255)" font-family="geogebra-sans-serif, sans-serif" font-size="18px" font-style="normal" font-weight="normal" text-decoration="normal" x="209" y="503" text-anchor="start" dominant-baseline="alphabetic" stroke-opacity="1" stroke-linejoin="bevel" stroke-miterlimit="10" stroke-width="3">–3</text><text fill="rgb(37,37,37)" stroke="none" font-family="geogebra-sans-serif, sans-serif" font-size="18px" font-style="normal" font-weight="normal" text-decoration="normal" x="209" y="503" text-anchor="start" dominant-baseline="alphabetic" fill-opacity="1">–3</text><text fill="rgb(37,37,37)" stroke="none" font-family="geogebra-sans-serif, sans-serif" font-size="18px" font-style="normal" font-weight="normal" text-decoration="normal" x="318" y="503" text-anchor="start" dominant-baseline="alphabetic" fill-opacity="1">–2</text><text fill="none" stroke="rgb(255,255,255)" font-family="geogebra-sans-serif, sans-serif" font-size="18px" font-style="normal" font-weight="normal" text-decoration="normal" x="318" y="503" text-anchor="start" dominant-baseline="alphabetic" stroke-opacity="1" stroke-linejoin="bevel" stroke-miterlimit="10" stroke-width="3">–2</text><text fill="rgb(37,37,37)" stroke="none" font-family="geogebra-sans-serif, sans-serif" font-size="18px" font-style="normal" font-weight="normal" text-decoration="normal" x="318" y="503" text-anchor="start" dominant-baseline="alphabetic" fill-opacity="1">–2</text><text fill="rgb(37,37,37)" stroke="none" font-family="geogebra-sans-serif, sans-serif" font-size="18px" font-style="normal" font-weight="normal" text-decoration="normal" x="426" y="503" text-anchor="start" dominant-baseline="alphabetic" fill-opacity="1">–1</text><text fill="none" stroke="rgb(255,255,255)" font-family="geogebra-sans-serif, sans-serif" font-size="18px" font-style="normal" font-weight="normal" text-decoration="normal" x="426" y="503" text-anchor="start" dominant-baseline="alphabetic" stroke-opacity="1" stroke-linejoin="bevel" stroke-miterlimit="10" stroke-width="3">–1</text><text fill="rgb(37,37,37)" stroke="none" font-family="geogebra-sans-serif, sans-serif" font-size="18px" font-style="normal" font-weight="normal" text-decoration="normal" x="426" y="503" text-anchor="start" dominant-baseline="alphabetic" fill-opacity="1">–1</text><text fill="rgb(37,37,37)" stroke="none" font-family="geogebra-sans-serif, sans-serif" font-size="18px" font-style="normal" font-weight="normal" text-decoration="normal" x="648" y="503" text-anchor="start" dominant-baseline="alphabetic" fill-opacity="1">1</text><text fill="none" stroke="rgb(255,255,255)" font-family="geogebra-sans-serif, sans-serif" font-size="18px" font-style="normal" font-weight="normal" text-decoration="normal" x="648" y="503" text-anchor="start" dominant-baseline="alphabetic" stroke-opacity="1" stroke-linejoin="bevel" stroke-miterlimit="10" stroke-width="3">1</text><text fill="rgb(37,37,37)" stroke="none" font-family="geogebra-sans-serif, sans-serif" font-size="18px" font-style="normal" font-weight="normal" text-decoration="normal" x="648" y="503" text-anchor="start" dominant-baseline="alphabetic" fill-opacity="1">1</text><text fill="rgb(37,37,37)" stroke="none" font-family="geogebra-sans-serif, sans-serif" font-size="18px" font-style="normal" font-weight="normal" text-decoration="normal" x="757" y="503" text-anchor="start" dominant-baseline="alphabetic" fill-opacity="1">2</text><text fill="none" stroke="rgb(255,255,255)" font-family="geogebra-sans-serif, sans-serif" font-size="18px" font-style="normal" font-weight="normal" text-decoration="normal" x="757" y="503" text-anchor="start" dominant-baseline="alphabetic" stroke-opacity="1" stroke-linejoin="bevel" stroke-miterlimit="10" stroke-width="3">2</text><text fill="rgb(37,37,37)" stroke="none" font-family="geogebra-sans-serif, sans-serif" font-size="18px" font-style="normal" font-weight="normal" text-decoration="normal" x="757" y="503" text-anchor="start" dominant-baseline="alphabetic" fill-opacity="1">2</text><text fill="rgb(37,37,37)" stroke="none" font-family="geogebra-sans-serif, sans-serif" font-size="18px" font-style="normal" font-weight="normal" text-decoration="normal" x="866" y="503" text-anchor="start" dominant-baseline="alphabetic" fill-opacity="1">3</text><text fill="none" stroke="rgb(255,255,255)" font-family="geogebra-sans-serif, sans-serif" font-size="18px" font-style="normal" font-weight="normal" text-decoration="normal" x="866" y="503" text-anchor="start" dominant-baseline="alphabetic" stroke-opacity="1" stroke-linejoin="bevel" stroke-miterlimit="10" stroke-width="3">3</text><text fill="rgb(37,37,37)" stroke="none" font-family="geogebra-sans-serif, sans-serif" font-size="18px" font-style="normal" font-weight="normal" text-decoration="normal" x="866" y="503" text-anchor="start" dominant-baseline="alphabetic" fill-opacity="1">3</text><text fill="rgb(37,37,37)" stroke="none" font-family="geogebra-sans-serif, sans-serif" font-size="18px" font-style="normal" font-weight="normal" text-decoration="normal" x="974" y="503" text-anchor="start" dominant-baseline="alphabetic" fill-opacity="1">4</text><text fill="none" stroke="rgb(255,255,255)" font-family="geogebra-sans-serif, sans-serif" font-size="18px" font-style="normal" font-weight="normal" text-decoration="normal" x="974" y="503" text-anchor="start" dominant-baseline="alphabetic" stroke-opacity="1" stroke-linejoin="bevel" stroke-miterlimit="10" stroke-width="3">4</text><text fill="rgb(37,37,37)" stroke="none" font-family="geogebra-sans-serif, sans-serif" font-size="18px" font-style="normal" font-weight="normal" text-decoration="normal" x="974" y="503" text-anchor="start" dominant-baseline="alphabetic" fill-opacity="1">4</text><text fill="rgb(37,37,37)" stroke="none" font-family="geogebra-sans-serif, sans-serif" font-size="24px" font-style="normal" font-weight="normal" text-decoration="normal" x="548" y="23" text-anchor="start" dominant-baseline="alphabetic" fill-opacity="1">y</text><text fill="rgb(37,37,37)" stroke="none" font-family="geogebra-sans-serif, sans-serif" font-size="18px" font-style="normal" font-weight="normal" text-decoration="normal" x="478" y="943" text-anchor="start" dominant-baseline="alphabetic" fill-opacity="1">–3π / 2</text><text fill="none" stroke="rgb(255,255,255)" font-family="geogebra-sans-serif, sans-serif" font-size="18px" font-style="normal" font-weight="normal" text-decoration="normal" x="478" y="943" text-anchor="start" dominant-baseline="alphabetic" stroke-opacity="1" stroke-linejoin="bevel" stroke-miterlimit="10" stroke-width="3">–3π / 2</text><text fill="rgb(37,37,37)" stroke="none" font-family="geogebra-sans-serif, sans-serif" font-size="18px" font-style="normal" font-weight="normal" text-decoration="normal" x="478" y="943" text-anchor="start" dominant-baseline="alphabetic" fill-opacity="1">–3π / 2</text><text fill="rgb(37,37,37)" stroke="none" font-family="geogebra-sans-serif, sans-serif" font-size="18px" font-style="normal" font-weight="normal" text-decoration="normal" x="513" y="792" text-anchor="start" dominant-baseline="alphabetic" fill-opacity="1">–π</text><text fill="none" stroke="rgb(255,255,255)" font-family="geogebra-sans-serif, sans-serif" font-size="18px" font-style="normal" font-weight="normal" text-decoration="normal" x="513" y="792" text-anchor="start" dominant-baseline="alphabetic" stroke-opacity="1" stroke-linejoin="bevel" stroke-miterlimit="10" stroke-width="3">–π</text><text fill="rgb(37,37,37)" stroke="none" font-family="geogebra-sans-serif, sans-serif" font-size="18px" font-style="normal" font-weight="normal" text-decoration="normal" x="513" y="792" text-anchor="start" dominant-baseline="alphabetic" fill-opacity="1">–π</text><text fill="rgb(37,37,37)" stroke="none" font-family="geogebra-sans-serif, sans-serif" font-size="18px" font-style="normal" font-weight="normal" text-decoration="normal" x="488" y="640" text-anchor="start" dominant-baseline="alphabetic" fill-opacity="1">–π / 2</text><text fill="none" stroke="rgb(255,255,255)" font-family="geogebra-sans-serif, sans-serif" font-size="18px" font-style="normal" font-weight="normal" text-decoration="normal" x="488" y="640" text-anchor="start" dominant-baseline="alphabetic" stroke-opacity="1" stroke-linejoin="bevel" stroke-miterlimit="10" stroke-width="3">–π / 2</text><text fill="rgb(37,37,37)" stroke="none" font-family="geogebra-sans-serif, sans-serif" font-size="18px" font-style="normal" font-weight="normal" text-decoration="normal" x="488" y="640" text-anchor="start" dominant-baseline="alphabetic" fill-opacity="1">–π / 2</text><text fill="rgb(37,37,37)" stroke="none" font-family="geogebra-sans-serif, sans-serif" font-size="18px" font-style="normal" font-weight="normal" text-decoration="normal" x="498" y="338" text-anchor="start" dominant-baseline="alphabetic" fill-opacity="1">π / 2</text><text fill="none" stroke="rgb(255,255,255)" font-family="geogebra-sans-serif, sans-serif" font-size="18px" font-style="normal" font-weight="normal" text-decoration="normal" x="498" y="338" text-anchor="start" dominant-baseline="alphabetic" stroke-opacity="1" stroke-linejoin="bevel" stroke-miterlimit="10" stroke-width="3">π / 2</text><text fill="rgb(37,37,37)" stroke="none" font-family="geogebra-sans-serif, sans-serif" font-size="18px" font-style="normal" font-weight="normal" text-decoration="normal" x="498" y="338" text-anchor="start" dominant-baseline="alphabetic" fill-opacity="1">π / 2</text><text fill="rgb(37,37,37)" stroke="none" font-family="geogebra-sans-serif, sans-serif" font-size="18px" font-style="normal" font-weight="normal" text-decoration="normal" x="523" y="186" text-anchor="start" dominant-baseline="alphabetic" fill-opacity="1">π</text><text fill="none" stroke="rgb(255,255,255)" font-family="geogebra-sans-serif, sans-serif" font-size="18px" font-style="normal" font-weight="normal" text-decoration="normal" x="523" y="186" text-anchor="start" dominant-baseline="alphabetic" stroke-opacity="1" stroke-linejoin="bevel" stroke-miterlimit="10" stroke-width="3">π</text><text fill="rgb(37,37,37)" stroke="none" font-family="geogebra-sans-serif, sans-serif" font-size="18px" font-style="normal" font-weight="normal" text-decoration="normal" x="523" y="186" text-anchor="start" dominant-baseline="alphabetic" fill-opacity="1">π</text><text fill="rgb(37,37,37)" stroke="none" font-family="geogebra-sans-serif, sans-serif" font-size="18px" font-style="normal" font-weight="normal" text-decoration="normal" x="488" y="35" text-anchor="start" dominant-baseline="alphabetic" fill-opacity="1">3π / 2</text><text fill="none" stroke="rgb(255,255,255)" font-family="geogebra-sans-serif, sans-serif" font-size="18px" font-style="normal" font-weight="normal" text-decoration="normal" x="488" y="35" text-anchor="start" dominant-baseline="alphabetic" stroke-opacity="1" stroke-linejoin="bevel" stroke-miterlimit="10" stroke-width="3">3π / 2</text><text fill="rgb(37,37,37)" stroke="none" font-family="geogebra-sans-serif, sans-serif" font-size="18px" font-style="normal" font-weight="normal" text-decoration="normal" x="488" y="35" text-anchor="start" dominant-baseline="alphabetic" fill-opacity="1">3π / 2</text><text fill="rgb(37,37,37)" stroke="none" font-family="geogebra-sans-serif, sans-serif" font-size="18px" font-style="normal" font-weight="normal" text-decoration="normal" x="525" y="503" text-anchor="start" dominant-baseline="alphabetic" fill-opacity="1">0</text><text fill="none" stroke="rgb(255,255,255)" font-family="geogebra-sans-serif, sans-serif" font-size="18px" font-style="normal" font-weight="normal" text-decoration="normal" x="525" y="503" text-anchor="start" dominant-baseline="alphabetic" stroke-opacity="1" stroke-linejoin="bevel" stroke-miterlimit="10" stroke-width="3">0</text><text fill="rgb(37,37,37)" stroke="none" font-family="geogebra-sans-serif, sans-serif" font-size="18px" font-style="normal" font-weight="normal" text-decoration="normal" x="525" y="503" text-anchor="start" dominant-baseline="alphabetic" fill-opacity="1">0</text><path fill="none" stroke="rgb(46,125,50)" paint-order="fill stroke markers" d=" M 435.5 621.8329359592137 L 435.5 632.7676862703486 L 435.5 621.8329359592137 L 436.5 615.7139865644982 L 436.5 615.7139865644982 L 437.5 611.2591195729772 L 437.5 611.2591195729772 L 438.5 607.5696303818406 L 438.5 607.5696303818406 L 439.5 604.345803646684 L 439.5 604.345803646684 L 440.5 601.4434677742215 L 440.5 601.4434677742215 L 441.5 598.7801021192112 L 441.5 598.7801021192112 L 442.5 596.3032488502961 L 442.5 596.3032488502961 L 443.5 593.9771097926458 L 443.5 593.9771097926458 L 444.5 591.7759674867225 L 444.5 591.7759674867225 L 445.5 589.680610990275 L 445.5 589.680610990275 L 446.5 587.6762422609496 L 446.5 587.6762422609496 L 447.5 585.7511761846289 L 447.5 585.7511761846289 L 448.5 583.8959949058868 L 448.5 583.8959949058868 L 449.5 582.1029763127392 L 449.5 582.1029763127392 L 450.5 580.3656953107055 L 450.5 580.3656953107055 L 451.5 578.6787380398614 L 451.5 578.6787380398614 L 452.5 577.0374922414055 L 452.5 577.0374922414055 L 453.5 575.4379903571562 L 453.5 575.4379903571562 L 454.5 573.8767900064772 L 454.5 573.8767900064772 L 455.5 572.350881504647 L 455.5 572.350881504647 L 456.5 570.8576153032483 L 456.5 570.8576153032483 L 457.5 569.3946443473283 L 457.5 569.3946443473283 L 458.5 567.9598777653846 L 458.5 567.9598777653846 L 459.5 566.5514432833111 L 459.5 566.5514432833111 L 460.5 565.1676564346737 L 460.5 565.1676564346737 L 461.5 563.8069951235933 L 461.5 563.8069951235933 L 462.5 562.4680784454537 L 462.5 562.4680784454537 L 463.5 561.1496489257725 L 463.5 561.1496489257725 L 464.5 559.8505575264638 L 464.5 559.8505575264638 L 465.5 558.5697509102293 L 465.5 558.5697509102293 L 466.5 557.3062605609615 L 466.5 557.3062605609615 L 467.5 556.0591934400013 L 467.5 556.0591934400013 L 468.5 554.8277239213588 L 468.5 554.8277239213588 L 469.5 553.6110867982757 L 469.5 553.6110867982757 L 470.5 552.4085711921857 L 470.5 552.4085711921857 L 471.5 551.219515225731 L 471.5 551.219515225731 L 472.5 550.0433013458629 L 472.5 550.0433013458629 L 473.5 548.879352202614 L 473.5 548.879352202614 L 474.5 547.7271270049071 L 474.5 547.7271270049071 L 475.5 546.5861182875801 L 475.5 546.5861182875801 L 476.5 545.4558490342762 L 476.5 545.4558490342762 L 477.5 544.3358701094282 L 477.5 544.3358701094282 L 478.5 543.2257579596694 L 478.5 543.2257579596694 L 479.5 542.1251125508646 L 479.5 542.1251125508646 L 480.5 541.0335555118629 L 480.5 541.0335555118629 L 481.5 539.9507284601602 L 481.5 539.9507284601602 L 482.5 538.8762914881048 L 482.5 538.8762914881048 L 483.5 537.8099217911764 L 483.5 537.8099217911764 L 484.5 536.7513124223271 L 484.5 536.7513124223271 L 485.5 535.7001711584605 L 485.5 535.7001711584605 L 486.5 534.6562194668993 L 486.5 534.6562194668993 L 487.5 533.619191561221 L 487.5 533.619191561221 L 488.5 532.5888335371393 L 488.5 532.5888335371393 L 489.5 531.5649025802395 L 489.5 531.5649025802395 L 490.5 530.547166238342 L 490.5 530.547166238342 L 491.5 529.5354017521106 L 491.5 529.5354017521106 L 492.5 528.5293954382513 L 492.5 528.5293954382513 L 493.5 527.5289421202804 L 493.5 527.5289421202804 L 494.5 526.5338446023981 L 494.5 526.5338446023981 L 495.5 525.5439131824825 L 495.5 525.5439131824825 L 496.5 524.558965200651 L 496.5 524.558965200651 L 497.5 523.5788246202017 L 497.5 523.5788246202017 L 498.5 522.6033216380819 L 498.5 522.6033216380819 L 499.5 521.6322923223181 L 499.5 521.6322923223181 L 500.5 520.6655782740974 L 500.5 520.6655782740974 L 501.5 519.7030263124198 L 501.5 519.7030263124198 L 502.5 518.744488179442 L 502.5 518.744488179442 L 503.5 517.7898202648096 L 503.5 517.7898202648096 L 504.5 516.8388833474393 L 504.5 516.8388833474393 L 505.5 515.8915423533506 L 505.5 515.8915423533506 L 506.5 514.9476661282774 L 506.5 514.9476661282774 L 507.5 514.0071272239011 L 507.5 514.0071272239011 L 508.5 513.0698016966509 L 508.5 513.0698016966509 L 509.5 512.1355689181091 L 509.5 512.1355689181091 L 510.5 511.20431139613913 L 510.5 511.20431139613913 L 511.5 510.27591460593163 L 511.5 510.27591460593163 L 512.5 509.3502668302282 L 512.5 509.3502668302282 L 513.5 508.4272590080454 L 513.5 508.4272590080454 L 514.5 507.5067845912733 L 514.5 507.5067845912733 L 515.5 506.58873940857546 L 515.5 506.58873940857546 L 516.5 505.67302153605914 L 516.5 505.67302153605914 L 517.5 504.75953117422733 L 517.5 504.75953117422733 L 518.5 503.84817053075994 L 518.5 503.84817053075994 L 519.5 502.9388437087045 L 519.5 502.9388437087045 L 520.5 502.03145659968857 L 520.5 502.03145659968857 L 521.5 501.1259167817923 L 521.5 501.1259167817923 L 522.5 500.2221334217454 L 522.5 500.2221334217454 L 523.5 499.32001718113577 L 523.5 499.32001718113577 L 524.5 498.4194801263367 L 524.5 498.4194801263367 L 525.5 497.52043564188097 L 525.5 497.52043564188097 L 526.5 496.6227983470246 L 526.5 496.6227983470246 L 527.5 495.7264840152607 L 527.5 495.7264840152607 L 528.5 494.83140949655706 L 528.5 494.83140949655706 L 529.5 493.9374926421055 L 529.5 493.9374926421055 L 530.5 493.0446522313811 L 530.5 493.0446522313811 L 531.5 492.15280790132107 L 531.5 492.15280790132107 L 532.5 491.2618800774433 L 532.5 491.2618800774433 L 533.5 490.3717899067321 L 533.5 490.3717899067321 L 534.5 489.48245919212735 L 534.5 489.48245919212735 L 535.5 488.5938103284608 L 535.5 488.5938103284608 L 536.5 487.70576623968793 L 536.5 487.70576623968793 L 537.5 486.8182503172721 L 537.5 486.8182503172721 L 538.5 485.93118635957916 L 538.5 485.93118635957916 L 539.5 485.04449851214883 L 539.5 485.04449851214883 L 540.5 484.1581112087097 L 540.5 484.1581112087097 L 541.5 483.2719491128098 L 541.5 483.2719491128098 L 542.5 482.38593705993617 L 542.5 482.38593705993617 L 543.5 481.5 L 543.5 481.5 L 544.5 480.61406294006383 L 544.5 480.61406294006383 L 545.5 479.7280508871902 L 545.5 479.7280508871902 L 546.5 478.8418887912903 L 546.5 478.8418887912903 L 547.5 477.95550148785117 L 547.5 477.95550148785117 L 548.5 477.06881364042084 L 548.5 477.06881364042084 L 549.5 476.1817496827279 L 549.5 476.1817496827279 L 550.5 475.29423376031207 L 550.5 475.29423376031207 L 551.5 474.4061896715392 L 551.5 474.4061896715392 L 552.5 473.51754080787265 L 552.5 473.51754080787265 L 553.5 472.6282100932679 L 553.5 472.6282100932679 L 554.5 471.7381199225567 L 554.5 471.7381199225567 L 555.5 470.84719209867893 L 555.5 470.84719209867893 L 556.5 469.9553477686189 L 556.5 469.9553477686189 L 557.5 469.0625073578945 L 557.5 469.0625073578945 L 558.5 468.16859050344294 L 558.5 468.16859050344294 L 559.5 467.2735159847393 L 559.5 467.2735159847393 L 560.5 466.3772016529754 L 560.5 466.3772016529754 L 561.5 465.47956435811903 L 561.5 465.47956435811903 L 562.5 464.5805198736633 L 562.5 464.5805198736633 L 563.5 463.67998281886423 L 563.5 463.67998281886423 L 564.5 462.7778665782546 L 564.5 462.7778665782546 L 565.5 461.8740832182077 L 565.5 461.8740832182077 L 566.5 460.96854340031143 L 566.5 460.96854340031143 L 567.5 460.0611562912955 L 567.5 460.0611562912955 L 568.5 459.15182946924006 L 568.5 459.15182946924006 L 569.5 458.24046882577267 L 569.5 458.24046882577267 L 570.5 457.32697846394086 L 570.5 457.32697846394086 L 571.5 456.41126059142454 L 571.5 456.41126059142454 L 572.5 455.4932154087267 L 572.5 455.4932154087267 L 573.5 454.5727409919546 L 573.5 454.5727409919546 L 574.5 453.6497331697718 L 574.5 453.6497331697718 L 575.5 452.7240853940684 L 575.5 452.7240853940684 L 576.5 451.79568860386087 L 576.5 451.79568860386087 L 577.5 450.8644310818909 L 577.5 450.8644310818909 L 578.5 449.93019830334913 L 578.5 449.93019830334913 L 579.5 448.9928727760989 L 579.5 448.9928727760989 L 580.5 448.05233387172257 L 580.5 448.05233387172257 L 581.5 447.1084576466494 L 581.5 447.1084576466494 L 582.5 446.1611166525608 L 582.5 446.1611166525608 L 583.5 445.2101797351905 L 583.5 445.2101797351905 L 584.5 444.25551182055807 L 584.5 444.25551182055807 L 585.5 443.29697368758025 L 585.5 443.29697368758025 L 586.5 442.3344217259027 L 586.5 442.3344217259027 L 587.5 441.3677076776819 L 587.5 441.3677076776819 L 588.5 440.39667836191813 L 588.5 440.39667836191813 L 589.5 439.4211753797984 L 589.5 439.4211753797984 L 590.5 438.44103479934904 L 590.5 438.44103479934904 L 591.5 437.45608681751753 L 591.5 437.45608681751753 L 592.5 436.466155397602 L 592.5 436.466155397602 L 593.5 435.4710578797196 L 593.5 435.4710578797196 L 594.5 434.47060456174876 L 594.5 434.47060456174876 L 595.5 433.46459824788934 L 595.5 433.46459824788934 L 596.5 432.452833761658 L 596.5 432.452833761658 L 597.5 431.4350974197605 L 597.5 431.4350974197605 L 598.5 430.4111664628607 L 598.5 430.4111664628607 L 599.5 429.380808438779 L 599.5 429.380808438779 L 600.5 428.3437805331007 L 600.5 428.3437805331007 L 601.5 427.2998288415395 L 601.5 427.2998288415395 L 602.5 426.24868757767285 L 602.5 426.24868757767285 L 603.5 425.19007820882365 L 603.5 425.19007820882365 L 604.5 424.1237085118952 L 604.5 424.1237085118952 L 605.5 423.0492715398398 L 605.5 423.0492715398398 L 606.5 421.96644448813714 L 606.5 421.96644448813714 L 607.5 420.8748874491354 L 607.5 420.8748874491354 L 608.5 419.7742420403306 L 608.5 419.7742420403306 L 609.5 418.66412989057176 L 609.5 418.66412989057176 L 610.5 417.5441509657239 L 610.5 417.5441509657239 L 611.5 416.4138817124199 L 611.5 416.4138817124199 L 612.5 415.27287299509305 L 612.5 415.27287299509305 L 613.5 414.120647797386 L 613.5 414.120647797386 L 614.5 412.95669865413714 L 614.5 412.95669865413714 L 615.5 411.780484774269 L 615.5 411.780484774269 L 616.5 410.5914288078143 L 616.5 410.5914288078143 L 617.5 409.3889132017244 L 617.5 409.3889132017244 L 618.5 408.1722760786412 L 618.5 408.1722760786412 L 619.5 406.94080655999875 L 619.5 406.94080655999875 L 620.5 405.69373943903855 L 620.5 405.69373943903855 L 621.5 404.43024908977065 L 621.5 404.43024908977065 L 622.5 403.14944247353617 L 622.5 403.14944247353617 L 623.5 401.85035107422755 L 623.5 401.85035107422755 L 624.5 400.53192155454633 L 624.5 400.53192155454633 L 625.5 399.19300487640675 L 625.5 399.19300487640675 L 626.5 397.8323435653263 L 626.5 397.8323435653263 L 627.5 396.448556716689 L 627.5 396.448556716689 L 628.5 395.04012223461547 L 628.5 395.04012223461547 L 629.5 393.60535565267173 L 629.5 393.60535565267173 L 630.5 392.1423846967517 L 630.5 392.1423846967517 L 631.5 390.6491184953531 L 631.5 390.6491184953531 L 632.5 389.1232099935227 L 632.5 389.1232099935227 L 633.5 387.56200964284386 L 633.5 387.56200964284386 L 634.5 385.96250775859454 L 634.5 385.96250775859454 L 635.5 384.32126196013866 L 635.5 384.32126196013866 L 636.5 382.6343046892945 L 636.5 382.6343046892945 L 637.5 380.8970236872609 L 637.5 380.8970236872609 L 638.5 379.1040050941133 L 638.5 379.1040050941133 L 639.5 377.2488238153712 L 639.5 377.2488238153712 L 640.5 375.3237577390504 L 640.5 375.3237577390504 L 641.5 373.31938900972506 L 641.5 373.31938900972506 L 642.5 371.2240325132775 L 642.5 371.2240325132775 L 643.5 369.0228902073542 L 643.5 369.0228902073542 L 644.5 366.6967511497039 L 644.5 366.6967511497039 L 645.5 364.2198978807889 L 645.5 364.2198978807889 L 646.5 361.5565322257786 L 646.5 361.5565322257786 L 647.5 358.654196353316 L 647.5 358.654196353316 L 648.5 355.43036961815943 L 648.5 355.43036961815943 L 649.5 351.74088042702283 L 649.5 351.74088042702283 L 650.5 347.28601343550184 L 650.5 347.28601343550184 L 651.5 341.1670640407864 L 651.5 341.1670640407864 L 652.5 330.2323137296515" stroke-opacity="0.8" stroke-linecap="round" stroke-linejoin="round" stroke-miterlimit="10" stroke-width="5"/><g transform="scale(27,27)"><g transform="translate(18.703703703703702,21.048877185185187)"><path fill="rgb(46,125,50)" stroke="none" paint-order="stroke fill markers" d=" M 0.20800000000000002 -0.194 L 0.20800000000000002 -0.194 Q 0.122 -0.211 0.095 -0.227 Q 0.085 -0.232 0.076 -0.24 Q 0.033 -0.275 0.033 -0.325 Q 0.033 -0.395 0.095 -0.427 Q 0.134 -0.448 0.193 -0.448 Q 0.249 -0.448 0.28700000000000003 -0.42 Q 0.298 -0.429 0.304 -0.436 Q 0.317 -0.448 0.324 -0.448 Q 0.334 -0.439 0.335 -0.424 L 0.335 -0.323 Q 0.335 -0.302 0.329 -0.3 L 0.328 -0.3 L 0.327 -0.299 L 0.322 -0.299 Q 0.311 -0.299 0.31 -0.308 Q 0.303 -0.40900000000000003 0.227 -0.426 Q 0.211 -0.429 0.193 -0.429 Q 0.099 -0.429 0.083 -0.371 Q 0.081 -0.362 0.081 -0.353 Q 0.081 -0.302 0.158 -0.281 Q 0.17300000000000001 -0.277 0.20400000000000001 -0.271 Q 0.276 -0.257 0.307 -0.232 Q 0.313 -0.228 0.318 -0.223 Q 0.36 -0.181 0.36 -0.128 Q 0.36 -0.043000000000000003 0.29 -0.008 Q 0.252 0.011 0.199 0.011 Q 0.134 0.011 0.089 -0.032 L 0.069 -0.009000000000000001 Q 0.049 0.011 0.044 0.011 Q 0.034 0.002 0.033 -0.013000000000000001 L 0.033 -0.145 Q 0.033 -0.167 0.04 -0.169 L 0.04 -0.169 L 0.041 -0.17 L 0.046 -0.17 Q 0.056 -0.17 0.059000000000000004 -0.159 Q 0.059000000000000004 -0.157 0.06 -0.153 Q 0.08600000000000001 -0.037 0.159 -0.016 Q 0.177 -0.011 0.199 -0.011 Q 0.289 -0.011 0.308 -0.074 Q 0.312 -0.08700000000000001 0.312 -0.10200000000000001 Q 0.312 -0.17500000000000002 0.20800000000000002 -0.194 Z"/></g><g transform="translate(19.0977037037037,21.048877185185187)"><path fill="rgb(46,125,50)" stroke="none" paint-order="stroke fill markers" d=" M 0.177 -0.442 L 0.177 -0.442 L 0.177 -0.075 Q 0.177 -0.044 0.189 -0.037 L 0.189 -0.037 Q 0.201 -0.031 0.247 -0.031 L 0.247 0 Q 0.145 -0.003 0.14300000000000002 -0.003 Q 0.129 -0.003 0.033 0 L 0.033 -0.031 Q 0.092 -0.031 0.10200000000000001 -0.04 L 0.10400000000000001 -0.042 Q 0.111 -0.05 0.111 -0.076 L 0.111 -0.34500000000000003 Q 0.111 -0.385 0.095 -0.393 L 0.094 -0.393 L 0.094 -0.393 L 0.093 -0.394 L 0.093 -0.394 Q 0.08 -0.4 0.037 -0.4 L 0.037 -0.431 L 0.177 -0.442 M 0.181 -0.616 Q 0.181 -0.579 0.148 -0.5670000000000001 Q 0.138 -0.5630000000000001 0.128 -0.5630000000000001 Q 0.093 -0.5630000000000001 0.079 -0.595 L 0.079 -0.596 Q 0.075 -0.606 0.075 -0.616 Q 0.075 -0.647 0.10300000000000001 -0.662 Q 0.114 -0.669 0.128 -0.669 Q 0.162 -0.669 0.176 -0.639 Q 0.181 -0.628 0.181 -0.616 Z"/></g><g transform="translate(19.3757037037037,21.048877185185187)"><path fill="rgb(46,125,50)" stroke="none" paint-order="stroke fill markers" d=" M 0.11 -0.34400000000000003 Q 0.11 -0.383 0.095 -0.392 Q 0.083 -0.399 0.052000000000000005 -0.4 L 0.032 -0.4 L 0.032 -0.431 L 0.17300000000000001 -0.442 L 0.17300000000000001 -0.337 Q 0.22 -0.442 0.321 -0.442 Q 0.396 -0.442 0.426 -0.405 Q 0.453 -0.374 0.456 -0.32 Q 0.457 -0.301 0.457 -0.252 L 0.457 -0.061 Q 0.458 -0.037 0.486 -0.033 Q 0.498 -0.031 0.535 -0.031 L 0.535 0 Q 0.433 -0.003 0.423 -0.003 Q 0.41500000000000004 -0.003 0.31 0 L 0.31 -0.031 Q 0.369 -0.031 0.379 -0.04 L 0.381 -0.042 Q 0.388 -0.05 0.388 -0.076 L 0.388 -0.309 Q 0.388 -0.40800000000000003 0.331 -0.418 Q 0.323 -0.42 0.314 -0.42 Q 0.253 -0.42 0.212 -0.367 Q 0.179 -0.324 0.179 -0.26 L 0.179 -0.076 Q 0.179 -0.042 0.195 -0.036000000000000004 Q 0.20600000000000002 -0.031 0.257 -0.031 L 0.257 0 Q 0.155 -0.003 0.145 -0.003 Q 0.137 -0.003 0.032 0 L 0.032 -0.031 Q 0.091 -0.031 0.101 -0.04 L 0.10300000000000001 -0.042 Q 0.11 -0.05 0.11 -0.076 L 0.11 -0.34400000000000003 Z"/></g><g transform="translate(19.9317037037037,20.635985185185188) scale(0.7,0.7)"><path fill="rgb(46,125,50)" stroke="none" paint-order="stroke fill markers" d=" M 0.661 -0.23 L 0.116 -0.23 Q 0.084 -0.23 0.083 -0.25 Q 0.083 -0.27 0.116 -0.27 L 0.661 -0.27 Q 0.6930000000000001 -0.27 0.6940000000000001 -0.25 Q 0.6940000000000001 -0.23 0.661 -0.23 Z"/></g><g transform="translate(20.4763037037037,20.635985185185188) scale(0.7,0.7)"><path fill="rgb(46,125,50)" stroke="none" paint-order="stroke fill markers" d=" M 0.294 -0.64 L 0.294 -0.079 Q 0.294 -0.049 0.306 -0.041 Q 0.323 -0.031 0.387 -0.031 L 0.419 -0.031 L 0.419 0 Q 0.384 -0.003 0.257 -0.003 Q 0.13 -0.003 0.095 0 L 0.095 -0.031 L 0.127 -0.031 Q 0.20400000000000001 -0.031 0.215 -0.049 L 0.216 -0.05 Q 0.22 -0.058 0.22 -0.079 L 0.22 -0.597 Q 0.168 -0.5710000000000001 0.089 -0.5710000000000001 L 0.089 -0.602 Q 0.209 -0.602 0.271 -0.666 Q 0.29 -0.666 0.293 -0.659 L 0.293 -0.659 L 0.293 -0.658 Q 0.294 -0.655 0.294 -0.64 Z"/></g><g transform="translate(20.844753037220368,21.048877185185187)"><path fill="rgb(46,125,50)" stroke="none" paint-order="stroke fill markers" d=" M 0.331 0.24 L 0.331 0.24 Q 0.331 0.25 0.321 0.25 Q 0.309 0.25 0.268 0.209 Q 0.20600000000000002 0.147 0.165 0.062 Q 0.099 -0.074 0.099 -0.25 Q 0.099 -0.419 0.162 -0.555 Q 0.214 -0.666 0.294 -0.733 Q 0.315 -0.75 0.321 -0.75 Q 0.331 -0.75 0.331 -0.74 Q 0.331 -0.735 0.318 -0.723 Q 0.157 -0.559 0.157 -0.25 Q 0.157 0.058 0.314 0.218 Q 0.331 0.23500000000000001 0.331 0.24 Z"/></g><g transform="translate(21.233753037220367,21.048877185185187)"><path fill="rgb(46,125,50)" stroke="none" paint-order="stroke fill markers" d=" M 0.334 -0.302 L 0.3 -0.165 Q 0.28300000000000003 -0.097 0.28300000000000003 -0.077 Q 0.28300000000000003 -0.025 0.32 -0.014 Q 0.328 -0.011 0.338 -0.011 Q 0.388 -0.011 0.429 -0.061 Q 0.456 -0.093 0.47100000000000003 -0.14200000000000002 Q 0.47400000000000003 -0.153 0.484 -0.153 Q 0.496 -0.153 0.496 -0.14300000000000002 Q 0.496 -0.11800000000000001 0.465 -0.07100000000000001 Q 0.41100000000000003 0.011 0.336 0.011 Q 0.268 0.011 0.23700000000000002 -0.046 Q 0.231 -0.055 0.228 -0.065 Q 0.20400000000000001 -0.017 0.162 0.002 Q 0.14300000000000002 0.011 0.123 0.011 Q 0.063 0.011 0.039 -0.024 Q 0.029 -0.037 0.029 -0.055 Q 0.029 -0.092 0.061 -0.107 Q 0.07200000000000001 -0.113 0.084 -0.113 Q 0.114 -0.113 0.12 -0.088 Q 0.121 -0.083 0.121 -0.078 Q 0.121 -0.044 0.08700000000000001 -0.028 Q 0.081 -0.025 0.074 -0.024 Q 0.095 -0.011 0.124 -0.011 Q 0.177 -0.011 0.20800000000000002 -0.082 Q 0.214 -0.097 0.219 -0.115 Q 0.273 -0.319 0.273 -0.353 Q 0.267 -0.41500000000000004 0.219 -0.42 Q 0.167 -0.42 0.124 -0.367 L 0.124 -0.366 Q 0.124 -0.365 0.123 -0.365 Q 0.108 -0.34500000000000003 0.096 -0.319 Q 0.091 -0.307 0.08700000000000001 -0.295 L 0.085 -0.289 Q 0.083 -0.278 0.07200000000000001 -0.278 Q 0.06 -0.278 0.06 -0.28800000000000003 Q 0.06 -0.313 0.092 -0.36 Q 0.146 -0.442 0.221 -0.442 Q 0.298 -0.442 0.329 -0.366 Q 0.361 -0.428 0.41400000000000003 -0.44 Q 0.424 -0.442 0.434 -0.442 Q 0.493 -0.442 0.517 -0.40900000000000003 Q 0.527 -0.395 0.527 -0.376 Q 0.527 -0.335 0.49 -0.321 Q 0.481 -0.318 0.47300000000000003 -0.318 Q 0.442 -0.318 0.436 -0.34500000000000003 Q 0.435 -0.34900000000000003 0.435 -0.353 Q 0.435 -0.383 0.464 -0.4 Q 0.47300000000000003 -0.405 0.483 -0.40700000000000003 Q 0.462 -0.42 0.433 -0.42 Q 0.365 -0.42 0.337 -0.314 Q 0.335 -0.308 0.334 -0.302 Z"/></g><g transform="translate(21.805753037220367,21.048877185185187)"><path fill="rgb(46,125,50)" stroke="none" paint-order="stroke fill markers" d=" M 0.289 -0.25 L 0.289 -0.25 Q 0.289 -0.081 0.226 0.055 Q 0.17400000000000002 0.166 0.094 0.233 Q 0.073 0.25 0.067 0.25 Q 0.057 0.25 0.057 0.24 Q 0.057 0.23500000000000001 0.07 0.223 Q 0.231 0.059000000000000004 0.231 -0.25 Q 0.231 -0.555 0.081 -0.712 L 0.076 -0.717 Q 0.057 -0.735 0.057 -0.74 Q 0.057 -0.75 0.067 -0.75 Q 0.079 -0.75 0.12 -0.709 Q 0.182 -0.647 0.223 -0.562 Q 0.289 -0.426 0.289 -0.25 Z"/></g></g></g></g></svg>