<svg version="1.1" xmlns="http://www.w3.org/2000/svg" xmlns:xlink="http://www.w3.org/1999/xlink" width="1026" height="826"><defs><clipPath id="gWbBwpdvlPwW"><path fill="none" stroke="none" d=" M 0 0 L 1026 0 L 1026 826 L 0 826 L 0 0 Z"/></clipPath></defs><g transform="scale(1,1)" clip-path="url(#gWbBwpdvlPwW)"><g><rect fill="rgb(255,255,255)" stroke="none" x="0" y="0" width="1026" height="826" fill-opacity="1"/><path fill="none" stroke="rgb(192,192,192)" paint-order="fill stroke markers" d=" M 13.5 0.5 L 13.5 826.5 M 13.5 0.5 L 13.5 826.5 M 63.5 0.5 L 63.5 826.5 M 113.5 0.5 L 113.5 826.5 M 163.5 0.5 L 163.5 826.5 M 213.5 0.5 L 213.5 826.5 M 263.5 0.5 L 263.5 826.5 M 313.5 0.5 L 313.5 826.5 M 363.5 0.5 L 363.5 826.5 M 413.5 0.5 L 413.5 826.5 M 463.5 0.5 L 463.5 826.5 M 563.5 0.5 L 563.5 826.5 M 613.5 0.5 L 613.5 826.5 M 663.5 0.5 L 663.5 826.5 M 713.5 0.5 L 713.5 826.5 M 763.5 0.5 L 763.5 826.5 M 813.5 0.5 L 813.5 826.5 M 863.5 0.5 L 863.5 826.5 M 913.5 0.5 L 913.5 826.5 M 963.5 0.5 L 963.5 826.5 M 1013.5 0.5 L 1013.5 826.5" stroke-opacity="1" stroke-linecap="round" stroke-linejoin="round" stroke-miterlimit="10"/><path fill="none" stroke="rgb(192,192,192)" paint-order="fill stroke markers" d=" M 3.5 0.5 L 3.5 826.5 M 23.5 0.5 L 23.5 826.5 M 33.5 0.5 L 33.5 826.5 M 43.5 0.5 L 43.5 826.5 M 53.5 0.5 L 53.5 826.5 M 73.5 0.5 L 73.5 826.5 M 83.5 0.5 L 83.5 826.5 M 93.5 0.5 L 93.5 826.5 M 103.5 0.5 L 103.5 826.5 M 123.5 0.5 L 123.5 826.5 M 133.5 0.5 L 133.5 826.5 M 143.5 0.5 L 143.5 826.5 M 153.5 0.5 L 153.5 826.5 M 173.5 0.5 L 173.5 826.5 M 183.5 0.5 L 183.5 826.5 M 193.5 0.5 L 193.5 826.5 M 203.5 0.5 L 203.5 826.5 M 223.5 0.5 L 223.5 826.5 M 233.5 0.5 L 233.5 826.5 M 243.5 0.5 L 243.5 826.5 M 253.5 0.5 L 253.5 826.5 M 273.5 0.5 L 273.5 826.5 M 283.5 0.5 L 283.5 826.5 M 293.5 0.5 L 293.5 826.5 M 303.5 0.5 L 303.5 826.5 M 323.5 0.5 L 323.5 826.5 M 333.5 0.5 L 333.5 826.5 M 343.5 0.5 L 343.5 826.5 M 353.5 0.5 L 353.5 826.5 M 373.5 0.5 L 373.5 826.5 M 383.5 0.5 L 383.5 826.5 M 393.5 0.5 L 393.5 826.5 M 403.5 0.5 L 403.5 826.5 M 423.5 0.5 L 423.5 826.5 M 433.5 0.5 L 433.5 826.5 M 443.5 0.5 L 443.5 826.5 M 453.5 0.5 L 453.5 826.5 M 473.5 0.5 L 473.5 826.5 M 483.5 0.5 L 483.5 826.5 M 493.5 0.5 L 493.5 826.5 M 503.5 0.5 L 503.5 826.5 M 523.5 0.5 L 523.5 826.5 M 533.5 0.5 L 533.5 826.5 M 543.5 0.5 L 543.5 826.5 M 553.5 0.5 L 553.5 826.5 M 573.5 0.5 L 573.5 826.5 M 583.5 0.5 L 583.5 826.5 M 593.5 0.5 L 593.5 826.5 M 603.5 0.5 L 603.5 826.5 M 623.5 0.5 L 623.5 826.5 M 633.5 0.5 L 633.5 826.5 M 643.5 0.5 L 643.5 826.5 M 653.5 0.5 L 653.5 826.5 M 673.5 0.5 L 673.5 826.5 M 683.5 0.5 L 683.5 826.5 M 693.5 0.5 L 693.5 826.5 M 703.5 0.5 L 703.5 826.5 M 723.5 0.5 L 723.5 826.5 M 733.5 0.5 L 733.5 826.5 M 743.5 0.5 L 743.5 826.5 M 753.5 0.5 L 753.5 826.5 M 773.5 0.5 L 773.5 826.5 M 783.5 0.5 L 783.5 826.5 M 793.5 0.5 L 793.5 826.5 M 803.5 0.5 L 803.5 826.5 M 822.5 0.5 L 822.5 826.5 M 832.5 0.5 L 832.5 826.5 M 842.5 0.5 L 842.5 826.5 M 852.5 0.5 L 852.5 826.5 M 872.5 0.5 L 872.5 826.5 M 882.5 0.5 L 882.5 826.5 M 892.5 0.5 L 892.5 826.5 M 902.5 0.5 L 902.5 826.5 M 922.5 0.5 L 922.5 826.5 M 932.5 0.5 L 932.5 826.5 M 942.5 0.5 L 942.5 826.5 M 952.5 0.5 L 952.5 826.5 M 972.5 0.5 L 972.5 826.5 M 982.5 0.5 L 982.5 826.5 M 992.5 0.5 L 992.5 826.5 M 1002.5 0.5 L 1002.5 826.5 M 1022.5 0.5 L 1022.5 826.5" stroke-opacity="0.23529411764705882" stroke-linecap="round" stroke-linejoin="round" stroke-miterlimit="10"/><path fill="none" stroke="rgb(192,192,192)" paint-order="fill stroke markers" d=" M 0.5 41.5 L 1026.5 41.5 M 0.5 41.5 L 1026.5 41.5 M 0.5 91.5 L 1026.5 91.5 M 0.5 141.5 L 1026.5 141.5 M 0.5 191.5 L 1026.5 191.5 M 0.5 241.5 L 1026.5 241.5 M 0.5 291.5 L 1026.5 291.5 M 0.5 341.5 L 1026.5 341.5 M 0.5 391.5 L 1026.5 391.5 M 0.5 491.5 L 1026.5 491.5 M 0.5 541.5 L 1026.5 541.5 M 0.5 591.5 L 1026.5 591.5 M 0.5 641.5 L 1026.5 641.5 M 0.5 691.5 L 1026.5 691.5 M 0.5 741.5 L 1026.5 741.5 M 0.5 791.5 L 1026.5 791.5" stroke-opacity="1" stroke-linecap="round" stroke-linejoin="round" stroke-miterlimit="10"/><path fill="none" stroke="rgb(192,192,192)" paint-order="fill stroke markers" d=" M 0.5 1.5 L 1026.5 1.5 M 0.5 11.5 L 1026.5 11.5 M 0.5 21.5 L 1026.5 21.5 M 0.5 31.5 L 1026.5 31.5 M 0.5 51.5 L 1026.5 51.5 M 0.5 61.5 L 1026.5 61.5 M 0.5 71.5 L 1026.5 71.5 M 0.5 81.5 L 1026.5 81.5 M 0.5 101.5 L 1026.5 101.5 M 0.5 111.5 L 1026.5 111.5 M 0.5 121.5 L 1026.5 121.5 M 0.5 131.5 L 1026.5 131.5 M 0.5 151.5 L 1026.5 151.5 M 0.5 161.5 L 1026.5 161.5 M 0.5 171.5 L 1026.5 171.5 M 0.5 181.5 L 1026.5 181.5 M 0.5 201.5 L 1026.5 201.5 M 0.5 211.5 L 1026.5 211.5 M 0.5 221.5 L 1026.5 221.5 M 0.5 231.5 L 1026.5 231.5 M 0.5 251.5 L 1026.5 251.5 M 0.5 261.5 L 1026.5 261.5 M 0.5 271.5 L 1026.5 271.5 M 0.5 281.5 L 1026.5 281.5 M 0.5 301.5 L 1026.5 301.5 M 0.5 311.5 L 1026.5 311.5 M 0.5 321.5 L 1026.5 321.5 M 0.5 331.5 L 1026.5 331.5 M 0.5 351.5 L 1026.5 351.5 M 0.5 361.5 L 1026.5 361.5 M 0.5 371.5 L 1026.5 371.5 M 0.5 381.5 L 1026.5 381.5 M 0.5 401.5 L 1026.5 401.5 M 0.5 411.5 L 1026.5 411.5 M 0.5 421.5 L 1026.5 421.5 M 0.5 431.5 L 1026.5 431.5 M 0.5 451.5 L 1026.5 451.5 M 0.5 461.5 L 1026.5 461.5 M 0.5 471.5 L 1026.5 471.5 M 0.5 481.5 L 1026.5 481.5 M 0.5 501.5 L 1026.5 501.5 M 0.5 511.5 L 1026.5 511.5 M 0.5 521.5 L 1026.5 521.5 M 0.5 531.5 L 1026.5 531.5 M 0.5 551.5 L 1026.5 551.5 M 0.5 561.5 L 1026.5 561.5 M 0.5 571.5 L 1026.5 571.5 M 0.5 581.5 L 1026.5 581.5 M 0.5 601.5 L 1026.5 601.5 M 0.5 611.5 L 1026.5 611.5 M 0.5 621.5 L 1026.5 621.5 M 0.5 631.5 L 1026.5 631.5 M 0.5 651.5 L 1026.5 651.5 M 0.5 661.5 L 1026.5 661.5 M 0.5 671.5 L 1026.5 671.5 M 0.5 681.5 L 1026.5 681.5 M 0.5 701.5 L 1026.5 701.5 M 0.5 711.5 L 1026.5 711.5 M 0.5 721.5 L 1026.5 721.5 M 0.5 731.5 L 1026.5 731.5 M 0.5 751.5 L 1026.5 751.5 M 0.5 761.5 L 1026.5 761.5 M 0.5 771.5 L 1026.5 771.5 M 0.5 781.5 L 1026.5 781.5 M 0.5 801.5 L 1026.5 801.5 M 0.5 811.5 L 1026.5 811.5 M 0.5 821.5 L 1026.5 821.5" stroke-opacity="0.23529411764705882" stroke-linecap="round" stroke-linejoin="round" stroke-miterlimit="10"/><path fill="none" stroke="rgb(37,37,37)" paint-order="fill stroke markers" d=" M 513.5 2.5 L 513.5 826.5" stroke-opacity="1" stroke-miterlimit="10"/><path fill="none" stroke="rgb(37,37,37)" paint-order="fill stroke markers" d=" M 513.5 1.5 L 506.5 8.5" stroke-opacity="1" stroke-miterlimit="10"/><path fill="none" stroke="rgb(37,37,37)" paint-order="fill stroke markers" d=" M 513.5 1.5 L 520.5 8.5" stroke-opacity="1" stroke-miterlimit="10"/><path fill="none" stroke="rgb(37,37,37)" paint-order="fill stroke markers" d=" M 0.5 441.5 L 1024.5 441.5" stroke-opacity="1" stroke-miterlimit="10"/><path fill="none" stroke="rgb(37,37,37)" paint-order="fill stroke markers" d=" M 1025.5 441.5 L 1018.5 434.5" stroke-opacity="1" stroke-miterlimit="10"/><path fill="none" stroke="rgb(37,37,37)" paint-order="fill stroke markers" d=" M 1025.5 441.5 L 1018.5 448.5" stroke-opacity="1" stroke-miterlimit="10"/><text fill="rgb(37,37,37)" stroke="none" font-family="geogebra-sans-serif, sans-serif" font-size="21px" font-style="normal" font-weight="normal" text-decoration="normal" x="-1" y="466" text-anchor="start" dominant-baseline="alphabetic" fill-opacity="1">–10</text><text fill="none" stroke="rgb(255,255,255)" font-family="geogebra-sans-serif, sans-serif" font-size="21px" font-style="normal" font-weight="normal" text-decoration="normal" x="-1" y="466" text-anchor="start" dominant-baseline="alphabetic" stroke-opacity="1" stroke-linejoin="bevel" stroke-miterlimit="10" stroke-width="3">–10</text><text fill="rgb(37,37,37)" stroke="none" font-family="geogebra-sans-serif, sans-serif" font-size="21px" font-style="normal" font-weight="normal" text-decoration="normal" x="-1" y="466" text-anchor="start" dominant-baseline="alphabetic" fill-opacity="1">–10</text><text fill="rgb(37,37,37)" stroke="none" font-family="geogebra-sans-serif, sans-serif" font-size="21px" font-style="normal" font-weight="normal" text-decoration="normal" x="53" y="466" text-anchor="start" dominant-baseline="alphabetic" fill-opacity="1">–9</text><text fill="none" stroke="rgb(255,255,255)" font-family="geogebra-sans-serif, sans-serif" font-size="21px" font-style="normal" font-weight="normal" text-decoration="normal" x="53" y="466" text-anchor="start" dominant-baseline="alphabetic" stroke-opacity="1" stroke-linejoin="bevel" stroke-miterlimit="10" stroke-width="3">–9</text><text fill="rgb(37,37,37)" stroke="none" font-family="geogebra-sans-serif, sans-serif" font-size="21px" font-style="normal" font-weight="normal" text-decoration="normal" x="53" y="466" text-anchor="start" dominant-baseline="alphabetic" fill-opacity="1">–9</text><text fill="rgb(37,37,37)" stroke="none" font-family="geogebra-sans-serif, sans-serif" font-size="21px" font-style="normal" font-weight="normal" text-decoration="normal" x="103" y="466" text-anchor="start" dominant-baseline="alphabetic" fill-opacity="1">–8</text><text fill="none" stroke="rgb(255,255,255)" font-family="geogebra-sans-serif, sans-serif" font-size="21px" font-style="normal" font-weight="normal" text-decoration="normal" x="103" y="466" text-anchor="start" dominant-baseline="alphabetic" stroke-opacity="1" stroke-linejoin="bevel" stroke-miterlimit="10" stroke-width="3">–8</text><text fill="rgb(37,37,37)" stroke="none" font-family="geogebra-sans-serif, sans-serif" font-size="21px" font-style="normal" font-weight="normal" text-decoration="normal" x="103" y="466" text-anchor="start" dominant-baseline="alphabetic" fill-opacity="1">–8</text><text fill="rgb(37,37,37)" stroke="none" font-family="geogebra-sans-serif, sans-serif" font-size="21px" font-style="normal" font-weight="normal" text-decoration="normal" x="153" y="466" text-anchor="start" dominant-baseline="alphabetic" fill-opacity="1">–7</text><text fill="none" stroke="rgb(255,255,255)" font-family="geogebra-sans-serif, sans-serif" font-size="21px" font-style="normal" font-weight="normal" text-decoration="normal" x="153" y="466" text-anchor="start" dominant-baseline="alphabetic" stroke-opacity="1" stroke-linejoin="bevel" stroke-miterlimit="10" stroke-width="3">–7</text><text fill="rgb(37,37,37)" stroke="none" font-family="geogebra-sans-serif, sans-serif" font-size="21px" font-style="normal" font-weight="normal" text-decoration="normal" x="153" y="466" text-anchor="start" dominant-baseline="alphabetic" fill-opacity="1">–7</text><text fill="rgb(37,37,37)" stroke="none" font-family="geogebra-sans-serif, sans-serif" font-size="21px" font-style="normal" font-weight="normal" text-decoration="normal" x="203" y="466" text-anchor="start" dominant-baseline="alphabetic" fill-opacity="1">–6</text><text fill="none" stroke="rgb(255,255,255)" font-family="geogebra-sans-serif, sans-serif" font-size="21px" font-style="normal" font-weight="normal" text-decoration="normal" x="203" y="466" text-anchor="start" dominant-baseline="alphabetic" stroke-opacity="1" stroke-linejoin="bevel" stroke-miterlimit="10" stroke-width="3">–6</text><text fill="rgb(37,37,37)" stroke="none" font-family="geogebra-sans-serif, sans-serif" font-size="21px" font-style="normal" font-weight="normal" text-decoration="normal" x="203" y="466" text-anchor="start" dominant-baseline="alphabetic" fill-opacity="1">–6</text><text fill="rgb(37,37,37)" stroke="none" font-family="geogebra-sans-serif, sans-serif" font-size="21px" font-style="normal" font-weight="normal" text-decoration="normal" x="253" y="466" text-anchor="start" dominant-baseline="alphabetic" fill-opacity="1">–5</text><text fill="none" stroke="rgb(255,255,255)" font-family="geogebra-sans-serif, sans-serif" font-size="21px" font-style="normal" font-weight="normal" text-decoration="normal" x="253" y="466" text-anchor="start" dominant-baseline="alphabetic" stroke-opacity="1" stroke-linejoin="bevel" stroke-miterlimit="10" stroke-width="3">–5</text><text fill="rgb(37,37,37)" stroke="none" font-family="geogebra-sans-serif, sans-serif" font-size="21px" font-style="normal" font-weight="normal" text-decoration="normal" x="253" y="466" text-anchor="start" dominant-baseline="alphabetic" fill-opacity="1">–5</text><text fill="rgb(37,37,37)" stroke="none" font-family="geogebra-sans-serif, sans-serif" font-size="21px" font-style="normal" font-weight="normal" text-decoration="normal" x="303" y="466" text-anchor="start" dominant-baseline="alphabetic" fill-opacity="1">–4</text><text fill="none" stroke="rgb(255,255,255)" font-family="geogebra-sans-serif, sans-serif" font-size="21px" font-style="normal" font-weight="normal" text-decoration="normal" x="303" y="466" text-anchor="start" dominant-baseline="alphabetic" stroke-opacity="1" stroke-linejoin="bevel" stroke-miterlimit="10" stroke-width="3">–4</text><text fill="rgb(37,37,37)" stroke="none" font-family="geogebra-sans-serif, sans-serif" font-size="21px" font-style="normal" font-weight="normal" text-decoration="normal" x="303" y="466" text-anchor="start" dominant-baseline="alphabetic" fill-opacity="1">–4</text><text fill="rgb(37,37,37)" stroke="none" font-family="geogebra-sans-serif, sans-serif" font-size="21px" font-style="normal" font-weight="normal" text-decoration="normal" x="353" y="466" text-anchor="start" dominant-baseline="alphabetic" fill-opacity="1">–3</text><text fill="none" stroke="rgb(255,255,255)" font-family="geogebra-sans-serif, sans-serif" font-size="21px" font-style="normal" font-weight="normal" text-decoration="normal" x="353" y="466" text-anchor="start" dominant-baseline="alphabetic" stroke-opacity="1" stroke-linejoin="bevel" stroke-miterlimit="10" stroke-width="3">–3</text><text fill="rgb(37,37,37)" stroke="none" font-family="geogebra-sans-serif, sans-serif" font-size="21px" font-style="normal" font-weight="normal" text-decoration="normal" x="353" y="466" text-anchor="start" dominant-baseline="alphabetic" fill-opacity="1">–3</text><text fill="rgb(37,37,37)" stroke="none" font-family="geogebra-sans-serif, sans-serif" font-size="21px" font-style="normal" font-weight="normal" text-decoration="normal" x="403" y="466" text-anchor="start" dominant-baseline="alphabetic" fill-opacity="1">–2</text><text fill="none" stroke="rgb(255,255,255)" font-family="geogebra-sans-serif, sans-serif" font-size="21px" font-style="normal" font-weight="normal" text-decoration="normal" x="403" y="466" text-anchor="start" dominant-baseline="alphabetic" stroke-opacity="1" stroke-linejoin="bevel" stroke-miterlimit="10" stroke-width="3">–2</text><text fill="rgb(37,37,37)" stroke="none" font-family="geogebra-sans-serif, sans-serif" font-size="21px" font-style="normal" font-weight="normal" text-decoration="normal" x="403" y="466" text-anchor="start" dominant-baseline="alphabetic" fill-opacity="1">–2</text><text fill="rgb(37,37,37)" stroke="none" font-family="geogebra-sans-serif, sans-serif" font-size="21px" font-style="normal" font-weight="normal" text-decoration="normal" x="453" y="466" text-anchor="start" dominant-baseline="alphabetic" fill-opacity="1">–1</text><text fill="none" stroke="rgb(255,255,255)" font-family="geogebra-sans-serif, sans-serif" font-size="21px" font-style="normal" font-weight="normal" text-decoration="normal" x="453" y="466" text-anchor="start" dominant-baseline="alphabetic" stroke-opacity="1" stroke-linejoin="bevel" stroke-miterlimit="10" stroke-width="3">–1</text><text fill="rgb(37,37,37)" stroke="none" font-family="geogebra-sans-serif, sans-serif" font-size="21px" font-style="normal" font-weight="normal" text-decoration="normal" x="453" y="466" text-anchor="start" dominant-baseline="alphabetic" fill-opacity="1">–1</text><text fill="rgb(37,37,37)" stroke="none" font-family="geogebra-sans-serif, sans-serif" font-size="21px" font-style="normal" font-weight="normal" text-decoration="normal" x="558" y="466" text-anchor="start" dominant-baseline="alphabetic" fill-opacity="1">1</text><text fill="none" stroke="rgb(255,255,255)" font-family="geogebra-sans-serif, sans-serif" font-size="21px" font-style="normal" font-weight="normal" text-decoration="normal" x="558" y="466" text-anchor="start" dominant-baseline="alphabetic" stroke-opacity="1" stroke-linejoin="bevel" stroke-miterlimit="10" stroke-width="3">1</text><text fill="rgb(37,37,37)" stroke="none" font-family="geogebra-sans-serif, sans-serif" font-size="21px" font-style="normal" font-weight="normal" text-decoration="normal" x="558" y="466" text-anchor="start" dominant-baseline="alphabetic" fill-opacity="1">1</text><text fill="rgb(37,37,37)" stroke="none" font-family="geogebra-sans-serif, sans-serif" font-size="21px" font-style="normal" font-weight="normal" text-decoration="normal" x="608" y="466" text-anchor="start" dominant-baseline="alphabetic" fill-opacity="1">2</text><text fill="none" stroke="rgb(255,255,255)" font-family="geogebra-sans-serif, sans-serif" font-size="21px" font-style="normal" font-weight="normal" text-decoration="normal" x="608" y="466" text-anchor="start" dominant-baseline="alphabetic" stroke-opacity="1" stroke-linejoin="bevel" stroke-miterlimit="10" stroke-width="3">2</text><text fill="rgb(37,37,37)" stroke="none" font-family="geogebra-sans-serif, sans-serif" font-size="21px" font-style="normal" font-weight="normal" text-decoration="normal" x="608" y="466" text-anchor="start" dominant-baseline="alphabetic" fill-opacity="1">2</text><text fill="rgb(37,37,37)" stroke="none" font-family="geogebra-sans-serif, sans-serif" font-size="21px" font-style="normal" font-weight="normal" text-decoration="normal" x="658" y="466" text-anchor="start" dominant-baseline="alphabetic" fill-opacity="1">3</text><text fill="none" stroke="rgb(255,255,255)" font-family="geogebra-sans-serif, sans-serif" font-size="21px" font-style="normal" font-weight="normal" text-decoration="normal" x="658" y="466" text-anchor="start" dominant-baseline="alphabetic" stroke-opacity="1" stroke-linejoin="bevel" stroke-miterlimit="10" stroke-width="3">3</text><text fill="rgb(37,37,37)" stroke="none" font-family="geogebra-sans-serif, sans-serif" font-size="21px" font-style="normal" font-weight="normal" text-decoration="normal" x="658" y="466" text-anchor="start" dominant-baseline="alphabetic" fill-opacity="1">3</text><text fill="rgb(37,37,37)" stroke="none" font-family="geogebra-sans-serif, sans-serif" font-size="21px" font-style="normal" font-weight="normal" text-decoration="normal" x="708" y="466" text-anchor="start" dominant-baseline="alphabetic" fill-opacity="1">4</text><text fill="none" stroke="rgb(255,255,255)" font-family="geogebra-sans-serif, sans-serif" font-size="21px" font-style="normal" font-weight="normal" text-decoration="normal" x="708" y="466" text-anchor="start" dominant-baseline="alphabetic" stroke-opacity="1" stroke-linejoin="bevel" stroke-miterlimit="10" stroke-width="3">4</text><text fill="rgb(37,37,37)" stroke="none" font-family="geogebra-sans-serif, sans-serif" font-size="21px" font-style="normal" font-weight="normal" text-decoration="normal" x="708" y="466" text-anchor="start" dominant-baseline="alphabetic" fill-opacity="1">4</text><text fill="rgb(37,37,37)" stroke="none" font-family="geogebra-sans-serif, sans-serif" font-size="21px" font-style="normal" font-weight="normal" text-decoration="normal" x="758" y="466" text-anchor="start" dominant-baseline="alphabetic" fill-opacity="1">5</text><text fill="none" stroke="rgb(255,255,255)" font-family="geogebra-sans-serif, sans-serif" font-size="21px" font-style="normal" font-weight="normal" text-decoration="normal" x="758" y="466" text-anchor="start" dominant-baseline="alphabetic" stroke-opacity="1" stroke-linejoin="bevel" stroke-miterlimit="10" stroke-width="3">5</text><text fill="rgb(37,37,37)" stroke="none" font-family="geogebra-sans-serif, sans-serif" font-size="21px" font-style="normal" font-weight="normal" text-decoration="normal" x="758" y="466" text-anchor="start" dominant-baseline="alphabetic" fill-opacity="1">5</text><text fill="rgb(37,37,37)" stroke="none" font-family="geogebra-sans-serif, sans-serif" font-size="21px" font-style="normal" font-weight="normal" text-decoration="normal" x="808" y="466" text-anchor="start" dominant-baseline="alphabetic" fill-opacity="1">6</text><text fill="none" stroke="rgb(255,255,255)" font-family="geogebra-sans-serif, sans-serif" font-size="21px" font-style="normal" font-weight="normal" text-decoration="normal" x="808" y="466" text-anchor="start" dominant-baseline="alphabetic" stroke-opacity="1" stroke-linejoin="bevel" stroke-miterlimit="10" stroke-width="3">6</text><text fill="rgb(37,37,37)" stroke="none" font-family="geogebra-sans-serif, sans-serif" font-size="21px" font-style="normal" font-weight="normal" text-decoration="normal" x="808" y="466" text-anchor="start" dominant-baseline="alphabetic" fill-opacity="1">6</text><text fill="rgb(37,37,37)" stroke="none" font-family="geogebra-sans-serif, sans-serif" font-size="21px" font-style="normal" font-weight="normal" text-decoration="normal" x="858" y="466" text-anchor="start" dominant-baseline="alphabetic" fill-opacity="1">7</text><text fill="none" stroke="rgb(255,255,255)" font-family="geogebra-sans-serif, sans-serif" font-size="21px" font-style="normal" font-weight="normal" text-decoration="normal" x="858" y="466" text-anchor="start" dominant-baseline="alphabetic" stroke-opacity="1" stroke-linejoin="bevel" stroke-miterlimit="10" stroke-width="3">7</text><text fill="rgb(37,37,37)" stroke="none" font-family="geogebra-sans-serif, sans-serif" font-size="21px" font-style="normal" font-weight="normal" text-decoration="normal" x="858" y="466" text-anchor="start" dominant-baseline="alphabetic" fill-opacity="1">7</text><text fill="rgb(37,37,37)" stroke="none" font-family="geogebra-sans-serif, sans-serif" font-size="21px" font-style="normal" font-weight="normal" text-decoration="normal" x="908" y="466" text-anchor="start" dominant-baseline="alphabetic" fill-opacity="1">8</text><text fill="none" stroke="rgb(255,255,255)" font-family="geogebra-sans-serif, sans-serif" font-size="21px" font-style="normal" font-weight="normal" text-decoration="normal" x="908" y="466" text-anchor="start" dominant-baseline="alphabetic" stroke-opacity="1" stroke-linejoin="bevel" stroke-miterlimit="10" stroke-width="3">8</text><text fill="rgb(37,37,37)" stroke="none" font-family="geogebra-sans-serif, sans-serif" font-size="21px" font-style="normal" font-weight="normal" text-decoration="normal" x="908" y="466" text-anchor="start" dominant-baseline="alphabetic" fill-opacity="1">8</text><text fill="rgb(37,37,37)" stroke="none" font-family="geogebra-sans-serif, sans-serif" font-size="21px" font-style="normal" font-weight="normal" text-decoration="normal" x="958" y="466" text-anchor="start" dominant-baseline="alphabetic" fill-opacity="1">9</text><text fill="none" stroke="rgb(255,255,255)" font-family="geogebra-sans-serif, sans-serif" font-size="21px" font-style="normal" font-weight="normal" text-decoration="normal" x="958" y="466" text-anchor="start" dominant-baseline="alphabetic" stroke-opacity="1" stroke-linejoin="bevel" stroke-miterlimit="10" stroke-width="3">9</text><text fill="rgb(37,37,37)" stroke="none" font-family="geogebra-sans-serif, sans-serif" font-size="21px" font-style="normal" font-weight="normal" text-decoration="normal" x="958" y="466" text-anchor="start" dominant-baseline="alphabetic" fill-opacity="1">9</text><text fill="rgb(37,37,37)" stroke="none" font-family="geogebra-sans-serif, sans-serif" font-size="21px" font-style="normal" font-weight="normal" text-decoration="normal" x="1003" y="466" text-anchor="start" dominant-baseline="alphabetic" fill-opacity="1">10</text><text fill="none" stroke="rgb(255,255,255)" font-family="geogebra-sans-serif, sans-serif" font-size="21px" font-style="normal" font-weight="normal" text-decoration="normal" x="1003" y="466" text-anchor="start" dominant-baseline="alphabetic" stroke-opacity="1" stroke-linejoin="bevel" stroke-miterlimit="10" stroke-width="3">10</text><text fill="rgb(37,37,37)" stroke="none" font-family="geogebra-sans-serif, sans-serif" font-size="21px" font-style="normal" font-weight="normal" text-decoration="normal" x="1003" y="466" text-anchor="start" dominant-baseline="alphabetic" fill-opacity="1">10</text><text fill="rgb(37,37,37)" stroke="none" font-family="geogebra-sans-serif, sans-serif" font-size="21px" font-style="normal" font-weight="normal" text-decoration="normal" x="480" y="801" text-anchor="start" dominant-baseline="alphabetic" fill-opacity="1">–7</text><text fill="none" stroke="rgb(255,255,255)" font-family="geogebra-sans-serif, sans-serif" font-size="21px" font-style="normal" font-weight="normal" text-decoration="normal" x="480" y="801" text-anchor="start" dominant-baseline="alphabetic" stroke-opacity="1" stroke-linejoin="bevel" stroke-miterlimit="10" stroke-width="3">–7</text><text fill="rgb(37,37,37)" stroke="none" font-family="geogebra-sans-serif, sans-serif" font-size="21px" font-style="normal" font-weight="normal" text-decoration="normal" x="480" y="801" text-anchor="start" dominant-baseline="alphabetic" fill-opacity="1">–7</text><text fill="rgb(37,37,37)" stroke="none" font-family="geogebra-sans-serif, sans-serif" font-size="21px" font-style="normal" font-weight="normal" text-decoration="normal" x="480" y="751" text-anchor="start" dominant-baseline="alphabetic" fill-opacity="1">–6</text><text fill="none" stroke="rgb(255,255,255)" font-family="geogebra-sans-serif, sans-serif" font-size="21px" font-style="normal" font-weight="normal" text-decoration="normal" x="480" y="751" text-anchor="start" dominant-baseline="alphabetic" stroke-opacity="1" stroke-linejoin="bevel" stroke-miterlimit="10" stroke-width="3">–6</text><text fill="rgb(37,37,37)" stroke="none" font-family="geogebra-sans-serif, sans-serif" font-size="21px" font-style="normal" font-weight="normal" text-decoration="normal" x="480" y="751" text-anchor="start" dominant-baseline="alphabetic" fill-opacity="1">–6</text><text fill="rgb(37,37,37)" stroke="none" font-family="geogebra-sans-serif, sans-serif" font-size="21px" font-style="normal" font-weight="normal" text-decoration="normal" x="480" y="701" text-anchor="start" dominant-baseline="alphabetic" fill-opacity="1">–5</text><text fill="none" stroke="rgb(255,255,255)" font-family="geogebra-sans-serif, sans-serif" font-size="21px" font-style="normal" font-weight="normal" text-decoration="normal" x="480" y="701" text-anchor="start" dominant-baseline="alphabetic" stroke-opacity="1" stroke-linejoin="bevel" stroke-miterlimit="10" stroke-width="3">–5</text><text fill="rgb(37,37,37)" stroke="none" font-family="geogebra-sans-serif, sans-serif" font-size="21px" font-style="normal" font-weight="normal" text-decoration="normal" x="480" y="701" text-anchor="start" dominant-baseline="alphabetic" fill-opacity="1">–5</text><text fill="rgb(37,37,37)" stroke="none" font-family="geogebra-sans-serif, sans-serif" font-size="21px" font-style="normal" font-weight="normal" text-decoration="normal" x="480" y="651" text-anchor="start" dominant-baseline="alphabetic" fill-opacity="1">–4</text><text fill="none" stroke="rgb(255,255,255)" font-family="geogebra-sans-serif, sans-serif" font-size="21px" font-style="normal" font-weight="normal" text-decoration="normal" x="480" y="651" text-anchor="start" dominant-baseline="alphabetic" stroke-opacity="1" stroke-linejoin="bevel" stroke-miterlimit="10" stroke-width="3">–4</text><text fill="rgb(37,37,37)" stroke="none" font-family="geogebra-sans-serif, sans-serif" font-size="21px" font-style="normal" font-weight="normal" text-decoration="normal" x="480" y="651" text-anchor="start" dominant-baseline="alphabetic" fill-opacity="1">–4</text><text fill="rgb(37,37,37)" stroke="none" font-family="geogebra-sans-serif, sans-serif" font-size="21px" font-style="normal" font-weight="normal" text-decoration="normal" x="480" y="601" text-anchor="start" dominant-baseline="alphabetic" fill-opacity="1">–3</text><text fill="none" stroke="rgb(255,255,255)" font-family="geogebra-sans-serif, sans-serif" font-size="21px" font-style="normal" font-weight="normal" text-decoration="normal" x="480" y="601" text-anchor="start" dominant-baseline="alphabetic" stroke-opacity="1" stroke-linejoin="bevel" stroke-miterlimit="10" stroke-width="3">–3</text><text fill="rgb(37,37,37)" stroke="none" font-family="geogebra-sans-serif, sans-serif" font-size="21px" font-style="normal" font-weight="normal" text-decoration="normal" x="480" y="601" text-anchor="start" dominant-baseline="alphabetic" fill-opacity="1">–3</text><text fill="rgb(37,37,37)" stroke="none" font-family="geogebra-sans-serif, sans-serif" font-size="21px" font-style="normal" font-weight="normal" text-decoration="normal" x="480" y="551" text-anchor="start" dominant-baseline="alphabetic" fill-opacity="1">–2</text><text fill="none" stroke="rgb(255,255,255)" font-family="geogebra-sans-serif, sans-serif" font-size="21px" font-style="normal" font-weight="normal" text-decoration="normal" x="480" y="551" text-anchor="start" dominant-baseline="alphabetic" stroke-opacity="1" stroke-linejoin="bevel" stroke-miterlimit="10" stroke-width="3">–2</text><text fill="rgb(37,37,37)" stroke="none" font-family="geogebra-sans-serif, sans-serif" font-size="21px" font-style="normal" font-weight="normal" text-decoration="normal" x="480" y="551" text-anchor="start" dominant-baseline="alphabetic" fill-opacity="1">–2</text><text fill="rgb(37,37,37)" stroke="none" font-family="geogebra-sans-serif, sans-serif" font-size="21px" font-style="normal" font-weight="normal" text-decoration="normal" x="480" y="501" text-anchor="start" dominant-baseline="alphabetic" fill-opacity="1">–1</text><text fill="none" stroke="rgb(255,255,255)" font-family="geogebra-sans-serif, sans-serif" font-size="21px" font-style="normal" font-weight="normal" text-decoration="normal" x="480" y="501" text-anchor="start" dominant-baseline="alphabetic" stroke-opacity="1" stroke-linejoin="bevel" stroke-miterlimit="10" stroke-width="3">–1</text><text fill="rgb(37,37,37)" stroke="none" font-family="geogebra-sans-serif, sans-serif" font-size="21px" font-style="normal" font-weight="normal" text-decoration="normal" x="480" y="501" text-anchor="start" dominant-baseline="alphabetic" fill-opacity="1">–1</text><text fill="rgb(37,37,37)" stroke="none" font-family="geogebra-sans-serif, sans-serif" font-size="21px" font-style="normal" font-weight="normal" text-decoration="normal" x="491" y="400" text-anchor="start" dominant-baseline="alphabetic" fill-opacity="1">1</text><text fill="none" stroke="rgb(255,255,255)" font-family="geogebra-sans-serif, sans-serif" font-size="21px" font-style="normal" font-weight="normal" text-decoration="normal" x="491" y="400" text-anchor="start" dominant-baseline="alphabetic" stroke-opacity="1" stroke-linejoin="bevel" stroke-miterlimit="10" stroke-width="3">1</text><text fill="rgb(37,37,37)" stroke="none" font-family="geogebra-sans-serif, sans-serif" font-size="21px" font-style="normal" font-weight="normal" text-decoration="normal" x="491" y="400" text-anchor="start" dominant-baseline="alphabetic" fill-opacity="1">1</text><text fill="rgb(37,37,37)" stroke="none" font-family="geogebra-sans-serif, sans-serif" font-size="21px" font-style="normal" font-weight="normal" text-decoration="normal" x="491" y="350" text-anchor="start" dominant-baseline="alphabetic" fill-opacity="1">2</text><text fill="none" stroke="rgb(255,255,255)" font-family="geogebra-sans-serif, sans-serif" font-size="21px" font-style="normal" font-weight="normal" text-decoration="normal" x="491" y="350" text-anchor="start" dominant-baseline="alphabetic" stroke-opacity="1" stroke-linejoin="bevel" stroke-miterlimit="10" stroke-width="3">2</text><text fill="rgb(37,37,37)" stroke="none" font-family="geogebra-sans-serif, sans-serif" font-size="21px" font-style="normal" font-weight="normal" text-decoration="normal" x="491" y="350" text-anchor="start" dominant-baseline="alphabetic" fill-opacity="1">2</text><text fill="rgb(37,37,37)" stroke="none" font-family="geogebra-sans-serif, sans-serif" font-size="21px" font-style="normal" font-weight="normal" text-decoration="normal" x="491" y="300" text-anchor="start" dominant-baseline="alphabetic" fill-opacity="1">3</text><text fill="none" stroke="rgb(255,255,255)" font-family="geogebra-sans-serif, sans-serif" font-size="21px" font-style="normal" font-weight="normal" text-decoration="normal" x="491" y="300" text-anchor="start" dominant-baseline="alphabetic" stroke-opacity="1" stroke-linejoin="bevel" stroke-miterlimit="10" stroke-width="3">3</text><text fill="rgb(37,37,37)" stroke="none" font-family="geogebra-sans-serif, sans-serif" font-size="21px" font-style="normal" font-weight="normal" text-decoration="normal" x="491" y="300" text-anchor="start" dominant-baseline="alphabetic" fill-opacity="1">3</text><text fill="rgb(37,37,37)" stroke="none" font-family="geogebra-sans-serif, sans-serif" font-size="21px" font-style="normal" font-weight="normal" text-decoration="normal" x="491" y="250" text-anchor="start" dominant-baseline="alphabetic" fill-opacity="1">4</text><text fill="none" stroke="rgb(255,255,255)" font-family="geogebra-sans-serif, sans-serif" font-size="21px" font-style="normal" font-weight="normal" text-decoration="normal" x="491" y="250" text-anchor="start" dominant-baseline="alphabetic" stroke-opacity="1" stroke-linejoin="bevel" stroke-miterlimit="10" stroke-width="3">4</text><text fill="rgb(37,37,37)" stroke="none" font-family="geogebra-sans-serif, sans-serif" font-size="21px" font-style="normal" font-weight="normal" text-decoration="normal" x="491" y="250" text-anchor="start" dominant-baseline="alphabetic" fill-opacity="1">4</text><text fill="rgb(37,37,37)" stroke="none" font-family="geogebra-sans-serif, sans-serif" font-size="21px" font-style="normal" font-weight="normal" text-decoration="normal" x="491" y="200" text-anchor="start" dominant-baseline="alphabetic" fill-opacity="1">5</text><text fill="none" stroke="rgb(255,255,255)" font-family="geogebra-sans-serif, sans-serif" font-size="21px" font-style="normal" font-weight="normal" text-decoration="normal" x="491" y="200" text-anchor="start" dominant-baseline="alphabetic" stroke-opacity="1" stroke-linejoin="bevel" stroke-miterlimit="10" stroke-width="3">5</text><text fill="rgb(37,37,37)" stroke="none" font-family="geogebra-sans-serif, sans-serif" font-size="21px" font-style="normal" font-weight="normal" text-decoration="normal" x="491" y="200" text-anchor="start" dominant-baseline="alphabetic" fill-opacity="1">5</text><text fill="rgb(37,37,37)" stroke="none" font-family="geogebra-sans-serif, sans-serif" font-size="21px" font-style="normal" font-weight="normal" text-decoration="normal" x="491" y="150" text-anchor="start" dominant-baseline="alphabetic" fill-opacity="1">6</text><text fill="none" stroke="rgb(255,255,255)" font-family="geogebra-sans-serif, sans-serif" font-size="21px" font-style="normal" font-weight="normal" text-decoration="normal" x="491" y="150" text-anchor="start" dominant-baseline="alphabetic" stroke-opacity="1" stroke-linejoin="bevel" stroke-miterlimit="10" stroke-width="3">6</text><text fill="rgb(37,37,37)" stroke="none" font-family="geogebra-sans-serif, sans-serif" font-size="21px" font-style="normal" font-weight="normal" text-decoration="normal" x="491" y="150" text-anchor="start" dominant-baseline="alphabetic" fill-opacity="1">6</text><text fill="rgb(37,37,37)" stroke="none" font-family="geogebra-sans-serif, sans-serif" font-size="21px" font-style="normal" font-weight="normal" text-decoration="normal" x="491" y="100" text-anchor="start" dominant-baseline="alphabetic" fill-opacity="1">7</text><text fill="none" stroke="rgb(255,255,255)" font-family="geogebra-sans-serif, sans-serif" font-size="21px" font-style="normal" font-weight="normal" text-decoration="normal" x="491" y="100" text-anchor="start" dominant-baseline="alphabetic" stroke-opacity="1" stroke-linejoin="bevel" stroke-miterlimit="10" stroke-width="3">7</text><text fill="rgb(37,37,37)" stroke="none" font-family="geogebra-sans-serif, sans-serif" font-size="21px" font-style="normal" font-weight="normal" text-decoration="normal" x="491" y="100" text-anchor="start" dominant-baseline="alphabetic" fill-opacity="1">7</text><text fill="rgb(37,37,37)" stroke="none" font-family="geogebra-sans-serif, sans-serif" font-size="21px" font-style="normal" font-weight="normal" text-decoration="normal" x="491" y="50" text-anchor="start" dominant-baseline="alphabetic" fill-opacity="1">8</text><text fill="none" stroke="rgb(255,255,255)" font-family="geogebra-sans-serif, sans-serif" font-size="21px" font-style="normal" font-weight="normal" text-decoration="normal" x="491" y="50" text-anchor="start" dominant-baseline="alphabetic" stroke-opacity="1" stroke-linejoin="bevel" stroke-miterlimit="10" stroke-width="3">8</text><text fill="rgb(37,37,37)" stroke="none" font-family="geogebra-sans-serif, sans-serif" font-size="21px" font-style="normal" font-weight="normal" text-decoration="normal" x="491" y="50" text-anchor="start" dominant-baseline="alphabetic" fill-opacity="1">8</text><text fill="rgb(37,37,37)" stroke="none" font-family="geogebra-sans-serif, sans-serif" font-size="21px" font-style="normal" font-weight="normal" text-decoration="normal" x="491" y="466" text-anchor="start" dominant-baseline="alphabetic" fill-opacity="1">0</text><text fill="none" stroke="rgb(255,255,255)" font-family="geogebra-sans-serif, sans-serif" font-size="21px" font-style="normal" font-weight="normal" text-decoration="normal" x="491" y="466" text-anchor="start" dominant-baseline="alphabetic" stroke-opacity="1" stroke-linejoin="bevel" stroke-miterlimit="10" stroke-width="3">0</text><text fill="rgb(37,37,37)" stroke="none" font-family="geogebra-sans-serif, sans-serif" font-size="21px" font-style="normal" font-weight="normal" text-decoration="normal" x="491" y="466" text-anchor="start" dominant-baseline="alphabetic" fill-opacity="1">0</text><path fill="none" stroke="rgb(46,125,50)" paint-order="fill stroke markers" d=" M 1 953.5000000000023 L 1 954.5000000000023 L 1 953.5000000000023 L 1.9999999999999432 952.5000000000023 L 1.9999999999999432 952.5000000000023 L 2.999999999999943 951.5000000000023 L 2.999999999999943 951.5000000000023 L 4 950.5000000000023 L 4 950.5000000000023 L 5 949.5000000000023 L 5 949.5000000000023 L 5.999999999999943 948.5000000000023 L 5.999999999999943 948.5000000000023 L 6.999999999999943 947.5000000000023 L 6.999999999999943 947.5000000000023 L 8 946.5000000000023 L 8 946.5000000000023 L 9 945.5000000000023 L 9 945.5000000000023 L 9.999999999999943 944.5000000000023 L 9.999999999999943 944.5000000000023 L 10.999999999999943 943.5000000000023 L 10.999999999999943 943.5000000000023 L 12 942.5000000000023 L 12 942.5000000000023 L 13 941.5000000000023 L 13 941.5000000000023 L 13.999999999999943 940.5000000000023 L 13.999999999999943 940.5000000000023 L 14.999999999999943 939.5000000000023 L 14.999999999999943 939.5000000000023 L 16 938.5000000000022 L 16 938.5000000000022 L 17 937.5000000000023 L 17 937.5000000000023 L 17.999999999999943 936.5000000000023 L 17.999999999999943 936.5000000000023 L 18.999999999999943 935.5000000000023 L 18.999999999999943 935.5000000000023 L 20 934.5000000000022 L 20 934.5000000000022 L 21 933.5000000000022 L 21 933.5000000000022 L 21.999999999999943 932.5000000000023 L 21.999999999999943 932.5000000000023 L 22.999999999999943 931.5000000000023 L 22.999999999999943 931.5000000000023 L 24 930.5000000000022 L 24 930.5000000000022 L 25 929.5000000000022 L 25 929.5000000000022 L 25.999999999999943 928.5000000000022 L 25.999999999999943 928.5000000000022 L 26.999999999999943 927.5000000000023 L 26.999999999999943 927.5000000000023 L 28 926.500000000002 L 28 926.500000000002 L 29 925.5000000000022 L 29 925.5000000000022 L 30 924.5000000000022 L 30 924.5000000000022 L 30.999999999999943 923.5000000000022 L 30.999999999999943 923.5000000000022 L 32 922.500000000002 L 32 922.500000000002 L 33 921.500000000002 L 33 921.500000000002 L 34 920.5000000000022 L 34 920.5000000000022 L 34.99999999999994 919.5000000000022 L 34.99999999999994 919.5000000000022 L 35.99999999999994 918.5000000000022 L 35.99999999999994 918.5000000000022 L 37 917.500000000002 L 37 917.500000000002 L 38 916.500000000002 L 38 916.500000000002 L 38.99999999999994 915.500000000002 L 38.99999999999994 915.500000000002 L 39.99999999999994 914.5000000000022 L 39.99999999999994 914.5000000000022 L 41 913.500000000002 L 41 913.500000000002 L 42 912.500000000002 L 42 912.500000000002 L 42.99999999999994 911.500000000002 L 42.99999999999994 911.500000000002 L 43.99999999999994 910.500000000002 L 43.99999999999994 910.500000000002 L 45 909.500000000002 L 45 909.500000000002 L 46 908.500000000002 L 46 908.500000000002 L 46.99999999999994 907.500000000002 L 46.99999999999994 907.500000000002 L 47.99999999999994 906.500000000002 L 47.99999999999994 906.500000000002 L 49 905.500000000002 L 49 905.500000000002 L 50 904.500000000002 L 50 904.500000000002 L 50.99999999999994 903.500000000002 L 50.99999999999994 903.500000000002 L 51.99999999999994 902.500000000002 L 51.99999999999994 902.500000000002 L 53 901.500000000002 L 53 901.500000000002 L 54 900.500000000002 L 54 900.500000000002 L 54.99999999999994 899.500000000002 L 54.99999999999994 899.500000000002 L 55.99999999999994 898.500000000002 L 55.99999999999994 898.500000000002 L 57 897.500000000002 L 57 897.500000000002 L 58 896.500000000002 L 58 896.500000000002 L 59 895.500000000002 L 59 895.500000000002 L 59.99999999999994 894.500000000002 L 59.99999999999994 894.500000000002 L 61 893.500000000002 L 61 893.500000000002 L 62 892.500000000002 L 62 892.500000000002 L 63 891.500000000002 L 63 891.500000000002 L 63.99999999999994 890.500000000002 L 63.99999999999994 890.500000000002 L 65 889.5000000000019 L 65 889.5000000000019 L 66 888.500000000002 L 66 888.500000000002 L 67 887.500000000002 L 67 887.500000000002 L 67.99999999999994 886.500000000002 L 67.99999999999994 886.500000000002 L 68.99999999999994 885.500000000002 L 68.99999999999994 885.500000000002 L 70 884.5000000000019 L 70 884.5000000000019 L 71 883.500000000002 L 71 883.500000000002 L 71.99999999999994 882.500000000002 L 71.99999999999994 882.500000000002 L 72.99999999999994 881.500000000002 L 72.99999999999994 881.500000000002 L 74 880.5000000000019 L 74 880.5000000000019 L 75 879.5000000000019 L 75 879.5000000000019 L 75.99999999999994 878.500000000002 L 75.99999999999994 878.500000000002 L 76.99999999999994 877.500000000002 L 76.99999999999994 877.500000000002 L 78 876.5000000000019 L 78 876.5000000000019 L 79 875.5000000000019 L 79 875.5000000000019 L 79.99999999999994 874.5000000000019 L 79.99999999999994 874.5000000000019 L 80.99999999999994 873.5000000000019 L 80.99999999999994 873.5000000000019 L 82 872.5000000000018 L 82 872.5000000000018 L 83 871.5000000000019 L 83 871.5000000000019 L 83.99999999999994 870.5000000000019 L 83.99999999999994 870.5000000000019 L 84.99999999999994 869.5000000000019 L 84.99999999999994 869.5000000000019 L 86 868.5000000000018 L 86 868.5000000000018 L 87 867.5000000000018 L 87 867.5000000000018 L 88 866.5000000000018 L 88 866.5000000000018 L 88.99999999999994 865.5000000000019 L 88.99999999999994 865.5000000000019 L 90 864.5000000000018 L 90 864.5000000000018 L 91 863.5000000000018 L 91 863.5000000000018 L 92 862.5000000000018 L 92 862.5000000000018 L 92.99999999999994 861.5000000000018 L 92.99999999999994 861.5000000000018 L 94 860.5000000000018 L 94 860.5000000000018 L 95 859.5000000000018 L 95 859.5000000000018 L 96 858.5000000000018 L 96 858.5000000000018 L 96.99999999999994 857.5000000000018 L 96.99999999999994 857.5000000000018 L 97.99999999999994 856.5000000000018 L 97.99999999999994 856.5000000000018 L 99 855.5000000000018 L 99 855.5000000000018 L 100 854.5000000000018 L 100 854.5000000000018 L 100.99999999999994 853.5000000000018 L 100.99999999999994 853.5000000000018 L 101.99999999999994 852.5000000000018 L 101.99999999999994 852.5000000000018 L 103 851.5000000000018 L 103 851.5000000000018 L 104 850.5000000000018 L 104 850.5000000000018 L 104.99999999999994 849.5000000000018 L 104.99999999999994 849.5000000000018 L 105.99999999999994 848.5000000000018 L 105.99999999999994 848.5000000000018 L 107 847.5000000000018 L 107 847.5000000000018 L 108 846.5000000000018 L 108 846.5000000000018 L 108.99999999999994 845.5000000000018 L 108.99999999999994 845.5000000000018 L 109.99999999999994 844.5000000000018 L 109.99999999999994 844.5000000000018 L 111 843.5000000000018 L 111 843.5000000000018 L 112 842.5000000000018 L 112 842.5000000000018 L 112.99999999999994 841.5000000000018 L 112.99999999999994 841.5000000000018 L 114 840.5000000000018 L 114 840.5000000000018 L 114.99999999999994 839.5000000000018 L 114.99999999999994 839.5000000000018 L 116 838.5000000000018 L 116 838.5000000000018 L 116.99999999999994 837.5000000000018 L 116.99999999999994 837.5000000000018 L 118 836.5000000000018 L 118 836.5000000000018 L 119 835.5000000000018 L 119 835.5000000000018 L 120 834.5000000000018 L 120 834.5000000000018 L 121 833.5000000000018 L 121 833.5000000000018 L 122 832.5000000000017 L 122 832.5000000000017 L 123 831.5000000000018 L 123 831.5000000000018 L 124 830.5000000000017 L 124 830.5000000000017 L 125 829.5000000000017 L 125 829.5000000000017 L 126 828.5000000000017 L 126 828.5000000000017 L 127 827.5000000000017 L 127 827.5000000000017 L 128 826.5000000000017 L 128 826.5000000000017 L 129 825.5000000000017 L 129 825.5000000000017 L 129.99999999999994 824.5000000000017 L 129.99999999999994 824.5000000000017 L 131 823.5000000000017 L 131 823.5000000000017 L 131.99999999999994 822.5000000000017 L 131.99999999999994 822.5000000000017 L 133 821.5000000000017 L 133 821.5000000000017 L 133.99999999999994 820.5000000000017 L 133.99999999999994 820.5000000000017 L 135 819.5000000000017 L 135 819.5000000000017 L 135.99999999999994 818.5000000000017 L 135.99999999999994 818.5000000000017 L 137 817.5000000000016 L 137 817.5000000000016 L 137.99999999999994 816.5000000000017 L 137.99999999999994 816.5000000000017 L 139 815.5000000000016 L 139 815.5000000000016 L 139.99999999999994 814.5000000000017 L 139.99999999999994 814.5000000000017 L 141 813.5000000000016 L 141 813.5000000000016 L 141.99999999999994 812.5000000000016 L 141.99999999999994 812.5000000000016 L 143 811.5000000000016 L 143 811.5000000000016 L 143.99999999999994 810.5000000000016 L 143.99999999999994 810.5000000000016 L 145 809.5000000000016 L 145 809.5000000000016 L 145.99999999999994 808.5000000000016 L 145.99999999999994 808.5000000000016 L 147 807.5000000000016 L 147 807.5000000000016 L 148 806.5000000000016 L 148 806.5000000000016 L 149 805.5000000000016 L 149 805.5000000000016 L 150 804.5000000000016 L 150 804.5000000000016 L 151 803.5000000000016 L 151 803.5000000000016 L 152 802.5000000000016 L 152 802.5000000000016 L 153 801.5000000000016 L 153 801.5000000000016 L 154 800.5000000000016 L 154 800.5000000000016 L 155 799.5000000000016 L 155 799.5000000000016 L 156 798.5000000000016 L 156 798.5000000000016 L 157 797.5000000000016 L 157 797.5000000000016 L 158 796.5000000000016 L 158 796.5000000000016 L 159 795.5000000000016 L 159 795.5000000000016 L 160 794.5000000000016 L 160 794.5000000000016 L 161 793.5000000000016 L 161 793.5000000000016 L 162 792.5000000000016 L 162 792.5000000000016 L 162.99999999999994 791.5000000000016 L 162.99999999999994 791.5000000000016 L 164 790.5000000000016 L 164 790.5000000000016 L 164.99999999999994 789.5000000000016 L 164.99999999999994 789.5000000000016 L 166 788.5000000000016 L 166 788.5000000000016 L 166.99999999999994 787.5000000000016 L 166.99999999999994 787.5000000000016 L 168 786.5000000000016 L 168 786.5000000000016 L 168.99999999999994 785.5000000000016 L 168.99999999999994 785.5000000000016 L 170 784.5000000000016 L 170 784.5000000000016 L 170.99999999999994 783.5000000000016 L 170.99999999999994 783.5000000000016 L 172 782.5000000000016 L 172 782.5000000000016 L 172.99999999999994 781.5000000000016 L 172.99999999999994 781.5000000000016 L 174 780.5000000000015 L 174 780.5000000000015 L 174.99999999999994 779.5000000000016 L 174.99999999999994 779.5000000000016 L 176 778.5000000000015 L 176 778.5000000000015 L 176.99999999999994 777.5000000000016 L 176.99999999999994 777.5000000000016 L 178 776.5000000000015 L 178 776.5000000000015 L 179 775.5000000000015 L 179 775.5000000000015 L 180 774.5000000000015 L 180 774.5000000000015 L 181 773.5000000000015 L 181 773.5000000000015 L 182 772.5000000000015 L 182 772.5000000000015 L 183 771.5000000000015 L 183 771.5000000000015 L 184 770.5000000000015 L 184 770.5000000000015 L 185 769.5000000000015 L 185 769.5000000000015 L 186 768.5000000000014 L 186 768.5000000000014 L 187 767.5000000000015 L 187 767.5000000000015 L 188 766.5000000000014 L 188 766.5000000000014 L 189 765.5000000000014 L 189 765.5000000000014 L 190 764.5000000000014 L 190 764.5000000000014 L 191 763.5000000000014 L 191 763.5000000000014 L 192 762.5000000000014 L 192 762.5000000000014 L 193 761.5000000000014 L 193 761.5000000000014 L 193.99999999999994 760.5000000000014 L 193.99999999999994 760.5000000000014 L 195 759.5000000000014 L 195 759.5000000000014 L 195.99999999999994 758.5000000000014 L 195.99999999999994 758.5000000000014 L 197 757.5000000000014 L 197 757.5000000000014 L 197.99999999999994 756.5000000000014 L 197.99999999999994 756.5000000000014 L 199 755.5000000000014 L 199 755.5000000000014 L 199.99999999999994 754.5000000000014 L 199.99999999999994 754.5000000000014 L 201 753.5000000000014 L 201 753.5000000000014 L 201.99999999999994 752.5000000000014 L 201.99999999999994 752.5000000000014 L 203 751.5000000000014 L 203 751.5000000000014 L 203.99999999999994 750.5000000000014 L 203.99999999999994 750.5000000000014 L 205 749.5000000000014 L 205 749.5000000000014 L 205.99999999999994 748.5000000000014 L 205.99999999999994 748.5000000000014 L 207 747.5000000000014 L 207 747.5000000000014 L 208 746.5000000000014 L 208 746.5000000000014 L 209 745.5000000000014 L 209 745.5000000000014 L 210 744.5000000000014 L 210 744.5000000000014 L 211 743.5000000000014 L 211 743.5000000000014 L 212 742.5000000000014 L 212 742.5000000000014 L 213 741.5000000000014 L 213 741.5000000000014 L 214 740.5000000000014 L 214 740.5000000000014 L 215 739.5000000000014 L 215 739.5000000000014 L 216 738.5000000000014 L 216 738.5000000000014 L 217 737.5000000000014 L 217 737.5000000000014 L 218 736.5000000000014 L 218 736.5000000000014 L 219 735.5000000000014 L 219 735.5000000000014 L 220 734.5000000000014 L 220 734.5000000000014 L 221 733.5000000000014 L 221 733.5000000000014 L 222 732.5000000000014 L 222 732.5000000000014 L 223 731.5000000000013 L 223 731.5000000000013 L 224 730.5000000000014 L 224 730.5000000000014 L 224.99999999999994 729.5000000000014 L 224.99999999999994 729.5000000000014 L 226 728.5000000000013 L 226 728.5000000000013 L 226.99999999999994 727.5000000000014 L 226.99999999999994 727.5000000000014 L 228 726.5000000000013 L 228 726.5000000000013 L 228.99999999999994 725.5000000000014 L 228.99999999999994 725.5000000000014 L 230 724.5000000000013 L 230 724.5000000000013 L 230.99999999999994 723.5000000000013 L 230.99999999999994 723.5000000000013 L 232 722.5000000000013 L 232 722.5000000000013 L 232.99999999999994 721.5000000000013 L 232.99999999999994 721.5000000000013 L 234 720.5000000000013 L 234 720.5000000000013 L 234.99999999999994 719.5000000000013 L 234.99999999999994 719.5000000000013 L 236 718.5000000000013 L 236 718.5000000000013 L 237 717.5000000000013 L 237 717.5000000000013 L 238 716.5000000000011 L 238 716.5000000000011 L 239 715.5000000000013 L 239 715.5000000000013 L 240 714.5000000000011 L 240 714.5000000000011 L 241 713.5000000000013 L 241 713.5000000000013 L 242 712.5000000000011 L 242 712.5000000000011 L 243 711.5000000000011 L 243 711.5000000000011 L 244 710.5000000000011 L 244 710.5000000000011 L 245 709.5000000000011 L 245 709.5000000000011 L 246 708.5000000000011 L 246 708.5000000000011 L 247 707.5000000000011 L 247 707.5000000000011 L 248 706.5000000000011 L 248 706.5000000000011 L 249 705.5000000000011 L 249 705.5000000000011 L 250 704.5000000000011 L 250 704.5000000000011 L 251 703.5000000000011 L 251 703.5000000000011 L 252 702.5000000000011 L 252 702.5000000000011 L 253 701.5000000000011 L 253 701.5000000000011 L 254 700.5000000000011 L 254 700.5000000000011 L 255 699.5000000000011 L 255 699.5000000000011 L 256 698.5000000000011 L 256 698.5000000000011 L 257 697.5000000000011 L 257 697.5000000000011 L 258 696.5000000000011 L 258 696.5000000000011 L 259 695.5000000000011 L 259 695.5000000000011 L 260 694.5000000000011 L 260 694.5000000000011 L 261 693.5000000000011 L 261 693.5000000000011 L 262 692.5000000000011 L 262 692.5000000000011 L 263 691.5000000000011 L 263 691.5000000000011 L 264 690.5000000000011 L 264 690.5000000000011 L 265 689.5000000000011 L 265 689.5000000000011 L 266 688.5000000000011 L 266 688.5000000000011 L 267 687.5000000000011 L 267 687.5000000000011 L 268 686.5000000000011 L 268 686.5000000000011 L 269 685.5000000000011 L 269 685.5000000000011 L 270 684.5000000000011 L 270 684.5000000000011 L 271 683.5000000000011 L 271 683.5000000000011 L 272 682.5000000000011 L 272 682.5000000000011 L 273 681.500000000001 L 273 681.500000000001 L 274 680.5000000000011 L 274 680.5000000000011 L 275 679.500000000001 L 275 679.500000000001 L 276 678.500000000001 L 276 678.500000000001 L 277 677.500000000001 L 277 677.500000000001 L 278 676.500000000001 L 278 676.500000000001 L 279 675.500000000001 L 279 675.500000000001 L 280 674.500000000001 L 280 674.500000000001 L 281 673.500000000001 L 281 673.500000000001 L 282 672.500000000001 L 282 672.500000000001 L 283 671.500000000001 L 283 671.500000000001 L 284 670.500000000001 L 284 670.500000000001 L 285 669.500000000001 L 285 669.500000000001 L 286 668.500000000001 L 286 668.500000000001 L 287 667.500000000001 L 287 667.500000000001 L 288 666.500000000001 L 288 666.500000000001 L 289 665.5000000000009 L 289 665.5000000000009 L 290 664.500000000001 L 290 664.500000000001 L 291 663.500000000001 L 291 663.500000000001 L 292 662.500000000001 L 292 662.500000000001 L 293 661.500000000001 L 293 661.500000000001 L 294 660.5000000000009 L 294 660.5000000000009 L 295 659.500000000001 L 295 659.500000000001 L 296 658.5000000000009 L 296 658.5000000000009 L 297 657.5000000000009 L 297 657.5000000000009 L 298 656.5000000000009 L 298 656.5000000000009 L 299 655.5000000000009 L 299 655.5000000000009 L 300 654.5000000000009 L 300 654.5000000000009 L 301 653.5000000000009 L 301 653.5000000000009 L 302 652.5000000000009 L 302 652.5000000000009 L 303 651.5000000000009 L 303 651.5000000000009 L 304 650.5000000000009 L 304 650.5000000000009 L 305 649.5000000000009 L 305 649.5000000000009 L 306 648.5000000000009 L 306 648.5000000000009 L 307 647.5000000000009 L 307 647.5000000000009 L 308 646.5000000000009 L 308 646.5000000000009 L 309 645.5000000000009 L 309 645.5000000000009 L 310 644.5000000000009 L 310 644.5000000000009 L 311 643.5000000000009 L 311 643.5000000000009 L 312 642.5000000000009 L 312 642.5000000000009 L 313 641.5000000000009 L 313 641.5000000000009 L 314 640.5000000000009 L 314 640.5000000000009 L 315 639.5000000000009 L 315 639.5000000000009 L 316 638.5000000000009 L 316 638.5000000000009 L 317 637.5000000000009 L 317 637.5000000000009 L 318 636.5000000000009 L 318 636.5000000000009 L 319 635.5000000000009 L 319 635.5000000000009 L 320 634.5000000000009 L 320 634.5000000000009 L 321 633.5000000000009 L 321 633.5000000000009 L 322 632.5000000000009 L 322 632.5000000000009 L 323 631.5000000000009 L 323 631.5000000000009 L 324 630.5000000000009 L 324 630.5000000000009 L 325 629.5000000000008 L 325 629.5000000000008 L 326 628.5000000000008 L 326 628.5000000000008 L 327 627.5000000000008 L 327 627.5000000000008 L 328 626.5000000000008 L 328 626.5000000000008 L 329 625.5000000000008 L 329 625.5000000000008 L 330 624.5000000000008 L 330 624.5000000000008 L 331 623.5000000000008 L 331 623.5000000000008 L 332 622.5000000000008 L 332 622.5000000000008 L 333 621.5000000000008 L 333 621.5000000000008 L 334 620.5000000000008 L 334 620.5000000000008 L 335 619.5000000000008 L 335 619.5000000000008 L 336 618.5000000000008 L 336 618.5000000000008 L 337 617.5000000000008 L 337 617.5000000000008 L 338 616.5000000000008 L 338 616.5000000000008 L 339 615.5000000000008 L 339 615.5000000000008 L 340 614.5000000000008 L 340 614.5000000000008 L 341 613.5000000000008 L 341 613.5000000000008 L 342 612.5000000000008 L 342 612.5000000000008 L 343 611.5000000000008 L 343 611.5000000000008 L 344 610.5000000000008 L 344 610.5000000000008 L 345 609.5000000000008 L 345 609.5000000000008 L 346 608.5000000000007 L 346 608.5000000000007 L 347 607.5000000000007 L 347 607.5000000000007 L 348 606.5000000000007 L 348 606.5000000000007 L 349 605.5000000000007 L 349 605.5000000000007 L 350 604.5000000000007 L 350 604.5000000000007 L 351 603.5000000000007 L 351 603.5000000000007 L 352 602.5000000000007 L 352 602.5000000000007 L 353 601.5000000000007 L 353 601.5000000000007 L 354 600.5000000000007 L 354 600.5000000000007 L 355 599.5000000000007 L 355 599.5000000000007 L 356 598.5000000000007 L 356 598.5000000000007 L 357 597.5000000000007 L 357 597.5000000000007 L 358 596.5000000000007 L 358 596.5000000000007 L 359 595.5000000000007 L 359 595.5000000000007 L 360 594.5000000000007 L 360 594.5000000000007 L 361 593.5000000000007 L 361 593.5000000000007 L 362 592.5000000000007 L 362 592.5000000000007 L 363 591.5000000000007 L 363 591.5000000000007 L 364 590.5000000000007 L 364 590.5000000000007 L 365 589.5000000000007 L 365 589.5000000000007 L 366 588.5000000000007 L 366 588.5000000000007 L 367 587.5000000000007 L 367 587.5000000000007 L 368 586.5000000000007 L 368 586.5000000000007 L 369 585.5000000000007 L 369 585.5000000000007 L 370 584.5000000000007 L 370 584.5000000000007 L 371 583.5000000000007 L 371 583.5000000000007 L 372 582.5000000000007 L 372 582.5000000000007 L 373 581.5000000000007 L 373 581.5000000000007 L 374 580.5000000000007 L 374 580.5000000000007 L 375 579.5000000000007 L 375 579.5000000000007 L 376 578.5000000000007 L 376 578.5000000000007 L 377 577.5000000000007 L 377 577.5000000000007 L 378 576.5000000000006 L 378 576.5000000000006 L 379 575.5000000000006 L 379 575.5000000000006 L 380 574.5000000000006 L 380 574.5000000000006 L 381 573.5000000000006 L 381 573.5000000000006 L 382 572.5000000000006 L 382 572.5000000000006 L 383 571.5000000000006 L 383 571.5000000000006 L 384 570.5000000000006 L 384 570.5000000000006 L 385 569.5000000000006 L 385 569.5000000000006 L 386 568.5000000000006 L 386 568.5000000000006 L 387 567.5000000000006 L 387 567.5000000000006 L 388 566.5000000000006 L 388 566.5000000000006 L 389 565.5000000000006 L 389 565.5000000000006 L 390 564.5000000000006 L 390 564.5000000000006 L 391 563.5000000000006 L 391 563.5000000000006 L 392 562.5000000000006 L 392 562.5000000000006 L 393 561.5000000000006 L 393 561.5000000000006 L 394 560.5000000000006 L 394 560.5000000000006 L 395 559.5000000000006 L 395 559.5000000000006 L 396 558.5000000000005 L 396 558.5000000000005 L 397 557.5000000000005 L 397 557.5000000000005 L 398 556.5000000000005 L 398 556.5000000000005 L 399 555.5000000000005 L 399 555.5000000000005 L 400 554.5000000000005 L 400 554.5000000000005 L 401 553.5000000000005 L 401 553.5000000000005 L 402 552.5000000000005 L 402 552.5000000000005 L 403 551.5000000000005 L 403 551.5000000000005 L 404 550.5000000000005 L 404 550.5000000000005 L 405 549.5000000000005 L 405 549.5000000000005 L 406 548.5000000000005 L 406 548.5000000000005 L 407 547.5000000000005 L 407 547.5000000000005 L 408 546.5000000000005 L 408 546.5000000000005 L 409 545.5000000000005 L 409 545.5000000000005 L 410 544.5000000000005 L 410 544.5000000000005 L 411 543.5000000000005 L 411 543.5000000000005 L 412 542.5000000000005 L 412 542.5000000000005 L 413 541.5000000000005 L 413 541.5000000000005 L 414 540.5000000000005 L 414 540.5000000000005 L 415 539.5000000000005 L 415 539.5000000000005 L 416 538.5000000000005 L 416 538.5000000000005 L 417 537.5000000000005 L 417 537.5000000000005 L 418 536.5000000000005 L 418 536.5000000000005 L 419 535.5000000000005 L 419 535.5000000000005 L 420 534.5000000000005 L 420 534.5000000000005 L 421 533.5000000000005 L 421 533.5000000000005 L 422 532.5000000000005 L 422 532.5000000000005 L 423 531.5000000000005 L 423 531.5000000000005 L 424 530.5000000000005 L 424 530.5000000000005 L 425 529.5000000000003 L 425 529.5000000000003 L 426 528.5000000000005 L 426 528.5000000000005 L 427 527.5000000000003 L 427 527.5000000000003 L 428 526.5000000000003 L 428 526.5000000000003 L 429 525.5000000000003 L 429 525.5000000000003 L 430 524.5000000000003 L 430 524.5000000000003 L 431 523.5000000000003 L 431 523.5000000000003 L 432 522.5000000000003 L 432 522.5000000000003 L 433 521.5000000000003 L 433 521.5000000000003 L 434 520.5000000000003 L 434 520.5000000000003 L 435 519.5000000000003 L 435 519.5000000000003 L 436 518.5000000000003 L 436 518.5000000000003 L 437 517.5000000000003 L 437 517.5000000000003 L 438 516.5000000000003 L 438 516.5000000000003 L 439 515.5000000000003 L 439 515.5000000000003 L 440 514.5000000000003 L 440 514.5000000000003 L 441 513.5000000000003 L 441 513.5000000000003 L 442 512.5000000000003 L 442 512.5000000000003 L 443 511.50000000000034 L 443 511.50000000000034 L 444 510.50000000000034 L 444 510.50000000000034 L 445 509.50000000000034 L 445 509.50000000000034 L 446 508.5000000000003 L 446 508.5000000000003 L 447 507.5000000000003 L 447 507.5000000000003 L 448 506.5000000000003 L 448 506.5000000000003 L 449 505.5000000000003 L 449 505.5000000000003 L 450 504.5000000000003 L 450 504.5000000000003 L 451 503.5000000000003 L 451 503.5000000000003 L 452 502.5000000000003 L 452 502.5000000000003 L 453 501.5000000000003 L 453 501.5000000000003 L 454 500.5000000000003 L 454 500.5000000000003 L 455 499.5000000000002 L 455 499.5000000000002 L 456 498.5000000000002 L 456 498.5000000000002 L 457 497.5000000000002 L 457 497.5000000000002 L 458 496.5000000000002 L 458 496.5000000000002 L 459 495.5000000000002 L 459 495.5000000000002 L 460 494.5000000000002 L 460 494.5000000000002 L 461 493.5000000000002 L 461 493.5000000000002 L 462 492.5000000000002 L 462 492.5000000000002 L 463 491.5000000000002 L 463 491.5000000000002 L 464 490.5000000000002 L 464 490.5000000000002 L 465 489.5000000000002 L 465 489.5000000000002 L 466 488.5000000000002 L 466 488.5000000000002 L 467 487.5000000000002 L 467 487.5000000000002 L 468 486.5000000000002 L 468 486.5000000000002 L 469 485.50000000000017 L 469 485.50000000000017 L 470 484.50000000000017 L 470 484.50000000000017 L 471 483.50000000000017 L 471 483.50000000000017 L 472 482.50000000000017 L 472 482.50000000000017 L 473 481.50000000000017 L 473 481.50000000000017 L 474 480.50000000000017 L 474 480.50000000000017 L 475 479.50000000000017 L 475 479.50000000000017 L 476 478.50000000000017 L 476 478.50000000000017 L 477 477.50000000000017 L 477 477.50000000000017 L 478 476.50000000000017 L 478 476.50000000000017 L 479 475.50000000000017 L 479 475.50000000000017 L 480 474.50000000000017 L 480 474.50000000000017 L 481 473.5000000000001 L 481 473.5000000000001 L 482 472.5000000000001 L 482 472.5000000000001 L 483 471.5000000000001 L 483 471.5000000000001 L 484 470.5000000000001 L 484 470.5000000000001 L 485 469.5000000000001 L 485 469.5000000000001 L 486 468.5000000000001 L 486 468.5000000000001 L 487 467.5000000000001 L 487 467.5000000000001 L 488 466.5000000000001 L 488 466.5000000000001 L 489 465.5000000000001 L 489 465.5000000000001 L 490 464.5000000000001 L 490 464.5000000000001 L 491 463.5000000000001 L 491 463.5000000000001 L 492 462.5000000000001 L 492 462.5000000000001 L 493 461.5000000000001 L 493 461.5000000000001 L 494 460.5000000000001 L 494 460.5000000000001 L 495 459.50000000000006 L 495 459.50000000000006 L 496 458.50000000000006 L 496 458.50000000000006 L 497 457.50000000000006 L 497 457.50000000000006 L 498 456.50000000000006 L 498 456.50000000000006 L 499 455.50000000000006 L 499 455.50000000000006 L 500 454.50000000000006 L 500 454.50000000000006 L 501 453.50000000000006 L 501 453.50000000000006 L 502 452.50000000000006 L 502 452.50000000000006 L 503 451.50000000000006 L 503 451.50000000000006 L 504 450.50000000000006 L 504 450.50000000000006 L 505 449.50000000000006 L 505 449.50000000000006 L 506 448.50000000000006 L 506 448.50000000000006 L 507 447.5 L 507 447.5 L 508 446.5 L 508 446.5 L 509 445.5 L 509 445.5 L 510 444.5 L 510 444.5 L 511 443.5 L 511 443.5 L 512 442.5 L 512 442.5 L 513 441.5 L 513 441.5 L 514 440.5 L 514 440.5 L 515 439.5 L 515 439.5 L 516 438.5 L 516 438.5 L 517 437.5 L 517 437.5 L 518 436.5 L 518 436.5 L 519 435.5 L 519 435.5 L 520 434.49999999999994 L 520 434.49999999999994 L 521 433.49999999999994 L 521 433.49999999999994 L 522 432.49999999999994 L 522 432.49999999999994 L 523 431.49999999999994 L 523 431.49999999999994 L 524 430.49999999999994 L 524 430.49999999999994 L 525 429.49999999999994 L 525 429.49999999999994 L 526 428.49999999999994 L 526 428.49999999999994 L 527 427.49999999999994 L 527 427.49999999999994 L 528 426.49999999999994 L 528 426.49999999999994 L 529 425.49999999999994 L 529 425.49999999999994 L 530 424.49999999999994 L 530 424.49999999999994 L 531 423.49999999999994 L 531 423.49999999999994 L 532 422.4999999999999 L 532 422.4999999999999 L 533 421.4999999999999 L 533 421.4999999999999 L 534 420.4999999999999 L 534 420.4999999999999 L 535 419.4999999999999 L 535 419.4999999999999 L 536 418.4999999999999 L 536 418.4999999999999 L 537 417.4999999999999 L 537 417.4999999999999 L 538 416.4999999999999 L 538 416.4999999999999 L 539 415.4999999999999 L 539 415.4999999999999 L 540 414.4999999999999 L 540 414.4999999999999 L 541 413.4999999999999 L 541 413.4999999999999 L 542 412.4999999999999 L 542 412.4999999999999 L 543 411.4999999999999 L 543 411.4999999999999 L 544 410.4999999999999 L 544 410.4999999999999 L 545 409.4999999999999 L 545 409.4999999999999 L 546 408.49999999999983 L 546 408.49999999999983 L 547 407.49999999999983 L 547 407.49999999999983 L 548 406.49999999999983 L 548 406.49999999999983 L 549 405.49999999999983 L 549 405.49999999999983 L 550 404.49999999999983 L 550 404.49999999999983 L 551 403.49999999999983 L 551 403.49999999999983 L 552 402.49999999999983 L 552 402.49999999999983 L 553 401.49999999999983 L 553 401.49999999999983 L 554 400.49999999999983 L 554 400.49999999999983 L 555 399.49999999999983 L 555 399.49999999999983 L 556 398.49999999999983 L 556 398.49999999999983 L 557 397.49999999999983 L 557 397.49999999999983 L 558 396.4999999999998 L 558 396.4999999999998 L 559 395.4999999999998 L 559 395.4999999999998 L 560 394.4999999999998 L 560 394.4999999999998 L 561 393.4999999999998 L 561 393.4999999999998 L 562 392.4999999999998 L 562 392.4999999999998 L 563 391.4999999999998 L 563 391.4999999999998 L 564 390.4999999999998 L 564 390.4999999999998 L 565 389.4999999999998 L 565 389.4999999999998 L 566 388.4999999999998 L 566 388.4999999999998 L 567 387.4999999999998 L 567 387.4999999999998 L 568 386.4999999999998 L 568 386.4999999999998 L 569 385.4999999999998 L 569 385.4999999999998 L 570 384.4999999999998 L 570 384.4999999999998 L 571 383.4999999999998 L 571 383.4999999999998 L 572 382.4999999999997 L 572 382.4999999999997 L 573 381.4999999999997 L 573 381.4999999999997 L 574 380.4999999999997 L 574 380.4999999999997 L 575 379.4999999999997 L 575 379.4999999999997 L 576 378.4999999999997 L 576 378.4999999999997 L 577 377.4999999999997 L 577 377.4999999999997 L 578 376.4999999999997 L 578 376.4999999999997 L 579 375.4999999999997 L 579 375.4999999999997 L 580 374.4999999999997 L 580 374.4999999999997 L 581 373.49999999999966 L 581 373.49999999999966 L 582 372.49999999999966 L 582 372.49999999999966 L 583 371.49999999999966 L 583 371.49999999999966 L 584 370.49999999999966 L 584 370.49999999999966 L 585 369.49999999999966 L 585 369.49999999999966 L 586 368.49999999999966 L 586 368.49999999999966 L 587 367.49999999999966 L 587 367.49999999999966 L 588 366.49999999999966 L 588 366.49999999999966 L 589 365.49999999999966 L 589 365.49999999999966 L 590 364.49999999999966 L 590 364.49999999999966 L 591 363.49999999999966 L 591 363.49999999999966 L 592 362.49999999999966 L 592 362.49999999999966 L 593 361.49999999999966 L 593 361.49999999999966 L 594 360.49999999999966 L 594 360.49999999999966 L 595 359.49999999999966 L 595 359.49999999999966 L 596 358.49999999999966 L 596 358.49999999999966 L 597 357.4999999999996 L 597 357.4999999999996 L 598 356.4999999999996 L 598 356.4999999999996 L 599 355.4999999999996 L 599 355.4999999999996 L 600 354.4999999999996 L 600 354.4999999999996 L 601 353.4999999999996 L 601 353.4999999999996 L 602 352.4999999999996 L 602 352.4999999999996 L 603 351.4999999999996 L 603 351.4999999999996 L 604 350.4999999999996 L 604 350.4999999999996 L 605 349.4999999999996 L 605 349.4999999999996 L 606 348.4999999999996 L 606 348.4999999999996 L 607 347.4999999999996 L 607 347.4999999999996 L 608 346.49999999999955 L 608 346.49999999999955 L 609 345.49999999999955 L 609 345.49999999999955 L 610 344.49999999999955 L 610 344.49999999999955 L 611 343.49999999999955 L 611 343.49999999999955 L 612 342.49999999999955 L 612 342.49999999999955 L 613 341.49999999999955 L 613 341.49999999999955 L 614 340.49999999999955 L 614 340.49999999999955 L 615 339.49999999999955 L 615 339.49999999999955 L 616 338.49999999999955 L 616 338.49999999999955 L 617 337.49999999999955 L 617 337.49999999999955 L 618 336.49999999999955 L 618 336.49999999999955 L 619 335.49999999999955 L 619 335.49999999999955 L 620 334.49999999999955 L 620 334.49999999999955 L 621 333.49999999999955 L 621 333.49999999999955 L 622 332.4999999999995 L 622 332.4999999999995 L 623 331.4999999999995 L 623 331.4999999999995 L 624 330.4999999999995 L 624 330.4999999999995 L 625 329.49999999999955 L 625 329.49999999999955 L 626 328.4999999999995 L 626 328.4999999999995 L 627 327.4999999999995 L 627 327.4999999999995 L 628 326.4999999999995 L 628 326.4999999999995 L 629 325.4999999999995 L 629 325.4999999999995 L 630 324.4999999999995 L 630 324.4999999999995 L 631 323.4999999999995 L 631 323.4999999999995 L 632 322.4999999999995 L 632 322.4999999999995 L 633 321.4999999999995 L 633 321.4999999999995 L 634 320.49999999999943 L 634 320.49999999999943 L 635 319.49999999999943 L 635 319.49999999999943 L 636 318.49999999999943 L 636 318.49999999999943 L 637 317.49999999999943 L 637 317.49999999999943 L 638 316.49999999999943 L 638 316.49999999999943 L 639 315.49999999999943 L 639 315.49999999999943 L 640 314.49999999999943 L 640 314.49999999999943 L 641 313.49999999999943 L 641 313.49999999999943 L 642 312.49999999999943 L 642 312.49999999999943 L 643 311.49999999999943 L 643 311.49999999999943 L 644 310.49999999999943 L 644 310.49999999999943 L 645 309.49999999999943 L 645 309.49999999999943 L 646 308.49999999999943 L 646 308.49999999999943 L 647 307.49999999999943 L 647 307.49999999999943 L 648 306.49999999999943 L 648 306.49999999999943 L 649 305.4999999999994 L 649 305.4999999999994 L 650 304.4999999999994 L 650 304.4999999999994 L 651 303.4999999999994 L 651 303.4999999999994 L 652 302.4999999999994 L 652 302.4999999999994 L 653 301.4999999999994 L 653 301.4999999999994 L 654 300.4999999999994 L 654 300.4999999999994 L 655 299.4999999999993 L 655 299.4999999999993 L 656 298.4999999999993 L 656 298.4999999999993 L 657 297.4999999999993 L 657 297.4999999999993 L 658 296.4999999999994 L 658 296.4999999999994 L 659 295.4999999999993 L 659 295.4999999999993 L 660 294.4999999999993 L 660 294.4999999999993 L 661 293.4999999999993 L 661 293.4999999999993 L 662 292.4999999999993 L 662 292.4999999999993 L 663 291.4999999999993 L 663 291.4999999999993 L 664 290.4999999999993 L 664 290.4999999999993 L 665 289.4999999999993 L 665 289.4999999999993 L 666 288.4999999999993 L 666 288.4999999999993 L 667 287.4999999999993 L 667 287.4999999999993 L 668 286.4999999999993 L 668 286.4999999999993 L 669 285.4999999999993 L 669 285.4999999999993 L 670 284.4999999999993 L 670 284.4999999999993 L 671 283.4999999999993 L 671 283.4999999999993 L 672 282.4999999999993 L 672 282.4999999999993 L 673 281.4999999999993 L 673 281.4999999999993 L 674 280.4999999999993 L 674 280.4999999999993 L 675 279.4999999999993 L 675 279.4999999999993 L 676 278.49999999999926 L 676 278.49999999999926 L 677 277.49999999999926 L 677 277.49999999999926 L 678 276.49999999999926 L 678 276.49999999999926 L 679 275.49999999999926 L 679 275.49999999999926 L 680 274.49999999999926 L 680 274.49999999999926 L 681 273.4999999999992 L 681 273.4999999999992 L 682 272.4999999999992 L 682 272.4999999999992 L 683 271.4999999999992 L 683 271.4999999999992 L 684 270.4999999999992 L 684 270.4999999999992 L 685 269.4999999999992 L 685 269.4999999999992 L 686 268.4999999999992 L 686 268.4999999999992 L 687 267.4999999999992 L 687 267.4999999999992 L 688 266.4999999999992 L 688 266.4999999999992 L 689 265.4999999999992 L 689 265.4999999999992 L 690 264.4999999999992 L 690 264.4999999999992 L 691 263.4999999999992 L 691 263.4999999999992 L 692 262.4999999999992 L 692 262.4999999999992 L 693 261.4999999999992 L 693 261.4999999999992 L 694 260.4999999999992 L 694 260.4999999999992 L 695 259.4999999999992 L 695 259.4999999999992 L 696 258.4999999999992 L 696 258.4999999999992 L 697 257.4999999999992 L 697 257.4999999999992 L 698 256.4999999999992 L 698 256.4999999999992 L 699 255.49999999999918 L 699 255.49999999999918 L 700 254.49999999999918 L 700 254.49999999999918 L 701 253.49999999999918 L 701 253.49999999999918 L 702 252.49999999999915 L 702 252.49999999999915 L 703 251.49999999999915 L 703 251.49999999999915 L 704 250.49999999999915 L 704 250.49999999999915 L 705 249.49999999999915 L 705 249.49999999999915 L 706 248.49999999999915 L 706 248.49999999999915 L 707 247.49999999999915 L 707 247.49999999999915 L 708 246.49999999999912 L 708 246.49999999999912 L 709 245.49999999999912 L 709 245.49999999999912 L 710 244.49999999999912 L 710 244.49999999999912 L 711 243.49999999999912 L 711 243.49999999999912 L 712 242.49999999999912 L 712 242.49999999999912 L 713 241.4999999999991 L 713 241.4999999999991 L 714 240.49999999999912 L 714 240.49999999999912 L 715 239.4999999999991 L 715 239.4999999999991 L 716 238.49999999999912 L 716 238.49999999999912 L 717 237.4999999999991 L 717 237.4999999999991 L 718 236.4999999999991 L 718 236.4999999999991 L 719 235.49999999999906 L 719 235.49999999999906 L 720 234.4999999999991 L 720 234.4999999999991 L 721 233.49999999999906 L 721 233.49999999999906 L 722 232.4999999999991 L 722 232.4999999999991 L 723 231.49999999999906 L 723 231.49999999999906 L 724 230.49999999999906 L 724 230.49999999999906 L 725 229.49999999999903 L 725 229.49999999999903 L 726 228.49999999999906 L 726 228.49999999999906 L 727 227.49999999999903 L 727 227.49999999999903 L 728 226.49999999999903 L 728 226.49999999999903 L 729 225.49999999999903 L 729 225.49999999999903 L 730 224.49999999999903 L 730 224.49999999999903 L 731 223.499999999999 L 731 223.499999999999 L 732 222.49999999999903 L 732 222.49999999999903 L 733 221.499999999999 L 733 221.499999999999 L 734 220.499999999999 L 734 220.499999999999 L 735 219.49999999999898 L 735 219.49999999999898 L 736 218.499999999999 L 736 218.499999999999 L 737 217.49999999999903 L 737 217.49999999999903 L 738 216.499999999999 L 738 216.499999999999 L 739 215.499999999999 L 739 215.499999999999 L 740 214.49999999999898 L 740 214.49999999999898 L 741 213.499999999999 L 741 213.499999999999 L 742 212.49999999999898 L 742 212.49999999999898 L 743 211.499999999999 L 743 211.499999999999 L 744 210.49999999999898 L 744 210.49999999999898 L 745 209.49999999999898 L 745 209.49999999999898 L 746 208.49999999999895 L 746 208.49999999999895 L 747 207.49999999999898 L 747 207.49999999999898 L 748 206.49999999999895 L 748 206.49999999999895 L 749 205.49999999999895 L 749 205.49999999999895 L 750 204.49999999999895 L 750 204.49999999999895 L 751 203.49999999999895 L 751 203.49999999999895 L 752 202.49999999999892 L 752 202.49999999999892 L 753 201.49999999999895 L 753 201.49999999999895 L 754 200.49999999999892 L 754 200.49999999999892 L 755 199.49999999999892 L 755 199.49999999999892 L 756 198.4999999999989 L 756 198.4999999999989 L 757 197.49999999999892 L 757 197.49999999999892 L 758 196.4999999999989 L 758 196.4999999999989 L 759 195.49999999999892 L 759 195.49999999999892 L 760 194.4999999999989 L 760 194.4999999999989 L 761 193.4999999999989 L 761 193.4999999999989 L 762 192.49999999999886 L 762 192.49999999999886 L 763 191.4999999999989 L 763 191.4999999999989 L 764 190.49999999999886 L 764 190.49999999999886 L 765 189.4999999999989 L 765 189.4999999999989 L 766 188.49999999999886 L 766 188.49999999999886 L 767 187.49999999999886 L 767 187.49999999999886 L 768 186.49999999999883 L 768 186.49999999999883 L 769 185.49999999999886 L 769 185.49999999999886 L 770 184.49999999999886 L 770 184.49999999999886 L 771 183.49999999999886 L 771 183.49999999999886 L 772 182.49999999999886 L 772 182.49999999999886 L 773 181.49999999999886 L 773 181.49999999999886 L 774 180.49999999999886 L 774 180.49999999999886 L 775 179.4999999999988 L 775 179.4999999999988 L 776 178.49999999999886 L 776 178.49999999999886 L 777 177.4999999999988 L 777 177.4999999999988 L 778 176.4999999999988 L 778 176.4999999999988 L 779 175.4999999999988 L 779 175.4999999999988 L 780 174.4999999999988 L 780 174.4999999999988 L 781 173.4999999999988 L 781 173.4999999999988 L 782 172.4999999999988 L 782 172.4999999999988 L 783 171.4999999999988 L 783 171.4999999999988 L 784 170.4999999999988 L 784 170.4999999999988 L 785 169.49999999999875 L 785 169.49999999999875 L 786 168.4999999999988 L 786 168.4999999999988 L 787 167.49999999999875 L 787 167.49999999999875 L 788 166.4999999999988 L 788 166.4999999999988 L 789 165.49999999999875 L 789 165.49999999999875 L 790 164.49999999999875 L 790 164.49999999999875 L 791 163.49999999999875 L 791 163.49999999999875 L 792 162.49999999999875 L 792 162.49999999999875 L 793 161.49999999999875 L 793 161.49999999999875 L 794 160.49999999999875 L 794 160.49999999999875 L 795 159.49999999999875 L 795 159.49999999999875 L 796 158.49999999999875 L 796 158.49999999999875 L 797 157.4999999999987 L 797 157.4999999999987 L 798 156.49999999999875 L 798 156.49999999999875 L 799 155.4999999999987 L 799 155.4999999999987 L 800 154.49999999999875 L 800 154.49999999999875 L 801 153.4999999999987 L 801 153.4999999999987 L 802 152.4999999999987 L 802 152.4999999999987 L 803 151.49999999999875 L 803 151.49999999999875 L 804 150.4999999999987 L 804 150.4999999999987 L 805 149.4999999999987 L 805 149.4999999999987 L 806 148.4999999999987 L 806 148.4999999999987 L 807 147.4999999999987 L 807 147.4999999999987 L 808 146.4999999999987 L 808 146.4999999999987 L 809 145.4999999999987 L 809 145.4999999999987 L 810 144.4999999999987 L 810 144.4999999999987 L 811 143.4999999999987 L 811 143.4999999999987 L 812 142.49999999999864 L 812 142.49999999999864 L 813 141.4999999999987 L 813 141.4999999999987 L 814 140.49999999999864 L 814 140.49999999999864 L 815 139.4999999999987 L 815 139.4999999999987 L 816 138.49999999999864 L 816 138.49999999999864 L 817 137.49999999999864 L 817 137.49999999999864 L 818 136.49999999999864 L 818 136.49999999999864 L 819 135.49999999999864 L 819 135.49999999999864 L 820 134.49999999999864 L 820 134.49999999999864 L 821 133.49999999999864 L 821 133.49999999999864 L 822 132.49999999999864 L 822 132.49999999999864 L 823 131.49999999999864 L 823 131.49999999999864 L 824 130.49999999999858 L 824 130.49999999999858 L 825 129.49999999999864 L 825 129.49999999999864 L 826 128.49999999999858 L 826 128.49999999999858 L 827 127.49999999999858 L 827 127.49999999999858 L 828 126.49999999999858 L 828 126.49999999999858 L 829 125.49999999999858 L 829 125.49999999999858 L 830 124.49999999999858 L 830 124.49999999999858 L 831 123.49999999999858 L 831 123.49999999999858 L 832 122.49999999999858 L 832 122.49999999999858 L 833 121.49999999999858 L 833 121.49999999999858 L 834 120.49999999999858 L 834 120.49999999999858 L 835 119.49999999999858 L 835 119.49999999999858 L 836 118.49999999999858 L 836 118.49999999999858 L 837 117.49999999999858 L 837 117.49999999999858 L 838 116.49999999999858 L 838 116.49999999999858 L 839 115.49999999999852 L 839 115.49999999999852 L 840 114.49999999999858 L 840 114.49999999999858 L 841 113.49999999999852 L 841 113.49999999999852 L 842 112.49999999999852 L 842 112.49999999999852 L 843 111.49999999999852 L 843 111.49999999999852 L 844 110.49999999999852 L 844 110.49999999999852 L 845 109.49999999999852 L 845 109.49999999999852 L 846 108.49999999999852 L 846 108.49999999999852 L 847 107.49999999999852 L 847 107.49999999999852 L 848 106.49999999999852 L 848 106.49999999999852 L 849 105.49999999999847 L 849 105.49999999999847 L 850 104.49999999999852 L 850 104.49999999999852 L 851 103.49999999999847 L 851 103.49999999999847 L 852 102.49999999999852 L 852 102.49999999999852 L 853 101.49999999999847 L 853 101.49999999999847 L 854 100.49999999999847 L 854 100.49999999999847 L 855 99.49999999999847 L 855 99.49999999999847 L 856 98.49999999999847 L 856 98.49999999999847 L 857 97.49999999999847 L 857 97.49999999999847 L 858 96.49999999999847 L 858 96.49999999999847 L 859 95.49999999999847 L 859 95.49999999999847 L 860 94.49999999999847 L 860 94.49999999999847 L 861 93.49999999999841 L 861 93.49999999999841 L 862 92.49999999999847 L 862 92.49999999999847 L 863 91.49999999999841 L 863 91.49999999999841 L 864 90.49999999999841 L 864 90.49999999999841 L 865 89.49999999999847 L 865 89.49999999999847 L 866 88.49999999999841 L 866 88.49999999999841 L 867 87.49999999999847 L 867 87.49999999999847 L 868 86.49999999999841 L 868 86.49999999999841 L 869 85.49999999999841 L 869 85.49999999999841 L 870 84.49999999999841 L 870 84.49999999999841 L 871 83.49999999999841 L 871 83.49999999999841 L 872 82.49999999999841 L 872 82.49999999999841 L 873 81.49999999999841 L 873 81.49999999999841 L 874 80.49999999999841 L 874 80.49999999999841 L 875 79.49999999999841 L 875 79.49999999999841 L 876 78.49999999999835 L 876 78.49999999999835 L 877 77.49999999999841 L 877 77.49999999999841 L 878 76.49999999999835 L 878 76.49999999999835 L 879 75.49999999999841 L 879 75.49999999999841 L 880 74.49999999999835 L 880 74.49999999999835 L 881 73.49999999999835 L 881 73.49999999999835 L 882 72.49999999999835 L 882 72.49999999999835 L 883 71.49999999999835 L 883 71.49999999999835 L 884 70.49999999999835 L 884 70.49999999999835 L 885 69.49999999999835 L 885 69.49999999999835 L 886 68.4999999999983 L 886 68.4999999999983 L 887 67.49999999999835 L 887 67.49999999999835 L 888 66.4999999999983 L 888 66.4999999999983 L 889 65.49999999999835 L 889 65.49999999999835 L 890 64.4999999999983 L 890 64.4999999999983 L 891 63.499999999998295 L 891 63.499999999998295 L 892 62.499999999998295 L 892 62.499999999998295 L 893 61.499999999998295 L 893 61.499999999998295 L 894 60.499999999998295 L 894 60.499999999998295 L 895 59.499999999998295 L 895 59.499999999998295 L 896 58.499999999998295 L 896 58.499999999998295 L 897 57.499999999998295 L 897 57.499999999998295 L 898 56.499999999998295 L 898 56.499999999998295 L 899 55.499999999998295 L 899 55.499999999998295 L 900 54.499999999998295 L 900 54.499999999998295 L 901 53.499999999998295 L 901 53.499999999998295 L 902 52.499999999998295 L 902 52.499999999998295 L 903 51.49999999999824 L 903 51.49999999999824 L 904 50.499999999998295 L 904 50.499999999998295 L 905 49.49999999999824 L 905 49.49999999999824 L 906 48.49999999999824 L 906 48.49999999999824 L 907 47.49999999999824 L 907 47.49999999999824 L 908 46.49999999999824 L 908 46.49999999999824 L 909 45.49999999999824 L 909 45.49999999999824 L 910 44.49999999999824 L 910 44.49999999999824 L 911 43.49999999999824 L 911 43.49999999999824 L 912 42.49999999999824 L 912 42.49999999999824 L 913 41.49999999999818 L 913 41.49999999999818 L 914 40.49999999999824 L 914 40.49999999999824 L 915 39.49999999999824 L 915 39.49999999999824 L 916 38.49999999999818 L 916 38.49999999999818 L 917 37.49999999999818 L 917 37.49999999999818 L 918 36.49999999999818 L 918 36.49999999999818 L 919 35.49999999999824 L 919 35.49999999999824 L 920 34.499999999998124 L 920 34.499999999998124 L 921 33.49999999999818 L 921 33.49999999999818 L 922 32.49999999999818 L 922 32.49999999999818 L 923 31.49999999999818 L 923 31.49999999999818 L 924 30.499999999998124 L 924 30.499999999998124 L 925 29.499999999998124 L 925 29.499999999998124 L 926 28.49999999999818 L 926 28.49999999999818 L 927 27.49999999999818 L 927 27.49999999999818 L 928 26.499999999998124 L 928 26.499999999998124 L 929 25.499999999998124 L 929 25.499999999998124 L 930 24.499999999998124 L 930 24.499999999998124 L 931 23.49999999999818 L 931 23.49999999999818 L 932 22.49999999999818 L 932 22.49999999999818 L 933 21.499999999998124 L 933 21.499999999998124 L 934 20.499999999998124 L 934 20.499999999998124 L 935 19.499999999998124 L 935 19.499999999998124 L 936 18.49999999999818 L 936 18.49999999999818 L 937 17.499999999998067 L 937 17.499999999998067 L 938 16.499999999998124 L 938 16.499999999998124 L 939 15.499999999998124 L 939 15.499999999998124 L 940 14.499999999998124 L 940 14.499999999998124 L 941 13.499999999998067 L 941 13.499999999998067 L 942 12.499999999998067 L 942 12.499999999998067 L 943 11.499999999998067 L 943 11.499999999998067 L 944 10.499999999998124 L 944 10.499999999998124 L 945 9.499999999998067 L 945 9.499999999998067 L 946 8.499999999998067 L 946 8.499999999998067 L 947 7.499999999998067 L 947 7.499999999998067 L 948 6.499999999998067 L 948 6.499999999998067 L 949 5.4999999999980105 L 949 5.4999999999980105 L 950 4.4999999999980105 L 950 4.4999999999980105 L 951 3.4999999999980673 L 951 3.4999999999980673 L 952 2.4999999999980673 L 952 2.4999999999980673 L 953 1.4999999999980105 L 953 1.4999999999980105 L 954 0.4999999999980105 L 954 0.4999999999980105 L 955 -0.5000000000019895 L 955 -0.5000000000019895 L 956 -1.5000000000019327 L 956 -1.5000000000019327 L 957 -2.5000000000020464 L 957 -2.5000000000020464 L 958 -3.5000000000019895 L 958 -3.5000000000019895 L 959 -4.5000000000019895 L 959 -4.5000000000019895 L 960 -5.5000000000019895 L 960 -5.5000000000019895 L 961 -6.500000000001933 L 961 -6.500000000001933 L 962 -7.500000000002046 L 962 -7.500000000002046 L 963 -8.50000000000199 L 963 -8.50000000000199 L 964 -9.50000000000199 L 964 -9.50000000000199 L 965 -10.50000000000199 L 965 -10.50000000000199 L 966 -11.500000000002046 L 966 -11.500000000002046 L 967 -12.500000000002046 L 967 -12.500000000002046 L 968 -13.50000000000199 L 968 -13.50000000000199 L 969 -14.50000000000199 L 969 -14.50000000000199 L 970 -15.500000000002046 L 970 -15.500000000002046 L 971 -16.500000000002046 L 971 -16.500000000002046 L 972 -17.500000000002046 L 972 -17.500000000002046 L 973 -18.50000000000199 L 973 -18.50000000000199 L 974 -19.500000000002103 L 974 -19.500000000002103 L 975 -20.500000000002046 L 975 -20.500000000002046 L 976 -21.500000000002046 L 976 -21.500000000002046 L 977 -22.500000000002046 L 977 -22.500000000002046 L 978 -23.500000000002103 L 978 -23.500000000002103 L 979 -24.500000000002103 L 979 -24.500000000002103 L 980 -25.500000000002046 L 980 -25.500000000002046 L 981 -26.500000000002046 L 981 -26.500000000002046 L 982 -27.500000000002103 L 982 -27.500000000002103 L 983 -28.500000000002103 L 983 -28.500000000002103 L 984 -29.500000000002103 L 984 -29.500000000002103 L 985 -30.500000000002103 L 985 -30.500000000002103 L 986 -31.50000000000216 L 986 -31.50000000000216 L 987 -32.5000000000021 L 987 -32.5000000000021 L 988 -33.5000000000021 L 988 -33.5000000000021 L 989 -34.5000000000021 L 989 -34.5000000000021 L 990 -35.50000000000216 L 990 -35.50000000000216 L 991 -36.50000000000216 L 991 -36.50000000000216 L 992 -37.50000000000216 L 992 -37.50000000000216 L 993 -38.5000000000021 L 993 -38.5000000000021 L 994 -39.5000000000021 L 994 -39.5000000000021 L 995 -40.50000000000216 L 995 -40.50000000000216 L 996 -41.50000000000216 L 996 -41.50000000000216 L 997 -42.50000000000216 L 997 -42.50000000000216 L 998 -43.5000000000021 L 998 -43.5000000000021 L 999 -44.50000000000222 L 999 -44.50000000000222 L 1000 -45.50000000000216 L 1000 -45.50000000000216 L 1001 -46.50000000000216 L 1001 -46.50000000000216 L 1002 -47.50000000000216 L 1002 -47.50000000000216 L 1003 -48.50000000000222 L 1003 -48.50000000000222 L 1004 -49.50000000000222 L 1004 -49.50000000000222 L 1005 -50.50000000000216 L 1005 -50.50000000000216 L 1006 -51.50000000000216 L 1006 -51.50000000000216 L 1007 -52.50000000000222 L 1007 -52.50000000000222 L 1008 -53.50000000000222 L 1008 -53.50000000000222 L 1009 -54.50000000000222 L 1009 -54.50000000000222 L 1010 -55.50000000000216 L 1010 -55.50000000000216 L 1011 -56.500000000002274 L 1011 -56.500000000002274 L 1012 -57.50000000000222 L 1012 -57.50000000000222 L 1013 -58.50000000000222 L 1013 -58.50000000000222 L 1014 -59.50000000000222 L 1014 -59.50000000000222 L 1015 -60.500000000002274 L 1015 -60.500000000002274 L 1016 -61.500000000002274 L 1016 -61.500000000002274 L 1017 -62.50000000000222 L 1017 -62.50000000000222 L 1018 -63.50000000000222 L 1018 -63.50000000000222 L 1019 -64.50000000000227 L 1019 -64.50000000000227 L 1020 -65.50000000000227 L 1020 -65.50000000000227 L 1021 -66.50000000000227 L 1021 -66.50000000000227 L 1022 -67.50000000000222 L 1022 -67.50000000000222 L 1023 -68.50000000000233 L 1023 -68.50000000000233 L 1024 -69.50000000000227 L 1024 -69.50000000000227 L 1025 -70.50000000000227 L 1025 -70.50000000000227 L 1026 -71.50000000000227" stroke-opacity="0.8" stroke-linecap="round" stroke-linejoin="round" stroke-miterlimit="10" stroke-width="5"/><g transform="scale(31,31)"><g transform="translate(4.612903225806452,25.753580645161293)"><path fill="rgb(46,125,50)" stroke="none" paint-order="stroke fill markers" d=" M 0.334 -0.302 L 0.3 -0.165 Q 0.28300000000000003 -0.097 0.28300000000000003 -0.077 Q 0.28300000000000003 -0.025 0.32 -0.014 Q 0.328 -0.011 0.338 -0.011 Q 0.388 -0.011 0.429 -0.061 Q 0.456 -0.093 0.47100000000000003 -0.14200000000000002 Q 0.47400000000000003 -0.153 0.484 -0.153 Q 0.496 -0.153 0.496 -0.14300000000000002 Q 0.496 -0.11800000000000001 0.465 -0.07100000000000001 Q 0.41100000000000003 0.011 0.336 0.011 Q 0.268 0.011 0.23700000000000002 -0.046 Q 0.231 -0.055 0.228 -0.065 Q 0.20400000000000001 -0.017 0.162 0.002 Q 0.14300000000000002 0.011 0.123 0.011 Q 0.063 0.011 0.039 -0.024 Q 0.029 -0.037 0.029 -0.055 Q 0.029 -0.092 0.061 -0.107 Q 0.07200000000000001 -0.113 0.084 -0.113 Q 0.114 -0.113 0.12 -0.088 Q 0.121 -0.083 0.121 -0.078 Q 0.121 -0.044 0.08700000000000001 -0.028 Q 0.081 -0.025 0.074 -0.024 Q 0.095 -0.011 0.124 -0.011 Q 0.177 -0.011 0.20800000000000002 -0.082 Q 0.214 -0.097 0.219 -0.115 Q 0.273 -0.319 0.273 -0.353 Q 0.267 -0.41500000000000004 0.219 -0.42 Q 0.167 -0.42 0.124 -0.367 L 0.124 -0.366 Q 0.124 -0.365 0.123 -0.365 Q 0.108 -0.34500000000000003 0.096 -0.319 Q 0.091 -0.307 0.08700000000000001 -0.295 L 0.085 -0.289 Q 0.083 -0.278 0.07200000000000001 -0.278 Q 0.06 -0.278 0.06 -0.28800000000000003 Q 0.06 -0.313 0.092 -0.36 Q 0.146 -0.442 0.221 -0.442 Q 0.298 -0.442 0.329 -0.366 Q 0.361 -0.428 0.41400000000000003 -0.44 Q 0.424 -0.442 0.434 -0.442 Q 0.493 -0.442 0.517 -0.40900000000000003 Q 0.527 -0.395 0.527 -0.376 Q 0.527 -0.335 0.49 -0.321 Q 0.481 -0.318 0.47300000000000003 -0.318 Q 0.442 -0.318 0.436 -0.34500000000000003 Q 0.435 -0.34900000000000003 0.435 -0.353 Q 0.435 -0.383 0.464 -0.4 Q 0.47300000000000003 -0.405 0.483 -0.40700000000000003 Q 0.462 -0.42 0.433 -0.42 Q 0.365 -0.42 0.337 -0.314 Q 0.335 -0.308 0.334 -0.302 Z"/></g></g></g></g></svg>