<svg version="1.1" xmlns="http://www.w3.org/2000/svg" xmlns:xlink="http://www.w3.org/1999/xlink" width="1087" height="963"><defs><clipPath id="QyytHLFPXRMn"><path fill="none" stroke="none" d=" M 0 0 L 1087 0 L 1087 963 L 0 963 L 0 0 Z"/></clipPath></defs><g transform="scale(1,1)" clip-path="url(#QyytHLFPXRMn)"><g><rect fill="rgb(255,255,255)" stroke="none" x="0" y="0" width="1087" height="963" fill-opacity="1"/><path fill="none" stroke="rgb(192,192,192)" paint-order="fill stroke markers" d=" M 43.5 0.5 L 43.5 963.5 M 43.5 0.5 L 43.5 963.5 M 93.5 0.5 L 93.5 963.5 M 143.5 0.5 L 143.5 963.5 M 193.5 0.5 L 193.5 963.5 M 243.5 0.5 L 243.5 963.5 M 293.5 0.5 L 293.5 963.5 M 343.5 0.5 L 343.5 963.5 M 393.5 0.5 L 393.5 963.5 M 443.5 0.5 L 443.5 963.5 M 493.5 0.5 L 493.5 963.5 M 593.5 0.5 L 593.5 963.5 M 643.5 0.5 L 643.5 963.5 M 693.5 0.5 L 693.5 963.5 M 743.5 0.5 L 743.5 963.5 M 793.5 0.5 L 793.5 963.5 M 843.5 0.5 L 843.5 963.5 M 893.5 0.5 L 893.5 963.5 M 943.5 0.5 L 943.5 963.5 M 993.5 0.5 L 993.5 963.5 M 1043.5 0.5 L 1043.5 963.5" stroke-opacity="1" stroke-linecap="round" stroke-linejoin="round" stroke-miterlimit="10"/><path fill="none" stroke="rgb(192,192,192)" paint-order="fill stroke markers" d=" M 3.5 0.5 L 3.5 963.5 M 13.5 0.5 L 13.5 963.5 M 23.5 0.5 L 23.5 963.5 M 33.5 0.5 L 33.5 963.5 M 53.5 0.5 L 53.5 963.5 M 63.5 0.5 L 63.5 963.5 M 73.5 0.5 L 73.5 963.5 M 83.5 0.5 L 83.5 963.5 M 103.5 0.5 L 103.5 963.5 M 113.5 0.5 L 113.5 963.5 M 123.5 0.5 L 123.5 963.5 M 133.5 0.5 L 133.5 963.5 M 153.5 0.5 L 153.5 963.5 M 163.5 0.5 L 163.5 963.5 M 173.5 0.5 L 173.5 963.5 M 183.5 0.5 L 183.5 963.5 M 203.5 0.5 L 203.5 963.5 M 213.5 0.5 L 213.5 963.5 M 223.5 0.5 L 223.5 963.5 M 233.5 0.5 L 233.5 963.5 M 253.5 0.5 L 253.5 963.5 M 263.5 0.5 L 263.5 963.5 M 273.5 0.5 L 273.5 963.5 M 283.5 0.5 L 283.5 963.5 M 303.5 0.5 L 303.5 963.5 M 313.5 0.5 L 313.5 963.5 M 323.5 0.5 L 323.5 963.5 M 333.5 0.5 L 333.5 963.5 M 353.5 0.5 L 353.5 963.5 M 363.5 0.5 L 363.5 963.5 M 373.5 0.5 L 373.5 963.5 M 383.5 0.5 L 383.5 963.5 M 403.5 0.5 L 403.5 963.5 M 413.5 0.5 L 413.5 963.5 M 423.5 0.5 L 423.5 963.5 M 433.5 0.5 L 433.5 963.5 M 453.5 0.5 L 453.5 963.5 M 463.5 0.5 L 463.5 963.5 M 473.5 0.5 L 473.5 963.5 M 483.5 0.5 L 483.5 963.5 M 503.5 0.5 L 503.5 963.5 M 513.5 0.5 L 513.5 963.5 M 523.5 0.5 L 523.5 963.5 M 533.5 0.5 L 533.5 963.5 M 553.5 0.5 L 553.5 963.5 M 563.5 0.5 L 563.5 963.5 M 573.5 0.5 L 573.5 963.5 M 583.5 0.5 L 583.5 963.5 M 603.5 0.5 L 603.5 963.5 M 613.5 0.5 L 613.5 963.5 M 623.5 0.5 L 623.5 963.5 M 633.5 0.5 L 633.5 963.5 M 653.5 0.5 L 653.5 963.5 M 663.5 0.5 L 663.5 963.5 M 673.5 0.5 L 673.5 963.5 M 683.5 0.5 L 683.5 963.5 M 703.5 0.5 L 703.5 963.5 M 713.5 0.5 L 713.5 963.5 M 723.5 0.5 L 723.5 963.5 M 733.5 0.5 L 733.5 963.5 M 753.5 0.5 L 753.5 963.5 M 763.5 0.5 L 763.5 963.5 M 773.5 0.5 L 773.5 963.5 M 783.5 0.5 L 783.5 963.5 M 803.5 0.5 L 803.5 963.5 M 813.5 0.5 L 813.5 963.5 M 823.5 0.5 L 823.5 963.5 M 833.5 0.5 L 833.5 963.5 M 853.5 0.5 L 853.5 963.5 M 863.5 0.5 L 863.5 963.5 M 873.5 0.5 L 873.5 963.5 M 883.5 0.5 L 883.5 963.5 M 903.5 0.5 L 903.5 963.5 M 913.5 0.5 L 913.5 963.5 M 923.5 0.5 L 923.5 963.5 M 933.5 0.5 L 933.5 963.5 M 953.5 0.5 L 953.5 963.5 M 963.5 0.5 L 963.5 963.5 M 973.5 0.5 L 973.5 963.5 M 983.5 0.5 L 983.5 963.5 M 1003.5 0.5 L 1003.5 963.5 M 1013.5 0.5 L 1013.5 963.5 M 1023.5 0.5 L 1023.5 963.5 M 1033.5 0.5 L 1033.5 963.5 M 1053.5 0.5 L 1053.5 963.5 M 1063.5 0.5 L 1063.5 963.5 M 1073.5 0.5 L 1073.5 963.5 M 1083.5 0.5 L 1083.5 963.5" stroke-opacity="0.23529411764705882" stroke-linecap="round" stroke-linejoin="round" stroke-miterlimit="10"/><path fill="none" stroke="rgb(192,192,192)" paint-order="fill stroke markers" d=" M 0.5 31.5 L 1087.5 31.5 M 0.5 31.5 L 1087.5 31.5 M 0.5 81.5 L 1087.5 81.5 M 0.5 131.5 L 1087.5 131.5 M 0.5 181.5 L 1087.5 181.5 M 0.5 231.5 L 1087.5 231.5 M 0.5 281.5 L 1087.5 281.5 M 0.5 331.5 L 1087.5 331.5 M 0.5 381.5 L 1087.5 381.5 M 0.5 431.5 L 1087.5 431.5 M 0.5 531.5 L 1087.5 531.5 M 0.5 581.5 L 1087.5 581.5 M 0.5 631.5 L 1087.5 631.5 M 0.5 681.5 L 1087.5 681.5 M 0.5 731.5 L 1087.5 731.5 M 0.5 781.5 L 1087.5 781.5 M 0.5 831.5 L 1087.5 831.5 M 0.5 881.5 L 1087.5 881.5 M 0.5 931.5 L 1087.5 931.5" stroke-opacity="1" stroke-linecap="round" stroke-linejoin="round" stroke-miterlimit="10"/><path fill="none" stroke="rgb(192,192,192)" paint-order="fill stroke markers" d=" M 0.5 1.5 L 1087.5 1.5 M 0.5 1.5 L 1087.5 1.5 M 0.5 11.5 L 1087.5 11.5 M 0.5 21.5 L 1087.5 21.5 M 0.5 41.5 L 1087.5 41.5 M 0.5 51.5 L 1087.5 51.5 M 0.5 61.5 L 1087.5 61.5 M 0.5 71.5 L 1087.5 71.5 M 0.5 91.5 L 1087.5 91.5 M 0.5 101.5 L 1087.5 101.5 M 0.5 111.5 L 1087.5 111.5 M 0.5 121.5 L 1087.5 121.5 M 0.5 141.5 L 1087.5 141.5 M 0.5 151.5 L 1087.5 151.5 M 0.5 161.5 L 1087.5 161.5 M 0.5 171.5 L 1087.5 171.5 M 0.5 191.5 L 1087.5 191.5 M 0.5 201.5 L 1087.5 201.5 M 0.5 211.5 L 1087.5 211.5 M 0.5 221.5 L 1087.5 221.5 M 0.5 241.5 L 1087.5 241.5 M 0.5 251.5 L 1087.5 251.5 M 0.5 261.5 L 1087.5 261.5 M 0.5 271.5 L 1087.5 271.5 M 0.5 291.5 L 1087.5 291.5 M 0.5 301.5 L 1087.5 301.5 M 0.5 311.5 L 1087.5 311.5 M 0.5 321.5 L 1087.5 321.5 M 0.5 341.5 L 1087.5 341.5 M 0.5 351.5 L 1087.5 351.5 M 0.5 361.5 L 1087.5 361.5 M 0.5 371.5 L 1087.5 371.5 M 0.5 391.5 L 1087.5 391.5 M 0.5 401.5 L 1087.5 401.5 M 0.5 411.5 L 1087.5 411.5 M 0.5 421.5 L 1087.5 421.5 M 0.5 441.5 L 1087.5 441.5 M 0.5 451.5 L 1087.5 451.5 M 0.5 461.5 L 1087.5 461.5 M 0.5 471.5 L 1087.5 471.5 M 0.5 491.5 L 1087.5 491.5 M 0.5 501.5 L 1087.5 501.5 M 0.5 511.5 L 1087.5 511.5 M 0.5 521.5 L 1087.5 521.5 M 0.5 541.5 L 1087.5 541.5 M 0.5 551.5 L 1087.5 551.5 M 0.5 561.5 L 1087.5 561.5 M 0.5 571.5 L 1087.5 571.5 M 0.5 591.5 L 1087.5 591.5 M 0.5 601.5 L 1087.5 601.5 M 0.5 611.5 L 1087.5 611.5 M 0.5 621.5 L 1087.5 621.5 M 0.5 641.5 L 1087.5 641.5 M 0.5 651.5 L 1087.5 651.5 M 0.5 661.5 L 1087.5 661.5 M 0.5 671.5 L 1087.5 671.5 M 0.5 691.5 L 1087.5 691.5 M 0.5 701.5 L 1087.5 701.5 M 0.5 711.5 L 1087.5 711.5 M 0.5 721.5 L 1087.5 721.5 M 0.5 741.5 L 1087.5 741.5 M 0.5 751.5 L 1087.5 751.5 M 0.5 761.5 L 1087.5 761.5 M 0.5 771.5 L 1087.5 771.5 M 0.5 791.5 L 1087.5 791.5 M 0.5 801.5 L 1087.5 801.5 M 0.5 811.5 L 1087.5 811.5 M 0.5 821.5 L 1087.5 821.5 M 0.5 841.5 L 1087.5 841.5 M 0.5 851.5 L 1087.5 851.5 M 0.5 861.5 L 1087.5 861.5 M 0.5 871.5 L 1087.5 871.5 M 0.5 891.5 L 1087.5 891.5 M 0.5 901.5 L 1087.5 901.5 M 0.5 911.5 L 1087.5 911.5 M 0.5 921.5 L 1087.5 921.5 M 0.5 941.5 L 1087.5 941.5 M 0.5 951.5 L 1087.5 951.5 M 0.5 961.5 L 1087.5 961.5" stroke-opacity="0.23529411764705882" stroke-linecap="round" stroke-linejoin="round" stroke-miterlimit="10"/><path fill="none" stroke="rgb(37,37,37)" paint-order="fill stroke markers" d=" M 543.5 2.5 L 543.5 963.5" stroke-opacity="1" stroke-miterlimit="10"/><path fill="none" stroke="rgb(37,37,37)" paint-order="fill stroke markers" d=" M 543.5 1.5 L 537.5 7.5" stroke-opacity="1" stroke-miterlimit="10"/><path fill="none" stroke="rgb(37,37,37)" paint-order="fill stroke markers" d=" M 543.5 1.5 L 549.5 7.5" stroke-opacity="1" stroke-miterlimit="10"/><path fill="none" stroke="rgb(37,37,37)" paint-order="fill stroke markers" d=" M 0.5 481.5 L 1085.5 481.5" stroke-opacity="1" stroke-miterlimit="10"/><path fill="none" stroke="rgb(37,37,37)" paint-order="fill stroke markers" d=" M 1086.5 481.5 L 1080.5 475.5" stroke-opacity="1" stroke-miterlimit="10"/><path fill="none" stroke="rgb(37,37,37)" paint-order="fill stroke markers" d=" M 1086.5 481.5 L 1080.5 487.5" stroke-opacity="1" stroke-miterlimit="10"/><text fill="rgb(37,37,37)" stroke="none" font-family="geogebra-sans-serif, sans-serif" font-size="18px" font-style="normal" font-weight="normal" text-decoration="normal" x="31" y="503" text-anchor="start" dominant-baseline="alphabetic" fill-opacity="1">–10</text><text fill="none" stroke="rgb(255,255,255)" font-family="geogebra-sans-serif, sans-serif" font-size="18px" font-style="normal" font-weight="normal" text-decoration="normal" x="31" y="503" text-anchor="start" dominant-baseline="alphabetic" stroke-opacity="1" stroke-linejoin="bevel" stroke-miterlimit="10" stroke-width="3">–10</text><text fill="rgb(37,37,37)" stroke="none" font-family="geogebra-sans-serif, sans-serif" font-size="18px" font-style="normal" font-weight="normal" text-decoration="normal" x="31" y="503" text-anchor="start" dominant-baseline="alphabetic" fill-opacity="1">–10</text><text fill="rgb(37,37,37)" stroke="none" font-family="geogebra-sans-serif, sans-serif" font-size="18px" font-style="normal" font-weight="normal" text-decoration="normal" x="85" y="503" text-anchor="start" dominant-baseline="alphabetic" fill-opacity="1">–9</text><text fill="none" stroke="rgb(255,255,255)" font-family="geogebra-sans-serif, sans-serif" font-size="18px" font-style="normal" font-weight="normal" text-decoration="normal" x="85" y="503" text-anchor="start" dominant-baseline="alphabetic" stroke-opacity="1" stroke-linejoin="bevel" stroke-miterlimit="10" stroke-width="3">–9</text><text fill="rgb(37,37,37)" stroke="none" font-family="geogebra-sans-serif, sans-serif" font-size="18px" font-style="normal" font-weight="normal" text-decoration="normal" x="85" y="503" text-anchor="start" dominant-baseline="alphabetic" fill-opacity="1">–9</text><text fill="rgb(37,37,37)" stroke="none" font-family="geogebra-sans-serif, sans-serif" font-size="18px" font-style="normal" font-weight="normal" text-decoration="normal" x="135" y="503" text-anchor="start" dominant-baseline="alphabetic" fill-opacity="1">–8</text><text fill="none" stroke="rgb(255,255,255)" font-family="geogebra-sans-serif, sans-serif" font-size="18px" font-style="normal" font-weight="normal" text-decoration="normal" x="135" y="503" text-anchor="start" dominant-baseline="alphabetic" stroke-opacity="1" stroke-linejoin="bevel" stroke-miterlimit="10" stroke-width="3">–8</text><text fill="rgb(37,37,37)" stroke="none" font-family="geogebra-sans-serif, sans-serif" font-size="18px" font-style="normal" font-weight="normal" text-decoration="normal" x="135" y="503" text-anchor="start" dominant-baseline="alphabetic" fill-opacity="1">–8</text><text fill="rgb(37,37,37)" stroke="none" font-family="geogebra-sans-serif, sans-serif" font-size="18px" font-style="normal" font-weight="normal" text-decoration="normal" x="185" y="503" text-anchor="start" dominant-baseline="alphabetic" fill-opacity="1">–7</text><text fill="none" stroke="rgb(255,255,255)" font-family="geogebra-sans-serif, sans-serif" font-size="18px" font-style="normal" font-weight="normal" text-decoration="normal" x="185" y="503" text-anchor="start" dominant-baseline="alphabetic" stroke-opacity="1" stroke-linejoin="bevel" stroke-miterlimit="10" stroke-width="3">–7</text><text fill="rgb(37,37,37)" stroke="none" font-family="geogebra-sans-serif, sans-serif" font-size="18px" font-style="normal" font-weight="normal" text-decoration="normal" x="185" y="503" text-anchor="start" dominant-baseline="alphabetic" fill-opacity="1">–7</text><text fill="rgb(37,37,37)" stroke="none" font-family="geogebra-sans-serif, sans-serif" font-size="18px" font-style="normal" font-weight="normal" text-decoration="normal" x="235" y="503" text-anchor="start" dominant-baseline="alphabetic" fill-opacity="1">–6</text><text fill="none" stroke="rgb(255,255,255)" font-family="geogebra-sans-serif, sans-serif" font-size="18px" font-style="normal" font-weight="normal" text-decoration="normal" x="235" y="503" text-anchor="start" dominant-baseline="alphabetic" stroke-opacity="1" stroke-linejoin="bevel" stroke-miterlimit="10" stroke-width="3">–6</text><text fill="rgb(37,37,37)" stroke="none" font-family="geogebra-sans-serif, sans-serif" font-size="18px" font-style="normal" font-weight="normal" text-decoration="normal" x="235" y="503" text-anchor="start" dominant-baseline="alphabetic" fill-opacity="1">–6</text><text fill="rgb(37,37,37)" stroke="none" font-family="geogebra-sans-serif, sans-serif" font-size="18px" font-style="normal" font-weight="normal" text-decoration="normal" x="285" y="503" text-anchor="start" dominant-baseline="alphabetic" fill-opacity="1">–5</text><text fill="none" stroke="rgb(255,255,255)" font-family="geogebra-sans-serif, sans-serif" font-size="18px" font-style="normal" font-weight="normal" text-decoration="normal" x="285" y="503" text-anchor="start" dominant-baseline="alphabetic" stroke-opacity="1" stroke-linejoin="bevel" stroke-miterlimit="10" stroke-width="3">–5</text><text fill="rgb(37,37,37)" stroke="none" font-family="geogebra-sans-serif, sans-serif" font-size="18px" font-style="normal" font-weight="normal" text-decoration="normal" x="285" y="503" text-anchor="start" dominant-baseline="alphabetic" fill-opacity="1">–5</text><text fill="rgb(37,37,37)" stroke="none" font-family="geogebra-sans-serif, sans-serif" font-size="18px" font-style="normal" font-weight="normal" text-decoration="normal" x="335" y="503" text-anchor="start" dominant-baseline="alphabetic" fill-opacity="1">–4</text><text fill="none" stroke="rgb(255,255,255)" font-family="geogebra-sans-serif, sans-serif" font-size="18px" font-style="normal" font-weight="normal" text-decoration="normal" x="335" y="503" text-anchor="start" dominant-baseline="alphabetic" stroke-opacity="1" stroke-linejoin="bevel" stroke-miterlimit="10" stroke-width="3">–4</text><text fill="rgb(37,37,37)" stroke="none" font-family="geogebra-sans-serif, sans-serif" font-size="18px" font-style="normal" font-weight="normal" text-decoration="normal" x="335" y="503" text-anchor="start" dominant-baseline="alphabetic" fill-opacity="1">–4</text><text fill="rgb(37,37,37)" stroke="none" font-family="geogebra-sans-serif, sans-serif" font-size="18px" font-style="normal" font-weight="normal" text-decoration="normal" x="385" y="503" text-anchor="start" dominant-baseline="alphabetic" fill-opacity="1">–3</text><text fill="none" stroke="rgb(255,255,255)" font-family="geogebra-sans-serif, sans-serif" font-size="18px" font-style="normal" font-weight="normal" text-decoration="normal" x="385" y="503" text-anchor="start" dominant-baseline="alphabetic" stroke-opacity="1" stroke-linejoin="bevel" stroke-miterlimit="10" stroke-width="3">–3</text><text fill="rgb(37,37,37)" stroke="none" font-family="geogebra-sans-serif, sans-serif" font-size="18px" font-style="normal" font-weight="normal" text-decoration="normal" x="385" y="503" text-anchor="start" dominant-baseline="alphabetic" fill-opacity="1">–3</text><text fill="rgb(37,37,37)" stroke="none" font-family="geogebra-sans-serif, sans-serif" font-size="18px" font-style="normal" font-weight="normal" text-decoration="normal" x="435" y="503" text-anchor="start" dominant-baseline="alphabetic" fill-opacity="1">–2</text><text fill="none" stroke="rgb(255,255,255)" font-family="geogebra-sans-serif, sans-serif" font-size="18px" font-style="normal" font-weight="normal" text-decoration="normal" x="435" y="503" text-anchor="start" dominant-baseline="alphabetic" stroke-opacity="1" stroke-linejoin="bevel" stroke-miterlimit="10" stroke-width="3">–2</text><text fill="rgb(37,37,37)" stroke="none" font-family="geogebra-sans-serif, sans-serif" font-size="18px" font-style="normal" font-weight="normal" text-decoration="normal" x="435" y="503" text-anchor="start" dominant-baseline="alphabetic" fill-opacity="1">–2</text><text fill="rgb(37,37,37)" stroke="none" font-family="geogebra-sans-serif, sans-serif" font-size="18px" font-style="normal" font-weight="normal" text-decoration="normal" x="485" y="503" text-anchor="start" dominant-baseline="alphabetic" fill-opacity="1">–1</text><text fill="none" stroke="rgb(255,255,255)" font-family="geogebra-sans-serif, sans-serif" font-size="18px" font-style="normal" font-weight="normal" text-decoration="normal" x="485" y="503" text-anchor="start" dominant-baseline="alphabetic" stroke-opacity="1" stroke-linejoin="bevel" stroke-miterlimit="10" stroke-width="3">–1</text><text fill="rgb(37,37,37)" stroke="none" font-family="geogebra-sans-serif, sans-serif" font-size="18px" font-style="normal" font-weight="normal" text-decoration="normal" x="485" y="503" text-anchor="start" dominant-baseline="alphabetic" fill-opacity="1">–1</text><text fill="rgb(37,37,37)" stroke="none" font-family="geogebra-sans-serif, sans-serif" font-size="18px" font-style="normal" font-weight="normal" text-decoration="normal" x="590" y="503" text-anchor="start" dominant-baseline="alphabetic" fill-opacity="1">1</text><text fill="none" stroke="rgb(255,255,255)" font-family="geogebra-sans-serif, sans-serif" font-size="18px" font-style="normal" font-weight="normal" text-decoration="normal" x="590" y="503" text-anchor="start" dominant-baseline="alphabetic" stroke-opacity="1" stroke-linejoin="bevel" stroke-miterlimit="10" stroke-width="3">1</text><text fill="rgb(37,37,37)" stroke="none" font-family="geogebra-sans-serif, sans-serif" font-size="18px" font-style="normal" font-weight="normal" text-decoration="normal" x="590" y="503" text-anchor="start" dominant-baseline="alphabetic" fill-opacity="1">1</text><text fill="rgb(37,37,37)" stroke="none" font-family="geogebra-sans-serif, sans-serif" font-size="18px" font-style="normal" font-weight="normal" text-decoration="normal" x="640" y="503" text-anchor="start" dominant-baseline="alphabetic" fill-opacity="1">2</text><text fill="none" stroke="rgb(255,255,255)" font-family="geogebra-sans-serif, sans-serif" font-size="18px" font-style="normal" font-weight="normal" text-decoration="normal" x="640" y="503" text-anchor="start" dominant-baseline="alphabetic" stroke-opacity="1" stroke-linejoin="bevel" stroke-miterlimit="10" stroke-width="3">2</text><text fill="rgb(37,37,37)" stroke="none" font-family="geogebra-sans-serif, sans-serif" font-size="18px" font-style="normal" font-weight="normal" text-decoration="normal" x="640" y="503" text-anchor="start" dominant-baseline="alphabetic" fill-opacity="1">2</text><text fill="rgb(37,37,37)" stroke="none" font-family="geogebra-sans-serif, sans-serif" font-size="18px" font-style="normal" font-weight="normal" text-decoration="normal" x="690" y="503" text-anchor="start" dominant-baseline="alphabetic" fill-opacity="1">3</text><text fill="none" stroke="rgb(255,255,255)" font-family="geogebra-sans-serif, sans-serif" font-size="18px" font-style="normal" font-weight="normal" text-decoration="normal" x="690" y="503" text-anchor="start" dominant-baseline="alphabetic" stroke-opacity="1" stroke-linejoin="bevel" stroke-miterlimit="10" stroke-width="3">3</text><text fill="rgb(37,37,37)" stroke="none" font-family="geogebra-sans-serif, sans-serif" font-size="18px" font-style="normal" font-weight="normal" text-decoration="normal" x="690" y="503" text-anchor="start" dominant-baseline="alphabetic" fill-opacity="1">3</text><text fill="rgb(37,37,37)" stroke="none" font-family="geogebra-sans-serif, sans-serif" font-size="18px" font-style="normal" font-weight="normal" text-decoration="normal" x="740" y="503" text-anchor="start" dominant-baseline="alphabetic" fill-opacity="1">4</text><text fill="none" stroke="rgb(255,255,255)" font-family="geogebra-sans-serif, sans-serif" font-size="18px" font-style="normal" font-weight="normal" text-decoration="normal" x="740" y="503" text-anchor="start" dominant-baseline="alphabetic" stroke-opacity="1" stroke-linejoin="bevel" stroke-miterlimit="10" stroke-width="3">4</text><text fill="rgb(37,37,37)" stroke="none" font-family="geogebra-sans-serif, sans-serif" font-size="18px" font-style="normal" font-weight="normal" text-decoration="normal" x="740" y="503" text-anchor="start" dominant-baseline="alphabetic" fill-opacity="1">4</text><text fill="rgb(37,37,37)" stroke="none" font-family="geogebra-sans-serif, sans-serif" font-size="18px" font-style="normal" font-weight="normal" text-decoration="normal" x="790" y="503" text-anchor="start" dominant-baseline="alphabetic" fill-opacity="1">5</text><text fill="none" stroke="rgb(255,255,255)" font-family="geogebra-sans-serif, sans-serif" font-size="18px" font-style="normal" font-weight="normal" text-decoration="normal" x="790" y="503" text-anchor="start" dominant-baseline="alphabetic" stroke-opacity="1" stroke-linejoin="bevel" stroke-miterlimit="10" stroke-width="3">5</text><text fill="rgb(37,37,37)" stroke="none" font-family="geogebra-sans-serif, sans-serif" font-size="18px" font-style="normal" font-weight="normal" text-decoration="normal" x="790" y="503" text-anchor="start" dominant-baseline="alphabetic" fill-opacity="1">5</text><text fill="rgb(37,37,37)" stroke="none" font-family="geogebra-sans-serif, sans-serif" font-size="18px" font-style="normal" font-weight="normal" text-decoration="normal" x="840" y="503" text-anchor="start" dominant-baseline="alphabetic" fill-opacity="1">6</text><text fill="none" stroke="rgb(255,255,255)" font-family="geogebra-sans-serif, sans-serif" font-size="18px" font-style="normal" font-weight="normal" text-decoration="normal" x="840" y="503" text-anchor="start" dominant-baseline="alphabetic" stroke-opacity="1" stroke-linejoin="bevel" stroke-miterlimit="10" stroke-width="3">6</text><text fill="rgb(37,37,37)" stroke="none" font-family="geogebra-sans-serif, sans-serif" font-size="18px" font-style="normal" font-weight="normal" text-decoration="normal" x="840" y="503" text-anchor="start" dominant-baseline="alphabetic" fill-opacity="1">6</text><text fill="rgb(37,37,37)" stroke="none" font-family="geogebra-sans-serif, sans-serif" font-size="18px" font-style="normal" font-weight="normal" text-decoration="normal" x="890" y="503" text-anchor="start" dominant-baseline="alphabetic" fill-opacity="1">7</text><text fill="none" stroke="rgb(255,255,255)" font-family="geogebra-sans-serif, sans-serif" font-size="18px" font-style="normal" font-weight="normal" text-decoration="normal" x="890" y="503" text-anchor="start" dominant-baseline="alphabetic" stroke-opacity="1" stroke-linejoin="bevel" stroke-miterlimit="10" stroke-width="3">7</text><text fill="rgb(37,37,37)" stroke="none" font-family="geogebra-sans-serif, sans-serif" font-size="18px" font-style="normal" font-weight="normal" text-decoration="normal" x="890" y="503" text-anchor="start" dominant-baseline="alphabetic" fill-opacity="1">7</text><text fill="rgb(37,37,37)" stroke="none" font-family="geogebra-sans-serif, sans-serif" font-size="18px" font-style="normal" font-weight="normal" text-decoration="normal" x="940" y="503" text-anchor="start" dominant-baseline="alphabetic" fill-opacity="1">8</text><text fill="none" stroke="rgb(255,255,255)" font-family="geogebra-sans-serif, sans-serif" font-size="18px" font-style="normal" font-weight="normal" text-decoration="normal" x="940" y="503" text-anchor="start" dominant-baseline="alphabetic" stroke-opacity="1" stroke-linejoin="bevel" stroke-miterlimit="10" stroke-width="3">8</text><text fill="rgb(37,37,37)" stroke="none" font-family="geogebra-sans-serif, sans-serif" font-size="18px" font-style="normal" font-weight="normal" text-decoration="normal" x="940" y="503" text-anchor="start" dominant-baseline="alphabetic" fill-opacity="1">8</text><text fill="rgb(37,37,37)" stroke="none" font-family="geogebra-sans-serif, sans-serif" font-size="18px" font-style="normal" font-weight="normal" text-decoration="normal" x="990" y="503" text-anchor="start" dominant-baseline="alphabetic" fill-opacity="1">9</text><text fill="none" stroke="rgb(255,255,255)" font-family="geogebra-sans-serif, sans-serif" font-size="18px" font-style="normal" font-weight="normal" text-decoration="normal" x="990" y="503" text-anchor="start" dominant-baseline="alphabetic" stroke-opacity="1" stroke-linejoin="bevel" stroke-miterlimit="10" stroke-width="3">9</text><text fill="rgb(37,37,37)" stroke="none" font-family="geogebra-sans-serif, sans-serif" font-size="18px" font-style="normal" font-weight="normal" text-decoration="normal" x="990" y="503" text-anchor="start" dominant-baseline="alphabetic" fill-opacity="1">9</text><text fill="rgb(37,37,37)" stroke="none" font-family="geogebra-sans-serif, sans-serif" font-size="18px" font-style="normal" font-weight="normal" text-decoration="normal" x="1035" y="503" text-anchor="start" dominant-baseline="alphabetic" fill-opacity="1">10</text><text fill="none" stroke="rgb(255,255,255)" font-family="geogebra-sans-serif, sans-serif" font-size="18px" font-style="normal" font-weight="normal" text-decoration="normal" x="1035" y="503" text-anchor="start" dominant-baseline="alphabetic" stroke-opacity="1" stroke-linejoin="bevel" stroke-miterlimit="10" stroke-width="3">10</text><text fill="rgb(37,37,37)" stroke="none" font-family="geogebra-sans-serif, sans-serif" font-size="18px" font-style="normal" font-weight="normal" text-decoration="normal" x="1035" y="503" text-anchor="start" dominant-baseline="alphabetic" fill-opacity="1">10</text><text fill="rgb(37,37,37)" stroke="none" font-family="geogebra-sans-serif, sans-serif" font-size="18px" font-style="normal" font-weight="normal" text-decoration="normal" x="515" y="939" text-anchor="start" dominant-baseline="alphabetic" fill-opacity="1">–9</text><text fill="none" stroke="rgb(255,255,255)" font-family="geogebra-sans-serif, sans-serif" font-size="18px" font-style="normal" font-weight="normal" text-decoration="normal" x="515" y="939" text-anchor="start" dominant-baseline="alphabetic" stroke-opacity="1" stroke-linejoin="bevel" stroke-miterlimit="10" stroke-width="3">–9</text><text fill="rgb(37,37,37)" stroke="none" font-family="geogebra-sans-serif, sans-serif" font-size="18px" font-style="normal" font-weight="normal" text-decoration="normal" x="515" y="939" text-anchor="start" dominant-baseline="alphabetic" fill-opacity="1">–9</text><text fill="rgb(37,37,37)" stroke="none" font-family="geogebra-sans-serif, sans-serif" font-size="18px" font-style="normal" font-weight="normal" text-decoration="normal" x="515" y="889" text-anchor="start" dominant-baseline="alphabetic" fill-opacity="1">–8</text><text fill="none" stroke="rgb(255,255,255)" font-family="geogebra-sans-serif, sans-serif" font-size="18px" font-style="normal" font-weight="normal" text-decoration="normal" x="515" y="889" text-anchor="start" dominant-baseline="alphabetic" stroke-opacity="1" stroke-linejoin="bevel" stroke-miterlimit="10" stroke-width="3">–8</text><text fill="rgb(37,37,37)" stroke="none" font-family="geogebra-sans-serif, sans-serif" font-size="18px" font-style="normal" font-weight="normal" text-decoration="normal" x="515" y="889" text-anchor="start" dominant-baseline="alphabetic" fill-opacity="1">–8</text><text fill="rgb(37,37,37)" stroke="none" font-family="geogebra-sans-serif, sans-serif" font-size="18px" font-style="normal" font-weight="normal" text-decoration="normal" x="515" y="839" text-anchor="start" dominant-baseline="alphabetic" fill-opacity="1">–7</text><text fill="none" stroke="rgb(255,255,255)" font-family="geogebra-sans-serif, sans-serif" font-size="18px" font-style="normal" font-weight="normal" text-decoration="normal" x="515" y="839" text-anchor="start" dominant-baseline="alphabetic" stroke-opacity="1" stroke-linejoin="bevel" stroke-miterlimit="10" stroke-width="3">–7</text><text fill="rgb(37,37,37)" stroke="none" font-family="geogebra-sans-serif, sans-serif" font-size="18px" font-style="normal" font-weight="normal" text-decoration="normal" x="515" y="839" text-anchor="start" dominant-baseline="alphabetic" fill-opacity="1">–7</text><text fill="rgb(37,37,37)" stroke="none" font-family="geogebra-sans-serif, sans-serif" font-size="18px" font-style="normal" font-weight="normal" text-decoration="normal" x="515" y="789" text-anchor="start" dominant-baseline="alphabetic" fill-opacity="1">–6</text><text fill="none" stroke="rgb(255,255,255)" font-family="geogebra-sans-serif, sans-serif" font-size="18px" font-style="normal" font-weight="normal" text-decoration="normal" x="515" y="789" text-anchor="start" dominant-baseline="alphabetic" stroke-opacity="1" stroke-linejoin="bevel" stroke-miterlimit="10" stroke-width="3">–6</text><text fill="rgb(37,37,37)" stroke="none" font-family="geogebra-sans-serif, sans-serif" font-size="18px" font-style="normal" font-weight="normal" text-decoration="normal" x="515" y="789" text-anchor="start" dominant-baseline="alphabetic" fill-opacity="1">–6</text><text fill="rgb(37,37,37)" stroke="none" font-family="geogebra-sans-serif, sans-serif" font-size="18px" font-style="normal" font-weight="normal" text-decoration="normal" x="515" y="739" text-anchor="start" dominant-baseline="alphabetic" fill-opacity="1">–5</text><text fill="none" stroke="rgb(255,255,255)" font-family="geogebra-sans-serif, sans-serif" font-size="18px" font-style="normal" font-weight="normal" text-decoration="normal" x="515" y="739" text-anchor="start" dominant-baseline="alphabetic" stroke-opacity="1" stroke-linejoin="bevel" stroke-miterlimit="10" stroke-width="3">–5</text><text fill="rgb(37,37,37)" stroke="none" font-family="geogebra-sans-serif, sans-serif" font-size="18px" font-style="normal" font-weight="normal" text-decoration="normal" x="515" y="739" text-anchor="start" dominant-baseline="alphabetic" fill-opacity="1">–5</text><text fill="rgb(37,37,37)" stroke="none" font-family="geogebra-sans-serif, sans-serif" font-size="18px" font-style="normal" font-weight="normal" text-decoration="normal" x="515" y="689" text-anchor="start" dominant-baseline="alphabetic" fill-opacity="1">–4</text><text fill="none" stroke="rgb(255,255,255)" font-family="geogebra-sans-serif, sans-serif" font-size="18px" font-style="normal" font-weight="normal" text-decoration="normal" x="515" y="689" text-anchor="start" dominant-baseline="alphabetic" stroke-opacity="1" stroke-linejoin="bevel" stroke-miterlimit="10" stroke-width="3">–4</text><text fill="rgb(37,37,37)" stroke="none" font-family="geogebra-sans-serif, sans-serif" font-size="18px" font-style="normal" font-weight="normal" text-decoration="normal" x="515" y="689" text-anchor="start" dominant-baseline="alphabetic" fill-opacity="1">–4</text><text fill="rgb(37,37,37)" stroke="none" font-family="geogebra-sans-serif, sans-serif" font-size="18px" font-style="normal" font-weight="normal" text-decoration="normal" x="515" y="639" text-anchor="start" dominant-baseline="alphabetic" fill-opacity="1">–3</text><text fill="none" stroke="rgb(255,255,255)" font-family="geogebra-sans-serif, sans-serif" font-size="18px" font-style="normal" font-weight="normal" text-decoration="normal" x="515" y="639" text-anchor="start" dominant-baseline="alphabetic" stroke-opacity="1" stroke-linejoin="bevel" stroke-miterlimit="10" stroke-width="3">–3</text><text fill="rgb(37,37,37)" stroke="none" font-family="geogebra-sans-serif, sans-serif" font-size="18px" font-style="normal" font-weight="normal" text-decoration="normal" x="515" y="639" text-anchor="start" dominant-baseline="alphabetic" fill-opacity="1">–3</text><text fill="rgb(37,37,37)" stroke="none" font-family="geogebra-sans-serif, sans-serif" font-size="18px" font-style="normal" font-weight="normal" text-decoration="normal" x="515" y="589" text-anchor="start" dominant-baseline="alphabetic" fill-opacity="1">–2</text><text fill="none" stroke="rgb(255,255,255)" font-family="geogebra-sans-serif, sans-serif" font-size="18px" font-style="normal" font-weight="normal" text-decoration="normal" x="515" y="589" text-anchor="start" dominant-baseline="alphabetic" stroke-opacity="1" stroke-linejoin="bevel" stroke-miterlimit="10" stroke-width="3">–2</text><text fill="rgb(37,37,37)" stroke="none" font-family="geogebra-sans-serif, sans-serif" font-size="18px" font-style="normal" font-weight="normal" text-decoration="normal" x="515" y="589" text-anchor="start" dominant-baseline="alphabetic" fill-opacity="1">–2</text><text fill="rgb(37,37,37)" stroke="none" font-family="geogebra-sans-serif, sans-serif" font-size="18px" font-style="normal" font-weight="normal" text-decoration="normal" x="515" y="539" text-anchor="start" dominant-baseline="alphabetic" fill-opacity="1">–1</text><text fill="none" stroke="rgb(255,255,255)" font-family="geogebra-sans-serif, sans-serif" font-size="18px" font-style="normal" font-weight="normal" text-decoration="normal" x="515" y="539" text-anchor="start" dominant-baseline="alphabetic" stroke-opacity="1" stroke-linejoin="bevel" stroke-miterlimit="10" stroke-width="3">–1</text><text fill="rgb(37,37,37)" stroke="none" font-family="geogebra-sans-serif, sans-serif" font-size="18px" font-style="normal" font-weight="normal" text-decoration="normal" x="515" y="539" text-anchor="start" dominant-baseline="alphabetic" fill-opacity="1">–1</text><text fill="rgb(37,37,37)" stroke="none" font-family="geogebra-sans-serif, sans-serif" font-size="18px" font-style="normal" font-weight="normal" text-decoration="normal" x="525" y="439" text-anchor="start" dominant-baseline="alphabetic" fill-opacity="1">1</text><text fill="none" stroke="rgb(255,255,255)" font-family="geogebra-sans-serif, sans-serif" font-size="18px" font-style="normal" font-weight="normal" text-decoration="normal" x="525" y="439" text-anchor="start" dominant-baseline="alphabetic" stroke-opacity="1" stroke-linejoin="bevel" stroke-miterlimit="10" stroke-width="3">1</text><text fill="rgb(37,37,37)" stroke="none" font-family="geogebra-sans-serif, sans-serif" font-size="18px" font-style="normal" font-weight="normal" text-decoration="normal" x="525" y="439" text-anchor="start" dominant-baseline="alphabetic" fill-opacity="1">1</text><text fill="rgb(37,37,37)" stroke="none" font-family="geogebra-sans-serif, sans-serif" font-size="18px" font-style="normal" font-weight="normal" text-decoration="normal" x="525" y="389" text-anchor="start" dominant-baseline="alphabetic" fill-opacity="1">2</text><text fill="none" stroke="rgb(255,255,255)" font-family="geogebra-sans-serif, sans-serif" font-size="18px" font-style="normal" font-weight="normal" text-decoration="normal" x="525" y="389" text-anchor="start" dominant-baseline="alphabetic" stroke-opacity="1" stroke-linejoin="bevel" stroke-miterlimit="10" stroke-width="3">2</text><text fill="rgb(37,37,37)" stroke="none" font-family="geogebra-sans-serif, sans-serif" font-size="18px" font-style="normal" font-weight="normal" text-decoration="normal" x="525" y="389" text-anchor="start" dominant-baseline="alphabetic" fill-opacity="1">2</text><text fill="rgb(37,37,37)" stroke="none" font-family="geogebra-sans-serif, sans-serif" font-size="18px" font-style="normal" font-weight="normal" text-decoration="normal" x="525" y="339" text-anchor="start" dominant-baseline="alphabetic" fill-opacity="1">3</text><text fill="none" stroke="rgb(255,255,255)" font-family="geogebra-sans-serif, sans-serif" font-size="18px" font-style="normal" font-weight="normal" text-decoration="normal" x="525" y="339" text-anchor="start" dominant-baseline="alphabetic" stroke-opacity="1" stroke-linejoin="bevel" stroke-miterlimit="10" stroke-width="3">3</text><text fill="rgb(37,37,37)" stroke="none" font-family="geogebra-sans-serif, sans-serif" font-size="18px" font-style="normal" font-weight="normal" text-decoration="normal" x="525" y="339" text-anchor="start" dominant-baseline="alphabetic" fill-opacity="1">3</text><text fill="rgb(37,37,37)" stroke="none" font-family="geogebra-sans-serif, sans-serif" font-size="18px" font-style="normal" font-weight="normal" text-decoration="normal" x="525" y="289" text-anchor="start" dominant-baseline="alphabetic" fill-opacity="1">4</text><text fill="none" stroke="rgb(255,255,255)" font-family="geogebra-sans-serif, sans-serif" font-size="18px" font-style="normal" font-weight="normal" text-decoration="normal" x="525" y="289" text-anchor="start" dominant-baseline="alphabetic" stroke-opacity="1" stroke-linejoin="bevel" stroke-miterlimit="10" stroke-width="3">4</text><text fill="rgb(37,37,37)" stroke="none" font-family="geogebra-sans-serif, sans-serif" font-size="18px" font-style="normal" font-weight="normal" text-decoration="normal" x="525" y="289" text-anchor="start" dominant-baseline="alphabetic" fill-opacity="1">4</text><text fill="rgb(37,37,37)" stroke="none" font-family="geogebra-sans-serif, sans-serif" font-size="18px" font-style="normal" font-weight="normal" text-decoration="normal" x="525" y="239" text-anchor="start" dominant-baseline="alphabetic" fill-opacity="1">5</text><text fill="none" stroke="rgb(255,255,255)" font-family="geogebra-sans-serif, sans-serif" font-size="18px" font-style="normal" font-weight="normal" text-decoration="normal" x="525" y="239" text-anchor="start" dominant-baseline="alphabetic" stroke-opacity="1" stroke-linejoin="bevel" stroke-miterlimit="10" stroke-width="3">5</text><text fill="rgb(37,37,37)" stroke="none" font-family="geogebra-sans-serif, sans-serif" font-size="18px" font-style="normal" font-weight="normal" text-decoration="normal" x="525" y="239" text-anchor="start" dominant-baseline="alphabetic" fill-opacity="1">5</text><text fill="rgb(37,37,37)" stroke="none" font-family="geogebra-sans-serif, sans-serif" font-size="18px" font-style="normal" font-weight="normal" text-decoration="normal" x="525" y="189" text-anchor="start" dominant-baseline="alphabetic" fill-opacity="1">6</text><text fill="none" stroke="rgb(255,255,255)" font-family="geogebra-sans-serif, sans-serif" font-size="18px" font-style="normal" font-weight="normal" text-decoration="normal" x="525" y="189" text-anchor="start" dominant-baseline="alphabetic" stroke-opacity="1" stroke-linejoin="bevel" stroke-miterlimit="10" stroke-width="3">6</text><text fill="rgb(37,37,37)" stroke="none" font-family="geogebra-sans-serif, sans-serif" font-size="18px" font-style="normal" font-weight="normal" text-decoration="normal" x="525" y="189" text-anchor="start" dominant-baseline="alphabetic" fill-opacity="1">6</text><text fill="rgb(37,37,37)" stroke="none" font-family="geogebra-sans-serif, sans-serif" font-size="18px" font-style="normal" font-weight="normal" text-decoration="normal" x="525" y="139" text-anchor="start" dominant-baseline="alphabetic" fill-opacity="1">7</text><text fill="none" stroke="rgb(255,255,255)" font-family="geogebra-sans-serif, sans-serif" font-size="18px" font-style="normal" font-weight="normal" text-decoration="normal" x="525" y="139" text-anchor="start" dominant-baseline="alphabetic" stroke-opacity="1" stroke-linejoin="bevel" stroke-miterlimit="10" stroke-width="3">7</text><text fill="rgb(37,37,37)" stroke="none" font-family="geogebra-sans-serif, sans-serif" font-size="18px" font-style="normal" font-weight="normal" text-decoration="normal" x="525" y="139" text-anchor="start" dominant-baseline="alphabetic" fill-opacity="1">7</text><text fill="rgb(37,37,37)" stroke="none" font-family="geogebra-sans-serif, sans-serif" font-size="18px" font-style="normal" font-weight="normal" text-decoration="normal" x="525" y="89" text-anchor="start" dominant-baseline="alphabetic" fill-opacity="1">8</text><text fill="none" stroke="rgb(255,255,255)" font-family="geogebra-sans-serif, sans-serif" font-size="18px" font-style="normal" font-weight="normal" text-decoration="normal" x="525" y="89" text-anchor="start" dominant-baseline="alphabetic" stroke-opacity="1" stroke-linejoin="bevel" stroke-miterlimit="10" stroke-width="3">8</text><text fill="rgb(37,37,37)" stroke="none" font-family="geogebra-sans-serif, sans-serif" font-size="18px" font-style="normal" font-weight="normal" text-decoration="normal" x="525" y="89" text-anchor="start" dominant-baseline="alphabetic" fill-opacity="1">8</text><text fill="rgb(37,37,37)" stroke="none" font-family="geogebra-sans-serif, sans-serif" font-size="18px" font-style="normal" font-weight="normal" text-decoration="normal" x="525" y="39" text-anchor="start" dominant-baseline="alphabetic" fill-opacity="1">9</text><text fill="none" stroke="rgb(255,255,255)" font-family="geogebra-sans-serif, sans-serif" font-size="18px" font-style="normal" font-weight="normal" text-decoration="normal" x="525" y="39" text-anchor="start" dominant-baseline="alphabetic" stroke-opacity="1" stroke-linejoin="bevel" stroke-miterlimit="10" stroke-width="3">9</text><text fill="rgb(37,37,37)" stroke="none" font-family="geogebra-sans-serif, sans-serif" font-size="18px" font-style="normal" font-weight="normal" text-decoration="normal" x="525" y="39" text-anchor="start" dominant-baseline="alphabetic" fill-opacity="1">9</text><text fill="rgb(37,37,37)" stroke="none" font-family="geogebra-sans-serif, sans-serif" font-size="18px" font-style="normal" font-weight="normal" text-decoration="normal" x="525" y="503" text-anchor="start" dominant-baseline="alphabetic" fill-opacity="1">0</text><text fill="none" stroke="rgb(255,255,255)" font-family="geogebra-sans-serif, sans-serif" font-size="18px" font-style="normal" font-weight="normal" text-decoration="normal" x="525" y="503" text-anchor="start" dominant-baseline="alphabetic" stroke-opacity="1" stroke-linejoin="bevel" stroke-miterlimit="10" stroke-width="3">0</text><text fill="rgb(37,37,37)" stroke="none" font-family="geogebra-sans-serif, sans-serif" font-size="18px" font-style="normal" font-weight="normal" text-decoration="normal" x="525" y="503" text-anchor="start" dominant-baseline="alphabetic" fill-opacity="1">0</text><path fill="none" stroke="rgb(204,102,255)" paint-order="fill stroke markers" d=" M 0.5 481.4730980196319 L 0.5 481.4734683871454 L 0.5 481.4730980196319 L 1.5000000000001137 481.47272248198067 L 1.5000000000001137 481.47272248198067 L 2.5 481.47234170201915 L 2.5 481.47234170201915 L 3.5 481.47195560656746 L 3.5 481.47195560656746 L 4.5 481.47156412142414 L 4.5 481.47156412142414 L 5.500000000000114 481.4711671713518 L 5.500000000000114 481.4711671713518 L 6.5 481.47076468006304 L 6.5 481.47076468006304 L 7.5 481.4703565702052 L 7.5 481.4703565702052 L 8.5 481.46994276334607 L 8.5 481.46994276334607 L 9.500000000000114 481.46952317995846 L 9.500000000000114 481.46952317995846 L 10.5 481.469097739405 L 10.5 481.469097739405 L 11.5 481.4686663599228 L 11.5 481.4686663599228 L 12.5 481.46822895860737 L 12.5 481.46822895860737 L 13.500000000000114 481.46778545139716 L 13.500000000000114 481.46778545139716 L 14.5 481.467335753057 L 14.5 481.467335753057 L 15.5 481.4668797771619 L 15.5 481.4668797771619 L 16.5 481.4664174360806 L 16.5 481.4664174360806 L 17.500000000000114 481.46594864095823 L 17.500000000000114 481.46594864095823 L 18.5 481.4654733016999 L 18.5 481.4654733016999 L 19.5 481.4649913269527 L 19.5 481.4649913269527 L 20.5 481.4645026240889 L 20.5 481.4645026240889 L 21.500000000000114 481.46400709918726 L 21.500000000000114 481.46400709918726 L 22.5 481.46350465701573 L 22.5 481.46350465701573 L 23.5 481.4629952010129 L 23.5 481.4629952010129 L 24.5 481.4624786332693 L 24.5 481.4624786332693 L 25.500000000000114 481.46195485450875 L 25.500000000000114 481.46195485450875 L 26.5 481.4614237640692 L 26.5 481.4614237640692 L 27.5 481.4608852598833 L 27.5 481.4608852598833 L 28.5 481.46033923845914 L 28.5 481.46033923845914 L 29.500000000000114 481.45978559485997 L 29.500000000000114 481.45978559485997 L 30.5 481.45922422268416 L 30.5 481.45922422268416 L 31.500000000000057 481.4586550140448 L 31.500000000000057 481.4586550140448 L 32.5 481.45807785954895 L 32.5 481.45807785954895 L 33.5 481.45749264827657 L 33.5 481.45749264827657 L 34.50000000000006 481.45689926775924 L 34.50000000000006 481.45689926775924 L 35.50000000000006 481.4562976039586 L 35.50000000000006 481.4562976039586 L 36.5 481.4556875412443 L 36.5 481.4556875412443 L 37.5 481.45506896237185 L 37.5 481.45506896237185 L 38.50000000000006 481.4544417484601 L 38.50000000000006 481.4544417484601 L 39.50000000000006 481.4538057789685 L 39.50000000000006 481.4538057789685 L 40.5 481.45316093167355 L 40.5 481.45316093167355 L 41.5 481.45250708264587 L 41.5 481.45250708264587 L 42.50000000000006 481.4518441062259 L 42.50000000000006 481.4518441062259 L 43.50000000000006 481.451171875 L 43.50000000000006 481.451171875 L 44.5 481.4504902597759 L 44.5 481.4504902597759 L 45.5 481.4497991295578 L 45.5 481.4497991295578 L 46.50000000000006 481.44909835152146 L 46.50000000000006 481.44909835152146 L 47.50000000000006 481.4483877909882 L 47.50000000000006 481.4483877909882 L 48.5 481.4476673113996 L 48.5 481.4476673113996 L 49.5 481.44693677429075 L 49.5 481.44693677429075 L 50.50000000000006 481.44619603926384 L 50.50000000000006 481.44619603926384 L 51.50000000000006 481.44544496396134 L 51.50000000000006 481.44544496396134 L 52.5 481.4446834040383 L 52.5 481.4446834040383 L 53.5 481.4439112131349 L 53.5 481.4439112131349 L 54.50000000000006 481.4431282428482 L 54.50000000000006 481.4431282428482 L 55.50000000000006 481.44233434270365 L 55.50000000000006 481.44233434270365 L 56.5 481.441529360126 L 56.5 481.441529360126 L 57.5 481.4407131404104 L 57.5 481.4407131404104 L 58.50000000000006 481.43988552669214 L 58.50000000000006 481.43988552669214 L 59.50000000000006 481.4390463599169 L 59.50000000000006 481.4390463599169 L 60.5 481.43819547881003 L 60.5 481.43819547881003 L 61.5 481.4373327198456 L 61.5 481.4373327198456 L 62.50000000000006 481.43645791721474 L 62.50000000000006 481.43645791721474 L 63.50000000000006 481.43557090279427 L 63.50000000000006 481.43557090279427 L 64.5 481.43467150611394 L 64.5 481.43467150611394 L 65.5 481.43375955432384 L 65.5 481.43375955432384 L 66.50000000000006 481.43283487216115 L 66.50000000000006 481.43283487216115 L 67.50000000000006 481.43189728191646 L 67.50000000000006 481.43189728191646 L 68.5 481.4309466033998 L 68.5 481.4309466033998 L 69.5 481.4299826539055 L 69.5 481.4299826539055 L 70.50000000000006 481.4290052481777 L 70.50000000000006 481.4290052481777 L 71.50000000000006 481.42801419837446 L 71.50000000000006 481.42801419837446 L 72.5 481.4270093140315 L 72.5 481.4270093140315 L 73.5 481.42599040202583 L 73.5 481.42599040202583 L 74.5 481.4249572665387 L 74.5 481.4249572665387 L 75.50000000000006 481.42390970901755 L 75.50000000000006 481.42390970901755 L 76.50000000000006 481.42284752813833 L 76.50000000000006 481.42284752813833 L 77.5 481.42177051976665 L 77.5 481.42177051976665 L 78.5 481.42067847691834 L 78.5 481.42067847691834 L 79.50000000000006 481.41957118972 L 79.50000000000006 481.41957118972 L 80.50000000000006 481.4184484453683 L 80.50000000000006 481.4184484453683 L 81.5 481.4173100280896 L 81.5 481.4173100280896 L 82.5 481.4161557190979 L 82.5 481.4161557190979 L 83.50000000000006 481.41498529655314 L 83.50000000000006 481.41498529655314 L 84.50000000000006 481.4137985355185 L 84.50000000000006 481.4137985355185 L 85.5 481.4125952079172 L 85.5 481.4125952079172 L 86.5 481.4113750824886 L 86.5 481.4113750824886 L 87.50000000000006 481.41013792474365 L 87.50000000000006 481.41013792474365 L 88.50000000000006 481.4088834969202 L 88.50000000000006 481.4088834969202 L 89.5 481.40761155793695 L 89.5 481.40761155793695 L 90.5 481.40632186334716 L 90.5 481.40632186334716 L 91.50000000000006 481.4050141652918 L 91.50000000000006 481.4050141652918 L 92.50000000000006 481.4036882124518 L 92.50000000000006 481.4036882124518 L 93.5 481.40234375 L 93.5 481.40234375 L 94.5 481.40098051955175 L 94.5 481.40098051955175 L 95.50000000000006 481.39959825911563 L 95.50000000000006 481.39959825911563 L 96.50000000000006 481.39819670304286 L 96.50000000000006 481.39819670304286 L 97.5 481.39677558197644 L 97.5 481.39677558197644 L 98.5 481.39533462279917 L 98.5 481.39533462279917 L 99.50000000000006 481.39387354858144 L 99.50000000000006 481.39387354858144 L 100.50000000000006 481.3923920785277 L 100.50000000000006 481.3923920785277 L 101.5 481.3908899279226 L 101.5 481.3908899279226 L 102.5 481.3893668080766 L 102.5 481.3893668080766 L 103.50000000000006 481.3878224262698 L 103.50000000000006 481.3878224262698 L 104.50000000000006 481.38625648569644 L 104.50000000000006 481.38625648569644 L 105.5 481.3846686854073 L 105.5 481.3846686854073 L 106.5 481.38305872025205 L 106.5 481.38305872025205 L 107.50000000000006 481.3814262808208 L 107.50000000000006 481.3814262808208 L 108.50000000000006 481.3797710533843 L 108.50000000000006 481.3797710533843 L 109.5 481.37809271983383 L 109.5 481.37809271983383 L 110.5 481.3763909576201 L 110.5 481.3763909576201 L 111.50000000000006 481.3746654396911 L 111.50000000000006 481.3746654396911 L 112.50000000000006 481.3729158344295 L 112.50000000000006 481.3729158344295 L 113.5 481.3711418055886 L 113.5 481.3711418055886 L 114.5 481.36934301222794 L 114.5 481.36934301222794 L 115.50000000000006 481.3675191086477 L 115.50000000000006 481.3675191086477 L 116.50000000000006 481.3656697443223 L 116.50000000000006 481.3656697443223 L 117.5 481.363794563833 L 117.5 481.363794563833 L 118.5 481.3618932067995 L 118.5 481.3618932067995 L 119.5 481.35996530781097 L 119.5 481.35996530781097 L 120.50000000000006 481.35801049635546 L 120.50000000000006 481.35801049635546 L 121.5 481.3560283967489 L 121.5 481.3560283967489 L 122.5 481.354018628063 L 122.5 481.354018628063 L 123.5 481.3519808040517 L 123.5 481.3519808040517 L 124.50000000000006 481.34991453307737 L 124.50000000000006 481.34991453307737 L 125.50000000000006 481.34781941803504 L 125.50000000000006 481.34781941803504 L 126.5 481.34569505627667 L 126.5 481.34569505627667 L 127.5 481.34354103953325 L 127.5 481.34354103953325 L 128.50000000000006 481.3413569538367 L 128.50000000000006 481.3413569538367 L 129.50000000000006 481.3391423794399 L 129.50000000000006 481.3391423794399 L 130.5 481.3368968907366 L 130.5 481.3368968907366 L 131.5 481.3346200561792 L 131.5 481.3346200561792 L 132.50000000000006 481.33231143819575 L 132.50000000000006 481.33231143819575 L 133.50000000000006 481.3299705931062 L 133.50000000000006 481.3299705931062 L 134.5 481.32759707103696 L 134.5 481.32759707103696 L 135.5 481.32519041583436 L 135.5 481.32519041583436 L 136.50000000000006 481.3227501649771 L 136.50000000000006 481.3227501649771 L 137.50000000000006 481.3202758494873 L 137.50000000000006 481.3202758494873 L 138.5 481.31776699384045 L 138.5 481.31776699384045 L 139.5 481.3152231158739 L 139.5 481.3152231158739 L 140.50000000000006 481.31264372669426 L 140.50000000000006 481.31264372669426 L 141.50000000000006 481.3100283305835 L 141.50000000000006 481.3100283305835 L 142.5 481.3073764249036 L 142.5 481.3073764249036 L 143.5 481.3046875 L 143.5 481.3046875 L 144.5 481.3019610391035 L 144.5 481.3019610391035 L 145.50000000000006 481.2991965182312 L 145.50000000000006 481.2991965182312 L 146.5 481.2963934060857 L 146.5 481.2963934060857 L 147.50000000000006 481.2935511639529 L 147.50000000000006 481.2935511639529 L 148.5 481.2906692455984 L 148.5 481.2906692455984 L 149.50000000000006 481.2877470971629 L 149.50000000000006 481.2877470971629 L 150.5 481.28478415705536 L 150.5 481.28478415705536 L 151.50000000000006 481.2817798558453 L 151.50000000000006 481.2817798558453 L 152.5 481.27873361615315 L 152.5 481.27873361615315 L 153.50000000000006 481.27564485253964 L 153.50000000000006 481.27564485253964 L 154.5 481.27251297139287 L 154.5 481.27251297139287 L 155.50000000000006 481.2693373708145 L 155.50000000000006 481.2693373708145 L 156.5 481.2661174405041 L 156.5 481.2661174405041 L 157.50000000000006 481.2628525616416 L 157.50000000000006 481.2628525616416 L 158.5 481.25954210676855 L 158.5 481.25954210676855 L 159.5 481.25618543966766 L 159.5 481.25618543966766 L 160.5 481.2527819152402 L 160.5 481.2527819152402 L 161.5 481.2493308793822 L 161.5 481.2493308793822 L 162.5 481.245831668859 L 162.5 481.245831668859 L 163.5 481.2422836111772 L 163.5 481.2422836111772 L 164.5 481.23868602445583 L 164.5 481.23868602445583 L 165.5 481.23503821729537 L 165.5 481.23503821729537 L 166.5 481.2313394886446 L 166.5 481.2313394886446 L 167.5 481.22758912766596 L 167.5 481.22758912766596 L 168.5 481.223786413599 L 168.5 481.223786413599 L 169.5 481.21993061562193 L 169.5 481.21993061562193 L 170.5 481.21602099271087 L 170.5 481.21602099271087 L 171.5 481.2120567934978 L 171.5 481.2120567934978 L 172.50000000000006 481.208037256126 L 172.50000000000006 481.208037256126 L 173.5 481.20396160810344 L 173.5 481.20396160810344 L 174.50000000000006 481.1998290661547 L 174.50000000000006 481.1998290661547 L 175.5 481.19563883607015 L 175.5 481.19563883607015 L 176.50000000000006 481.1913901125534 L 176.50000000000006 481.1913901125534 L 177.5 481.18708207906656 L 177.5 481.18708207906656 L 178.50000000000006 481.18271390767336 L 178.50000000000006 481.18271390767336 L 179.5 481.17828475887984 L 179.5 481.17828475887984 L 180.50000000000006 481.1737937814733 L 180.50000000000006 481.1737937814733 L 181.5 481.1692401123584 L 181.5 481.1692401123584 L 182.50000000000006 481.1646228763915 L 182.50000000000006 481.1646228763915 L 183.5 481.15994118621245 L 183.5 481.15994118621245 L 184.50000000000006 481.155194142074 L 184.50000000000006 481.155194142074 L 185.5 481.15038083166877 L 185.5 481.15038083166877 L 186.50000000000006 481.14550032995425 L 186.50000000000006 481.14550032995425 L 187.5 481.14055169897466 L 187.5 481.14055169897466 L 188.50000000000006 481.13553398768096 L 188.50000000000006 481.13553398768096 L 189.5 481.13044623174784 L 189.5 481.13044623174784 L 190.50000000000006 481.1252874533886 L 190.50000000000006 481.1252874533886 L 191.5 481.1200566611671 L 191.5 481.1200566611671 L 192.50000000000006 481.1147528498073 L 192.50000000000006 481.1147528498073 L 193.5 481.109375 L 193.5 481.109375 L 194.50000000000006 481.103922078207 L 194.50000000000006 481.103922078207 L 195.5 481.0983930364625 L 195.5 481.0983930364625 L 196.50000000000006 481.0927868121714 L 196.50000000000006 481.0927868121714 L 197.5 481.0871023279057 L 197.5 481.0871023279057 L 198.50000000000006 481.0813384911968 L 198.50000000000006 481.0813384911968 L 199.5 481.07549419432576 L 199.5 481.07549419432576 L 200.50000000000006 481.0695683141107 L 200.50000000000006 481.0695683141107 L 201.5 481.0635597116905 L 201.5 481.0635597116905 L 202.5 481.05746723230635 L 202.5 481.05746723230635 L 203.5 481.0512897050793 L 203.5 481.0512897050793 L 204.5 481.04502594278574 L 204.5 481.04502594278574 L 205.5 481.0386747416291 L 205.5 481.0386747416291 L 206.5 481.0322348810082 L 206.5 481.0322348810082 L 207.5 481.02570512328316 L 207.5 481.02570512328316 L 208.5 481.01908421353716 L 208.5 481.01908421353716 L 209.5 481.0123708793353 L 209.5 481.0123708793353 L 210.5 481.00556383048036 L 210.5 481.00556383048036 L 211.5 480.9986617587645 L 211.5 480.9986617587645 L 212.5 480.991663337718 L 212.5 480.991663337718 L 213.5 480.9845672223543 L 213.5 480.9845672223543 L 214.5 480.97737204891166 L 214.5 480.97737204891166 L 215.5 480.97007643459074 L 215.5 480.97007643459074 L 216.5 480.96267897728916 L 216.5 480.96267897728916 L 217.5 480.9551782553319 L 217.5 480.9551782553319 L 218.5 480.94757282719803 L 218.5 480.94757282719803 L 219.5 480.9398612312438 L 219.5 480.9398612312438 L 220.5 480.93204198542173 L 220.5 480.93204198542173 L 221.50000000000006 480.92411358699565 L 221.50000000000006 480.92411358699565 L 222.5 480.91607451225195 L 222.5 480.91607451225195 L 223.50000000000006 480.9079232162069 L 223.50000000000006 480.9079232162069 L 224.5 480.89965813230936 L 224.5 480.89965813230936 L 225.50000000000006 480.89127767214023 L 225.50000000000006 480.89127767214023 L 226.5 480.8827802251067 L 226.5 480.8827802251067 L 227.50000000000006 480.8741641581331 L 227.50000000000006 480.8741641581331 L 228.5 480.86542781534666 L 228.5 480.8654278153467 L 229.50000000000006 480.8565695177597 L 229.50000000000006 480.8565695177597 L 230.5 480.8475875629466 L 230.5 480.8475875629466 L 231.50000000000006 480.83848022471676 L 231.50000000000006 480.83848022471676 L 232.5 480.829245752783 L 232.5 480.829245752783 L 233.50000000000006 480.8198823724249 L 233.50000000000006 480.8198823724249 L 234.5 480.8103882841479 L 234.5 480.8103882841479 L 235.50000000000006 480.80076166333754 L 235.50000000000006 480.80076166333754 L 236.5 480.7910006599085 L 236.5 480.7910006599085 L 237.50000000000006 480.7811033979493 L 237.50000000000006 480.7811033979493 L 238.5 480.77106797536186 L 238.5 480.77106797536186 L 239.50000000000006 480.7608924634956 L 239.50000000000006 480.7608924634956 L 240.5 480.75057490677716 L 240.5 480.75057490677716 L 241.50000000000006 480.74011332233414 L 241.50000000000006 480.74011332233414 L 242.5 480.72950569961455 L 242.5 480.72950569961455 L 243.50000000000006 480.71875 L 243.50000000000006 480.71875 L 244.5 480.70784415641407 L 244.5 480.70784415641407 L 245.5 480.69678607292497 L 245.5 480.69678607292497 L 246.5 480.68557362434285 L 246.5 480.68557362434285 L 247.5 480.6742046558114 L 247.5 480.6742046558114 L 248.5 480.6626769823935 L 248.5 480.6626769823935 L 249.5 480.6509883886515 L 249.5 480.6509883886515 L 250.5 480.6391366282214 L 250.5 480.6391366282214 L 251.5 480.6271194233811 L 251.5 480.6271194233811 L 252.5 480.61493446461265 L 252.5 480.61493446461265 L 253.5 480.60257941015857 L 253.5 480.60257941015857 L 254.5 480.59005188557154 L 254.5 480.59005188557154 L 255.5 480.57734948325816 L 255.5 480.57734948325816 L 256.5 480.5644697620165 L 256.5 480.5644697620165 L 257.5 480.5514102465664 L 257.5 480.5514102465664 L 258.5 480.5381684270743 L 258.5 480.5381684270743 L 259.5 480.52474175867064 L 259.5 480.52474175867064 L 260.5 480.5111276609607 L 260.5 480.5111276609607 L 261.5 480.49732351752897 L 261.5 480.49732351752897 L 262.5 480.483326675436 L 262.5 480.483326675436 L 263.5 480.4691344447087 L 263.5 480.4691344447087 L 264.5 480.4547440978233 L 264.5 480.4547440978233 L 265.5 480.44015286918153 L 265.5 480.44015286918153 L 266.5 480.4253579545783 L 266.5 480.4253579545783 L 267.5 480.41035651066375 L 267.5 480.41035651066375 L 268.50000000000006 480.395145654396 L 268.50000000000006 480.395145654396 L 269.5 480.3797224624876 L 269.5 480.3797224624876 L 270.50000000000006 480.3640839708435 L 270.50000000000006 480.3640839708435 L 271.5 480.34822717399135 L 271.5 480.34822717399135 L 272.50000000000006 480.33214902450396 L 272.50000000000006 480.33214902450396 L 273.5 480.31584643241376 L 273.5 480.31584643241376 L 274.50000000000006 480.29931626461877 L 274.50000000000006 480.29931626461877 L 275.5 480.28255534428047 L 275.5 480.28255534428047 L 276.50000000000006 480.26556045021346 L 276.50000000000006 480.26556045021346 L 277.5 480.2483283162662 L 277.5 480.2483283162662 L 278.50000000000006 480.2308556306934 L 278.50000000000006 480.2308556306934 L 279.5 480.2131390355194 L 279.5 480.2131390355194 L 280.50000000000006 480.1951751258932 L 280.50000000000006 480.1951751258932 L 281.5 480.1769604494336 L 281.5 480.1769604494336 L 282.50000000000006 480.158491505566 L 282.50000000000006 480.158491505566 L 283.5 480.1397647448498 L 283.5 480.1397647448498 L 284.50000000000006 480.12077656829587 L 284.50000000000006 480.12077656829587 L 285.5 480.101523326675 L 285.5 480.101523326675 L 286.50000000000006 480.0820013198169 L 286.50000000000006 480.0820013198169 L 287.5 480.06220679589865 L 287.5 480.06220679589865 L 288.5 480.0421359507237 L 288.5 480.0421359507237 L 289.5 480.02178492699124 L 289.5 480.02178492699124 L 290.5 480.00114981355426 L 290.5 480.00114981355426 L 291.5 479.9802266446683 L 291.5 479.9802266446683 L 292.5 479.95901139922915 L 292.5 479.95901139922915 L 293.5 479.9375 L 293.5 479.9375 L 294.5 479.9156883128281 L 294.5 479.9156883128281 L 295.5 479.8935721458499 L 295.5 479.8935721458499 L 296.5 479.87114724868576 L 296.5 479.87114724868576 L 297.5 479.84840931162285 L 297.5 479.84840931162285 L 298.5 479.82535396478704 L 298.5 479.82535396478704 L 299.5 479.801976777303 L 299.5 479.801976777303 L 300.5 479.7782732564428 L 300.5 479.7782732564428 L 301.5 479.7542388467622 L 301.5 479.7542388467622 L 302.5 479.7298689292253 L 302.5 479.7298689292253 L 303.5 479.70515882031714 L 303.5 479.70515882031714 L 304.5 479.680103771143 L 304.5 479.680103771143 L 305.5 479.6546989665164 L 305.5 479.6546989665164 L 306.5 479.62893952403294 L 306.5 479.62893952403294 L 307.5 479.60282049313275 L 307.5 479.60282049313275 L 308.5 479.57633685414856 L 308.5 479.57633685414856 L 309.5 479.54948351734123 L 309.5 479.54948351734123 L 310.5 479.5222553219214 L 310.5 479.5222553219214 L 311.5 479.49464703505794 L 311.5 479.49464703505794 L 312.5 479.466653350872 L 312.5 479.466653350872 L 313.5 479.4382688894174 L 313.5 479.4382688894174 L 314.5 479.4094881956467 L 314.5 479.4094881956467 L 315.5 479.380305738363 L 315.5 479.380305738363 L 316.5 479.35071590915663 L 316.5 479.35071590915663 L 317.5 479.3207130213275 L 317.5 479.3207130213275 L 318.5 479.29029130879206 L 318.5 479.29029130879206 L 319.5 479.2594449249753 L 319.5 479.2594449249753 L 320.5 479.228167941687 L 320.5 479.228167941687 L 321.5 479.19645434798264 L 321.5 479.19645434798264 L 322.5 479.1642980490079 L 322.5 479.1642980490079 L 323.5 479.1316928648275 L 323.5 479.1316928648275 L 324.5 479.0986325292375 L 324.5 479.0986325292375 L 325.5 479.06511068856094 L 325.5 479.06511068856094 L 326.5 479.03112090042697 L 326.5 479.03112090042697 L 327.5 478.99665663253245 L 327.5 478.99665663253245 L 328.5 478.96171126138677 L 328.5 478.96171126138677 L 329.5 478.92627807103884 L 329.5 478.92627807103884 L 330.5 478.89035025178634 L 330.5 478.89035025178634 L 331.5 478.8539208988671 L 331.5 478.8539208988671 L 332.5 478.81698301113204 L 332.5 478.81698301113204 L 333.5 478.7795294896996 L 333.5 478.7795294896996 L 334.5 478.74155313659173 L 334.5 478.74155313659173 L 335.5 478.7030466533501 L 335.5 478.7030466533501 L 336.5 478.66400263963385 L 336.5 478.66400263963385 L 337.5 478.6244135917973 L 337.5 478.6244135917973 L 338.5 478.5842719014475 L 338.5 478.5842719014475 L 339.5 478.5435698539825 L 339.5 478.5435698539825 L 340.5 478.5022996271085 L 340.5 478.5022996271085 L 341.5 478.4604532893366 L 341.5 478.4604532893366 L 342.5 478.41802279845825 L 342.5 478.41802279845825 L 343.5 478.375 L 343.5 478.375 L 344.5 478.33137662565616 L 344.5 478.33137662565616 L 345.5 478.2871442916998 L 345.5 478.2871442916998 L 346.5 478.2422944973715 L 346.5 478.2422944973715 L 347.5 478.1968186232457 L 347.5 478.1968186232457 L 348.5 478.1507079295741 L 348.5 478.1507079295741 L 349.5 478.10395355460605 L 349.5 478.10395355460605 L 350.5 478.0565465128856 L 350.5 478.0565465128856 L 351.5 478.0084776935243 L 351.5 478.0084776935243 L 352.5 477.95973785845064 L 352.5 477.95973785845064 L 353.5 477.9103176406343 L 353.5 477.9103176406343 L 354.5 477.8602075422861 L 354.5 477.8602075422861 L 355.5 477.8093979330327 L 355.5 477.8093979330327 L 356.5 477.75787904806583 L 356.5 477.75787904806583 L 357.5 477.7056409862655 L 357.5 477.7056409862655 L 358.5 477.65267370829713 L 358.5 477.65267370829713 L 359.5 477.59896703468246 L 359.5 477.59896703468246 L 360.5 477.5445106438429 L 360.5 477.5445106438429 L 361.5 477.48929407011593 L 361.5 477.48929407011593 L 362.5 477.43330670174396 L 362.5 477.43330670174396 L 363.5 477.3765377788347 L 363.5 477.3765377788347 L 364.5 477.3189763912934 L 364.5 477.3189763912934 L 365.5 477.260611476726 L 365.5 477.260611476726 L 366.5 477.2014318183133 L 366.5 477.2014318183133 L 367.5 477.141426042655 L 367.5 477.141426042655 L 368.5 477.08058261758407 L 368.5 477.08058261758407 L 369.5 477.01888984995054 L 369.5 477.01888984995054 L 370.5 476.95633588337404 L 370.5 476.95633588337404 L 371.5 476.89290869596533 L 371.5 476.89290869596533 L 372.5 476.8285960980158 L 372.5 476.8285960980158 L 373.5 476.763385729655 L 373.5 476.763385729655 L 374.5 476.69726505847495 L 374.5 476.69726505847495 L 375.5 476.63022137712187 L 375.5 476.63022137712187 L 376.5 476.5622418008539 L 376.5 476.5622418008539 L 377.5 476.49331326506484 L 377.5 476.49331326506484 L 378.5 476.42342252277354 L 378.5 476.42342252277354 L 379.5 476.3525561420777 L 379.5 476.3525561420777 L 380.5 476.2807005035727 L 380.5 476.2807005035727 L 381.5 476.2078417977342 L 381.5 476.2078417977342 L 382.5 476.133966022264 L 382.5 476.133966022264 L 383.5 476.05905897939925 L 383.5 476.05905897939925 L 384.5 475.9831062731834 L 384.5 475.9831062731834 L 385.5 475.9060933067002 L 385.5 475.9060933067002 L 386.5 475.82800527926776 L 386.5 475.82800527926776 L 387.5 475.7488271835945 L 387.5 475.7488271835945 L 388.5 475.66854380289493 L 388.5 475.66854380289493 L 389.5 475.58713970796504 L 389.5 475.58713970796504 L 390.5 475.5045992542171 L 390.5 475.5045992542171 L 391.5 475.4209065786732 L 391.5 475.4209065786732 L 392.5 475.3360455969165 L 392.5 475.3360455969165 L 393.5 475.25 L 393.5 475.25 L 394.5 475.1627532513123 L 394.5 475.1627532513123 L 395.5 475.0742885833996 L 395.5 475.0742885833996 L 396.5 474.984588994743 L 396.5 474.984588994743 L 397.5 474.8936372464914 L 397.5 474.8936372464914 L 398.5 474.80141585914816 L 398.5 474.80141585914816 L 399.5 474.70790710921216 L 399.5 474.70790710921216 L 400.5 474.6130930257712 L 400.5 474.6130930257712 L 401.5 474.51695538704865 L 401.5 474.51695538704865 L 402.5 474.4194757169013 L 402.5 474.4194757169013 L 403.5 474.32063528126855 L 403.5 474.32063528126855 L 404.5 474.22041508457215 L 404.5 474.22041508457215 L 405.5 474.11879586606545 L 405.5 474.11879586606545 L 406.5 474.0157580961317 L 406.5 474.0157580961317 L 407.5 473.91128197253096 L 407.5 473.91128197253096 L 408.5 473.80534741659426 L 408.5 473.80534741659426 L 409.5 473.6979340693649 L 409.5 473.6979340693649 L 410.5 473.58902128768574 L 410.5 473.58902128768574 L 411.5 473.47858814023186 L 411.5 473.47858814023186 L 412.5 473.3666134034879 L 412.5 473.3666134034879 L 413.5 473.25307555766943 L 413.5 473.25307555766943 L 414.5 473.1379527825868 L 414.5 473.1379527825868 L 415.5 473.021222953452 L 415.5 473.0212229534521 L 416.5 472.9028636366266 L 416.5 472.9028636366266 L 417.5 472.78285208530997 L 417.5 472.78285208530997 L 418.5 472.66116523516814 L 418.5 472.66116523516814 L 419.5 472.5377796999011 L 419.5 472.5377796999011 L 420.5 472.4126717667481 L 420.5 472.4126717667481 L 421.5 472.2858173919306 L 421.5 472.2858173919306 L 422.5 472.15719219603164 L 422.5 472.15719219603164 L 423.5 472.02677145931 L 423.5 472.02677145931 L 424.5 471.8945301169499 L 424.5 471.8945301169499 L 425.5 471.76044275424374 L 425.5 471.76044275424374 L 426.5 471.62448360170777 L 426.5 471.62448360170777 L 427.5 471.48662653012974 L 427.5 471.48662653012974 L 428.5 471.34684504554707 L 428.5 471.34684504554707 L 429.5 471.20511228415535 L 429.5 471.20511228415535 L 430.5 471.0614010071454 L 430.5 471.0614010071454 L 431.5 470.9156835954684 L 431.5 470.9156835954684 L 432.5 470.7679320445281 L 432.5 470.7679320445281 L 433.5 470.61811795879845 L 433.5 470.61811795879845 L 434.5 470.4662125463668 L 434.5 470.4662125463668 L 435.5 470.31218661340034 L 435.5 470.31218661340034 L 436.5 470.1560105585355 L 436.5 470.1560105585355 L 437.5 469.99765436718906 L 437.5 469.99765436718906 L 438.5 469.8370876057899 L 438.5 469.8370876057899 L 439.5 469.6742794159301 L 439.5 469.6742794159301 L 440.5 469.5091985084342 L 440.5 469.5091985084342 L 441.5 469.34181315734645 L 441.5 469.34181315734645 L 442.5 469.172091193833 L 442.5 469.172091193833 L 443.5 469 L 443.5 469 L 444.5 468.82550650262465 L 444.5 468.82550650262465 L 445.5 468.64857716679916 L 445.5 468.64857716679916 L 446.5 468.46917798948596 L 446.5 468.469177989486 L 447.5 468.28727449298276 L 447.5 468.28727449298276 L 448.5 468.10283171829633 L 448.5 468.10283171829633 L 449.5 467.91581421842426 L 449.5 467.91581421842426 L 450.5 467.72618605154236 L 450.5 467.72618605154236 L 451.5 467.53391077409725 L 451.5 467.53391077409725 L 452.5 467.3389514338025 L 452.5 467.33895143380255 L 453.5 467.14127056253704 L 453.5 467.14127056253704 L 454.5 466.9408301691443 L 454.5 466.9408301691443 L 455.5 466.73759173213085 L 455.5 466.73759173213085 L 456.5 466.5315161922634 L 456.5 466.5315161922634 L 457.5 466.3225639450619 L 457.5 466.3225639450619 L 458.5 466.1106948331886 L 458.5 466.1106948331886 L 459.5 465.89586813872984 L 459.5 465.89586813872984 L 460.5 465.6780425753715 L 460.5 465.6780425753715 L 461.5 465.45717628046367 L 461.5 465.4571762804637 L 462.5 465.23322680697584 L 462.5 465.23322680697584 L 463.5 465.0061511153388 L 463.5 465.0061511153388 L 464.5 464.7759055651736 L 464.5 464.7759055651736 L 465.5 464.5424459069041 L 465.5 464.5424459069041 L 466.5 464.3057272732532 L 466.5 464.3057272732532 L 467.5 464.06570417061994 L 467.5 464.06570417061994 L 468.5 463.8223304703363 L 468.5 463.82233047033634 L 469.5 463.57555939980216 L 469.5 463.57555939980216 L 470.5 463.3253435334961 L 470.5 463.32534353349615 L 471.5 463.0716347838612 L 471.5 463.0716347838612 L 472.5 462.8143843920633 L 472.5 462.8143843920633 L 473.5 462.55354291862 L 473.5 462.55354291862005 L 474.5 462.2890602338998 L 474.5 462.2890602338999 L 475.5 462.0208855084875 L 475.5 462.0208855084875 L 476.5 461.7489672034156 L 476.5 461.7489672034156 L 477.5 461.4732530602594 L 477.5 461.4732530602595 L 478.5 461.19369009109414 L 478.5 461.19369009109414 L 479.5 460.9102245683107 L 479.5 460.9102245683107 L 480.5 460.62280201429076 L 480.5 460.62280201429076 L 481.5 460.3313671909368 L 481.5 460.3313671909368 L 482.5 460.03586408905613 L 482.5 460.03586408905613 L 483.5 459.7362359175969 L 483.5 459.7362359175969 L 484.5 459.43242509273364 L 484.5 459.43242509273364 L 485.5 459.1243732268007 L 485.5 459.1243732268007 L 486.5 458.81202111707097 L 486.5 458.81202111707097 L 487.5 458.4953087343781 L 487.5 458.4953087343781 L 488.5 458.17417521157984 L 488.5 458.17417521157984 L 489.5 457.8485588318601 L 489.5 457.8485588318601 L 490.5 457.5183970168684 L 490.5 457.5183970168684 L 491.5 457.18362631469284 L 491.5 457.18362631469284 L 492.5 456.844182387666 L 492.5 456.844182387666 L 493.5 456.5 L 493.5 456.5 L 494.5 456.15101300524924 L 494.5 456.1510130052493 L 495.5 455.7971543335983 L 495.5 455.7971543335983 L 496.5 455.43835597897197 L 496.5 455.43835597897197 L 497.5 455.07454898596546 L 497.5 455.0745489859655 L 498.5 454.70566343659266 L 498.5 454.70566343659266 L 499.5 454.3316284368485 L 499.5 454.3316284368486 L 500.5 453.9523721030847 L 500.5 453.9523721030847 L 501.5 453.5678215481945 L 501.5 453.5678215481945 L 502.5 453.17790286760504 L 502.5 453.17790286760504 L 503.5 452.7825411250741 L 503.5 452.78254112507415 L 504.5 452.3816603382886 L 504.5 452.3816603382886 L 505.5 451.9751834642617 L 505.5 451.97518346426176 L 506.5 451.56303238452676 L 506.5 451.56303238452676 L 507.5 451.14512789012383 L 507.5 451.14512789012383 L 508.5 450.7213896663771 L 508.5 450.7213896663771 L 509.5 450.2917362774597 L 509.5 450.2917362774597 L 510.5 449.856085150743 L 510.5 449.856085150743 L 511.5 449.4143525609274 L 511.5 449.4143525609274 L 512.5 448.96645361395167 L 512.5 448.96645361395167 L 513.5 448.5123022306776 L 513.5 448.5123022306776 L 514.5 448.0518111303472 L 514.5 448.05181113034723 L 515.5 447.5848918138082 L 515.5 447.5848918138082 L 516.5 447.11145454650637 L 516.5 447.1114545465064 L 517.5 446.6314083412399 L 517.5 446.6314083412399 L 518.5 446.1446609406726 L 518.5 446.1446609406726 L 519.5 445.6511187996043 L 519.5 445.6511187996043 L 520.5 445.15068706699225 L 520.5 445.15068706699225 L 521.5 444.6432695677224 L 521.5 444.6432695677225 L 522.5 444.1287687841265 L 522.5 444.1287687841265 L 523.5 443.60708583724005 L 523.5 443.60708583724005 L 524.5 443.0781204677997 L 524.5 443.0781204677997 L 525.5 442.54177101697496 L 525.5 442.541771016975 L 526.5 441.9979344068311 L 526.5 441.9979344068311 L 527.5 441.4465061205189 L 527.5 441.4465061205189 L 528.5 440.8873801821882 L 528.5 440.8873801821882 L 529.5 440.32044913662133 L 529.5 440.32044913662133 L 530.5 439.7456040285815 L 530.5 439.7456040285815 L 531.5 439.16273438187363 L 531.5 439.16273438187363 L 532.5 438.57172817811227 L 532.5 438.5717281781123 L 533.5 437.9724718351938 L 533.5 437.9724718351938 L 534.5 437.3648501854672 L 534.5 437.3648501854673 L 535.5 436.74874645360137 L 535.5 436.74874645360137 L 536.5 436.12404223414194 L 536.5 436.12404223414194 L 537.5 435.4906174687562 L 537.5 435.4906174687562 L 538.5 434.8483504231596 L 538.5 434.8483504231596 L 539.5 434.1971176637202 L 539.5 434.1971176637202 L 540.5 433.5367940337368 L 540.5 433.5367940337368 L 541.5 432.8672526293857 L 541.5 432.8672526293857 L 542.5 432.18836477533205 L 542.5 432.18836477533205 L 543.5 431.5 L 543.5 431.5 L 544.5 430.80202601049854 L 544.5 430.80202601049854 L 545.5 430.09430866719663 L 545.5 430.0943086671967 L 546.5 429.3767119579439 L 546.5 429.37671195794394 L 547.5 428.6490979719309 L 547.5 428.649097971931 L 548.5 427.9113268731853 L 548.5 427.9113268731853 L 549.5 427.16325687369704 L 549.5 427.1632568736971 L 550.5 426.4047442061694 L 550.5 426.4047442061695 L 551.5 425.635643096389 L 551.5 425.635643096389 L 552.5 424.85580573521 L 552.5 424.8558057352101 L 553.5 424.06508225014824 L 553.5 424.06508225014824 L 554.5 423.26332067657717 L 554.5 423.2633206765772 L 555.5 422.45036692852347 L 555.5 422.45036692852347 L 556.5 421.6260647690535 L 556.5 421.6260647690535 L 557.5 420.7902557802476 L 557.5 420.79025578024766 L 558.5 419.9427793327542 L 558.5 419.9427793327542 L 559.5 419.08347255491935 L 559.5 419.0834725549194 L 560.5 418.21217030148597 L 560.5 418.21217030148597 L 561.5 417.32870512185474 L 561.5 417.3287051218548 L 562.5 416.4329072279033 L 562.5 416.43290722790334 L 563.5 415.52460446135524 L 563.5 415.52460446135524 L 564.5 414.60362226069435 L 564.5 414.60362226069435 L 565.5 413.66978362761637 L 565.5 413.6697836276164 L 566.5 412.7229090930128 L 566.5 412.7229090930128 L 567.5 411.7628166824797 L 567.5 411.7628166824797 L 568.5 410.7893218813452 L 568.5 410.78932188134524 L 569.5 409.8022375992086 L 569.5 409.80223759920864 L 570.5 408.80137413398444 L 570.5 408.80137413398444 L 571.5 407.7865391354449 L 571.5 407.7865391354449 L 572.5 406.75753756825304 L 572.5 406.75753756825304 L 573.5 405.71417167448004 L 573.5 405.7141716744801 L 574.5 404.6562409355993 L 574.5 404.6562409355994 L 575.5 403.58354203395 L 575.5 403.58354203395 L 576.5 402.49586881366224 L 576.5 402.49586881366224 L 577.5 401.39301224103775 L 577.5 401.39301224103775 L 578.5 400.2747603643764 L 578.5 400.27476036437645 L 579.5 399.1408982732426 L 579.5 399.14089827324267 L 580.5 397.991208057163 L 580.5 397.991208057163 L 581.5 396.82546876374727 L 581.5 396.82546876374727 L 582.5 395.6434563562246 L 582.5 395.6434563562246 L 583.5 394.44494367038754 L 583.5 394.44494367038754 L 584.5 393.22970037093444 L 584.5 393.2297003709345 L 585.5 391.99749290720274 L 585.5 391.99749290720274 L 586.5 390.7480844682839 L 586.5 390.7480844682839 L 587.5 389.48123493751245 L 587.5 389.48123493751245 L 588.5 388.19670084631923 L 588.5 388.19670084631923 L 589.5 386.89423532744036 L 589.5 386.89423532744036 L 590.5 385.5735880674735 L 590.5 385.5735880674735 L 591.5 384.2345052587714 L 591.5 384.2345052587714 L 592.5 382.87672955066404 L 592.5 382.87672955066404 L 593.5 381.49999999999994 L 593.5 381.5 L 594.5 380.10405202099696 L 594.5 380.1040520209971 L 595.5 378.68861733439326 L 595.5 378.6886173343933 L 596.5 377.25342391588777 L 596.5 377.2534239158878 L 597.5 375.7981959438619 L 597.5 375.79819594386197 L 598.5 374.32265374637063 L 598.5 374.32265374637063 L 599.5 372.8265137473941 L 599.5 372.82651374739413 L 600.5 371.30948841233885 L 600.5 371.3094884123389 L 601.5 369.7712861927779 L 601.5 369.77128619277795 L 602.5 368.21161147042005 L 602.5 368.2116114704201 L 603.5 366.6301645002964 L 603.5 366.6301645002965 L 604.5 365.02664135315433 L 604.5 365.02664135315433 L 605.5 363.4007338570469 L 605.5 363.40073385704693 L 606.5 361.75212953810706 L 606.5 361.75212953810706 L 607.5 360.0805115604952 L 607.5 360.08051156049527 L 608.5 358.38555866550826 L 608.5 358.3855586655083 L 609.5 356.6669451098387 L 609.5 356.66694510983876 L 610.5 354.9243406029719 L 610.5 354.92434060297194 L 611.5 353.1574102437095 L 611.5 353.1574102437095 L 612.5 351.36581445580657 L 612.5 351.36581445580657 L 613.5 349.5492089227105 L 613.5 349.5492089227105 L 614.5 347.7072445213887 L 614.5 347.7072445213887 L 615.5 345.8395672552327 L 615.5 345.83956725523274 L 616.5 343.9458181860255 L 616.5 343.9458181860256 L 617.5 342.02563336495933 L 617.5 342.0256333649594 L 618.5 340.0786437626904 L 618.5 340.07864376269043 L 619.5 338.10447519841716 L 619.5 338.10447519841716 L 620.5 336.1027482679688 L 620.5 336.1027482679689 L 621.5 334.07307827088977 L 621.5 334.0730782708898 L 622.5 332.015075136506 L 622.5 332.0150751365061 L 623.5 329.9283433489601 L 623.5 329.9283433489601 L 624.5 327.81248187119866 L 624.5 327.81248187119866 L 625.5 325.66708406789985 L 625.5 325.66708406789996 L 626.5 323.4917376273245 L 626.5 323.4917376273245 L 627.5 321.2860244820755 L 627.5 321.2860244820755 L 628.5 319.0495207287528 L 628.5 319.0495207287528 L 629.5 316.7817965464852 L 629.5 316.7817965464852 L 630.5 314.48241611432593 L 630.5 314.48241611432604 L 631.5 312.1509375274944 L 631.5 312.1509375274944 L 632.5 309.78691271244907 L 632.5 309.7869127124492 L 633.5 307.389887340775 L 633.5 307.3898873407751 L 634.5 304.9594007418689 L 634.5 304.9594007418689 L 635.5 302.49498581440537 L 635.5 302.49498581440537 L 636.5 299.99616893656764 L 636.5 299.9961689365677 L 637.5 297.4624698750248 L 637.5 297.46246987502485 L 638.5 294.89340169263835 L 638.5 294.89340169263835 L 639.5 292.2884706548806 L 639.5 292.2884706548807 L 640.5 289.64717613494696 L 640.5 289.647176134947 L 641.5 286.96901051754276 L 641.5 286.96901051754276 L 642.5 284.25345910132796 L 642.5 284.2534591013281 L 643.5 281.4999999999998 L 643.5 281.4999999999999 L 644.5 278.7081040419939 L 644.5 278.70810404199403 L 645.5 275.87723466878646 L 645.5 275.8772346687865 L 646.5 273.0068478317755 L 646.5 273.00684783177553 L 647.5 270.09639188772366 L 647.5 270.0963918877237 L 648.5 267.14530749274115 L 648.5 267.1453074927412 L 649.5 264.15302749478815 L 649.5 264.1530274947882 L 650.5 261.1189768246777 L 650.5 261.11897682467776 L 651.5 258.0425723855558 L 651.5 258.0425723855559 L 652.5 254.9232229408401 L 652.5 254.9232229408402 L 653.5 251.76032900059278 L 653.5 251.76032900059286 L 654.5 248.55328270630864 L 654.5 248.55328270630872 L 655.5 245.3014677140937 L 655.5 245.30146771409377 L 656.5 242.00425907621403 L 656.5 242.00425907621414 L 657.5 238.6610231209904 L 657.5 238.6610231209905 L 658.5 235.27111733101648 L 658.5 235.27111733101657 L 659.5 231.8338902196774 L 659.5 231.83389021967747 L 660.5 228.34868120594376 L 660.5 228.34868120594385 L 661.5 224.8148204874189 L 661.5 224.814820487419 L 662.5 221.23162891161303 L 662.5 221.23162891161314 L 663.5 217.59841784542084 L 663.5 217.59841784542095 L 664.5 213.91448904277735 L 664.5 213.9144890427774 L 665.5 210.17913451046536 L 665.5 210.17913451046542 L 666.5 206.39163637205098 L 666.5 206.39163637205104 L 667.5 202.5512667299186 L 667.5 202.55126672991872 L 668.5 198.6572875253807 L 668.5 198.6572875253808 L 669.5 194.7089503968342 L 669.5 194.70895039683433 L 670.5 190.70549653593758 L 670.5 190.70549653593764 L 671.5 186.64615654177948 L 671.5 186.64615654177953 L 672.5 182.530150273012 L 672.5 182.53015027301205 L 673.5 178.35668669792005 L 673.5 178.3566866979201 L 674.5 174.1249637423972 L 674.5 174.1249637423973 L 675.5 169.8341681357997 L 675.5 169.83416813579976 L 676.5 165.48347525464874 L 676.5 165.48347525464885 L 677.5 161.07204896415078 L 677.5 161.0720489641509 L 678.5 156.5990414575054 L 678.5 156.5990414575055 L 679.5 152.06359309297034 L 679.5 152.06359309297045 L 680.5 147.46483222865186 L 680.5 147.46483222865191 L 681.5 142.80187505498873 L 681.5 142.80187505498884 L 682.5 138.07382542489808 L 682.5 138.0738254248982 L 683.5 133.27977468154995 L 683.5 133.27977468155 L 684.5 128.41880148373758 L 684.5 128.4188014837377 L 685.5 123.48997162881057 L 685.5 123.48997162881062 L 686.5 118.49233787313517 L 686.5 118.49233787313528 L 687.5 113.42493975004953 L 687.5 113.42493975004959 L 688.5 108.28680338527658 L 688.5 108.28680338527664 L 689.5 103.07694130976114 L 689.5 103.07694130976125 L 690.5 97.79435226989375 L 690.5 97.79435226989386 L 691.5 92.43802103508528 L 691.5 92.43802103508534 L 692.5 87.00691820265581 L 692.5 87.00691820265587 L 693.5 81.49999999999955 L 693.5 81.49999999999972 L 694.5 75.9162080839879 L 694.5 75.91620808398807 L 695.5 70.25446933757291 L 695.5 70.25446933757308 L 696.5 64.51369566355095 L 696.5 64.51369566355112 L 697.5 58.69278377544731 L 697.5 58.69278377544748 L 698.5 52.79061498548225 L 698.5 52.79061498548242 L 699.5 46.80605498957624 L 699.5 46.80605498957641 L 700.5 40.73795364935518 L 700.5 40.73795364935535 L 701.5 34.585144771111516 L 701.5 34.585144771111686 L 702.5 28.34644588168004 L 702.5 28.34644588168021 L 703.5 22.020658001185495 L 703.5 22.020658001185666 L 704.5 15.606565412617101 L 704.5 15.606565412617272 L 705.5 9.102935428187209 L 705.5 9.10293542818738 L 706.5 2.5085181524278823 L 706.5 2.508518152428053 L 707.5 -4.177953758019385 L 707.5 -4.177953758019214 L 708.5 -10.95776533796709 L 708.5 -10.957765337966919 L 709.0880080848743 -15" stroke-opacity="0.8" stroke-linecap="round" stroke-linejoin="round" stroke-miterlimit="10" stroke-width="5"/><g transform="scale(27,27)"><g transform="translate(2.2222222222222223,17.270147555555557)"><path fill="rgb(204,102,255)" stroke="none" paint-order="stroke fill markers" d=" M 0.449 -0.17400000000000002 L 0.449 -0.17400000000000002 L 0.421 0 L 0.05 0 Q 0.05 -0.025 0.056 -0.032 L 0.061 -0.037 L 0.253 -0.251 Q 0.358 -0.369 0.358 -0.47200000000000003 Q 0.358 -0.561 0.304 -0.607 L 0.303 -0.608 L 0.302 -0.608 Q 0.27 -0.635 0.224 -0.635 Q 0.152 -0.635 0.109 -0.5730000000000001 Q 0.097 -0.555 0.089 -0.533 Q 0.092 -0.534 0.10200000000000001 -0.534 Q 0.14200000000000002 -0.534 0.153 -0.498 L 0.153 -0.497 Q 0.155 -0.49 0.155 -0.482 Q 0.155 -0.442 0.117 -0.431 Q 0.109 -0.429 0.10300000000000001 -0.429 Q 0.066 -0.429 0.054 -0.46 Q 0.05 -0.47100000000000003 0.05 -0.485 Q 0.05 -0.562 0.109 -0.617 Q 0.162 -0.666 0.23700000000000002 -0.666 Q 0.34700000000000003 -0.666 0.40800000000000003 -0.592 Q 0.443 -0.549 0.448 -0.49 Q 0.449 -0.481 0.449 -0.47200000000000003 Q 0.449 -0.399 0.394 -0.333 Q 0.365 -0.299 0.304 -0.243 L 0.243 -0.189 L 0.233 -0.18 L 0.127 -0.077 L 0.307 -0.077 Q 0.395 -0.077 0.402 -0.085 Q 0.41200000000000003 -0.099 0.424 -0.17400000000000002 L 0.449 -0.17400000000000002 Z"/></g><g transform="translate(2.7222222222222223,16.857255555555557) scale(0.7,0.7)"><path fill="rgb(204,102,255)" stroke="none" paint-order="stroke fill markers" d=" M 0.334 -0.302 L 0.3 -0.165 Q 0.28300000000000003 -0.097 0.28300000000000003 -0.077 Q 0.28300000000000003 -0.025 0.32 -0.014 Q 0.328 -0.011 0.338 -0.011 Q 0.388 -0.011 0.429 -0.061 Q 0.456 -0.093 0.47100000000000003 -0.14200000000000002 Q 0.47400000000000003 -0.153 0.484 -0.153 Q 0.496 -0.153 0.496 -0.14300000000000002 Q 0.496 -0.11800000000000001 0.465 -0.07100000000000001 Q 0.41100000000000003 0.011 0.336 0.011 Q 0.268 0.011 0.23700000000000002 -0.046 Q 0.231 -0.055 0.228 -0.065 Q 0.20400000000000001 -0.017 0.162 0.002 Q 0.14300000000000002 0.011 0.123 0.011 Q 0.063 0.011 0.039 -0.024 Q 0.029 -0.037 0.029 -0.055 Q 0.029 -0.092 0.061 -0.107 Q 0.07200000000000001 -0.113 0.084 -0.113 Q 0.114 -0.113 0.12 -0.088 Q 0.121 -0.083 0.121 -0.078 Q 0.121 -0.044 0.08700000000000001 -0.028 Q 0.081 -0.025 0.074 -0.024 Q 0.095 -0.011 0.124 -0.011 Q 0.177 -0.011 0.20800000000000002 -0.082 Q 0.214 -0.097 0.219 -0.115 Q 0.273 -0.319 0.273 -0.353 Q 0.267 -0.41500000000000004 0.219 -0.42 Q 0.167 -0.42 0.124 -0.367 L 0.124 -0.366 Q 0.124 -0.365 0.123 -0.365 Q 0.108 -0.34500000000000003 0.096 -0.319 Q 0.091 -0.307 0.08700000000000001 -0.295 L 0.085 -0.289 Q 0.083 -0.278 0.07200000000000001 -0.278 Q 0.06 -0.278 0.06 -0.28800000000000003 Q 0.06 -0.313 0.092 -0.36 Q 0.146 -0.442 0.221 -0.442 Q 0.298 -0.442 0.329 -0.366 Q 0.361 -0.428 0.41400000000000003 -0.44 Q 0.424 -0.442 0.434 -0.442 Q 0.493 -0.442 0.517 -0.40900000000000003 Q 0.527 -0.395 0.527 -0.376 Q 0.527 -0.335 0.49 -0.321 Q 0.481 -0.318 0.47300000000000003 -0.318 Q 0.442 -0.318 0.436 -0.34500000000000003 Q 0.435 -0.34900000000000003 0.435 -0.353 Q 0.435 -0.383 0.464 -0.4 Q 0.47300000000000003 -0.405 0.483 -0.40700000000000003 Q 0.462 -0.42 0.433 -0.42 Q 0.365 -0.42 0.337 -0.314 Q 0.335 -0.308 0.334 -0.302 Z"/></g></g></g></g></svg>