<svg version="1.1" xmlns="http://www.w3.org/2000/svg" xmlns:xlink="http://www.w3.org/1999/xlink" width="1087" height="963"><defs><clipPath id="GNFbFNQJlcur"><path fill="none" stroke="none" d=" M 0 0 L 1087 0 L 1087 963 L 0 963 L 0 0 Z"/></clipPath></defs><g transform="scale(1,1)" clip-path="url(#GNFbFNQJlcur)"><g><rect fill="rgb(255,255,255)" stroke="none" x="0" y="0" width="1087" height="963" fill-opacity="1"/><path fill="none" stroke="rgb(192,192,192)" paint-order="fill stroke markers" d=" M 72.5 0.5 L 72.5 963.5 M 72.5 0.5 L 72.5 963.5 M 150.5 0.5 L 150.5 963.5 M 229.5 0.5 L 229.5 963.5 M 307.5 0.5 L 307.5 963.5 M 386.5 0.5 L 386.5 963.5 M 464.5 0.5 L 464.5 963.5 M 622.5 0.5 L 622.5 963.5 M 700.5 0.5 L 700.5 963.5 M 779.5 0.5 L 779.5 963.5 M 857.5 0.5 L 857.5 963.5 M 936.5 0.5 L 936.5 963.5 M 1014.5 0.5 L 1014.5 963.5" stroke-opacity="1" stroke-linecap="round" stroke-linejoin="round" stroke-miterlimit="10"/><path fill="none" stroke="rgb(192,192,192)" paint-order="fill stroke markers" d=" M 9.5 0.5 L 9.5 963.5 M 25.5 0.5 L 25.5 963.5 M 40.5 0.5 L 40.5 963.5 M 56.5 0.5 L 56.5 963.5 M 87.5 0.5 L 87.5 963.5 M 103.5 0.5 L 103.5 963.5 M 119.5 0.5 L 119.5 963.5 M 135.5 0.5 L 135.5 963.5 M 166.5 0.5 L 166.5 963.5 M 182.5 0.5 L 182.5 963.5 M 197.5 0.5 L 197.5 963.5 M 213.5 0.5 L 213.5 963.5 M 245.5 0.5 L 245.5 963.5 M 260.5 0.5 L 260.5 963.5 M 276.5 0.5 L 276.5 963.5 M 292.5 0.5 L 292.5 963.5 M 323.5 0.5 L 323.5 963.5 M 339.5 0.5 L 339.5 963.5 M 355.5 0.5 L 355.5 963.5 M 370.5 0.5 L 370.5 963.5 M 402.5 0.5 L 402.5 963.5 M 417.5 0.5 L 417.5 963.5 M 433.5 0.5 L 433.5 963.5 M 449.5 0.5 L 449.5 963.5 M 480.5 0.5 L 480.5 963.5 M 496.5 0.5 L 496.5 963.5 M 512.5 0.5 L 512.5 963.5 M 527.5 0.5 L 527.5 963.5 M 559.5 0.5 L 559.5 963.5 M 574.5 0.5 L 574.5 963.5 M 590.5 0.5 L 590.5 963.5 M 606.5 0.5 L 606.5 963.5 M 637.5 0.5 L 637.5 963.5 M 653.5 0.5 L 653.5 963.5 M 669.5 0.5 L 669.5 963.5 M 684.5 0.5 L 684.5 963.5 M 716.5 0.5 L 716.5 963.5 M 731.5 0.5 L 731.5 963.5 M 747.5 0.5 L 747.5 963.5 M 763.5 0.5 L 763.5 963.5 M 794.5 0.5 L 794.5 963.5 M 810.5 0.5 L 810.5 963.5 M 826.5 0.5 L 826.5 963.5 M 841.5 0.5 L 841.5 963.5 M 873.5 0.5 L 873.5 963.5 M 889.5 0.5 L 889.5 963.5 M 904.5 0.5 L 904.5 963.5 M 920.5 0.5 L 920.5 963.5 M 951.5 0.5 L 951.5 963.5 M 967.5 0.5 L 967.5 963.5 M 983.5 0.5 L 983.5 963.5 M 999.5 0.5 L 999.5 963.5 M 1030.5 0.5 L 1030.5 963.5 M 1046.5 0.5 L 1046.5 963.5 M 1061.5 0.5 L 1061.5 963.5 M 1077.5 0.5 L 1077.5 963.5" stroke-opacity="0.23529411764705882" stroke-linecap="round" stroke-linejoin="round" stroke-miterlimit="10"/><path fill="none" stroke="rgb(192,192,192)" paint-order="fill stroke markers" d=" M 0.5 27.5 L 1087.5 27.5 M 0.5 27.5 L 1087.5 27.5 M 0.5 178.5 L 1087.5 178.5 M 0.5 330.5 L 1087.5 330.5 M 0.5 632.5 L 1087.5 632.5 M 0.5 784.5 L 1087.5 784.5 M 0.5 935.5 L 1087.5 935.5" stroke-opacity="1" stroke-linecap="round" stroke-linejoin="round" stroke-miterlimit="10"/><path fill="none" stroke="rgb(192,192,192)" paint-order="fill stroke markers" d=" M 0.5 27.5 L 1087.5 27.5 M 0.5 57.5 L 1087.5 57.5 M 0.5 88.5 L 1087.5 88.5 M 0.5 118.5 L 1087.5 118.5 M 0.5 148.5 L 1087.5 148.5 M 0.5 209.5 L 1087.5 209.5 M 0.5 239.5 L 1087.5 239.5 M 0.5 269.5 L 1087.5 269.5 M 0.5 299.5 L 1087.5 299.5 M 0.5 360.5 L 1087.5 360.5 M 0.5 390.5 L 1087.5 390.5 M 0.5 420.5 L 1087.5 420.5 M 0.5 451.5 L 1087.5 451.5 M 0.5 511.5 L 1087.5 511.5 M 0.5 542.5 L 1087.5 542.5 M 0.5 572.5 L 1087.5 572.5 M 0.5 602.5 L 1087.5 602.5 M 0.5 663.5 L 1087.5 663.5 M 0.5 693.5 L 1087.5 693.5 M 0.5 723.5 L 1087.5 723.5 M 0.5 753.5 L 1087.5 753.5 M 0.5 814.5 L 1087.5 814.5 M 0.5 844.5 L 1087.5 844.5 M 0.5 874.5 L 1087.5 874.5 M 0.5 905.5 L 1087.5 905.5" stroke-opacity="0.23529411764705882" stroke-linecap="round" stroke-linejoin="round" stroke-miterlimit="10"/><path fill="none" stroke="rgb(37,37,37)" paint-order="fill stroke markers" d=" M 543.5 2.5 L 543.5 963.5" stroke-opacity="1" stroke-miterlimit="10"/><path fill="none" stroke="rgb(37,37,37)" paint-order="fill stroke markers" d=" M 543.5 1.5 L 537.5 7.5" stroke-opacity="1" stroke-miterlimit="10"/><path fill="none" stroke="rgb(37,37,37)" paint-order="fill stroke markers" d=" M 543.5 1.5 L 549.5 7.5" stroke-opacity="1" stroke-miterlimit="10"/><path fill="none" stroke="rgb(37,37,37)" paint-order="fill stroke markers" d=" M 0.5 481.5 L 1085.5 481.5" stroke-opacity="1" stroke-miterlimit="10"/><path fill="none" stroke="rgb(37,37,37)" paint-order="fill stroke markers" d=" M 1086.5 481.5 L 1080.5 475.5" stroke-opacity="1" stroke-miterlimit="10"/><path fill="none" stroke="rgb(37,37,37)" paint-order="fill stroke markers" d=" M 1086.5 481.5 L 1080.5 487.5" stroke-opacity="1" stroke-miterlimit="10"/><text fill="rgb(37,37,37)" stroke="none" font-family="geogebra-sans-serif, sans-serif" font-size="18px" font-style="normal" font-weight="normal" text-decoration="normal" x="59" y="503" text-anchor="start" dominant-baseline="alphabetic" fill-opacity="1">–3π</text><text fill="none" stroke="rgb(255,255,255)" font-family="geogebra-sans-serif, sans-serif" font-size="18px" font-style="normal" font-weight="normal" text-decoration="normal" x="59" y="503" text-anchor="start" dominant-baseline="alphabetic" stroke-opacity="1" stroke-linejoin="bevel" stroke-miterlimit="10" stroke-width="3">–3π</text><text fill="rgb(37,37,37)" stroke="none" font-family="geogebra-sans-serif, sans-serif" font-size="18px" font-style="normal" font-weight="normal" text-decoration="normal" x="59" y="503" text-anchor="start" dominant-baseline="alphabetic" fill-opacity="1">–3π</text><text fill="rgb(37,37,37)" stroke="none" font-family="geogebra-sans-serif, sans-serif" font-size="18px" font-style="normal" font-weight="normal" text-decoration="normal" x="120" y="503" text-anchor="start" dominant-baseline="alphabetic" fill-opacity="1">–5π / 2</text><text fill="none" stroke="rgb(255,255,255)" font-family="geogebra-sans-serif, sans-serif" font-size="18px" font-style="normal" font-weight="normal" text-decoration="normal" x="120" y="503" text-anchor="start" dominant-baseline="alphabetic" stroke-opacity="1" stroke-linejoin="bevel" stroke-miterlimit="10" stroke-width="3">–5π / 2</text><text fill="rgb(37,37,37)" stroke="none" font-family="geogebra-sans-serif, sans-serif" font-size="18px" font-style="normal" font-weight="normal" text-decoration="normal" x="120" y="503" text-anchor="start" dominant-baseline="alphabetic" fill-opacity="1">–5π / 2</text><text fill="rgb(37,37,37)" stroke="none" font-family="geogebra-sans-serif, sans-serif" font-size="18px" font-style="normal" font-weight="normal" text-decoration="normal" x="216" y="503" text-anchor="start" dominant-baseline="alphabetic" fill-opacity="1">–2π</text><text fill="none" stroke="rgb(255,255,255)" font-family="geogebra-sans-serif, sans-serif" font-size="18px" font-style="normal" font-weight="normal" text-decoration="normal" x="216" y="503" text-anchor="start" dominant-baseline="alphabetic" stroke-opacity="1" stroke-linejoin="bevel" stroke-miterlimit="10" stroke-width="3">–2π</text><text fill="rgb(37,37,37)" stroke="none" font-family="geogebra-sans-serif, sans-serif" font-size="18px" font-style="normal" font-weight="normal" text-decoration="normal" x="216" y="503" text-anchor="start" dominant-baseline="alphabetic" fill-opacity="1">–2π</text><text fill="rgb(37,37,37)" stroke="none" font-family="geogebra-sans-serif, sans-serif" font-size="18px" font-style="normal" font-weight="normal" text-decoration="normal" x="277" y="503" text-anchor="start" dominant-baseline="alphabetic" fill-opacity="1">–3π / 2</text><text fill="none" stroke="rgb(255,255,255)" font-family="geogebra-sans-serif, sans-serif" font-size="18px" font-style="normal" font-weight="normal" text-decoration="normal" x="277" y="503" text-anchor="start" dominant-baseline="alphabetic" stroke-opacity="1" stroke-linejoin="bevel" stroke-miterlimit="10" stroke-width="3">–3π / 2</text><text fill="rgb(37,37,37)" stroke="none" font-family="geogebra-sans-serif, sans-serif" font-size="18px" font-style="normal" font-weight="normal" text-decoration="normal" x="277" y="503" text-anchor="start" dominant-baseline="alphabetic" fill-opacity="1">–3π / 2</text><text fill="rgb(37,37,37)" stroke="none" font-family="geogebra-sans-serif, sans-serif" font-size="18px" font-style="normal" font-weight="normal" text-decoration="normal" x="378" y="503" text-anchor="start" dominant-baseline="alphabetic" fill-opacity="1">–π</text><text fill="none" stroke="rgb(255,255,255)" font-family="geogebra-sans-serif, sans-serif" font-size="18px" font-style="normal" font-weight="normal" text-decoration="normal" x="378" y="503" text-anchor="start" dominant-baseline="alphabetic" stroke-opacity="1" stroke-linejoin="bevel" stroke-miterlimit="10" stroke-width="3">–π</text><text fill="rgb(37,37,37)" stroke="none" font-family="geogebra-sans-serif, sans-serif" font-size="18px" font-style="normal" font-weight="normal" text-decoration="normal" x="378" y="503" text-anchor="start" dominant-baseline="alphabetic" fill-opacity="1">–π</text><text fill="rgb(37,37,37)" stroke="none" font-family="geogebra-sans-serif, sans-serif" font-size="18px" font-style="normal" font-weight="normal" text-decoration="normal" x="438" y="503" text-anchor="start" dominant-baseline="alphabetic" fill-opacity="1">–π / 2</text><text fill="none" stroke="rgb(255,255,255)" font-family="geogebra-sans-serif, sans-serif" font-size="18px" font-style="normal" font-weight="normal" text-decoration="normal" x="438" y="503" text-anchor="start" dominant-baseline="alphabetic" stroke-opacity="1" stroke-linejoin="bevel" stroke-miterlimit="10" stroke-width="3">–π / 2</text><text fill="rgb(37,37,37)" stroke="none" font-family="geogebra-sans-serif, sans-serif" font-size="18px" font-style="normal" font-weight="normal" text-decoration="normal" x="438" y="503" text-anchor="start" dominant-baseline="alphabetic" fill-opacity="1">–π / 2</text><text fill="rgb(37,37,37)" stroke="none" font-family="geogebra-sans-serif, sans-serif" font-size="18px" font-style="normal" font-weight="normal" text-decoration="normal" x="600" y="503" text-anchor="start" dominant-baseline="alphabetic" fill-opacity="1">π / 2</text><text fill="none" stroke="rgb(255,255,255)" font-family="geogebra-sans-serif, sans-serif" font-size="18px" font-style="normal" font-weight="normal" text-decoration="normal" x="600" y="503" text-anchor="start" dominant-baseline="alphabetic" stroke-opacity="1" stroke-linejoin="bevel" stroke-miterlimit="10" stroke-width="3">π / 2</text><text fill="rgb(37,37,37)" stroke="none" font-family="geogebra-sans-serif, sans-serif" font-size="18px" font-style="normal" font-weight="normal" text-decoration="normal" x="600" y="503" text-anchor="start" dominant-baseline="alphabetic" fill-opacity="1">π / 2</text><text fill="rgb(37,37,37)" stroke="none" font-family="geogebra-sans-serif, sans-serif" font-size="18px" font-style="normal" font-weight="normal" text-decoration="normal" x="697" y="503" text-anchor="start" dominant-baseline="alphabetic" fill-opacity="1">π</text><text fill="none" stroke="rgb(255,255,255)" font-family="geogebra-sans-serif, sans-serif" font-size="18px" font-style="normal" font-weight="normal" text-decoration="normal" x="697" y="503" text-anchor="start" dominant-baseline="alphabetic" stroke-opacity="1" stroke-linejoin="bevel" stroke-miterlimit="10" stroke-width="3">π</text><text fill="rgb(37,37,37)" stroke="none" font-family="geogebra-sans-serif, sans-serif" font-size="18px" font-style="normal" font-weight="normal" text-decoration="normal" x="697" y="503" text-anchor="start" dominant-baseline="alphabetic" fill-opacity="1">π</text><text fill="rgb(37,37,37)" stroke="none" font-family="geogebra-sans-serif, sans-serif" font-size="18px" font-style="normal" font-weight="normal" text-decoration="normal" x="753" y="503" text-anchor="start" dominant-baseline="alphabetic" fill-opacity="1">3π / 2</text><text fill="none" stroke="rgb(255,255,255)" font-family="geogebra-sans-serif, sans-serif" font-size="18px" font-style="normal" font-weight="normal" text-decoration="normal" x="753" y="503" text-anchor="start" dominant-baseline="alphabetic" stroke-opacity="1" stroke-linejoin="bevel" stroke-miterlimit="10" stroke-width="3">3π / 2</text><text fill="rgb(37,37,37)" stroke="none" font-family="geogebra-sans-serif, sans-serif" font-size="18px" font-style="normal" font-weight="normal" text-decoration="normal" x="753" y="503" text-anchor="start" dominant-baseline="alphabetic" fill-opacity="1">3π / 2</text><text fill="rgb(37,37,37)" stroke="none" font-family="geogebra-sans-serif, sans-serif" font-size="18px" font-style="normal" font-weight="normal" text-decoration="normal" x="849" y="503" text-anchor="start" dominant-baseline="alphabetic" fill-opacity="1">2π</text><text fill="none" stroke="rgb(255,255,255)" font-family="geogebra-sans-serif, sans-serif" font-size="18px" font-style="normal" font-weight="normal" text-decoration="normal" x="849" y="503" text-anchor="start" dominant-baseline="alphabetic" stroke-opacity="1" stroke-linejoin="bevel" stroke-miterlimit="10" stroke-width="3">2π</text><text fill="rgb(37,37,37)" stroke="none" font-family="geogebra-sans-serif, sans-serif" font-size="18px" font-style="normal" font-weight="normal" text-decoration="normal" x="849" y="503" text-anchor="start" dominant-baseline="alphabetic" fill-opacity="1">2π</text><text fill="rgb(37,37,37)" stroke="none" font-family="geogebra-sans-serif, sans-serif" font-size="18px" font-style="normal" font-weight="normal" text-decoration="normal" x="910" y="503" text-anchor="start" dominant-baseline="alphabetic" fill-opacity="1">5π / 2</text><text fill="none" stroke="rgb(255,255,255)" font-family="geogebra-sans-serif, sans-serif" font-size="18px" font-style="normal" font-weight="normal" text-decoration="normal" x="910" y="503" text-anchor="start" dominant-baseline="alphabetic" stroke-opacity="1" stroke-linejoin="bevel" stroke-miterlimit="10" stroke-width="3">5π / 2</text><text fill="rgb(37,37,37)" stroke="none" font-family="geogebra-sans-serif, sans-serif" font-size="18px" font-style="normal" font-weight="normal" text-decoration="normal" x="910" y="503" text-anchor="start" dominant-baseline="alphabetic" fill-opacity="1">5π / 2</text><text fill="rgb(37,37,37)" stroke="none" font-family="geogebra-sans-serif, sans-serif" font-size="18px" font-style="normal" font-weight="normal" text-decoration="normal" x="1006" y="503" text-anchor="start" dominant-baseline="alphabetic" fill-opacity="1">3π</text><text fill="none" stroke="rgb(255,255,255)" font-family="geogebra-sans-serif, sans-serif" font-size="18px" font-style="normal" font-weight="normal" text-decoration="normal" x="1006" y="503" text-anchor="start" dominant-baseline="alphabetic" stroke-opacity="1" stroke-linejoin="bevel" stroke-miterlimit="10" stroke-width="3">3π</text><text fill="rgb(37,37,37)" stroke="none" font-family="geogebra-sans-serif, sans-serif" font-size="18px" font-style="normal" font-weight="normal" text-decoration="normal" x="1006" y="503" text-anchor="start" dominant-baseline="alphabetic" fill-opacity="1">3π</text><text fill="rgb(37,37,37)" stroke="none" font-family="geogebra-sans-serif, sans-serif" font-size="24px" font-style="normal" font-weight="normal" text-decoration="normal" x="548" y="23" text-anchor="start" dominant-baseline="alphabetic" fill-opacity="1">y</text><text fill="rgb(37,37,37)" stroke="none" font-family="geogebra-sans-serif, sans-serif" font-size="18px" font-style="normal" font-weight="normal" text-decoration="normal" x="478" y="943" text-anchor="start" dominant-baseline="alphabetic" fill-opacity="1">–3π / 2</text><text fill="none" stroke="rgb(255,255,255)" font-family="geogebra-sans-serif, sans-serif" font-size="18px" font-style="normal" font-weight="normal" text-decoration="normal" x="478" y="943" text-anchor="start" dominant-baseline="alphabetic" stroke-opacity="1" stroke-linejoin="bevel" stroke-miterlimit="10" stroke-width="3">–3π / 2</text><text fill="rgb(37,37,37)" stroke="none" font-family="geogebra-sans-serif, sans-serif" font-size="18px" font-style="normal" font-weight="normal" text-decoration="normal" x="478" y="943" text-anchor="start" dominant-baseline="alphabetic" fill-opacity="1">–3π / 2</text><text fill="rgb(37,37,37)" stroke="none" font-family="geogebra-sans-serif, sans-serif" font-size="18px" font-style="normal" font-weight="normal" text-decoration="normal" x="513" y="792" text-anchor="start" dominant-baseline="alphabetic" fill-opacity="1">–π</text><text fill="none" stroke="rgb(255,255,255)" font-family="geogebra-sans-serif, sans-serif" font-size="18px" font-style="normal" font-weight="normal" text-decoration="normal" x="513" y="792" text-anchor="start" dominant-baseline="alphabetic" stroke-opacity="1" stroke-linejoin="bevel" stroke-miterlimit="10" stroke-width="3">–π</text><text fill="rgb(37,37,37)" stroke="none" font-family="geogebra-sans-serif, sans-serif" font-size="18px" font-style="normal" font-weight="normal" text-decoration="normal" x="513" y="792" text-anchor="start" dominant-baseline="alphabetic" fill-opacity="1">–π</text><text fill="rgb(37,37,37)" stroke="none" font-family="geogebra-sans-serif, sans-serif" font-size="18px" font-style="normal" font-weight="normal" text-decoration="normal" x="488" y="640" text-anchor="start" dominant-baseline="alphabetic" fill-opacity="1">–π / 2</text><text fill="none" stroke="rgb(255,255,255)" font-family="geogebra-sans-serif, sans-serif" font-size="18px" font-style="normal" font-weight="normal" text-decoration="normal" x="488" y="640" text-anchor="start" dominant-baseline="alphabetic" stroke-opacity="1" stroke-linejoin="bevel" stroke-miterlimit="10" stroke-width="3">–π / 2</text><text fill="rgb(37,37,37)" stroke="none" font-family="geogebra-sans-serif, sans-serif" font-size="18px" font-style="normal" font-weight="normal" text-decoration="normal" x="488" y="640" text-anchor="start" dominant-baseline="alphabetic" fill-opacity="1">–π / 2</text><text fill="rgb(37,37,37)" stroke="none" font-family="geogebra-sans-serif, sans-serif" font-size="18px" font-style="normal" font-weight="normal" text-decoration="normal" x="498" y="338" text-anchor="start" dominant-baseline="alphabetic" fill-opacity="1">π / 2</text><text fill="none" stroke="rgb(255,255,255)" font-family="geogebra-sans-serif, sans-serif" font-size="18px" font-style="normal" font-weight="normal" text-decoration="normal" x="498" y="338" text-anchor="start" dominant-baseline="alphabetic" stroke-opacity="1" stroke-linejoin="bevel" stroke-miterlimit="10" stroke-width="3">π / 2</text><text fill="rgb(37,37,37)" stroke="none" font-family="geogebra-sans-serif, sans-serif" font-size="18px" font-style="normal" font-weight="normal" text-decoration="normal" x="498" y="338" text-anchor="start" dominant-baseline="alphabetic" fill-opacity="1">π / 2</text><text fill="rgb(37,37,37)" stroke="none" font-family="geogebra-sans-serif, sans-serif" font-size="18px" font-style="normal" font-weight="normal" text-decoration="normal" x="523" y="186" text-anchor="start" dominant-baseline="alphabetic" fill-opacity="1">π</text><text fill="none" stroke="rgb(255,255,255)" font-family="geogebra-sans-serif, sans-serif" font-size="18px" font-style="normal" font-weight="normal" text-decoration="normal" x="523" y="186" text-anchor="start" dominant-baseline="alphabetic" stroke-opacity="1" stroke-linejoin="bevel" stroke-miterlimit="10" stroke-width="3">π</text><text fill="rgb(37,37,37)" stroke="none" font-family="geogebra-sans-serif, sans-serif" font-size="18px" font-style="normal" font-weight="normal" text-decoration="normal" x="523" y="186" text-anchor="start" dominant-baseline="alphabetic" fill-opacity="1">π</text><text fill="rgb(37,37,37)" stroke="none" font-family="geogebra-sans-serif, sans-serif" font-size="18px" font-style="normal" font-weight="normal" text-decoration="normal" x="488" y="35" text-anchor="start" dominant-baseline="alphabetic" fill-opacity="1">3π / 2</text><text fill="none" stroke="rgb(255,255,255)" font-family="geogebra-sans-serif, sans-serif" font-size="18px" font-style="normal" font-weight="normal" text-decoration="normal" x="488" y="35" text-anchor="start" dominant-baseline="alphabetic" stroke-opacity="1" stroke-linejoin="bevel" stroke-miterlimit="10" stroke-width="3">3π / 2</text><text fill="rgb(37,37,37)" stroke="none" font-family="geogebra-sans-serif, sans-serif" font-size="18px" font-style="normal" font-weight="normal" text-decoration="normal" x="488" y="35" text-anchor="start" dominant-baseline="alphabetic" fill-opacity="1">3π / 2</text><text fill="rgb(37,37,37)" stroke="none" font-family="geogebra-sans-serif, sans-serif" font-size="18px" font-style="normal" font-weight="normal" text-decoration="normal" x="525" y="503" text-anchor="start" dominant-baseline="alphabetic" fill-opacity="1">0</text><text fill="none" stroke="rgb(255,255,255)" font-family="geogebra-sans-serif, sans-serif" font-size="18px" font-style="normal" font-weight="normal" text-decoration="normal" x="525" y="503" text-anchor="start" dominant-baseline="alphabetic" stroke-opacity="1" stroke-linejoin="bevel" stroke-miterlimit="10" stroke-width="3">0</text><text fill="rgb(37,37,37)" stroke="none" font-family="geogebra-sans-serif, sans-serif" font-size="18px" font-style="normal" font-weight="normal" text-decoration="normal" x="525" y="503" text-anchor="start" dominant-baseline="alphabetic" fill-opacity="1">0</text><path fill="none" stroke="rgb(211,47,47)" paint-order="fill stroke markers" d=" M 0.5 623.9252182136921 L 0.5 623.9413817896016 L 0.5 623.9252182136922 L 1.5 623.908995495976 L 1.5 623.9089954959761 L 2.5 623.8927133121881 L 2.5 623.8927133121881 L 3.5 623.8763713356955 L 3.5 623.8763713356956 L 4.5 623.8599692374756 L 4.5 623.8599692374756 L 5.5 623.8435066860943 L 5.5 623.8435066860944 L 6.5 623.8269833476842 L 6.5 623.8269833476843 L 7.5 623.8103988859218 L 7.5 623.8103988859218 L 8.5 623.7937529620054 L 8.5 623.7937529620056 L 9.5 623.7770452346323 L 9.5 623.7770452346323 L 10.5 623.760275359975 L 10.5 623.7602753599751 L 11.5 623.7434429916591 L 11.5 623.7434429916592 L 12.5 623.7265477807389 L 12.5 623.7265477807389 L 13.5 623.7095893756734 L 13.5 623.7095893756734 L 14.5 623.6925674223031 L 14.5 623.6925674223032 L 15.5 623.6754815638249 L 15.5 623.6754815638249 L 16.5 623.6583314407675 L 16.5 623.6583314407676 L 17.5 623.641116690967 L 17.5 623.641116690967 L 18.5 623.6238369495411 L 18.5 623.6238369495411 L 19.5 623.6064918488642 L 19.5 623.6064918488642 L 20.5 623.5890810185409 L 20.5 623.5890810185409 L 21.5 623.5716040853811 L 21.5 623.5716040853811 L 22.5 623.5540606733723 L 22.5 623.5540606733724 L 23.5 623.5364504036543 L 23.5 623.5364504036543 L 24.5 623.5187728944909 L 24.5 623.5187728944909 L 25.5 623.5010277612439 L 25.5 623.5010277612439 L 26.5 623.4832146163449 L 26.5 623.4832146163449 L 27.5 623.4653330692673 L 27.5 623.4653330692673 L 28.5 623.4473827264987 L 28.5 623.4473827264987 L 29.5 623.429363191512 L 29.5 623.429363191512 L 30.5 623.4112740647365 L 30.5 623.4112740647365 L 31.5 623.3931149435289 L 31.5 623.3931149435289 L 32.5 623.3748854221437 L 32.5 623.3748854221438 L 33.49999999999994 623.3565850917039 L 33.49999999999994 623.3565850917039 L 34.50000000000006 623.3382135401697 L 34.50000000000006 623.3382135401698 L 35.5 623.3197703523092 L 35.5 623.3197703523092 L 36.5 623.3012551096666 L 36.5 623.3012551096666 L 37.49999999999994 623.2826673905314 L 37.49999999999994 623.2826673905315 L 38.50000000000006 623.2640067699069 L 38.50000000000006 623.264006769907 L 39.5 623.245272819478 L 39.5 623.245272819478 L 40.5 623.2264651075786 L 40.5 623.2264651075786 L 41.49999999999994 623.2075831991597 L 41.49999999999994 623.2075831991597 L 42.50000000000006 623.1886266557552 L 42.50000000000006 623.1886266557552 L 43.5 623.1695950354497 L 43.5 623.1695950354497 L 44.5 623.1504878928432 L 44.5 623.1504878928432 L 45.5 623.1313047790181 L 45.5 623.1313047790181 L 46.50000000000006 623.1120452415039 L 46.50000000000006 623.1120452415039 L 47.5 623.0927088242416 L 47.5 623.0927088242418 L 48.5 623.0732950675496 L 48.5 623.0732950675497 L 49.5 623.0538035080862 L 49.5 623.0538035080863 L 50.50000000000006 623.0342336788143 L 50.50000000000006 623.0342336788143 L 51.5 623.0145851089642 L 51.5 623.0145851089642 L 52.5 622.9948573239965 L 52.5 622.9948573239965 L 53.5 622.9750498455642 L 53.5 622.9750498455643 L 54.49999999999994 622.955162191475 L 54.49999999999994 622.955162191475 L 55.50000000000006 622.9351938756521 L 55.50000000000006 622.9351938756522 L 56.5 622.9151444080959 L 56.5 622.915144408096 L 57.5 622.8950132948438 L 57.5 622.8950132948439 L 58.49999999999994 622.8748000379306 L 58.49999999999994 622.8748000379308 L 59.50000000000006 622.854504135348 L 59.50000000000006 622.8545041353481 L 60.5 622.8341250810033 L 60.5 622.8341250810033 L 61.5 622.8136623646785 L 61.5 622.8136623646785 L 62.49999999999994 622.7931154719878 L 62.49999999999994 622.7931154719878 L 63.50000000000006 622.7724838843353 L 63.50000000000006 622.7724838843353 L 64.5 622.7517670788723 L 64.5 622.7517670788723 L 65.5 622.7309645284531 L 65.5 622.7309645284532 L 66.5 622.7100757015919 L 66.5 622.7100757015919 L 67.50000000000006 622.6891000624171 L 67.50000000000006 622.6891000624171 L 68.5 622.668037070627 L 68.5 622.6680370706271 L 69.5 622.6468861814437 L 69.5 622.6468861814437 L 70.5 622.625646845567 L 70.5 622.625646845567 L 71.50000000000006 622.6043185091273 L 71.50000000000006 622.6043185091273 L 72.5 622.5829006136386 L 72.5 622.5829006136387 L 73.5 622.5613925959501 L 73.5 622.5613925959501 L 74.5 622.5397938881976 L 74.5 622.5397938881977 L 75.49999999999994 622.5181039177546 L 75.49999999999994 622.5181039177546 L 76.50000000000006 622.4963221071822 L 76.50000000000006 622.4963221071822 L 77.5 622.4744478741787 L 77.5 622.4744478741788 L 78.5 622.4524806315286 L 78.5 622.4524806315286 L 79.49999999999994 622.4304197870506 L 79.49999999999994 622.4304197870506 L 80.50000000000006 622.4082647435455 L 80.50000000000006 622.4082647435455 L 81.5 622.386014898743 L 81.5 622.386014898743 L 82.5 622.3636696452481 L 82.5 622.3636696452481 L 83.49999999999994 622.3412283704865 L 83.49999999999994 622.3412283704866 L 84.50000000000006 622.3186904566498 L 84.50000000000006 622.3186904566498 L 85.5 622.2960552806392 L 85.5 622.2960552806393 L 86.5 622.2733222140096 L 86.5 622.2733222140096 L 87.5 622.2504906229119 L 87.5 622.2504906229119 L 88.50000000000006 622.2275598680352 L 88.50000000000006 622.2275598680353 L 89.5 622.2045293045484 L 89.5 622.2045293045484 L 90.5 622.1813982820399 L 90.5 622.1813982820399 L 91.5 622.1581661444584 L 91.5 622.1581661444585 L 92.50000000000006 622.1348322300512 L 92.50000000000006 622.1348322300512 L 93.5 622.1113958713024 L 93.5 622.1113958713024 L 94.5 622.0878563948706 L 94.5 622.0878563948708 L 95.5 622.0642131215257 L 95.5 622.0642131215258 L 96.49999999999994 622.0404653660837 L 96.49999999999994 622.0404653660837 L 97.50000000000006 622.0166124373427 L 97.50000000000006 622.0166124373427 L 98.5 621.9926536380161 L 98.5 621.9926536380161 L 99.5 621.9685882646666 L 99.5 621.9685882646667 L 100.49999999999994 621.9444156076379 L 100.49999999999994 621.9444156076379 L 101.50000000000006 621.9201349509862 L 101.50000000000006 621.9201349509863 L 102.5 621.8957455724111 L 102.5 621.8957455724111 L 103.5 621.8712467431849 L 103.5 621.8712467431849 L 104.49999999999994 621.8466377280812 L 104.49999999999994 621.8466377280812 L 105.50000000000006 621.8219177853028 L 105.50000000000006 621.821917785303 L 106.5 621.7970861664088 L 106.5 621.7970861664088 L 107.5 621.7721421162393 L 107.5 621.7721421162394 L 108.5 621.7470848728415 L 108.5 621.7470848728415 L 109.50000000000006 621.7219136673924 L 109.50000000000006 621.7219136673924 L 110.5 621.6966277241224 L 110.5 621.6966277241225 L 111.5 621.6712262602367 L 111.5 621.6712262602367 L 112.5 621.6457084858355 L 112.5 621.6457084858356 L 113.50000000000006 621.6200736038345 L 113.50000000000006 621.6200736038345 L 114.5 621.5943208098824 L 114.5 621.5943208098824 L 115.5 621.5684492922792 L 115.5 621.5684492922793 L 116.5 621.542458231892 L 116.5 621.542458231892 L 117.49999999999994 621.5163468020703 L 117.49999999999994 621.5163468020703 L 118.50000000000006 621.4901141685596 L 118.50000000000006 621.4901141685596 L 119.5 621.4637594894145 L 119.5 621.4637594894145 L 120.5 621.4372819149107 L 120.5 621.4372819149107 L 121.49999999999994 621.4106805874545 L 121.49999999999994 621.4106805874545 L 122.50000000000006 621.3839546414927 L 122.50000000000006 621.3839546414927 L 123.5 621.3571032034199 L 123.5 621.3571032034199 L 124.5 621.3301253914856 L 124.5 621.3301253914856 L 125.49999999999994 621.3030203156991 L 125.49999999999994 621.3030203156992 L 126.50000000000006 621.2757870777341 L 126.50000000000006 621.2757870777341 L 127.5 621.2484247708305 L 127.5 621.2484247708306 L 128.5 621.2209324796967 L 128.5 621.2209324796968 L 129.5 621.1933092804085 L 129.5 621.1933092804085 L 130.50000000000006 621.1655542403082 L 130.50000000000006 621.1655542403082 L 131.5 621.1376664179018 L 131.5 621.1376664179018 L 132.5 621.1096448627543 L 132.5 621.1096448627543 L 133.5 621.0814886153839 L 133.5 621.081488615384 L 134.50000000000006 621.0531967071552 L 134.50000000000006 621.0531967071552 L 135.5 621.0247681601691 L 135.5 621.0247681601691 L 136.5 620.9962019871537 L 136.5 620.9962019871538 L 137.5 620.9674971913519 L 137.5 620.9674971913519 L 138.49999999999994 620.9386527664072 L 138.49999999999994 620.9386527664072 L 139.5 620.9096676962495 L 139.5 620.9096676962496 L 140.5 620.8805409549774 L 140.5 620.8805409549775 L 141.5 620.8512715067401 L 141.5 620.8512715067402 L 142.49999999999994 620.8218583056168 L 142.49999999999994 620.821858305617 L 143.5 620.7923002954954 L 143.5 620.7923002954955 L 144.5 620.7625964099476 L 144.5 620.7625964099476 L 145.5 620.7327455721045 L 145.5 620.7327455721045 L 146.5 620.7027466945282 L 146.5 620.7027466945283 L 147.5 620.6725986790835 L 147.5 620.6725986790836 L 148.5 620.6423004168062 L 148.5 620.6423004168062 L 149.5 620.6118507877698 L 149.5 620.6118507877698 L 150.5 620.5812486609509 L 150.5 620.5812486609509 L 151.5 620.5504928940925 L 151.5 620.5504928940925 L 152.5 620.519582333564 L 152.5 620.5195823335641 L 153.5 620.488515814221 L 153.5 620.4885158142212 L 154.5 620.4572921592618 L 154.5 620.4572921592619 L 155.5 620.4259101800817 L 155.5 620.4259101800818 L 156.5 620.3943686761263 L 156.5 620.3943686761263 L 157.5 620.3626664347412 L 157.5 620.3626664347412 L 158.5 620.3308022310202 L 158.5 620.3308022310202 L 159.5 620.2987748276513 L 159.5 620.2987748276514 L 160.5 620.2665829747601 L 160.5 620.2665829747601 L 161.5 620.2342254097507 L 161.5 620.2342254097507 L 162.5 620.2017008571445 L 162.5 620.2017008571446 L 163.5 620.1690080284168 L 163.5 620.1690080284169 L 164.5 620.1361456218301 L 164.5 620.1361456218301 L 165.5 620.1031123222654 L 165.5 620.1031123222654 L 166.5 620.0699068010513 L 166.5 620.0699068010513 L 167.5 620.0365277157896 L 167.5 620.0365277157896 L 168.5 620.0029737101788 L 168.5 620.0029737101788 L 169.5 619.9692434138349 L 169.5 619.9692434138349 L 170.5 619.9353354421091 L 170.5 619.9353354421091 L 171.5 619.9012483959028 L 171.5 619.9012483959029 L 172.5 619.8669808614804 L 172.5 619.8669808614804 L 173.5 619.8325314102776 L 173.5 619.8325314102777 L 174.5 619.7978985987088 L 174.5 619.7978985987088 L 175.5 619.7630809679696 L 175.5 619.7630809679696 L 176.5 619.7280770438373 L 176.5 619.7280770438373 L 177.5 619.6928853364682 L 177.5 619.6928853364682 L 178.5 619.657504340191 L 178.5 619.657504340191 L 179.5 619.6219325332983 L 179.5 619.6219325332984 L 180.5 619.5861683778328 L 180.5 619.5861683778328 L 181.5 619.5502103193722 L 181.5 619.5502103193722 L 182.5 619.5140567868094 L 182.5 619.5140567868094 L 183.5 619.4777061921294 L 183.5 619.4777061921294 L 184.5 619.4411569301831 L 184.5 619.4411569301832 L 185.5 619.4044073784569 L 185.5 619.404407378457 L 186.5 619.3674558968391 L 186.5 619.3674558968391 L 187.5 619.3303008273822 L 187.5 619.3303008273822 L 188.5 619.292940494061 L 188.5 619.292940494061 L 189.5 619.2553732025283 L 189.5 619.2553732025283 L 190.5 619.2175972398647 L 190.5 619.2175972398647 L 191.5 619.1796108743257 L 191.5 619.1796108743257 L 192.5 619.1414123550838 L 192.5 619.141412355084 L 193.5 619.1029999119676 L 193.5 619.1029999119676 L 194.5 619.0643717551945 L 194.5 619.0643717551945 L 195.5 619.0255260751019 L 195.5 619.0255260751019 L 196.5 618.9864610418713 L 196.5 618.9864610418713 L 197.5 618.9471748052491 L 197.5 618.9471748052491 L 198.5 618.9076654942633 L 198.5 618.9076654942634 L 199.5 618.867931216934 L 199.5 618.8679312169342 L 200.5 618.8279700599808 L 200.5 618.8279700599808 L 201.5 618.787780088523 L 201.5 618.7877800885232 L 202.5 618.7473593457785 L 202.5 618.7473593457785 L 203.5 618.7067058527527 L 203.5 618.7067058527527 L 204.5 618.6658176079272 L 204.5 618.6658176079272 L 205.5 618.6246925869394 L 205.5 618.6246925869394 L 206.5 618.5833287422588 L 206.5 618.5833287422589 L 207.5 618.5417240028573 L 207.5 618.5417240028573 L 208.5 618.4998762738732 L 208.5 618.4998762738733 L 209.5 618.4577834362706 L 209.5 618.4577834362707 L 210.5 618.4154433464926 L 210.5 618.4154433464926 L 211.5 618.3728538361077 L 211.5 618.3728538361078 L 212.5 618.3300127114516 L 212.5 618.3300127114516 L 213.5 618.2869177532615 L 213.5 618.2869177532615 L 214.5 618.243566716305 L 214.5 618.2435667163052 L 215.5 618.1999573290025 L 215.5 618.1999573290025 L 216.5 618.1560872930417 L 216.5 618.1560872930417 L 217.5 618.1119542829877 L 217.5 618.1119542829878 L 218.5 618.0675559458845 L 218.5 618.0675559458846 L 219.5 618.02288990085 L 219.5 618.02288990085 L 220.5 617.9779537386643 L 220.5 617.9779537386644 L 221.5 617.93274502135 L 221.5 617.93274502135 L 222.5 617.8872612817461 L 222.5 617.8872612817461 L 223.5 617.841500023073 L 223.5 617.8415000230731 L 224.5 617.7954587184915 L 224.5 617.7954587184917 L 225.5 617.7491348106525 L 225.5 617.7491348106525 L 226.5 617.7025257112389 L 226.5 617.702525711239 L 227.5 617.6556288005003 L 227.5 617.6556288005003 L 228.5 617.6084414267779 L 228.5 617.6084414267779 L 229.5 617.5609609060222 L 229.5 617.5609609060223 L 230.5 617.5131845213011 L 230.5 617.5131845213012 L 231.5 617.4651095222996 L 231.5 617.4651095222996 L 232.5 617.4167331248098 L 232.5 617.4167331248098 L 233.5 617.368052510212 L 233.5 617.368052510212 L 234.5 617.3190648249473 L 234.5 617.3190648249473 L 235.5 617.2697671799785 L 235.5 617.2697671799785 L 236.5 617.2201566502426 L 236.5 617.2201566502426 L 237.5 617.1702302740933 L 237.5 617.1702302740933 L 238.5 617.1199850527319 L 238.5 617.1199850527319 L 239.5 617.0694179496289 L 239.5 617.069417949629 L 240.5 617.0185258899352 L 240.5 617.0185258899353 L 241.5 616.9673057598802 L 241.5 616.9673057598802 L 242.5 616.9157544061612 L 242.5 616.9157544061613 L 243.5 616.8638686353199 L 243.5 616.8638686353199 L 244.5 616.8116452131076 L 244.5 616.8116452131076 L 245.5 616.7590808638378 L 245.5 616.7590808638379 L 246.5 616.7061722697283 L 246.5 616.7061722697284 L 247.5 616.652916070229 L 247.5 616.6529160702291 L 248.5 616.5993088613375 L 248.5 616.5993088613375 L 249.5 616.545347194902 L 249.5 616.545347194902 L 250.5 616.4910275779107 L 250.5 616.4910275779107 L 251.5 616.4363464717678 L 251.5 616.4363464717678 L 252.5 616.3813002915549 L 252.5 616.3813002915549 L 253.5 616.3258854052788 L 253.5 616.3258854052788 L 254.5 616.2700981331044 L 254.5 616.2700981331045 L 255.5 616.2139347465734 L 255.5 616.2139347465734 L 256.5 616.1573914678065 L 256.5 616.1573914678065 L 257.5 616.1004644686917 L 257.5 616.1004644686917 L 258.5 616.043149870055 L 258.5 616.043149870055 L 259.5 615.9854437408162 L 259.5 615.9854437408163 L 260.5 615.9273420971278 L 260.5 615.9273420971278 L 261.5 615.8688409014958 L 261.5 615.8688409014959 L 262.5 615.8099360618849 L 262.5 615.8099360618849 L 263.5 615.750623430804 L 263.5 615.750623430804 L 264.5 615.6908988043756 L 264.5 615.6908988043757 L 265.5 615.6307579213848 L 265.5 615.6307579213848 L 266.5 615.5701964623096 L 266.5 615.5701964623096 L 267.5 615.5092100483328 L 267.5 615.5092100483329 L 268.5 615.4477942403329 L 268.5 615.4477942403329 L 269.5 615.3859445378545 L 269.5 615.3859445378546 L 270.5 615.3236563780589 L 270.5 615.323656378059 L 271.5 615.2609251346521 L 271.5 615.2609251346521 L 272.5 615.1977461167917 L 272.5 615.1977461167918 L 273.5 615.1341145679713 L 273.5 615.1341145679713 L 274.5 615.0700256648815 L 274.5 615.0700256648815 L 275.5 615.0054745162485 L 275.5 615.0054745162485 L 276.5 614.940456161647 L 276.5 614.940456161647 L 277.5 614.8749655702907 L 277.5 614.8749655702907 L 278.5 614.8089976397955 L 278.5 614.8089976397955 L 279.5 614.7425471949186 L 279.5 614.7425471949186 L 280.5 614.6756089862699 L 280.5 614.6756089862699 L 281.5 614.6081776889972 L 281.5 614.6081776889973 L 282.5 614.5402479014436 L 282.5 614.5402479014436 L 283.5 614.4718141437762 L 283.5 614.4718141437762 L 284.5 614.4028708565859 L 284.5 614.402870856586 L 285.5 614.333412399458 L 285.5 614.333412399458 L 286.5 614.2634330495109 L 286.5 614.2634330495109 L 287.5 614.1929269999056 L 287.5 614.1929269999056 L 288.5 614.121888358321 L 288.5 614.121888358321 L 289.5 614.0503111453983 L 289.5 614.0503111453984 L 290.5 613.9781892931505 L 290.5 613.9781892931505 L 291.5 613.9055166433383 L 291.5 613.9055166433383 L 292.5 613.8322869458098 L 292.5 613.8322869458098 L 293.5 613.758493856805 L 293.5 613.758493856805 L 294.5 613.6841309372228 L 294.5 613.6841309372228 L 295.5 613.6091916508495 L 295.5 613.6091916508495 L 296.5 613.5336693625493 L 296.5 613.5336693625493 L 297.5 613.4575573364135 L 297.5 613.4575573364136 L 298.5 613.3808487338706 L 298.5 613.3808487338706 L 299.5 613.3035366117523 L 299.5 613.3035366117523 L 300.5 613.2256139203176 L 300.5 613.2256139203178 L 301.5 613.1470735012331 L 301.5 613.1470735012331 L 302.5 613.0679080855061 L 302.5 613.0679080855062 L 303.5 612.9881102913739 L 303.5 612.9881102913739 L 304.5 612.9076726221424 L 304.5 612.9076726221424 L 305.5 612.8265874639784 L 305.5 612.8265874639784 L 306.5 612.7448470836498 L 306.5 612.7448470836499 L 307.5 612.6624436262157 L 307.5 612.6624436262157 L 308.5 612.5793691126619 L 308.5 612.5793691126619 L 309.5 612.4956154374842 L 309.5 612.4956154374842 L 310.5 612.4111743662141 L 310.5 612.4111743662141 L 311.5 612.3260375328889 L 311.5 612.326037532889 L 312.5 612.2401964374618 L 312.5 612.2401964374619 L 313.5 612.1536424431525 L 313.5 612.1536424431525 L 314.5 612.0663667737358 L 314.5 612.0663667737359 L 315.5 611.978360510767 L 315.5 611.9783605107671 L 316.5 611.8896145907411 L 316.5 611.8896145907411 L 317.5 611.8001198021863 L 317.5 611.8001198021864 L 318.5 611.7098667826879 L 318.5 611.709866782688 L 319.5 611.618846015842 L 319.5 611.618846015842 L 320.5 611.527047828136 L 320.5 611.527047828136 L 321.5 611.4344623857556 L 321.5 611.4344623857558 L 322.5 611.3410796913146 L 322.5 611.3410796913147 L 323.5 611.2468895805056 L 323.5 611.2468895805056 L 324.5 611.1518817186709 L 324.5 611.1518817186709 L 325.5 611.0560455972898 L 325.5 611.0560455972899 L 326.5 610.9593705303807 L 326.5 610.9593705303807 L 327.5 610.8618456508152 L 327.5 610.8618456508152 L 328.5 610.7634599065422 L 328.5 610.7634599065423 L 329.5 610.6642020567197 L 329.5 610.6642020567197 L 330.5 610.5640606677508 L 330.5 610.5640606677508 L 331.5 610.4630241092224 L 331.5 610.4630241092224 L 332.5 610.3610805497422 L 332.5 610.3610805497422 L 333.5 610.2582179526732 L 333.5 610.2582179526734 L 334.5 610.1544240717618 L 334.5 610.1544240717619 L 335.5 610.0496864466547 L 335.5 610.0496864466547 L 336.5 609.9439923983056 L 336.5 609.9439923983057 L 337.5 609.8373290242644 L 337.5 609.8373290242645 L 338.5 609.729683193848 L 338.5 609.729683193848 L 339.5 609.6210415431881 L 339.5 609.6210415431881 L 340.5 609.511390470153 L 340.5 609.5113904701531 L 341.5 609.4007161291404 L 341.5 609.4007161291404 L 342.5 609.2890044257352 L 342.5 609.2890044257352 L 343.5 609.1762410112315 L 343.5 609.1762410112315 L 344.5 609.0624112770118 L 344.5 609.0624112770118 L 345.5 608.9475003487819 L 345.5 608.947500348782 L 346.5 608.831493080655 L 346.5 608.831493080655 L 347.5 608.7143740490823 L 347.5 608.7143740490824 L 348.5 608.5961275466243 L 348.5 608.5961275466243 L 349.5 608.476737575559 L 349.5 608.476737575559 L 350.5 608.3561878413218 L 350.5 608.3561878413219 L 351.5 608.2344617457718 L 351.5 608.2344617457719 L 352.5 608.1115423802798 L 352.5 608.11154238028 L 353.5 607.9874125186327 L 353.5 607.9874125186327 L 354.5 607.8620546097478 L 354.5 607.8620546097478 L 355.5 607.7354507701932 L 355.5 607.7354507701933 L 356.5 607.6075827765067 L 356.5 607.6075827765068 L 357.5 607.4784320573069 L 357.5 607.478432057307 L 358.5 607.3479796851932 L 358.5 607.3479796851932 L 359.5 607.2162063684233 L 359.5 607.2162063684233 L 360.5 607.0830924423668 L 360.5 607.0830924423669 L 361.5 606.9486178607242 L 361.5 606.9486178607242 L 362.5 606.8127621865049 L 362.5 606.8127621865049 L 363.5 606.6755045827587 L 363.5 606.6755045827587 L 364.5 606.536823803051 L 364.5 606.536823803051 L 365.5 606.3966981816747 L 365.5 606.3966981816748 L 366.5 606.2551056235906 L 366.5 606.2551056235906 L 367.5 606.1120235940879 L 367.5 606.1120235940879 L 368.5 605.9674291081562 L 368.5 605.9674291081564 L 369.5 605.8212987195602 L 369.5 605.8212987195602 L 370.5 605.6736085096062 L 370.5 605.6736085096062 L 371.5 605.5243340755939 L 371.5 605.524334075594 L 372.5 605.373450518941 L 372.5 605.373450518941 L 373.5 605.2209324329708 L 373.5 605.2209324329708 L 374.5 605.0667538903533 L 374.5 605.0667538903534 L 375.5 604.9108884301882 L 375.5 604.9108884301882 L 376.5 604.7533090447173 L 376.5 604.7533090447174 L 377.5 604.593988165658 L 377.5 604.5939881656581 L 378.5 604.4328976501412 L 378.5 604.4328976501412 L 379.5 604.2700087662453 L 379.5 604.2700087662453 L 380.5 604.1052921781112 L 380.5 604.1052921781113 L 381.5 603.9387179306256 L 381.5 603.9387179306256 L 382.5 603.7702554336578 L 382.5 603.7702554336578 L 383.5 603.5998734458387 L 383.5 603.5998734458389 L 384.5 603.4275400578638 L 384.5 603.4275400578639 L 385.5 603.2532226753068 L 385.5 603.2532226753068 L 386.5 603.0768880009288 L 386.5 603.0768880009288 L 387.5 602.8985020164655 L 387.5 602.8985020164655 L 388.5 602.7180299638766 L 388.5 602.7180299638766 L 389.5 602.5354363260396 L 389.5 602.5354363260396 L 390.5 602.3506848068711 L 390.5 602.3506848068712 L 391.5 602.1637383108559 L 391.5 602.1637383108559 L 392.5 601.9745589219665 L 392.5 601.9745589219665 L 393.5 601.7831078819519 L 393.5 601.7831078819519 L 394.5 601.5893455679769 L 394.5 601.589345567977 L 395.5 601.3932314695903 L 395.5 601.3932314695904 L 396.5 601.1947241650003 L 396.5 601.1947241650003 L 397.5 600.9937812966352 L 397.5 600.9937812966353 L 398.5 600.7903595459686 L 398.5 600.7903595459687 L 399.5 600.5844146075806 L 399.5 600.5844146075806 L 400.5 600.3759011624362 L 400.5 600.3759011624362 L 401.5 600.1647728503533 L 401.5 600.1647728503534 L 402.5 599.950982241634 L 402.5 599.9509822416342 L 403.5 599.7344808078348 L 403.5 599.7344808078349 L 404.5 599.5152188916459 L 404.5 599.5152188916459 L 405.5 599.2931456758552 L 405.5 599.2931456758552 L 406.5 599.068209151364 L 406.5 599.068209151364 L 407.5 598.8403560842287 L 407.5 598.8403560842287 L 408.5 598.609531981695 L 408.5 598.609531981695 L 409.5 598.3756810571961 L 409.5 598.3756810571962 L 410.5 598.1387461942813 L 410.5 598.1387461942813 L 411.5 597.8986689094424 L 411.5 597.8986689094426 L 412.5 597.6553893138059 L 412.5 597.6553893138059 L 413.5 597.408846073654 L 413.5 597.4088460736541 L 414.5 597.1589763697424 L 414.5 597.1589763697425 L 415.5 596.9057158553771 L 415.5 596.9057158553771 L 416.5 596.6489986132137 L 416.5 596.6489986132137 L 417.5 596.3887571107437 L 417.5 596.3887571107438 L 418.5 596.1249221544277 L 418.5 596.1249221544278 L 419.5 595.857422842439 L 419.5 595.8574228424391 L 420.5 595.5861865159766 L 420.5 595.5861865159766 L 421.5 595.3111387091102 L 421.5 595.3111387091102 L 422.5 595.0322030971157 L 422.5 595.0322030971158 L 423.5 594.7493014432615 L 423.5 594.7493014432615 L 424.5 594.4623535440039 L 424.5 594.4623535440039 L 425.5 594.1712771725533 L 425.5 594.1712771725535 L 426.5 593.8759880207681 L 426.5 593.8759880207682 L 427.5 593.5763996393358 L 427.5 593.5763996393359 L 428.5 593.2724233762029 L 428.5 593.2724233762029 L 429.5 592.9639683132112 L 429.5 592.9639683132114 L 430.5 592.6509412009027 L 430.5 592.6509412009027 L 431.5 592.3332463914539 L 431.5 592.3332463914539 L 432.5 592.0107857697025 L 432.5 592.0107857697025 L 433.5 591.6834586822304 L 433.5 591.6834586822304 L 434.5 591.351161864469 L 434.5 591.351161864469 L 435.5 591.0137893657939 L 435.5 591.0137893657939 L 436.5 590.6712324725801 L 436.5 590.6712324725801 L 437.5 590.3233796291902 L 437.5 590.3233796291902 L 438.5 589.9701163568727 L 438.5 589.9701163568727 L 439.5 589.61132517055 L 439.5 589.61132517055 L 440.5 589.2468854934814 L 440.5 589.2468854934815 L 441.5 588.8766735697918 L 441.5 588.8766735697918 L 442.5 588.5005623748598 L 442.5 588.5005623748598 L 443.5 588.1184215235709 L 443.5 588.118421523571 L 444.5 587.7301171764426 L 444.5 587.7301171764426 L 445.5 587.3355119436422 L 445.5 587.3355119436424 L 446.5 586.9344647869248 L 446.5 586.9344647869249 L 447.5 586.5268309195288 L 447.5 586.526830919529 L 448.5 586.1124617040832 L 448.5 586.1124617040832 L 449.5 585.6912045485864 L 449.5 585.6912045485865 L 450.5 585.2629028005402 L 450.5 585.2629028005402 L 451.5 584.8273956393313 L 451.5 584.8273956393314 L 452.5 584.3845179669765 L 452.5 584.3845179669765 L 453.5 583.9341002973665 L 453.5 583.9341002973665 L 454.5 583.4759686441638 L 454.5 583.4759686441639 L 455.5 583.0099444075412 L 455.5 583.0099444075413 L 456.5 582.5358442599666 L 456.5 582.5358442599666 L 457.5 582.0534800312784 L 457.5 582.0534800312784 L 458.5 581.5626585933255 L 458.5 581.5626585933256 L 459.5 581.0631817444821 L 459.5 581.0631817444821 L 460.5 580.5548460943901 L 460.5 580.5548460943901 L 461.5 580.0374429493268 L 461.5 580.0374429493268 L 462.5 579.5107581986418 L 462.5 579.5107581986418 L 463.5 578.9745722027635 L 463.5 578.9745722027635 L 464.5 578.4286596833297 L 464.5 578.4286596833297 L 465.5 577.8727896160664 L 465.5 577.8727896160665 L 466.5 577.3067251271011 L 466.5 577.3067251271011 L 467.5 576.7302233934776 L 467.5 576.7302233934776 L 468.5 576.1430355487178 L 468.5 576.1430355487178 L 469.5 575.5449065943667 L 469.5 575.5449065943668 L 470.5 574.93557531855 L 470.5 574.9355753185501 L 471.5 574.3147742226795 L 471.5 574.3147742226795 L 472.5 573.682229457551 L 472.5 573.682229457551 L 473.5 573.0376607702028 L 473.5 573.0376607702028 L 474.5 572.3807814630261 L 474.5 572.3807814630261 L 475.5 571.711298366761 L 475.5 571.711298366761 L 476.5 571.0289118291588 L 476.5 571.0289118291589 L 477.5 570.3333157212453 L 477.5 570.3333157212453 L 478.5 569.6241974632886 L 478.5 569.6241974632886 L 479.5 568.9012380727518 L 479.5 568.9012380727518 L 480.5 568.1641122366947 L 480.5 568.1641122366947 L 481.5 567.412488411286 L 481.5 567.4124884112861 L 482.5 566.6460289512902 L 482.5 566.6460289512902 L 483.5 565.864390272606 L 483.5 565.864390272606 L 484.5 565.0672230511541 L 484.5 565.0672230511541 L 485.5 564.254172461634 L 485.5 564.254172461634 L 486.5 563.424878459903 L 486.5 563.4248784599031 L 487.5 562.5789761129602 L 487.5 562.5789761129602 L 488.5 561.7160959807477 L 488.5 561.7160959807478 L 489.5 560.8358645542147 L 489.5 560.8358645542147 L 490.5 559.937904754302 L 490.5 559.937904754302 L 491.5 559.021836496723 L 491.5 559.021836496723 L 492.5 558.0872773275976 L 492.5 558.0872773275976 L 493.5 557.1338431351743 L 493.5 557.1338431351743 L 494.5 556.1611489430078 L 494.5 556.1611489430078 L 495.5 555.1688097900607 L 495.5 555.1688097900607 L 496.5 554.1564417032532 L 496.5 554.1564417032532 L 497.5 553.1236627679801 L 497.5 553.1236627679802 L 498.5 552.0700943020406 L 498.5 552.0700943020406 L 499.5 550.9953621382765 L 499.5 550.9953621382765 L 500.5 549.8990980209678 L 500.5 549.8990980209679 L 501.5 548.7809411206769 L 501.5 548.780941120677 L 502.5 547.6405396717576 L 502.5 547.6405396717576 L 503.5 546.4775527361281 L 503.5 546.4775527361281 L 504.5 545.2916520961325 L 504.5 545.2916520961325 L 505.5 544.0825242783706 L 505.5 544.0825242783706 L 506.5 542.8498727092483 L 506.5 542.8498727092483 L 507.5 541.5934200016617 L 507.5 541.5934200016617 L 508.5 540.3129103706808 L 508.5 540.3129103706808 L 509.5 539.0081121743249 L 509.5 539.0081121743249 L 510.5 537.6788205735083 L 510.5 537.6788205735083 L 511.5 536.3248603029937 L 511.5 536.3248603029938 L 512.5 534.9460885427059 L 512.5 534.9460885427059 L 513.5 533.5423978760572 L 513.5 533.5423978760573 L 514.5 532.11371931902 L 514.5 532.1137193190201 L 515.5 530.6600254005855 L 515.5 530.6600254005855 L 516.5 529.1813332720074 L 516.5 529.1813332720074 L 517.5 527.677707818887 L 517.5 527.677707818887 L 518.5 526.1492647467776 L 518.5 526.1492647467776 L 519.5 524.5961736076355 L 519.5 524.5961736076355 L 520.5 523.0186607312187 L 520.5 523.0186607312187 L 521.5 521.4170120225149 L 521.5 521.4170120225149 L 522.5 519.791575583581 L 522.5 519.7915755835811 L 523.5 518.1427641159207 L 523.5 518.1427641159207 L 524.5 516.4710570578168 L 524.5 516.4710570578168 L 525.5 514.7770024100189 L 525.5 514.7770024100189 L 526.5 513.0612182029674 L 526.5 513.0612182029674 L 527.5 511.32439355943853 L 527.5 511.32439355943853 L 528.5 509.5672893082186 L 528.5 509.5672893082186 L 529.5 507.7907381072502 L 529.5 507.79073810725026 L 530.5 505.9956440386795 L 530.5 505.99564403867953 L 531.5 504.1829816434191 L 531.5 504.1829816434191 L 532.5 502.3537943691974 L 532.5 502.3537943691974 L 533.5 500.50919241354353 L 533.5 500.50919241354353 L 534.5 498.65034995166434 L 534.5 498.65034995166434 L 535.5 496.77850174855047 L 535.5 496.77850174855047 L 536.5 494.89493916472344 L 536.5 494.8949391647235 L 537.5 493.001005575566 L 537.5 493.001005575566 L 538.5 491.0980912348989 L 538.5 491.0980912348989 L 539.5 489.18762762408846 L 539.5 489.18762762408846 L 540.5 487.27108133817234 L 540.5 487.27108133817234 L 541.5 485.3499475699728 L 541.5 485.3499475699728 L 542.5 483.4257432616144 L 542.5 483.4257432616144 L 543.5 481.5 L 543.5 481.5 L 544.5 479.5742567383856 L 544.5 479.5742567383856 L 545.5 477.6500524300272 L 545.5 477.6500524300272 L 546.5 475.72891866182766 L 546.5 475.72891866182766 L 547.5 473.81237237591154 L 547.5 473.81237237591154 L 548.5 471.9019087651011 L 548.5 471.9019087651011 L 549.5 469.998994424434 L 549.5 469.998994424434 L 550.5 468.1050608352765 L 550.5 468.10506083527656 L 551.5 466.22149825144953 L 551.5 466.22149825144953 L 552.5 464.34965004833566 L 552.5 464.34965004833566 L 553.5 462.49080758645647 L 553.5 462.49080758645647 L 554.5 460.6462056308026 L 554.5 460.6462056308026 L 555.5 458.8170183565809 L 555.5 458.8170183565809 L 556.5 457.00435596132047 L 556.5 457.0043559613205 L 557.5 455.20926189274974 L 557.5 455.2092618927498 L 558.5 453.4327106917814 L 558.5 453.4327106917814 L 559.5 451.67560644056147 L 559.5 451.67560644056147 L 560.5 449.9387817970325 L 560.5 449.9387817970325 L 561.5 448.2229975899811 L 561.5 448.2229975899811 L 562.5 446.5289429421832 L 562.5 446.5289429421832 L 563.5 444.8572358840793 L 563.5 444.8572358840793 L 564.5 443.20842441641895 L 564.5 443.20842441641895 L 565.5 441.5829879774851 L 565.5 441.5829879774851 L 566.5 439.98133926878126 L 566.5 439.9813392687813 L 567.5 438.4038263923645 L 567.5 438.4038263923645 L 568.5 436.85073525322235 L 568.5 436.8507352532224 L 569.5 435.32229218111297 L 569.5 435.322292181113 L 570.5 433.8186667279927 L 570.5 433.8186667279927 L 571.5 432.3399745994145 L 571.5 432.3399745994145 L 572.5 430.88628068097995 L 572.5 430.88628068097995 L 573.5 429.45760212394276 L 573.5 429.45760212394276 L 574.5 428.0539114572941 L 574.5 428.05391145729413 L 575.5 426.6751396970063 L 575.5 426.6751396970063 L 576.5 425.32117942649165 L 576.5 425.3211794264917 L 577.5 423.9918878256751 L 577.5 423.9918878256752 L 578.5 422.6870896293192 L 578.5 422.68708962931925 L 579.5 421.4065799983383 L 579.5 421.4065799983383 L 580.5 420.1501272907517 L 580.5 420.1501272907517 L 581.5 418.91747572162944 L 581.5 418.91747572162944 L 582.5 417.70834790386755 L 582.5 417.70834790386755 L 583.5 416.52244726387187 L 583.5 416.5224472638719 L 584.5 415.35946032824245 L 584.5 415.35946032824245 L 585.5 414.2190588793231 L 585.5 414.21905887932314 L 586.5 413.10090197903213 L 586.5 413.10090197903213 L 587.5 412.0046378617235 L 587.5 412.0046378617235 L 588.5 410.9299056979594 L 588.5 410.92990569795944 L 589.5 409.8763372320198 L 589.5 409.8763372320198 L 590.5 408.8435582967467 L 590.5 408.8435582967468 L 591.5 407.83119020993934 L 591.5 407.83119020993934 L 592.5 406.8388510569922 L 592.5 406.8388510569922 L 593.5 405.8661568648257 L 593.5 405.8661568648257 L 594.5 404.9127226724024 L 594.5 404.9127226724024 L 595.5 403.9781635032769 L 595.5 403.97816350327696 L 596.5 403.0620952456979 L 596.5 403.0620952456979 L 597.5 402.1641354457853 L 597.5 402.16413544578535 L 598.5 401.28390401925225 L 598.5 401.28390401925225 L 599.5 400.42102388703984 L 599.5 400.42102388703984 L 600.5 399.575121540097 L 600.5 399.575121540097 L 601.5 398.7458275383661 L 601.5 398.7458275383661 L 602.5 397.9327769488459 L 602.5 397.9327769488459 L 603.5 397.13560972739396 L 603.5 397.135609727394 L 604.5 396.3539710487098 L 604.5 396.3539710487098 L 605.5 395.58751158871394 L 605.5 395.587511588714 L 606.5 394.8358877633053 L 606.5 394.8358877633053 L 607.5 394.09876192724823 L 607.5 394.09876192724823 L 608.5 393.3758025367114 L 608.5 393.37580253671143 L 609.5 392.66668427875464 L 609.5 392.6666842787547 L 610.5 391.97108817084114 L 610.5 391.97108817084114 L 611.5 391.288701633239 L 611.5 391.28870163323904 L 612.5 390.6192185369739 L 612.5 390.61921853697396 L 613.5 389.9623392297972 L 613.5 389.9623392297972 L 614.5 389.317770542449 L 614.5 389.31777054244907 L 615.5 388.6852257773205 L 615.5 388.68522577732057 L 616.5 388.0644246814499 L 616.5 388.0644246814499 L 617.5 387.45509340563325 L 617.5 387.45509340563325 L 618.5 386.85696445128224 L 618.5 386.85696445128224 L 619.5 386.26977660652244 L 619.5 386.26977660652244 L 620.5 385.6932748728989 L 620.5 385.6932748728989 L 621.5 385.1272103839335 L 621.5 385.1272103839336 L 622.5 384.5713403166703 L 622.5 384.57134031667033 L 623.5 384.0254277972365 L 623.5 384.02542779723655 L 624.5 383.48924180135816 L 624.5 383.48924180135816 L 625.5 382.96255705067324 L 625.5 382.96255705067324 L 626.5 382.44515390560986 L 626.5 382.4451539056099 L 627.5 381.93681825551784 L 627.5 381.9368182555179 L 628.5 381.4373414066744 L 628.5 381.4373414066745 L 629.5 380.94651996872165 L 629.5 380.9465199687217 L 630.5 380.46415574003345 L 630.5 380.4641557400335 L 631.5 379.9900555924587 L 631.5 379.99005559245876 L 632.5 379.5240313558361 L 632.5 379.52403135583614 L 633.5 379.0658997026335 L 633.5 379.06589970263354 L 634.5 378.6154820330234 L 634.5 378.61548203302345 L 635.5 378.1726043606687 L 635.5 378.17260436066874 L 636.5 377.73709719945975 L 636.5 377.7370971994598 L 637.5 377.3087954514136 L 637.5 377.30879545141363 L 638.5 376.8875382959168 L 638.5 376.8875382959168 L 639.5 376.4731690804711 L 639.5 376.47316908047117 L 640.5 376.0655352130751 L 640.5 376.06553521307524 L 641.5 375.66448805635764 L 641.5 375.6644880563577 L 642.5 375.2698828235574 L 642.5 375.2698828235574 L 643.5 374.88157847642907 L 643.5 374.8815784764291 L 644.5 374.49943762514016 L 644.5 374.4994376251402 L 645.5 374.1233264302082 L 645.5 374.12332643020824 L 646.5 373.7531145065185 L 646.5 373.75311450651856 L 647.5 373.38867482945 L 647.5 373.38867482945005 L 648.5 373.0298836431273 L 648.5 373.0298836431273 L 649.5 372.6766203708098 L 649.5 372.6766203708098 L 650.5 372.3287675274199 L 650.5 372.32876752742 L 651.5 371.9862106342061 L 651.5 371.98621063420615 L 652.5 371.648838135531 L 652.5 371.64883813553104 L 653.5 371.31654131776963 L 653.5 371.31654131776963 L 654.5 370.98921423029753 L 654.5 370.98921423029753 L 655.5 370.66675360854606 L 655.5 370.6667536085461 L 656.5 370.34905879909724 L 656.5 370.3490587990973 L 657.5 370.0360316867887 L 657.5 370.03603168678876 L 658.5 369.727576623797 L 658.5 369.72757662379706 L 659.5 369.4236003606641 L 659.5 369.4236003606642 L 660.5 369.1240119792318 L 660.5 369.12401197923185 L 661.5 368.82872282744654 L 661.5 368.8287228274466 L 662.5 368.5376464559961 L 662.5 368.5376464559961 L 663.5 368.2506985567385 L 663.5 368.25069855673854 L 664.5 367.9677969028842 L 664.5 367.96779690288423 L 665.5 367.6888612908898 L 665.5 367.68886129088986 L 666.5 367.4138134840234 L 666.5 367.4138134840235 L 667.5 367.14257715756094 L 667.5 367.142577157561 L 668.5 366.87507784557215 L 668.5 366.8750778455722 L 669.5 366.61124288925623 L 669.5 366.6112428892563 L 670.5 366.35100138678627 L 670.5 366.35100138678627 L 671.5 366.09428414462286 L 671.5 366.0942841446229 L 672.5 365.8410236302575 L 672.5 365.84102363025755 L 673.5 365.59115392634595 L 673.5 365.591153926346 L 674.5 365.344610686194 L 674.5 365.3446106861941 L 675.5 365.1013310905575 L 675.5 365.10133109055755 L 676.5 364.86125380571866 L 676.5 364.8612538057187 L 677.5 364.6243189428038 L 677.5 364.6243189428039 L 678.5 364.390468018305 L 678.5 364.39046801830506 L 679.5 364.1596439157713 L 679.5 364.1596439157713 L 680.5 363.93179084863596 L 680.5 363.93179084863596 L 681.5 363.7068543241448 L 681.5 363.70685432414484 L 682.5 363.48478110835407 L 682.5 363.4847811083541 L 683.5 363.2655191921652 L 683.5 363.26551919216524 L 684.5 363.04901775836584 L 684.5 363.0490177583659 L 685.5 362.83522714964664 L 685.5 362.8352271496467 L 686.5 362.62409883756374 L 686.5 362.6240988375638 L 687.5 362.4155853924194 L 687.5 362.4155853924194 L 688.5 362.2096404540313 L 688.5 362.20964045403133 L 689.5 362.00621870336465 L 689.5 362.0062187033647 L 690.5 361.80527583499975 L 690.5 361.80527583499975 L 691.5 361.6067685304096 L 691.5 361.6067685304097 L 692.5 361.410654432023 L 692.5 361.4106544320231 L 693.5 361.21689211804807 L 693.5 361.2168921180481 L 694.5 361.0254410780335 L 694.5 361.0254410780335 L 695.5 360.83626168914407 L 695.5 360.83626168914407 L 696.5 360.64931519312887 L 696.5 360.6493151931289 L 697.5 360.46456367396036 L 697.5 360.4645636739604 L 698.5 360.2819700361234 L 698.5 360.2819700361234 L 699.5 360.1014979835345 L 699.5 360.10149798353456 L 700.5 359.9231119990712 L 700.5 359.92311199907124 L 701.5 359.7467773246932 L 701.5 359.7467773246932 L 702.5 359.5724599421361 L 702.5 359.57245994213616 L 703.5 359.4001265541612 L 703.5 359.40012655416126 L 704.5 359.22974456634216 L 704.5 359.2297445663422 L 705.5 359.06128206937444 L 705.5 359.0612820693745 L 706.5 358.89470782188874 L 706.5 358.8947078218888 L 707.5 358.72999123375473 L 707.5 358.72999123375473 L 708.5 358.5671023498588 L 708.5 358.5671023498589 L 709.5 358.40601183434194 L 709.5 358.406011834342 L 710.5 358.2466909552826 L 710.5 358.24669095528265 L 711.5 358.0891115698118 L 711.5 358.08911156981185 L 712.5 357.93324610964663 L 712.5 357.9332461096467 L 713.5 357.7790675670292 L 713.5 357.77906756702924 L 714.5 357.626549481059 L 714.5 357.62654948105904 L 715.5 357.47566592440603 L 715.5 357.4756659244061 L 716.5 357.3263914903938 L 716.5 357.32639149039386 L 717.5 357.1787012804398 L 717.5 357.1787012804398 L 718.5 357.03257089184365 L 718.5 357.0325708918437 L 719.5 356.88797640591207 L 719.5 356.8879764059121 L 720.5 356.74489437640943 L 720.5 356.74489437640943 L 721.5 356.6033018183253 L 721.5 356.60330181832535 L 722.5 356.463176196949 L 722.5 356.463176196949 L 723.5 356.32449541724134 L 723.5 356.3244954172414 L 724.5 356.18723781349513 L 724.5 356.1872378134952 L 725.5 356.0513821392758 L 725.5 356.0513821392758 L 726.5 355.9169075576331 L 726.5 355.9169075576332 L 727.5 355.78379363157666 L 727.5 355.7837936315767 L 728.5 355.6520203148068 L 728.5 355.65202031480686 L 729.5 355.52156794269297 L 729.5 355.521567942693 L 730.5 355.3924172234933 L 730.5 355.39241722349334 L 731.5 355.2645492298067 L 731.5 355.26454922980673 L 732.5 355.1379453902522 L 732.5 355.1379453902522 L 733.5 355.0125874813673 L 733.5 355.0125874813673 L 734.5 354.8884576197201 L 734.5 354.88845761972016 L 735.5 354.7655382542281 L 735.5 354.76553825422815 L 736.5 354.64381215867814 L 736.5 354.6438121586782 L 737.5 354.523262424441 L 737.5 354.523262424441 L 738.5 354.4038724533757 L 738.5 354.4038724533757 L 739.5 354.2856259509177 L 739.5 354.28562595091773 L 740.5 354.1685069193449 L 740.5 354.16850691934496 L 741.5 354.05249965121806 L 741.5 354.0524996512181 L 742.5 353.93758872298815 L 742.5 353.93758872298815 L 743.5 353.8237589887685 L 743.5 353.82375898876853 L 744.5 353.71099557426476 L 744.5 353.71099557426476 L 745.5 353.5992838708596 L 745.5 353.5992838708596 L 746.5 353.48860952984694 L 746.5 353.488609529847 L 747.5 353.3789584568119 L 747.5 353.378958456812 L 748.5 353.270316806152 L 748.5 353.270316806152 L 749.5 353.1626709757355 L 749.5 353.1626709757356 L 750.5 353.0560076016944 L 750.5 353.05600760169443 L 751.5 352.95031355334527 L 751.5 352.95031355334527 L 752.5 352.84557592823813 L 752.5 352.8455759282382 L 753.5 352.74178204732664 L 753.5 352.7417820473267 L 754.5 352.6389194502578 L 754.5 352.63891945025784 L 755.5 352.5369758907776 L 755.5 352.5369758907776 L 756.5 352.4359393322492 L 756.5 352.4359393322492 L 757.5 352.33579794328034 L 757.5 352.33579794328034 L 758.5 352.2365400934578 L 758.5 352.23654009345785 L 759.5 352.1381543491848 L 759.5 352.1381543491848 L 760.5 352.0406294696192 L 760.5 352.04062946961926 L 761.5 351.9439544027101 L 761.5 351.9439544027102 L 762.5 351.8481182813291 L 762.5 351.8481182813291 L 763.5 351.7531104194944 L 763.5 351.7531104194944 L 764.5 351.6589203086853 L 764.5 351.6589203086854 L 765.5 351.56553761424425 L 765.5 351.56553761424436 L 766.5 351.472952171864 L 766.5 351.472952171864 L 767.5 351.381153984158 L 767.5 351.381153984158 L 768.5 351.290133217312 L 768.5 351.29013321731213 L 769.5 351.1998801978137 L 769.5 351.19988019781374 L 770.5 351.1103854092589 L 770.5 351.1103854092589 L 771.5 351.02163948923294 L 771.5 351.02163948923305 L 772.5 350.9336332262641 L 772.5 350.93363322626413 L 773.5 350.84635755684747 L 773.5 350.84635755684747 L 774.5 350.75980356253814 L 774.5 350.7598035625382 L 775.5 350.673962467111 L 775.5 350.67396246711104 L 776.5 350.58882563378586 L 776.5 350.58882563378586 L 777.5 350.50438456251584 L 777.5 350.50438456251584 L 778.5 350.4206308873381 L 778.5 350.4206308873381 L 779.5 350.3375563737843 L 779.5 350.33755637378437 L 780.5 350.2551529163501 L 780.5 350.2551529163502 L 781.5 350.1734125360216 L 781.5 350.1734125360216 L 782.5 350.09232737785754 L 782.5 350.0923273778576 L 783.5 350.01188970862603 L 783.5 350.0118897086261 L 784.5 349.93209191449375 L 784.5 349.9320919144938 L 785.5 349.85292649876686 L 785.5 349.8529264987669 L 786.5 349.7743860796823 L 786.5 349.77438607968236 L 787.5 349.6964633882477 L 787.5 349.6964633882477 L 788.5 349.6191512661294 L 788.5 349.6191512661294 L 789.5 349.5424426635864 L 789.5 349.5424426635865 L 790.5 349.4663306374507 L 790.5 349.46633063745077 L 791.5 349.39080834915046 L 791.5 349.39080834915046 L 792.5 349.3158690627772 L 792.5 349.3158690627772 L 793.5 349.24150614319495 L 793.5 349.241506143195 L 794.5 349.16771305419024 L 794.5 349.16771305419024 L 795.5 349.0944833566617 L 795.5 349.0944833566617 L 796.5 349.02181070684946 L 796.5 349.02181070684946 L 797.5 348.9496888546017 L 797.5 348.94968885460173 L 798.5 348.87811164167897 L 798.5 348.878111641679 L 799.5 348.8070730000944 L 799.5 348.8070730000944 L 800.5 348.7365669504891 L 800.5 348.7365669504891 L 801.5 348.666587600542 L 801.5 348.666587600542 L 802.5 348.597129143414 L 802.5 348.59712914341407 L 803.5 348.5281858562238 L 803.5 348.5281858562238 L 804.5 348.45975209855635 L 804.5 348.45975209855635 L 805.5 348.3918223110027 L 805.5 348.3918223110028 L 806.5 348.32439101373006 L 806.5 348.32439101373006 L 807.5 348.2574528050813 L 807.5 348.25745280508136 L 808.5 348.19100236020444 L 808.5 348.1910023602045 L 809.5 348.12503442970933 L 809.5 348.12503442970933 L 810.5 348.05954383835297 L 810.5 348.059543838353 L 811.5 347.99452548375154 L 811.5 347.99452548375154 L 812.5 347.9299743351184 L 812.5 347.92997433511846 L 813.5 347.8658854320287 L 813.5 347.8658854320287 L 814.5 347.8022538832082 L 814.5 347.80225388320827 L 815.5 347.73907486534785 L 815.5 347.7390748653479 L 816.5 347.67634362194104 L 816.5 347.6763436219411 L 817.5 347.6140554621454 L 817.5 347.61405546214553 L 818.5 347.5522057596671 L 818.5 347.5522057596671 L 819.5 347.4907899516671 L 819.5 347.49078995166724 L 820.5 347.4298035376904 L 820.5 347.4298035376904 L 821.5 347.36924207861523 L 821.5 347.36924207861523 L 822.5 347.3091011956243 L 822.5 347.30910119562435 L 823.5 347.249376569196 L 823.5 347.249376569196 L 824.5 347.19006393811514 L 824.5 347.1900639381152 L 825.5 347.1311590985041 L 825.5 347.13115909850416 L 826.5 347.07265790287215 L 826.5 347.07265790287215 L 827.5 347.0145562591837 L 827.5 347.01455625918373 L 828.5 346.956850129945 L 828.5 346.956850129945 L 829.5 346.8995355313083 L 829.5 346.8995355313083 L 830.5 346.8426085321934 L 830.5 346.8426085321935 L 831.5 346.78606525342656 L 831.5 346.7860652534266 L 832.5 346.7299018668955 L 832.5 346.7299018668956 L 833.5 346.6741145947212 L 833.5 346.67411459472123 L 834.5 346.61869970844504 L 834.5 346.6186997084451 L 835.5 346.5636535282321 L 835.5 346.5636535282322 L 836.5 346.5089724220893 L 836.5 346.5089724220893 L 837.5 346.454652805098 L 837.5 346.4546528050981 L 838.5 346.4006911386625 L 838.5 346.4006911386625 L 839.5 346.3470839297709 L 839.5 346.347083929771 L 840.5 346.2938277302716 L 840.5 346.29382773027163 L 841.5 346.2409191361622 L 841.5 346.24091913616223 L 842.5 346.18835478689243 L 842.5 346.1883547868925 L 843.5 346.13613136468 L 843.5 346.13613136468007 L 844.5 346.0842455938387 L 844.5 346.0842455938388 L 845.5 346.0326942401198 L 845.5 346.0326942401198 L 846.5 345.9814741100647 L 846.5 345.9814741100648 L 847.5 345.93058205037096 L 847.5 345.9305820503711 L 848.5 345.88001494726814 L 848.5 345.88001494726814 L 849.5 345.82976972590666 L 849.5 345.82976972590666 L 850.5 345.7798433497573 L 850.5 345.77984334975736 L 851.5 345.73023282002146 L 851.5 345.7302328200215 L 852.5 345.6809351750527 L 852.5 345.6809351750527 L 853.5 345.631947489788 L 853.5 345.631947489788 L 854.5 345.58326687519025 L 854.5 345.5832668751903 L 855.5 345.53489047770034 L 855.5 345.5348904777004 L 856.5 345.48681547869876 L 856.5 345.4868154786988 L 857.5 345.4390390939778 L 857.5 345.43903909397784 L 858.5 345.39155857322214 L 858.5 345.39155857322214 L 859.5 345.34437119949973 L 859.5 345.34437119949973 L 860.5 345.297474288761 L 860.5 345.2974742887611 L 861.5 345.25086518934745 L 861.5 345.2508651893475 L 862.5 345.20454128150834 L 862.5 345.20454128150845 L 863.5 345.1584999769269 L 863.5 345.15849997692703 L 864.5 345.1127387182539 L 864.5 345.112738718254 L 865.5 345.06725497865 L 865.5 345.06725497865 L 866.5 345.0220462613357 L 866.5 345.02204626133573 L 867.5 344.97711009914997 L 867.5 344.97711009914997 L 868.5 344.9324440541155 L 868.5 344.93244405411554 L 869.5 344.88804571701223 L 869.5 344.88804571701235 L 870.5 344.84391270695835 L 870.5 344.84391270695835 L 871.5 344.8000426709975 L 871.5 344.8000426709975 L 872.5 344.7564332836949 L 872.5 344.75643328369495 L 873.5 344.7130822467385 L 873.5 344.7130822467385 L 874.5 344.66998728854844 L 874.5 344.66998728854844 L 875.5 344.62714616389223 L 875.5 344.62714616389235 L 876.5 344.5845566535074 L 876.5 344.58455665350743 L 877.5 344.5422165637293 L 877.5 344.54221656372937 L 878.5 344.5001237261268 L 878.5 344.50012372612684 L 879.5 344.45827599714266 L 879.5 344.4582759971427 L 880.5 344.4166712577411 L 880.5 344.41667125774114 L 881.5 344.37530741306057 L 881.5 344.37530741306057 L 882.5 344.33418239207276 L 882.5 344.3341823920728 L 883.5 344.29329414724725 L 883.5 344.2932941472473 L 884.5 344.2526406542215 L 884.5 344.2526406542216 L 885.5 344.21221991147684 L 885.5 344.21221991147695 L 886.5 344.17202994001923 L 886.5 344.1720299400193 L 887.5 344.13206878306585 L 887.5 344.13206878306596 L 888.5 344.09233450573663 L 888.5 344.09233450573674 L 889.5 344.0528251947509 L 889.5 344.0528251947509 L 890.5 344.0135389581287 L 890.5 344.0135389581288 L 891.5 343.97447392489806 L 891.5 343.9744739248981 L 892.5 343.93562824480546 L 892.5 343.93562824480546 L 893.5 343.8970000880324 L 893.5 343.8970000880324 L 894.5 343.8585876449161 L 894.5 343.85858764491616 L 895.5 343.8203891256743 L 895.5 343.8203891256743 L 896.5 343.78240276013526 L 896.5 343.78240276013526 L 897.5 343.7446267974717 L 897.5 343.7446267974717 L 898.5 343.707059505939 L 898.5 343.707059505939 L 899.5 343.6696991726178 L 899.5 343.66969917261787 L 900.5 343.6325441031608 L 900.5 343.63254410316085 L 901.5 343.595592621543 L 901.5 343.59559262154306 L 902.5 343.5588430698168 L 902.5 343.55884306981693 L 903.5 343.5222938078706 L 903.5 343.5222938078706 L 904.5 343.4859432131906 L 904.5 343.4859432131906 L 905.5 343.44978968062776 L 905.5 343.44978968062776 L 906.5 343.41383162216715 L 906.5 343.4138316221672 L 907.5 343.3780674667017 L 907.5 343.37806746670174 L 908.5 343.3424956598089 L 908.5 343.34249565980895 L 909.5 343.3071146635318 L 909.5 343.3071146635318 L 910.5 343.2719229561627 L 910.5 343.2719229561627 L 911.5 343.2369190320304 L 911.5 343.2369190320304 L 912.5 343.20210140129115 L 912.5 343.2021014012912 L 913.5 343.16746858972226 L 913.5 343.1674685897224 L 914.5 343.13301913851956 L 914.5 343.1330191385196 L 915.5 343.09875160409706 L 915.5 343.0987516040972 L 916.5 343.06466455789086 L 916.5 343.0646645578909 L 917.5 343.03075658616507 L 917.5 343.0307565861651 L 918.5 342.9970262898212 L 918.5 342.9970262898212 L 919.5 342.9634722842104 L 919.5 342.9634722842104 L 920.5 342.93009319894867 L 920.5 342.9300931989487 L 921.5 342.8968876777346 L 921.5 342.89688767773464 L 922.5 342.8638543781699 L 922.5 342.86385437816995 L 923.5 342.8309919715831 L 923.5 342.83099197158316 L 924.5 342.7982991428554 L 924.5 342.79829914285546 L 925.5 342.7657745902493 L 925.5 342.7657745902493 L 926.5 342.7334170252399 L 926.5 342.7334170252399 L 927.5 342.7012251723486 L 927.5 342.7012251723487 L 928.5 342.66919776897976 L 928.5 342.6691977689798 L 929.5 342.6373335652588 L 929.5 342.6373335652588 L 930.5 342.60563132387364 L 930.5 342.6056313238737 L 931.5 342.5740898199182 L 931.5 342.5740898199183 L 932.5 342.54270784073816 L 932.5 342.5427078407382 L 933.5 342.51148418577884 L 933.5 342.51148418577895 L 934.5 342.4804176664359 L 934.5 342.480417666436 L 935.5 342.4495071059075 L 935.5 342.4495071059075 L 936.5 342.41875133904904 L 936.5 342.4187513390491 L 937.5 342.38814921223025 L 937.5 342.3881492122303 L 938.5 342.35769958319383 L 938.5 342.35769958319383 L 939.5 342.3274013209164 L 939.5 342.32740132091647 L 940.5 342.2972533054717 L 940.5 342.2972533054718 L 941.5 342.2672544278955 L 941.5 342.2672544278956 L 942.5 342.2374035900524 L 942.5 342.2374035900524 L 943.5 342.20769970450453 L 943.5 342.20769970450465 L 944.5 342.17814169438304 L 944.5 342.1781416943831 L 945.5 342.14872849325985 L 945.5 342.1487284932599 L 946.5 342.11945904502255 L 946.5 342.1194590450226 L 947.5 342.0903323037504 L 947.5 342.0903323037505 L 948.5 342.06134723359276 L 948.5 342.06134723359276 L 949.5 342.03250280864813 L 949.5 342.03250280864813 L 950.5 342.00379801284623 L 950.5 342.0037980128463 L 951.5 341.97523183983094 L 951.5 341.97523183983094 L 952.5 341.94680329284483 L 952.5 341.9468032928449 L 953.5 341.91851138461595 L 953.5 341.918511384616 L 954.5 341.8903551372457 L 954.5 341.8903551372457 L 955.5 341.8623335820982 L 955.5 341.86233358209824 L 956.5 341.8344457596918 L 956.5 341.83444575969185 L 957.5 341.80669071959153 L 957.5 341.80669071959153 L 958.5 341.7790675203032 L 958.5 341.77906752030333 L 959.5 341.75157522916936 L 959.5 341.7515752291694 L 960.5 341.72421292226585 L 960.5 341.7242129222659 L 961.5 341.6969796843008 L 961.5 341.6969796843009 L 962.5 341.6698746085144 L 962.5 341.6698746085145 L 963.5 341.6428967965801 L 963.5 341.64289679658015 L 964.5 341.6160453585073 L 964.5 341.61604535850734 L 965.5 341.5893194125455 L 965.5 341.5893194125455 L 966.5 341.5627180850893 L 966.5 341.5627180850893 L 967.5 341.53624051058546 L 967.5 341.53624051058546 L 968.5 341.50988583144044 L 968.5 341.5098858314405 L 969.5 341.4836531979297 L 969.5 341.48365319792975 L 970.5 341.45754176810794 L 970.5 341.45754176810794 L 971.5 341.4315507077207 L 971.5 341.4315507077208 L 972.5 341.40567919011755 L 972.5 341.4056791901176 L 973.5 341.3799263961655 L 973.5 341.37992639616556 L 974.5 341.3542915141644 L 974.5 341.35429151416446 L 975.5 341.3287737397633 L 975.5 341.3287737397633 L 976.5 341.30337227587745 L 976.5 341.30337227587756 L 977.5 341.2780863326076 L 977.5 341.2780863326076 L 978.5 341.25291512715853 L 978.5 341.2529151271586 L 979.5 341.22785788376063 L 979.5 341.22785788376075 L 980.5 341.2029138335912 L 980.5 341.2029138335912 L 981.5 341.17808221469704 L 981.5 341.17808221469716 L 982.5 341.1533622719188 L 982.5 341.1533622719188 L 983.5 341.1287532568151 L 983.5 341.1287532568151 L 984.5 341.1042544275889 L 984.5 341.1042544275889 L 985.5 341.07986504901373 L 985.5 341.07986504901385 L 986.5 341.0555843923621 L 986.5 341.0555843923621 L 987.5 341.03141173533334 L 987.5 341.0314117353334 L 988.5 341.0073463619839 L 988.5 341.0073463619839 L 989.5 340.9833875626573 L 989.5 340.98338756265736 L 990.5 340.95953463391623 L 990.5 340.9595346339163 L 991.5 340.93578687847423 L 991.5 340.9357868784743 L 992.5 340.91214360512924 L 992.5 340.91214360512936 L 993.5 340.8886041286976 L 993.5 340.88860412869764 L 994.5 340.8651677699488 L 994.5 340.8651677699488 L 995.5 340.8418338555415 L 995.5 340.8418338555416 L 996.5 340.81860171796006 L 996.5 340.81860171796006 L 997.5 340.7954706954516 L 997.5 340.7954706954516 L 998.5 340.77244013196474 L 998.5 340.7724401319648 L 999.5 340.7495093770881 L 999.5 340.74950937708815 L 1000.5 340.7266777859904 L 1000.5 340.72667778599043 L 1001.5 340.7039447193607 L 1001.5 340.7039447193608 L 1002.5 340.68130954335015 L 1002.5 340.68130954335015 L 1003.5 340.65877162951335 L 1003.5 340.6587716295134 L 1004.5 340.6363303547518 L 1004.5 340.63633035475186 L 1005.5 340.6139851012569 L 1005.5 340.61398510125696 L 1006.5 340.59173525645446 L 1006.5 340.5917352564545 L 1007.5 340.5695802129494 L 1007.5 340.5695802129494 L 1008.5 340.5475193684714 L 1008.5 340.5475193684714 L 1009.5 340.5255521258212 L 1009.5 340.52555212582126 L 1010.5 340.5036778928178 L 1010.5 340.5036778928178 L 1011.5 340.4818960822454 L 1011.5 340.48189608224544 L 1012.5 340.4602061118024 L 1012.5 340.46020611180245 L 1013.5 340.4386074040499 L 1013.5 340.43860740404995 L 1014.5 340.4170993863613 L 1014.5 340.41709938636143 L 1015.5 340.3956814908726 L 1015.5 340.3956814908727 L 1016.5 340.374353154433 L 1016.5 340.37435315443304 L 1017.5 340.35311381855627 L 1017.5 340.35311381855627 L 1018.5 340.33196292937293 L 1018.5 340.33196292937305 L 1019.5 340.31089993758286 L 1019.5 340.3108999375829 L 1020.5 340.2899242984081 L 1020.5 340.2899242984081 L 1021.5 340.2690354715468 L 1021.5 340.2690354715469 L 1022.5 340.24823292112774 L 1022.5 340.24823292112774 L 1023.5 340.2275161156647 L 1023.5 340.2275161156647 L 1024.5 340.2068845280122 L 1024.5 340.2068845280122 L 1025.5 340.1863376353215 L 1025.5 340.1863376353215 L 1026.5 340.1658749189967 L 1026.5 340.1658749189967 L 1027.5 340.14549586465193 L 1027.5 340.14549586465205 L 1028.5 340.1251999620693 L 1028.5 340.12519996206936 L 1029.5 340.10498670515614 L 1029.5 340.1049867051562 L 1030.5 340.08485559190405 L 1030.5 340.0848555919041 L 1031.5 340.06480612434785 L 1031.5 340.0648061243479 L 1032.5 340.044837808525 L 1032.5 340.044837808525 L 1033.5 340.0249501544357 L 1033.5 340.0249501544358 L 1034.5 340.0051426760035 L 1034.5 340.0051426760035 L 1035.5 339.9854148910358 L 1035.5 339.9854148910358 L 1036.5 339.9657663211857 L 1036.5 339.9657663211857 L 1037.5 339.9461964919138 L 1037.5 339.94619649191384 L 1038.5 339.9267049324503 L 1038.5 339.92670493245043 L 1039.5 339.90729117575825 L 1039.5 339.90729117575836 L 1040.5 339.8879547584961 L 1040.5 339.8879547584961 L 1041.5 339.8686952209818 L 1041.5 339.86869522098186 L 1042.5 339.8495121071568 L 1042.5 339.8495121071568 L 1043.5 339.8304049645503 L 1043.5 339.8304049645504 L 1044.5 339.81137334424477 L 1044.5 339.81137334424477 L 1045.5 339.79241680084033 L 1045.5 339.7924168008404 L 1046.5 339.77353489242137 L 1046.5 339.77353489242137 L 1047.5 339.75472718052197 L 1047.5 339.754727180522 L 1048.5 339.73599323009296 L 1048.5 339.7359932300931 L 1049.5 339.7173326094685 L 1049.5 339.7173326094686 L 1050.5 339.6987448903334 L 1050.5 339.6987448903334 L 1051.5 339.6802296476908 L 1051.5 339.6802296476908 L 1052.5 339.6617864598302 L 1052.5 339.6617864598303 L 1053.5 339.64341490829605 L 1053.5 339.6434149082961 L 1054.5 339.62511457785615 L 1054.5 339.6251145778562 L 1055.5 339.60688505647107 L 1055.5 339.6068850564711 L 1056.5 339.5887259352635 L 1056.5 339.5887259352635 L 1057.5 339.5706368084879 L 1057.5 339.57063680848796 L 1058.5 339.5526172735012 L 1058.5 339.55261727350126 L 1059.5 339.53466693073267 L 1059.5 339.53466693073267 L 1060.5 339.51678538365513 L 1060.5 339.51678538365513 L 1061.5 339.49897223875604 L 1061.5 339.4989722387561 L 1062.5 339.4812271055091 L 1062.5 339.4812271055091 L 1063.5 339.46354959634573 L 1063.5 339.46354959634573 L 1064.5 339.4459393266276 L 1064.5 339.44593932662764 L 1065.5 339.4283959146189 L 1065.5 339.42839591461893 L 1066.5 339.4109189814591 L 1066.5 339.4109189814591 L 1067.5 339.39350815113585 L 1067.5 339.3935081511359 L 1068.5 339.3761630504589 L 1068.5 339.3761630504589 L 1069.5 339.358883309033 L 1069.5 339.35888330903305 L 1070.5 339.34166855923246 L 1070.5 339.3416685592325 L 1071.5 339.3245184361751 L 1071.5 339.32451843617514 L 1072.5 339.30743257769683 L 1072.5 339.3074325776969 L 1073.5 339.29041062432657 L 1073.5 339.29041062432657 L 1074.5 339.2734522192611 L 1074.5 339.2734522192611 L 1075.5 339.2565570083408 L 1075.5 339.25655700834085 L 1076.5 339.2397246400249 L 1076.5 339.239724640025 L 1077.5 339.2229547653677 L 1077.5 339.2229547653677 L 1078.5 339.2062470379945 L 1078.5 339.20624703799456 L 1079.5 339.1896011140782 L 1079.5 339.1896011140782 L 1080.5 339.17301665231577 L 1080.5 339.1730166523158 L 1081.5 339.15649331390557 L 1081.5 339.1564933139057 L 1082.5 339.14003076252436 L 1082.5 339.14003076252436 L 1083.5 339.1236286643044 L 1083.5 339.1236286643045 L 1084.5 339.10728668781184 L 1084.5 339.1072866878119 L 1085.5 339.09100450402394 L 1085.5 339.091004504024 L 1086.5 339.0747817863078 L 1086.5 339.0747817863079 L 1087.5 339.0586182103985" stroke-opacity="0.8" stroke-linecap="round" stroke-linejoin="round" stroke-miterlimit="10" stroke-width="5"/><g transform="scale(27,27)"><g transform="translate(1.0740740740740742,21.71554385185185)"><path fill="rgb(211,47,47)" stroke="none" paint-order="stroke fill markers" d=" M 0.17300000000000001 -0.4 L 0.17300000000000001 -0.4 L 0.17300000000000001 -0.122 Q 0.17300000000000001 -0.022 0.231 -0.015 Q 0.23500000000000001 -0.014 0.24 -0.014 Q 0.28300000000000003 -0.014 0.3 -0.07 Q 0.307 -0.094 0.307 -0.126 L 0.307 -0.181 L 0.332 -0.181 L 0.332 -0.124 Q 0.332 -0.042 0.28600000000000003 -0.006 Q 0.264 0.011 0.233 0.011 Q 0.149 0.011 0.11800000000000001 -0.052000000000000005 Q 0.10400000000000001 -0.082 0.10400000000000001 -0.124 L 0.10400000000000001 -0.4 L 0.019 -0.4 L 0.019 -0.422 Q 0.108 -0.426 0.137 -0.534 Q 0.147 -0.5720000000000001 0.148 -0.615 L 0.17300000000000001 -0.615 L 0.17300000000000001 -0.431 L 0.316 -0.431 L 0.316 -0.4 L 0.17300000000000001 -0.4 Z"/></g><g transform="translate(1.4630740740740742,21.71554385185185)"><path fill="rgb(211,47,47)" stroke="none" paint-order="stroke fill markers" d=" M 0.333 -0.076 Q 0.308 -0.014 0.245 0.005 Q 0.225 0.011 0.202 0.011 Q 0.117 0.011 0.07100000000000001 -0.03 Q 0.042 -0.056 0.042 -0.095 Q 0.042 -0.17200000000000001 0.127 -0.218 Q 0.134 -0.222 0.14200000000000002 -0.225 Q 0.203 -0.254 0.321 -0.261 L 0.326 -0.261 L 0.326 -0.298 Q 0.326 -0.383 0.265 -0.41500000000000004 Q 0.244 -0.426 0.22 -0.426 Q 0.154 -0.426 0.11800000000000001 -0.387 Q 0.115 -0.383 0.112 -0.38 Q 0.159 -0.374 0.163 -0.334 Q 0.163 -0.3 0.132 -0.29 Q 0.125 -0.28800000000000003 0.117 -0.28800000000000003 Q 0.081 -0.28800000000000003 0.073 -0.321 Q 0.07100000000000001 -0.326 0.07100000000000001 -0.335 Q 0.07100000000000001 -0.395 0.134 -0.427 Q 0.17300000000000001 -0.448 0.222 -0.448 Q 0.304 -0.448 0.359 -0.393 Q 0.394 -0.357 0.395 -0.293 L 0.395 -0.292 L 0.395 -0.275 L 0.395 -0.075 Q 0.395 -0.046 0.41300000000000003 -0.032 Q 0.421 -0.025 0.432 -0.025 Q 0.467 -0.025 0.468 -0.089 L 0.468 -0.145 L 0.493 -0.145 L 0.493 -0.089 Q 0.493 -0.016 0.433 0.002 Q 0.421 0.006 0.41100000000000003 0.006 Q 0.362 0.006 0.341 -0.046 Q 0.335 -0.06 0.333 -0.076 M 0.326 -0.24 Q 0.17200000000000001 -0.234 0.13 -0.146 Q 0.11900000000000001 -0.122 0.11900000000000001 -0.096 Q 0.11900000000000001 -0.045 0.165 -0.021 Q 0.185 -0.011 0.209 -0.011 Q 0.261 -0.011 0.296 -0.052000000000000005 Q 0.326 -0.08600000000000001 0.326 -0.14 L 0.326 -0.24 Z"/></g><g transform="translate(1.9630740740740742,21.71554385185185)"><path fill="rgb(211,47,47)" stroke="none" paint-order="stroke fill markers" d=" M 0.11 -0.34400000000000003 Q 0.11 -0.383 0.095 -0.392 Q 0.083 -0.399 0.052000000000000005 -0.4 L 0.032 -0.4 L 0.032 -0.431 L 0.17300000000000001 -0.442 L 0.17300000000000001 -0.337 Q 0.22 -0.442 0.321 -0.442 Q 0.396 -0.442 0.426 -0.405 Q 0.453 -0.374 0.456 -0.32 Q 0.457 -0.301 0.457 -0.252 L 0.457 -0.061 Q 0.458 -0.037 0.486 -0.033 Q 0.498 -0.031 0.535 -0.031 L 0.535 0 Q 0.433 -0.003 0.423 -0.003 Q 0.41500000000000004 -0.003 0.31 0 L 0.31 -0.031 Q 0.369 -0.031 0.379 -0.04 L 0.381 -0.042 Q 0.388 -0.05 0.388 -0.076 L 0.388 -0.309 Q 0.388 -0.40800000000000003 0.331 -0.418 Q 0.323 -0.42 0.314 -0.42 Q 0.253 -0.42 0.212 -0.367 Q 0.179 -0.324 0.179 -0.26 L 0.179 -0.076 Q 0.179 -0.042 0.195 -0.036000000000000004 Q 0.20600000000000002 -0.031 0.257 -0.031 L 0.257 0 Q 0.155 -0.003 0.145 -0.003 Q 0.137 -0.003 0.032 0 L 0.032 -0.031 Q 0.091 -0.031 0.101 -0.04 L 0.10300000000000001 -0.042 Q 0.11 -0.05 0.11 -0.076 L 0.11 -0.34400000000000003 Z"/></g><g transform="translate(2.5190740740740742,21.302651851851852) scale(0.7,0.7)"><path fill="rgb(211,47,47)" stroke="none" paint-order="stroke fill markers" d=" M 0.661 -0.23 L 0.116 -0.23 Q 0.084 -0.23 0.083 -0.25 Q 0.083 -0.27 0.116 -0.27 L 0.661 -0.27 Q 0.6930000000000001 -0.27 0.6940000000000001 -0.25 Q 0.6940000000000001 -0.23 0.661 -0.23 Z"/></g><g transform="translate(3.063674074074074,21.302651851851852) scale(0.7,0.7)"><path fill="rgb(211,47,47)" stroke="none" paint-order="stroke fill markers" d=" M 0.294 -0.64 L 0.294 -0.079 Q 0.294 -0.049 0.306 -0.041 Q 0.323 -0.031 0.387 -0.031 L 0.419 -0.031 L 0.419 0 Q 0.384 -0.003 0.257 -0.003 Q 0.13 -0.003 0.095 0 L 0.095 -0.031 L 0.127 -0.031 Q 0.20400000000000001 -0.031 0.215 -0.049 L 0.216 -0.05 Q 0.22 -0.058 0.22 -0.079 L 0.22 -0.597 Q 0.168 -0.5710000000000001 0.089 -0.5710000000000001 L 0.089 -0.602 Q 0.209 -0.602 0.271 -0.666 Q 0.29 -0.666 0.293 -0.659 L 0.293 -0.659 L 0.293 -0.658 Q 0.294 -0.655 0.294 -0.64 Z"/></g><g transform="translate(3.4321234075907414,21.71554385185185)"><path fill="rgb(211,47,47)" stroke="none" paint-order="stroke fill markers" d=" M 0.331 0.24 L 0.331 0.24 Q 0.331 0.25 0.321 0.25 Q 0.309 0.25 0.268 0.209 Q 0.20600000000000002 0.147 0.165 0.062 Q 0.099 -0.074 0.099 -0.25 Q 0.099 -0.419 0.162 -0.555 Q 0.214 -0.666 0.294 -0.733 Q 0.315 -0.75 0.321 -0.75 Q 0.331 -0.75 0.331 -0.74 Q 0.331 -0.735 0.318 -0.723 Q 0.157 -0.559 0.157 -0.25 Q 0.157 0.058 0.314 0.218 Q 0.331 0.23500000000000001 0.331 0.24 Z"/></g><g transform="translate(3.8211234075907416,21.71554385185185)"><path fill="rgb(211,47,47)" stroke="none" paint-order="stroke fill markers" d=" M 0.334 -0.302 L 0.3 -0.165 Q 0.28300000000000003 -0.097 0.28300000000000003 -0.077 Q 0.28300000000000003 -0.025 0.32 -0.014 Q 0.328 -0.011 0.338 -0.011 Q 0.388 -0.011 0.429 -0.061 Q 0.456 -0.093 0.47100000000000003 -0.14200000000000002 Q 0.47400000000000003 -0.153 0.484 -0.153 Q 0.496 -0.153 0.496 -0.14300000000000002 Q 0.496 -0.11800000000000001 0.465 -0.07100000000000001 Q 0.41100000000000003 0.011 0.336 0.011 Q 0.268 0.011 0.23700000000000002 -0.046 Q 0.231 -0.055 0.228 -0.065 Q 0.20400000000000001 -0.017 0.162 0.002 Q 0.14300000000000002 0.011 0.123 0.011 Q 0.063 0.011 0.039 -0.024 Q 0.029 -0.037 0.029 -0.055 Q 0.029 -0.092 0.061 -0.107 Q 0.07200000000000001 -0.113 0.084 -0.113 Q 0.114 -0.113 0.12 -0.088 Q 0.121 -0.083 0.121 -0.078 Q 0.121 -0.044 0.08700000000000001 -0.028 Q 0.081 -0.025 0.074 -0.024 Q 0.095 -0.011 0.124 -0.011 Q 0.177 -0.011 0.20800000000000002 -0.082 Q 0.214 -0.097 0.219 -0.115 Q 0.273 -0.319 0.273 -0.353 Q 0.267 -0.41500000000000004 0.219 -0.42 Q 0.167 -0.42 0.124 -0.367 L 0.124 -0.366 Q 0.124 -0.365 0.123 -0.365 Q 0.108 -0.34500000000000003 0.096 -0.319 Q 0.091 -0.307 0.08700000000000001 -0.295 L 0.085 -0.289 Q 0.083 -0.278 0.07200000000000001 -0.278 Q 0.06 -0.278 0.06 -0.28800000000000003 Q 0.06 -0.313 0.092 -0.36 Q 0.146 -0.442 0.221 -0.442 Q 0.298 -0.442 0.329 -0.366 Q 0.361 -0.428 0.41400000000000003 -0.44 Q 0.424 -0.442 0.434 -0.442 Q 0.493 -0.442 0.517 -0.40900000000000003 Q 0.527 -0.395 0.527 -0.376 Q 0.527 -0.335 0.49 -0.321 Q 0.481 -0.318 0.47300000000000003 -0.318 Q 0.442 -0.318 0.436 -0.34500000000000003 Q 0.435 -0.34900000000000003 0.435 -0.353 Q 0.435 -0.383 0.464 -0.4 Q 0.47300000000000003 -0.405 0.483 -0.40700000000000003 Q 0.462 -0.42 0.433 -0.42 Q 0.365 -0.42 0.337 -0.314 Q 0.335 -0.308 0.334 -0.302 Z"/></g><g transform="translate(4.393123407590742,21.71554385185185)"><path fill="rgb(211,47,47)" stroke="none" paint-order="stroke fill markers" d=" M 0.289 -0.25 L 0.289 -0.25 Q 0.289 -0.081 0.226 0.055 Q 0.17400000000000002 0.166 0.094 0.233 Q 0.073 0.25 0.067 0.25 Q 0.057 0.25 0.057 0.24 Q 0.057 0.23500000000000001 0.07 0.223 Q 0.231 0.059000000000000004 0.231 -0.25 Q 0.231 -0.555 0.081 -0.712 L 0.076 -0.717 Q 0.057 -0.735 0.057 -0.74 Q 0.057 -0.75 0.067 -0.75 Q 0.079 -0.75 0.12 -0.709 Q 0.182 -0.647 0.223 -0.562 Q 0.289 -0.426 0.289 -0.25 Z"/></g></g></g></g></svg>