<svg version="1.1" xmlns="http://www.w3.org/2000/svg" xmlns:xlink="http://www.w3.org/1999/xlink" width="1087" height="963"><defs><clipPath id="VmRdhXzDDyEt"><path fill="none" stroke="none" d=" M 0 0 L 1087 0 L 1087 963 L 0 963 L 0 0 Z"/></clipPath></defs><g transform="scale(1,1)" clip-path="url(#VmRdhXzDDyEt)"><g><rect fill="rgb(255,255,255)" stroke="none" x="0" y="0" width="1087" height="963" fill-opacity="1"/><path fill="none" stroke="rgb(192,192,192)" paint-order="fill stroke markers" d=" M 72.5 0.5 L 72.5 963.5 M 72.5 0.5 L 72.5 963.5 M 150.5 0.5 L 150.5 963.5 M 229.5 0.5 L 229.5 963.5 M 307.5 0.5 L 307.5 963.5 M 386.5 0.5 L 386.5 963.5 M 464.5 0.5 L 464.5 963.5 M 622.5 0.5 L 622.5 963.5 M 700.5 0.5 L 700.5 963.5 M 779.5 0.5 L 779.5 963.5 M 857.5 0.5 L 857.5 963.5 M 936.5 0.5 L 936.5 963.5 M 1014.5 0.5 L 1014.5 963.5" stroke-opacity="1" stroke-linecap="round" stroke-linejoin="round" stroke-miterlimit="10"/><path fill="none" stroke="rgb(192,192,192)" paint-order="fill stroke markers" d=" M 9.5 0.5 L 9.5 963.5 M 25.5 0.5 L 25.5 963.5 M 40.5 0.5 L 40.5 963.5 M 56.5 0.5 L 56.5 963.5 M 87.5 0.5 L 87.5 963.5 M 103.5 0.5 L 103.5 963.5 M 119.5 0.5 L 119.5 963.5 M 135.5 0.5 L 135.5 963.5 M 166.5 0.5 L 166.5 963.5 M 182.5 0.5 L 182.5 963.5 M 197.5 0.5 L 197.5 963.5 M 213.5 0.5 L 213.5 963.5 M 245.5 0.5 L 245.5 963.5 M 260.5 0.5 L 260.5 963.5 M 276.5 0.5 L 276.5 963.5 M 292.5 0.5 L 292.5 963.5 M 323.5 0.5 L 323.5 963.5 M 339.5 0.5 L 339.5 963.5 M 355.5 0.5 L 355.5 963.5 M 370.5 0.5 L 370.5 963.5 M 402.5 0.5 L 402.5 963.5 M 417.5 0.5 L 417.5 963.5 M 433.5 0.5 L 433.5 963.5 M 449.5 0.5 L 449.5 963.5 M 480.5 0.5 L 480.5 963.5 M 496.5 0.5 L 496.5 963.5 M 512.5 0.5 L 512.5 963.5 M 527.5 0.5 L 527.5 963.5 M 559.5 0.5 L 559.5 963.5 M 574.5 0.5 L 574.5 963.5 M 590.5 0.5 L 590.5 963.5 M 606.5 0.5 L 606.5 963.5 M 637.5 0.5 L 637.5 963.5 M 653.5 0.5 L 653.5 963.5 M 669.5 0.5 L 669.5 963.5 M 684.5 0.5 L 684.5 963.5 M 716.5 0.5 L 716.5 963.5 M 731.5 0.5 L 731.5 963.5 M 747.5 0.5 L 747.5 963.5 M 763.5 0.5 L 763.5 963.5 M 794.5 0.5 L 794.5 963.5 M 810.5 0.5 L 810.5 963.5 M 826.5 0.5 L 826.5 963.5 M 841.5 0.5 L 841.5 963.5 M 873.5 0.5 L 873.5 963.5 M 889.5 0.5 L 889.5 963.5 M 904.5 0.5 L 904.5 963.5 M 920.5 0.5 L 920.5 963.5 M 951.5 0.5 L 951.5 963.5 M 967.5 0.5 L 967.5 963.5 M 983.5 0.5 L 983.5 963.5 M 999.5 0.5 L 999.5 963.5 M 1030.5 0.5 L 1030.5 963.5 M 1046.5 0.5 L 1046.5 963.5 M 1061.5 0.5 L 1061.5 963.5 M 1077.5 0.5 L 1077.5 963.5" stroke-opacity="0.23529411764705882" stroke-linecap="round" stroke-linejoin="round" stroke-miterlimit="10"/><path fill="none" stroke="rgb(192,192,192)" paint-order="fill stroke markers" d=" M 0.5 0.5 L 1087.5 0.5 M 0.5 0.5 L 1087.5 0.5 M 0.5 96.5 L 1087.5 96.5 M 0.5 192.5 L 1087.5 192.5 M 0.5 288.5 L 1087.5 288.5 M 0.5 385.5 L 1087.5 385.5 M 0.5 577.5 L 1087.5 577.5 M 0.5 674.5 L 1087.5 674.5 M 0.5 770.5 L 1087.5 770.5 M 0.5 866.5 L 1087.5 866.5 M 0.5 963.5 L 1087.5 963.5" stroke-opacity="1" stroke-linecap="round" stroke-linejoin="round" stroke-miterlimit="10"/><path fill="none" stroke="rgb(192,192,192)" paint-order="fill stroke markers" d=" M 0.5 0.5 L 1087.5 0.5 M 0.5 19.5 L 1087.5 19.5 M 0.5 38.5 L 1087.5 38.5 M 0.5 57.5 L 1087.5 57.5 M 0.5 77.5 L 1087.5 77.5 M 0.5 115.5 L 1087.5 115.5 M 0.5 134.5 L 1087.5 134.5 M 0.5 154.5 L 1087.5 154.5 M 0.5 173.5 L 1087.5 173.5 M 0.5 211.5 L 1087.5 211.5 M 0.5 231.5 L 1087.5 231.5 M 0.5 250.5 L 1087.5 250.5 M 0.5 269.5 L 1087.5 269.5 M 0.5 308.5 L 1087.5 308.5 M 0.5 327.5 L 1087.5 327.5 M 0.5 346.5 L 1087.5 346.5 M 0.5 365.5 L 1087.5 365.5 M 0.5 404.5 L 1087.5 404.5 M 0.5 423.5 L 1087.5 423.5 M 0.5 442.5 L 1087.5 442.5 M 0.5 462.5 L 1087.5 462.5 M 0.5 500.5 L 1087.5 500.5 M 0.5 520.5 L 1087.5 520.5 M 0.5 539.5 L 1087.5 539.5 M 0.5 558.5 L 1087.5 558.5 M 0.5 597.5 L 1087.5 597.5 M 0.5 616.5 L 1087.5 616.5 M 0.5 635.5 L 1087.5 635.5 M 0.5 654.5 L 1087.5 654.5 M 0.5 693.5 L 1087.5 693.5 M 0.5 712.5 L 1087.5 712.5 M 0.5 731.5 L 1087.5 731.5 M 0.5 751.5 L 1087.5 751.5 M 0.5 789.5 L 1087.5 789.5 M 0.5 808.5 L 1087.5 808.5 M 0.5 828.5 L 1087.5 828.5 M 0.5 847.5 L 1087.5 847.5 M 0.5 885.5 L 1087.5 885.5 M 0.5 905.5 L 1087.5 905.5 M 0.5 924.5 L 1087.5 924.5 M 0.5 943.5 L 1087.5 943.5" stroke-opacity="0.23529411764705882" stroke-linecap="round" stroke-linejoin="round" stroke-miterlimit="10"/><path fill="none" stroke="rgb(37,37,37)" paint-order="fill stroke markers" d=" M 543.5 2.5 L 543.5 963.5" stroke-opacity="1" stroke-miterlimit="10"/><path fill="none" stroke="rgb(37,37,37)" paint-order="fill stroke markers" d=" M 543.5 1.5 L 537.5 7.5" stroke-opacity="1" stroke-miterlimit="10"/><path fill="none" stroke="rgb(37,37,37)" paint-order="fill stroke markers" d=" M 543.5 1.5 L 549.5 7.5" stroke-opacity="1" stroke-miterlimit="10"/><path fill="none" stroke="rgb(37,37,37)" paint-order="fill stroke markers" d=" M 0.5 481.5 L 1085.5 481.5" stroke-opacity="1" stroke-miterlimit="10"/><path fill="none" stroke="rgb(37,37,37)" paint-order="fill stroke markers" d=" M 1086.5 481.5 L 1080.5 475.5" stroke-opacity="1" stroke-miterlimit="10"/><path fill="none" stroke="rgb(37,37,37)" paint-order="fill stroke markers" d=" M 1086.5 481.5 L 1080.5 487.5" stroke-opacity="1" stroke-miterlimit="10"/><text fill="rgb(37,37,37)" stroke="none" font-family="geogebra-sans-serif, sans-serif" font-size="18px" font-style="normal" font-weight="normal" text-decoration="normal" x="59" y="503" text-anchor="start" dominant-baseline="alphabetic" fill-opacity="1">–3π</text><text fill="none" stroke="rgb(255,255,255)" font-family="geogebra-sans-serif, sans-serif" font-size="18px" font-style="normal" font-weight="normal" text-decoration="normal" x="59" y="503" text-anchor="start" dominant-baseline="alphabetic" stroke-opacity="1" stroke-linejoin="bevel" stroke-miterlimit="10" stroke-width="3">–3π</text><text fill="rgb(37,37,37)" stroke="none" font-family="geogebra-sans-serif, sans-serif" font-size="18px" font-style="normal" font-weight="normal" text-decoration="normal" x="59" y="503" text-anchor="start" dominant-baseline="alphabetic" fill-opacity="1">–3π</text><text fill="rgb(37,37,37)" stroke="none" font-family="geogebra-sans-serif, sans-serif" font-size="18px" font-style="normal" font-weight="normal" text-decoration="normal" x="120" y="503" text-anchor="start" dominant-baseline="alphabetic" fill-opacity="1">–5π / 2</text><text fill="none" stroke="rgb(255,255,255)" font-family="geogebra-sans-serif, sans-serif" font-size="18px" font-style="normal" font-weight="normal" text-decoration="normal" x="120" y="503" text-anchor="start" dominant-baseline="alphabetic" stroke-opacity="1" stroke-linejoin="bevel" stroke-miterlimit="10" stroke-width="3">–5π / 2</text><text fill="rgb(37,37,37)" stroke="none" font-family="geogebra-sans-serif, sans-serif" font-size="18px" font-style="normal" font-weight="normal" text-decoration="normal" x="120" y="503" text-anchor="start" dominant-baseline="alphabetic" fill-opacity="1">–5π / 2</text><text fill="rgb(37,37,37)" stroke="none" font-family="geogebra-sans-serif, sans-serif" font-size="18px" font-style="normal" font-weight="normal" text-decoration="normal" x="216" y="503" text-anchor="start" dominant-baseline="alphabetic" fill-opacity="1">–2π</text><text fill="none" stroke="rgb(255,255,255)" font-family="geogebra-sans-serif, sans-serif" font-size="18px" font-style="normal" font-weight="normal" text-decoration="normal" x="216" y="503" text-anchor="start" dominant-baseline="alphabetic" stroke-opacity="1" stroke-linejoin="bevel" stroke-miterlimit="10" stroke-width="3">–2π</text><text fill="rgb(37,37,37)" stroke="none" font-family="geogebra-sans-serif, sans-serif" font-size="18px" font-style="normal" font-weight="normal" text-decoration="normal" x="216" y="503" text-anchor="start" dominant-baseline="alphabetic" fill-opacity="1">–2π</text><text fill="rgb(37,37,37)" stroke="none" font-family="geogebra-sans-serif, sans-serif" font-size="18px" font-style="normal" font-weight="normal" text-decoration="normal" x="277" y="503" text-anchor="start" dominant-baseline="alphabetic" fill-opacity="1">–3π / 2</text><text fill="none" stroke="rgb(255,255,255)" font-family="geogebra-sans-serif, sans-serif" font-size="18px" font-style="normal" font-weight="normal" text-decoration="normal" x="277" y="503" text-anchor="start" dominant-baseline="alphabetic" stroke-opacity="1" stroke-linejoin="bevel" stroke-miterlimit="10" stroke-width="3">–3π / 2</text><text fill="rgb(37,37,37)" stroke="none" font-family="geogebra-sans-serif, sans-serif" font-size="18px" font-style="normal" font-weight="normal" text-decoration="normal" x="277" y="503" text-anchor="start" dominant-baseline="alphabetic" fill-opacity="1">–3π / 2</text><text fill="rgb(37,37,37)" stroke="none" font-family="geogebra-sans-serif, sans-serif" font-size="18px" font-style="normal" font-weight="normal" text-decoration="normal" x="378" y="503" text-anchor="start" dominant-baseline="alphabetic" fill-opacity="1">–π</text><text fill="none" stroke="rgb(255,255,255)" font-family="geogebra-sans-serif, sans-serif" font-size="18px" font-style="normal" font-weight="normal" text-decoration="normal" x="378" y="503" text-anchor="start" dominant-baseline="alphabetic" stroke-opacity="1" stroke-linejoin="bevel" stroke-miterlimit="10" stroke-width="3">–π</text><text fill="rgb(37,37,37)" stroke="none" font-family="geogebra-sans-serif, sans-serif" font-size="18px" font-style="normal" font-weight="normal" text-decoration="normal" x="378" y="503" text-anchor="start" dominant-baseline="alphabetic" fill-opacity="1">–π</text><text fill="rgb(37,37,37)" stroke="none" font-family="geogebra-sans-serif, sans-serif" font-size="18px" font-style="normal" font-weight="normal" text-decoration="normal" x="438" y="503" text-anchor="start" dominant-baseline="alphabetic" fill-opacity="1">–π / 2</text><text fill="none" stroke="rgb(255,255,255)" font-family="geogebra-sans-serif, sans-serif" font-size="18px" font-style="normal" font-weight="normal" text-decoration="normal" x="438" y="503" text-anchor="start" dominant-baseline="alphabetic" stroke-opacity="1" stroke-linejoin="bevel" stroke-miterlimit="10" stroke-width="3">–π / 2</text><text fill="rgb(37,37,37)" stroke="none" font-family="geogebra-sans-serif, sans-serif" font-size="18px" font-style="normal" font-weight="normal" text-decoration="normal" x="438" y="503" text-anchor="start" dominant-baseline="alphabetic" fill-opacity="1">–π / 2</text><text fill="rgb(37,37,37)" stroke="none" font-family="geogebra-sans-serif, sans-serif" font-size="18px" font-style="normal" font-weight="normal" text-decoration="normal" x="600" y="503" text-anchor="start" dominant-baseline="alphabetic" fill-opacity="1">π / 2</text><text fill="none" stroke="rgb(255,255,255)" font-family="geogebra-sans-serif, sans-serif" font-size="18px" font-style="normal" font-weight="normal" text-decoration="normal" x="600" y="503" text-anchor="start" dominant-baseline="alphabetic" stroke-opacity="1" stroke-linejoin="bevel" stroke-miterlimit="10" stroke-width="3">π / 2</text><text fill="rgb(37,37,37)" stroke="none" font-family="geogebra-sans-serif, sans-serif" font-size="18px" font-style="normal" font-weight="normal" text-decoration="normal" x="600" y="503" text-anchor="start" dominant-baseline="alphabetic" fill-opacity="1">π / 2</text><text fill="rgb(37,37,37)" stroke="none" font-family="geogebra-sans-serif, sans-serif" font-size="18px" font-style="normal" font-weight="normal" text-decoration="normal" x="697" y="503" text-anchor="start" dominant-baseline="alphabetic" fill-opacity="1">π</text><text fill="none" stroke="rgb(255,255,255)" font-family="geogebra-sans-serif, sans-serif" font-size="18px" font-style="normal" font-weight="normal" text-decoration="normal" x="697" y="503" text-anchor="start" dominant-baseline="alphabetic" stroke-opacity="1" stroke-linejoin="bevel" stroke-miterlimit="10" stroke-width="3">π</text><text fill="rgb(37,37,37)" stroke="none" font-family="geogebra-sans-serif, sans-serif" font-size="18px" font-style="normal" font-weight="normal" text-decoration="normal" x="697" y="503" text-anchor="start" dominant-baseline="alphabetic" fill-opacity="1">π</text><text fill="rgb(37,37,37)" stroke="none" font-family="geogebra-sans-serif, sans-serif" font-size="18px" font-style="normal" font-weight="normal" text-decoration="normal" x="753" y="503" text-anchor="start" dominant-baseline="alphabetic" fill-opacity="1">3π / 2</text><text fill="none" stroke="rgb(255,255,255)" font-family="geogebra-sans-serif, sans-serif" font-size="18px" font-style="normal" font-weight="normal" text-decoration="normal" x="753" y="503" text-anchor="start" dominant-baseline="alphabetic" stroke-opacity="1" stroke-linejoin="bevel" stroke-miterlimit="10" stroke-width="3">3π / 2</text><text fill="rgb(37,37,37)" stroke="none" font-family="geogebra-sans-serif, sans-serif" font-size="18px" font-style="normal" font-weight="normal" text-decoration="normal" x="753" y="503" text-anchor="start" dominant-baseline="alphabetic" fill-opacity="1">3π / 2</text><text fill="rgb(37,37,37)" stroke="none" font-family="geogebra-sans-serif, sans-serif" font-size="18px" font-style="normal" font-weight="normal" text-decoration="normal" x="849" y="503" text-anchor="start" dominant-baseline="alphabetic" fill-opacity="1">2π</text><text fill="none" stroke="rgb(255,255,255)" font-family="geogebra-sans-serif, sans-serif" font-size="18px" font-style="normal" font-weight="normal" text-decoration="normal" x="849" y="503" text-anchor="start" dominant-baseline="alphabetic" stroke-opacity="1" stroke-linejoin="bevel" stroke-miterlimit="10" stroke-width="3">2π</text><text fill="rgb(37,37,37)" stroke="none" font-family="geogebra-sans-serif, sans-serif" font-size="18px" font-style="normal" font-weight="normal" text-decoration="normal" x="849" y="503" text-anchor="start" dominant-baseline="alphabetic" fill-opacity="1">2π</text><text fill="rgb(37,37,37)" stroke="none" font-family="geogebra-sans-serif, sans-serif" font-size="18px" font-style="normal" font-weight="normal" text-decoration="normal" x="910" y="503" text-anchor="start" dominant-baseline="alphabetic" fill-opacity="1">5π / 2</text><text fill="none" stroke="rgb(255,255,255)" font-family="geogebra-sans-serif, sans-serif" font-size="18px" font-style="normal" font-weight="normal" text-decoration="normal" x="910" y="503" text-anchor="start" dominant-baseline="alphabetic" stroke-opacity="1" stroke-linejoin="bevel" stroke-miterlimit="10" stroke-width="3">5π / 2</text><text fill="rgb(37,37,37)" stroke="none" font-family="geogebra-sans-serif, sans-serif" font-size="18px" font-style="normal" font-weight="normal" text-decoration="normal" x="910" y="503" text-anchor="start" dominant-baseline="alphabetic" fill-opacity="1">5π / 2</text><text fill="rgb(37,37,37)" stroke="none" font-family="geogebra-sans-serif, sans-serif" font-size="18px" font-style="normal" font-weight="normal" text-decoration="normal" x="1006" y="503" text-anchor="start" dominant-baseline="alphabetic" fill-opacity="1">3π</text><text fill="none" stroke="rgb(255,255,255)" font-family="geogebra-sans-serif, sans-serif" font-size="18px" font-style="normal" font-weight="normal" text-decoration="normal" x="1006" y="503" text-anchor="start" dominant-baseline="alphabetic" stroke-opacity="1" stroke-linejoin="bevel" stroke-miterlimit="10" stroke-width="3">3π</text><text fill="rgb(37,37,37)" stroke="none" font-family="geogebra-sans-serif, sans-serif" font-size="18px" font-style="normal" font-weight="normal" text-decoration="normal" x="1006" y="503" text-anchor="start" dominant-baseline="alphabetic" fill-opacity="1">3π</text><text fill="rgb(37,37,37)" stroke="none" font-family="geogebra-sans-serif, sans-serif" font-size="24px" font-style="normal" font-weight="normal" text-decoration="normal" x="548" y="23" text-anchor="start" dominant-baseline="alphabetic" fill-opacity="1">y</text><text fill="rgb(37,37,37)" stroke="none" font-family="geogebra-sans-serif, sans-serif" font-size="18px" font-style="normal" font-weight="normal" text-decoration="normal" x="515" y="874" text-anchor="start" dominant-baseline="alphabetic" fill-opacity="1">–4</text><text fill="none" stroke="rgb(255,255,255)" font-family="geogebra-sans-serif, sans-serif" font-size="18px" font-style="normal" font-weight="normal" text-decoration="normal" x="515" y="874" text-anchor="start" dominant-baseline="alphabetic" stroke-opacity="1" stroke-linejoin="bevel" stroke-miterlimit="10" stroke-width="3">–4</text><text fill="rgb(37,37,37)" stroke="none" font-family="geogebra-sans-serif, sans-serif" font-size="18px" font-style="normal" font-weight="normal" text-decoration="normal" x="515" y="874" text-anchor="start" dominant-baseline="alphabetic" fill-opacity="1">–4</text><text fill="rgb(37,37,37)" stroke="none" font-family="geogebra-sans-serif, sans-serif" font-size="18px" font-style="normal" font-weight="normal" text-decoration="normal" x="515" y="778" text-anchor="start" dominant-baseline="alphabetic" fill-opacity="1">–3</text><text fill="none" stroke="rgb(255,255,255)" font-family="geogebra-sans-serif, sans-serif" font-size="18px" font-style="normal" font-weight="normal" text-decoration="normal" x="515" y="778" text-anchor="start" dominant-baseline="alphabetic" stroke-opacity="1" stroke-linejoin="bevel" stroke-miterlimit="10" stroke-width="3">–3</text><text fill="rgb(37,37,37)" stroke="none" font-family="geogebra-sans-serif, sans-serif" font-size="18px" font-style="normal" font-weight="normal" text-decoration="normal" x="515" y="778" text-anchor="start" dominant-baseline="alphabetic" fill-opacity="1">–3</text><text fill="rgb(37,37,37)" stroke="none" font-family="geogebra-sans-serif, sans-serif" font-size="18px" font-style="normal" font-weight="normal" text-decoration="normal" x="515" y="682" text-anchor="start" dominant-baseline="alphabetic" fill-opacity="1">–2</text><text fill="none" stroke="rgb(255,255,255)" font-family="geogebra-sans-serif, sans-serif" font-size="18px" font-style="normal" font-weight="normal" text-decoration="normal" x="515" y="682" text-anchor="start" dominant-baseline="alphabetic" stroke-opacity="1" stroke-linejoin="bevel" stroke-miterlimit="10" stroke-width="3">–2</text><text fill="rgb(37,37,37)" stroke="none" font-family="geogebra-sans-serif, sans-serif" font-size="18px" font-style="normal" font-weight="normal" text-decoration="normal" x="515" y="682" text-anchor="start" dominant-baseline="alphabetic" fill-opacity="1">–2</text><text fill="rgb(37,37,37)" stroke="none" font-family="geogebra-sans-serif, sans-serif" font-size="18px" font-style="normal" font-weight="normal" text-decoration="normal" x="515" y="585" text-anchor="start" dominant-baseline="alphabetic" fill-opacity="1">–1</text><text fill="none" stroke="rgb(255,255,255)" font-family="geogebra-sans-serif, sans-serif" font-size="18px" font-style="normal" font-weight="normal" text-decoration="normal" x="515" y="585" text-anchor="start" dominant-baseline="alphabetic" stroke-opacity="1" stroke-linejoin="bevel" stroke-miterlimit="10" stroke-width="3">–1</text><text fill="rgb(37,37,37)" stroke="none" font-family="geogebra-sans-serif, sans-serif" font-size="18px" font-style="normal" font-weight="normal" text-decoration="normal" x="515" y="585" text-anchor="start" dominant-baseline="alphabetic" fill-opacity="1">–1</text><text fill="rgb(37,37,37)" stroke="none" font-family="geogebra-sans-serif, sans-serif" font-size="18px" font-style="normal" font-weight="normal" text-decoration="normal" x="525" y="393" text-anchor="start" dominant-baseline="alphabetic" fill-opacity="1">1</text><text fill="none" stroke="rgb(255,255,255)" font-family="geogebra-sans-serif, sans-serif" font-size="18px" font-style="normal" font-weight="normal" text-decoration="normal" x="525" y="393" text-anchor="start" dominant-baseline="alphabetic" stroke-opacity="1" stroke-linejoin="bevel" stroke-miterlimit="10" stroke-width="3">1</text><text fill="rgb(37,37,37)" stroke="none" font-family="geogebra-sans-serif, sans-serif" font-size="18px" font-style="normal" font-weight="normal" text-decoration="normal" x="525" y="393" text-anchor="start" dominant-baseline="alphabetic" fill-opacity="1">1</text><text fill="rgb(37,37,37)" stroke="none" font-family="geogebra-sans-serif, sans-serif" font-size="18px" font-style="normal" font-weight="normal" text-decoration="normal" x="525" y="296" text-anchor="start" dominant-baseline="alphabetic" fill-opacity="1">2</text><text fill="none" stroke="rgb(255,255,255)" font-family="geogebra-sans-serif, sans-serif" font-size="18px" font-style="normal" font-weight="normal" text-decoration="normal" x="525" y="296" text-anchor="start" dominant-baseline="alphabetic" stroke-opacity="1" stroke-linejoin="bevel" stroke-miterlimit="10" stroke-width="3">2</text><text fill="rgb(37,37,37)" stroke="none" font-family="geogebra-sans-serif, sans-serif" font-size="18px" font-style="normal" font-weight="normal" text-decoration="normal" x="525" y="296" text-anchor="start" dominant-baseline="alphabetic" fill-opacity="1">2</text><text fill="rgb(37,37,37)" stroke="none" font-family="geogebra-sans-serif, sans-serif" font-size="18px" font-style="normal" font-weight="normal" text-decoration="normal" x="525" y="200" text-anchor="start" dominant-baseline="alphabetic" fill-opacity="1">3</text><text fill="none" stroke="rgb(255,255,255)" font-family="geogebra-sans-serif, sans-serif" font-size="18px" font-style="normal" font-weight="normal" text-decoration="normal" x="525" y="200" text-anchor="start" dominant-baseline="alphabetic" stroke-opacity="1" stroke-linejoin="bevel" stroke-miterlimit="10" stroke-width="3">3</text><text fill="rgb(37,37,37)" stroke="none" font-family="geogebra-sans-serif, sans-serif" font-size="18px" font-style="normal" font-weight="normal" text-decoration="normal" x="525" y="200" text-anchor="start" dominant-baseline="alphabetic" fill-opacity="1">3</text><text fill="rgb(37,37,37)" stroke="none" font-family="geogebra-sans-serif, sans-serif" font-size="18px" font-style="normal" font-weight="normal" text-decoration="normal" x="525" y="104" text-anchor="start" dominant-baseline="alphabetic" fill-opacity="1">4</text><text fill="none" stroke="rgb(255,255,255)" font-family="geogebra-sans-serif, sans-serif" font-size="18px" font-style="normal" font-weight="normal" text-decoration="normal" x="525" y="104" text-anchor="start" dominant-baseline="alphabetic" stroke-opacity="1" stroke-linejoin="bevel" stroke-miterlimit="10" stroke-width="3">4</text><text fill="rgb(37,37,37)" stroke="none" font-family="geogebra-sans-serif, sans-serif" font-size="18px" font-style="normal" font-weight="normal" text-decoration="normal" x="525" y="104" text-anchor="start" dominant-baseline="alphabetic" fill-opacity="1">4</text><text fill="rgb(37,37,37)" stroke="none" font-family="geogebra-sans-serif, sans-serif" font-size="18px" font-style="normal" font-weight="normal" text-decoration="normal" x="525" y="503" text-anchor="start" dominant-baseline="alphabetic" fill-opacity="1">0</text><text fill="none" stroke="rgb(255,255,255)" font-family="geogebra-sans-serif, sans-serif" font-size="18px" font-style="normal" font-weight="normal" text-decoration="normal" x="525" y="503" text-anchor="start" dominant-baseline="alphabetic" stroke-opacity="1" stroke-linejoin="bevel" stroke-miterlimit="10" stroke-width="3">0</text><text fill="rgb(37,37,37)" stroke="none" font-family="geogebra-sans-serif, sans-serif" font-size="18px" font-style="normal" font-weight="normal" text-decoration="normal" x="525" y="503" text-anchor="start" dominant-baseline="alphabetic" fill-opacity="1">0</text><path fill="none" stroke="rgb(21,101,192)" paint-order="fill stroke markers" d=" M 0.5 492.60504286539526 L 0.5 494.5158455103182 L 0.5 494.5158455103182 L 1.5 496.421441990579 L 1.5 496.421441990579 L 2.5 498.3210700929936 L 2.5 498.3210700929936 L 3.5 500.21396999164887 L 3.5 500.21396999164887 L 4.5 502.09938455182396 L 4.5 502.09938455182396 L 5.5 503.9765596328329 L 5.5 503.9765596328329 L 6.5 505.8447443896722 L 6.5 505.8447443896722 L 7.5 507.7031915733479 L 7.5 507.7031915733479 L 8.5 509.5511578297657 L 8.5 509.5511578297657 L 9.5 511.3879039970618 L 9.5 511.3879039970618 L 10.5 513.2126954012592 L 10.5 513.2126954012592 L 11.5 515.0248021501264 L 11.5 515.0248021501264 L 12.5 516.823499425125 L 12.5 516.823499425125 L 13.5 518.6080677713273 L 13.5 518.6080677713273 L 14.5 520.3777933851886 L 14.5 520.3777933851886 L 15.5 522.1319684000596 L 15.5 522.1319684000596 L 16.5 523.8698911693227 L 16.5 523.8698911693227 L 17.5 525.5908665470428 L 17.5 525.5908665470428 L 18.5 527.2942061660142 L 18.5 527.2942061660142 L 19.5 528.9792287131005 L 19.5 528.9792287131005 L 20.5 530.6452602017495 L 20.5 530.6452602017495 L 21.5 532.2916342415793 L 21.5 532.2916342415793 L 22.5 533.9176923049251 L 22.5 533.9176923049251 L 23.5 535.5227839902423 L 23.5 535.5227839902423 L 24.5 537.1062672822575 L 24.5 537.1062672822574 L 25.5 538.6675088087669 L 25.5 538.6675088087668 L 26.5 540.2058840939759 L 26.5 540.2058840939759 L 27.5 541.7207778082822 L 27.5 541.720777808282 L 28.5 543.211584014398 L 28.5 543.2115840143979 L 29.5 544.6777064097183 L 29.5 544.6777064097183 L 30.5 546.1185585648329 L 30.5 546.1185585648328 L 31.5 547.5335641580908 L 31.5 547.5335641580907 L 32.5 548.9221572061213 L 32.5 548.9221572061213 L 33.49999999999994 550.2837822902194 L 33.49999999999994 550.2837822902193 L 34.50000000000006 551.6178947785064 L 34.50000000000006 551.6178947785063 L 35.5 552.9239610437746 L 35.5 552.9239610437746 L 36.5 554.2014586769322 L 36.5 554.2014586769322 L 37.49999999999994 555.4498766959589 L 37.49999999999994 555.4498766959589 L 38.50000000000006 556.6687157502924 L 38.50000000000006 556.6687157502924 L 39.5 557.857488320562 L 39.5 557.857488320562 L 40.5 559.0157189135896 L 40.5 559.0157189135896 L 41.49999999999994 560.142944252581 L 41.49999999999994 560.142944252581 L 42.50000000000006 561.2387134624298 L 42.50000000000006 561.2387134624298 L 43.5 562.3025882500624 L 43.5 562.3025882500624 L 44.5 563.3341430797485 L 44.5 563.3341430797484 L 45.5 564.33296534331 L 45.5 564.33296534331 L 46.50000000000006 565.298655525159 L 46.50000000000006 565.298655525159 L 47.5 566.2308273620985 L 47.5 566.2308273620984 L 48.5 567.1291079978223 L 48.5 567.1291079978223 L 49.5 567.9931381320533 L 49.5 567.9931381320532 L 50.50000000000006 568.822572164258 L 50.50000000000006 568.822572164258 L 51.5 569.6170783318823 L 51.5 569.6170783318823 L 52.5 570.3763388430526 L 52.5 570.3763388430526 L 53.5 571.1000500036878 L 53.5 571.1000500036878 L 54.49999999999994 571.7879223389729 L 54.49999999999994 571.7879223389729 L 55.50000000000006 572.4396807091454 L 55.50000000000006 572.4396807091453 L 56.5 573.055064419547 L 56.5 573.055064419547 L 57.5 573.6338273248987 L 57.5 573.6338273248987 L 58.49999999999994 574.1757379277552 L 58.49999999999994 574.1757379277551 L 59.50000000000006 574.6805794711006 L 59.50000000000006 574.6805794711006 L 60.5 575.1481500250487 L 60.5 575.1481500250486 L 61.5 575.5782625676121 L 61.5 575.5782625676121 L 62.49999999999994 575.9707450595085 L 62.49999999999994 575.9707450595085 L 63.50000000000006 576.3254405129744 L 63.50000000000006 576.3254405129744 L 64.5 576.6422070545575 L 64.5 576.6422070545574 L 65.5 576.9209179818645 L 65.5 576.9209179818645 L 66.5 577.1614618142406 L 66.5 577.1614618142406 L 67.50000000000006 577.3637423373603 L 67.50000000000006 577.3637423373603 L 68.5 577.5276786417113 L 68.5 577.5276786417112 L 69.5 577.6532051549575 L 69.5 577.6532051549575 L 70.5 577.7402716681673 L 70.5 577.7402716681673 L 71.50000000000006 577.7888433558965 L 71.50000000000006 577.7888433558965 L 72.5 577.8 L 72.5 577.7989007901174 L 73.5 577.7704399479903 L 73.5 577.7704399479904 L 74.5 577.703472213473 L 74.5 577.703472213473 L 75.49999999999994 577.5980243727661 L 75.49999999999994 577.5980243727661 L 76.50000000000006 577.4541386036 L 76.50000000000006 577.4541386036 L 77.5 577.2718724583639 L 77.5 577.2718724583639 L 78.5 577.0512988410857 L 78.5 577.0512988410857 L 79.49999999999994 576.7925059782714 L 79.49999999999994 576.7925059782715 L 80.50000000000006 576.4955973836156 L 80.50000000000006 576.4955973836156 L 81.5 576.1606918165975 L 81.5 576.1606918165975 L 82.5 575.7879232349784 L 82.5 575.7879232349785 L 83.49999999999994 575.377440741221 L 83.49999999999994 575.377440741221 L 84.50000000000006 574.9294085228495 L 84.50000000000006 574.9294085228495 L 85.5 574.4440057867777 L 85.5 574.4440057867777 L 86.5 573.9214266876281 L 86.5 573.9214266876281 L 87.5 573.3618802500728 L 87.5 573.3618802500728 L 88.50000000000006 572.765590285226 L 88.50000000000006 572.765590285226 L 89.5 572.1327953011236 L 89.5 572.1327953011236 L 90.5 571.4637484073219 L 90.5 571.4637484073219 L 91.5 570.7587172136579 L 91.5 570.7587172136579 L 92.50000000000006 570.0179837232087 L 92.50000000000006 570.0179837232087 L 93.5 569.2418442194943 L 93.5 569.2418442194944 L 94.5 568.4306091479679 L 94.5 568.4306091479679 L 95.5 567.5846029918415 L 95.5 567.5846029918415 L 96.49999999999994 566.7041641422978 L 96.49999999999994 566.7041641422978 L 97.50000000000006 565.7896447631375 L 97.50000000000006 565.7896447631375 L 98.5 564.841410649919 L 98.5 564.841410649919 L 99.5 563.8598410836445 L 99.5 563.8598410836446 L 100.49999999999994 562.8453286790532 L 100.49999999999994 562.8453286790532 L 101.50000000000006 561.79827922758 L 101.50000000000006 561.79827922758 L 102.5 560.7191115350454 L 102.5 560.7191115350454 L 103.5 559.6082572541374 L 103.5 559.6082572541374 L 104.49999999999994 558.4661607117573 L 104.49999999999994 558.4661607117573 L 105.50000000000006 557.2932787312943 L 105.50000000000006 557.2932787312943 L 106.5 556.0900804499024 L 106.5 556.0900804499024 L 107.5 554.8570471308517 L 107.5 554.8570471308517 L 108.5 553.5946719710295 L 108.5 553.5946719710296 L 109.50000000000006 552.3034599036683 L 109.50000000000006 552.3034599036683 L 110.5 550.9839273963794 L 110.5 550.9839273963794 L 111.5 549.6366022445718 L 111.5 549.6366022445718 L 112.5 548.2620233603424 L 112.5 548.2620233603424 L 113.50000000000006 546.8607405569171 L 113.50000000000006 546.8607405569171 L 114.5 545.4333143287341 L 114.5 545.4333143287341 L 115.5 543.9803156272525 L 115.5 543.9803156272525 L 116.5 542.5023256325796 L 116.5 542.5023256325796 L 117.49999999999994 540.9999355210074 L 117.49999999999994 540.9999355210074 L 118.50000000000006 539.4737462285484 L 118.50000000000006 539.4737462285484 L 119.5 537.9243682105712 L 119.5 537.9243682105712 L 120.5 536.3524211976245 L 120.5 536.3524211976245 L 121.49999999999994 534.7585339475547 L 121.49999999999994 534.7585339475547 L 122.50000000000006 533.14334399401 L 122.50000000000006 533.1433439940101 L 123.5 531.5074973914367 L 123.5 531.5074973914367 L 124.5 529.8516484566645 L 124.5 529.8516484566645 L 125.49999999999994 528.1764595071896 L 125.49999999999994 528.1764595071897 L 126.50000000000006 526.4826005962564 L 126.50000000000006 526.4826005962564 L 127.5 524.7707492448446 L 127.5 524.7707492448446 L 128.5 523.0415901706707 L 128.5 523.0415901706707 L 129.5 521.2958150143089 L 129.5 521.2958150143089 L 130.50000000000006 519.5341220625451 L 130.50000000000006 519.5341220625451 L 131.5 517.7572159690711 L 131.5 517.7572159690711 L 132.5 515.9658074726327 L 132.5 515.9658074726327 L 133.5 514.1606131127432 L 133.5 514.1606131127432 L 134.50000000000006 512.3423549430776 L 134.50000000000006 512.3423549430776 L 135.5 510.5117602426608 L 135.5 510.5117602426608 L 136.5 508.66956122496515 L 136.5 508.66956122496515 L 137.5 506.8164947450356 L 137.5 506.8164947450356 L 138.49999999999994 504.9533020047567 L 138.49999999999994 504.9533020047567 L 139.5 503.0807282563823 L 139.5 503.0807282563823 L 140.5 501.19952250444476 L 140.5 501.19952250444476 L 141.5 499.3104372061622 L 141.5 499.3104372061622 L 142.49999999999994 497.4142279704665 L 142.49999999999994 497.4142279704665 L 143.5 495.51165325576943 L 143.5 495.51165325576943 L 144.5 493.60347406658957 L 144.5 493.60347406658957 L 145.5 491.6904536491607 L 145.5 491.6904536491607 L 146.5 489.77335718614296 L 146.5 489.77335718614296 L 147.5 487.8529514905608 L 147.5 487.8529514905608 L 148.5 485.93000469908725 L 148.5 485.93000469908725 L 149.5 484.0052859648001 L 149.5 484.0052859648001 L 150.5 482.0795651495303 L 150.5 482.0795651495303 L 151.5 480.1536125159282 L 151.5 480.1536125159282 L 152.5 478.228198419368 L 152.5 478.228198419368 L 153.5 476.30409299981676 L 153.5 476.30409299981676 L 154.5 474.38206587378767 L 154.5 474.38206587378767 L 155.5 472.4628858265046 L 155.5 472.46288582650465 L 156.5 470.54732050439765 L 156.5 470.54732050439765 L 157.5 468.63613610805515 L 157.5 468.6361361080552 L 158.5 466.7300970857535 L 158.5 466.7300970857535 L 159.5 464.8299658276882 L 159.5 464.8299658276882 L 160.5 462.93650236102775 L 160.5 462.93650236102775 L 161.5 461.0504640459127 L 161.5 461.05046404591275 L 162.5 459.17260527252256 L 162.5 459.17260527252256 L 163.5 457.30367715932874 L 163.5 457.30367715932874 L 164.5 455.4444272526579 L 164.5 455.4444272526579 L 165.5 453.5955992276829 L 165.5 453.5955992276829 L 166.5 451.7579325909632 L 166.5 451.7579325909632 L 167.5 449.9321623846514 L 167.5 449.9321623846514 L 168.5 448.11901889248696 L 168.5 448.11901889248696 L 169.5 446.31922734769165 L 169.5 446.31922734769165 L 170.5 444.5335076428866 L 170.5 444.5335076428866 L 171.5 442.7625740421443 L 171.5 442.7625740421443 L 172.5 441.0071348952931 L 172.5 441.0071348952931 L 173.5 439.2678923545861 L 173.5 439.2678923545861 L 174.5 437.54554209385003 L 174.5 437.54554209385003 L 175.5 435.84077303022474 L 175.5 435.84077303022474 L 176.5 434.15426704860585 L 176.5 434.15426704860585 L 177.5 432.4866987288994 L 177.5 432.4866987288994 L 178.5 430.8387350761995 L 178.5 430.83873507619955 L 179.5 429.2110352539945 L 179.5 429.21103525399457 L 180.5 427.60425032051114 L 180.5 427.60425032051114 L 181.5 426.0190229682991 L 181.5 426.01902296829917 L 182.5 424.4559872671632 L 182.5 424.45598726716327 L 183.5 422.9157684105438 L 183.5 422.9157684105439 L 184.5 421.3989824654475 L 184.5 421.3989824654475 L 185.5 419.90623612602883 L 185.5 419.90623612602883 L 186.5 418.43812647092045 L 186.5 418.43812647092045 L 187.5 416.99524072440994 L 187.5 416.99524072441 L 188.5 415.5781560215577 L 188.5 415.5781560215577 L 189.5 414.18743917735065 L 189.5 414.18743917735065 L 190.5 412.82364645998376 L 190.5 412.82364645998376 L 191.5 411.4873233683604 L 191.5 411.4873233683604 L 192.5 410.1790044138998 L 192.5 410.1790044138998 L 193.5 408.8992129067397 L 193.5 408.89921290673976 L 194.5 407.64846074641935 L 194.5 407.64846074641935 L 195.5 406.42724821712636 L 195.5 406.42724821712636 L 196.5 405.2360637875898 L 196.5 405.2360637875898 L 197.5 404.0753839156993 L 197.5 404.0753839156993 L 198.5 402.94567285792806 L 198.5 402.94567285792806 L 199.5 401.8473824836366 L 199.5 401.84738248363664 L 200.5 400.7809520943309 L 200.5 400.7809520943309 L 201.5 399.7468082479479 L 201.5 399.74680824794797 L 202.5 398.74536458823775 L 202.5 398.74536458823775 L 203.5 397.7770216793118 L 203.5 397.7770216793118 L 204.5 396.84216684542264 L 204.5 396.8421668454227 L 205.5 395.94117401603927 L 205.5 395.94117401603927 L 206.5 395.07440357628036 L 206.5 395.07440357628036 L 207.5 394.24220222276494 L 207.5 394.242202222765 L 208.5 393.4449028249387 L 208.5 393.4449028249387 L 209.5 392.68282429193016 L 209.5 392.68282429193016 L 210.5 391.9562714449916 L 210.5 391.95627144499167 L 211.5 391.2655348955746 L 211.5 391.26553489557466 L 212.5 390.61089092908924 L 212.5 390.61089092908924 L 213.5 389.99260139439355 L 213.5 389.9926013943936 L 214.5 389.41091359905784 L 214.5 389.41091359905784 L 215.5 388.8660602104443 L 215.5 388.8660602104443 L 216.5 388.35825916264383 L 216.5 388.3582591626439 L 217.5 387.887713569305 L 217.5 387.88771356930505 L 218.5 387.45461164239134 L 218.5 387.45461164239134 L 219.5 387.0591266168989 L 219.5 387.0591266168989 L 220.5 386.7014166815648 L 220.5 386.7014166815648 L 221.5 386.3816249155938 L 221.5 386.3816249155939 L 222.5 386.09987923142853 L 222.5 386.09987923142853 L 223.5 385.856292323586 L 223.5 385.85629232358605 L 224.5 385.6509616235817 L 224.5 385.6509616235817 L 225.5 385.4839692609577 L 225.5 385.48396926095774 L 226.5 385.3553820304327 L 226.5 385.35538203043274 L 227.5 385.2652513651844 L 227.5 385.26525136518444 L 228.5 385.21361331627713 L 228.5 385.21361331627713 L 229.5 385.2 L 229.5 385.200488538242 L 230.5 385.2258822808152 L 230.5 385.22588228081514 L 231.5 385.2897843868382 L 231.5 385.2897843868382 L 232.5 385.3921692963208 L 232.5 385.3921692963208 L 233.5 385.53299605666416 L 233.5 385.53299605666416 L 234.5 385.7122083390419 L 234.5 385.71220833904187 L 235.5 385.9297344609305 L 235.5 385.92973446093043 L 236.5 386.1854874147815 L 236.5 386.18548741478145 L 237.5 386.4793649028233 L 237.5 386.4793649028233 L 238.5 386.81124937797915 L 238.5 386.8112493779791 L 239.5 387.1810080908839 L 239.5 387.1810080908839 L 240.5 387.58849314298254 L 240.5 387.58849314298254 L 241.5 388.0335415456873 L 241.5 388.0335415456872 L 242.5 388.5159752855709 L 242.5 388.51597528557085 L 243.5 389.03560139556976 L 243.5 389.03560139556976 L 244.5 389.5922120321683 L 244.5 389.5922120321683 L 245.5 390.18558455853304 L 245.5 390.18558455853304 L 246.5 390.81548163356507 L 246.5 390.81548163356507 L 247.5 391.48165130683293 L 247.5 391.48165130683293 L 248.5 392.18382711934936 L 248.5 392.18382711934936 L 249.5 392.9217282101517 L 249.5 392.9217282101517 L 250.5 393.695059428642 L 250.5 393.695059428642 L 251.5 394.50351145264403 L 251.5 394.503511452644 L 252.5 395.3467609121272 L 252.5 395.3467609121272 L 253.5 396.224470518551 L 253.5 396.224470518551 L 254.5 397.1362891997755 L 254.5 397.1362891997755 L 255.5 398.0818522404856 L 255.5 398.0818522404856 L 256.5 399.06078142807235 L 256.5 399.06078142807235 L 257.5 400.072685203913 L 257.5 400.07268520391295 L 258.5 401.11715881998896 L 258.5 401.11715881998896 L 259.5 402.19378450078005 L 259.5 402.19378450078 L 260.5 403.3021316103687 L 260.5 403.30213161036863 L 261.5 404.44175682468887 L 261.5 404.4417568246888 L 262.5 405.6122043088496 L 262.5 405.6122043088495 L 263.5 406.813005899463 L 263.5 406.813005899463 L 264.5 408.04368129190334 L 264.5 408.0436812919033 L 265.5 409.30373823242235 L 265.5 409.30373823242235 L 266.5 410.59267271504444 L 266.5 410.5926727150444 L 267.5 411.90996918316205 L 267.5 411.909969183162 L 268.5 413.25510073575174 L 268.5 413.2551007357517 L 269.5 414.6275293381272 L 269.5 414.62752933812715 L 270.5 416.0267060371464 L 270.5 416.02670603714637 L 271.5 417.4520711807851 L 271.5 417.4520711807851 L 272.5 418.9030546419906 L 272.5 418.90305464199054 L 273.5 420.3790760467243 L 273.5 420.3790760467243 L 274.5 421.8795450061047 L 274.5 421.8795450061047 L 275.5 423.40386135255375 L 275.5 423.40386135255375 L 276.5 424.95141537985705 L 276.5 424.951415379857 L 277.5 426.5215880870372 L 277.5 426.5215880870372 L 278.5 428.1137514259469 L 278.5 428.1137514259469 L 279.5 429.72726855247896 L 279.5 429.72726855247896 L 280.5 431.36149408129626 L 280.5 431.36149408129626 L 281.5 433.0157743439765 L 281.5 433.01577434397643 L 282.5 434.68944765047144 L 282.5 434.6894476504714 L 283.5 436.38184455377376 L 283.5 436.3818445537737 L 284.5 438.09228811768725 L 284.5 438.09228811768725 L 285.5 439.82009418759185 L 285.5 439.8200941875918 L 286.5 441.5645716640968 L 286.5 441.5645716640968 L 287.5 443.3250227794707 L 287.5 443.3250227794707 L 288.5 445.10074337674 L 288.5 445.10074337673996 L 289.5 446.8910231913417 L 289.5 446.8910231913417 L 290.5 448.6951461352199 L 290.5 448.6951461352199 L 291.5 450.51239058325183 L 291.5 450.51239058325183 L 292.5 452.3420296618878 L 292.5 452.3420296618878 L 293.5 454.18333153989136 L 293.5 454.18333153989136 L 294.5 456.0355597210615 L 294.5 456.0355597210615 L 295.5 457.89797333882194 L 295.5 457.89797333882194 L 296.5 459.76982745255725 L 296.5 459.76982745255725 L 297.5 461.65037334557985 L 297.5 461.65037334557985 L 298.5 463.538858824606 L 298.5 463.538858824606 L 299.5 465.4345285206237 L 299.5 465.4345285206237 L 300.5 467.33662419102967 L 300.5 467.3366241910296 L 301.5 469.24438502291673 L 301.5 469.24438502291673 L 302.5 471.1570479373886 L 302.5 471.1570479373886 L 303.5 473.07384789478135 L 303.5 473.07384789478135 L 304.5 474.99401820066896 L 304.5 474.99401820066896 L 305.5 476.9167908125311 L 305.5 476.9167908125311 L 306.5 478.8413966469595 L 306.5 478.8413966469595 L 307.5 480.7670658872816 L 307.5 480.7670658872816 L 308.5 482.6930282914764 L 308.5 482.6930282914764 L 309.5 484.6185135002615 L 309.5 484.6185135002615 L 310.5 486.5427513452261 L 310.5 486.5427513452261 L 311.5 488.4649721568884 L 311.5 488.4649721568884 L 312.5 490.384407072553 L 312.5 490.384407072553 L 313.5 492.30028834384575 L 313.5 492.30028834384575 L 314.5 494.21184964380296 L 314.5 494.21184964380296 L 315.5 496.1183263733916 L 315.5 496.1183263733916 L 316.5 498.0189559673394 L 316.5 498.0189559673394 L 317.5 499.91297819915 L 317.5 499.91297819915 L 318.5 501.7996354851841 L 318.5 501.7996354851841 L 319.5 503.6781731876823 L 319.5 503.6781731876823 L 320.5 505.54783991661054 L 320.5 505.54783991661054 L 321.5 507.4078878302056 L 321.5 507.4078878302056 L 322.5 509.25757293410254 L 322.5 509.25757293410254 L 323.5 511.0961553789218 L 323.5 511.0961553789218 L 324.5 512.9228997561997 L 324.5 512.9228997561997 L 325.5 514.7370753925416 L 325.5 514.7370753925416 L 326.5 516.5379566418816 L 326.5 516.5379566418815 L 327.5 518.3248231757311 L 327.5 518.3248231757311 L 328.5 520.0969602713017 L 328.5 520.0969602713017 L 329.5 521.8536590973829 L 329.5 521.8536590973829 L 330.5 523.5942169978667 L 330.5 523.5942169978667 L 331.5 525.3179377728003 L 331.5 525.3179377728003 L 332.5 527.0241319568561 L 332.5 527.024131956856 L 333.5 528.7121170951094 L 333.5 528.7121170951094 L 334.5 530.3812180160112 L 334.5 530.3812180160112 L 335.5 532.0307671014475 L 335.5 532.0307671014475 L 336.5 533.6601045537777 L 336.5 533.6601045537777 L 337.5 535.2685786597453 L 337.5 535.2685786597453 L 338.5 536.8555460511539 L 338.5 536.8555460511537 L 339.5 538.420371962206 L 339.5 538.420371962206 L 340.5 539.9624304834014 L 340.5 539.9624304834014 L 341.5 541.4811048118921 L 341.5 541.4811048118921 L 342.5 542.9757874981955 L 342.5 542.9757874981955 L 343.5 544.4458806891658 L 343.5 544.4458806891658 L 344.5 545.8907963671278 L 344.5 545.8907963671277 L 345.5 547.3099565850753 L 345.5 547.3099565850753 L 346.5 548.7027936978432 L 346.5 548.7027936978432 L 347.5 550.0687505891573 L 347.5 550.0687505891573 L 348.5 551.4072808944735 L 348.5 551.4072808944735 L 349.5 552.7178492195167 L 349.5 552.7178492195166 L 350.5 553.9999313544306 L 350.5 553.9999313544306 L 351.5 555.2530144834556 L 351.5 555.2530144834556 L 352.5 556.4765973900477 L 352.5 556.4765973900477 L 353.5 557.6701906573584 L 353.5 557.6701906573584 L 354.5 558.8333168639952 L 354.5 558.833316863995 L 355.5 559.9655107749834 L 355.5 559.9655107749834 L 356.5 561.0663195278546 L 356.5 561.0663195278545 L 357.5 562.1353028137847 L 357.5 562.1353028137846 L 358.5 563.1720330537123 L 358.5 563.1720330537123 L 359.5 564.1760955693644 L 359.5 564.1760955693644 L 360.5 565.1470887491221 L 360.5 565.147088749122 L 361.5 566.0846242086595 L 361.5 566.0846242086595 L 362.5 566.9883269462937 L 362.5 566.9883269462937 L 363.5 567.8578354929783 L 363.5 567.8578354929783 L 364.5 568.6928020568884 L 364.5 568.6928020568884 L 365.5 569.4928926625307 L 365.5 569.4928926625307 L 366.5 570.2577872843311 L 366.5 570.2577872843311 L 367.5 570.987179974639 L 367.5 570.987179974639 L 368.5 571.6807789861037 L 368.5 571.6807789861036 L 369.5 572.3383068883683 L 369.5 572.3383068883682 L 370.5 572.9595006790387 L 370.5 572.9595006790387 L 371.5 573.5441118888813 L 371.5 573.5441118888813 L 372.5 574.0919066812068 L 372.5 574.0919066812068 L 373.5 574.6026659454021 L 373.5 574.6026659454021 L 374.5 575.0761853845715 L 374.5 575.0761853845715 L 375.5 575.512275597253 L 375.5 575.512275597253 L 376.5 575.9107621531759 L 376.5 575.9107621531759 L 377.5 576.271485663031 L 377.5 576.271485663031 L 378.5 576.5943018422237 L 378.5 576.5943018422237 L 379.5 576.8790815685867 L 379.5 576.8790815685867 L 380.5 577.1257109340263 L 380.5 577.1257109340263 L 381.5 577.3340912900849 L 381.5 577.3340912900849 L 382.5 577.5041392873982 L 382.5 577.5041392873982 L 383.5 577.6357869090348 L 383.5 577.6357869090347 L 384.5 577.728981497701 L 384.5 577.728981497701 L 385.5 577.7836857768042 L 385.5 577.7836857768042 L 386.5 577.8 L 386.5 577.7998778653621 L 387.5 577.7775512867549 L 387.5 577.7775512867549 L 388.5 577.7167149713168 L 388.5 577.7167149713168 L 389.5 577.6173932527624 L 389.5 577.6173932527626 L 390.5 577.4796258584553 L 390.5 577.4796258584553 L 391.5 577.303467893516 L 391.5 577.303467893516 L 392.5 577.0889898187818 L 392.5 577.0889898187818 L 393.5 576.8362774226229 L 393.5 576.8362774226229 L 394.5 576.5454317866283 L 394.5 576.5454317866285 L 395.5 576.2165692451748 L 395.5 576.2165692451748 L 396.5 575.8498213388939 L 396.5 575.8498213388939 L 397.5 575.4453347620582 L 397.5 575.4453347620582 L 398.5 575.0032713039055 L 398.5 575.0032713039055 L 399.5 574.5238077839249 L 399.5 574.523807783925 L 400.5 574.0071359811317 L 400.5 574.0071359811317 L 401.5 573.453462557358 L 401.5 573.4534625573581 L 402.5 572.8630089745911 L 402.5 572.8630089745913 L 403.5 572.2360114063918 L 403.5 572.2360114063918 L 404.5 571.5727206434271 L 404.5 571.5727206434271 L 405.5 570.8734019931587 L 405.5 570.8734019931587 L 406.5 570.1383351737225 L 406.5 570.1383351737226 L 407.5 569.3678142020456 L 407.5 569.3678142020456 L 408.5 568.562147276243 L 408.5 568.562147276243 L 409.5 567.7216566523431 L 409.5 567.7216566523431 L 410.5 566.8466785153889 L 410.5 566.846678515389 L 411.5 565.9375628449693 L 411.5 565.9375628449693 L 412.5 564.9946732752308 L 412.5 564.9946732752308 L 413.5 564.0183869494296 L 413.5 564.0183869494297 L 414.5 563.0090943690792 L 414.5 563.0090943690792 L 415.5 561.9671992377546 L 415.5 561.9671992377546 L 416.5 560.8931182996165 L 416.5 560.8931182996165 L 417.5 559.7872811727194 L 417.5 559.7872811727194 L 418.5 558.6501301771697 L 418.5 558.6501301771697 L 419.5 557.4821201582038 L 419.5 557.4821201582039 L 420.5 556.2837183042561 L 420.5 556.2837183042561 L 421.5 555.0554039600896 L 421.5 555.0554039600896 L 422.5 553.7976684350647 L 422.5 553.7976684350648 L 423.5 552.5110148066219 L 423.5 552.5110148066219 L 424.5 551.1959577190573 L 424.5 551.1959577190573 L 425.5 549.8530231776722 L 425.5 549.8530231776722 L 426.5 548.4827483383774 L 426.5 548.4827483383775 L 427.5 547.0856812928388 L 427.5 547.0856812928388 L 428.5 545.662380849247 L 428.5 545.662380849247 L 429.5 544.2134163088026 L 429.5 544.2134163088026 L 430.5 542.7393672380024 L 430.5 542.7393672380025 L 431.5 541.240823236821 L 431.5 541.2408232368211 L 432.5 539.7183837028786 L 432.5 539.7183837028786 L 433.5 538.1726575916897 L 433.5 538.1726575916898 L 434.5 536.6042631730896 L 434.5 536.6042631730896 L 435.5 535.013827783934 L 435.5 535.0138277839341 L 436.5 533.4019875771729 L 436.5 533.4019875771729 L 437.5 531.7693872673982 L 437.5 531.7693872673983 L 438.5 530.1166798729662 L 438.5 530.1166798729663 L 439.5 528.4445264547988 L 439.5 528.4445264547988 L 440.5 526.753595851968 L 440.5 526.753595851968 L 441.5 525.0445644141697 L 441.5 525.0445644141697 L 442.5 523.3181157311923 L 442.5 523.3181157311923 L 443.5 521.5749403594898 L 443.5 521.5749403594898 L 444.5 519.8157355459689 L 444.5 519.8157355459689 L 445.5 518.0412049490993 L 445.5 518.0412049490993 L 446.5 516.2520583574595 L 446.5 516.2520583574595 L 447.5 514.4490114058315 L 447.5 514.4490114058315 L 448.5 512.6327852889553 L 448.5 512.6327852889553 L 449.5 510.80410647306195 L 449.5 510.80410647306195 L 450.5 508.96370640529545 L 450.5 508.96370640529545 L 451.5 507.1123212211448 L 451.5 507.1123212211448 L 452.5 505.25069144999867 L 452.5 505.25069144999867 L 453.5 503.3795617189443 L 453.5 503.3795617189443 L 454.5 501.49968045492585 L 454.5 501.49968045492585 L 455.5 499.61179958538435 L 455.5 499.61179958538435 L 456.5 497.71667423749614 L 456.5 497.71667423749614 L 457.5 495.8150624361323 L 457.5 495.81506243613234 L 458.5 493.90772480065897 L 458.5 493.90772480065897 L 459.5 491.99542424069955 L 459.5 491.9954242406996 L 460.5 490.07892565098103 L 460.5 490.07892565098103 L 461.5 488.15899560538617 L 461.5 488.15899560538617 L 462.5 486.23640205033456 L 462.5 486.23640205033456 L 463.5 484.31191399761406 L 463.5 484.31191399761406 L 464.5 482.38630121678625 L 464.5 482.38630121678625 L 465.5 480.46033392728884 L 465.5 480.46033392728884 L 466.5 478.5347824903585 L 466.5 478.5347824903585 L 467.5 476.6104171008963 L 467.5 476.6104171008963 L 468.5 474.6880074794002 L 468.5 474.6880074794002 L 469.5 472.76832256408693 L 469.5 472.76832256408693 L 470.5 470.8521302033273 L 470.5 470.8521302033273 L 471.5 468.94019684851656 L 471.5 468.94019684851656 L 472.5 467.0332872475047 L 472.5 467.0332872475047 L 473.5 465.13216413870674 L 473.5 465.13216413870674 L 474.5 463.23758794601855 L 474.5 463.23758794601855 L 475.5 461.35031647465627 L 475.5 461.35031647465627 L 476.5 459.4711046080453 L 476.5 459.4711046080454 L 477.5 457.60070400587654 L 477.5 457.60070400587654 L 478.5 455.73986280345224 L 478.5 455.73986280345224 L 479.5 453.8893253124426 L 479.5 453.8893253124426 L 480.5 452.0498317231707 L 480.5 452.0498317231707 L 481.5 450.2221178085459 L 481.5 450.2221178085459 L 482.5 448.40691462976463 L 482.5 448.4069146297647 L 483.5 446.6049482438963 L 483.5 446.6049482438963 L 484.5 444.8169394134693 L 484.5 444.8169394134693 L 485.5 443.0436033181759 L 485.5 443.04360331817594 L 486.5 441.28564926881006 L 486.5 441.2856492688101 L 487.5 439.5437804235526 L 487.5 439.5437804235526 L 488.5 437.8186935067169 L 488.5 437.8186935067169 L 489.5 436.1110785300688 L 489.5 436.1110785300689 L 490.5 434.4216185168312 L 490.5 434.4216185168312 L 491.5 432.75098922848343 L 491.5 432.7509892284835 L 492.5 431.09985889446614 L 492.5 431.09985889446614 L 493.5 429.46888794489814 L 493.5 429.46888794489814 L 494.5 427.85872874641325 L 494.5 427.85872874641325 L 495.5 426.27002534122244 L 495.5 426.27002534122244 L 496.5 424.7034131895052 L 496.5 424.7034131895052 L 497.5 423.1595189152345 L 497.5 423.15951891523457 L 498.5 421.63896005553505 L 498.5 421.63896005553505 L 499.5 420.1423448136767 L 499.5 420.14234481367674 L 500.5 418.67027181580175 L 500.5 418.6702718158018 L 501.5 417.223329871482 L 501.5 417.22332987148206 L 502.5 415.80209773820286 L 502.5 415.80209773820286 L 503.5 414.40714388986794 L 503.5 414.407143889868 L 504.5 413.03902628941773 L 504.5 413.03902628941773 L 505.5 411.69829216565086 L 505.5 411.69829216565086 L 506.5 410.3854777943407 L 506.5 410.3854777943407 L 507.5 409.10110828373183 L 507.5 409.10110828373183 L 508.5 407.8456973645038 L 508.5 407.8456973645038 L 509.5 406.61974718428564 L 509.5 406.61974718428564 L 510.5 405.4237481068037 L 510.5 405.42374810680377 L 511.5 404.2581785157426 L 511.5 404.2581785157426 L 512.5 403.123504623398 L 512.5 403.123504623398 L 513.5 402.020180284198 L 513.5 402.020180284198 L 514.5 400.9486468131675 L 514.5 400.94864681316756 L 515.5 399.909332809408 L 515.5 399.90933280940806 L 516.5 398.90265398466374 L 516.5 398.90265398466374 L 517.5 397.92901299704226 L 517.5 397.9290129970423 L 518.5 396.9887992899571 L 518.5 396.9887992899571 L 519.5 396.0823889363549 L 519.5 396.08238893635496 L 520.5 395.2101444882919 L 520.5 395.2101444882919 L 521.5 394.37241483191747 L 521.5 394.3724148319175 L 522.5 393.5695350479247 L 522.5 393.5695350479247 L 523.5 392.8018262775222 L 523.5 392.8018262775222 L 524.5 392.06959559398206 L 524.5 392.06959559398206 L 525.5 391.37313587981487 L 525.5 391.37313587981487 L 526.5 390.71272570962026 L 526.5 390.71272570962026 L 527.5 390.08862923866093 L 527.5 390.088629238661 L 528.5 389.50109609720414 L 528.5 389.50109609720414 L 529.5 388.95036129067273 L 529.5 388.9503612906728 L 530.5 388.43664510564633 L 530.5 388.4366451056464 L 531.5 387.96015302174953 L 531.5 387.96015302174953 L 532.5 387.5210756294627 L 532.5 387.5210756294627 L 533.5 387.11958855388843 L 533.5 387.11958855388843 L 534.5 386.7558523845039 L 534.5 386.7558523845039 L 535.5 386.4300126109271 L 535.5 386.4300126109271 L 536.5 386.142199564723 L 536.5 386.14219956472306 L 537.5 385.8925283672727 L 537.5 385.8925283672727 L 538.5 385.6810988837261 L 538.5 385.6810988837261 L 539.5 385.50799568305774 L 539.5 385.50799568305774 L 540.5 385.37328800423984 L 540.5 385.37328800423984 L 541.5 385.2770297285478 L 541.5 385.27702972854786 L 542.5 385.21925935800857 L 542.5 385.21925935800857 L 543.5 385.2 L 543.5 385.21925935800857 L 544.5 385.2 L 544.5 385.21925935800857 L 545.5 385.27702972854786 L 545.5 385.2770297285478 L 546.5 385.37328800423984 L 546.5 385.37328800423984 L 547.5 385.50799568305774 L 547.5 385.50799568305774 L 548.5 385.6810988837261 L 548.5 385.6810988837261 L 549.5 385.8925283672727 L 549.5 385.8925283672727 L 550.5 386.14219956472306 L 550.5 386.142199564723 L 551.5 386.4300126109271 L 551.5 386.4300126109271 L 552.5 386.7558523845039 L 552.5 386.7558523845039 L 553.5 387.11958855388843 L 553.5 387.11958855388843 L 554.5 387.5210756294627 L 554.5 387.5210756294627 L 555.5 387.96015302174953 L 555.5 387.96015302174953 L 556.5 388.4366451056464 L 556.5 388.43664510564633 L 557.5 388.95036129067273 L 557.5 388.95036129067273 L 558.5 389.50109609720414 L 558.5 389.50109609720414 L 559.5 390.08862923866093 L 559.5 390.08862923866093 L 560.5 390.71272570962026 L 560.5 390.71272570962026 L 561.5 391.37313587981487 L 561.5 391.37313587981487 L 562.5 392.06959559398206 L 562.5 392.06959559398206 L 563.5 392.8018262775222 L 563.5 392.80182627752214 L 564.5 393.5695350479247 L 564.5 393.5695350479247 L 565.5 394.3724148319175 L 565.5 394.3724148319175 L 566.5 395.2101444882919 L 566.5 395.2101444882919 L 567.5 396.08238893635496 L 567.5 396.0823889363549 L 568.5 396.9887992899571 L 568.5 396.9887992899571 L 569.5 397.9290129970423 L 569.5 397.92901299704226 L 570.5 398.90265398466374 L 570.5 398.90265398466374 L 571.5 399.90933280940806 L 571.5 399.909332809408 L 572.5 400.9486468131675 L 572.5 400.9486468131675 L 573.5 402.020180284198 L 573.5 402.020180284198 L 574.5 403.123504623398 L 574.5 403.12350462339793 L 575.5 404.25817851574266 L 575.5 404.2581785157426 L 576.5 405.4237481068037 L 576.5 405.4237481068037 L 577.5 406.61974718428564 L 577.5 406.61974718428564 L 578.5 407.8456973645038 L 578.5 407.84569736450374 L 579.5 409.10110828373183 L 579.5 409.10110828373183 L 580.5 410.38547779434066 L 580.5 410.38547779434066 L 581.5 411.69829216565086 L 581.5 411.69829216565086 L 582.5 413.0390262894177 L 582.5 413.0390262894177 L 583.5 414.407143889868 L 583.5 414.40714388986794 L 584.5 415.8020977382028 L 584.5 415.8020977382028 L 585.5 417.22332987148206 L 585.5 417.223329871482 L 586.5 418.6702718158018 L 586.5 418.6702718158018 L 587.5 420.14234481367674 L 587.5 420.1423448136767 L 588.5 421.638960055535 L 588.5 421.638960055535 L 589.5 423.1595189152345 L 589.5 423.1595189152345 L 590.5 424.7034131895052 L 590.5 424.7034131895052 L 591.5 426.27002534122244 L 591.5 426.2700253412224 L 592.5 427.85872874641325 L 592.5 427.85872874641325 L 593.5 429.46888794489814 L 593.5 429.46888794489814 L 594.5 431.09985889446614 L 594.5 431.09985889446614 L 595.5 432.75098922848343 L 595.5 432.75098922848343 L 596.5 434.4216185168312 L 596.5 434.4216185168312 L 597.5 436.1110785300688 L 597.5 436.1110785300688 L 598.5 437.8186935067169 L 598.5 437.8186935067169 L 599.5 439.5437804235526 L 599.5 439.5437804235526 L 600.5 441.2856492688101 L 600.5 441.2856492688101 L 601.5 443.0436033181759 L 601.5 443.0436033181759 L 602.5 444.8169394134693 L 602.5 444.81693941346924 L 603.5 446.60494824389633 L 603.5 446.6049482438963 L 604.5 448.40691462976463 L 604.5 448.40691462976463 L 605.5 450.2221178085458 L 605.5 450.2221178085458 L 606.5 452.0498317231707 L 606.5 452.0498317231707 L 607.5 453.8893253124427 L 607.5 453.8893253124427 L 608.5 455.73986280345224 L 608.5 455.7398628034522 L 609.5 457.6007040058765 L 609.5 457.6007040058765 L 610.5 459.4711046080453 L 610.5 459.4711046080453 L 611.5 461.3503164746563 L 611.5 461.3503164746563 L 612.5 463.23758794601855 L 612.5 463.23758794601855 L 613.5 465.1321641387068 L 613.5 465.13216413870674 L 614.5 467.03328724750463 L 614.5 467.03328724750463 L 615.5 468.94019684851656 L 615.5 468.94019684851656 L 616.5 470.8521302033273 L 616.5 470.85213020332725 L 617.5 472.768322564087 L 617.5 472.76832256408693 L 618.5 474.6880074794002 L 618.5 474.6880074794002 L 619.5 476.6104171008963 L 619.5 476.6104171008963 L 620.5 478.5347824903585 L 620.5 478.5347824903585 L 621.5 480.46033392728884 L 621.5 480.46033392728884 L 622.5 482.3863012167862 L 622.5 482.3863012167862 L 623.5 484.31191399761406 L 623.5 484.31191399761406 L 624.5 486.23640205033456 L 624.5 486.23640205033456 L 625.5 488.15899560538617 L 625.5 488.15899560538617 L 626.5 490.078925650981 L 626.5 490.078925650981 L 627.5 491.99542424069955 L 627.5 491.99542424069955 L 628.5 493.907724800659 L 628.5 493.907724800659 L 629.5 495.8150624361323 L 629.5 495.8150624361323 L 630.5 497.7166742374961 L 630.5 497.7166742374961 L 631.5 499.61179958538435 L 631.5 499.61179958538435 L 632.5 501.49968045492585 L 632.5 501.49968045492585 L 633.5 503.3795617189443 L 633.5 503.3795617189443 L 634.5 505.25069144999867 L 634.5 505.25069144999867 L 635.5 507.1123212211448 L 635.5 507.1123212211448 L 636.5 508.96370640529545 L 636.5 508.96370640529545 L 637.5 510.8041064730619 L 637.5 510.8041064730619 L 638.5 512.6327852889553 L 638.5 512.6327852889553 L 639.5 514.4490114058315 L 639.5 514.4490114058315 L 640.5 516.2520583574595 L 640.5 516.2520583574595 L 641.5 518.0412049490992 L 641.5 518.0412049490992 L 642.5 519.8157355459689 L 642.5 519.8157355459689 L 643.5 521.5749403594898 L 643.5 521.5749403594898 L 644.5 523.3181157311923 L 644.5 523.3181157311923 L 645.5 525.0445644141698 L 645.5 525.0445644141698 L 646.5 526.753595851968 L 646.5 526.753595851968 L 647.5 528.4445264547987 L 647.5 528.4445264547987 L 648.5 530.1166798729663 L 648.5 530.1166798729662 L 649.5 531.7693872673983 L 649.5 531.7693872673983 L 650.5 533.4019875771729 L 650.5 533.4019875771729 L 651.5 535.013827783934 L 651.5 535.013827783934 L 652.5 536.6042631730896 L 652.5 536.6042631730896 L 653.5 538.1726575916898 L 653.5 538.1726575916898 L 654.5 539.7183837028786 L 654.5 539.7183837028786 L 655.5 541.240823236821 L 655.5 541.240823236821 L 656.5 542.7393672380024 L 656.5 542.7393672380024 L 657.5 544.2134163088026 L 657.5 544.2134163088026 L 658.5 545.662380849247 L 658.5 545.662380849247 L 659.5 547.0856812928388 L 659.5 547.0856812928388 L 660.5 548.4827483383774 L 660.5 548.4827483383774 L 661.5 549.8530231776722 L 661.5 549.8530231776722 L 662.5 551.1959577190573 L 662.5 551.1959577190573 L 663.5 552.5110148066219 L 663.5 552.5110148066219 L 664.5 553.7976684350648 L 664.5 553.7976684350647 L 665.5 555.0554039600896 L 665.5 555.0554039600896 L 666.5 556.2837183042561 L 666.5 556.2837183042561 L 667.5 557.4821201582038 L 667.5 557.4821201582038 L 668.5 558.6501301771697 L 668.5 558.6501301771697 L 669.5 559.7872811727194 L 669.5 559.7872811727193 L 670.5 560.8931182996165 L 670.5 560.8931182996165 L 671.5 561.9671992377546 L 671.5 561.9671992377546 L 672.5 563.0090943690792 L 672.5 563.0090943690792 L 673.5 564.0183869494297 L 673.5 564.0183869494296 L 674.5 564.9946732752308 L 674.5 564.9946732752308 L 675.5 565.9375628449693 L 675.5 565.9375628449693 L 676.5 566.8466785153889 L 676.5 566.8466785153889 L 677.5 567.7216566523431 L 677.5 567.7216566523431 L 678.5 568.562147276243 L 678.5 568.562147276243 L 679.5 569.3678142020456 L 679.5 569.3678142020456 L 680.5 570.1383351737226 L 680.5 570.1383351737225 L 681.5 570.8734019931587 L 681.5 570.8734019931587 L 682.5 571.5727206434271 L 682.5 571.5727206434271 L 683.5 572.2360114063918 L 683.5 572.2360114063918 L 684.5 572.8630089745913 L 684.5 572.8630089745911 L 685.5 573.453462557358 L 685.5 573.453462557358 L 686.5 574.0071359811317 L 686.5 574.0071359811317 L 687.5 574.523807783925 L 687.5 574.5238077839249 L 688.5 575.0032713039055 L 688.5 575.0032713039055 L 689.5 575.4453347620582 L 689.5 575.4453347620582 L 690.5 575.8498213388939 L 690.5 575.8498213388939 L 691.5 576.2165692451748 L 691.5 576.2165692451748 L 692.5 576.5454317866285 L 692.5 576.5454317866283 L 693.5 576.8362774226229 L 693.5 576.8362774226229 L 694.5 577.0889898187818 L 694.5 577.0889898187818 L 695.5 577.303467893516 L 695.5 577.303467893516 L 696.5 577.4796258584553 L 696.5 577.4796258584553 L 697.5 577.6173932527626 L 697.5 577.6173932527624 L 698.5 577.7167149713168 L 698.5 577.7167149713168 L 699.5 577.7775512867549 L 699.5 577.7775512867549 L 700.5 577.7998778653621 L 700.5 577.7836857768042 L 701.5 577.8 L 701.5 577.7836857768042 L 702.5 577.728981497701 L 702.5 577.728981497701 L 703.5 577.6357869090347 L 703.5 577.6357869090348 L 704.5 577.5041392873982 L 704.5 577.5041392873982 L 705.5 577.3340912900849 L 705.5 577.3340912900849 L 706.5 577.1257109340263 L 706.5 577.1257109340263 L 707.5 576.8790815685867 L 707.5 576.8790815685867 L 708.5 576.5943018422237 L 708.5 576.5943018422237 L 709.5 576.271485663031 L 709.5 576.271485663031 L 710.5 575.9107621531759 L 710.5 575.9107621531759 L 711.5 575.512275597253 L 711.5 575.512275597253 L 712.5 575.0761853845715 L 712.5 575.0761853845715 L 713.5 574.6026659454021 L 713.5 574.6026659454021 L 714.5 574.0919066812068 L 714.5 574.0919066812068 L 715.5 573.5441118888813 L 715.5 573.5441118888813 L 716.5 572.9595006790387 L 716.5 572.9595006790387 L 717.5 572.3383068883683 L 717.5 572.3383068883683 L 718.5 571.6807789861036 L 718.5 571.6807789861037 L 719.5 570.987179974639 L 719.5 570.987179974639 L 720.5 570.2577872843311 L 720.5 570.2577872843311 L 721.5 569.4928926625307 L 721.5 569.4928926625307 L 722.5 568.6928020568884 L 722.5 568.6928020568884 L 723.5 567.8578354929783 L 723.5 567.8578354929783 L 724.5 566.9883269462937 L 724.5 566.9883269462937 L 725.5 566.0846242086595 L 725.5 566.0846242086596 L 726.5 565.147088749122 L 726.5 565.1470887491221 L 727.5 564.1760955693644 L 727.5 564.1760955693644 L 728.5 563.1720330537123 L 728.5 563.1720330537123 L 729.5 562.1353028137846 L 729.5 562.1353028137847 L 730.5 561.0663195278546 L 730.5 561.0663195278546 L 731.5 559.9655107749834 L 731.5 559.9655107749834 L 732.5 558.833316863995 L 732.5 558.8333168639952 L 733.5 557.6701906573584 L 733.5 557.6701906573584 L 734.5 556.4765973900477 L 734.5 556.4765973900477 L 735.5 555.2530144834556 L 735.5 555.2530144834557 L 736.5 553.9999313544306 L 736.5 553.9999313544306 L 737.5 552.7178492195166 L 737.5 552.7178492195167 L 738.5 551.4072808944735 L 738.5 551.4072808944735 L 739.5 550.0687505891573 L 739.5 550.0687505891573 L 740.5 548.7027936978432 L 740.5 548.7027936978432 L 741.5 547.3099565850753 L 741.5 547.3099565850753 L 742.5 545.8907963671277 L 742.5 545.8907963671278 L 743.5 544.4458806891658 L 743.5 544.4458806891658 L 744.5 542.9757874981955 L 744.5 542.9757874981955 L 745.5 541.4811048118921 L 745.5 541.4811048118921 L 746.5 539.9624304834014 L 746.5 539.9624304834014 L 747.5 538.420371962206 L 747.5 538.420371962206 L 748.5 536.8555460511539 L 748.5 536.8555460511539 L 749.5 535.2685786597453 L 749.5 535.2685786597453 L 750.5 533.6601045537777 L 750.5 533.6601045537777 L 751.5 532.0307671014475 L 751.5 532.0307671014475 L 752.5 530.3812180160112 L 752.5 530.3812180160112 L 753.5 528.7121170951094 L 753.5 528.7121170951094 L 754.5 527.0241319568561 L 754.5 527.0241319568561 L 755.5 525.3179377728003 L 755.5 525.3179377728003 L 756.5 523.5942169978667 L 756.5 523.5942169978667 L 757.5 521.8536590973829 L 757.5 521.8536590973829 L 758.5 520.0969602713017 L 758.5 520.0969602713017 L 759.5 518.3248231757311 L 759.5 518.3248231757311 L 760.5 516.5379566418816 L 760.5 516.5379566418816 L 761.5 514.7370753925416 L 761.5 514.7370753925416 L 762.5 512.9228997561997 L 762.5 512.9228997561997 L 763.5 511.0961553789218 L 763.5 511.0961553789219 L 764.5 509.25757293410254 L 764.5 509.25757293410254 L 765.5 507.4078878302056 L 765.5 507.4078878302056 L 766.5 505.54783991661054 L 766.5 505.54783991661054 L 767.5 503.6781731876823 L 767.5 503.6781731876823 L 768.5 501.7996354851841 L 768.5 501.7996354851842 L 769.5 499.91297819915 L 769.5 499.91297819915 L 770.5 498.0189559673394 L 770.5 498.0189559673394 L 771.5 496.11832637339165 L 771.5 496.11832637339165 L 772.5 494.21184964380296 L 772.5 494.21184964380296 L 773.5 492.30028834384575 L 773.5 492.30028834384575 L 774.5 490.384407072553 L 774.5 490.3844070725531 L 775.5 488.4649721568884 L 775.5 488.4649721568884 L 776.5 486.5427513452261 L 776.5 486.5427513452261 L 777.5 484.6185135002615 L 777.5 484.6185135002615 L 778.5 482.6930282914764 L 778.5 482.6930282914764 L 779.5 480.7670658872816 L 779.5 480.7670658872816 L 780.5 478.8413966469595 L 780.5 478.8413966469595 L 781.5 476.91679081253113 L 781.5 476.91679081253113 L 782.5 474.99401820066896 L 782.5 474.99401820066896 L 783.5 473.0738478947814 L 783.5 473.0738478947814 L 784.5 471.1570479373886 L 784.5 471.1570479373886 L 785.5 469.2443850229168 L 785.5 469.2443850229168 L 786.5 467.33662419102967 L 786.5 467.33662419102967 L 787.5 465.4345285206237 L 787.5 465.4345285206237 L 788.5 463.538858824606 L 788.5 463.53885882460605 L 789.5 461.6503733455799 L 789.5 461.6503733455799 L 790.5 459.76982745255725 L 790.5 459.76982745255725 L 791.5 457.89797333882194 L 791.5 457.89797333882194 L 792.5 456.0355597210615 L 792.5 456.03555972106153 L 793.5 454.18333153989136 L 793.5 454.1833315398914 L 794.5 452.3420296618878 L 794.5 452.34202966188786 L 795.5 450.51239058325183 L 795.5 450.5123905832519 L 796.5 448.6951461352199 L 796.5 448.6951461352199 L 797.5 446.8910231913417 L 797.5 446.8910231913417 L 798.5 445.10074337674 L 798.5 445.10074337674 L 799.5 443.3250227794707 L 799.5 443.3250227794707 L 800.5 441.5645716640968 L 800.5 441.5645716640968 L 801.5 439.82009418759185 L 801.5 439.82009418759185 L 802.5 438.09228811768725 L 802.5 438.09228811768725 L 803.5 436.38184455377376 L 803.5 436.38184455377376 L 804.5 434.68944765047144 L 804.5 434.68944765047144 L 805.5 433.01577434397643 L 805.5 433.0157743439765 L 806.5 431.36149408129626 L 806.5 431.36149408129626 L 807.5 429.72726855247896 L 807.5 429.72726855247896 L 808.5 428.1137514259469 L 808.5 428.1137514259469 L 809.5 426.5215880870372 L 809.5 426.5215880870372 L 810.5 424.951415379857 L 810.5 424.95141537985705 L 811.5 423.40386135255375 L 811.5 423.4038613525538 L 812.5 421.8795450061047 L 812.5 421.8795450061047 L 813.5 420.3790760467243 L 813.5 420.3790760467244 L 814.5 418.90305464199054 L 814.5 418.9030546419906 L 815.5 417.4520711807851 L 815.5 417.45207118078514 L 816.5 416.0267060371464 L 816.5 416.0267060371464 L 817.5 414.62752933812715 L 817.5 414.6275293381272 L 818.5 413.25510073575174 L 818.5 413.25510073575174 L 819.5 411.909969183162 L 819.5 411.90996918316205 L 820.5 410.5926727150444 L 820.5 410.59267271504444 L 821.5 409.30373823242235 L 821.5 409.30373823242235 L 822.5 408.0436812919033 L 822.5 408.04368129190334 L 823.5 406.813005899463 L 823.5 406.81300589946306 L 824.5 405.6122043088496 L 824.5 405.6122043088496 L 825.5 404.44175682468887 L 825.5 404.44175682468887 L 826.5 403.3021316103687 L 826.5 403.3021316103687 L 827.5 402.19378450078005 L 827.5 402.19378450078005 L 828.5 401.11715881998896 L 828.5 401.11715881998896 L 829.5 400.072685203913 L 829.5 400.072685203913 L 830.5 399.06078142807235 L 830.5 399.06078142807235 L 831.5 398.0818522404856 L 831.5 398.08185224048566 L 832.5 397.1362891997755 L 832.5 397.1362891997755 L 833.5 396.224470518551 L 833.5 396.224470518551 L 834.5 395.3467609121272 L 834.5 395.3467609121272 L 835.5 394.50351145264403 L 835.5 394.50351145264403 L 836.5 393.695059428642 L 836.5 393.695059428642 L 837.5 392.9217282101517 L 837.5 392.9217282101517 L 838.5 392.18382711934936 L 838.5 392.1838271193494 L 839.5 391.48165130683293 L 839.5 391.48165130683293 L 840.5 390.81548163356507 L 840.5 390.81548163356507 L 841.5 390.18558455853304 L 841.5 390.18558455853304 L 842.5 389.5922120321683 L 842.5 389.5922120321683 L 843.5 389.03560139556976 L 843.5 389.03560139556976 L 844.5 388.51597528557085 L 844.5 388.5159752855709 L 845.5 388.0335415456872 L 845.5 388.0335415456873 L 846.5 387.58849314298254 L 846.5 387.58849314298254 L 847.5 387.1810080908839 L 847.5 387.1810080908839 L 848.5 386.8112493779791 L 848.5 386.81124937797915 L 849.5 386.4793649028233 L 849.5 386.4793649028233 L 850.5 386.18548741478145 L 850.5 386.1854874147815 L 851.5 385.92973446093043 L 851.5 385.9297344609305 L 852.5 385.71220833904187 L 852.5 385.7122083390419 L 853.5 385.53299605666416 L 853.5 385.53299605666416 L 854.5 385.3921692963208 L 854.5 385.3921692963208 L 855.5 385.2897843868382 L 855.5 385.2897843868382 L 856.5 385.22588228081514 L 856.5 385.2258822808152 L 857.5 385.200488538242 L 857.5 385.21361331627713 L 858.5 385.2 L 858.5 385.21361331627713 L 859.5 385.26525136518444 L 859.5 385.2652513651844 L 860.5 385.35538203043274 L 860.5 385.3553820304327 L 861.5 385.48396926095774 L 861.5 385.4839692609577 L 862.5 385.6509616235817 L 862.5 385.6509616235817 L 863.5 385.85629232358605 L 863.5 385.856292323586 L 864.5 386.09987923142853 L 864.5 386.09987923142853 L 865.5 386.3816249155938 L 865.5 386.3816249155938 L 866.5 386.7014166815648 L 866.5 386.7014166815648 L 867.5 387.0591266168989 L 867.5 387.0591266168989 L 868.5 387.45461164239134 L 868.5 387.45461164239134 L 869.5 387.88771356930505 L 869.5 387.887713569305 L 870.5 388.3582591626439 L 870.5 388.35825916264383 L 871.5 388.8660602104443 L 871.5 388.8660602104443 L 872.5 389.41091359905784 L 872.5 389.4109135990578 L 873.5 389.9926013943936 L 873.5 389.99260139439355 L 874.5 390.61089092908924 L 874.5 390.61089092908924 L 875.5 391.26553489557466 L 875.5 391.2655348955746 L 876.5 391.95627144499167 L 876.5 391.9562714449916 L 877.5 392.68282429193016 L 877.5 392.68282429193016 L 878.5 393.4449028249387 L 878.5 393.4449028249387 L 879.5 394.24220222276494 L 879.5 394.24220222276494 L 880.5 395.07440357628036 L 880.5 395.07440357628036 L 881.5 395.94117401603927 L 881.5 395.94117401603927 L 882.5 396.8421668454227 L 882.5 396.84216684542264 L 883.5 397.7770216793118 L 883.5 397.7770216793118 L 884.5 398.74536458823775 L 884.5 398.74536458823775 L 885.5 399.74680824794797 L 885.5 399.7468082479479 L 886.5 400.7809520943309 L 886.5 400.7809520943309 L 887.5 401.84738248363664 L 887.5 401.8473824836366 L 888.5 402.94567285792806 L 888.5 402.945672857928 L 889.5 404.0753839156993 L 889.5 404.07538391569926 L 890.5 405.2360637875898 L 890.5 405.2360637875897 L 891.5 406.42724821712636 L 891.5 406.42724821712636 L 892.5 407.64846074641935 L 892.5 407.64846074641935 L 893.5 408.89921290673976 L 893.5 408.8992129067397 L 894.5 410.1790044138998 L 894.5 410.17900441389975 L 895.5 411.4873233683604 L 895.5 411.4873233683604 L 896.5 412.82364645998376 L 896.5 412.82364645998376 L 897.5 414.18743917735065 L 897.5 414.1874391773506 L 898.5 415.5781560215577 L 898.5 415.5781560215577 L 899.5 416.99524072441 L 899.5 416.99524072440994 L 900.5 418.43812647092045 L 900.5 418.4381264709204 L 901.5 419.90623612602883 L 901.5 419.90623612602883 L 902.5 421.3989824654475 L 902.5 421.3989824654475 L 903.5 422.9157684105439 L 903.5 422.9157684105438 L 904.5 424.45598726716327 L 904.5 424.4559872671632 L 905.5 426.01902296829917 L 905.5 426.0190229682991 L 906.5 427.60425032051114 L 906.5 427.60425032051114 L 907.5 429.21103525399457 L 907.5 429.2110352539945 L 908.5 430.8387350761995 L 908.5 430.8387350761995 L 909.5 432.4866987288994 L 909.5 432.4866987288994 L 910.5 434.15426704860585 L 910.5 434.1542670486058 L 911.5 435.84077303022474 L 911.5 435.8407730302247 L 912.5 437.54554209385003 L 912.5 437.54554209385003 L 913.5 439.2678923545861 L 913.5 439.2678923545861 L 914.5 441.0071348952931 L 914.5 441.0071348952931 L 915.5 442.7625740421443 L 915.5 442.7625740421443 L 916.5 444.5335076428866 L 916.5 444.53350764288655 L 917.5 446.31922734769165 L 917.5 446.3192273476916 L 918.5 448.11901889248696 L 918.5 448.11901889248696 L 919.5 449.9321623846514 L 919.5 449.9321623846514 L 920.5 451.7579325909632 L 920.5 451.75793259096315 L 921.5 453.5955992276829 L 921.5 453.5955992276829 L 922.5 455.4444272526579 L 922.5 455.4444272526579 L 923.5 457.30367715932874 L 923.5 457.3036771593287 L 924.5 459.17260527252256 L 924.5 459.17260527252256 L 925.5 461.0504640459127 L 925.5 461.0504640459127 L 926.5 462.93650236102775 L 926.5 462.9365023610277 L 927.5 464.8299658276882 L 927.5 464.8299658276882 L 928.5 466.7300970857535 L 928.5 466.7300970857535 L 929.5 468.63613610805515 L 929.5 468.63613610805515 L 930.5 470.5473205043976 L 930.5 470.5473205043976 L 931.5 472.4628858265046 L 931.5 472.4628858265046 L 932.5 474.38206587378767 L 932.5 474.38206587378767 L 933.5 476.30409299981676 L 933.5 476.30409299981676 L 934.5 478.228198419368 L 934.5 478.228198419368 L 935.5 480.15361251592816 L 935.5 480.15361251592816 L 936.5 482.07956514953025 L 936.5 482.07956514953025 L 937.5 484.00528596480007 L 937.5 484.00528596480007 L 938.5 485.93000469908725 L 938.5 485.93000469908725 L 939.5 487.8529514905608 L 939.5 487.8529514905608 L 940.5 489.77335718614296 L 940.5 489.77335718614296 L 941.5 491.6904536491607 L 941.5 491.6904536491607 L 942.5 493.60347406658957 L 942.5 493.60347406658957 L 943.5 495.51165325576943 L 943.5 495.51165325576943 L 944.5 497.4142279704665 L 944.5 497.4142279704665 L 945.5 499.3104372061622 L 945.5 499.3104372061622 L 946.5 501.19952250444476 L 946.5 501.19952250444476 L 947.5 503.0807282563823 L 947.5 503.0807282563823 L 948.5 504.9533020047567 L 948.5 504.9533020047567 L 949.5 506.8164947450356 L 949.5 506.8164947450355 L 950.5 508.66956122496515 L 950.5 508.66956122496515 L 951.5 510.5117602426608 L 951.5 510.5117602426607 L 952.5 512.3423549430776 L 952.5 512.3423549430776 L 953.5 514.1606131127432 L 953.5 514.1606131127432 L 954.5 515.9658074726327 L 954.5 515.9658074726327 L 955.5 517.7572159690711 L 955.5 517.7572159690711 L 956.5 519.5341220625451 L 956.5 519.534122062545 L 957.5 521.2958150143089 L 957.5 521.2958150143089 L 958.5 523.0415901706707 L 958.5 523.0415901706706 L 959.5 524.7707492448446 L 959.5 524.7707492448446 L 960.5 526.4826005962564 L 960.5 526.4826005962564 L 961.5 528.1764595071896 L 961.5 528.1764595071896 L 962.5 529.8516484566645 L 962.5 529.8516484566645 L 963.5 531.5074973914367 L 963.5 531.5074973914367 L 964.5 533.14334399401 L 964.5 533.14334399401 L 965.5 534.7585339475547 L 965.5 534.7585339475547 L 966.5 536.3524211976245 L 966.5 536.3524211976245 L 967.5 537.9243682105712 L 967.5 537.9243682105712 L 968.5 539.4737462285484 L 968.5 539.4737462285484 L 969.5 540.9999355210074 L 969.5 540.9999355210074 L 970.5 542.5023256325796 L 970.5 542.5023256325796 L 971.5 543.9803156272525 L 971.5 543.9803156272525 L 972.5 545.4333143287341 L 972.5 545.4333143287341 L 973.5 546.8607405569171 L 973.5 546.8607405569171 L 974.5 548.2620233603424 L 974.5 548.2620233603424 L 975.5 549.6366022445718 L 975.5 549.6366022445718 L 976.5 550.9839273963794 L 976.5 550.9839273963793 L 977.5 552.3034599036683 L 977.5 552.3034599036683 L 978.5 553.5946719710295 L 978.5 553.5946719710295 L 979.5 554.8570471308517 L 979.5 554.8570471308516 L 980.5 556.0900804499024 L 980.5 556.0900804499024 L 981.5 557.2932787312943 L 981.5 557.2932787312943 L 982.5 558.4661607117573 L 982.5 558.4661607117573 L 983.5 559.6082572541374 L 983.5 559.6082572541374 L 984.5 560.7191115350454 L 984.5 560.7191115350453 L 985.5 561.79827922758 L 985.5 561.79827922758 L 986.5 562.8453286790532 L 986.5 562.8453286790532 L 987.5 563.8598410836446 L 987.5 563.8598410836445 L 988.5 564.841410649919 L 988.5 564.841410649919 L 989.5 565.7896447631375 L 989.5 565.7896447631375 L 990.5 566.7041641422978 L 990.5 566.7041641422978 L 991.5 567.5846029918415 L 991.5 567.5846029918415 L 992.5 568.4306091479679 L 992.5 568.4306091479679 L 993.5 569.2418442194944 L 993.5 569.2418442194943 L 994.5 570.0179837232087 L 994.5 570.0179837232087 L 995.5 570.7587172136579 L 995.5 570.7587172136579 L 996.5 571.4637484073219 L 996.5 571.4637484073219 L 997.5 572.1327953011236 L 997.5 572.1327953011236 L 998.5 572.765590285226 L 998.5 572.765590285226 L 999.5 573.3618802500728 L 999.5 573.3618802500728 L 1000.5 573.9214266876281 L 1000.5 573.9214266876281 L 1001.5 574.4440057867777 L 1001.5 574.4440057867777 L 1002.5 574.9294085228495 L 1002.5 574.9294085228495 L 1003.5 575.377440741221 L 1003.5 575.3774407412209 L 1004.5 575.7879232349785 L 1004.5 575.7879232349784 L 1005.5 576.1606918165975 L 1005.5 576.1606918165975 L 1006.5 576.4955973836156 L 1006.5 576.4955973836156 L 1007.5 576.7925059782715 L 1007.5 576.7925059782714 L 1008.5 577.0512988410857 L 1008.5 577.0512988410857 L 1009.5 577.2718724583639 L 1009.5 577.2718724583639 L 1010.5 577.4541386036 L 1010.5 577.4541386036 L 1011.5 577.5980243727661 L 1011.5 577.5980243727661 L 1012.5 577.703472213473 L 1012.5 577.703472213473 L 1013.5 577.7704399479904 L 1013.5 577.7704399479903 L 1014.5 577.7989007901174 L 1014.5 577.7888433558965 L 1015.5 577.8 L 1015.5 577.7888433558965 L 1016.5 577.7402716681673 L 1016.5 577.7402716681673 L 1017.5 577.6532051549575 L 1017.5 577.6532051549575 L 1018.5 577.5276786417112 L 1018.5 577.5276786417113 L 1019.5 577.3637423373603 L 1019.5 577.3637423373603 L 1020.5 577.1614618142406 L 1020.5 577.1614618142406 L 1021.5 576.9209179818645 L 1021.5 576.9209179818645 L 1022.5 576.6422070545574 L 1022.5 576.6422070545575 L 1023.5 576.3254405129744 L 1023.5 576.3254405129744 L 1024.5 575.9707450595085 L 1024.5 575.9707450595085 L 1025.5 575.5782625676121 L 1025.5 575.5782625676121 L 1026.5 575.1481500250486 L 1026.5 575.1481500250487 L 1027.5 574.6805794711006 L 1027.5 574.6805794711006 L 1028.5 574.1757379277551 L 1028.5 574.1757379277552 L 1029.5 573.6338273248987 L 1029.5 573.6338273248987 L 1030.5 573.055064419547 L 1030.5 573.055064419547 L 1031.5 572.4396807091453 L 1031.5 572.4396807091454 L 1032.5 571.7879223389729 L 1032.5 571.7879223389729 L 1033.5 571.1000500036878 L 1033.5 571.1000500036878 L 1034.5 570.3763388430526 L 1034.5 570.3763388430526 L 1035.5 569.6170783318823 L 1035.5 569.6170783318823 L 1036.5 568.822572164258 L 1036.5 568.822572164258 L 1037.5 567.9931381320532 L 1037.5 567.9931381320533 L 1038.5 567.1291079978223 L 1038.5 567.1291079978223 L 1039.5 566.2308273620984 L 1039.5 566.2308273620985 L 1040.5 565.298655525159 L 1040.5 565.298655525159 L 1041.5 564.33296534331 L 1041.5 564.33296534331 L 1042.5 563.3341430797484 L 1042.5 563.3341430797485 L 1043.5 562.3025882500624 L 1043.5 562.3025882500624 L 1044.5 561.2387134624298 L 1044.5 561.2387134624299 L 1045.5 560.142944252581 L 1045.5 560.142944252581 L 1046.5 559.0157189135896 L 1046.5 559.0157189135896 L 1047.5 557.857488320562 L 1047.5 557.8574883205621 L 1048.5 556.6687157502924 L 1048.5 556.6687157502924 L 1049.5 555.4498766959589 L 1049.5 555.4498766959589 L 1050.5 554.2014586769322 L 1050.5 554.2014586769322 L 1051.5 552.9239610437746 L 1051.5 552.9239610437746 L 1052.5 551.6178947785064 L 1052.5 551.6178947785064 L 1053.5 550.2837822902193 L 1053.5 550.2837822902194 L 1054.5 548.9221572061213 L 1054.5 548.9221572061213 L 1055.5 547.5335641580907 L 1055.5 547.5335641580908 L 1056.5 546.1185585648328 L 1056.5 546.1185585648329 L 1057.5 544.6777064097183 L 1057.5 544.6777064097183 L 1058.5 543.2115840143979 L 1058.5 543.211584014398 L 1059.5 541.720777808282 L 1059.5 541.7207778082822 L 1060.5 540.2058840939759 L 1060.5 540.2058840939759 L 1061.5 538.6675088087668 L 1061.5 538.6675088087669 L 1062.5 537.1062672822574 L 1062.5 537.1062672822575 L 1063.5 535.5227839902423 L 1063.5 535.5227839902423 L 1064.5 533.9176923049251 L 1064.5 533.9176923049251 L 1065.5 532.2916342415793 L 1065.5 532.2916342415793 L 1066.5 530.6452602017495 L 1066.5 530.6452602017495 L 1067.5 528.9792287131005 L 1067.5 528.9792287131005 L 1068.5 527.2942061660142 L 1068.5 527.2942061660142 L 1069.5 525.5908665470428 L 1069.5 525.5908665470428 L 1070.5 523.8698911693227 L 1070.5 523.8698911693227 L 1071.5 522.1319684000596 L 1071.5 522.1319684000596 L 1072.5 520.3777933851886 L 1072.5 520.3777933851886 L 1073.5 518.6080677713273 L 1073.5 518.6080677713273 L 1074.5 516.823499425125 L 1074.5 516.823499425125 L 1075.5 515.0248021501264 L 1075.5 515.0248021501264 L 1076.5 513.2126954012592 L 1076.5 513.2126954012592 L 1077.5 511.3879039970618 L 1077.5 511.38790399706187 L 1078.5 509.5511578297657 L 1078.5 509.5511578297657 L 1079.5 507.7031915733479 L 1079.5 507.70319157334797 L 1080.5 505.8447443896722 L 1080.5 505.84474438967226 L 1081.5 503.9765596328329 L 1081.5 503.97655963283296 L 1082.5 502.09938455182396 L 1082.5 502.09938455182396 L 1083.5 500.21396999164887 L 1083.5 500.21396999164887 L 1084.5 498.3210700929936 L 1084.5 498.3210700929936 L 1085.5 496.421441990579 L 1085.5 496.421441990579 L 1086.5 494.5158455103182 L 1086.5 494.5158455103182 L 1087.5 492.60504286539526" stroke-opacity="0.8" stroke-linecap="round" stroke-linejoin="round" stroke-miterlimit="10" stroke-width="5"/><g transform="scale(27,27)"><g transform="translate(1.3703703703703705,16.89814814814815)"><path fill="rgb(21,101,192)" stroke="none" paint-order="stroke fill markers" d=" M 0.359 -0.386 Q 0.323 -0.423 0.252 -0.423 Q 0.189 -0.423 0.151 -0.363 Q 0.117 -0.309 0.117 -0.218 Q 0.117 -0.074 0.203 -0.029 Q 0.23 -0.014 0.258 -0.014 Q 0.356 -0.014 0.389 -0.11900000000000001 Q 0.392 -0.129 0.402 -0.129 Q 0.41500000000000004 -0.129 0.41500000000000004 -0.11900000000000001 Q 0.41500000000000004 -0.1 0.393 -0.065 Q 0.34400000000000003 0.011 0.249 0.011 Q 0.155 0.011 0.09 -0.063 Q 0.034 -0.128 0.034 -0.216 Q 0.034 -0.319 0.105 -0.388 Q 0.166 -0.448 0.251 -0.448 Q 0.334 -0.448 0.378 -0.403 Q 0.404 -0.376 0.404 -0.341 Q 0.404 -0.303 0.371 -0.295 Q 0.365 -0.294 0.358 -0.294 Q 0.323 -0.294 0.314 -0.326 Q 0.312 -0.332 0.312 -0.34 Q 0.312 -0.376 0.34700000000000003 -0.384 Q 0.353 -0.386 0.359 -0.386 Z"/></g><g transform="translate(1.8143703703703704,16.89814814814815)"><path fill="rgb(21,101,192)" stroke="none" paint-order="stroke fill markers" d=" M 0.47100000000000003 -0.214 L 0.47100000000000003 -0.214 Q 0.47100000000000003 -0.111 0.395 -0.044 Q 0.332 0.011 0.249 0.011 Q 0.153 0.011 0.08700000000000001 -0.061 Q 0.028 -0.126 0.028 -0.214 Q 0.028 -0.316 0.101 -0.386 Q 0.164 -0.448 0.25 -0.448 Q 0.34700000000000003 -0.448 0.41300000000000003 -0.371 Q 0.47100000000000003 -0.304 0.47100000000000003 -0.214 M 0.25 -0.014 L 0.25 -0.014 Q 0.317 -0.014 0.356 -0.07 L 0.366 -0.088 Q 0.388 -0.132 0.388 -0.222 Q 0.388 -0.318 0.362 -0.361 Q 0.319 -0.423 0.249 -0.426 Q 0.187 -0.426 0.147 -0.376 Q 0.14 -0.368 0.135 -0.359 Q 0.111 -0.315 0.111 -0.222 Q 0.111 -0.125 0.136 -0.081 Q 0.178 -0.016 0.25 -0.014 Z"/></g><g transform="translate(2.31437037037037,16.89814814814815)"><path fill="rgb(21,101,192)" stroke="none" paint-order="stroke fill markers" d=" M 0.20800000000000002 -0.194 L 0.20800000000000002 -0.194 Q 0.122 -0.211 0.095 -0.227 Q 0.085 -0.232 0.076 -0.24 Q 0.033 -0.275 0.033 -0.325 Q 0.033 -0.395 0.095 -0.427 Q 0.134 -0.448 0.193 -0.448 Q 0.249 -0.448 0.28700000000000003 -0.42 Q 0.298 -0.429 0.304 -0.436 Q 0.317 -0.448 0.324 -0.448 Q 0.334 -0.439 0.335 -0.424 L 0.335 -0.323 Q 0.335 -0.302 0.329 -0.3 L 0.328 -0.3 L 0.327 -0.299 L 0.322 -0.299 Q 0.311 -0.299 0.31 -0.308 Q 0.303 -0.40900000000000003 0.227 -0.426 Q 0.211 -0.429 0.193 -0.429 Q 0.099 -0.429 0.083 -0.371 Q 0.081 -0.362 0.081 -0.353 Q 0.081 -0.302 0.158 -0.281 Q 0.17300000000000001 -0.277 0.20400000000000001 -0.271 Q 0.276 -0.257 0.307 -0.232 Q 0.313 -0.228 0.318 -0.223 Q 0.36 -0.181 0.36 -0.128 Q 0.36 -0.043000000000000003 0.29 -0.008 Q 0.252 0.011 0.199 0.011 Q 0.134 0.011 0.089 -0.032 L 0.069 -0.009000000000000001 Q 0.049 0.011 0.044 0.011 Q 0.034 0.002 0.033 -0.013000000000000001 L 0.033 -0.145 Q 0.033 -0.167 0.04 -0.169 L 0.04 -0.169 L 0.041 -0.17 L 0.046 -0.17 Q 0.056 -0.17 0.059000000000000004 -0.159 Q 0.059000000000000004 -0.157 0.06 -0.153 Q 0.08600000000000001 -0.037 0.159 -0.016 Q 0.177 -0.011 0.199 -0.011 Q 0.289 -0.011 0.308 -0.074 Q 0.312 -0.08700000000000001 0.312 -0.10200000000000001 Q 0.312 -0.17500000000000002 0.20800000000000002 -0.194 Z"/></g><g transform="translate(2.7083703703703703,16.89814814814815)"><path fill="rgb(21,101,192)" stroke="none" paint-order="stroke fill markers" d=" M 0.331 0.24 L 0.331 0.24 Q 0.331 0.25 0.321 0.25 Q 0.309 0.25 0.268 0.209 Q 0.20600000000000002 0.147 0.165 0.062 Q 0.099 -0.074 0.099 -0.25 Q 0.099 -0.419 0.162 -0.555 Q 0.214 -0.666 0.294 -0.733 Q 0.315 -0.75 0.321 -0.75 Q 0.331 -0.75 0.331 -0.74 Q 0.331 -0.735 0.318 -0.723 Q 0.157 -0.559 0.157 -0.25 Q 0.157 0.058 0.314 0.218 Q 0.331 0.23500000000000001 0.331 0.24 Z"/></g><g transform="translate(3.0973703703703706,16.89814814814815)"><path fill="rgb(21,101,192)" stroke="none" paint-order="stroke fill markers" d=" M 0.334 -0.302 L 0.3 -0.165 Q 0.28300000000000003 -0.097 0.28300000000000003 -0.077 Q 0.28300000000000003 -0.025 0.32 -0.014 Q 0.328 -0.011 0.338 -0.011 Q 0.388 -0.011 0.429 -0.061 Q 0.456 -0.093 0.47100000000000003 -0.14200000000000002 Q 0.47400000000000003 -0.153 0.484 -0.153 Q 0.496 -0.153 0.496 -0.14300000000000002 Q 0.496 -0.11800000000000001 0.465 -0.07100000000000001 Q 0.41100000000000003 0.011 0.336 0.011 Q 0.268 0.011 0.23700000000000002 -0.046 Q 0.231 -0.055 0.228 -0.065 Q 0.20400000000000001 -0.017 0.162 0.002 Q 0.14300000000000002 0.011 0.123 0.011 Q 0.063 0.011 0.039 -0.024 Q 0.029 -0.037 0.029 -0.055 Q 0.029 -0.092 0.061 -0.107 Q 0.07200000000000001 -0.113 0.084 -0.113 Q 0.114 -0.113 0.12 -0.088 Q 0.121 -0.083 0.121 -0.078 Q 0.121 -0.044 0.08700000000000001 -0.028 Q 0.081 -0.025 0.074 -0.024 Q 0.095 -0.011 0.124 -0.011 Q 0.177 -0.011 0.20800000000000002 -0.082 Q 0.214 -0.097 0.219 -0.115 Q 0.273 -0.319 0.273 -0.353 Q 0.267 -0.41500000000000004 0.219 -0.42 Q 0.167 -0.42 0.124 -0.367 L 0.124 -0.366 Q 0.124 -0.365 0.123 -0.365 Q 0.108 -0.34500000000000003 0.096 -0.319 Q 0.091 -0.307 0.08700000000000001 -0.295 L 0.085 -0.289 Q 0.083 -0.278 0.07200000000000001 -0.278 Q 0.06 -0.278 0.06 -0.28800000000000003 Q 0.06 -0.313 0.092 -0.36 Q 0.146 -0.442 0.221 -0.442 Q 0.298 -0.442 0.329 -0.366 Q 0.361 -0.428 0.41400000000000003 -0.44 Q 0.424 -0.442 0.434 -0.442 Q 0.493 -0.442 0.517 -0.40900000000000003 Q 0.527 -0.395 0.527 -0.376 Q 0.527 -0.335 0.49 -0.321 Q 0.481 -0.318 0.47300000000000003 -0.318 Q 0.442 -0.318 0.436 -0.34500000000000003 Q 0.435 -0.34900000000000003 0.435 -0.353 Q 0.435 -0.383 0.464 -0.4 Q 0.47300000000000003 -0.405 0.483 -0.40700000000000003 Q 0.462 -0.42 0.433 -0.42 Q 0.365 -0.42 0.337 -0.314 Q 0.335 -0.308 0.334 -0.302 Z"/></g><g transform="translate(3.6693703703703706,16.89814814814815)"><path fill="rgb(21,101,192)" stroke="none" paint-order="stroke fill markers" d=" M 0.289 -0.25 L 0.289 -0.25 Q 0.289 -0.081 0.226 0.055 Q 0.17400000000000002 0.166 0.094 0.233 Q 0.073 0.25 0.067 0.25 Q 0.057 0.25 0.057 0.24 Q 0.057 0.23500000000000001 0.07 0.223 Q 0.231 0.059000000000000004 0.231 -0.25 Q 0.231 -0.555 0.081 -0.712 L 0.076 -0.717 Q 0.057 -0.735 0.057 -0.74 Q 0.057 -0.75 0.067 -0.75 Q 0.079 -0.75 0.12 -0.709 Q 0.182 -0.647 0.223 -0.562 Q 0.289 -0.426 0.289 -0.25 Z"/></g></g></g></g></svg>