<svg version="1.1" xmlns="http://www.w3.org/2000/svg" xmlns:xlink="http://www.w3.org/1999/xlink" width="1087" height="963"><defs><clipPath id="cTPTArDmhiiP"><path fill="none" stroke="none" d=" M 0 0 L 1087 0 L 1087 963 L 0 963 L 0 0 Z"/></clipPath></defs><g transform="scale(1,1)" clip-path="url(#cTPTArDmhiiP)"><g><rect fill="rgb(255,255,255)" stroke="none" x="0" y="0" width="1087" height="963" fill-opacity="1"/><path fill="none" stroke="rgb(192,192,192)" paint-order="fill stroke markers" d=" M 72.5 0.5 L 72.5 963.5 M 72.5 0.5 L 72.5 963.5 M 150.5 0.5 L 150.5 963.5 M 229.5 0.5 L 229.5 963.5 M 307.5 0.5 L 307.5 963.5 M 386.5 0.5 L 386.5 963.5 M 464.5 0.5 L 464.5 963.5 M 622.5 0.5 L 622.5 963.5 M 700.5 0.5 L 700.5 963.5 M 779.5 0.5 L 779.5 963.5 M 857.5 0.5 L 857.5 963.5 M 936.5 0.5 L 936.5 963.5 M 1014.5 0.5 L 1014.5 963.5" stroke-opacity="1" stroke-linecap="round" stroke-linejoin="round" stroke-miterlimit="10"/><path fill="none" stroke="rgb(192,192,192)" paint-order="fill stroke markers" d=" M 9.5 0.5 L 9.5 963.5 M 25.5 0.5 L 25.5 963.5 M 40.5 0.5 L 40.5 963.5 M 56.5 0.5 L 56.5 963.5 M 87.5 0.5 L 87.5 963.5 M 103.5 0.5 L 103.5 963.5 M 119.5 0.5 L 119.5 963.5 M 135.5 0.5 L 135.5 963.5 M 166.5 0.5 L 166.5 963.5 M 182.5 0.5 L 182.5 963.5 M 197.5 0.5 L 197.5 963.5 M 213.5 0.5 L 213.5 963.5 M 245.5 0.5 L 245.5 963.5 M 260.5 0.5 L 260.5 963.5 M 276.5 0.5 L 276.5 963.5 M 292.5 0.5 L 292.5 963.5 M 323.5 0.5 L 323.5 963.5 M 339.5 0.5 L 339.5 963.5 M 355.5 0.5 L 355.5 963.5 M 370.5 0.5 L 370.5 963.5 M 402.5 0.5 L 402.5 963.5 M 417.5 0.5 L 417.5 963.5 M 433.5 0.5 L 433.5 963.5 M 449.5 0.5 L 449.5 963.5 M 480.5 0.5 L 480.5 963.5 M 496.5 0.5 L 496.5 963.5 M 512.5 0.5 L 512.5 963.5 M 527.5 0.5 L 527.5 963.5 M 559.5 0.5 L 559.5 963.5 M 574.5 0.5 L 574.5 963.5 M 590.5 0.5 L 590.5 963.5 M 606.5 0.5 L 606.5 963.5 M 637.5 0.5 L 637.5 963.5 M 653.5 0.5 L 653.5 963.5 M 669.5 0.5 L 669.5 963.5 M 684.5 0.5 L 684.5 963.5 M 716.5 0.5 L 716.5 963.5 M 731.5 0.5 L 731.5 963.5 M 747.5 0.5 L 747.5 963.5 M 763.5 0.5 L 763.5 963.5 M 794.5 0.5 L 794.5 963.5 M 810.5 0.5 L 810.5 963.5 M 826.5 0.5 L 826.5 963.5 M 841.5 0.5 L 841.5 963.5 M 873.5 0.5 L 873.5 963.5 M 889.5 0.5 L 889.5 963.5 M 904.5 0.5 L 904.5 963.5 M 920.5 0.5 L 920.5 963.5 M 951.5 0.5 L 951.5 963.5 M 967.5 0.5 L 967.5 963.5 M 983.5 0.5 L 983.5 963.5 M 999.5 0.5 L 999.5 963.5 M 1030.5 0.5 L 1030.5 963.5 M 1046.5 0.5 L 1046.5 963.5 M 1061.5 0.5 L 1061.5 963.5 M 1077.5 0.5 L 1077.5 963.5" stroke-opacity="0.23529411764705882" stroke-linecap="round" stroke-linejoin="round" stroke-miterlimit="10"/><path fill="none" stroke="rgb(192,192,192)" paint-order="fill stroke markers" d=" M 0.5 27.5 L 1087.5 27.5 M 0.5 27.5 L 1087.5 27.5 M 0.5 178.5 L 1087.5 178.5 M 0.5 330.5 L 1087.5 330.5 M 0.5 632.5 L 1087.5 632.5 M 0.5 784.5 L 1087.5 784.5 M 0.5 935.5 L 1087.5 935.5" stroke-opacity="1" stroke-linecap="round" stroke-linejoin="round" stroke-miterlimit="10"/><path fill="none" stroke="rgb(192,192,192)" paint-order="fill stroke markers" d=" M 0.5 27.5 L 1087.5 27.5 M 0.5 57.5 L 1087.5 57.5 M 0.5 88.5 L 1087.5 88.5 M 0.5 118.5 L 1087.5 118.5 M 0.5 148.5 L 1087.5 148.5 M 0.5 209.5 L 1087.5 209.5 M 0.5 239.5 L 1087.5 239.5 M 0.5 269.5 L 1087.5 269.5 M 0.5 299.5 L 1087.5 299.5 M 0.5 360.5 L 1087.5 360.5 M 0.5 390.5 L 1087.5 390.5 M 0.5 420.5 L 1087.5 420.5 M 0.5 451.5 L 1087.5 451.5 M 0.5 511.5 L 1087.5 511.5 M 0.5 542.5 L 1087.5 542.5 M 0.5 572.5 L 1087.5 572.5 M 0.5 602.5 L 1087.5 602.5 M 0.5 663.5 L 1087.5 663.5 M 0.5 693.5 L 1087.5 693.5 M 0.5 723.5 L 1087.5 723.5 M 0.5 753.5 L 1087.5 753.5 M 0.5 814.5 L 1087.5 814.5 M 0.5 844.5 L 1087.5 844.5 M 0.5 874.5 L 1087.5 874.5 M 0.5 905.5 L 1087.5 905.5" stroke-opacity="0.23529411764705882" stroke-linecap="round" stroke-linejoin="round" stroke-miterlimit="10"/><path fill="none" stroke="rgb(37,37,37)" paint-order="fill stroke markers" d=" M 543.5 2.5 L 543.5 963.5" stroke-opacity="1" stroke-miterlimit="10"/><path fill="none" stroke="rgb(37,37,37)" paint-order="fill stroke markers" d=" M 543.5 1.5 L 537.5 7.5" stroke-opacity="1" stroke-miterlimit="10"/><path fill="none" stroke="rgb(37,37,37)" paint-order="fill stroke markers" d=" M 543.5 1.5 L 549.5 7.5" stroke-opacity="1" stroke-miterlimit="10"/><path fill="none" stroke="rgb(37,37,37)" paint-order="fill stroke markers" d=" M 0.5 481.5 L 1085.5 481.5" stroke-opacity="1" stroke-miterlimit="10"/><path fill="none" stroke="rgb(37,37,37)" paint-order="fill stroke markers" d=" M 1086.5 481.5 L 1080.5 475.5" stroke-opacity="1" stroke-miterlimit="10"/><path fill="none" stroke="rgb(37,37,37)" paint-order="fill stroke markers" d=" M 1086.5 481.5 L 1080.5 487.5" stroke-opacity="1" stroke-miterlimit="10"/><text fill="rgb(37,37,37)" stroke="none" font-family="geogebra-sans-serif, sans-serif" font-size="18px" font-style="normal" font-weight="normal" text-decoration="normal" x="59" y="503" text-anchor="start" dominant-baseline="alphabetic" fill-opacity="1">–3π</text><text fill="none" stroke="rgb(255,255,255)" font-family="geogebra-sans-serif, sans-serif" font-size="18px" font-style="normal" font-weight="normal" text-decoration="normal" x="59" y="503" text-anchor="start" dominant-baseline="alphabetic" stroke-opacity="1" stroke-linejoin="bevel" stroke-miterlimit="10" stroke-width="3">–3π</text><text fill="rgb(37,37,37)" stroke="none" font-family="geogebra-sans-serif, sans-serif" font-size="18px" font-style="normal" font-weight="normal" text-decoration="normal" x="59" y="503" text-anchor="start" dominant-baseline="alphabetic" fill-opacity="1">–3π</text><text fill="rgb(37,37,37)" stroke="none" font-family="geogebra-sans-serif, sans-serif" font-size="18px" font-style="normal" font-weight="normal" text-decoration="normal" x="120" y="503" text-anchor="start" dominant-baseline="alphabetic" fill-opacity="1">–5π / 2</text><text fill="none" stroke="rgb(255,255,255)" font-family="geogebra-sans-serif, sans-serif" font-size="18px" font-style="normal" font-weight="normal" text-decoration="normal" x="120" y="503" text-anchor="start" dominant-baseline="alphabetic" stroke-opacity="1" stroke-linejoin="bevel" stroke-miterlimit="10" stroke-width="3">–5π / 2</text><text fill="rgb(37,37,37)" stroke="none" font-family="geogebra-sans-serif, sans-serif" font-size="18px" font-style="normal" font-weight="normal" text-decoration="normal" x="120" y="503" text-anchor="start" dominant-baseline="alphabetic" fill-opacity="1">–5π / 2</text><text fill="rgb(37,37,37)" stroke="none" font-family="geogebra-sans-serif, sans-serif" font-size="18px" font-style="normal" font-weight="normal" text-decoration="normal" x="216" y="503" text-anchor="start" dominant-baseline="alphabetic" fill-opacity="1">–2π</text><text fill="none" stroke="rgb(255,255,255)" font-family="geogebra-sans-serif, sans-serif" font-size="18px" font-style="normal" font-weight="normal" text-decoration="normal" x="216" y="503" text-anchor="start" dominant-baseline="alphabetic" stroke-opacity="1" stroke-linejoin="bevel" stroke-miterlimit="10" stroke-width="3">–2π</text><text fill="rgb(37,37,37)" stroke="none" font-family="geogebra-sans-serif, sans-serif" font-size="18px" font-style="normal" font-weight="normal" text-decoration="normal" x="216" y="503" text-anchor="start" dominant-baseline="alphabetic" fill-opacity="1">–2π</text><text fill="rgb(37,37,37)" stroke="none" font-family="geogebra-sans-serif, sans-serif" font-size="18px" font-style="normal" font-weight="normal" text-decoration="normal" x="277" y="503" text-anchor="start" dominant-baseline="alphabetic" fill-opacity="1">–3π / 2</text><text fill="none" stroke="rgb(255,255,255)" font-family="geogebra-sans-serif, sans-serif" font-size="18px" font-style="normal" font-weight="normal" text-decoration="normal" x="277" y="503" text-anchor="start" dominant-baseline="alphabetic" stroke-opacity="1" stroke-linejoin="bevel" stroke-miterlimit="10" stroke-width="3">–3π / 2</text><text fill="rgb(37,37,37)" stroke="none" font-family="geogebra-sans-serif, sans-serif" font-size="18px" font-style="normal" font-weight="normal" text-decoration="normal" x="277" y="503" text-anchor="start" dominant-baseline="alphabetic" fill-opacity="1">–3π / 2</text><text fill="rgb(37,37,37)" stroke="none" font-family="geogebra-sans-serif, sans-serif" font-size="18px" font-style="normal" font-weight="normal" text-decoration="normal" x="378" y="503" text-anchor="start" dominant-baseline="alphabetic" fill-opacity="1">–π</text><text fill="none" stroke="rgb(255,255,255)" font-family="geogebra-sans-serif, sans-serif" font-size="18px" font-style="normal" font-weight="normal" text-decoration="normal" x="378" y="503" text-anchor="start" dominant-baseline="alphabetic" stroke-opacity="1" stroke-linejoin="bevel" stroke-miterlimit="10" stroke-width="3">–π</text><text fill="rgb(37,37,37)" stroke="none" font-family="geogebra-sans-serif, sans-serif" font-size="18px" font-style="normal" font-weight="normal" text-decoration="normal" x="378" y="503" text-anchor="start" dominant-baseline="alphabetic" fill-opacity="1">–π</text><text fill="rgb(37,37,37)" stroke="none" font-family="geogebra-sans-serif, sans-serif" font-size="18px" font-style="normal" font-weight="normal" text-decoration="normal" x="438" y="503" text-anchor="start" dominant-baseline="alphabetic" fill-opacity="1">–π / 2</text><text fill="none" stroke="rgb(255,255,255)" font-family="geogebra-sans-serif, sans-serif" font-size="18px" font-style="normal" font-weight="normal" text-decoration="normal" x="438" y="503" text-anchor="start" dominant-baseline="alphabetic" stroke-opacity="1" stroke-linejoin="bevel" stroke-miterlimit="10" stroke-width="3">–π / 2</text><text fill="rgb(37,37,37)" stroke="none" font-family="geogebra-sans-serif, sans-serif" font-size="18px" font-style="normal" font-weight="normal" text-decoration="normal" x="438" y="503" text-anchor="start" dominant-baseline="alphabetic" fill-opacity="1">–π / 2</text><text fill="rgb(37,37,37)" stroke="none" font-family="geogebra-sans-serif, sans-serif" font-size="18px" font-style="normal" font-weight="normal" text-decoration="normal" x="600" y="503" text-anchor="start" dominant-baseline="alphabetic" fill-opacity="1">π / 2</text><text fill="none" stroke="rgb(255,255,255)" font-family="geogebra-sans-serif, sans-serif" font-size="18px" font-style="normal" font-weight="normal" text-decoration="normal" x="600" y="503" text-anchor="start" dominant-baseline="alphabetic" stroke-opacity="1" stroke-linejoin="bevel" stroke-miterlimit="10" stroke-width="3">π / 2</text><text fill="rgb(37,37,37)" stroke="none" font-family="geogebra-sans-serif, sans-serif" font-size="18px" font-style="normal" font-weight="normal" text-decoration="normal" x="600" y="503" text-anchor="start" dominant-baseline="alphabetic" fill-opacity="1">π / 2</text><text fill="rgb(37,37,37)" stroke="none" font-family="geogebra-sans-serif, sans-serif" font-size="18px" font-style="normal" font-weight="normal" text-decoration="normal" x="697" y="503" text-anchor="start" dominant-baseline="alphabetic" fill-opacity="1">π</text><text fill="none" stroke="rgb(255,255,255)" font-family="geogebra-sans-serif, sans-serif" font-size="18px" font-style="normal" font-weight="normal" text-decoration="normal" x="697" y="503" text-anchor="start" dominant-baseline="alphabetic" stroke-opacity="1" stroke-linejoin="bevel" stroke-miterlimit="10" stroke-width="3">π</text><text fill="rgb(37,37,37)" stroke="none" font-family="geogebra-sans-serif, sans-serif" font-size="18px" font-style="normal" font-weight="normal" text-decoration="normal" x="697" y="503" text-anchor="start" dominant-baseline="alphabetic" fill-opacity="1">π</text><text fill="rgb(37,37,37)" stroke="none" font-family="geogebra-sans-serif, sans-serif" font-size="18px" font-style="normal" font-weight="normal" text-decoration="normal" x="753" y="503" text-anchor="start" dominant-baseline="alphabetic" fill-opacity="1">3π / 2</text><text fill="none" stroke="rgb(255,255,255)" font-family="geogebra-sans-serif, sans-serif" font-size="18px" font-style="normal" font-weight="normal" text-decoration="normal" x="753" y="503" text-anchor="start" dominant-baseline="alphabetic" stroke-opacity="1" stroke-linejoin="bevel" stroke-miterlimit="10" stroke-width="3">3π / 2</text><text fill="rgb(37,37,37)" stroke="none" font-family="geogebra-sans-serif, sans-serif" font-size="18px" font-style="normal" font-weight="normal" text-decoration="normal" x="753" y="503" text-anchor="start" dominant-baseline="alphabetic" fill-opacity="1">3π / 2</text><text fill="rgb(37,37,37)" stroke="none" font-family="geogebra-sans-serif, sans-serif" font-size="18px" font-style="normal" font-weight="normal" text-decoration="normal" x="849" y="503" text-anchor="start" dominant-baseline="alphabetic" fill-opacity="1">2π</text><text fill="none" stroke="rgb(255,255,255)" font-family="geogebra-sans-serif, sans-serif" font-size="18px" font-style="normal" font-weight="normal" text-decoration="normal" x="849" y="503" text-anchor="start" dominant-baseline="alphabetic" stroke-opacity="1" stroke-linejoin="bevel" stroke-miterlimit="10" stroke-width="3">2π</text><text fill="rgb(37,37,37)" stroke="none" font-family="geogebra-sans-serif, sans-serif" font-size="18px" font-style="normal" font-weight="normal" text-decoration="normal" x="849" y="503" text-anchor="start" dominant-baseline="alphabetic" fill-opacity="1">2π</text><text fill="rgb(37,37,37)" stroke="none" font-family="geogebra-sans-serif, sans-serif" font-size="18px" font-style="normal" font-weight="normal" text-decoration="normal" x="910" y="503" text-anchor="start" dominant-baseline="alphabetic" fill-opacity="1">5π / 2</text><text fill="none" stroke="rgb(255,255,255)" font-family="geogebra-sans-serif, sans-serif" font-size="18px" font-style="normal" font-weight="normal" text-decoration="normal" x="910" y="503" text-anchor="start" dominant-baseline="alphabetic" stroke-opacity="1" stroke-linejoin="bevel" stroke-miterlimit="10" stroke-width="3">5π / 2</text><text fill="rgb(37,37,37)" stroke="none" font-family="geogebra-sans-serif, sans-serif" font-size="18px" font-style="normal" font-weight="normal" text-decoration="normal" x="910" y="503" text-anchor="start" dominant-baseline="alphabetic" fill-opacity="1">5π / 2</text><text fill="rgb(37,37,37)" stroke="none" font-family="geogebra-sans-serif, sans-serif" font-size="18px" font-style="normal" font-weight="normal" text-decoration="normal" x="1006" y="503" text-anchor="start" dominant-baseline="alphabetic" fill-opacity="1">3π</text><text fill="none" stroke="rgb(255,255,255)" font-family="geogebra-sans-serif, sans-serif" font-size="18px" font-style="normal" font-weight="normal" text-decoration="normal" x="1006" y="503" text-anchor="start" dominant-baseline="alphabetic" stroke-opacity="1" stroke-linejoin="bevel" stroke-miterlimit="10" stroke-width="3">3π</text><text fill="rgb(37,37,37)" stroke="none" font-family="geogebra-sans-serif, sans-serif" font-size="18px" font-style="normal" font-weight="normal" text-decoration="normal" x="1006" y="503" text-anchor="start" dominant-baseline="alphabetic" fill-opacity="1">3π</text><text fill="rgb(37,37,37)" stroke="none" font-family="geogebra-sans-serif, sans-serif" font-size="24px" font-style="normal" font-weight="normal" text-decoration="normal" x="548" y="23" text-anchor="start" dominant-baseline="alphabetic" fill-opacity="1">y</text><text fill="rgb(37,37,37)" stroke="none" font-family="geogebra-sans-serif, sans-serif" font-size="18px" font-style="normal" font-weight="normal" text-decoration="normal" x="478" y="943" text-anchor="start" dominant-baseline="alphabetic" fill-opacity="1">–3π / 2</text><text fill="none" stroke="rgb(255,255,255)" font-family="geogebra-sans-serif, sans-serif" font-size="18px" font-style="normal" font-weight="normal" text-decoration="normal" x="478" y="943" text-anchor="start" dominant-baseline="alphabetic" stroke-opacity="1" stroke-linejoin="bevel" stroke-miterlimit="10" stroke-width="3">–3π / 2</text><text fill="rgb(37,37,37)" stroke="none" font-family="geogebra-sans-serif, sans-serif" font-size="18px" font-style="normal" font-weight="normal" text-decoration="normal" x="478" y="943" text-anchor="start" dominant-baseline="alphabetic" fill-opacity="1">–3π / 2</text><text fill="rgb(37,37,37)" stroke="none" font-family="geogebra-sans-serif, sans-serif" font-size="18px" font-style="normal" font-weight="normal" text-decoration="normal" x="513" y="792" text-anchor="start" dominant-baseline="alphabetic" fill-opacity="1">–π</text><text fill="none" stroke="rgb(255,255,255)" font-family="geogebra-sans-serif, sans-serif" font-size="18px" font-style="normal" font-weight="normal" text-decoration="normal" x="513" y="792" text-anchor="start" dominant-baseline="alphabetic" stroke-opacity="1" stroke-linejoin="bevel" stroke-miterlimit="10" stroke-width="3">–π</text><text fill="rgb(37,37,37)" stroke="none" font-family="geogebra-sans-serif, sans-serif" font-size="18px" font-style="normal" font-weight="normal" text-decoration="normal" x="513" y="792" text-anchor="start" dominant-baseline="alphabetic" fill-opacity="1">–π</text><text fill="rgb(37,37,37)" stroke="none" font-family="geogebra-sans-serif, sans-serif" font-size="18px" font-style="normal" font-weight="normal" text-decoration="normal" x="488" y="640" text-anchor="start" dominant-baseline="alphabetic" fill-opacity="1">–π / 2</text><text fill="none" stroke="rgb(255,255,255)" font-family="geogebra-sans-serif, sans-serif" font-size="18px" font-style="normal" font-weight="normal" text-decoration="normal" x="488" y="640" text-anchor="start" dominant-baseline="alphabetic" stroke-opacity="1" stroke-linejoin="bevel" stroke-miterlimit="10" stroke-width="3">–π / 2</text><text fill="rgb(37,37,37)" stroke="none" font-family="geogebra-sans-serif, sans-serif" font-size="18px" font-style="normal" font-weight="normal" text-decoration="normal" x="488" y="640" text-anchor="start" dominant-baseline="alphabetic" fill-opacity="1">–π / 2</text><text fill="rgb(37,37,37)" stroke="none" font-family="geogebra-sans-serif, sans-serif" font-size="18px" font-style="normal" font-weight="normal" text-decoration="normal" x="498" y="338" text-anchor="start" dominant-baseline="alphabetic" fill-opacity="1">π / 2</text><text fill="none" stroke="rgb(255,255,255)" font-family="geogebra-sans-serif, sans-serif" font-size="18px" font-style="normal" font-weight="normal" text-decoration="normal" x="498" y="338" text-anchor="start" dominant-baseline="alphabetic" stroke-opacity="1" stroke-linejoin="bevel" stroke-miterlimit="10" stroke-width="3">π / 2</text><text fill="rgb(37,37,37)" stroke="none" font-family="geogebra-sans-serif, sans-serif" font-size="18px" font-style="normal" font-weight="normal" text-decoration="normal" x="498" y="338" text-anchor="start" dominant-baseline="alphabetic" fill-opacity="1">π / 2</text><text fill="rgb(37,37,37)" stroke="none" font-family="geogebra-sans-serif, sans-serif" font-size="18px" font-style="normal" font-weight="normal" text-decoration="normal" x="523" y="186" text-anchor="start" dominant-baseline="alphabetic" fill-opacity="1">π</text><text fill="none" stroke="rgb(255,255,255)" font-family="geogebra-sans-serif, sans-serif" font-size="18px" font-style="normal" font-weight="normal" text-decoration="normal" x="523" y="186" text-anchor="start" dominant-baseline="alphabetic" stroke-opacity="1" stroke-linejoin="bevel" stroke-miterlimit="10" stroke-width="3">π</text><text fill="rgb(37,37,37)" stroke="none" font-family="geogebra-sans-serif, sans-serif" font-size="18px" font-style="normal" font-weight="normal" text-decoration="normal" x="523" y="186" text-anchor="start" dominant-baseline="alphabetic" fill-opacity="1">π</text><text fill="rgb(37,37,37)" stroke="none" font-family="geogebra-sans-serif, sans-serif" font-size="18px" font-style="normal" font-weight="normal" text-decoration="normal" x="488" y="35" text-anchor="start" dominant-baseline="alphabetic" fill-opacity="1">3π / 2</text><text fill="none" stroke="rgb(255,255,255)" font-family="geogebra-sans-serif, sans-serif" font-size="18px" font-style="normal" font-weight="normal" text-decoration="normal" x="488" y="35" text-anchor="start" dominant-baseline="alphabetic" stroke-opacity="1" stroke-linejoin="bevel" stroke-miterlimit="10" stroke-width="3">3π / 2</text><text fill="rgb(37,37,37)" stroke="none" font-family="geogebra-sans-serif, sans-serif" font-size="18px" font-style="normal" font-weight="normal" text-decoration="normal" x="488" y="35" text-anchor="start" dominant-baseline="alphabetic" fill-opacity="1">3π / 2</text><text fill="rgb(37,37,37)" stroke="none" font-family="geogebra-sans-serif, sans-serif" font-size="18px" font-style="normal" font-weight="normal" text-decoration="normal" x="525" y="503" text-anchor="start" dominant-baseline="alphabetic" fill-opacity="1">0</text><text fill="none" stroke="rgb(255,255,255)" font-family="geogebra-sans-serif, sans-serif" font-size="18px" font-style="normal" font-weight="normal" text-decoration="normal" x="525" y="503" text-anchor="start" dominant-baseline="alphabetic" stroke-opacity="1" stroke-linejoin="bevel" stroke-miterlimit="10" stroke-width="3">0</text><text fill="rgb(37,37,37)" stroke="none" font-family="geogebra-sans-serif, sans-serif" font-size="18px" font-style="normal" font-weight="normal" text-decoration="normal" x="525" y="503" text-anchor="start" dominant-baseline="alphabetic" fill-opacity="1">0</text><path fill="none" stroke="rgb(97,97,97)" paint-order="fill stroke markers" d=" M 0.5 492.67962524317977 L 0.5 494.6363866458948 L 0.5 494.6363866458948 L 1.5 496.6038556461844 L 1.5 496.6038556461844 L 2.5 498.5837083906896 L 2.5 498.5837083906896 L 3.5 500.5776621538185 L 3.5 500.57766215381844 L 4.5 502.58748150715246 L 4.5 502.58748150715246 L 5.5 504.6149848315595 L 5.5 504.6149848315595 L 6.5 506.66205122492744 L 6.5 506.66205122492744 L 7.5 508.7306278635164 L 7.5 508.7306278635164 L 8.5 510.8227378808838 L 8.5 510.8227378808838 L 9.5 512.9404888352624 L 9.5 512.9404888352624 L 10.5 515.0860818443367 L 10.5 515.0860818443366 L 11.5 517.2618214757134 L 11.5 517.2618214757134 L 12.5 519.4701264922564 L 12.5 519.4701264922563 L 13.5 521.7135415640684 L 13.5 521.7135415640684 L 14.5 523.9947500735714 L 14.5 523.9947500735714 L 15.5 526.3165881572041 L 15.5 526.316588157204 L 16.5 528.6820601471394 L 16.5 528.6820601471394 L 17.5 531.0943555996508 L 17.5 531.0943555996508 L 18.5 533.5568681239171 L 18.5 533.5568681239171 L 19.5 536.0732162569112 L 19.5 536.0732162569111 L 20.5 538.6472666674547 L 20.5 538.6472666674547 L 21.5 541.2831600166455 L 21.5 541.2831600166454 L 22.5 543.985339854009 L 22.5 543.9853398540089 L 23.5 546.758584990537 L 23.5 546.758584990537 L 24.5 549.6080458632622 L 24.5 549.6080458632622 L 25.5 552.5392854936935 L 25.5 552.5392854936933 L 26.5 555.5583257473763 L 26.5 555.5583257473763 L 27.5 558.671699727922 L 27.5 558.6716997279219 L 28.5 561.8865112908662 L 28.5 561.8865112908662 L 29.5 565.2105028467845 L 29.5 565.2105028467844 L 30.5 568.6521328468176 L 30.5 568.6521328468175 L 31.5 572.2206646169399 L 31.5 572.2206646169398 L 32.5 575.9262685423017 L 32.5 575.9262685423016 L 33.49999999999994 579.7801400158168 L 33.49999999999994 579.7801400158166 L 34.50000000000006 583.7946360763895 L 34.50000000000006 583.7946360763893 L 35.5 587.9834342985934 L 35.5 587.9834342985932 L 36.5 592.3617182922135 L 36.5 592.3617182922134 L 37.49999999999994 596.9463951729114 L 37.49999999999994 596.9463951729113 L 38.50000000000006 601.7563516355001 L 38.50000000000006 601.7563516355 L 39.5 606.8127568804779 L 39.5 606.8127568804778 L 40.5 612.1394227224915 L 40.5 612.1394227224914 L 41.49999999999994 617.7632338953779 L 41.49999999999994 617.7632338953778 L 42.50000000000006 623.7146650667271 L 42.50000000000006 623.7146650667271 L 43.5 630.0284056678719 L 43.5 630.0284056678718 L 44.5 636.744119727228 L 44.5 636.7441197272279 L 45.5 643.907376022343 L 45.5 643.9073760223428 L 46.50000000000006 651.5707948329203 L 46.50000000000006 651.5707948329202 L 47.5 659.7954725301598 L 47.5 659.7954725301597 L 48.5 668.6527658546321 L 48.5 668.652765854632 L 49.5 678.2265465039206 L 49.5 678.2265465039204 L 50.50000000000006 688.6160773186666 L 50.50000000000006 688.6160773186665 L 51.5 699.939719652468 L 51.5 699.9397196524679 L 52.5 712.3397663586586 L 52.5 712.3397663586585 L 53.5 725.9888203772566 L 53.5 725.9888203772564 L 54.49999999999994 741.098328075209 L 54.49999999999994 741.0983280752089 L 55.50000000000006 757.9301672390136 L 55.50000000000006 757.9301672390134 L 56.5 776.8126463882982 L 56.5 776.8126463882979 L 57.5 798.1630073456802 L 57.5 798.16300734568 L 58.49999999999994 822.5197391421066 L 58.49999999999994 822.5197391421063 L 59.50000000000006 850.5900851885647 L 59.50000000000006 850.5900851885644 L 60.5 883.3217864792973 L 60.5 883.3217864792971 L 61.5 922.0148261485704 L 61.5 922.0148261485701 L 62.49999999999994 968.5018616390419 L 62.49999999999994 968.5018616390416 L 62.66677924090949 978 M 72.0152696889256 -15 L 81.86318213283192 -15.000000000000002 L 82.5 17.82637213793737 L 82.5 17.826372137937142 L 83.49999999999994 60.31700874540911 L 83.49999999999994 60.31700874540894 L 84.50000000000006 95.97116617525433 L 84.50000000000006 95.97116617525415 L 85.5 126.33839863173944 L 85.5 126.33839863173921 L 86.5 152.53299000133046 L 86.5 152.5329900013303 L 87.5 175.37676981889115 L 87.5 175.37676981889098 L 88.50000000000006 195.48916116872095 L 88.50000000000006 195.48916116872078 L 89.5 213.34588743943476 L 89.5 213.34588743943465 L 90.5 229.31836651252516 L 90.5 229.31836651252502 L 91.5 243.70081918949913 L 91.5 243.700819189499 L 92.50000000000006 256.72934111815505 L 92.50000000000006 256.729341118155 L 93.5 268.5955869207784 L 93.5 268.59558692077826 L 94.5 279.4567624091518 L 94.5 279.4567624091517 L 95.5 289.44303696226564 L 95.5 289.4430369622656 L 96.49999999999994 298.6631211042966 L 96.49999999999994 298.66312110429647 L 97.50000000000006 307.20851816515017 L 97.50000000000006 307.20851816515005 L 98.5 315.1568037523915 L 98.5 315.1568037523914 L 99.5 322.5741828741692 L 99.5 322.574182874169 L 100.49999999999994 329.51750377394893 L 100.49999999999994 329.5175037739488 L 101.50000000000006 336.03585854549596 L 101.50000000000006 336.0358585454959 L 102.5 342.1718661857261 L 102.5 342.17186618572606 L 103.5 347.9627092461085 L 103.5 347.96270924610843 L 104.49999999999994 353.44097758503904 L 104.49999999999994 353.4409775850389 L 105.50000000000006 358.63535984666856 L 105.50000000000006 358.6353598466685 L 106.5 363.57121379952076 L 106.5 363.5712137995207 L 107.5 368.2710396004124 L 107.5 368.27103960041234 L 108.5 372.75487473665635 L 108.5 372.7548747366563 L 109.50000000000006 377.04062537097565 L 109.50000000000006 377.0406253709756 L 110.5 381.1443457331627 L 110.5 381.14434573316265 L 111.5 385.08047482868363 L 111.5 385.0804748286836 L 112.5 388.862037891522 L 112.5 388.86203789152194 L 113.50000000000006 392.50081856788495 L 113.50000000000006 392.50081856788483 L 114.5 396.00750668367925 L 114.5 396.00750668367925 L 115.5 399.3918255509595 L 115.5 399.3918255509594 L 116.5 402.66264205346585 L 116.5 402.6626420534658 L 117.49999999999994 405.828062178585 L 117.49999999999994 405.828062178585 L 118.50000000000006 408.8955142017619 L 118.50000000000006 408.8955142017619 L 119.5 411.87182135600165 L 119.5 411.87182135600165 L 120.5 414.7632655153921 L 120.5 414.76326551539205 L 121.49999999999994 417.5756431733865 L 121.49999999999994 417.5756431733864 L 122.50000000000006 420.3143147928939 L 122.50000000000006 420.31431479289387 L 123.5 422.9842484373139 L 123.5 422.98424843731385 L 124.5 425.5900584527051 L 124.5 425.590058452705 L 125.49999999999994 428.1360398558291 L 125.49999999999994 428.13603985582904 L 126.50000000000006 430.626198986558 L 126.50000000000006 430.626198986558 L 127.5 433.06428090257805 L 127.5 433.06428090257805 L 128.5 435.45379392669844 L 128.5 435.45379392669844 L 129.5 437.7980317001006 L 129.5 437.7980317001005 L 130.50000000000006 440.100093046744 L 130.50000000000006 440.10009304674395 L 131.5 442.36289991336 L 131.5 442.36289991335997 L 132.5 444.5892136148232 L 132.5 444.58921361482317 L 133.5 446.78164958517334 L 133.5 446.78164958517334 L 134.50000000000006 448.9426908093705 L 134.50000000000006 448.94269080937045 L 135.5 451.07470008930176 L 135.5 451.07470008930176 L 136.5 453.17993127908204 L 136.5 453.17993127908204 L 137.5 455.2605396088115 L 137.5 455.2605396088115 L 138.49999999999994 457.31859120231263 L 138.49999999999994 457.31859120231263 L 139.5 459.3560718826186 L 139.5 459.3560718826186 L 140.5 461.3748953488654 L 140.5 461.3748953488654 L 141.5 463.3769107995313 L 141.5 463.3769107995313 L 142.49999999999994 465.3639100694602 L 142.49999999999994 465.3639100694602 L 143.5 467.3376343416651 L 143.5 467.3376343416651 L 144.5 469.2997804893788 L 144.5 469.2997804893788 L 145.5 471.25200709910695 L 145.5 471.2520070991069 L 146.5 473.1959402214341 L 146.5 473.1959402214341 L 147.5 475.1331788929743 L 147.5 475.1331788929743 L 148.5 477.0653004700672 L 148.5 477.0653004700672 L 149.5 478.9938658125534 L 149.5 478.9938658125534 L 150.5 480.920424354175 L 150.5 480.9203781973931 L 151.5 482.84651909480334 L 151.5 482.84651909480334 L 152.5 484.77369154877863 L 152.5 484.77369154877863 L 153.5 486.7034866831284 L 153.5 486.7034866831284 L 154.5 488.6374578793164 L 154.5 488.6374578793164 L 155.5 490.5771719524458 L 155.5 490.5771719524458 L 156.5 492.52421426251834 L 156.5 492.52421426251834 L 157.5 494.48019395343437 L 157.5 494.48019395343437 L 158.5 496.44674935693683 L 158.5 496.44674935693683 L 159.5 498.425553600675 L 159.5 498.425553600675 L 160.5 500.4183204620369 L 160.5 500.4183204620369 L 161.5 502.4268105124047 L 161.5 502.4268105124047 L 162.5 504.45283760010074 L 162.5 504.45283760010074 L 163.5 506.4982757245626 L 163.5 506.4982757245626 L 164.5 508.5650663593135 L 164.5 508.5650663593135 L 165.5 510.6552262871727 L 165.5 510.6552262871727 L 166.5 512.7708560179943 L 166.5 512.7708560179943 L 167.5 514.9141488671935 L 167.5 514.9141488671935 L 168.5 517.0874007825583 L 168.5 517.0874007825583 L 169.5 519.2930210175925 L 169.5 519.2930210175925 L 170.5 521.5335437620931 L 170.5 521.5335437620931 L 171.5 523.8116408551684 L 171.5 523.8116408551684 L 172.5 526.1301357227526 L 172.5 526.1301357227526 L 173.5 528.492018701327 L 173.5 528.492018701327 L 174.5 530.9004639324884 L 174.5 530.9004639324884 L 175.5 533.3588480398319 L 175.5 533.3588480398317 L 176.5 535.8707708310621 L 176.5 535.8707708310621 L 177.5 538.44007830521 L 177.5 538.44007830521 L 178.5 541.070888288367 L 178.5 541.0708882883669 L 179.5 543.767619072812 L 179.5 543.767619072812 L 180.5 546.5350214953665 L 180.5 546.5350214953664 L 181.5 549.3782149632978 L 181.5 549.3782149632976 L 182.5 552.3027280225199 L 182.5 552.3027280225198 L 183.5 555.3145441662873 L 183.5 555.3145441662872 L 184.5 558.4201537067989 L 184.5 558.4201537067989 L 185.5 561.6266126818881 L 185.5 561.6266126818881 L 186.5 564.9416099502238 L 186.5 564.9416099502237 L 187.5 568.3735438486943 L 187.5 568.3735438486943 L 188.5 571.931610054467 L 188.5 571.9316100544669 L 189.5 575.625902623766 L 189.5 575.625902623766 L 190.5 579.4675305853635 L 190.5 579.4675305853635 L 191.5 583.4687529692769 L 191.5 583.4687529692768 L 192.5 587.643135776464 L 192.5 587.643135776464 L 193.5 592.0057351776148 L 193.5 592.0057351776147 L 194.5 596.5733122135736 L 194.5 596.5733122135734 L 195.5 601.3645855161573 L 195.5 601.3645855161573 L 196.5 606.4005301559429 L 196.5 606.4005301559428 L 197.5 611.7047327601886 L 197.5 611.7047327601886 L 198.5 617.3038156750114 L 198.5 617.3038156750113 L 199.5 623.2279463703825 L 199.5 623.2279463703824 L 200.5 629.5114527796131 L 200.5 629.511452779613 L 201.5 636.1935712105528 L 201.5 636.1935712105527 L 202.5 643.3193614049549 L 202.5 643.3193614049549 L 203.5 650.9408340267705 L 203.5 650.9408340267705 L 204.5 659.1183504427673 L 204.5 659.1183504427672 L 205.5 667.9223747464907 L 205.5 667.9223747464906 L 206.5 677.4356859794192 L 206.5 677.4356859794191 L 207.5 687.7561980452437 L 207.5 687.7561980452435 L 208.5 699.0005914313899 L 208.5 699.0005914313899 L 209.5 711.3090431528357 L 209.5 711.3090431528356 L 210.5 724.8514629483421 L 210.5 724.851462948342 L 211.5 739.8358267247761 L 211.5 739.8358267247759 L 212.5 756.5194789907973 L 212.5 756.5194789907972 L 213.5 775.2247162740782 L 213.5 775.224716274078 L 214.5 796.3606707555255 L 214.5 796.3606707555252 L 215.5 820.454680478904 L 215.5 820.4546804789038 L 216.5 848.198317650543 L 216.5 848.1983176505428 L 217.5 880.5167405936245 L 217.5 880.5167405936243 L 218.5 918.6764297384511 L 218.5 918.6764297384509 L 219.5 964.458611328579 L 219.5 964.4586113285787 L 219.74184606183604 978 M 228.84612112529157 -14.999999999999998 L 238.94479220447022 -15 L 239.5 14.088677376378143 L 239.5 14.08867737637786 L 240.5 57.20813628184055 L 240.5 57.20813628184038 L 241.5 93.34288114179213 L 241.5 93.34288114179196 L 242.5 124.08563455867147 L 242.5 124.08563455867125 L 243.5 150.57920569745454 L 243.5 150.5792056974543 L 244.5 173.66488623017932 L 244.5 173.66488623017915 L 245.5 193.97574630644914 L 245.5 193.97574630644897 L 246.5 211.99730819255677 L 246.5 211.9973081925566 L 247.5 228.108172776096 L 247.5 228.10817277609584 L 248.5 242.60792332758786 L 248.5 242.60792332758774 L 249.5 255.7367243002324 L 249.5 255.73672430023225 L 250.5 267.68936265236425 L 250.5 267.6893626523642 L 251.5 278.62548727272775 L 251.5 278.6254872727277 L 252.5 288.6771956514979 L 252.5 288.67719565149787 L 253.5 297.95473641761447 L 253.5 297.9547364176144 L 254.5 306.55085196145615 L 254.5 306.55085196145603 L 255.5 314.54412504586463 L 255.5 314.5441250458646 L 256.5 322.0015861177628 L 256.5 322.0015861177627 L 257.5 328.98076510120745 L 257.5 328.98076510120734 L 258.5 335.5313210315324 L 258.5 335.53132103153234 L 259.5 341.6963475155762 L 259.5 341.6963475155761 L 260.5 347.51342684586507 L 260.5 347.513426845865 L 261.5 353.0154874799397 L 261.5 353.01548747993957 L 262.5 358.2315063964869 L 262.5 358.23150639648685 L 263.5 363.1870881181544 L 263.5 363.18708811815435 L 264.5 367.90494495767655 L 264.5 367.9049449576765 L 265.5 372.4052976110821 L 265.5 372.4052976110821 L 266.5 376.7062111047136 L 266.5 376.70621110471353 L 267.5 380.8238779568022 L 267.5 380.8238779568021 L 268.5 384.77285799138997 L 268.5 384.77285799138997 L 269.5 388.5662823624608 L 269.5 388.5662823624608 L 270.5 392.21602787729296 L 270.5 392.21602787729285 L 271.5 395.7328665527628 L 271.5 395.73286655276274 L 272.5 399.12659442398564 L 272.5 399.1265944239856 L 273.5 402.40614289667735 L 273.5 402.4061428966773 L 274.5 405.579675351742 L 274.5 405.579675351742 L 275.5 408.6546712413521 L 275.5 408.65467124135205 L 276.5 411.63799953613284 L 276.5 411.63799953613284 L 277.5 414.5359830743609 L 277.5 414.53598307436084 L 278.5 417.35445511192927 L 278.5 417.3544551119292 L 279.5 420.0988091649259 L 279.5 420.0988091649259 L 280.5 422.77404306619934 L 280.5 422.7740430661993 L 281.5 425.3847980162317 L 281.5 425.3847980162316 L 282.5 427.9353932915095 L 282.5 427.9353932915095 L 283.5 430.42985717592046 L 283.5 430.42985717592046 L 284.5 432.87195459902324 L 284.5 432.87195459902324 L 285.5 435.26521189646087 L 285.5 435.26521189646087 L 286.5 437.61293905005084 L 286.5 437.6129390500508 L 287.5 439.91824971630666 L 287.5 439.91824971630666 L 288.5 442.18407931083675 L 288.5 442.1840793108367 L 289.5 444.4132013809622 L 289.5 444.4132013809622 L 290.5 446.6082424690152 L 290.5 446.6082424690151 L 291.5 448.77169564326095 L 291.5 448.77169564326095 L 292.5 450.9059328515624 L 292.5 450.9059328515624 L 293.5 453.0132162341967 L 293.5 453.01321623419665 L 294.5 455.0957085161671 L 294.5 455.0957085161671 L 295.5 457.1554825855465 L 295.5 457.1554825855465 L 296.5 459.194530352493 L 296.5 459.194530352493 L 297.5 461.2147709733473 L 297.5 461.2147709733473 L 298.5 463.2180585153964 L 298.5 463.21805851539636 L 299.5 465.20618913030273 L 299.5 465.20618913030273 L 300.5 467.18090779766794 L 300.5 467.1809077976679 L 301.5 469.14391469461157 L 301.5 469.14391469461157 L 302.5 471.0968712424642 L 302.5 471.0968712424642 L 303.5 473.0414058776232 L 303.5 473.0414058776232 L 304.5 474.9791195902058 L 304.5 474.9791195902058 L 305.5 476.91159127130567 L 305.5 476.9115912713056 L 306.5 478.84038290734617 L 306.5 478.84038290734617 L 307.5 480.767044658205 L 307.5 480.76700963581555 L 308.5 482.6931198544004 L 308.5 482.6931198544004 L 309.5 484.62014994768447 L 309.5 484.62014994768447 L 310.5 486.54967944883566 L 310.5 486.54967944883566 L 311.5 488.48326088629574 L 311.5 488.4832608862957 L 312.5 490.42245981954244 L 312.5 490.42245981954244 L 313.5 492.3688599417265 L 313.5 492.3688599417265 L 314.5 494.3240683071593 L 314.5 494.3240683071593 L 315.5 496.2897207207146 L 315.5 496.2897207207146 L 316.5 498.2674873281485 L 316.5 498.2674873281485 L 317.5 500.25907844876616 L 317.5 500.25907844876616 L 318.5 502.2662506948342 L 318.5 502.2662506948342 L 319.5 504.2908134256902 L 319.5 504.2908134256902 L 320.5 506.3346355887262 L 320.5 506.3346355887262 L 321.5 508.3996530043777 L 321.5 508.3996530043777 L 322.5 510.4878761580646 L 322.5 510.4878761580646 L 323.5 512.6013985687867 L 323.5 512.6013985687866 L 324.5 514.7424058119536 L 324.5 514.7424058119536 L 325.5 516.9131852831607 L 325.5 516.9131852831607 L 326.5 519.1161368002394 L 326.5 519.1161368002394 L 327.5 521.3537841532249 L 327.5 521.3537841532249 L 328.5 523.6287877262096 L 328.5 523.6287877262096 L 329.5 525.9439583316996 L 329.5 525.9439583316995 L 330.5 528.3022724175088 L 330.5 528.3022724175088 L 331.5 530.7068888288674 L 331.5 530.7068888288674 L 332.5 533.161167334919 L 332.5 533.1611673349189 L 333.5 535.6686891598289 L 333.5 535.6686891598289 L 334.5 538.2332797952057 L 334.5 538.2332797952057 L 335.5 540.8590344135183 L 335.5 540.8590344135183 L 336.5 543.5503462529529 L 336.5 543.5503462529529 L 337.5 546.3119384043036 L 337.5 546.3119384043035 L 338.5 549.1488995019641 L 338.5 549.148899501964 L 339.5 552.0667239063139 L 339.5 552.0667239063139 L 340.5 555.0713570667441 L 340.5 555.0713570667441 L 341.5 558.1692468769875 L 341.5 558.1692468769874 L 342.5 561.367401981932 L 342.5 561.367401981932 L 343.5 564.6734581735944 L 343.5 564.6734581735943 L 344.5 568.0957542307456 L 344.5 568.0957542307455 L 345.5 571.6434188212269 L 345.5 571.6434188212268 L 346.5 575.3264704101946 L 346.5 575.3264704101946 L 347.5 579.1559325167148 L 347.5 579.1559325167148 L 348.5 583.1439671550831 L 348.5 583.1439671550831 L 349.5 587.3040299116201 L 349.5 587.30402991162 L 350.5 591.6510508760157 L 350.5 591.6510508760157 L 351.5 596.2016466126651 L 351.5 596.201646612665 L 352.5 600.9743695802076 L 352.5 600.9743695802075 L 353.5 605.9900029645762 L 353.5 605.9900029645762 L 354.5 611.2719108869758 L 354.5 611.2719108869758 L 355.5 616.8464565253591 L 355.5 616.8464565253591 L 356.5 622.7435040403227 L 356.5 622.7435040403227 L 357.5 628.9970245919633 L 357.5 628.9970245919633 L 358.5 635.6458325467795 L 358.5 635.6458325467793 L 359.5 642.7344857294853 L 359.5 642.7344857294852 L 360.5 650.3143940233563 L 360.5 650.3143940233562 L 361.5 658.4451948450476 L 361.5 658.4451948450476 L 362.5 667.1964735932897 L 362.5 667.1964735932897 L 363.5 676.6499344301208 L 363.5 676.6499344301207 L 364.5 686.90216520461 L 364.5 686.9021652046099 L 365.5 698.0681953221881 L 365.5 698.068195322188 L 366.5 710.2861252017003 L 366.5 710.2861252017002 L 367.5 723.7232237789784 L 367.5 723.7232237789783 L 368.5 738.5840675025017 L 368.5 738.5840675025017 L 369.5 755.1215653933655 L 369.5 755.1215653933652 L 370.5 773.6521391400142 L 370.5 773.652139140014 L 371.5 794.5770075944406 L 371.5 794.5770075944404 L 372.5 818.4126453325393 L 372.5 818.4126453325392 L 373.5 845.8353856070742 L 373.5 845.8353856070738 L 374.5 877.7484737097072 L 374.5 877.748473709707 L 375.5 915.3859615474684 L 375.5 915.3859615474682 L 376.5 960.4794392973633 L 376.5 960.4794392973631 L 376.8182231093383 978 M 385.6743639814238 -15.000000000000002 L 396.02509522895525 -15 L 396.5 10.292745651968687 L 396.5 10.292745651968517 L 397.5 54.055324708043884 L 397.5 54.05532470804371 L 398.5 90.68063339572848 L 398.5 90.68063339572831 L 399.5 121.80607954965063 L 399.5 121.8060795496504 L 400.5 148.6039178781976 L 400.5 148.60391787819736 L 401.5 171.93548262620982 L 401.5 171.93548262620965 L 402.5 192.44786945713423 L 402.5 192.44786945713406 L 403.5 210.63665344830082 L 403.5 210.6366534483007 L 404.5 226.88779320241466 L 404.5 226.88779320241454 L 405.5 241.50635734414965 L 405.5 241.5063573441495 L 406.5 254.73666727695772 L 406.5 254.73666727695758 L 407.5 266.7767066387975 L 407.5 266.77670663879735 L 408.5 277.7886151107323 L 408.5 277.78861511073217 L 409.5 287.9064541863765 L 409.5 287.90645418637644 L 410.5 297.24203795008214 L 410.5 297.242037950082 L 411.5 305.8893689423017 L 411.5 305.88936894230164 L 412.5 313.92805352008605 L 412.5 313.928053520086 L 413.5 321.42596051129715 L 413.5 321.42596051129703 L 414.5 328.44131180392924 L 414.5 328.4413118039291 L 415.5 335.02434161552407 L 415.5 335.024341615524 L 416.5 341.21862481896926 L 416.5 341.21862481896915 L 417.5 347.06214886387875 L 417.5 347.06214886387863 L 418.5 352.58818524431024 L 418.5 352.5881852443102 L 419.5 357.8260029325119 L 419.5 357.8260029325118 L 420.5 362.8014562407171 L 420.5 362.801456240717 L 421.5 367.53747217007304 L 421.5 367.537472170073 L 422.5 372.054456749508 L 422.5 372.05445674950795 L 423.5 376.3706356596969 L 423.5 376.37063565969686 L 424.5 380.5023412241159 L 424.5 380.50234122411587 L 425.5 384.4642553759985 L 425.5 384.46425537599845 L 426.5 388.2696162922032 L 426.5 388.2696162922032 L 427.5 391.9303948873723 L 427.5 391.93039488737224 L 428.5 395.4574461844561 L 428.5 395.45744618445605 L 429.5 398.8606396463417 L 429.5 398.86063964634167 L 430.5 402.1489718121563 L 430.5 402.1489718121562 L 431.5 405.3306639886334 L 431.5 405.3306639886333 L 432.5 408.4132472696183 L 432.5 408.4132472696183 L 433.5 411.40363677073844 L 433.5 411.4036367707384 L 434.5 414.30819665249294 L 434.5 414.3081966524929 L 435.5 417.1327972488022 L 435.5 417.13279724880215 L 436.5 419.8828654079047 L 436.5 419.88286540790466 L 437.5 422.5634289793855 L 437.5 422.56342897938544 L 438.5 425.17915623795363 L 438.5 425.1791562379536 L 439.5 427.73439091571424 L 439.5 427.73439091571424 L 440.5 430.23318341561827 L 440.5 430.2331834156182 L 441.5 432.6793186959236 L 441.5 432.6793186959236 L 442.5 435.0763412459786 L 442.5 435.0763412459786 L 443.5 437.4275775151045 L 443.5 437.4275775151045 L 444.5 439.7361561069278 L 444.5 439.73615610692775 L 445.5 442.0050260096517 L 445.5 442.0050260096517 L 446.5 444.2369730972053 L 446.5 444.23697309720524 L 447.5 446.434635105936 L 447.5 446.434635105936 L 448.5 448.6005152656826 L 448.5 448.6005152656826 L 449.5 450.7369947419588 L 449.5 450.7369947419588 L 450.5 452.8463440270497 L 450.5 452.8463440270497 L 451.5 454.9307334015523 L 451.5 454.9307334015523 L 452.5 456.99224257392336 L 452.5 456.99224257392336 L 453.5 459.03286959355876 L 453.5 459.03286959355876 L 454.5 461.0545391225729 L 454.5 461.05453912257286 L 455.5 463.05911014251893 L 455.5 463.05911014251893 L 456.5 465.04838316461166 L 456.5 465.04838316461166 L 457.5 467.02410700540685 L 457.5 467.02410700540685 L 458.5 468.98798518423007 L 458.5 468.98798518423007 L 459.5 470.94168199380914 L 459.5 470.94168199380914 L 460.5 472.8868282914552 L 460.5 472.8868282914552 L 461.5 474.8250270546779 L 461.5 474.8250270546779 L 462.5 476.75785874224454 L 462.5 476.75785874224454 L 463.5 478.68688649934535 L 463.5 478.68688649934535 L 464.5 480.6136612436641 L 464.5 480.61364712677215 L 465.5 482.5397266677423 L 465.5 482.5397266677423 L 466.5 484.4666241920384 L 466.5 484.4666241920384 L 467.5 486.3958979025082 L 467.5 486.3958979025082 L 468.5 488.3290995063454 L 468.5 488.3290995063454 L 469.5 490.2677933397413 L 469.5 490.2677933397413 L 470.5 492.2135614621254 L 470.5 492.2135614621254 L 471.5 494.16800887237594 L 471.5 494.1680088723759 L 472.5 496.13276888392613 L 472.5 496.1327688839261 L 473.5 498.1095086976024 L 473.5 498.1095086976024 L 474.5 500.09993521340766 L 474.5 500.0999352134076 L 475.5 502.1058011253931 L 475.5 502.1058011253931 L 476.5 504.12891134726334 L 476.5 504.12891134726334 L 477.5 506.171129820528 L 477.5 506.171129820528 L 478.5 508.23438676191034 L 478.5 508.23438676191034 L 479.5 510.3206864124585 L 479.5 510.32068641245843 L 480.5 512.4321153574894 L 480.5 512.4321153574894 L 481.5 514.5708514942718 L 481.5 514.5708514942718 L 482.5 516.7391737333826 L 482.5 516.7391737333826 L 483.5 518.9394725301582 L 483.5 518.9394725301581 L 484.5 521.1742613548383 L 484.5 521.1742613548383 L 485.5 523.4461892241441 L 485.5 523.4461892241441 L 486.5 525.7580544334909 L 486.5 525.7580544334909 L 487.5 528.1128196482099 L 487.5 528.1128196482098 L 488.5 530.5136285345219 L 488.5 530.5136285345219 L 489.5 532.96382413717 L 489.5 532.96382413717 L 490.5 535.4669692412742 L 490.5 535.4669692412742 L 491.5 538.0268689919831 L 491.5 538.0268689919831 L 492.5 540.6475960879159 L 492.5 540.6475960879159 L 493.5 543.333518914476 L 493.5 543.333518914476 L 494.5 546.0893330424523 L 494.5 546.0893330424523 L 495.5 548.9200965878158 L 495.5 548.9200965878157 L 496.5 551.83127001265 L 496.5 551.83127001265 L 497.5 554.8287610476444 L 497.5 554.8287610476443 L 498.5 557.9189755372151 L 498.5 557.918975537215 L 499.5 561.1088751536385 L 499.5 561.1088751536383 L 500.5 564.4060431023593 L 500.5 564.4060431023593 L 501.5 567.8187591540943 L 501.5 567.8187591540943 L 502.5 571.3560855996911 L 502.5 571.3560855996911 L 503.5 575.0279660426407 L 503.5 575.0279660426406 L 504.5 578.8453393367015 L 504.5 578.8453393367015 L 505.5 582.8202714616441 L 505.5 582.820271461644 L 506.5 586.9661087337977 L 506.5 586.9661087337977 L 507.5 591.2976565026984 L 507.5 591.2976565026983 L 508.5 595.8313884337994 L 508.5 595.8313884337992 L 509.5 600.5856926770152 L 509.5 600.5856926770152 L 510.5 605.5811627479009 L 510.5 605.5811627479007 L 511.5 610.8409429047957 L 511.5 610.8409429047956 L 512.5 616.3911403298284 L 512.5 616.3911403298283 L 513.5 622.2613197036213 L 513.5 622.2613197036212 L 514.5 628.4851000640215 L 514.5 628.4851000640214 L 515.5 635.1008795219946 L 515.5 635.1008795219944 L 516.5 642.152720984888 L 516.5 642.1527209848879 L 517.5 649.691442237202 L 517.5 649.6914422372018 L 518.5 657.7759676009091 L 518.5 657.7759676009091 L 519.5 666.4750174712495 L 519.5 666.4750174712494 L 520.5 675.8692385615014 L 520.5 675.8692385615013 L 521.5 686.0539150841121 L 521.5 686.053915084112 L 522.5 697.1424545153952 L 522.5 697.1424545153951 L 523.5 709.2709190497661 L 523.5 709.270919049766 L 524.5 722.6039879992338 L 524.5 722.6039879992338 L 525.5 737.3429076185241 L 525.5 737.342907618524 L 526.5 753.736246709198 L 526.5 753.7362467091978 L 527.5 772.0946855326848 L 527.5 772.0946855326847 L 528.5 792.8117202446495 L 528.5 792.8117202446492 L 529.5 816.3932406129412 L 529.5 816.393240612941 L 530.5 843.5007589426432 L 530.5 843.500758942643 L 531.5 875.016253413902 L 531.5 875.0162534139017 L 532.5 912.1423804604733 L 532.5 912.1423804604731 L 533.5 956.5628145190174 L 533.5 956.5628145190171 L 533.8959096084814 977.9999999999999 M 544.1546935235494 -15 L 553.1040903915186 -15 L 553.5 6.437185480982578 L 553.5 6.43718548098235 L 554.5 50.85761953952664 L 554.5 50.85761953952647 L 555.5 87.983746586098 L 555.5 87.98374658609782 L 556.5 119.49924105735693 L 556.5 119.4992410573567 L 557.5 146.60675938705884 L 557.5 146.60675938705862 L 558.5 170.1882797553506 L 558.5 170.18827975535044 L 559.5 190.90531446731518 L 559.5 190.905314467315 L 560.5 209.26375329080207 L 560.5 209.2637532908019 L 561.5 225.65709238147588 L 561.5 225.65709238147576 L 562.5 240.3960120007662 L 562.5 240.39601200076604 L 563.5 253.72908095023385 L 563.5 253.72908095023374 L 564.5 265.8575454846049 L 564.5 265.85754548460477 L 565.5 276.94608491588804 L 565.5 276.9460849158879 L 566.5 287.13076143849855 L 566.5 287.13076143849844 L 567.5 296.52498252875046 L 567.5 296.5249825287504 L 568.5 305.2240323990909 L 568.5 305.2240323990908 L 569.5 313.30855776279816 L 569.5 313.30855776279805 L 570.5 320.84727901511206 L 570.5 320.847279015112 L 571.5 327.89912047800556 L 571.5 327.8991204780055 L 572.5 334.51489993597863 L 572.5 334.5148999359785 L 573.5 340.7386802963787 L 573.5 340.7386802963786 L 574.5 346.60885967017157 L 574.5 346.6088596701715 L 575.5 352.1590570952044 L 575.5 352.1590570952043 L 576.5 357.41883725209925 L 576.5 357.41883725209914 L 577.5 362.4143073229848 L 577.5 362.41430732298477 L 578.5 367.1686115662008 L 578.5 367.16861156620075 L 579.5 371.70234349730174 L 579.5 371.7023434973016 L 580.5 376.0338912662024 L 580.5 376.03389126620226 L 581.5 380.17972853835596 L 581.5 380.1797285383559 L 582.5 384.1546606632985 L 582.5 384.15466066329844 L 583.5 387.9720339573593 L 583.5 387.97203395735926 L 584.5 391.64391440030886 L 584.5 391.6439144003088 L 585.5 395.1812408459057 L 585.5 395.1812408459056 L 586.5 398.5939568976408 L 586.5 398.59395689764074 L 587.5 401.8911248463616 L 587.5 401.89112484636155 L 588.5 405.0810244627849 L 588.5 405.08102446278485 L 589.5 408.17123895235557 L 589.5 408.17123895235557 L 590.5 411.16872998735005 L 590.5 411.16872998735 L 591.5 414.07990341218425 L 591.5 414.0799034121842 L 592.5 416.91066695754773 L 592.5 416.91066695754773 L 593.5 419.66648108552397 L 593.5 419.6664810855239 L 594.5 422.3524039120841 L 594.5 422.35240391208407 L 595.5 424.973131008017 L 595.5 424.97313100801694 L 596.5 427.5330307587258 L 596.5 427.5330307587258 L 597.5 430.0361758628299 L 597.5 430.03617586282985 L 598.5 432.4863714654781 L 598.5 432.48637146547804 L 599.5 434.8871803517901 L 599.5 434.8871803517901 L 600.5 437.2419455665091 L 600.5 437.2419455665091 L 601.5 439.55381077585594 L 601.5 439.5538107758559 L 602.5 441.8257386451616 L 602.5 441.8257386451616 L 603.5 444.0605274698418 L 603.5 444.0605274698418 L 604.5 446.26082626661747 L 604.5 446.2608262666174 L 605.5 448.42914850572816 L 605.5 448.42914850572816 L 606.5 450.56788464251065 L 606.5 450.56788464251065 L 607.5 452.67931358754157 L 607.5 452.67931358754157 L 608.5 454.76561323808966 L 608.5 454.7656132380896 L 609.5 456.828870179472 L 609.5 456.82887017947195 L 610.5 458.87108865273666 L 610.5 458.87108865273666 L 611.5 460.8941988746069 L 611.5 460.8941988746069 L 612.5 462.90006478659234 L 612.5 462.90006478659234 L 613.5 464.89049130239766 L 613.5 464.8904913023976 L 614.5 466.86723111607387 L 614.5 466.86723111607387 L 615.5 468.8319911276241 L 615.5 468.8319911276241 L 616.5 470.7864385378745 L 616.5 470.7864385378745 L 617.5 472.7322066602587 L 617.5 472.7322066602587 L 618.5 474.6709004936545 L 618.5 474.6709004936545 L 619.5 476.6041020974918 L 619.5 476.6041020974918 L 620.5 478.5333758079616 L 620.5 478.5333758079616 L 621.5 480.4602733322577 L 621.5 480.4602733322577 L 622.5 482.38635287322785 L 622.5 482.3863387563359 L 623.5 484.31311350065465 L 623.5 484.31311350065465 L 624.5 486.24214125775546 L 624.5 486.24214125775546 L 625.5 488.17497294532205 L 625.5 488.17497294532205 L 626.5 490.11317170854477 L 626.5 490.11317170854477 L 627.5 492.05831800619086 L 627.5 492.05831800619086 L 628.5 494.01201481577 L 628.5 494.01201481577 L 629.5 495.97589299459315 L 629.5 495.9758929945931 L 630.5 497.9516168353883 L 630.5 497.9516168353883 L 631.5 499.94088985748107 L 631.5 499.94088985748107 L 632.5 501.94546087742714 L 632.5 501.94546087742714 L 633.5 503.96713040644124 L 633.5 503.96713040644124 L 634.5 506.00775742607664 L 634.5 506.00775742607664 L 635.5 508.0692665984477 L 635.5 508.06926659844765 L 636.5 510.15365597295033 L 636.5 510.1536559729503 L 637.5 512.2630052580412 L 637.5 512.2630052580412 L 638.5 514.3994847343174 L 638.5 514.3994847343174 L 639.5 516.5653648940639 L 639.5 516.5653648940639 L 640.5 518.7630269027948 L 640.5 518.7630269027948 L 641.5 520.9949739903483 L 641.5 520.9949739903483 L 642.5 523.2638438930722 L 642.5 523.2638438930722 L 643.5 525.5724224848955 L 643.5 525.5724224848955 L 644.5 527.9236587540214 L 644.5 527.9236587540214 L 645.5 530.3206813040764 L 645.5 530.3206813040764 L 646.5 532.7668165843818 L 646.5 532.7668165843817 L 647.5 535.2656090842858 L 647.5 535.2656090842856 L 648.5 537.8208437620464 L 648.5 537.8208437620464 L 649.5 540.4365710206146 L 649.5 540.4365710206146 L 650.5 543.1171345920953 L 650.5 543.1171345920952 L 651.5 545.8672027511977 L 651.5 545.8672027511977 L 652.5 548.6918033475071 L 652.5 548.6918033475071 L 653.5 551.5963632292617 L 653.5 551.5963632292616 L 654.5 554.5867527303817 L 654.5 554.5867527303817 L 655.5 557.6693360113666 L 655.5 557.6693360113666 L 656.5 560.8510281878437 L 656.5 560.8510281878437 L 657.5 564.1393603536584 L 657.5 564.1393603536583 L 658.5 567.5425538155439 L 658.5 567.5425538155439 L 659.5 571.0696051126278 L 659.5 571.0696051126276 L 660.5 574.7303837077968 L 660.5 574.7303837077968 L 661.5 578.5357446240015 L 661.5 578.5357446240015 L 662.5 582.4976587758841 L 662.5 582.497658775884 L 663.5 586.6293643403031 L 663.5 586.629364340303 L 664.5 590.945543250492 L 664.5 590.9455432504919 L 665.5 595.462527829927 L 665.5 595.4625278299269 L 666.5 600.1985437592831 L 666.5 600.198543759283 L 667.5 605.1739970674881 L 667.5 605.173997067488 L 668.5 610.4118147556896 L 668.5 610.4118147556896 L 669.5 615.9378511361213 L 669.5 615.9378511361213 L 670.5 621.7813751810309 L 670.5 621.7813751810309 L 671.5 627.975658384476 L 671.5 627.9756583844759 L 672.5 634.5586881960706 L 672.5 634.5586881960705 L 673.5 641.574039488703 L 673.5 641.5740394887027 L 674.5 649.0719464799141 L 674.5 649.071946479914 L 675.5 657.1106310576984 L 675.5 657.1106310576982 L 676.5 665.7579620499178 L 676.5 665.7579620499176 L 677.5 675.0935458136235 L 677.5 675.0935458136235 L 678.5 685.211384889268 L 678.5 685.2113848892678 L 679.5 696.2232933612025 L 679.5 696.2232933612024 L 680.5 708.2633327230421 L 680.5 708.263332723042 L 681.5 721.4936426558504 L 681.5 721.4936426558503 L 682.5 736.1122067975854 L 682.5 736.1122067975853 L 683.5 752.3633465516996 L 683.5 752.3633465516994 L 684.5 770.5521305428658 L 684.5 770.5521305428656 L 685.5 791.0645173737898 L 685.5 791.0645173737896 L 686.5 814.3960821218025 L 686.5 814.3960821218022 L 687.5 841.1939204503501 L 687.5 841.1939204503499 L 688.5 872.3193666042715 L 688.5 872.3193666042714 L 689.5 908.9446752919553 L 689.5 908.944675291955 L 690.5 952.7072543480313 L 690.5 952.707254348031 L 690.9749047710447 977.9999999999999 M 702.3558661277599 -15.000000000000002 L 710.1817768906619 -15 L 710.5 2.520560702635521 L 710.5 2.520560702635237 L 711.5 47.614038452531645 L 711.5 47.61403845253142 L 712.5 85.25152629029344 L 712.5 85.25152629029327 L 713.5 117.1646143929259 L 713.5 117.16461439292573 L 714.5 144.5873546674601 L 714.5 144.58735466745992 L 715.5 168.4229924055594 L 715.5 168.42299240555923 L 716.5 189.34786085998633 L 716.5 189.34786085998616 L 717.5 207.87843460663464 L 717.5 207.87843460663447 L 718.5 224.41593249749798 L 718.5 224.4159324974978 L 719.5 239.27677622102163 L 719.5 239.27677622102152 L 720.5 252.7138747983 L 720.5 252.71387479829988 L 721.5 264.9318046778119 L 721.5 264.93180467781184 L 722.5 276.0978347953899 L 722.5 276.09783479538976 L 723.5 286.35006556987935 L 723.5 286.3500655698792 L 724.5 295.8035264067104 L 724.5 295.8035264067103 L 725.5 304.55480515495253 L 725.5 304.5548051549525 L 726.5 312.68560597664384 L 726.5 312.6856059766437 L 727.5 320.2655142705147 L 727.5 320.2655142705146 L 728.5 327.3541674532206 L 728.5 327.3541674532205 L 729.5 334.00297540803683 L 729.5 334.0029754080367 L 730.5 340.2564959596773 L 730.5 340.25649595967724 L 731.5 346.15354347464074 L 731.5 346.1535434746406 L 732.5 351.7280891130242 L 732.5 351.72808911302417 L 733.5 357.0099970354239 L 733.5 357.0099970354238 L 734.5 362.02563041979244 L 734.5 362.0256304197924 L 735.5 366.79835338733494 L 735.5 366.7983533873349 L 736.5 371.3489491239843 L 736.5 371.3489491239842 L 737.5 375.69597008838 L 737.5 375.6959700883799 L 738.5 379.85603284491685 L 738.5 379.85603284491674 L 739.5 383.8440674832852 L 739.5 383.84406748328513 L 740.5 387.6735295898054 L 740.5 387.6735295898053 L 741.5 391.3565811787732 L 741.5 391.3565811787731 L 742.5 394.90424576925454 L 742.5 394.90424576925443 L 743.5 398.32654182640556 L 743.5 398.32654182640556 L 744.5 401.63259801806805 L 744.5 401.632598018068 L 745.5 404.8307531230126 L 745.5 404.8307531230125 L 746.5 407.9286429332559 L 746.5 407.92864293325584 L 747.5 410.9332760936862 L 747.5 410.9332760936861 L 748.5 413.8511004980359 L 748.5 413.85110049803586 L 749.5 416.6880615956964 L 749.5 416.68806159569635 L 750.5 419.44965374704714 L 750.5 419.4496537470471 L 751.5 422.14096558648174 L 751.5 422.1409655864817 L 752.5 424.7667202047943 L 752.5 424.7667202047943 L 753.5 427.3313108401711 L 753.5 427.33131084017106 L 754.5 429.83883266508104 L 754.5 429.83883266508104 L 755.5 432.29311117113264 L 755.5 432.29311117113264 L 756.5 434.6977275824912 L 756.5 434.6977275824912 L 757.5 437.05604166830045 L 757.5 437.0560416683004 L 758.5 439.37121227379043 L 758.5 439.37121227379043 L 759.5 441.6462158467751 L 759.5 441.6462158467751 L 760.5 443.88386319976064 L 760.5 443.8838631997606 L 761.5 446.0868147168393 L 761.5 446.0868147168393 L 762.5 448.25759418804637 L 762.5 448.25759418804637 L 763.5 450.3986014312133 L 763.5 450.39860143121325 L 764.5 452.5121238419354 L 764.5 452.51212384193536 L 765.5 454.6003469956223 L 765.5 454.6003469956223 L 766.5 456.6653644112738 L 766.5 456.6653644112738 L 767.5 458.7091865743098 L 767.5 458.70918657430974 L 768.5 460.7337493051658 L 768.5 460.7337493051658 L 769.5 462.74092155123384 L 769.5 462.74092155123384 L 770.5 464.73251267185145 L 770.5 464.73251267185145 L 771.5 466.7102792792854 L 771.5 466.7102792792854 L 772.5 468.6759316928407 L 772.5 468.67593169284066 L 773.5 470.6311400582735 L 773.5 470.6311400582735 L 774.5 472.57754018045756 L 774.5 472.5775401804575 L 775.5 474.51673911370426 L 775.5 474.51673911370426 L 776.5 476.45032055116434 L 776.5 476.45032055116434 L 777.5 478.37985005231553 L 777.5 478.37985005231553 L 778.5 480.3068801455996 L 778.5 480.3068801455996 L 779.5 482.2329903641844 L 779.5 482.232955341795 L 780.5 484.15961709265383 L 780.5 484.1596170926538 L 781.5 486.08840872869433 L 781.5 486.08840872869433 L 782.5 488.0208804097942 L 782.5 488.0208804097942 L 783.5 489.9585941223768 L 783.5 489.9585941223768 L 784.5 491.9031287575358 L 784.5 491.9031287575358 L 785.5 493.85608530538843 L 785.5 493.85608530538843 L 786.5 495.81909220233206 L 786.5 495.81909220233206 L 787.5 497.79381086969727 L 787.5 497.79381086969727 L 788.5 499.7819414846036 L 788.5 499.7819414846036 L 789.5 501.7852290266527 L 789.5 501.7852290266527 L 790.5 503.805469647507 L 790.5 503.805469647507 L 791.5 505.8445174144535 L 791.5 505.84451741445343 L 792.5 507.9042914838329 L 792.5 507.9042914838329 L 793.5 509.98678376580335 L 793.5 509.9867837658033 L 794.5 512.0940671484376 L 794.5 512.0940671484376 L 795.5 514.228304356739 L 795.5 514.228304356739 L 796.5 516.3917575309848 L 796.5 516.3917575309848 L 797.5 518.5867986190377 L 797.5 518.5867986190377 L 798.5 520.8159206891632 L 798.5 520.8159206891632 L 799.5 523.0817502836933 L 799.5 523.0817502836933 L 800.5 525.3870609499492 L 800.5 525.3870609499492 L 801.5 527.7347881035391 L 801.5 527.7347881035391 L 802.5 530.1280454009767 L 802.5 530.1280454009767 L 803.5 532.5701428240795 L 803.5 532.5701428240795 L 804.5 535.0646067084905 L 804.5 535.0646067084905 L 805.5 537.6152019837683 L 805.5 537.6152019837683 L 806.5 540.2259569338007 L 806.5 540.2259569338007 L 807.5 542.9011908350741 L 807.5 542.9011908350741 L 808.5 545.6455448880707 L 808.5 545.6455448880707 L 809.5 548.4640169256392 L 809.5 548.464016925639 L 810.5 551.3620004638672 L 810.5 551.3620004638672 L 811.5 554.345328758648 L 811.5 554.3453287586478 L 812.5 557.420324648258 L 812.5 557.420324648258 L 813.5 560.5938571033226 L 813.5 560.5938571033226 L 814.5 563.8734055760144 L 814.5 563.8734055760143 L 815.5 567.2671334472373 L 815.5 567.2671334472371 L 816.5 570.7839721227072 L 816.5 570.783972122707 L 817.5 574.4337176375392 L 817.5 574.4337176375392 L 818.5 578.22714200861 L 818.5 578.2271420086099 L 819.5 582.1761220431979 L 819.5 582.1761220431978 L 820.5 586.2937888952865 L 820.5 586.2937888952864 L 821.5 590.5947023889179 L 821.5 590.5947023889178 L 822.5 595.0950550423236 L 822.5 595.0950550423235 L 823.5 599.8129118818456 L 823.5 599.8129118818456 L 824.5 604.7684936035131 L 824.5 604.7684936035131 L 825.5 609.9845125200604 L 825.5 609.9845125200603 L 826.5 615.4865731541349 L 826.5 615.4865731541349 L 827.5 621.3036524844239 L 827.5 621.3036524844238 L 828.5 627.4686789684677 L 828.5 627.4686789684675 L 829.5 634.0192348987925 L 829.5 634.0192348987925 L 830.5 640.9984138822372 L 830.5 640.9984138822372 L 831.5 648.4558749541354 L 831.5 648.4558749541353 L 832.5 656.4491480385439 L 832.5 656.4491480385439 L 833.5 665.0452635823856 L 833.5 665.0452635823855 L 834.5 674.3228043485021 L 834.5 674.322804348502 L 835.5 684.3745127272723 L 835.5 684.3745127272722 L 836.5 695.3106373476357 L 836.5 695.3106373476356 L 837.5 707.2632756997676 L 837.5 707.2632756997675 L 838.5 720.3920766724121 L 838.5 720.392076672412 L 839.5 734.891827223904 L 839.5 734.8918272239039 L 840.5 751.0026918074433 L 840.5 751.0026918074432 L 841.5 769.0242536935509 L 841.5 769.0242536935507 L 842.5 789.3351137698207 L 842.5 789.3351137698205 L 843.5 812.4207943025456 L 843.5 812.4207943025453 L 844.5 838.9143654413285 L 844.5 838.9143654413283 L 845.5 869.6571188582079 L 845.5 869.6571188582077 L 846.5 905.7918637181593 L 846.5 905.7918637181592 L 847.5 948.9113226236218 L 847.5 948.9113226236216 L 848.0552077955299 978.0000000000001 M 859.2091083571516 -15 L 867.258153938164 -15 L 867.5 -1.4586113285790816 L 867.5 -1.4586113285793658 L 868.5 44.32357026155063 L 868.5 44.323570261550344 L 869.5 82.48325940637704 L 869.5 82.48325940637676 L 870.5 114.80168234945705 L 870.5 114.80168234945677 L 871.5 142.54531952109608 L 871.5 142.54531952109585 L 872.5 166.63932924447363 L 872.5 166.6393292444734 L 873.5 187.7752837259211 L 873.5 187.77528372592093 L 874.5 206.48052100920268 L 874.5 206.4805210092025 L 875.5 223.16417327522396 L 875.5 223.16417327522385 L 876.5 238.14853705165845 L 876.5 238.14853705165834 L 877.5 251.69095684716487 L 877.5 251.69095684716476 L 878.5 263.9994085686101 L 878.5 263.99940856860997 L 879.5 275.24380195475635 L 879.5 275.2438019547563 L 880.5 285.56431402058047 L 880.5 285.5643140205804 L 881.5 295.07762525350904 L 881.5 295.0776252535089 L 882.5 303.8816495572328 L 882.5 303.88164955723266 L 883.5 312.0591659732295 L 883.5 312.05916597322937 L 884.5 319.68063859504537 L 884.5 319.68063859504525 L 885.5 326.8064287894474 L 885.5 326.8064287894473 L 886.5 333.4885472203871 L 886.5 333.488547220387 L 887.5 339.7720536296175 L 887.5 339.7720536296174 L 888.5 345.69618432498874 L 888.5 345.6961843249886 L 889.5 351.29526723981127 L 889.5 351.2952672398112 L 890.5 356.599469844057 L 890.5 356.5994698440569 L 891.5 361.63541448384274 L 891.5 361.6354144838427 L 892.5 366.42668778642656 L 892.5 366.42668778642644 L 893.5 370.99426482238533 L 893.5 370.9942648223853 L 894.5 375.35686422353615 L 894.5 375.35686422353604 L 895.5 379.53124703072314 L 895.5 379.5312470307231 L 896.5 383.53246941463647 L 896.5 383.5324694146364 L 897.5 387.3740973762339 L 897.5 387.37409737623386 L 898.5 391.068389945533 L 898.5 391.0683899455329 L 899.5 394.62645615130566 L 899.5 394.62645615130566 L 900.5 398.0583900497762 L 900.5 398.0583900497762 L 901.5 401.37338731811195 L 901.5 401.3733873181119 L 902.5 404.5798462932011 L 902.5 404.57984629320106 L 903.5 407.68545583371275 L 903.5 407.6854558337127 L 904.5 410.69727197748017 L 904.5 410.6972719774801 L 905.5 413.62178503670225 L 905.5 413.62178503670225 L 906.5 416.46497850463345 L 906.5 416.46497850463345 L 907.5 419.23238092718805 L 907.5 419.232380927188 L 908.5 421.9291117116331 L 908.5 421.929111711633 L 909.5 424.55992169479 L 909.5 424.55992169479 L 910.5 427.1292291689379 L 910.5 427.12922916893785 L 911.5 429.64115196016826 L 911.5 429.6411519601682 L 912.5 432.0995360675116 L 912.5 432.0995360675116 L 913.5 434.50798129867303 L 913.5 434.507981298673 L 914.5 436.8698642772474 L 914.5 436.8698642772474 L 915.5 439.1883591448315 L 915.5 439.1883591448315 L 916.5 441.46645623790687 L 916.5 441.46645623790687 L 917.5 443.7069789824075 L 917.5 443.70697898240746 L 918.5 445.91259921744165 L 918.5 445.91259921744165 L 919.5 448.0858511328065 L 919.5 448.0858511328065 L 920.5 450.22914398200567 L 920.5 450.22914398200567 L 921.5 452.3447737128273 L 921.5 452.3447737128273 L 922.5 454.4349336406865 L 922.5 454.43493364068644 L 923.5 456.5017242754374 L 923.5 456.50172427543737 L 924.5 458.54716239989926 L 924.5 458.54716239989926 L 925.5 460.5731894875953 L 925.5 460.57318948759524 L 926.5 462.5816795379631 L 926.5 462.5816795379631 L 927.5 464.574446399325 L 927.5 464.5744463993249 L 928.5 466.55325064306317 L 928.5 466.5532506430631 L 929.5 468.51980604656563 L 929.5 468.51980604656563 L 930.5 470.47578573748166 L 930.5 470.47578573748166 L 931.5 472.4228280475542 L 931.5 472.4228280475542 L 932.5 474.36254212068354 L 932.5 474.36254212068354 L 933.5 476.2965133168716 L 933.5 476.2965133168716 L 934.5 478.22630845122137 L 934.5 478.22630845122137 L 935.5 480.15348090519666 L 935.5 480.15348090519666 L 936.5 482.0796218026069 L 936.5 482.079575645825 L 937.5 484.0061341874466 L 937.5 484.0061341874466 L 938.5 485.9346995299328 L 938.5 485.9346995299328 L 939.5 487.8668211070257 L 939.5 487.8668211070257 L 940.5 489.8040597785659 L 940.5 489.8040597785659 L 941.5 491.74799290089305 L 941.5 491.74799290089305 L 942.5 493.7002195106212 L 942.5 493.7002195106212 L 943.5 495.6623656583349 L 943.5 495.6623656583349 L 944.5 497.6360899305398 L 944.5 497.6360899305398 L 945.5 499.6230892004687 L 945.5 499.6230892004687 L 946.5 501.6251046511346 L 946.5 501.62510465113456 L 947.5 503.6439281173814 L 947.5 503.64392811738134 L 948.5 505.68140879768737 L 948.5 505.68140879768737 L 949.5 507.7394603911885 L 949.5 507.7394603911885 L 950.5 509.82006872091796 L 950.5 509.8200687209179 L 951.5 511.92529991069824 L 951.5 511.9252999106982 L 952.5 514.0573091906296 L 952.5 514.0573091906294 L 953.5 516.2183504148267 L 953.5 516.2183504148267 L 954.5 518.4107863851768 L 954.5 518.4107863851768 L 955.5 520.63710008664 L 955.5 520.63710008664 L 956.5 522.899906953256 L 956.5 522.8999069532559 L 957.5 525.2019682998995 L 957.5 525.2019682998994 L 958.5 527.5462060733015 L 958.5 527.5462060733015 L 959.5 529.935719097422 L 959.5 529.935719097422 L 960.5 532.3738010134421 L 960.5 532.373801013442 L 961.5 534.863960144171 L 961.5 534.8639601441708 L 962.5 537.4099415472949 L 962.5 537.4099415472949 L 963.5 540.0157515626861 L 963.5 540.0157515626861 L 964.5 542.6856852071061 L 964.5 542.6856852071061 L 965.5 545.4243568266136 L 965.5 545.4243568266136 L 966.5 548.236734484608 L 966.5 548.236734484608 L 967.5 551.1281786439984 L 967.5 551.1281786439984 L 968.5 554.1044857982381 L 968.5 554.1044857982381 L 969.5 557.171937821415 L 969.5 557.171937821415 L 970.5 560.3373579465342 L 970.5 560.3373579465341 L 971.5 563.6081744490406 L 971.5 563.6081744490405 L 972.5 566.9924933163207 L 972.5 566.9924933163206 L 973.5 570.4991814321152 L 973.5 570.499181432115 L 974.5 574.1379621084781 L 974.5 574.137962108478 L 975.5 577.9195251713164 L 975.5 577.9195251713163 L 976.5 581.8556542668373 L 976.5 581.8556542668373 L 977.5 585.9593746290244 L 977.5 585.9593746290244 L 978.5 590.2451252633437 L 978.5 590.2451252633437 L 979.5 594.7289603995875 L 979.5 594.7289603995875 L 980.5 599.4287862004793 L 980.5 599.4287862004792 L 981.5 604.3646401533315 L 981.5 604.3646401533314 L 982.5 609.5590224149611 L 982.5 609.559022414961 L 983.5 615.0372907538915 L 983.5 615.0372907538915 L 984.5 620.8281338142739 L 984.5 620.8281338142738 L 985.5 626.9641414545041 L 985.5 626.964141454504 L 986.5 633.4824962260511 L 986.5 633.482496226051 L 987.5 640.4258171258309 L 987.5 640.4258171258308 L 988.5 647.8431962476086 L 988.5 647.8431962476085 L 989.5 655.79148183485 L 989.5 655.7914818348498 L 990.5 664.3368788957034 L 990.5 664.3368788957033 L 991.5 673.5569630377344 L 991.5 673.5569630377342 L 992.5 683.5432375908483 L 992.5 683.5432375908481 L 993.5 694.4044130792216 L 993.5 694.4044130792215 L 994.5 706.270658881845 L 994.5 706.2706588818448 L 995.5 719.299180810501 L 995.5 719.2991808105008 L 996.5 733.6816334874749 L 996.5 733.6816334874748 L 997.5 749.6541125605653 L 997.5 749.6541125605652 L 998.5 767.5108388312792 L 998.5 767.510838831279 L 999.5 787.6232301811087 L 999.5 787.6232301811086 L 1000.5 810.4670099986695 L 1000.5 810.4670099986694 L 1001.5 836.6616013682607 L 1001.5 836.6616013682603 L 1002.5 867.0288338247456 L 1002.5 867.0288338247454 L 1003.5 902.6829912545909 L 1003.5 902.6829912545905 L 1004.5 945.1736278620626 L 1004.5 945.1736278620624 L 1005.1368178671681 977.9999999999999 M 1016.0597281772048 -15 L 1024.3332207590904 -15 L 1024.5 -5.50186163904209 L 1024.5 -5.5018616390423745 L 1025.5 40.98517385142958 L 1025.5 40.98517385142941 L 1026.5 79.67821352070268 L 1026.5 79.6782135207024 L 1027.5 112.40991481143544 L 1027.5 112.40991481143527 L 1028.5 140.48026085789354 L 1028.5 140.4802608578933 L 1029.5 164.83699265431989 L 1029.5 164.83699265431966 L 1030.5 186.1873536117019 L 1030.5 186.18735361170172 L 1031.5 205.06983276098646 L 1031.5 205.0698327609863 L 1032.5 221.90167192479106 L 1032.5 221.9016719247909 L 1033.5 237.0111796227435 L 1033.5 237.01117962274336 L 1034.5 250.66023364134142 L 1034.5 250.6602336413413 L 1035.5 263.060280347532 L 1035.5 263.06028034753194 L 1036.5 274.3839226813334 L 1036.5 274.3839226813333 L 1037.5 284.77345349607947 L 1037.5 284.77345349607936 L 1038.5 294.3472341453679 L 1038.5 294.3472341453678 L 1039.5 303.2045274698402 L 1039.5 303.2045274698401 L 1040.5 311.42920516707966 L 1040.5 311.42920516707954 L 1041.5 319.0926239776571 L 1041.5 319.092623977657 L 1042.5 326.25588027277195 L 1042.5 326.25588027277183 L 1043.5 332.9715943321282 L 1043.5 332.97159433212806 L 1044.5 339.2853349332729 L 1044.5 339.28533493327285 L 1045.5 345.23676610462223 L 1045.5 345.2367661046221 L 1046.5 350.8605772775085 L 1046.5 350.86057727750847 L 1047.5 356.1872431195221 L 1047.5 356.18724311952207 L 1048.5 361.2436483645 L 1048.5 361.2436483644999 L 1049.5 366.05360482708875 L 1049.5 366.05360482708863 L 1050.5 370.63828170778663 L 1050.5 370.6382817077865 L 1051.5 375.0165657014067 L 1051.5 375.0165657014066 L 1052.5 379.2053639236106 L 1052.5 379.20536392361055 L 1053.5 383.2198599841833 L 1053.5 383.21985998418324 L 1054.5 387.07373145769833 L 1054.5 387.0737314576983 L 1055.5 390.7793353830602 L 1055.5 390.77933538306013 L 1056.5 394.34786715318245 L 1056.5 394.3478671531824 L 1057.5 397.78949715321556 L 1057.5 397.7894971532155 L 1058.5 401.1134887091338 L 1058.5 401.1134887091337 L 1059.5 404.328300272078 L 1059.5 404.32830027207797 L 1060.5 407.44167425262367 L 1060.5 407.44167425262367 L 1061.5 410.4607145063066 L 1061.5 410.46071450630654 L 1062.5 413.3919541367378 L 1062.5 413.3919541367378 L 1063.5 416.241415009463 L 1063.5 416.24141500946297 L 1064.5 419.01466014599106 L 1064.5 419.014660145991 L 1065.5 421.71683998335453 L 1065.5 421.7168399833545 L 1066.5 424.3527333325453 L 1066.5 424.35273333254526 L 1067.5 426.92678374308883 L 1067.5 426.9267837430888 L 1068.5 429.44313187608293 L 1068.5 429.44313187608293 L 1069.5 431.90564440034916 L 1069.5 431.90564440034916 L 1070.5 434.3179398528606 L 1070.5 434.3179398528606 L 1071.5 436.6834118427959 L 1071.5 436.6834118427959 L 1072.5 439.00524992642863 L 1072.5 439.0052499264286 L 1073.5 441.2864584359316 L 1073.5 441.2864584359316 L 1074.5 443.5298735077436 L 1074.5 443.5298735077436 L 1075.5 445.7381785242866 L 1075.5 445.7381785242866 L 1076.5 447.91391815566334 L 1076.5 447.9139181556633 L 1077.5 450.0595111647376 L 1077.5 450.0595111647376 L 1078.5 452.1772621191162 L 1078.5 452.1772621191162 L 1079.5 454.2693721364836 L 1079.5 454.2693721364836 L 1080.5 456.33794877507256 L 1080.5 456.33794877507256 L 1081.5 458.3850151684405 L 1081.5 458.3850151684405 L 1082.5 460.41251849284754 L 1082.5 460.4125184928475 L 1083.5 462.4223378461815 L 1083.5 462.4223378461815 L 1084.5 464.4162916093104 L 1084.5 464.4162916093104 L 1085.5 466.3961443538156 L 1085.5 466.3961443538156 L 1086.5 468.3636133541052 L 1086.5 468.3636133541052 L 1087.5 470.32037475682023" stroke-opacity="0.8" stroke-linecap="round" stroke-linejoin="round" stroke-miterlimit="10" stroke-width="5"/><g transform="scale(27,27)"><g transform="translate(1.5555555555555556,20.34259259259259)"><path fill="rgb(97,97,97)" stroke="none" paint-order="stroke fill markers" d=" M 0.359 -0.386 Q 0.323 -0.423 0.252 -0.423 Q 0.189 -0.423 0.151 -0.363 Q 0.117 -0.309 0.117 -0.218 Q 0.117 -0.074 0.203 -0.029 Q 0.23 -0.014 0.258 -0.014 Q 0.356 -0.014 0.389 -0.11900000000000001 Q 0.392 -0.129 0.402 -0.129 Q 0.41500000000000004 -0.129 0.41500000000000004 -0.11900000000000001 Q 0.41500000000000004 -0.1 0.393 -0.065 Q 0.34400000000000003 0.011 0.249 0.011 Q 0.155 0.011 0.09 -0.063 Q 0.034 -0.128 0.034 -0.216 Q 0.034 -0.319 0.105 -0.388 Q 0.166 -0.448 0.251 -0.448 Q 0.334 -0.448 0.378 -0.403 Q 0.404 -0.376 0.404 -0.341 Q 0.404 -0.303 0.371 -0.295 Q 0.365 -0.294 0.358 -0.294 Q 0.323 -0.294 0.314 -0.326 Q 0.312 -0.332 0.312 -0.34 Q 0.312 -0.376 0.34700000000000003 -0.384 Q 0.353 -0.386 0.359 -0.386 Z"/></g><g transform="translate(1.9995555555555555,20.34259259259259)"><path fill="rgb(97,97,97)" stroke="none" paint-order="stroke fill markers" d=" M 0.47100000000000003 -0.214 L 0.47100000000000003 -0.214 Q 0.47100000000000003 -0.111 0.395 -0.044 Q 0.332 0.011 0.249 0.011 Q 0.153 0.011 0.08700000000000001 -0.061 Q 0.028 -0.126 0.028 -0.214 Q 0.028 -0.316 0.101 -0.386 Q 0.164 -0.448 0.25 -0.448 Q 0.34700000000000003 -0.448 0.41300000000000003 -0.371 Q 0.47100000000000003 -0.304 0.47100000000000003 -0.214 M 0.25 -0.014 L 0.25 -0.014 Q 0.317 -0.014 0.356 -0.07 L 0.366 -0.088 Q 0.388 -0.132 0.388 -0.222 Q 0.388 -0.318 0.362 -0.361 Q 0.319 -0.423 0.249 -0.426 Q 0.187 -0.426 0.147 -0.376 Q 0.14 -0.368 0.135 -0.359 Q 0.111 -0.315 0.111 -0.222 Q 0.111 -0.125 0.136 -0.081 Q 0.178 -0.016 0.25 -0.014 Z"/></g><g transform="translate(2.4995555555555553,20.34259259259259)"><path fill="rgb(97,97,97)" stroke="none" paint-order="stroke fill markers" d=" M 0.17300000000000001 -0.4 L 0.17300000000000001 -0.4 L 0.17300000000000001 -0.122 Q 0.17300000000000001 -0.022 0.231 -0.015 Q 0.23500000000000001 -0.014 0.24 -0.014 Q 0.28300000000000003 -0.014 0.3 -0.07 Q 0.307 -0.094 0.307 -0.126 L 0.307 -0.181 L 0.332 -0.181 L 0.332 -0.124 Q 0.332 -0.042 0.28600000000000003 -0.006 Q 0.264 0.011 0.233 0.011 Q 0.149 0.011 0.11800000000000001 -0.052000000000000005 Q 0.10400000000000001 -0.082 0.10400000000000001 -0.124 L 0.10400000000000001 -0.4 L 0.019 -0.4 L 0.019 -0.422 Q 0.108 -0.426 0.137 -0.534 Q 0.147 -0.5720000000000001 0.148 -0.615 L 0.17300000000000001 -0.615 L 0.17300000000000001 -0.431 L 0.316 -0.431 L 0.316 -0.4 L 0.17300000000000001 -0.4 Z"/></g><g transform="translate(2.8885555555555555,20.34259259259259)"><path fill="rgb(97,97,97)" stroke="none" paint-order="stroke fill markers" d=" M 0.331 0.24 L 0.331 0.24 Q 0.331 0.25 0.321 0.25 Q 0.309 0.25 0.268 0.209 Q 0.20600000000000002 0.147 0.165 0.062 Q 0.099 -0.074 0.099 -0.25 Q 0.099 -0.419 0.162 -0.555 Q 0.214 -0.666 0.294 -0.733 Q 0.315 -0.75 0.321 -0.75 Q 0.331 -0.75 0.331 -0.74 Q 0.331 -0.735 0.318 -0.723 Q 0.157 -0.559 0.157 -0.25 Q 0.157 0.058 0.314 0.218 Q 0.331 0.23500000000000001 0.331 0.24 Z"/></g><g transform="translate(3.2775555555555558,20.34259259259259)"><path fill="rgb(97,97,97)" stroke="none" paint-order="stroke fill markers" d=" M 0.334 -0.302 L 0.3 -0.165 Q 0.28300000000000003 -0.097 0.28300000000000003 -0.077 Q 0.28300000000000003 -0.025 0.32 -0.014 Q 0.328 -0.011 0.338 -0.011 Q 0.388 -0.011 0.429 -0.061 Q 0.456 -0.093 0.47100000000000003 -0.14200000000000002 Q 0.47400000000000003 -0.153 0.484 -0.153 Q 0.496 -0.153 0.496 -0.14300000000000002 Q 0.496 -0.11800000000000001 0.465 -0.07100000000000001 Q 0.41100000000000003 0.011 0.336 0.011 Q 0.268 0.011 0.23700000000000002 -0.046 Q 0.231 -0.055 0.228 -0.065 Q 0.20400000000000001 -0.017 0.162 0.002 Q 0.14300000000000002 0.011 0.123 0.011 Q 0.063 0.011 0.039 -0.024 Q 0.029 -0.037 0.029 -0.055 Q 0.029 -0.092 0.061 -0.107 Q 0.07200000000000001 -0.113 0.084 -0.113 Q 0.114 -0.113 0.12 -0.088 Q 0.121 -0.083 0.121 -0.078 Q 0.121 -0.044 0.08700000000000001 -0.028 Q 0.081 -0.025 0.074 -0.024 Q 0.095 -0.011 0.124 -0.011 Q 0.177 -0.011 0.20800000000000002 -0.082 Q 0.214 -0.097 0.219 -0.115 Q 0.273 -0.319 0.273 -0.353 Q 0.267 -0.41500000000000004 0.219 -0.42 Q 0.167 -0.42 0.124 -0.367 L 0.124 -0.366 Q 0.124 -0.365 0.123 -0.365 Q 0.108 -0.34500000000000003 0.096 -0.319 Q 0.091 -0.307 0.08700000000000001 -0.295 L 0.085 -0.289 Q 0.083 -0.278 0.07200000000000001 -0.278 Q 0.06 -0.278 0.06 -0.28800000000000003 Q 0.06 -0.313 0.092 -0.36 Q 0.146 -0.442 0.221 -0.442 Q 0.298 -0.442 0.329 -0.366 Q 0.361 -0.428 0.41400000000000003 -0.44 Q 0.424 -0.442 0.434 -0.442 Q 0.493 -0.442 0.517 -0.40900000000000003 Q 0.527 -0.395 0.527 -0.376 Q 0.527 -0.335 0.49 -0.321 Q 0.481 -0.318 0.47300000000000003 -0.318 Q 0.442 -0.318 0.436 -0.34500000000000003 Q 0.435 -0.34900000000000003 0.435 -0.353 Q 0.435 -0.383 0.464 -0.4 Q 0.47300000000000003 -0.405 0.483 -0.40700000000000003 Q 0.462 -0.42 0.433 -0.42 Q 0.365 -0.42 0.337 -0.314 Q 0.335 -0.308 0.334 -0.302 Z"/></g><g transform="translate(3.849555555555556,20.34259259259259)"><path fill="rgb(97,97,97)" stroke="none" paint-order="stroke fill markers" d=" M 0.289 -0.25 L 0.289 -0.25 Q 0.289 -0.081 0.226 0.055 Q 0.17400000000000002 0.166 0.094 0.233 Q 0.073 0.25 0.067 0.25 Q 0.057 0.25 0.057 0.24 Q 0.057 0.23500000000000001 0.07 0.223 Q 0.231 0.059000000000000004 0.231 -0.25 Q 0.231 -0.555 0.081 -0.712 L 0.076 -0.717 Q 0.057 -0.735 0.057 -0.74 Q 0.057 -0.75 0.067 -0.75 Q 0.079 -0.75 0.12 -0.709 Q 0.182 -0.647 0.223 -0.562 Q 0.289 -0.426 0.289 -0.25 Z"/></g></g></g></g></svg>