<svg version="1.1" xmlns="http://www.w3.org/2000/svg" xmlns:xlink="http://www.w3.org/1999/xlink" width="1087" height="963"><defs><clipPath id="BMRUfdDbZwAX"><path fill="none" stroke="none" d=" M 0 0 L 1087 0 L 1087 963 L 0 963 L 0 0 Z"/></clipPath></defs><g transform="scale(1,1)" clip-path="url(#BMRUfdDbZwAX)"><g><rect fill="rgb(255,255,255)" stroke="none" x="0" y="0" width="1087" height="963" fill-opacity="1"/><path fill="none" stroke="rgb(192,192,192)" paint-order="fill stroke markers" d=" M 43.5 0.5 L 43.5 963.5 M 43.5 0.5 L 43.5 963.5 M 93.5 0.5 L 93.5 963.5 M 143.5 0.5 L 143.5 963.5 M 193.5 0.5 L 193.5 963.5 M 243.5 0.5 L 243.5 963.5 M 293.5 0.5 L 293.5 963.5 M 343.5 0.5 L 343.5 963.5 M 393.5 0.5 L 393.5 963.5 M 443.5 0.5 L 443.5 963.5 M 493.5 0.5 L 493.5 963.5 M 593.5 0.5 L 593.5 963.5 M 643.5 0.5 L 643.5 963.5 M 693.5 0.5 L 693.5 963.5 M 743.5 0.5 L 743.5 963.5 M 793.5 0.5 L 793.5 963.5 M 843.5 0.5 L 843.5 963.5 M 893.5 0.5 L 893.5 963.5 M 943.5 0.5 L 943.5 963.5 M 993.5 0.5 L 993.5 963.5 M 1043.5 0.5 L 1043.5 963.5" stroke-opacity="1" stroke-linecap="round" stroke-linejoin="round" stroke-miterlimit="10"/><path fill="none" stroke="rgb(192,192,192)" paint-order="fill stroke markers" d=" M 3.5 0.5 L 3.5 963.5 M 13.5 0.5 L 13.5 963.5 M 23.5 0.5 L 23.5 963.5 M 33.5 0.5 L 33.5 963.5 M 53.5 0.5 L 53.5 963.5 M 63.5 0.5 L 63.5 963.5 M 73.5 0.5 L 73.5 963.5 M 83.5 0.5 L 83.5 963.5 M 103.5 0.5 L 103.5 963.5 M 113.5 0.5 L 113.5 963.5 M 123.5 0.5 L 123.5 963.5 M 133.5 0.5 L 133.5 963.5 M 153.5 0.5 L 153.5 963.5 M 163.5 0.5 L 163.5 963.5 M 173.5 0.5 L 173.5 963.5 M 183.5 0.5 L 183.5 963.5 M 203.5 0.5 L 203.5 963.5 M 213.5 0.5 L 213.5 963.5 M 223.5 0.5 L 223.5 963.5 M 233.5 0.5 L 233.5 963.5 M 253.5 0.5 L 253.5 963.5 M 263.5 0.5 L 263.5 963.5 M 273.5 0.5 L 273.5 963.5 M 283.5 0.5 L 283.5 963.5 M 303.5 0.5 L 303.5 963.5 M 313.5 0.5 L 313.5 963.5 M 323.5 0.5 L 323.5 963.5 M 333.5 0.5 L 333.5 963.5 M 353.5 0.5 L 353.5 963.5 M 363.5 0.5 L 363.5 963.5 M 373.5 0.5 L 373.5 963.5 M 383.5 0.5 L 383.5 963.5 M 403.5 0.5 L 403.5 963.5 M 413.5 0.5 L 413.5 963.5 M 423.5 0.5 L 423.5 963.5 M 433.5 0.5 L 433.5 963.5 M 453.5 0.5 L 453.5 963.5 M 463.5 0.5 L 463.5 963.5 M 473.5 0.5 L 473.5 963.5 M 483.5 0.5 L 483.5 963.5 M 503.5 0.5 L 503.5 963.5 M 513.5 0.5 L 513.5 963.5 M 523.5 0.5 L 523.5 963.5 M 533.5 0.5 L 533.5 963.5 M 553.5 0.5 L 553.5 963.5 M 563.5 0.5 L 563.5 963.5 M 573.5 0.5 L 573.5 963.5 M 583.5 0.5 L 583.5 963.5 M 603.5 0.5 L 603.5 963.5 M 613.5 0.5 L 613.5 963.5 M 623.5 0.5 L 623.5 963.5 M 633.5 0.5 L 633.5 963.5 M 653.5 0.5 L 653.5 963.5 M 663.5 0.5 L 663.5 963.5 M 673.5 0.5 L 673.5 963.5 M 683.5 0.5 L 683.5 963.5 M 703.5 0.5 L 703.5 963.5 M 713.5 0.5 L 713.5 963.5 M 723.5 0.5 L 723.5 963.5 M 733.5 0.5 L 733.5 963.5 M 753.5 0.5 L 753.5 963.5 M 763.5 0.5 L 763.5 963.5 M 773.5 0.5 L 773.5 963.5 M 783.5 0.5 L 783.5 963.5 M 803.5 0.5 L 803.5 963.5 M 813.5 0.5 L 813.5 963.5 M 823.5 0.5 L 823.5 963.5 M 833.5 0.5 L 833.5 963.5 M 853.5 0.5 L 853.5 963.5 M 863.5 0.5 L 863.5 963.5 M 873.5 0.5 L 873.5 963.5 M 883.5 0.5 L 883.5 963.5 M 903.5 0.5 L 903.5 963.5 M 913.5 0.5 L 913.5 963.5 M 923.5 0.5 L 923.5 963.5 M 933.5 0.5 L 933.5 963.5 M 953.5 0.5 L 953.5 963.5 M 963.5 0.5 L 963.5 963.5 M 973.5 0.5 L 973.5 963.5 M 983.5 0.5 L 983.5 963.5 M 1003.5 0.5 L 1003.5 963.5 M 1013.5 0.5 L 1013.5 963.5 M 1023.5 0.5 L 1023.5 963.5 M 1033.5 0.5 L 1033.5 963.5 M 1053.5 0.5 L 1053.5 963.5 M 1063.5 0.5 L 1063.5 963.5 M 1073.5 0.5 L 1073.5 963.5 M 1083.5 0.5 L 1083.5 963.5" stroke-opacity="0.23529411764705882" stroke-linecap="round" stroke-linejoin="round" stroke-miterlimit="10"/><path fill="none" stroke="rgb(192,192,192)" paint-order="fill stroke markers" d=" M 0.5 31.5 L 1087.5 31.5 M 0.5 31.5 L 1087.5 31.5 M 0.5 81.5 L 1087.5 81.5 M 0.5 131.5 L 1087.5 131.5 M 0.5 181.5 L 1087.5 181.5 M 0.5 231.5 L 1087.5 231.5 M 0.5 281.5 L 1087.5 281.5 M 0.5 331.5 L 1087.5 331.5 M 0.5 381.5 L 1087.5 381.5 M 0.5 431.5 L 1087.5 431.5 M 0.5 531.5 L 1087.5 531.5 M 0.5 581.5 L 1087.5 581.5 M 0.5 631.5 L 1087.5 631.5 M 0.5 681.5 L 1087.5 681.5 M 0.5 731.5 L 1087.5 731.5 M 0.5 781.5 L 1087.5 781.5 M 0.5 831.5 L 1087.5 831.5 M 0.5 881.5 L 1087.5 881.5 M 0.5 931.5 L 1087.5 931.5" stroke-opacity="1" stroke-linecap="round" stroke-linejoin="round" stroke-miterlimit="10"/><path fill="none" stroke="rgb(192,192,192)" paint-order="fill stroke markers" d=" M 0.5 1.5 L 1087.5 1.5 M 0.5 1.5 L 1087.5 1.5 M 0.5 11.5 L 1087.5 11.5 M 0.5 21.5 L 1087.5 21.5 M 0.5 41.5 L 1087.5 41.5 M 0.5 51.5 L 1087.5 51.5 M 0.5 61.5 L 1087.5 61.5 M 0.5 71.5 L 1087.5 71.5 M 0.5 91.5 L 1087.5 91.5 M 0.5 101.5 L 1087.5 101.5 M 0.5 111.5 L 1087.5 111.5 M 0.5 121.5 L 1087.5 121.5 M 0.5 141.5 L 1087.5 141.5 M 0.5 151.5 L 1087.5 151.5 M 0.5 161.5 L 1087.5 161.5 M 0.5 171.5 L 1087.5 171.5 M 0.5 191.5 L 1087.5 191.5 M 0.5 201.5 L 1087.5 201.5 M 0.5 211.5 L 1087.5 211.5 M 0.5 221.5 L 1087.5 221.5 M 0.5 241.5 L 1087.5 241.5 M 0.5 251.5 L 1087.5 251.5 M 0.5 261.5 L 1087.5 261.5 M 0.5 271.5 L 1087.5 271.5 M 0.5 291.5 L 1087.5 291.5 M 0.5 301.5 L 1087.5 301.5 M 0.5 311.5 L 1087.5 311.5 M 0.5 321.5 L 1087.5 321.5 M 0.5 341.5 L 1087.5 341.5 M 0.5 351.5 L 1087.5 351.5 M 0.5 361.5 L 1087.5 361.5 M 0.5 371.5 L 1087.5 371.5 M 0.5 391.5 L 1087.5 391.5 M 0.5 401.5 L 1087.5 401.5 M 0.5 411.5 L 1087.5 411.5 M 0.5 421.5 L 1087.5 421.5 M 0.5 441.5 L 1087.5 441.5 M 0.5 451.5 L 1087.5 451.5 M 0.5 461.5 L 1087.5 461.5 M 0.5 471.5 L 1087.5 471.5 M 0.5 491.5 L 1087.5 491.5 M 0.5 501.5 L 1087.5 501.5 M 0.5 511.5 L 1087.5 511.5 M 0.5 521.5 L 1087.5 521.5 M 0.5 541.5 L 1087.5 541.5 M 0.5 551.5 L 1087.5 551.5 M 0.5 561.5 L 1087.5 561.5 M 0.5 571.5 L 1087.5 571.5 M 0.5 591.5 L 1087.5 591.5 M 0.5 601.5 L 1087.5 601.5 M 0.5 611.5 L 1087.5 611.5 M 0.5 621.5 L 1087.5 621.5 M 0.5 641.5 L 1087.5 641.5 M 0.5 651.5 L 1087.5 651.5 M 0.5 661.5 L 1087.5 661.5 M 0.5 671.5 L 1087.5 671.5 M 0.5 691.5 L 1087.5 691.5 M 0.5 701.5 L 1087.5 701.5 M 0.5 711.5 L 1087.5 711.5 M 0.5 721.5 L 1087.5 721.5 M 0.5 741.5 L 1087.5 741.5 M 0.5 751.5 L 1087.5 751.5 M 0.5 761.5 L 1087.5 761.5 M 0.5 771.5 L 1087.5 771.5 M 0.5 791.5 L 1087.5 791.5 M 0.5 801.5 L 1087.5 801.5 M 0.5 811.5 L 1087.5 811.5 M 0.5 821.5 L 1087.5 821.5 M 0.5 841.5 L 1087.5 841.5 M 0.5 851.5 L 1087.5 851.5 M 0.5 861.5 L 1087.5 861.5 M 0.5 871.5 L 1087.5 871.5 M 0.5 891.5 L 1087.5 891.5 M 0.5 901.5 L 1087.5 901.5 M 0.5 911.5 L 1087.5 911.5 M 0.5 921.5 L 1087.5 921.5 M 0.5 941.5 L 1087.5 941.5 M 0.5 951.5 L 1087.5 951.5 M 0.5 961.5 L 1087.5 961.5" stroke-opacity="0.23529411764705882" stroke-linecap="round" stroke-linejoin="round" stroke-miterlimit="10"/><path fill="none" stroke="rgb(37,37,37)" paint-order="fill stroke markers" d=" M 543.5 2.5 L 543.5 963.5" stroke-opacity="1" stroke-miterlimit="10"/><path fill="none" stroke="rgb(37,37,37)" paint-order="fill stroke markers" d=" M 543.5 1.5 L 537.5 7.5" stroke-opacity="1" stroke-miterlimit="10"/><path fill="none" stroke="rgb(37,37,37)" paint-order="fill stroke markers" d=" M 543.5 1.5 L 549.5 7.5" stroke-opacity="1" stroke-miterlimit="10"/><path fill="none" stroke="rgb(37,37,37)" paint-order="fill stroke markers" d=" M 0.5 481.5 L 1085.5 481.5" stroke-opacity="1" stroke-miterlimit="10"/><path fill="none" stroke="rgb(37,37,37)" paint-order="fill stroke markers" d=" M 1086.5 481.5 L 1080.5 475.5" stroke-opacity="1" stroke-miterlimit="10"/><path fill="none" stroke="rgb(37,37,37)" paint-order="fill stroke markers" d=" M 1086.5 481.5 L 1080.5 487.5" stroke-opacity="1" stroke-miterlimit="10"/><text fill="rgb(37,37,37)" stroke="none" font-family="geogebra-sans-serif, sans-serif" font-size="18px" font-style="normal" font-weight="normal" text-decoration="normal" x="31" y="503" text-anchor="start" dominant-baseline="alphabetic" fill-opacity="1">–10</text><text fill="none" stroke="rgb(255,255,255)" font-family="geogebra-sans-serif, sans-serif" font-size="18px" font-style="normal" font-weight="normal" text-decoration="normal" x="31" y="503" text-anchor="start" dominant-baseline="alphabetic" stroke-opacity="1" stroke-linejoin="bevel" stroke-miterlimit="10" stroke-width="3">–10</text><text fill="rgb(37,37,37)" stroke="none" font-family="geogebra-sans-serif, sans-serif" font-size="18px" font-style="normal" font-weight="normal" text-decoration="normal" x="31" y="503" text-anchor="start" dominant-baseline="alphabetic" fill-opacity="1">–10</text><text fill="rgb(37,37,37)" stroke="none" font-family="geogebra-sans-serif, sans-serif" font-size="18px" font-style="normal" font-weight="normal" text-decoration="normal" x="85" y="503" text-anchor="start" dominant-baseline="alphabetic" fill-opacity="1">–9</text><text fill="none" stroke="rgb(255,255,255)" font-family="geogebra-sans-serif, sans-serif" font-size="18px" font-style="normal" font-weight="normal" text-decoration="normal" x="85" y="503" text-anchor="start" dominant-baseline="alphabetic" stroke-opacity="1" stroke-linejoin="bevel" stroke-miterlimit="10" stroke-width="3">–9</text><text fill="rgb(37,37,37)" stroke="none" font-family="geogebra-sans-serif, sans-serif" font-size="18px" font-style="normal" font-weight="normal" text-decoration="normal" x="85" y="503" text-anchor="start" dominant-baseline="alphabetic" fill-opacity="1">–9</text><text fill="rgb(37,37,37)" stroke="none" font-family="geogebra-sans-serif, sans-serif" font-size="18px" font-style="normal" font-weight="normal" text-decoration="normal" x="135" y="503" text-anchor="start" dominant-baseline="alphabetic" fill-opacity="1">–8</text><text fill="none" stroke="rgb(255,255,255)" font-family="geogebra-sans-serif, sans-serif" font-size="18px" font-style="normal" font-weight="normal" text-decoration="normal" x="135" y="503" text-anchor="start" dominant-baseline="alphabetic" stroke-opacity="1" stroke-linejoin="bevel" stroke-miterlimit="10" stroke-width="3">–8</text><text fill="rgb(37,37,37)" stroke="none" font-family="geogebra-sans-serif, sans-serif" font-size="18px" font-style="normal" font-weight="normal" text-decoration="normal" x="135" y="503" text-anchor="start" dominant-baseline="alphabetic" fill-opacity="1">–8</text><text fill="rgb(37,37,37)" stroke="none" font-family="geogebra-sans-serif, sans-serif" font-size="18px" font-style="normal" font-weight="normal" text-decoration="normal" x="185" y="503" text-anchor="start" dominant-baseline="alphabetic" fill-opacity="1">–7</text><text fill="none" stroke="rgb(255,255,255)" font-family="geogebra-sans-serif, sans-serif" font-size="18px" font-style="normal" font-weight="normal" text-decoration="normal" x="185" y="503" text-anchor="start" dominant-baseline="alphabetic" stroke-opacity="1" stroke-linejoin="bevel" stroke-miterlimit="10" stroke-width="3">–7</text><text fill="rgb(37,37,37)" stroke="none" font-family="geogebra-sans-serif, sans-serif" font-size="18px" font-style="normal" font-weight="normal" text-decoration="normal" x="185" y="503" text-anchor="start" dominant-baseline="alphabetic" fill-opacity="1">–7</text><text fill="rgb(37,37,37)" stroke="none" font-family="geogebra-sans-serif, sans-serif" font-size="18px" font-style="normal" font-weight="normal" text-decoration="normal" x="235" y="503" text-anchor="start" dominant-baseline="alphabetic" fill-opacity="1">–6</text><text fill="none" stroke="rgb(255,255,255)" font-family="geogebra-sans-serif, sans-serif" font-size="18px" font-style="normal" font-weight="normal" text-decoration="normal" x="235" y="503" text-anchor="start" dominant-baseline="alphabetic" stroke-opacity="1" stroke-linejoin="bevel" stroke-miterlimit="10" stroke-width="3">–6</text><text fill="rgb(37,37,37)" stroke="none" font-family="geogebra-sans-serif, sans-serif" font-size="18px" font-style="normal" font-weight="normal" text-decoration="normal" x="235" y="503" text-anchor="start" dominant-baseline="alphabetic" fill-opacity="1">–6</text><text fill="rgb(37,37,37)" stroke="none" font-family="geogebra-sans-serif, sans-serif" font-size="18px" font-style="normal" font-weight="normal" text-decoration="normal" x="285" y="503" text-anchor="start" dominant-baseline="alphabetic" fill-opacity="1">–5</text><text fill="none" stroke="rgb(255,255,255)" font-family="geogebra-sans-serif, sans-serif" font-size="18px" font-style="normal" font-weight="normal" text-decoration="normal" x="285" y="503" text-anchor="start" dominant-baseline="alphabetic" stroke-opacity="1" stroke-linejoin="bevel" stroke-miterlimit="10" stroke-width="3">–5</text><text fill="rgb(37,37,37)" stroke="none" font-family="geogebra-sans-serif, sans-serif" font-size="18px" font-style="normal" font-weight="normal" text-decoration="normal" x="285" y="503" text-anchor="start" dominant-baseline="alphabetic" fill-opacity="1">–5</text><text fill="rgb(37,37,37)" stroke="none" font-family="geogebra-sans-serif, sans-serif" font-size="18px" font-style="normal" font-weight="normal" text-decoration="normal" x="335" y="503" text-anchor="start" dominant-baseline="alphabetic" fill-opacity="1">–4</text><text fill="none" stroke="rgb(255,255,255)" font-family="geogebra-sans-serif, sans-serif" font-size="18px" font-style="normal" font-weight="normal" text-decoration="normal" x="335" y="503" text-anchor="start" dominant-baseline="alphabetic" stroke-opacity="1" stroke-linejoin="bevel" stroke-miterlimit="10" stroke-width="3">–4</text><text fill="rgb(37,37,37)" stroke="none" font-family="geogebra-sans-serif, sans-serif" font-size="18px" font-style="normal" font-weight="normal" text-decoration="normal" x="335" y="503" text-anchor="start" dominant-baseline="alphabetic" fill-opacity="1">–4</text><text fill="rgb(37,37,37)" stroke="none" font-family="geogebra-sans-serif, sans-serif" font-size="18px" font-style="normal" font-weight="normal" text-decoration="normal" x="385" y="503" text-anchor="start" dominant-baseline="alphabetic" fill-opacity="1">–3</text><text fill="none" stroke="rgb(255,255,255)" font-family="geogebra-sans-serif, sans-serif" font-size="18px" font-style="normal" font-weight="normal" text-decoration="normal" x="385" y="503" text-anchor="start" dominant-baseline="alphabetic" stroke-opacity="1" stroke-linejoin="bevel" stroke-miterlimit="10" stroke-width="3">–3</text><text fill="rgb(37,37,37)" stroke="none" font-family="geogebra-sans-serif, sans-serif" font-size="18px" font-style="normal" font-weight="normal" text-decoration="normal" x="385" y="503" text-anchor="start" dominant-baseline="alphabetic" fill-opacity="1">–3</text><text fill="rgb(37,37,37)" stroke="none" font-family="geogebra-sans-serif, sans-serif" font-size="18px" font-style="normal" font-weight="normal" text-decoration="normal" x="435" y="503" text-anchor="start" dominant-baseline="alphabetic" fill-opacity="1">–2</text><text fill="none" stroke="rgb(255,255,255)" font-family="geogebra-sans-serif, sans-serif" font-size="18px" font-style="normal" font-weight="normal" text-decoration="normal" x="435" y="503" text-anchor="start" dominant-baseline="alphabetic" stroke-opacity="1" stroke-linejoin="bevel" stroke-miterlimit="10" stroke-width="3">–2</text><text fill="rgb(37,37,37)" stroke="none" font-family="geogebra-sans-serif, sans-serif" font-size="18px" font-style="normal" font-weight="normal" text-decoration="normal" x="435" y="503" text-anchor="start" dominant-baseline="alphabetic" fill-opacity="1">–2</text><text fill="rgb(37,37,37)" stroke="none" font-family="geogebra-sans-serif, sans-serif" font-size="18px" font-style="normal" font-weight="normal" text-decoration="normal" x="485" y="503" text-anchor="start" dominant-baseline="alphabetic" fill-opacity="1">–1</text><text fill="none" stroke="rgb(255,255,255)" font-family="geogebra-sans-serif, sans-serif" font-size="18px" font-style="normal" font-weight="normal" text-decoration="normal" x="485" y="503" text-anchor="start" dominant-baseline="alphabetic" stroke-opacity="1" stroke-linejoin="bevel" stroke-miterlimit="10" stroke-width="3">–1</text><text fill="rgb(37,37,37)" stroke="none" font-family="geogebra-sans-serif, sans-serif" font-size="18px" font-style="normal" font-weight="normal" text-decoration="normal" x="485" y="503" text-anchor="start" dominant-baseline="alphabetic" fill-opacity="1">–1</text><text fill="rgb(37,37,37)" stroke="none" font-family="geogebra-sans-serif, sans-serif" font-size="18px" font-style="normal" font-weight="normal" text-decoration="normal" x="590" y="503" text-anchor="start" dominant-baseline="alphabetic" fill-opacity="1">1</text><text fill="none" stroke="rgb(255,255,255)" font-family="geogebra-sans-serif, sans-serif" font-size="18px" font-style="normal" font-weight="normal" text-decoration="normal" x="590" y="503" text-anchor="start" dominant-baseline="alphabetic" stroke-opacity="1" stroke-linejoin="bevel" stroke-miterlimit="10" stroke-width="3">1</text><text fill="rgb(37,37,37)" stroke="none" font-family="geogebra-sans-serif, sans-serif" font-size="18px" font-style="normal" font-weight="normal" text-decoration="normal" x="590" y="503" text-anchor="start" dominant-baseline="alphabetic" fill-opacity="1">1</text><text fill="rgb(37,37,37)" stroke="none" font-family="geogebra-sans-serif, sans-serif" font-size="18px" font-style="normal" font-weight="normal" text-decoration="normal" x="640" y="503" text-anchor="start" dominant-baseline="alphabetic" fill-opacity="1">2</text><text fill="none" stroke="rgb(255,255,255)" font-family="geogebra-sans-serif, sans-serif" font-size="18px" font-style="normal" font-weight="normal" text-decoration="normal" x="640" y="503" text-anchor="start" dominant-baseline="alphabetic" stroke-opacity="1" stroke-linejoin="bevel" stroke-miterlimit="10" stroke-width="3">2</text><text fill="rgb(37,37,37)" stroke="none" font-family="geogebra-sans-serif, sans-serif" font-size="18px" font-style="normal" font-weight="normal" text-decoration="normal" x="640" y="503" text-anchor="start" dominant-baseline="alphabetic" fill-opacity="1">2</text><text fill="rgb(37,37,37)" stroke="none" font-family="geogebra-sans-serif, sans-serif" font-size="18px" font-style="normal" font-weight="normal" text-decoration="normal" x="690" y="503" text-anchor="start" dominant-baseline="alphabetic" fill-opacity="1">3</text><text fill="none" stroke="rgb(255,255,255)" font-family="geogebra-sans-serif, sans-serif" font-size="18px" font-style="normal" font-weight="normal" text-decoration="normal" x="690" y="503" text-anchor="start" dominant-baseline="alphabetic" stroke-opacity="1" stroke-linejoin="bevel" stroke-miterlimit="10" stroke-width="3">3</text><text fill="rgb(37,37,37)" stroke="none" font-family="geogebra-sans-serif, sans-serif" font-size="18px" font-style="normal" font-weight="normal" text-decoration="normal" x="690" y="503" text-anchor="start" dominant-baseline="alphabetic" fill-opacity="1">3</text><text fill="rgb(37,37,37)" stroke="none" font-family="geogebra-sans-serif, sans-serif" font-size="18px" font-style="normal" font-weight="normal" text-decoration="normal" x="740" y="503" text-anchor="start" dominant-baseline="alphabetic" fill-opacity="1">4</text><text fill="none" stroke="rgb(255,255,255)" font-family="geogebra-sans-serif, sans-serif" font-size="18px" font-style="normal" font-weight="normal" text-decoration="normal" x="740" y="503" text-anchor="start" dominant-baseline="alphabetic" stroke-opacity="1" stroke-linejoin="bevel" stroke-miterlimit="10" stroke-width="3">4</text><text fill="rgb(37,37,37)" stroke="none" font-family="geogebra-sans-serif, sans-serif" font-size="18px" font-style="normal" font-weight="normal" text-decoration="normal" x="740" y="503" text-anchor="start" dominant-baseline="alphabetic" fill-opacity="1">4</text><text fill="rgb(37,37,37)" stroke="none" font-family="geogebra-sans-serif, sans-serif" font-size="18px" font-style="normal" font-weight="normal" text-decoration="normal" x="790" y="503" text-anchor="start" dominant-baseline="alphabetic" fill-opacity="1">5</text><text fill="none" stroke="rgb(255,255,255)" font-family="geogebra-sans-serif, sans-serif" font-size="18px" font-style="normal" font-weight="normal" text-decoration="normal" x="790" y="503" text-anchor="start" dominant-baseline="alphabetic" stroke-opacity="1" stroke-linejoin="bevel" stroke-miterlimit="10" stroke-width="3">5</text><text fill="rgb(37,37,37)" stroke="none" font-family="geogebra-sans-serif, sans-serif" font-size="18px" font-style="normal" font-weight="normal" text-decoration="normal" x="790" y="503" text-anchor="start" dominant-baseline="alphabetic" fill-opacity="1">5</text><text fill="rgb(37,37,37)" stroke="none" font-family="geogebra-sans-serif, sans-serif" font-size="18px" font-style="normal" font-weight="normal" text-decoration="normal" x="840" y="503" text-anchor="start" dominant-baseline="alphabetic" fill-opacity="1">6</text><text fill="none" stroke="rgb(255,255,255)" font-family="geogebra-sans-serif, sans-serif" font-size="18px" font-style="normal" font-weight="normal" text-decoration="normal" x="840" y="503" text-anchor="start" dominant-baseline="alphabetic" stroke-opacity="1" stroke-linejoin="bevel" stroke-miterlimit="10" stroke-width="3">6</text><text fill="rgb(37,37,37)" stroke="none" font-family="geogebra-sans-serif, sans-serif" font-size="18px" font-style="normal" font-weight="normal" text-decoration="normal" x="840" y="503" text-anchor="start" dominant-baseline="alphabetic" fill-opacity="1">6</text><text fill="rgb(37,37,37)" stroke="none" font-family="geogebra-sans-serif, sans-serif" font-size="18px" font-style="normal" font-weight="normal" text-decoration="normal" x="890" y="503" text-anchor="start" dominant-baseline="alphabetic" fill-opacity="1">7</text><text fill="none" stroke="rgb(255,255,255)" font-family="geogebra-sans-serif, sans-serif" font-size="18px" font-style="normal" font-weight="normal" text-decoration="normal" x="890" y="503" text-anchor="start" dominant-baseline="alphabetic" stroke-opacity="1" stroke-linejoin="bevel" stroke-miterlimit="10" stroke-width="3">7</text><text fill="rgb(37,37,37)" stroke="none" font-family="geogebra-sans-serif, sans-serif" font-size="18px" font-style="normal" font-weight="normal" text-decoration="normal" x="890" y="503" text-anchor="start" dominant-baseline="alphabetic" fill-opacity="1">7</text><text fill="rgb(37,37,37)" stroke="none" font-family="geogebra-sans-serif, sans-serif" font-size="18px" font-style="normal" font-weight="normal" text-decoration="normal" x="940" y="503" text-anchor="start" dominant-baseline="alphabetic" fill-opacity="1">8</text><text fill="none" stroke="rgb(255,255,255)" font-family="geogebra-sans-serif, sans-serif" font-size="18px" font-style="normal" font-weight="normal" text-decoration="normal" x="940" y="503" text-anchor="start" dominant-baseline="alphabetic" stroke-opacity="1" stroke-linejoin="bevel" stroke-miterlimit="10" stroke-width="3">8</text><text fill="rgb(37,37,37)" stroke="none" font-family="geogebra-sans-serif, sans-serif" font-size="18px" font-style="normal" font-weight="normal" text-decoration="normal" x="940" y="503" text-anchor="start" dominant-baseline="alphabetic" fill-opacity="1">8</text><text fill="rgb(37,37,37)" stroke="none" font-family="geogebra-sans-serif, sans-serif" font-size="18px" font-style="normal" font-weight="normal" text-decoration="normal" x="990" y="503" text-anchor="start" dominant-baseline="alphabetic" fill-opacity="1">9</text><text fill="none" stroke="rgb(255,255,255)" font-family="geogebra-sans-serif, sans-serif" font-size="18px" font-style="normal" font-weight="normal" text-decoration="normal" x="990" y="503" text-anchor="start" dominant-baseline="alphabetic" stroke-opacity="1" stroke-linejoin="bevel" stroke-miterlimit="10" stroke-width="3">9</text><text fill="rgb(37,37,37)" stroke="none" font-family="geogebra-sans-serif, sans-serif" font-size="18px" font-style="normal" font-weight="normal" text-decoration="normal" x="990" y="503" text-anchor="start" dominant-baseline="alphabetic" fill-opacity="1">9</text><text fill="rgb(37,37,37)" stroke="none" font-family="geogebra-sans-serif, sans-serif" font-size="18px" font-style="normal" font-weight="normal" text-decoration="normal" x="1035" y="503" text-anchor="start" dominant-baseline="alphabetic" fill-opacity="1">10</text><text fill="none" stroke="rgb(255,255,255)" font-family="geogebra-sans-serif, sans-serif" font-size="18px" font-style="normal" font-weight="normal" text-decoration="normal" x="1035" y="503" text-anchor="start" dominant-baseline="alphabetic" stroke-opacity="1" stroke-linejoin="bevel" stroke-miterlimit="10" stroke-width="3">10</text><text fill="rgb(37,37,37)" stroke="none" font-family="geogebra-sans-serif, sans-serif" font-size="18px" font-style="normal" font-weight="normal" text-decoration="normal" x="1035" y="503" text-anchor="start" dominant-baseline="alphabetic" fill-opacity="1">10</text><text fill="rgb(37,37,37)" stroke="none" font-family="geogebra-sans-serif, sans-serif" font-size="18px" font-style="normal" font-weight="normal" text-decoration="normal" x="515" y="939" text-anchor="start" dominant-baseline="alphabetic" fill-opacity="1">–9</text><text fill="none" stroke="rgb(255,255,255)" font-family="geogebra-sans-serif, sans-serif" font-size="18px" font-style="normal" font-weight="normal" text-decoration="normal" x="515" y="939" text-anchor="start" dominant-baseline="alphabetic" stroke-opacity="1" stroke-linejoin="bevel" stroke-miterlimit="10" stroke-width="3">–9</text><text fill="rgb(37,37,37)" stroke="none" font-family="geogebra-sans-serif, sans-serif" font-size="18px" font-style="normal" font-weight="normal" text-decoration="normal" x="515" y="939" text-anchor="start" dominant-baseline="alphabetic" fill-opacity="1">–9</text><text fill="rgb(37,37,37)" stroke="none" font-family="geogebra-sans-serif, sans-serif" font-size="18px" font-style="normal" font-weight="normal" text-decoration="normal" x="515" y="889" text-anchor="start" dominant-baseline="alphabetic" fill-opacity="1">–8</text><text fill="none" stroke="rgb(255,255,255)" font-family="geogebra-sans-serif, sans-serif" font-size="18px" font-style="normal" font-weight="normal" text-decoration="normal" x="515" y="889" text-anchor="start" dominant-baseline="alphabetic" stroke-opacity="1" stroke-linejoin="bevel" stroke-miterlimit="10" stroke-width="3">–8</text><text fill="rgb(37,37,37)" stroke="none" font-family="geogebra-sans-serif, sans-serif" font-size="18px" font-style="normal" font-weight="normal" text-decoration="normal" x="515" y="889" text-anchor="start" dominant-baseline="alphabetic" fill-opacity="1">–8</text><text fill="rgb(37,37,37)" stroke="none" font-family="geogebra-sans-serif, sans-serif" font-size="18px" font-style="normal" font-weight="normal" text-decoration="normal" x="515" y="839" text-anchor="start" dominant-baseline="alphabetic" fill-opacity="1">–7</text><text fill="none" stroke="rgb(255,255,255)" font-family="geogebra-sans-serif, sans-serif" font-size="18px" font-style="normal" font-weight="normal" text-decoration="normal" x="515" y="839" text-anchor="start" dominant-baseline="alphabetic" stroke-opacity="1" stroke-linejoin="bevel" stroke-miterlimit="10" stroke-width="3">–7</text><text fill="rgb(37,37,37)" stroke="none" font-family="geogebra-sans-serif, sans-serif" font-size="18px" font-style="normal" font-weight="normal" text-decoration="normal" x="515" y="839" text-anchor="start" dominant-baseline="alphabetic" fill-opacity="1">–7</text><text fill="rgb(37,37,37)" stroke="none" font-family="geogebra-sans-serif, sans-serif" font-size="18px" font-style="normal" font-weight="normal" text-decoration="normal" x="515" y="789" text-anchor="start" dominant-baseline="alphabetic" fill-opacity="1">–6</text><text fill="none" stroke="rgb(255,255,255)" font-family="geogebra-sans-serif, sans-serif" font-size="18px" font-style="normal" font-weight="normal" text-decoration="normal" x="515" y="789" text-anchor="start" dominant-baseline="alphabetic" stroke-opacity="1" stroke-linejoin="bevel" stroke-miterlimit="10" stroke-width="3">–6</text><text fill="rgb(37,37,37)" stroke="none" font-family="geogebra-sans-serif, sans-serif" font-size="18px" font-style="normal" font-weight="normal" text-decoration="normal" x="515" y="789" text-anchor="start" dominant-baseline="alphabetic" fill-opacity="1">–6</text><text fill="rgb(37,37,37)" stroke="none" font-family="geogebra-sans-serif, sans-serif" font-size="18px" font-style="normal" font-weight="normal" text-decoration="normal" x="515" y="739" text-anchor="start" dominant-baseline="alphabetic" fill-opacity="1">–5</text><text fill="none" stroke="rgb(255,255,255)" font-family="geogebra-sans-serif, sans-serif" font-size="18px" font-style="normal" font-weight="normal" text-decoration="normal" x="515" y="739" text-anchor="start" dominant-baseline="alphabetic" stroke-opacity="1" stroke-linejoin="bevel" stroke-miterlimit="10" stroke-width="3">–5</text><text fill="rgb(37,37,37)" stroke="none" font-family="geogebra-sans-serif, sans-serif" font-size="18px" font-style="normal" font-weight="normal" text-decoration="normal" x="515" y="739" text-anchor="start" dominant-baseline="alphabetic" fill-opacity="1">–5</text><text fill="rgb(37,37,37)" stroke="none" font-family="geogebra-sans-serif, sans-serif" font-size="18px" font-style="normal" font-weight="normal" text-decoration="normal" x="515" y="689" text-anchor="start" dominant-baseline="alphabetic" fill-opacity="1">–4</text><text fill="none" stroke="rgb(255,255,255)" font-family="geogebra-sans-serif, sans-serif" font-size="18px" font-style="normal" font-weight="normal" text-decoration="normal" x="515" y="689" text-anchor="start" dominant-baseline="alphabetic" stroke-opacity="1" stroke-linejoin="bevel" stroke-miterlimit="10" stroke-width="3">–4</text><text fill="rgb(37,37,37)" stroke="none" font-family="geogebra-sans-serif, sans-serif" font-size="18px" font-style="normal" font-weight="normal" text-decoration="normal" x="515" y="689" text-anchor="start" dominant-baseline="alphabetic" fill-opacity="1">–4</text><text fill="rgb(37,37,37)" stroke="none" font-family="geogebra-sans-serif, sans-serif" font-size="18px" font-style="normal" font-weight="normal" text-decoration="normal" x="515" y="639" text-anchor="start" dominant-baseline="alphabetic" fill-opacity="1">–3</text><text fill="none" stroke="rgb(255,255,255)" font-family="geogebra-sans-serif, sans-serif" font-size="18px" font-style="normal" font-weight="normal" text-decoration="normal" x="515" y="639" text-anchor="start" dominant-baseline="alphabetic" stroke-opacity="1" stroke-linejoin="bevel" stroke-miterlimit="10" stroke-width="3">–3</text><text fill="rgb(37,37,37)" stroke="none" font-family="geogebra-sans-serif, sans-serif" font-size="18px" font-style="normal" font-weight="normal" text-decoration="normal" x="515" y="639" text-anchor="start" dominant-baseline="alphabetic" fill-opacity="1">–3</text><text fill="rgb(37,37,37)" stroke="none" font-family="geogebra-sans-serif, sans-serif" font-size="18px" font-style="normal" font-weight="normal" text-decoration="normal" x="515" y="589" text-anchor="start" dominant-baseline="alphabetic" fill-opacity="1">–2</text><text fill="none" stroke="rgb(255,255,255)" font-family="geogebra-sans-serif, sans-serif" font-size="18px" font-style="normal" font-weight="normal" text-decoration="normal" x="515" y="589" text-anchor="start" dominant-baseline="alphabetic" stroke-opacity="1" stroke-linejoin="bevel" stroke-miterlimit="10" stroke-width="3">–2</text><text fill="rgb(37,37,37)" stroke="none" font-family="geogebra-sans-serif, sans-serif" font-size="18px" font-style="normal" font-weight="normal" text-decoration="normal" x="515" y="589" text-anchor="start" dominant-baseline="alphabetic" fill-opacity="1">–2</text><text fill="rgb(37,37,37)" stroke="none" font-family="geogebra-sans-serif, sans-serif" font-size="18px" font-style="normal" font-weight="normal" text-decoration="normal" x="515" y="539" text-anchor="start" dominant-baseline="alphabetic" fill-opacity="1">–1</text><text fill="none" stroke="rgb(255,255,255)" font-family="geogebra-sans-serif, sans-serif" font-size="18px" font-style="normal" font-weight="normal" text-decoration="normal" x="515" y="539" text-anchor="start" dominant-baseline="alphabetic" stroke-opacity="1" stroke-linejoin="bevel" stroke-miterlimit="10" stroke-width="3">–1</text><text fill="rgb(37,37,37)" stroke="none" font-family="geogebra-sans-serif, sans-serif" font-size="18px" font-style="normal" font-weight="normal" text-decoration="normal" x="515" y="539" text-anchor="start" dominant-baseline="alphabetic" fill-opacity="1">–1</text><text fill="rgb(37,37,37)" stroke="none" font-family="geogebra-sans-serif, sans-serif" font-size="18px" font-style="normal" font-weight="normal" text-decoration="normal" x="525" y="439" text-anchor="start" dominant-baseline="alphabetic" fill-opacity="1">1</text><text fill="none" stroke="rgb(255,255,255)" font-family="geogebra-sans-serif, sans-serif" font-size="18px" font-style="normal" font-weight="normal" text-decoration="normal" x="525" y="439" text-anchor="start" dominant-baseline="alphabetic" stroke-opacity="1" stroke-linejoin="bevel" stroke-miterlimit="10" stroke-width="3">1</text><text fill="rgb(37,37,37)" stroke="none" font-family="geogebra-sans-serif, sans-serif" font-size="18px" font-style="normal" font-weight="normal" text-decoration="normal" x="525" y="439" text-anchor="start" dominant-baseline="alphabetic" fill-opacity="1">1</text><text fill="rgb(37,37,37)" stroke="none" font-family="geogebra-sans-serif, sans-serif" font-size="18px" font-style="normal" font-weight="normal" text-decoration="normal" x="525" y="389" text-anchor="start" dominant-baseline="alphabetic" fill-opacity="1">2</text><text fill="none" stroke="rgb(255,255,255)" font-family="geogebra-sans-serif, sans-serif" font-size="18px" font-style="normal" font-weight="normal" text-decoration="normal" x="525" y="389" text-anchor="start" dominant-baseline="alphabetic" stroke-opacity="1" stroke-linejoin="bevel" stroke-miterlimit="10" stroke-width="3">2</text><text fill="rgb(37,37,37)" stroke="none" font-family="geogebra-sans-serif, sans-serif" font-size="18px" font-style="normal" font-weight="normal" text-decoration="normal" x="525" y="389" text-anchor="start" dominant-baseline="alphabetic" fill-opacity="1">2</text><text fill="rgb(37,37,37)" stroke="none" font-family="geogebra-sans-serif, sans-serif" font-size="18px" font-style="normal" font-weight="normal" text-decoration="normal" x="525" y="339" text-anchor="start" dominant-baseline="alphabetic" fill-opacity="1">3</text><text fill="none" stroke="rgb(255,255,255)" font-family="geogebra-sans-serif, sans-serif" font-size="18px" font-style="normal" font-weight="normal" text-decoration="normal" x="525" y="339" text-anchor="start" dominant-baseline="alphabetic" stroke-opacity="1" stroke-linejoin="bevel" stroke-miterlimit="10" stroke-width="3">3</text><text fill="rgb(37,37,37)" stroke="none" font-family="geogebra-sans-serif, sans-serif" font-size="18px" font-style="normal" font-weight="normal" text-decoration="normal" x="525" y="339" text-anchor="start" dominant-baseline="alphabetic" fill-opacity="1">3</text><text fill="rgb(37,37,37)" stroke="none" font-family="geogebra-sans-serif, sans-serif" font-size="18px" font-style="normal" font-weight="normal" text-decoration="normal" x="525" y="289" text-anchor="start" dominant-baseline="alphabetic" fill-opacity="1">4</text><text fill="none" stroke="rgb(255,255,255)" font-family="geogebra-sans-serif, sans-serif" font-size="18px" font-style="normal" font-weight="normal" text-decoration="normal" x="525" y="289" text-anchor="start" dominant-baseline="alphabetic" stroke-opacity="1" stroke-linejoin="bevel" stroke-miterlimit="10" stroke-width="3">4</text><text fill="rgb(37,37,37)" stroke="none" font-family="geogebra-sans-serif, sans-serif" font-size="18px" font-style="normal" font-weight="normal" text-decoration="normal" x="525" y="289" text-anchor="start" dominant-baseline="alphabetic" fill-opacity="1">4</text><text fill="rgb(37,37,37)" stroke="none" font-family="geogebra-sans-serif, sans-serif" font-size="18px" font-style="normal" font-weight="normal" text-decoration="normal" x="525" y="239" text-anchor="start" dominant-baseline="alphabetic" fill-opacity="1">5</text><text fill="none" stroke="rgb(255,255,255)" font-family="geogebra-sans-serif, sans-serif" font-size="18px" font-style="normal" font-weight="normal" text-decoration="normal" x="525" y="239" text-anchor="start" dominant-baseline="alphabetic" stroke-opacity="1" stroke-linejoin="bevel" stroke-miterlimit="10" stroke-width="3">5</text><text fill="rgb(37,37,37)" stroke="none" font-family="geogebra-sans-serif, sans-serif" font-size="18px" font-style="normal" font-weight="normal" text-decoration="normal" x="525" y="239" text-anchor="start" dominant-baseline="alphabetic" fill-opacity="1">5</text><text fill="rgb(37,37,37)" stroke="none" font-family="geogebra-sans-serif, sans-serif" font-size="18px" font-style="normal" font-weight="normal" text-decoration="normal" x="525" y="189" text-anchor="start" dominant-baseline="alphabetic" fill-opacity="1">6</text><text fill="none" stroke="rgb(255,255,255)" font-family="geogebra-sans-serif, sans-serif" font-size="18px" font-style="normal" font-weight="normal" text-decoration="normal" x="525" y="189" text-anchor="start" dominant-baseline="alphabetic" stroke-opacity="1" stroke-linejoin="bevel" stroke-miterlimit="10" stroke-width="3">6</text><text fill="rgb(37,37,37)" stroke="none" font-family="geogebra-sans-serif, sans-serif" font-size="18px" font-style="normal" font-weight="normal" text-decoration="normal" x="525" y="189" text-anchor="start" dominant-baseline="alphabetic" fill-opacity="1">6</text><text fill="rgb(37,37,37)" stroke="none" font-family="geogebra-sans-serif, sans-serif" font-size="18px" font-style="normal" font-weight="normal" text-decoration="normal" x="525" y="139" text-anchor="start" dominant-baseline="alphabetic" fill-opacity="1">7</text><text fill="none" stroke="rgb(255,255,255)" font-family="geogebra-sans-serif, sans-serif" font-size="18px" font-style="normal" font-weight="normal" text-decoration="normal" x="525" y="139" text-anchor="start" dominant-baseline="alphabetic" stroke-opacity="1" stroke-linejoin="bevel" stroke-miterlimit="10" stroke-width="3">7</text><text fill="rgb(37,37,37)" stroke="none" font-family="geogebra-sans-serif, sans-serif" font-size="18px" font-style="normal" font-weight="normal" text-decoration="normal" x="525" y="139" text-anchor="start" dominant-baseline="alphabetic" fill-opacity="1">7</text><text fill="rgb(37,37,37)" stroke="none" font-family="geogebra-sans-serif, sans-serif" font-size="18px" font-style="normal" font-weight="normal" text-decoration="normal" x="525" y="89" text-anchor="start" dominant-baseline="alphabetic" fill-opacity="1">8</text><text fill="none" stroke="rgb(255,255,255)" font-family="geogebra-sans-serif, sans-serif" font-size="18px" font-style="normal" font-weight="normal" text-decoration="normal" x="525" y="89" text-anchor="start" dominant-baseline="alphabetic" stroke-opacity="1" stroke-linejoin="bevel" stroke-miterlimit="10" stroke-width="3">8</text><text fill="rgb(37,37,37)" stroke="none" font-family="geogebra-sans-serif, sans-serif" font-size="18px" font-style="normal" font-weight="normal" text-decoration="normal" x="525" y="89" text-anchor="start" dominant-baseline="alphabetic" fill-opacity="1">8</text><text fill="rgb(37,37,37)" stroke="none" font-family="geogebra-sans-serif, sans-serif" font-size="18px" font-style="normal" font-weight="normal" text-decoration="normal" x="525" y="39" text-anchor="start" dominant-baseline="alphabetic" fill-opacity="1">9</text><text fill="none" stroke="rgb(255,255,255)" font-family="geogebra-sans-serif, sans-serif" font-size="18px" font-style="normal" font-weight="normal" text-decoration="normal" x="525" y="39" text-anchor="start" dominant-baseline="alphabetic" stroke-opacity="1" stroke-linejoin="bevel" stroke-miterlimit="10" stroke-width="3">9</text><text fill="rgb(37,37,37)" stroke="none" font-family="geogebra-sans-serif, sans-serif" font-size="18px" font-style="normal" font-weight="normal" text-decoration="normal" x="525" y="39" text-anchor="start" dominant-baseline="alphabetic" fill-opacity="1">9</text><text fill="rgb(37,37,37)" stroke="none" font-family="geogebra-sans-serif, sans-serif" font-size="18px" font-style="normal" font-weight="normal" text-decoration="normal" x="525" y="503" text-anchor="start" dominant-baseline="alphabetic" fill-opacity="1">0</text><text fill="none" stroke="rgb(255,255,255)" font-family="geogebra-sans-serif, sans-serif" font-size="18px" font-style="normal" font-weight="normal" text-decoration="normal" x="525" y="503" text-anchor="start" dominant-baseline="alphabetic" stroke-opacity="1" stroke-linejoin="bevel" stroke-miterlimit="10" stroke-width="3">0</text><text fill="rgb(37,37,37)" stroke="none" font-family="geogebra-sans-serif, sans-serif" font-size="18px" font-style="normal" font-weight="normal" text-decoration="normal" x="525" y="503" text-anchor="start" dominant-baseline="alphabetic" fill-opacity="1">0</text><path fill="none" stroke="rgb(211,47,47)" paint-order="fill stroke markers" d=" M 0.5 481.4990394235592 L 0.5 481.49905844424717 L 0.5 481.4990394235592 L 1.5000000000001137 481.4990200186279 L 1.5000000000001137 481.4990200186279 L 2.5 481.499000221691 L 2.5 481.499000221691 L 3.5 481.49898002482945 L 3.5 481.49898002482945 L 4.5 481.4989594199642 L 4.5 481.4989594199642 L 5.500000000000114 481.49893839885306 L 5.500000000000114 481.49893839885306 L 6.5 481.49891695308736 L 6.5 481.49891695308736 L 7.5 481.4988950740884 L 7.5 481.4988950740884 L 8.5 481.49887275310437 L 8.5 481.49887275310437 L 9.500000000000114 481.4988499812065 L 9.500000000000114 481.4988499812065 L 10.5 481.4988267492858 L 10.5 481.4988267492858 L 11.5 481.4988030480492 L 11.5 481.4988030480492 L 12.5 481.49877886801585 L 12.5 481.49877886801585 L 13.500000000000114 481.4987541995134 L 13.500000000000114 481.4987541995134 L 14.5 481.4987290326742 L 14.5 481.4987290326742 L 15.5 481.49870335743105 L 15.5 481.49870335743105 L 16.5 481.49867716351366 L 16.5 481.49867716351366 L 17.500000000000114 481.498650440444 L 17.500000000000114 481.498650440444 L 18.5 481.4986231775325 L 18.5 481.4986231775325 L 19.5 481.4985953638737 L 19.5 481.4985953638737 L 20.5 481.4985669883417 L 20.5 481.4985669883417 L 21.500000000000114 481.4985380395859 L 21.500000000000114 481.4985380395859 L 22.5 481.4985085060265 L 22.5 481.4985085060265 L 23.5 481.4984783758496 L 23.5 481.4984783758496 L 24.5 481.4984476370027 L 24.5 481.4984476370027 L 25.500000000000114 481.49841627718996 L 25.500000000000114 481.49841627718996 L 26.5 481.498384283867 L 26.5 481.498384283867 L 27.5 481.498351644236 L 27.5 481.498351644236 L 28.5 481.4983183452407 L 28.5 481.4983183452407 L 29.500000000000114 481.4982843735611 L 29.500000000000114 481.4982843735611 L 30.5 481.49824971560804 L 30.5 481.49824971560804 L 31.500000000000057 481.4982143575179 L 31.500000000000057 481.4982143575179 L 32.5 481.498178285147 L 32.5 481.498178285147 L 33.5 481.4981414840658 L 33.5 481.4981414840658 L 34.50000000000006 481.49810393955346 L 34.50000000000006 481.49810393955346 L 35.50000000000006 481.49806563659166 L 35.50000000000006 481.49806563659166 L 36.5 481.4980265598587 L 36.5 481.4980265598587 L 37.5 481.4979866937234 L 37.5 481.4979866937234 L 38.50000000000006 481.49794602223875 L 38.50000000000006 481.49794602223875 L 39.50000000000006 481.49790452913555 L 39.50000000000006 481.49790452913555 L 40.5 481.4978621978161 L 40.5 481.4978621978161 L 41.5 481.4978190113473 L 41.5 481.4978190113473 L 42.50000000000006 481.49777495245394 L 42.50000000000006 481.49777495245394 L 43.50000000000006 481.4977300035119 L 43.50000000000006 481.4977300035119 L 44.5 481.49768414654096 L 44.5 481.49768414654096 L 45.5 481.4976373631978 L 45.5 481.4976373631978 L 46.50000000000006 481.49758963476836 L 46.50000000000006 481.49758963476836 L 47.50000000000006 481.49754094216075 L 47.50000000000006 481.49754094216075 L 48.5 481.49749126589717 L 48.5 481.49749126589717 L 49.5 481.49744058610656 L 49.5 481.49744058610656 L 50.50000000000006 481.4973888825162 L 50.50000000000006 481.4973888825162 L 51.50000000000006 481.4973361344441 L 51.50000000000006 481.4973361344441 L 52.5 481.4972823207902 L 52.5 481.4972823207902 L 53.5 481.49722742002837 L 53.5 481.49722742002837 L 54.50000000000006 481.4971714101976 L 54.50000000000006 481.4971714101976 L 55.50000000000006 481.49711426889326 L 55.50000000000006 481.49711426889326 L 56.5 481.49705597325794 L 56.5 481.49705597325794 L 57.5 481.4969964999727 L 57.5 481.4969964999727 L 58.50000000000006 481.49693582524736 L 58.50000000000006 481.49693582524736 L 59.50000000000006 481.49687392481127 L 59.50000000000006 481.49687392481127 L 60.5 481.4968107739034 L 60.5 481.4968107739034 L 61.5 481.4967463472626 L 61.5 481.4967463472626 L 62.50000000000006 481.49668061911734 L 62.50000000000006 481.49668061911734 L 63.50000000000006 481.49661356317546 L 63.50000000000006 481.49661356317546 L 64.5 481.4965451526137 L 64.5 481.4965451526137 L 65.5 481.4964753600669 L 65.5 481.4964753600669 L 66.50000000000006 481.4964041576171 L 66.50000000000006 481.4964041576171 L 67.50000000000006 481.49633151678245 L 67.50000000000006 481.49633151678245 L 68.5 481.49625740850564 L 68.5 481.49625740850564 L 69.5 481.49618180314224 L 69.5 481.49618180314224 L 70.50000000000006 481.49610467044926 L 70.50000000000006 481.49610467044926 L 71.50000000000006 481.4960259795725 L 71.50000000000006 481.4960259795725 L 72.5 481.49594569903456 L 72.5 481.49594569903456 L 73.5 481.4958637967222 L 73.5 481.4958637967222 L 74.5 481.49578023987334 L 74.5 481.49578023987334 L 75.50000000000006 481.4956949950642 L 75.50000000000006 481.4956949950642 L 76.50000000000006 481.49560802819565 L 76.50000000000006 481.49560802819565 L 77.5 481.49551930447984 L 77.5 481.49551930447984 L 78.5 481.49542878842607 L 78.5 481.49542878842607 L 79.50000000000006 481.4953364438268 L 79.50000000000006 481.4953364438268 L 80.50000000000006 481.4952422337428 L 80.50000000000006 481.4952422337428 L 81.5 481.4951461204888 L 81.5 481.4951461204888 L 82.5 481.4950480656184 L 82.5 481.4950480656184 L 83.50000000000006 481.49494802990813 L 83.50000000000006 481.49494802990813 L 84.50000000000006 481.49484597334254 L 84.50000000000006 481.49484597334254 L 85.5 481.4947418550975 L 85.5 481.4947418550975 L 86.5 481.4946356335244 L 86.5 481.4946356335244 L 87.50000000000006 481.4945272661332 L 87.50000000000006 481.4945272661332 L 88.50000000000006 481.4944167095755 L 88.50000000000006 481.4944167095755 L 89.5 481.49430391962716 L 89.5 481.49430391962716 L 90.5 481.49418885117075 L 90.5 481.49418885117075 L 91.50000000000006 481.4940714581773 L 91.50000000000006 481.4940714581773 L 92.50000000000006 481.4939516936881 L 92.50000000000006 481.4939516936881 L 93.5 481.49382950979566 L 93.5 481.49382950979566 L 94.5 481.4937048576249 L 94.5 481.4937048576249 L 95.50000000000006 481.4935776873133 L 95.50000000000006 481.4935776873133 L 96.50000000000006 481.49344794799094 L 96.50000000000006 481.49344794799094 L 97.5 481.49331558776043 L 97.5 481.49331558776043 L 98.5 481.4931805536759 L 98.5 481.4931805536759 L 99.50000000000006 481.4930427917219 L 99.50000000000006 481.4930427917219 L 100.50000000000006 481.49290224679186 L 100.50000000000006 481.49290224679186 L 101.5 481.4927588626659 L 101.5 481.4927588626659 L 102.5 481.4926125819884 L 102.5 481.4926125819884 L 103.50000000000006 481.49246334624524 L 103.50000000000006 481.49246334624524 L 104.50000000000006 481.49231109574004 L 104.50000000000006 481.49231109574004 L 105.5 481.4921557695707 L 105.5 481.4921557695707 L 106.5 481.4919973056045 L 106.5 481.4919973056045 L 107.50000000000006 481.4918356404539 L 107.50000000000006 481.4918356404539 L 108.50000000000006 481.4916707094506 L 108.50000000000006 481.4916707094506 L 109.5 481.4915024466201 L 109.5 481.4915024466201 L 110.5 481.49133078465485 L 110.5 481.49133078465485 L 111.50000000000006 481.49115565488785 L 111.50000000000006 481.49115565488785 L 112.50000000000006 481.49097698726496 L 112.50000000000006 481.49097698726496 L 113.5 481.4907947103166 L 113.5 481.4907947103166 L 114.5 481.4906087511297 L 114.5 481.4906087511297 L 115.50000000000006 481.490419035318 L 115.50000000000006 481.490419035318 L 116.50000000000006 481.49022548699264 L 116.50000000000006 481.49022548699264 L 117.5 481.4900280287318 L 117.5 481.4900280287318 L 118.5 481.4898265815495 L 118.5 481.4898265815495 L 119.5 481.48962106486414 L 119.5 481.48962106486414 L 120.50000000000006 481.4894113964663 L 120.50000000000006 481.4894113964663 L 121.5 481.4891974924859 L 121.5 481.4891974924859 L 122.5 481.4889792673585 L 122.5 481.4889792673585 L 123.5 481.48875663379107 L 123.5 481.48875663379107 L 124.50000000000006 481.4885295027272 L 124.50000000000006 481.4885295027272 L 125.50000000000006 481.48829778331157 L 125.50000000000006 481.48829778331157 L 126.5 481.4880613828532 L 126.5 481.4880613828532 L 127.5 481.48782020678874 L 127.5 481.48782020678874 L 128.50000000000006 481.4875741586446 L 128.50000000000006 481.4875741586446 L 129.50000000000006 481.48732313999824 L 129.50000000000006 481.48732313999824 L 130.5 481.4870670504389 L 130.5 481.4870670504389 L 131.5 481.48680578752726 L 131.5 481.48680578752726 L 132.50000000000006 481.4865392467547 L 132.50000000000006 481.4865392467547 L 133.50000000000006 481.4862673215014 L 133.50000000000006 481.4862673215014 L 134.5 481.48598990299354 L 134.5 481.48598990299354 L 135.5 481.4857068802601 L 135.5 481.4857068802601 L 136.50000000000006 481.4854181400882 L 136.50000000000006 481.4854181400882 L 137.50000000000006 481.4851235669779 L 137.50000000000006 481.4851235669779 L 138.5 481.48482304309607 L 138.5 481.48482304309607 L 139.5 481.48451644822904 L 139.5 481.48451644822904 L 140.50000000000006 481.48420365973493 L 140.50000000000006 481.48420365973493 L 141.50000000000006 481.48388455249403 L 141.50000000000006 481.48388455249403 L 142.5 481.4835589988593 L 142.5 481.4835589988593 L 143.5 481.4832268686049 L 143.5 481.4832268686049 L 144.5 481.48288802887424 L 144.5 481.48288802887424 L 145.50000000000006 481.482542344127 L 145.50000000000006 481.482542344127 L 146.5 481.48218967608466 L 146.5 481.48218967608466 L 147.50000000000006 481.48182988367523 L 147.50000000000006 481.48182988367523 L 148.5 481.48146282297705 L 148.5 481.48146282297705 L 149.50000000000006 481.4810883471609 L 149.50000000000006 481.4810883471609 L 150.5 481.4807063064314 L 150.5 481.4807063064314 L 151.50000000000006 481.4803165479672 L 151.50000000000006 481.4803165479672 L 152.5 481.47991891585986 L 152.5 481.47991891585986 L 153.50000000000006 481.479513251051 L 153.50000000000006 481.479513251051 L 154.5 481.4790993912695 L 154.5 481.4790993912695 L 155.50000000000006 481.47867717096574 L 155.50000000000006 481.47867717096574 L 156.5 481.47824642124607 L 156.5 481.47824642124607 L 157.50000000000006 481.4778069698049 L 157.50000000000006 481.4778069698049 L 158.5 481.47735864085564 L 158.5 481.47735864085564 L 159.5 481.4769012550609 L 159.5 481.4769012550609 L 160.5 481.4764346294602 L 160.5 481.4764346294602 L 161.5 481.4759585773971 L 161.5 481.4759585773971 L 162.5 481.4754729084444 L 162.5 481.4754729084444 L 163.5 481.474977428328 L 163.5 481.474977428328 L 164.5 481.47447193884926 L 164.5 481.47447193884926 L 165.5 481.47395623780574 L 165.5 481.47395623780574 L 166.5 481.4734301189101 L 166.5 481.4734301189101 L 167.5 481.4728933717077 L 167.5 481.4728933717077 L 168.5 481.4723457814926 L 168.5 481.4723457814926 L 169.5 481.47178712922135 L 169.5 481.47178712922135 L 170.5 481.47121719142564 L 170.5 481.47121719142564 L 171.5 481.4706357401227 L 171.5 481.4706357401227 L 172.50000000000006 481.4700425427243 L 172.50000000000006 481.4700425427243 L 173.5 481.4694373619435 L 173.5 481.4694373619435 L 174.50000000000006 481.46881995570004 L 174.50000000000006 481.46881995570004 L 175.5 481.46819007702305 L 175.5 481.46819007702305 L 176.50000000000006 481.4675474739528 L 176.50000000000006 481.4675474739528 L 177.5 481.4668918894394 L 177.5 481.4668918894394 L 178.50000000000006 481.4662230612403 L 178.50000000000006 481.4662230612403 L 179.5 481.4655407218154 L 179.5 481.4655407218154 L 180.50000000000006 481.46484459821966 L 180.50000000000006 481.46484459821966 L 181.5 481.4641344119945 L 181.5 481.4641344119945 L 182.50000000000006 481.463409879056 L 182.50000000000006 481.463409879056 L 183.5 481.4626707095812 L 183.5 481.4626707095812 L 184.50000000000006 481.4619166078925 L 184.50000000000006 481.4619166078925 L 185.5 481.46114727233913 L 185.5 481.46114727233913 L 186.50000000000006 481.4603623951767 L 186.50000000000006 481.4603623951767 L 187.5 481.4595616624438 L 187.5 481.4595616624438 L 188.50000000000006 481.4587447538367 L 188.50000000000006 481.4587447538367 L 189.5 481.4579113425811 L 189.5 481.4579113425811 L 190.50000000000006 481.4570610953013 L 190.50000000000006 481.4570610953013 L 191.5 481.4561936718871 L 191.5 481.4561936718871 L 192.50000000000006 481.45530872535755 L 192.50000000000006 481.45530872535755 L 193.5 481.4544059017223 L 193.5 481.4544059017223 L 194.50000000000006 481.45348483983975 L 194.50000000000006 481.45348483983975 L 195.5 481.45254517127296 L 195.5 481.45254517127296 L 196.50000000000006 481.4515865201419 L 196.50000000000006 481.4515865201419 L 197.5 481.45060850297347 L 197.5 481.45060850297347 L 198.50000000000006 481.44961072854755 L 198.50000000000006 481.44961072854755 L 199.5 481.44859279774124 L 199.5 481.44859279774124 L 200.50000000000006 481.44755430336863 L 200.50000000000006 481.44755430336863 L 201.5 481.446494830018 L 201.5 481.446494830018 L 202.5 481.44541395388603 L 202.5 481.44541395388603 L 203.5 481.44431124260774 L 203.5 481.44431124260774 L 204.5 481.443186255084 L 204.5 481.443186255084 L 205.5 481.4420385413048 L 205.5 481.4420385413048 L 206.5 481.4408676421692 L 206.5 481.4408676421692 L 207.5 481.4396730893021 L 207.5 481.4396730893021 L 208.5 481.4384544048663 L 208.5 481.4384544048663 L 209.5 481.4372111013719 L 209.5 481.4372111013719 L 210.5 481.4359426814808 L 210.5 481.4359426814808 L 211.5 481.4346486378082 L 211.5 481.4346486378082 L 212.5 481.4333284527193 L 212.5 481.4333284527193 L 213.5 481.4319815981226 L 213.5 481.4319815981226 L 214.5 481.4306075352582 L 214.5 481.4306075352582 L 215.5 481.42920571448263 L 215.5 481.42920571448263 L 216.5 481.427775575049 L 216.5 481.427775575049 L 217.5 481.4263165448823 L 217.5 481.4263165448823 L 218.5 481.42482804035114 L 218.5 481.42482804035114 L 219.5 481.4233094660338 L 219.5 481.4233094660338 L 220.5 481.4217602144803 L 220.5 481.4217602144803 L 221.50000000000006 481.4201796659694 L 221.50000000000006 481.4201796659694 L 222.5 481.41856718826057 L 222.5 481.41856718826057 L 223.50000000000006 481.4169221363413 L 223.50000000000006 481.4169221363413 L 224.5 481.4152438521688 L 224.5 481.4152438521688 L 225.50000000000006 481.4135316644071 L 225.50000000000006 481.4135316644071 L 226.5 481.4117848881583 L 226.5 481.4117848881583 L 227.50000000000006 481.4100028246885 L 227.50000000000006 481.4100028246885 L 228.5 481.40818476114856 L 228.5 481.40818476114856 L 229.50000000000006 481.4063299702889 L 229.50000000000006 481.4063299702889 L 230.5 481.4044377101684 L 230.5 481.4044377101684 L 231.50000000000006 481.40250722385775 L 231.50000000000006 481.40250722385775 L 232.5 481.4005377391367 L 232.5 481.4005377391367 L 233.50000000000006 481.3985284681852 L 233.50000000000006 481.3985284681852 L 234.5 481.39647860726797 L 234.5 481.39647860726797 L 235.50000000000006 481.3943873364134 L 235.50000000000006 481.3943873364134 L 236.5 481.3922538190851 L 236.5 481.3922538190851 L 237.50000000000006 481.3900772018479 L 237.50000000000006 481.3900772018479 L 238.5 481.38785661402574 L 238.5 481.38785661402574 L 239.50000000000006 481.3855911673539 L 239.50000000000006 481.3855911673539 L 240.5 481.38327995562355 L 240.5 481.38327995562355 L 241.50000000000006 481.38092205431917 L 241.50000000000006 481.38092205431917 L 242.5 481.37851652024875 L 242.5 481.37851652024875 L 243.50000000000006 481.37606239116667 L 243.50000000000006 481.37606239116667 L 244.5 481.37355868538856 L 244.5 481.37355868538856 L 245.5 481.37100440139864 L 245.5 481.37100440139864 L 246.5 481.36839851744935 L 246.5 481.36839851744935 L 247.5 481.3657399911523 L 247.5 481.3657399911523 L 248.5 481.3630277590616 L 248.5 481.3630277590616 L 249.5 481.36026073624816 L 249.5 481.36026073624816 L 250.5 481.35743781586604 L 250.5 481.35743781586604 L 251.5 481.3545578687094 L 251.5 481.3545578687094 L 252.5 481.35161974276093 L 252.5 481.35161974276093 L 253.5 481.3486222627312 L 253.5 481.3486222627312 L 254.5 481.34556422958815 L 254.5 481.34556422958815 L 255.5 481.34244442007775 L 255.5 481.34244442007775 L 256.5 481.33926158623467 L 256.5 481.33926158623467 L 257.5 481.33601445488284 L 257.5 481.33601445488284 L 258.5 481.33270172712645 L 258.5 481.33270172712645 L 259.5 481.3293220778302 L 259.5 481.3293220778302 L 260.5 481.3258741550894 L 260.5 481.3258741550894 L 261.5 481.3223565796889 L 261.5 481.3223565796889 L 262.5 481.3187679445517 L 262.5 481.3187679445517 L 263.5 481.31510681417586 L 263.5 481.31510681417586 L 264.5 481.3113717240604 L 264.5 481.3113717240604 L 265.5 481.3075611801195 L 265.5 481.3075611801195 L 266.5 481.30367365808473 L 266.5 481.30367365808473 L 267.5 481.29970760289547 L 267.5 481.29970760289547 L 268.50000000000006 481.2956614280768 L 268.50000000000006 481.2956614280768 L 269.5 481.2915335151048 L 269.5 481.2915335151048 L 270.50000000000006 481.28732221275925 L 270.50000000000006 481.28732221275925 L 271.5 481.2830258364631 L 271.5 481.2830258364631 L 272.50000000000006 481.27864266760844 L 272.50000000000006 481.27864266760844 L 273.5 481.2741709528694 L 273.5 481.2741709528694 L 274.50000000000006 481.26960890350034 L 274.50000000000006 481.26960890350034 L 275.5 481.2649546946208 L 275.5 481.2649546946208 L 276.50000000000006 481.2602064644852 L 276.50000000000006 481.2602064644852 L 277.5 481.25536231373803 L 277.5 481.25536231373803 L 278.50000000000006 481.2504203046545 L 278.50000000000006 481.2504203046545 L 279.5 481.24537846036503 L 279.5 481.24537846036503 L 280.50000000000006 481.2402347640647 L 280.50000000000006 481.2402347640647 L 281.5 481.2349871582065 L 281.5 481.2349871582065 L 282.50000000000006 481.22963354367795 L 282.50000000000006 481.22963354367795 L 283.5 481.224171778962 L 283.5 481.224171778962 L 284.50000000000006 481.2185996792798 L 284.50000000000006 481.2185996792798 L 285.5 481.2129150157173 L 285.5 481.2129150157173 L 286.50000000000006 481.2071155143332 L 286.50000000000006 481.2071155143332 L 287.5 481.2011988552497 L 287.5 481.2011988552497 L 288.5 481.19516267172423 L 288.5 481.19516267172423 L 289.5 481.1890045492029 L 289.5 481.1890045492029 L 290.5 481.1827220243545 L 290.5 481.1827220243545 L 291.5 481.1763125840855 L 291.5 481.1763125840855 L 292.5 481.16977366453426 L 292.5 481.16977366453426 L 293.5 481.16310265004574 L 293.5 481.16310265004574 L 294.5 481.1562968721252 L 294.5 481.1562968721252 L 295.5 481.14935360837075 L 295.5 481.14935360837075 L 296.5 481.14227008138425 L 296.5 481.14227008138425 L 297.5 481.1350434576606 L 297.5 481.1350434576606 L 298.5 481.1276708464538 L 298.5 481.1276708464538 L 299.5 481.12014929862113 L 299.5 481.12014929862113 L 300.5 481.1124758054432 L 300.5 481.1124758054432 L 301.5 481.10464729742034 L 301.5 481.10464729742034 L 302.5 481.096660643045 L 302.5 481.096660643045 L 303.5 481.088512647549 L 303.5 481.088512647549 L 304.5 481.0802000516254 L 304.5 481.0802000516254 L 305.5 481.0717195301251 L 305.5 481.0717195301251 L 306.5 481.0630676907263 L 306.5 481.0630676907263 L 307.5 481.054241072578 L 307.5 481.054241072578 L 308.5 481.04523614491524 L 308.5 481.04523614491524 L 309.5 481.03604930564677 L 309.5 481.03604930564677 L 310.5 481.0266768799145 L 310.5 481.0266768799145 L 311.5 481.0171151186231 L 311.5 481.0171151186231 L 312.5 481.0073601969406 L 312.5 481.0073601969406 L 313.5 480.99740821276833 L 313.5 480.99740821276833 L 314.5 480.9872551851798 L 314.5 480.9872551851798 L 315.5 480.97689705282863 L 315.5 480.97689705282863 L 316.5 480.96632967232387 L 316.5 480.96632967232387 L 317.5 480.9555488165723 L 317.5 480.9555488165723 L 318.5 480.94455017308786 L 318.5 480.94455017308786 L 319.5 480.93332934226663 L 319.5 480.93332934226663 L 320.5 480.92188183562655 L 320.5 480.92188183562655 L 321.5 480.91020307401243 L 321.5 480.91020307401243 L 322.5 480.8982883857638 L 322.5 480.8982883857638 L 323.5 480.88613300484656 L 323.5 480.88613300484656 L 324.5 480.87373206894625 L 324.5 480.87373206894625 L 325.5 480.8610806175232 L 325.5 480.8610806175232 L 326.5 480.8481735898281 L 326.5 480.8481735898281 L 327.5 480.8350058228778 L 327.5 480.8350058228778 L 328.5 480.82157204938994 L 328.5 480.82157204938994 L 329.5 480.807866895676 L 329.5 480.807866895676 L 330.5 480.7938848794918 L 330.5 480.7938848794918 L 331.5 480.7796204078444 L 331.5 480.7796204078444 L 332.5 480.7650677747549 L 332.5 480.7650677747549 L 333.5 480.7502211589761 L 333.5 480.7502211589761 L 334.5 480.7350746216637 L 334.5 480.7350746216637 L 335.5 480.71962210400085 L 335.5 480.71962210400085 L 336.5 480.7038574247744 L 336.5 480.7038574247744 L 337.5 480.6877742779025 L 337.5 480.6877742779025 L 338.5 480.67136622991194 L 338.5 480.67136622991194 L 339.5 480.65462671736475 L 339.5 480.65462671736475 L 340.5 480.6375490442327 L 340.5 480.6375490442327 L 341.5 480.62012637921885 L 341.5 480.62012637921885 L 342.5 480.60235175302483 L 342.5 480.60235175302483 L 343.5 480.58421805556327 L 343.5 480.58421805556327 L 344.5 480.56571803311334 L 344.5 480.56571803311334 L 345.5 480.5468442854194 L 345.5 480.5468442854194 L 346.5 480.5275892627307 L 346.5 480.5275892627307 L 347.5 480.5079452627815 L 347.5 480.5079452627815 L 348.5 480.4879044277098 L 348.5 480.4879044277098 L 349.5 480.46745874091437 L 349.5 480.46745874091437 L 350.5 480.4466000238479 L 350.5 480.4466000238479 L 351.5 480.4253199327455 L 351.5 480.4253199327455 L 352.5 480.4036099552869 L 352.5 480.4036099552869 L 353.5 480.3814614071917 L 353.5 480.38146140719175 L 354.5 480.35886542874533 L 354.5 480.35886542874533 L 355.5 480.3358129812552 L 355.5 480.3358129812552 L 356.5 480.31229484343476 L 356.5 480.31229484343476 L 357.5 480.2883016077154 L 357.5 480.2883016077154 L 358.5 480.263823676483 L 358.5 480.263823676483 L 359.5 480.23885125823864 L 359.5 480.23885125823864 L 360.5 480.213374363682 L 360.5 480.213374363682 L 361.5 480.1873828017156 L 361.5 480.1873828017156 L 362.5 480.1608661753681 L 362.5 480.1608661753681 L 363.5 480.13381387763536 L 363.5 480.13381387763536 L 364.5 480.1062150872377 L 364.5 480.1062150872377 L 365.5 480.0780587642908 L 365.5 480.0780587642908 L 366.5 480.04933364589016 L 366.5 480.04933364589016 L 367.5 480.0200282416054 L 367.5 480.0200282416054 L 368.5 479.99013082888405 L 368.5 479.9901308288841 L 369.5 479.9596294483624 L 369.5 479.9596294483624 L 370.5 479.9285118990816 L 370.5 479.9285118990816 L 371.5 479.89676573360697 L 371.5 479.89676573360697 L 372.5 479.864378253049 L 372.5 479.86437825304904 L 373.5 479.8313365019837 L 373.5 479.8313365019837 L 374.5 479.79762726327004 L 374.5 479.79762726327004 L 375.5 479.7632370527631 L 375.5 479.7632370527631 L 376.5 479.7281521139201 L 376.5 479.7281521139201 L 377.5 479.69235841229766 L 377.5 479.69235841229766 L 378.5 479.655841629938 L 378.5 479.655841629938 L 379.5 479.6185871596412 L 379.5 479.6185871596412 L 380.5 479.5805800991224 L 380.5 479.5805800991224 L 381.5 479.5418052450506 L 381.5 479.5418052450506 L 382.5 479.5022470869673 L 382.5 479.5022470869673 L 383.5 479.46188980108167 L 383.5 479.46188980108167 L 384.5 479.42071724394134 L 384.5 479.42071724394134 L 385.5 479.3787129459744 L 385.5 479.3787129459744 L 386.5 479.3358601049017 L 386.5 479.3358601049017 L 387.5 479.2921415790154 L 387.5 479.2921415790154 L 388.5 479.2475398803221 L 388.5 479.2475398803221 L 389.5 479.2020371675478 L 389.5 479.2020371675478 L 390.5 479.15561523900055 L 390.5 479.15561523900055 L 391.5 479.1082555252901 L 391.5 479.1082555252901 L 392.5 479.05993908189936 L 392.5 479.05993908189936 L 393.5 479.0106465816068 L 393.5 479.0106465816068 L 394.5 478.9603583067551 L 394.5 478.9603583067551 L 395.5 478.9090541413637 L 395.5 478.9090541413637 L 396.5 478.8567135630825 L 396.5 478.8567135630825 L 397.5 478.8033156349822 L 397.5 478.8033156349822 L 398.5 478.74883899717963 L 398.5 478.74883899717963 L 399.5 478.69326185829334 L 399.5 478.69326185829334 L 400.5 478.63656198672663 L 400.5 478.63656198672663 L 401.5 478.57871670177497 L 401.5 478.57871670177497 L 402.5 478.51970286455304 L 402.5 478.51970286455304 L 403.5 478.4594968687391 L 403.5 478.4594968687391 L 404.5 478.3980746311321 L 404.5 478.3980746311321 L 405.5 478.33541158201797 L 405.5 478.33541158201797 L 406.5 478.2714826553416 L 406.5 478.2714826553416 L 407.5 478.20626227867984 L 407.5 478.20626227867984 L 408.5 478.13972436301253 L 408.5 478.13972436301253 L 409.5 478.0718422922861 L 409.5 478.07184229228614 L 410.5 478.00258891276724 L 410.5 478.00258891276724 L 411.5 477.9319365221807 L 411.5 477.9319365221807 L 412.5 477.85985685862823 L 412.5 477.85985685862823 L 413.5 477.7863210892833 L 413.5 477.7863210892833 L 414.5 477.71129979885774 L 414.5 477.71129979885774 L 415.5 477.634762977835 L 415.5 477.634762977835 L 416.5 477.55668001046627 L 416.5 477.55668001046627 L 417.5 477.4770196625234 L 417.5 477.4770196625234 L 418.5 477.39575006880506 L 418.5 477.39575006880506 L 419.5 477.31283872039023 L 419.5 477.31283872039023 L 420.5 477.2282524516339 L 420.5 477.2282524516339 L 421.5 477.14195742690094 L 421.5 477.14195742690094 L 422.5 477.05391912703067 L 422.5 477.05391912703067 L 423.5 476.9641023355294 L 423.5 476.9641023355294 L 424.5 476.87247112448284 L 424.5 476.87247112448284 L 425.5 476.77898884018487 L 425.5 476.77898884018487 L 426.5 476.6836180884753 L 426.5 476.6836180884753 L 427.5 476.58632071978195 L 427.5 476.58632071978195 L 428.5 476.4870578138598 L 428.5 476.4870578138598 L 429.5 476.3857896642231 L 429.5 476.3857896642231 L 430.5 476.28247576226175 L 430.5 476.28247576226175 L 431.5 476.17707478103733 L 431.5 476.1770747810374 L 432.5 476.0695445587521 L 432.5 476.0695445587521 L 433.5 475.9598420818833 L 433.5 475.9598420818833 L 434.5 475.8479234679775 L 434.5 475.8479234679775 L 435.5 475.7337439480969 L 435.5 475.7337439480969 L 436.5 475.61725784891104 L 436.5 475.61725784891104 L 437.5 475.49841857442715 L 437.5 475.49841857442715 L 438.5 475.3771785873509 L 438.5 475.3771785873509 L 439.5 475.25348939007085 L 439.5 475.2534893900709 L 440.5 475.12730150525897 L 440.5 475.12730150525897 L 441.5 474.9985644560787 L 441.5 474.9985644560787 L 442.5 474.8672267459939 L 442.5 474.86722674599395 L 443.5 474.7332358381694 L 443.5 474.7332358381694 L 444.5 474.5965381344554 L 444.5 474.5965381344554 L 445.5 474.45707895394776 L 445.5 474.45707895394776 L 446.5 474.31480251111486 L 446.5 474.31480251111486 L 447.5 474.1696518934825 L 447.5 474.1696518934825 L 448.5 474.0215690388683 L 448.5 474.0215690388683 L 449.5 473.8704947121558 L 449.5 473.8704947121558 L 450.5 473.7163684816001 L 450.5 473.7163684816001 L 451.5 473.55912869465396 L 451.5 473.55912869465396 L 452.5 473.39871245330596 L 452.5 473.39871245330596 L 453.5 473.23505558892066 L 453.5 473.23505558892066 L 454.5 473.0680926365702 L 454.5 473.0680926365702 L 455.5 472.8977568088475 L 455.5 472.8977568088475 L 456.5 472.72397996915015 L 456.5 472.72397996915015 L 457.5 472.54669260442535 L 457.5 472.54669260442535 L 458.5 472.36582379736325 L 458.5 472.36582379736325 L 459.5 472.18130119802953 L 459.5 472.18130119802953 L 460.5 471.993050994924 L 460.5 471.993050994924 L 461.5 471.8009978854554 L 461.5 471.8009978854554 L 462.5 471.6050650458193 L 462.5 471.6050650458193 L 463.5 471.40517410026723 L 463.5 471.40517410026723 L 464.5 471.20124508975584 L 464.5 471.20124508975584 L 465.5 470.99319643996176 L 465.5 470.99319643996176 L 466.5 470.7809449286511 L 466.5 470.7809449286511 L 467.5 470.56440565238927 L 467.5 470.56440565238927 L 468.5 470.3434919925785 L 468.5 470.3434919925785 L 469.5 470.1181155808094 L 469.5 470.1181155808094 L 470.5 469.88818626351207 L 470.5 469.88818626351207 L 471.5 469.6536120658939 L 471.5 469.6536120658939 L 472.5 469.41429915514817 L 472.5 469.41429915514817 L 473.5 469.1701518029197 L 473.5 469.1701518029197 L 474.5 468.92107234701217 L 474.5 468.92107234701217 L 475.5 468.6669611523222 L 475.5 468.6669611523222 L 476.5 468.4077165709837 L 476.5 468.4077165709837 L 477.5 468.1432349017075 L 477.5 468.1432349017075 L 478.5 467.8734103482994 L 478.5 467.8734103482994 L 479.5 467.5981349773403 L 479.5 467.5981349773403 L 480.5 467.3172986750115 L 480.5 467.3172986750115 L 481.5 467.0307891030475 L 481.5 467.0307891030475 L 482.5 466.7384916537993 L 482.5 466.7384916537993 L 483.5 466.4402894043899 L 483.5 466.4402894043899 L 484.5 466.1360630699434 L 484.5 466.1360630699434 L 485.5 465.82569095586973 L 485.5 465.82569095586973 L 486.5 465.5090489091848 L 486.5 465.5090489091848 L 487.5 465.186010268848 L 487.5 465.186010268848 L 488.5 464.85644581509604 L 488.5 464.85644581509604 L 489.5 464.520223717753 L 489.5 464.520223717753 L 490.5 464.1772094834971 L 490.5 464.1772094834971 L 491.5 463.827265902061 L 491.5 463.827265902061 L 492.5 463.4702529913461 L 492.5 463.4702529913461 L 493.5 463.1060279414279 L 493.5 463.1060279414279 L 494.5 462.73444505743004 L 494.5 462.73444505743004 L 495.5 462.3553557012444 L 495.5 462.35535570124443 L 496.5 461.96860823207396 L 496.5 461.96860823207396 L 497.5 461.5740479457743 L 497.5 461.5740479457743 L 498.5 461.17151701297007 L 498.5 461.17151701297007 L 499.5 460.7608544159209 L 499.5 460.76085441592096 L 500.5 460.34189588411255 L 500.5 460.34189588411255 L 501.5 459.914473828546 L 501.5 459.914473828546 L 502.5 459.47841727470006 L 502.5 459.47841727470006 L 503.5 459.03355179413893 L 503.5 459.03355179413893 L 504.5 458.5796994347388 L 504.5 458.5796994347388 L 505.5 458.11667864950454 L 505.5 458.11667864950454 L 506.5 457.64430422394827 L 506.5 457.64430422394827 L 507.5 457.1623872020014 L 507.5 457.1623872020014 L 508.5 456.6707348104295 L 508.5 456.6707348104295 L 509.5 456.1691503817205 L 509.5 456.16915038172056 L 510.5 455.65743327541503 L 510.5 455.65743327541503 L 511.5 455.1353787978476 L 511.5 455.1353787978476 L 512.5 454.6027781202663 L 512.5 454.6027781202663 L 513.5 454.0594181952987 L 513.5 454.0594181952987 L 514.5 453.5050816717299 L 514.5 453.5050816717299 L 515.5 452.9395468075592 L 515.5 452.9395468075593 L 516.5 452.3625873813005 L 516.5 452.3625873813005 L 517.5 451.7739726014903 L 517.5 451.7739726014903 L 518.5 451.1734670143683 L 518.5 451.1734670143683 L 519.5 450.5608304096929 L 519.5 450.560830409693 L 520.5 449.9358177246537 L 520.5 449.9358177246537 L 521.5 449.2981789458429 L 521.5 449.29817894584295 L 522.5 448.64765900924715 L 522.5 448.64765900924715 L 523.5 447.98399769821805 L 523.5 447.98399769821805 L 524.5 447.30692953938217 L 524.5 447.3069295393822 L 525.5 446.61618369644845 L 525.5 446.61618369644845 L 526.5 445.9114838618695 L 526.5 445.9114838618695 L 527.5 445.19254814631546 L 527.5 445.19254814631546 L 528.5 444.4590889659141 L 528.5 444.45908896591413 L 529.5 443.71081292721374 L 529.5 443.71081292721374 L 530.5 442.9474207098217 L 530.5 442.9474207098217 L 531.5 442.1686069466723 L 531.5 442.1686069466723 L 532.5 441.37406010187607 L 532.5 441.37406010187607 L 533.5 440.5634623461009 L 533.5 440.5634623461009 L 534.5 439.7364894294364 L 534.5 439.7364894294364 L 535.5 438.8928105516894 L 535.5 438.8928105516894 L 536.5 438.0320882300597 L 536.5 438.0320882300597 L 537.5 437.15397816414213 L 537.5 437.15397816414213 L 538.5 436.258129098202 L 538.5 436.258129098202 L 539.5 435.3441826806682 L 539.5 435.3441826806682 L 540.5 434.4117733207876 L 540.5 434.4117733207876 L 541.5 433.4605280423838 L 541.5 433.4605280423838 L 542.5 432.49006633466223 L 542.5 432.49006633466223 L 543.5 431.5 L 543.5 431.5 L 544.5 430.4899329986622 L 544.5 430.4899329986622 L 545.5 429.45946129038055 L 545.5 429.4594612903806 L 546.5 428.408172672732 L 546.5 428.408172672732 L 547.5 427.33564661625206 L 547.5 427.33564661625206 L 548.5 426.2414540962176 L 548.5 426.2414540962176 L 549.5 425.1251574210312 L 549.5 425.1251574210312 L 550.5 423.9863100571386 L 550.5 423.9863100571386 L 551.5 422.82445645040946 L 551.5 422.82445645040946 L 552.5 421.63913184390947 L 552.5 421.63913184390947 L 553.5 420.4298620919915 L 553.5 420.4298620919915 L 554.5 419.19616347063095 L 554.5 419.19616347063095 L 555.5 417.93754248392975 L 555.5 417.93754248392975 L 556.5 416.65349566671136 L 556.5 416.65349566671136 L 557.5 415.3435093831281 L 557.5 415.34350938312815 L 558.5 414.0070596211998 L 558.5 414.0070596211998 L 559.5 412.6436117832021 L 559.5 412.6436117832021 L 560.5 411.25262047182025 L 560.5 411.2526204718203 L 561.5 409.83352927198297 L 561.5 409.83352927198297 L 562.5 408.38577052828873 L 562.5 408.38577052828873 L 563.5 406.90876511793647 L 563.5 406.90876511793647 L 564.5 405.4019222190683 L 564.5 405.4019222190683 L 565.5 403.86463907443317 L 565.5 403.86463907443317 L 566.5 402.29630075027586 L 566.5 402.2963007502759 L 567.5 400.6962798903553 L 567.5 400.6962798903553 L 568.5 399.0639364649935 L 568.5 399.06393646499356 L 569.5 397.3986175150556 L 569.5 397.39861751505566 L 570.5 395.699656890757 L 570.5 395.69965689075707 L 571.5 393.9663749851949 L 571.5 393.96637498519493 L 572.5 392.19807846249626 L 572.5 392.1980784624963 L 573.5 390.3940599804745 L 573.5 390.39405998047454 L 574.5 388.55359790768284 L 574.5 388.55359790768284 L 575.5 386.67595603475235 L 575.5 386.6759560347524 L 576.5 384.76038327989835 L 576.5 384.7603832798984 L 577.5 382.80611338847757 L 577.5 382.80611338847757 L 578.5 380.8123646264761 L 578.5 380.81236462647615 L 579.5 378.7783394678055 L 579.5 378.77833946780555 L 580.5 376.7032242752817 L 580.5 376.70322427528174 L 581.5 374.58618897515896 L 581.5 374.586188975159 L 582.5 372.42638672508986 L 582.5 372.4263867250899 L 583.5 370.22295357537655 L 583.5 370.22295357537655 L 584.5 367.9750081233796 L 584.5 367.97500812337967 L 585.5 365.6816511609453 L 585.5 365.68165116094536 L 586.5 363.34196531471014 L 586.5 363.3419653147102 L 587.5 360.9550146791394 L 587.5 360.9550146791395 L 588.5 358.5198444421524 L 588.5 358.5198444421525 L 589.5 356.035480503185 L 589.5 356.03548050318506 L 590.5 353.50092908353633 L 590.5 353.50092908353633 L 591.5 350.91517632884404 L 591.5 350.91517632884404 L 592.5 348.277187903529 L 592.5 348.27718790352907 L 593.5 345.5859085770476 L 593.5 345.5859085770477 L 594.5 342.840261801785 L 594.5 342.840261801785 L 595.5 340.03914928242193 L 595.5 340.03914928242193 L 596.5 337.181450536602 L 596.5 337.18145053660203 L 597.5 334.2660224467237 L 597.5 334.26602244672375 L 598.5 331.29169880267824 L 598.5 331.2916988026783 L 599.5 328.25728983534975 L 599.5 328.2572898353498 L 600.5 325.1615817406921 L 600.5 325.1615817406921 L 601.5 322.00333619419064 L 601.5 322.0033361941907 L 602.5 318.7812898555163 L 602.5 318.7812898555164 L 603.5 315.49415386317247 L 603.5 315.4941538631725 L 604.5 312.1406133189331 L 604.5 312.14061331893316 L 605.5 308.7193267618661 L 605.5 308.7193267618661 L 606.5 305.2289256317307 L 606.5 305.2289256317308 L 607.5 301.6680137215358 L 607.5 301.66801372153583 L 608.5 298.0351666190376 L 608.5 298.0351666190377 L 609.5 294.3289311369567 L 609.5 294.3289311369567 L 610.5 290.547824731683 L 610.5 290.5478247316831 L 611.5 286.69033491023913 L 611.5 286.69033491023913 L 612.5 282.7549186252624 L 612.5 282.75491862526246 L 613.5 278.740001657766 L 613.5 278.74000165776613 L 614.5 274.64397798743016 L 614.5 274.6439779874303 L 615.5 270.4652091501721 L 615.5 270.4652091501722 L 616.5 266.20202358273946 L 616.5 266.20202358273957 L 617.5 261.8527159540619 L 617.5 261.852715954062 L 618.5 257.41554648309653 L 618.5 257.4155464830966 L 619.5 252.88874024289183 L 619.5 252.8887402428919 L 620.5 248.27048645059347 L 620.5 248.27048645059355 L 621.5 243.5589377431071 L 621.5 243.55893774310718 L 622.5 238.7522094381281 L 622.5 238.75220943812818 L 623.5 233.84837878024402 L 623.5 233.8483787802441 L 624.5 228.84548417180636 L 624.5 228.84548417180645 L 625.5 223.7415243882657 L 625.5 223.74152438826576 L 626.5 218.53445777765478 L 626.5 218.5344577776549 L 627.5 213.22220144390099 L 627.5 213.22220144390104 L 628.5 207.8026304136397 L 628.5 207.8026304136398 L 629.5 202.273576786197 L 629.5 202.2735767861971 L 630.5 196.63282886640013 L 630.5 196.6328288664002 L 631.5 190.87813027987028 L 631.5 190.87813027987033 L 632.5 185.00717907044236 L 632.5 185.00717907044248 L 633.5 179.01762677935238 L 633.5 179.01762677935244 L 634.5 172.90707750582197 L 634.5 172.9070775058221 L 635.5 166.67308694866676 L 635.5 166.67308694866688 L 636.5 160.3131614285429 L 636.5 160.31316142854297 L 637.5 153.82475689044213 L 637.5 153.82475689044225 L 638.5 147.20527788603613 L 638.5 147.20527788603619 L 639.5 140.45207653546208 L 639.5 140.45207653546214 L 640.5 133.56245146813603 L 640.5 133.56245146813615 L 641.5 126.533646742168 L 641.5 126.53364674216806 L 642.5 119.36285074194905 L 642.5 119.3628507419491 L 643.5 112.04719505346702 L 643.5 112.04719505346714 L 644.5 104.58375331690337 L 644.5 104.58375331690348 L 645.5 96.9695400560496 L 645.5 96.96954005604971 L 646.5 89.20150948407706 L 646.5 89.20150948407712 L 647.5 81.27655428518176 L 647.5 81.27655428518193 L 648.5 73.19150437161687 L 648.5 73.19150437161704 L 649.5 64.9431256156148 L 649.5 64.94312561561497 L 650.5 56.528118555693425 L 650.5 56.528118555693595 L 651.5 47.94311707682681 L 651.5 47.94311707682698 L 652.5 39.18468706395538 L 652.5 39.18468706395555 L 653.5 30.249325028293413 L 653.5 30.249325028293583 L 654.5 21.133456705886942 L 654.5 21.133456705887113 L 655.5 11.83343562786041 L 655.5 11.833435627860581 L 656.5 2.345541661780544 L 656.5 2.3455416617807145 L 657.5 -7.334020476445801 L 657.5 -7.33402047644563 L 658.276293684702 -15" stroke-opacity="0.8" stroke-linecap="round" stroke-linejoin="round" stroke-miterlimit="10" stroke-width="5"/><g transform="scale(27,27)"><g transform="translate(2.2222222222222223,17.270147555555557)"><path fill="rgb(211,47,47)" stroke="none" paint-order="stroke fill markers" d=" M 0.2548828125 0.01123046875 Q 0.220703125 0.01123046875 0.193603515625 -0.00341796875 Q 0.16650390625 -0.01806640625 0.14794921875 -0.044677734375 Q 0.12939453125 -0.0712890625 0.12060546875 -0.101806640625 Q 0.11181640625 -0.13232421875 0.11181640625 -0.1650390625 Q 0.11181640625 -0.216796875 0.130615234375 -0.266357421875 Q 0.1494140625 -0.31591796875 0.18359375 -0.35595703125 Q 0.2177734375 -0.39599609375 0.264404296875 -0.4189453125 Q 0.31103515625 -0.44189453125 0.36376953125 -0.44189453125 Q 0.3896484375 -0.44189453125 0.412841796875 -0.43212890625 Q 0.43603515625 -0.42236328125 0.450439453125 -0.403076171875 Q 0.46484375 -0.3837890625 0.46484375 -0.35693359375 Q 0.46484375 -0.27587890625 0.387451171875 -0.25244140625 Q 0.31005859375 -0.22900390625 0.205078125 -0.22900390625 L 0.2021484375 -0.22900390625 Q 0.18505859375 -0.16259765625 0.18505859375 -0.12109375 Q 0.18505859375 -0.0810546875 0.202392578125 -0.048095703125 Q 0.2197265625 -0.01513671875 0.2568359375 -0.01513671875 Q 0.3095703125 -0.01513671875 0.359130859375 -0.043701171875 Q 0.40869140625 -0.072265625 0.44189453125 -0.1181640625 Q 0.443359375 -0.12109375 0.44921875 -0.12109375 Q 0.455078125 -0.12109375 0.4658203125 -0.10693359375 Q 0.4677734375 -0.10595703125 0.4677734375 -0.10107421875 Q 0.4677734375 -0.09716796875 0.4658203125 -0.09521484375 Q 0.44287109375 -0.0625 0.4091796875 -0.038330078125 Q 0.37548828125 -0.01416015625 0.33544921875 -0.00146484375 Q 0.29541015625 0.01123046875 0.2548828125 0.01123046875 M 0.2080078125 -0.2548828125 Q 0.26318359375 -0.2548828125 0.3076171875 -0.260498046875 Q 0.35205078125 -0.26611328125 0.387451171875 -0.288818359375 Q 0.4228515625 -0.3115234375 0.4228515625 -0.35693359375 Q 0.4228515625 -0.3828125 0.4052734375 -0.3994140625 Q 0.3876953125 -0.416015625 0.36181640625 -0.416015625 Q 0.3037109375 -0.416015625 0.265380859375 -0.368896484375 Q 0.22705078125 -0.32177734375 0.2080078125 -0.2548828125 Z"/></g><g transform="translate(2.6822222222222223,16.857255555555557) scale(0.7,0.7)"><path fill="rgb(211,47,47)" stroke="none" paint-order="stroke fill markers" d=" M 0.334 -0.302 L 0.3 -0.165 Q 0.28300000000000003 -0.097 0.28300000000000003 -0.077 Q 0.28300000000000003 -0.025 0.32 -0.014 Q 0.328 -0.011 0.338 -0.011 Q 0.388 -0.011 0.429 -0.061 Q 0.456 -0.093 0.47100000000000003 -0.14200000000000002 Q 0.47400000000000003 -0.153 0.484 -0.153 Q 0.496 -0.153 0.496 -0.14300000000000002 Q 0.496 -0.11800000000000001 0.465 -0.07100000000000001 Q 0.41100000000000003 0.011 0.336 0.011 Q 0.268 0.011 0.23700000000000002 -0.046 Q 0.231 -0.055 0.228 -0.065 Q 0.20400000000000001 -0.017 0.162 0.002 Q 0.14300000000000002 0.011 0.123 0.011 Q 0.063 0.011 0.039 -0.024 Q 0.029 -0.037 0.029 -0.055 Q 0.029 -0.092 0.061 -0.107 Q 0.07200000000000001 -0.113 0.084 -0.113 Q 0.114 -0.113 0.12 -0.088 Q 0.121 -0.083 0.121 -0.078 Q 0.121 -0.044 0.08700000000000001 -0.028 Q 0.081 -0.025 0.074 -0.024 Q 0.095 -0.011 0.124 -0.011 Q 0.177 -0.011 0.20800000000000002 -0.082 Q 0.214 -0.097 0.219 -0.115 Q 0.273 -0.319 0.273 -0.353 Q 0.267 -0.41500000000000004 0.219 -0.42 Q 0.167 -0.42 0.124 -0.367 L 0.124 -0.366 Q 0.124 -0.365 0.123 -0.365 Q 0.108 -0.34500000000000003 0.096 -0.319 Q 0.091 -0.307 0.08700000000000001 -0.295 L 0.085 -0.289 Q 0.083 -0.278 0.07200000000000001 -0.278 Q 0.06 -0.278 0.06 -0.28800000000000003 Q 0.06 -0.313 0.092 -0.36 Q 0.146 -0.442 0.221 -0.442 Q 0.298 -0.442 0.329 -0.366 Q 0.361 -0.428 0.41400000000000003 -0.44 Q 0.424 -0.442 0.434 -0.442 Q 0.493 -0.442 0.517 -0.40900000000000003 Q 0.527 -0.395 0.527 -0.376 Q 0.527 -0.335 0.49 -0.321 Q 0.481 -0.318 0.47300000000000003 -0.318 Q 0.442 -0.318 0.436 -0.34500000000000003 Q 0.435 -0.34900000000000003 0.435 -0.353 Q 0.435 -0.383 0.464 -0.4 Q 0.47300000000000003 -0.405 0.483 -0.40700000000000003 Q 0.462 -0.42 0.433 -0.42 Q 0.365 -0.42 0.337 -0.314 Q 0.335 -0.308 0.334 -0.302 Z"/></g></g></g></g></svg>