<svg version="1.1" xmlns="http://www.w3.org/2000/svg" xmlns:xlink="http://www.w3.org/1999/xlink" width="1087" height="963"><defs><clipPath id="tHIVaXeESLwl"><path fill="none" stroke="none" d=" M 0 0 L 1087 0 L 1087 963 L 0 963 L 0 0 Z"/></clipPath></defs><g transform="scale(1,1)" clip-path="url(#tHIVaXeESLwl)"><g><rect fill="rgb(255,255,255)" stroke="none" x="0" y="0" width="1087" height="963" fill-opacity="1"/><path fill="none" stroke="rgb(192,192,192)" paint-order="fill stroke markers" d=" M 43.5 0.5 L 43.5 963.5 M 43.5 0.5 L 43.5 963.5 M 93.5 0.5 L 93.5 963.5 M 143.5 0.5 L 143.5 963.5 M 193.5 0.5 L 193.5 963.5 M 243.5 0.5 L 243.5 963.5 M 293.5 0.5 L 293.5 963.5 M 343.5 0.5 L 343.5 963.5 M 393.5 0.5 L 393.5 963.5 M 443.5 0.5 L 443.5 963.5 M 493.5 0.5 L 493.5 963.5 M 593.5 0.5 L 593.5 963.5 M 643.5 0.5 L 643.5 963.5 M 693.5 0.5 L 693.5 963.5 M 743.5 0.5 L 743.5 963.5 M 793.5 0.5 L 793.5 963.5 M 843.5 0.5 L 843.5 963.5 M 893.5 0.5 L 893.5 963.5 M 943.5 0.5 L 943.5 963.5 M 993.5 0.5 L 993.5 963.5 M 1043.5 0.5 L 1043.5 963.5" stroke-opacity="1" stroke-linecap="round" stroke-linejoin="round" stroke-miterlimit="10"/><path fill="none" stroke="rgb(192,192,192)" paint-order="fill stroke markers" d=" M 3.5 0.5 L 3.5 963.5 M 13.5 0.5 L 13.5 963.5 M 23.5 0.5 L 23.5 963.5 M 33.5 0.5 L 33.5 963.5 M 53.5 0.5 L 53.5 963.5 M 63.5 0.5 L 63.5 963.5 M 73.5 0.5 L 73.5 963.5 M 83.5 0.5 L 83.5 963.5 M 103.5 0.5 L 103.5 963.5 M 113.5 0.5 L 113.5 963.5 M 123.5 0.5 L 123.5 963.5 M 133.5 0.5 L 133.5 963.5 M 153.5 0.5 L 153.5 963.5 M 163.5 0.5 L 163.5 963.5 M 173.5 0.5 L 173.5 963.5 M 183.5 0.5 L 183.5 963.5 M 203.5 0.5 L 203.5 963.5 M 213.5 0.5 L 213.5 963.5 M 223.5 0.5 L 223.5 963.5 M 233.5 0.5 L 233.5 963.5 M 253.5 0.5 L 253.5 963.5 M 263.5 0.5 L 263.5 963.5 M 273.5 0.5 L 273.5 963.5 M 283.5 0.5 L 283.5 963.5 M 303.5 0.5 L 303.5 963.5 M 313.5 0.5 L 313.5 963.5 M 323.5 0.5 L 323.5 963.5 M 333.5 0.5 L 333.5 963.5 M 353.5 0.5 L 353.5 963.5 M 363.5 0.5 L 363.5 963.5 M 373.5 0.5 L 373.5 963.5 M 383.5 0.5 L 383.5 963.5 M 403.5 0.5 L 403.5 963.5 M 413.5 0.5 L 413.5 963.5 M 423.5 0.5 L 423.5 963.5 M 433.5 0.5 L 433.5 963.5 M 453.5 0.5 L 453.5 963.5 M 463.5 0.5 L 463.5 963.5 M 473.5 0.5 L 473.5 963.5 M 483.5 0.5 L 483.5 963.5 M 503.5 0.5 L 503.5 963.5 M 513.5 0.5 L 513.5 963.5 M 523.5 0.5 L 523.5 963.5 M 533.5 0.5 L 533.5 963.5 M 553.5 0.5 L 553.5 963.5 M 563.5 0.5 L 563.5 963.5 M 573.5 0.5 L 573.5 963.5 M 583.5 0.5 L 583.5 963.5 M 603.5 0.5 L 603.5 963.5 M 613.5 0.5 L 613.5 963.5 M 623.5 0.5 L 623.5 963.5 M 633.5 0.5 L 633.5 963.5 M 653.5 0.5 L 653.5 963.5 M 663.5 0.5 L 663.5 963.5 M 673.5 0.5 L 673.5 963.5 M 683.5 0.5 L 683.5 963.5 M 703.5 0.5 L 703.5 963.5 M 713.5 0.5 L 713.5 963.5 M 723.5 0.5 L 723.5 963.5 M 733.5 0.5 L 733.5 963.5 M 753.5 0.5 L 753.5 963.5 M 763.5 0.5 L 763.5 963.5 M 773.5 0.5 L 773.5 963.5 M 783.5 0.5 L 783.5 963.5 M 803.5 0.5 L 803.5 963.5 M 813.5 0.5 L 813.5 963.5 M 823.5 0.5 L 823.5 963.5 M 833.5 0.5 L 833.5 963.5 M 853.5 0.5 L 853.5 963.5 M 863.5 0.5 L 863.5 963.5 M 873.5 0.5 L 873.5 963.5 M 883.5 0.5 L 883.5 963.5 M 903.5 0.5 L 903.5 963.5 M 913.5 0.5 L 913.5 963.5 M 923.5 0.5 L 923.5 963.5 M 933.5 0.5 L 933.5 963.5 M 953.5 0.5 L 953.5 963.5 M 963.5 0.5 L 963.5 963.5 M 973.5 0.5 L 973.5 963.5 M 983.5 0.5 L 983.5 963.5 M 1003.5 0.5 L 1003.5 963.5 M 1013.5 0.5 L 1013.5 963.5 M 1023.5 0.5 L 1023.5 963.5 M 1033.5 0.5 L 1033.5 963.5 M 1053.5 0.5 L 1053.5 963.5 M 1063.5 0.5 L 1063.5 963.5 M 1073.5 0.5 L 1073.5 963.5 M 1083.5 0.5 L 1083.5 963.5" stroke-opacity="0.23529411764705882" stroke-linecap="round" stroke-linejoin="round" stroke-miterlimit="10"/><path fill="none" stroke="rgb(192,192,192)" paint-order="fill stroke markers" d=" M 0.5 31.5 L 1087.5 31.5 M 0.5 31.5 L 1087.5 31.5 M 0.5 81.5 L 1087.5 81.5 M 0.5 131.5 L 1087.5 131.5 M 0.5 181.5 L 1087.5 181.5 M 0.5 231.5 L 1087.5 231.5 M 0.5 281.5 L 1087.5 281.5 M 0.5 331.5 L 1087.5 331.5 M 0.5 381.5 L 1087.5 381.5 M 0.5 431.5 L 1087.5 431.5 M 0.5 531.5 L 1087.5 531.5 M 0.5 581.5 L 1087.5 581.5 M 0.5 631.5 L 1087.5 631.5 M 0.5 681.5 L 1087.5 681.5 M 0.5 731.5 L 1087.5 731.5 M 0.5 781.5 L 1087.5 781.5 M 0.5 831.5 L 1087.5 831.5 M 0.5 881.5 L 1087.5 881.5 M 0.5 931.5 L 1087.5 931.5" stroke-opacity="1" stroke-linecap="round" stroke-linejoin="round" stroke-miterlimit="10"/><path fill="none" stroke="rgb(192,192,192)" paint-order="fill stroke markers" d=" M 0.5 1.5 L 1087.5 1.5 M 0.5 1.5 L 1087.5 1.5 M 0.5 11.5 L 1087.5 11.5 M 0.5 21.5 L 1087.5 21.5 M 0.5 41.5 L 1087.5 41.5 M 0.5 51.5 L 1087.5 51.5 M 0.5 61.5 L 1087.5 61.5 M 0.5 71.5 L 1087.5 71.5 M 0.5 91.5 L 1087.5 91.5 M 0.5 101.5 L 1087.5 101.5 M 0.5 111.5 L 1087.5 111.5 M 0.5 121.5 L 1087.5 121.5 M 0.5 141.5 L 1087.5 141.5 M 0.5 151.5 L 1087.5 151.5 M 0.5 161.5 L 1087.5 161.5 M 0.5 171.5 L 1087.5 171.5 M 0.5 191.5 L 1087.5 191.5 M 0.5 201.5 L 1087.5 201.5 M 0.5 211.5 L 1087.5 211.5 M 0.5 221.5 L 1087.5 221.5 M 0.5 241.5 L 1087.5 241.5 M 0.5 251.5 L 1087.5 251.5 M 0.5 261.5 L 1087.5 261.5 M 0.5 271.5 L 1087.5 271.5 M 0.5 291.5 L 1087.5 291.5 M 0.5 301.5 L 1087.5 301.5 M 0.5 311.5 L 1087.5 311.5 M 0.5 321.5 L 1087.5 321.5 M 0.5 341.5 L 1087.5 341.5 M 0.5 351.5 L 1087.5 351.5 M 0.5 361.5 L 1087.5 361.5 M 0.5 371.5 L 1087.5 371.5 M 0.5 391.5 L 1087.5 391.5 M 0.5 401.5 L 1087.5 401.5 M 0.5 411.5 L 1087.5 411.5 M 0.5 421.5 L 1087.5 421.5 M 0.5 441.5 L 1087.5 441.5 M 0.5 451.5 L 1087.5 451.5 M 0.5 461.5 L 1087.5 461.5 M 0.5 471.5 L 1087.5 471.5 M 0.5 491.5 L 1087.5 491.5 M 0.5 501.5 L 1087.5 501.5 M 0.5 511.5 L 1087.5 511.5 M 0.5 521.5 L 1087.5 521.5 M 0.5 541.5 L 1087.5 541.5 M 0.5 551.5 L 1087.5 551.5 M 0.5 561.5 L 1087.5 561.5 M 0.5 571.5 L 1087.5 571.5 M 0.5 591.5 L 1087.5 591.5 M 0.5 601.5 L 1087.5 601.5 M 0.5 611.5 L 1087.5 611.5 M 0.5 621.5 L 1087.5 621.5 M 0.5 641.5 L 1087.5 641.5 M 0.5 651.5 L 1087.5 651.5 M 0.5 661.5 L 1087.5 661.5 M 0.5 671.5 L 1087.5 671.5 M 0.5 691.5 L 1087.5 691.5 M 0.5 701.5 L 1087.5 701.5 M 0.5 711.5 L 1087.5 711.5 M 0.5 721.5 L 1087.5 721.5 M 0.5 741.5 L 1087.5 741.5 M 0.5 751.5 L 1087.5 751.5 M 0.5 761.5 L 1087.5 761.5 M 0.5 771.5 L 1087.5 771.5 M 0.5 791.5 L 1087.5 791.5 M 0.5 801.5 L 1087.5 801.5 M 0.5 811.5 L 1087.5 811.5 M 0.5 821.5 L 1087.5 821.5 M 0.5 841.5 L 1087.5 841.5 M 0.5 851.5 L 1087.5 851.5 M 0.5 861.5 L 1087.5 861.5 M 0.5 871.5 L 1087.5 871.5 M 0.5 891.5 L 1087.5 891.5 M 0.5 901.5 L 1087.5 901.5 M 0.5 911.5 L 1087.5 911.5 M 0.5 921.5 L 1087.5 921.5 M 0.5 941.5 L 1087.5 941.5 M 0.5 951.5 L 1087.5 951.5 M 0.5 961.5 L 1087.5 961.5" stroke-opacity="0.23529411764705882" stroke-linecap="round" stroke-linejoin="round" stroke-miterlimit="10"/><path fill="none" stroke="rgb(37,37,37)" paint-order="fill stroke markers" d=" M 543.5 2.5 L 543.5 963.5" stroke-opacity="1" stroke-miterlimit="10"/><path fill="none" stroke="rgb(37,37,37)" paint-order="fill stroke markers" d=" M 543.5 1.5 L 537.5 7.5" stroke-opacity="1" stroke-miterlimit="10"/><path fill="none" stroke="rgb(37,37,37)" paint-order="fill stroke markers" d=" M 543.5 1.5 L 549.5 7.5" stroke-opacity="1" stroke-miterlimit="10"/><path fill="none" stroke="rgb(37,37,37)" paint-order="fill stroke markers" d=" M 0.5 481.5 L 1085.5 481.5" stroke-opacity="1" stroke-miterlimit="10"/><path fill="none" stroke="rgb(37,37,37)" paint-order="fill stroke markers" d=" M 1086.5 481.5 L 1080.5 475.5" stroke-opacity="1" stroke-miterlimit="10"/><path fill="none" stroke="rgb(37,37,37)" paint-order="fill stroke markers" d=" M 1086.5 481.5 L 1080.5 487.5" stroke-opacity="1" stroke-miterlimit="10"/><text fill="rgb(37,37,37)" stroke="none" font-family="geogebra-sans-serif, sans-serif" font-size="18px" font-style="normal" font-weight="normal" text-decoration="normal" x="31" y="503" text-anchor="start" dominant-baseline="alphabetic" fill-opacity="1">–10</text><text fill="none" stroke="rgb(255,255,255)" font-family="geogebra-sans-serif, sans-serif" font-size="18px" font-style="normal" font-weight="normal" text-decoration="normal" x="31" y="503" text-anchor="start" dominant-baseline="alphabetic" stroke-opacity="1" stroke-linejoin="bevel" stroke-miterlimit="10" stroke-width="3">–10</text><text fill="rgb(37,37,37)" stroke="none" font-family="geogebra-sans-serif, sans-serif" font-size="18px" font-style="normal" font-weight="normal" text-decoration="normal" x="31" y="503" text-anchor="start" dominant-baseline="alphabetic" fill-opacity="1">–10</text><text fill="rgb(37,37,37)" stroke="none" font-family="geogebra-sans-serif, sans-serif" font-size="18px" font-style="normal" font-weight="normal" text-decoration="normal" x="85" y="503" text-anchor="start" dominant-baseline="alphabetic" fill-opacity="1">–9</text><text fill="none" stroke="rgb(255,255,255)" font-family="geogebra-sans-serif, sans-serif" font-size="18px" font-style="normal" font-weight="normal" text-decoration="normal" x="85" y="503" text-anchor="start" dominant-baseline="alphabetic" stroke-opacity="1" stroke-linejoin="bevel" stroke-miterlimit="10" stroke-width="3">–9</text><text fill="rgb(37,37,37)" stroke="none" font-family="geogebra-sans-serif, sans-serif" font-size="18px" font-style="normal" font-weight="normal" text-decoration="normal" x="85" y="503" text-anchor="start" dominant-baseline="alphabetic" fill-opacity="1">–9</text><text fill="rgb(37,37,37)" stroke="none" font-family="geogebra-sans-serif, sans-serif" font-size="18px" font-style="normal" font-weight="normal" text-decoration="normal" x="135" y="503" text-anchor="start" dominant-baseline="alphabetic" fill-opacity="1">–8</text><text fill="none" stroke="rgb(255,255,255)" font-family="geogebra-sans-serif, sans-serif" font-size="18px" font-style="normal" font-weight="normal" text-decoration="normal" x="135" y="503" text-anchor="start" dominant-baseline="alphabetic" stroke-opacity="1" stroke-linejoin="bevel" stroke-miterlimit="10" stroke-width="3">–8</text><text fill="rgb(37,37,37)" stroke="none" font-family="geogebra-sans-serif, sans-serif" font-size="18px" font-style="normal" font-weight="normal" text-decoration="normal" x="135" y="503" text-anchor="start" dominant-baseline="alphabetic" fill-opacity="1">–8</text><text fill="rgb(37,37,37)" stroke="none" font-family="geogebra-sans-serif, sans-serif" font-size="18px" font-style="normal" font-weight="normal" text-decoration="normal" x="185" y="503" text-anchor="start" dominant-baseline="alphabetic" fill-opacity="1">–7</text><text fill="none" stroke="rgb(255,255,255)" font-family="geogebra-sans-serif, sans-serif" font-size="18px" font-style="normal" font-weight="normal" text-decoration="normal" x="185" y="503" text-anchor="start" dominant-baseline="alphabetic" stroke-opacity="1" stroke-linejoin="bevel" stroke-miterlimit="10" stroke-width="3">–7</text><text fill="rgb(37,37,37)" stroke="none" font-family="geogebra-sans-serif, sans-serif" font-size="18px" font-style="normal" font-weight="normal" text-decoration="normal" x="185" y="503" text-anchor="start" dominant-baseline="alphabetic" fill-opacity="1">–7</text><text fill="rgb(37,37,37)" stroke="none" font-family="geogebra-sans-serif, sans-serif" font-size="18px" font-style="normal" font-weight="normal" text-decoration="normal" x="235" y="503" text-anchor="start" dominant-baseline="alphabetic" fill-opacity="1">–6</text><text fill="none" stroke="rgb(255,255,255)" font-family="geogebra-sans-serif, sans-serif" font-size="18px" font-style="normal" font-weight="normal" text-decoration="normal" x="235" y="503" text-anchor="start" dominant-baseline="alphabetic" stroke-opacity="1" stroke-linejoin="bevel" stroke-miterlimit="10" stroke-width="3">–6</text><text fill="rgb(37,37,37)" stroke="none" font-family="geogebra-sans-serif, sans-serif" font-size="18px" font-style="normal" font-weight="normal" text-decoration="normal" x="235" y="503" text-anchor="start" dominant-baseline="alphabetic" fill-opacity="1">–6</text><text fill="rgb(37,37,37)" stroke="none" font-family="geogebra-sans-serif, sans-serif" font-size="18px" font-style="normal" font-weight="normal" text-decoration="normal" x="285" y="503" text-anchor="start" dominant-baseline="alphabetic" fill-opacity="1">–5</text><text fill="none" stroke="rgb(255,255,255)" font-family="geogebra-sans-serif, sans-serif" font-size="18px" font-style="normal" font-weight="normal" text-decoration="normal" x="285" y="503" text-anchor="start" dominant-baseline="alphabetic" stroke-opacity="1" stroke-linejoin="bevel" stroke-miterlimit="10" stroke-width="3">–5</text><text fill="rgb(37,37,37)" stroke="none" font-family="geogebra-sans-serif, sans-serif" font-size="18px" font-style="normal" font-weight="normal" text-decoration="normal" x="285" y="503" text-anchor="start" dominant-baseline="alphabetic" fill-opacity="1">–5</text><text fill="rgb(37,37,37)" stroke="none" font-family="geogebra-sans-serif, sans-serif" font-size="18px" font-style="normal" font-weight="normal" text-decoration="normal" x="335" y="503" text-anchor="start" dominant-baseline="alphabetic" fill-opacity="1">–4</text><text fill="none" stroke="rgb(255,255,255)" font-family="geogebra-sans-serif, sans-serif" font-size="18px" font-style="normal" font-weight="normal" text-decoration="normal" x="335" y="503" text-anchor="start" dominant-baseline="alphabetic" stroke-opacity="1" stroke-linejoin="bevel" stroke-miterlimit="10" stroke-width="3">–4</text><text fill="rgb(37,37,37)" stroke="none" font-family="geogebra-sans-serif, sans-serif" font-size="18px" font-style="normal" font-weight="normal" text-decoration="normal" x="335" y="503" text-anchor="start" dominant-baseline="alphabetic" fill-opacity="1">–4</text><text fill="rgb(37,37,37)" stroke="none" font-family="geogebra-sans-serif, sans-serif" font-size="18px" font-style="normal" font-weight="normal" text-decoration="normal" x="385" y="503" text-anchor="start" dominant-baseline="alphabetic" fill-opacity="1">–3</text><text fill="none" stroke="rgb(255,255,255)" font-family="geogebra-sans-serif, sans-serif" font-size="18px" font-style="normal" font-weight="normal" text-decoration="normal" x="385" y="503" text-anchor="start" dominant-baseline="alphabetic" stroke-opacity="1" stroke-linejoin="bevel" stroke-miterlimit="10" stroke-width="3">–3</text><text fill="rgb(37,37,37)" stroke="none" font-family="geogebra-sans-serif, sans-serif" font-size="18px" font-style="normal" font-weight="normal" text-decoration="normal" x="385" y="503" text-anchor="start" dominant-baseline="alphabetic" fill-opacity="1">–3</text><text fill="rgb(37,37,37)" stroke="none" font-family="geogebra-sans-serif, sans-serif" font-size="18px" font-style="normal" font-weight="normal" text-decoration="normal" x="435" y="503" text-anchor="start" dominant-baseline="alphabetic" fill-opacity="1">–2</text><text fill="none" stroke="rgb(255,255,255)" font-family="geogebra-sans-serif, sans-serif" font-size="18px" font-style="normal" font-weight="normal" text-decoration="normal" x="435" y="503" text-anchor="start" dominant-baseline="alphabetic" stroke-opacity="1" stroke-linejoin="bevel" stroke-miterlimit="10" stroke-width="3">–2</text><text fill="rgb(37,37,37)" stroke="none" font-family="geogebra-sans-serif, sans-serif" font-size="18px" font-style="normal" font-weight="normal" text-decoration="normal" x="435" y="503" text-anchor="start" dominant-baseline="alphabetic" fill-opacity="1">–2</text><text fill="rgb(37,37,37)" stroke="none" font-family="geogebra-sans-serif, sans-serif" font-size="18px" font-style="normal" font-weight="normal" text-decoration="normal" x="485" y="503" text-anchor="start" dominant-baseline="alphabetic" fill-opacity="1">–1</text><text fill="none" stroke="rgb(255,255,255)" font-family="geogebra-sans-serif, sans-serif" font-size="18px" font-style="normal" font-weight="normal" text-decoration="normal" x="485" y="503" text-anchor="start" dominant-baseline="alphabetic" stroke-opacity="1" stroke-linejoin="bevel" stroke-miterlimit="10" stroke-width="3">–1</text><text fill="rgb(37,37,37)" stroke="none" font-family="geogebra-sans-serif, sans-serif" font-size="18px" font-style="normal" font-weight="normal" text-decoration="normal" x="485" y="503" text-anchor="start" dominant-baseline="alphabetic" fill-opacity="1">–1</text><text fill="rgb(37,37,37)" stroke="none" font-family="geogebra-sans-serif, sans-serif" font-size="18px" font-style="normal" font-weight="normal" text-decoration="normal" x="590" y="503" text-anchor="start" dominant-baseline="alphabetic" fill-opacity="1">1</text><text fill="none" stroke="rgb(255,255,255)" font-family="geogebra-sans-serif, sans-serif" font-size="18px" font-style="normal" font-weight="normal" text-decoration="normal" x="590" y="503" text-anchor="start" dominant-baseline="alphabetic" stroke-opacity="1" stroke-linejoin="bevel" stroke-miterlimit="10" stroke-width="3">1</text><text fill="rgb(37,37,37)" stroke="none" font-family="geogebra-sans-serif, sans-serif" font-size="18px" font-style="normal" font-weight="normal" text-decoration="normal" x="590" y="503" text-anchor="start" dominant-baseline="alphabetic" fill-opacity="1">1</text><text fill="rgb(37,37,37)" stroke="none" font-family="geogebra-sans-serif, sans-serif" font-size="18px" font-style="normal" font-weight="normal" text-decoration="normal" x="640" y="503" text-anchor="start" dominant-baseline="alphabetic" fill-opacity="1">2</text><text fill="none" stroke="rgb(255,255,255)" font-family="geogebra-sans-serif, sans-serif" font-size="18px" font-style="normal" font-weight="normal" text-decoration="normal" x="640" y="503" text-anchor="start" dominant-baseline="alphabetic" stroke-opacity="1" stroke-linejoin="bevel" stroke-miterlimit="10" stroke-width="3">2</text><text fill="rgb(37,37,37)" stroke="none" font-family="geogebra-sans-serif, sans-serif" font-size="18px" font-style="normal" font-weight="normal" text-decoration="normal" x="640" y="503" text-anchor="start" dominant-baseline="alphabetic" fill-opacity="1">2</text><text fill="rgb(37,37,37)" stroke="none" font-family="geogebra-sans-serif, sans-serif" font-size="18px" font-style="normal" font-weight="normal" text-decoration="normal" x="690" y="503" text-anchor="start" dominant-baseline="alphabetic" fill-opacity="1">3</text><text fill="none" stroke="rgb(255,255,255)" font-family="geogebra-sans-serif, sans-serif" font-size="18px" font-style="normal" font-weight="normal" text-decoration="normal" x="690" y="503" text-anchor="start" dominant-baseline="alphabetic" stroke-opacity="1" stroke-linejoin="bevel" stroke-miterlimit="10" stroke-width="3">3</text><text fill="rgb(37,37,37)" stroke="none" font-family="geogebra-sans-serif, sans-serif" font-size="18px" font-style="normal" font-weight="normal" text-decoration="normal" x="690" y="503" text-anchor="start" dominant-baseline="alphabetic" fill-opacity="1">3</text><text fill="rgb(37,37,37)" stroke="none" font-family="geogebra-sans-serif, sans-serif" font-size="18px" font-style="normal" font-weight="normal" text-decoration="normal" x="740" y="503" text-anchor="start" dominant-baseline="alphabetic" fill-opacity="1">4</text><text fill="none" stroke="rgb(255,255,255)" font-family="geogebra-sans-serif, sans-serif" font-size="18px" font-style="normal" font-weight="normal" text-decoration="normal" x="740" y="503" text-anchor="start" dominant-baseline="alphabetic" stroke-opacity="1" stroke-linejoin="bevel" stroke-miterlimit="10" stroke-width="3">4</text><text fill="rgb(37,37,37)" stroke="none" font-family="geogebra-sans-serif, sans-serif" font-size="18px" font-style="normal" font-weight="normal" text-decoration="normal" x="740" y="503" text-anchor="start" dominant-baseline="alphabetic" fill-opacity="1">4</text><text fill="rgb(37,37,37)" stroke="none" font-family="geogebra-sans-serif, sans-serif" font-size="18px" font-style="normal" font-weight="normal" text-decoration="normal" x="790" y="503" text-anchor="start" dominant-baseline="alphabetic" fill-opacity="1">5</text><text fill="none" stroke="rgb(255,255,255)" font-family="geogebra-sans-serif, sans-serif" font-size="18px" font-style="normal" font-weight="normal" text-decoration="normal" x="790" y="503" text-anchor="start" dominant-baseline="alphabetic" stroke-opacity="1" stroke-linejoin="bevel" stroke-miterlimit="10" stroke-width="3">5</text><text fill="rgb(37,37,37)" stroke="none" font-family="geogebra-sans-serif, sans-serif" font-size="18px" font-style="normal" font-weight="normal" text-decoration="normal" x="790" y="503" text-anchor="start" dominant-baseline="alphabetic" fill-opacity="1">5</text><text fill="rgb(37,37,37)" stroke="none" font-family="geogebra-sans-serif, sans-serif" font-size="18px" font-style="normal" font-weight="normal" text-decoration="normal" x="840" y="503" text-anchor="start" dominant-baseline="alphabetic" fill-opacity="1">6</text><text fill="none" stroke="rgb(255,255,255)" font-family="geogebra-sans-serif, sans-serif" font-size="18px" font-style="normal" font-weight="normal" text-decoration="normal" x="840" y="503" text-anchor="start" dominant-baseline="alphabetic" stroke-opacity="1" stroke-linejoin="bevel" stroke-miterlimit="10" stroke-width="3">6</text><text fill="rgb(37,37,37)" stroke="none" font-family="geogebra-sans-serif, sans-serif" font-size="18px" font-style="normal" font-weight="normal" text-decoration="normal" x="840" y="503" text-anchor="start" dominant-baseline="alphabetic" fill-opacity="1">6</text><text fill="rgb(37,37,37)" stroke="none" font-family="geogebra-sans-serif, sans-serif" font-size="18px" font-style="normal" font-weight="normal" text-decoration="normal" x="890" y="503" text-anchor="start" dominant-baseline="alphabetic" fill-opacity="1">7</text><text fill="none" stroke="rgb(255,255,255)" font-family="geogebra-sans-serif, sans-serif" font-size="18px" font-style="normal" font-weight="normal" text-decoration="normal" x="890" y="503" text-anchor="start" dominant-baseline="alphabetic" stroke-opacity="1" stroke-linejoin="bevel" stroke-miterlimit="10" stroke-width="3">7</text><text fill="rgb(37,37,37)" stroke="none" font-family="geogebra-sans-serif, sans-serif" font-size="18px" font-style="normal" font-weight="normal" text-decoration="normal" x="890" y="503" text-anchor="start" dominant-baseline="alphabetic" fill-opacity="1">7</text><text fill="rgb(37,37,37)" stroke="none" font-family="geogebra-sans-serif, sans-serif" font-size="18px" font-style="normal" font-weight="normal" text-decoration="normal" x="940" y="503" text-anchor="start" dominant-baseline="alphabetic" fill-opacity="1">8</text><text fill="none" stroke="rgb(255,255,255)" font-family="geogebra-sans-serif, sans-serif" font-size="18px" font-style="normal" font-weight="normal" text-decoration="normal" x="940" y="503" text-anchor="start" dominant-baseline="alphabetic" stroke-opacity="1" stroke-linejoin="bevel" stroke-miterlimit="10" stroke-width="3">8</text><text fill="rgb(37,37,37)" stroke="none" font-family="geogebra-sans-serif, sans-serif" font-size="18px" font-style="normal" font-weight="normal" text-decoration="normal" x="940" y="503" text-anchor="start" dominant-baseline="alphabetic" fill-opacity="1">8</text><text fill="rgb(37,37,37)" stroke="none" font-family="geogebra-sans-serif, sans-serif" font-size="18px" font-style="normal" font-weight="normal" text-decoration="normal" x="990" y="503" text-anchor="start" dominant-baseline="alphabetic" fill-opacity="1">9</text><text fill="none" stroke="rgb(255,255,255)" font-family="geogebra-sans-serif, sans-serif" font-size="18px" font-style="normal" font-weight="normal" text-decoration="normal" x="990" y="503" text-anchor="start" dominant-baseline="alphabetic" stroke-opacity="1" stroke-linejoin="bevel" stroke-miterlimit="10" stroke-width="3">9</text><text fill="rgb(37,37,37)" stroke="none" font-family="geogebra-sans-serif, sans-serif" font-size="18px" font-style="normal" font-weight="normal" text-decoration="normal" x="990" y="503" text-anchor="start" dominant-baseline="alphabetic" fill-opacity="1">9</text><text fill="rgb(37,37,37)" stroke="none" font-family="geogebra-sans-serif, sans-serif" font-size="18px" font-style="normal" font-weight="normal" text-decoration="normal" x="1035" y="503" text-anchor="start" dominant-baseline="alphabetic" fill-opacity="1">10</text><text fill="none" stroke="rgb(255,255,255)" font-family="geogebra-sans-serif, sans-serif" font-size="18px" font-style="normal" font-weight="normal" text-decoration="normal" x="1035" y="503" text-anchor="start" dominant-baseline="alphabetic" stroke-opacity="1" stroke-linejoin="bevel" stroke-miterlimit="10" stroke-width="3">10</text><text fill="rgb(37,37,37)" stroke="none" font-family="geogebra-sans-serif, sans-serif" font-size="18px" font-style="normal" font-weight="normal" text-decoration="normal" x="1035" y="503" text-anchor="start" dominant-baseline="alphabetic" fill-opacity="1">10</text><text fill="rgb(37,37,37)" stroke="none" font-family="geogebra-sans-serif, sans-serif" font-size="18px" font-style="normal" font-weight="normal" text-decoration="normal" x="515" y="939" text-anchor="start" dominant-baseline="alphabetic" fill-opacity="1">–9</text><text fill="none" stroke="rgb(255,255,255)" font-family="geogebra-sans-serif, sans-serif" font-size="18px" font-style="normal" font-weight="normal" text-decoration="normal" x="515" y="939" text-anchor="start" dominant-baseline="alphabetic" stroke-opacity="1" stroke-linejoin="bevel" stroke-miterlimit="10" stroke-width="3">–9</text><text fill="rgb(37,37,37)" stroke="none" font-family="geogebra-sans-serif, sans-serif" font-size="18px" font-style="normal" font-weight="normal" text-decoration="normal" x="515" y="939" text-anchor="start" dominant-baseline="alphabetic" fill-opacity="1">–9</text><text fill="rgb(37,37,37)" stroke="none" font-family="geogebra-sans-serif, sans-serif" font-size="18px" font-style="normal" font-weight="normal" text-decoration="normal" x="515" y="889" text-anchor="start" dominant-baseline="alphabetic" fill-opacity="1">–8</text><text fill="none" stroke="rgb(255,255,255)" font-family="geogebra-sans-serif, sans-serif" font-size="18px" font-style="normal" font-weight="normal" text-decoration="normal" x="515" y="889" text-anchor="start" dominant-baseline="alphabetic" stroke-opacity="1" stroke-linejoin="bevel" stroke-miterlimit="10" stroke-width="3">–8</text><text fill="rgb(37,37,37)" stroke="none" font-family="geogebra-sans-serif, sans-serif" font-size="18px" font-style="normal" font-weight="normal" text-decoration="normal" x="515" y="889" text-anchor="start" dominant-baseline="alphabetic" fill-opacity="1">–8</text><text fill="rgb(37,37,37)" stroke="none" font-family="geogebra-sans-serif, sans-serif" font-size="18px" font-style="normal" font-weight="normal" text-decoration="normal" x="515" y="839" text-anchor="start" dominant-baseline="alphabetic" fill-opacity="1">–7</text><text fill="none" stroke="rgb(255,255,255)" font-family="geogebra-sans-serif, sans-serif" font-size="18px" font-style="normal" font-weight="normal" text-decoration="normal" x="515" y="839" text-anchor="start" dominant-baseline="alphabetic" stroke-opacity="1" stroke-linejoin="bevel" stroke-miterlimit="10" stroke-width="3">–7</text><text fill="rgb(37,37,37)" stroke="none" font-family="geogebra-sans-serif, sans-serif" font-size="18px" font-style="normal" font-weight="normal" text-decoration="normal" x="515" y="839" text-anchor="start" dominant-baseline="alphabetic" fill-opacity="1">–7</text><text fill="rgb(37,37,37)" stroke="none" font-family="geogebra-sans-serif, sans-serif" font-size="18px" font-style="normal" font-weight="normal" text-decoration="normal" x="515" y="789" text-anchor="start" dominant-baseline="alphabetic" fill-opacity="1">–6</text><text fill="none" stroke="rgb(255,255,255)" font-family="geogebra-sans-serif, sans-serif" font-size="18px" font-style="normal" font-weight="normal" text-decoration="normal" x="515" y="789" text-anchor="start" dominant-baseline="alphabetic" stroke-opacity="1" stroke-linejoin="bevel" stroke-miterlimit="10" stroke-width="3">–6</text><text fill="rgb(37,37,37)" stroke="none" font-family="geogebra-sans-serif, sans-serif" font-size="18px" font-style="normal" font-weight="normal" text-decoration="normal" x="515" y="789" text-anchor="start" dominant-baseline="alphabetic" fill-opacity="1">–6</text><text fill="rgb(37,37,37)" stroke="none" font-family="geogebra-sans-serif, sans-serif" font-size="18px" font-style="normal" font-weight="normal" text-decoration="normal" x="515" y="739" text-anchor="start" dominant-baseline="alphabetic" fill-opacity="1">–5</text><text fill="none" stroke="rgb(255,255,255)" font-family="geogebra-sans-serif, sans-serif" font-size="18px" font-style="normal" font-weight="normal" text-decoration="normal" x="515" y="739" text-anchor="start" dominant-baseline="alphabetic" stroke-opacity="1" stroke-linejoin="bevel" stroke-miterlimit="10" stroke-width="3">–5</text><text fill="rgb(37,37,37)" stroke="none" font-family="geogebra-sans-serif, sans-serif" font-size="18px" font-style="normal" font-weight="normal" text-decoration="normal" x="515" y="739" text-anchor="start" dominant-baseline="alphabetic" fill-opacity="1">–5</text><text fill="rgb(37,37,37)" stroke="none" font-family="geogebra-sans-serif, sans-serif" font-size="18px" font-style="normal" font-weight="normal" text-decoration="normal" x="515" y="689" text-anchor="start" dominant-baseline="alphabetic" fill-opacity="1">–4</text><text fill="none" stroke="rgb(255,255,255)" font-family="geogebra-sans-serif, sans-serif" font-size="18px" font-style="normal" font-weight="normal" text-decoration="normal" x="515" y="689" text-anchor="start" dominant-baseline="alphabetic" stroke-opacity="1" stroke-linejoin="bevel" stroke-miterlimit="10" stroke-width="3">–4</text><text fill="rgb(37,37,37)" stroke="none" font-family="geogebra-sans-serif, sans-serif" font-size="18px" font-style="normal" font-weight="normal" text-decoration="normal" x="515" y="689" text-anchor="start" dominant-baseline="alphabetic" fill-opacity="1">–4</text><text fill="rgb(37,37,37)" stroke="none" font-family="geogebra-sans-serif, sans-serif" font-size="18px" font-style="normal" font-weight="normal" text-decoration="normal" x="515" y="639" text-anchor="start" dominant-baseline="alphabetic" fill-opacity="1">–3</text><text fill="none" stroke="rgb(255,255,255)" font-family="geogebra-sans-serif, sans-serif" font-size="18px" font-style="normal" font-weight="normal" text-decoration="normal" x="515" y="639" text-anchor="start" dominant-baseline="alphabetic" stroke-opacity="1" stroke-linejoin="bevel" stroke-miterlimit="10" stroke-width="3">–3</text><text fill="rgb(37,37,37)" stroke="none" font-family="geogebra-sans-serif, sans-serif" font-size="18px" font-style="normal" font-weight="normal" text-decoration="normal" x="515" y="639" text-anchor="start" dominant-baseline="alphabetic" fill-opacity="1">–3</text><text fill="rgb(37,37,37)" stroke="none" font-family="geogebra-sans-serif, sans-serif" font-size="18px" font-style="normal" font-weight="normal" text-decoration="normal" x="515" y="589" text-anchor="start" dominant-baseline="alphabetic" fill-opacity="1">–2</text><text fill="none" stroke="rgb(255,255,255)" font-family="geogebra-sans-serif, sans-serif" font-size="18px" font-style="normal" font-weight="normal" text-decoration="normal" x="515" y="589" text-anchor="start" dominant-baseline="alphabetic" stroke-opacity="1" stroke-linejoin="bevel" stroke-miterlimit="10" stroke-width="3">–2</text><text fill="rgb(37,37,37)" stroke="none" font-family="geogebra-sans-serif, sans-serif" font-size="18px" font-style="normal" font-weight="normal" text-decoration="normal" x="515" y="589" text-anchor="start" dominant-baseline="alphabetic" fill-opacity="1">–2</text><text fill="rgb(37,37,37)" stroke="none" font-family="geogebra-sans-serif, sans-serif" font-size="18px" font-style="normal" font-weight="normal" text-decoration="normal" x="515" y="539" text-anchor="start" dominant-baseline="alphabetic" fill-opacity="1">–1</text><text fill="none" stroke="rgb(255,255,255)" font-family="geogebra-sans-serif, sans-serif" font-size="18px" font-style="normal" font-weight="normal" text-decoration="normal" x="515" y="539" text-anchor="start" dominant-baseline="alphabetic" stroke-opacity="1" stroke-linejoin="bevel" stroke-miterlimit="10" stroke-width="3">–1</text><text fill="rgb(37,37,37)" stroke="none" font-family="geogebra-sans-serif, sans-serif" font-size="18px" font-style="normal" font-weight="normal" text-decoration="normal" x="515" y="539" text-anchor="start" dominant-baseline="alphabetic" fill-opacity="1">–1</text><text fill="rgb(37,37,37)" stroke="none" font-family="geogebra-sans-serif, sans-serif" font-size="18px" font-style="normal" font-weight="normal" text-decoration="normal" x="525" y="439" text-anchor="start" dominant-baseline="alphabetic" fill-opacity="1">1</text><text fill="none" stroke="rgb(255,255,255)" font-family="geogebra-sans-serif, sans-serif" font-size="18px" font-style="normal" font-weight="normal" text-decoration="normal" x="525" y="439" text-anchor="start" dominant-baseline="alphabetic" stroke-opacity="1" stroke-linejoin="bevel" stroke-miterlimit="10" stroke-width="3">1</text><text fill="rgb(37,37,37)" stroke="none" font-family="geogebra-sans-serif, sans-serif" font-size="18px" font-style="normal" font-weight="normal" text-decoration="normal" x="525" y="439" text-anchor="start" dominant-baseline="alphabetic" fill-opacity="1">1</text><text fill="rgb(37,37,37)" stroke="none" font-family="geogebra-sans-serif, sans-serif" font-size="18px" font-style="normal" font-weight="normal" text-decoration="normal" x="525" y="389" text-anchor="start" dominant-baseline="alphabetic" fill-opacity="1">2</text><text fill="none" stroke="rgb(255,255,255)" font-family="geogebra-sans-serif, sans-serif" font-size="18px" font-style="normal" font-weight="normal" text-decoration="normal" x="525" y="389" text-anchor="start" dominant-baseline="alphabetic" stroke-opacity="1" stroke-linejoin="bevel" stroke-miterlimit="10" stroke-width="3">2</text><text fill="rgb(37,37,37)" stroke="none" font-family="geogebra-sans-serif, sans-serif" font-size="18px" font-style="normal" font-weight="normal" text-decoration="normal" x="525" y="389" text-anchor="start" dominant-baseline="alphabetic" fill-opacity="1">2</text><text fill="rgb(37,37,37)" stroke="none" font-family="geogebra-sans-serif, sans-serif" font-size="18px" font-style="normal" font-weight="normal" text-decoration="normal" x="525" y="339" text-anchor="start" dominant-baseline="alphabetic" fill-opacity="1">3</text><text fill="none" stroke="rgb(255,255,255)" font-family="geogebra-sans-serif, sans-serif" font-size="18px" font-style="normal" font-weight="normal" text-decoration="normal" x="525" y="339" text-anchor="start" dominant-baseline="alphabetic" stroke-opacity="1" stroke-linejoin="bevel" stroke-miterlimit="10" stroke-width="3">3</text><text fill="rgb(37,37,37)" stroke="none" font-family="geogebra-sans-serif, sans-serif" font-size="18px" font-style="normal" font-weight="normal" text-decoration="normal" x="525" y="339" text-anchor="start" dominant-baseline="alphabetic" fill-opacity="1">3</text><text fill="rgb(37,37,37)" stroke="none" font-family="geogebra-sans-serif, sans-serif" font-size="18px" font-style="normal" font-weight="normal" text-decoration="normal" x="525" y="289" text-anchor="start" dominant-baseline="alphabetic" fill-opacity="1">4</text><text fill="none" stroke="rgb(255,255,255)" font-family="geogebra-sans-serif, sans-serif" font-size="18px" font-style="normal" font-weight="normal" text-decoration="normal" x="525" y="289" text-anchor="start" dominant-baseline="alphabetic" stroke-opacity="1" stroke-linejoin="bevel" stroke-miterlimit="10" stroke-width="3">4</text><text fill="rgb(37,37,37)" stroke="none" font-family="geogebra-sans-serif, sans-serif" font-size="18px" font-style="normal" font-weight="normal" text-decoration="normal" x="525" y="289" text-anchor="start" dominant-baseline="alphabetic" fill-opacity="1">4</text><text fill="rgb(37,37,37)" stroke="none" font-family="geogebra-sans-serif, sans-serif" font-size="18px" font-style="normal" font-weight="normal" text-decoration="normal" x="525" y="239" text-anchor="start" dominant-baseline="alphabetic" fill-opacity="1">5</text><text fill="none" stroke="rgb(255,255,255)" font-family="geogebra-sans-serif, sans-serif" font-size="18px" font-style="normal" font-weight="normal" text-decoration="normal" x="525" y="239" text-anchor="start" dominant-baseline="alphabetic" stroke-opacity="1" stroke-linejoin="bevel" stroke-miterlimit="10" stroke-width="3">5</text><text fill="rgb(37,37,37)" stroke="none" font-family="geogebra-sans-serif, sans-serif" font-size="18px" font-style="normal" font-weight="normal" text-decoration="normal" x="525" y="239" text-anchor="start" dominant-baseline="alphabetic" fill-opacity="1">5</text><text fill="rgb(37,37,37)" stroke="none" font-family="geogebra-sans-serif, sans-serif" font-size="18px" font-style="normal" font-weight="normal" text-decoration="normal" x="525" y="189" text-anchor="start" dominant-baseline="alphabetic" fill-opacity="1">6</text><text fill="none" stroke="rgb(255,255,255)" font-family="geogebra-sans-serif, sans-serif" font-size="18px" font-style="normal" font-weight="normal" text-decoration="normal" x="525" y="189" text-anchor="start" dominant-baseline="alphabetic" stroke-opacity="1" stroke-linejoin="bevel" stroke-miterlimit="10" stroke-width="3">6</text><text fill="rgb(37,37,37)" stroke="none" font-family="geogebra-sans-serif, sans-serif" font-size="18px" font-style="normal" font-weight="normal" text-decoration="normal" x="525" y="189" text-anchor="start" dominant-baseline="alphabetic" fill-opacity="1">6</text><text fill="rgb(37,37,37)" stroke="none" font-family="geogebra-sans-serif, sans-serif" font-size="18px" font-style="normal" font-weight="normal" text-decoration="normal" x="525" y="139" text-anchor="start" dominant-baseline="alphabetic" fill-opacity="1">7</text><text fill="none" stroke="rgb(255,255,255)" font-family="geogebra-sans-serif, sans-serif" font-size="18px" font-style="normal" font-weight="normal" text-decoration="normal" x="525" y="139" text-anchor="start" dominant-baseline="alphabetic" stroke-opacity="1" stroke-linejoin="bevel" stroke-miterlimit="10" stroke-width="3">7</text><text fill="rgb(37,37,37)" stroke="none" font-family="geogebra-sans-serif, sans-serif" font-size="18px" font-style="normal" font-weight="normal" text-decoration="normal" x="525" y="139" text-anchor="start" dominant-baseline="alphabetic" fill-opacity="1">7</text><text fill="rgb(37,37,37)" stroke="none" font-family="geogebra-sans-serif, sans-serif" font-size="18px" font-style="normal" font-weight="normal" text-decoration="normal" x="525" y="89" text-anchor="start" dominant-baseline="alphabetic" fill-opacity="1">8</text><text fill="none" stroke="rgb(255,255,255)" font-family="geogebra-sans-serif, sans-serif" font-size="18px" font-style="normal" font-weight="normal" text-decoration="normal" x="525" y="89" text-anchor="start" dominant-baseline="alphabetic" stroke-opacity="1" stroke-linejoin="bevel" stroke-miterlimit="10" stroke-width="3">8</text><text fill="rgb(37,37,37)" stroke="none" font-family="geogebra-sans-serif, sans-serif" font-size="18px" font-style="normal" font-weight="normal" text-decoration="normal" x="525" y="89" text-anchor="start" dominant-baseline="alphabetic" fill-opacity="1">8</text><text fill="rgb(37,37,37)" stroke="none" font-family="geogebra-sans-serif, sans-serif" font-size="18px" font-style="normal" font-weight="normal" text-decoration="normal" x="525" y="39" text-anchor="start" dominant-baseline="alphabetic" fill-opacity="1">9</text><text fill="none" stroke="rgb(255,255,255)" font-family="geogebra-sans-serif, sans-serif" font-size="18px" font-style="normal" font-weight="normal" text-decoration="normal" x="525" y="39" text-anchor="start" dominant-baseline="alphabetic" stroke-opacity="1" stroke-linejoin="bevel" stroke-miterlimit="10" stroke-width="3">9</text><text fill="rgb(37,37,37)" stroke="none" font-family="geogebra-sans-serif, sans-serif" font-size="18px" font-style="normal" font-weight="normal" text-decoration="normal" x="525" y="39" text-anchor="start" dominant-baseline="alphabetic" fill-opacity="1">9</text><text fill="rgb(37,37,37)" stroke="none" font-family="geogebra-sans-serif, sans-serif" font-size="18px" font-style="normal" font-weight="normal" text-decoration="normal" x="525" y="503" text-anchor="start" dominant-baseline="alphabetic" fill-opacity="1">0</text><text fill="none" stroke="rgb(255,255,255)" font-family="geogebra-sans-serif, sans-serif" font-size="18px" font-style="normal" font-weight="normal" text-decoration="normal" x="525" y="503" text-anchor="start" dominant-baseline="alphabetic" stroke-opacity="1" stroke-linejoin="bevel" stroke-miterlimit="10" stroke-width="3">0</text><text fill="rgb(37,37,37)" stroke="none" font-family="geogebra-sans-serif, sans-serif" font-size="18px" font-style="normal" font-weight="normal" text-decoration="normal" x="525" y="503" text-anchor="start" dominant-baseline="alphabetic" fill-opacity="1">0</text><path fill="none" stroke="rgb(211,47,47)" paint-order="fill stroke markers" d=" M 543.5 481.5 L 543.5 481.5 L 543.5 481.5 L 544.5 474.4289321881345 L 544.5 474.4289321881345 L 545.5 471.5 L 545.5 471.5 L 546.5 469.2525512860841 L 546.5 469.2525512860841 L 547.5 467.35786437626905 L 547.5 467.35786437626905 L 548.5 465.6886116991581 L 548.5 465.6886116991581 L 549.5 464.1794919243112 L 549.5 464.1794919243112 L 550.5 462.7917130661303 L 550.5 462.7917130661303 L 551.5 461.5 L 551.5 461.5 L 552.5 460.2867965644036 L 552.5 460.2867965644036 L 553.5 459.1393202250021 L 553.5 459.1393202250021 L 554.5 458.04792120088285 L 554.5 458.04792120088285 L 555.5 457.0051025721682 L 555.5 457.0051025721682 L 556.5 456.00490243203603 L 556.5 456.0049024320361 L 557.5 455.04248688935405 L 557.5 455.0424868893541 L 558.5 454.11387212474165 L 558.5 454.1138721247417 L 559.5 453.2157287525381 L 559.5 453.2157287525381 L 560.5 452.3452405257735 L 560.5 452.3452405257735 L 561.5 451.5 L 561.5 451.5 L 562.5 450.6779299851551 L 562.5 450.6779299851551 L 563.5 449.8772233983162 L 563.5 449.87722339831623 L 564.5 449.0962965079607 L 564.5 449.0962965079607 L 565.5 448.333752096446 L 565.5 448.333752096446 L 566.5 447.58835008437364 L 566.5 447.58835008437364 L 567.5 446.8589838486224 L 567.5 446.8589838486224 L 568.5 446.1446609406726 L 568.5 446.1446609406726 L 569.5 445.44448724536005 L 569.5 445.4444872453601 L 570.5 444.7576538582523 L 570.5 444.7576538582523 L 571.5 444.08342613226057 L 571.5 444.08342613226057 L 572.5 443.42113447068044 L 572.5 443.42113447068044 L 573.5 442.77016653792583 L 573.5 442.77016653792583 L 574.5 442.1299606299409 L 574.5 442.1299606299409 L 575.5 441.5 L 575.5 441.5 L 576.5 440.8798079768202 L 576.5 440.8798079768202 L 577.5 440.26894374382334 L 577.5 440.2689437438234 L 578.5 439.6669986732962 L 578.5 439.66699867329623 L 579.5 439.07359312880715 L 579.5 439.07359312880715 L 580.5 438.4883736647868 L 580.5 438.4883736647869 L 581.5 437.91101056459325 L 581.5 437.91101056459325 L 582.5 437.34119566836074 L 582.5 437.34119566836074 L 583.5 436.77864045000416 L 583.5 436.7786404500042 L 584.5 436.2230743093129 L 584.5 436.2230743093129 L 585.5 435.6742430504416 L 585.5 435.6742430504416 L 586.5 435.13190752252143 L 586.5 435.1319075225215 L 587.5 434.5958424017657 L 587.5 434.5958424017657 L 588.5 434.0658350974743 L 588.5 434.0658350974743 L 589.5 433.5416847668728 L 589.5 433.5416847668728 L 590.5 433.0232014258367 L 590.5 433.0232014258367 L 591.5 432.5102051443364 L 591.5 432.5102051443364 L 592.5 432.0025253169416 L 592.5 432.00252531694167 L 593.5 431.49999999999994 L 593.5 431.5 L 594.5 431.00247530818956 L 594.5 431.0024753081896 L 595.5 430.5098048640721 L 595.5 430.5098048640721 L 596.5 430.02184929506495 L 596.5 430.021849295065 L 597.5 429.5384757729337 L 597.5 429.5384757729337 L 598.5 429.0595575914924 L 598.5 429.0595575914924 L 599.5 428.58497377870816 L 599.5 428.58497377870816 L 600.5 428.1146087398434 L 600.5 428.11460873984345 L 601.5 427.6483519286549 L 601.5 427.64835192865496 L 602.5 427.18609754399887 L 602.5 427.1860975439989 L 603.5 426.72774424948335 L 603.5 426.7277442494834 L 604.5 426.27319491406365 L 604.5 426.27319491406365 L 605.5 425.82235637169975 L 605.5 425.82235637169975 L 606.5 425.37513919839085 L 606.5 425.37513919839085 L 607.5 424.93145750507614 L 607.5 424.9314575050762 L 608.5 424.49122874504303 L 608.5 424.4912287450431 L 609.5 424.0543735346197 L 609.5 424.0543735346197 L 610.5 423.62081548604885 L 610.5 423.62081548604885 L 611.5 423.19048105154695 L 611.5 423.19048105154695 L 612.5 422.7632993776463 L 612.5 422.7632993776463 L 613.5 422.3392021690038 L 613.5 422.33920216900384 L 614.5 421.91812356093504 L 614.5 421.91812356093504 L 615.5 421.49999999999994 L 615.5 421.5 L 616.5 421.0847701320271 L 616.5 421.08477013202713 L 617.5 420.67237469701774 L 617.5 420.6723746970178 L 618.5 420.2627564304205 L 618.5 420.26275643042055 L 619.5 419.8558599703102 L 619.5 419.85585997031023 L 620.5 419.45163177004565 L 620.5 419.4516317700457 L 621.5 419.050020016016 L 621.5 419.050020016016 L 622.5 418.65097455011727 L 622.5 418.6509745501173 L 623.5 418.25444679663235 L 623.5 418.2544467966324 L 624.5 417.86038969321066 L 624.5 417.8603896932107 L 625.5 417.46875762567146 L 625.5 417.4687576256715 L 626.5 417.07950636637435 L 626.5 417.07950636637435 L 627.5 416.6925930159214 L 627.5 416.6925930159214 L 628.5 416.3079759479735 L 628.5 416.3079759479735 L 629.5 415.92561475697994 L 629.5 415.92561475698 L 630.5 415.5454702086354 L 630.5 415.5454702086354 L 631.5 415.16750419289195 L 631.5 415.167504192892 L 632.5 414.79167967936826 L 632.5 414.7916796793683 L 633.5 414.41796067500627 L 633.5 414.41796067500627 L 634.5 414.04631218383975 L 634.5 414.04631218383975 L 635.5 413.6767001687473 L 635.5 413.6767001687473 L 636.5 413.3090915150707 L 636.5 413.3090915150707 L 637.5 412.9434539959895 L 637.5 412.94345399598956 L 638.5 412.57975623954883 L 638.5 412.5797562395489 L 639.5 412.21796769724483 L 639.5 412.2179676972449 L 640.5 411.85805861407937 L 640.5 411.85805861407937 L 641.5 411.49999999999994 L 641.5 411.5 L 642.5 411.1437636026485 L 642.5 411.14376360264856 L 643.5 410.7893218813452 L 643.5 410.78932188134524 L 644.5 410.43664798224046 L 644.5 410.4366479822405 L 645.5 410.08571571457145 L 645.5 410.0857157145715 L 646.5 409.73649952796336 L 646.5 409.73649952796336 L 647.5 409.38897449072016 L 647.5 409.3889744907202 L 648.5 409.04311626905275 L 648.5 409.0431162690528 L 649.5 408.69890110719473 L 649.5 408.6989011071948 L 650.5 408.356305808361 L 650.5 408.356305808361 L 651.5 408.0153077165046 L 651.5 408.01530771650465 L 652.5 407.675884698833 L 652.5 407.675884698833 L 653.5 407.33801512904336 L 653.5 407.33801512904336 L 654.5 407.00167787124326 L 654.5 407.00167787124326 L 655.5 406.66685226452114 L 655.5 406.66685226452114 L 656.5 406.3335181081354 L 656.5 406.3335181081354 L 657.5 406.00165564729247 L 657.5 406.00165564729247 L 658.5 405.6712455594844 L 658.5 405.6712455594845 L 659.5 405.3422689413609 L 659.5 405.3422689413609 L 660.5 405.01470729610816 L 660.5 405.0147072961082 L 661.5 404.6885425213139 L 661.5 404.6885425213139 L 662.5 404.3637568972924 L 662.5 404.36375689729243 L 663.5 404.0403330758516 L 663.5 404.04033307585166 L 664.5 403.7182540694797 L 664.5 403.71825406947977 L 665.5 403.3975032409334 L 665.5 403.3975032409334 L 666.5 403.0780642932093 L 666.5 403.07806429320937 L 667.5 402.7599212598818 L 667.5 402.7599212598819 L 668.5 402.44305849579047 L 668.5 402.4430584957905 L 669.5 402.1274606680622 L 669.5 402.12746066806227 L 670.5 401.81311274745383 L 670.5 401.81311274745383 L 671.5 401.49999999999994 L 671.5 401.5 L 672.5 401.1881079789549 L 672.5 401.1881079789549 L 673.5 400.87742251701445 L 673.5 400.87742251701445 L 674.5 400.56792971880674 L 674.5 400.56792971880674 L 675.5 400.2596159536403 L 675.5 400.2596159536404 L 676.5 399.9524678484995 L 676.5 399.9524678484995 L 677.5 399.64647228127546 L 677.5 399.64647228127546 L 678.5 399.34161637422505 L 678.5 399.34161637422505 L 679.5 399.03788748764674 L 679.5 399.03788748764674 L 680.5 398.7352732137657 L 680.5 398.7352732137657 L 681.5 398.4337613708192 L 681.5 398.43376137081924 L 682.5 398.1333399973346 L 682.5 398.13333999733464 L 683.5 397.83399734659235 L 683.5 397.8339973465924 L 684.5 397.5357218812666 L 684.5 397.5357218812667 L 685.5 397.23850226823635 L 685.5 397.2385022682364 L 686.5 396.9423273735611 L 686.5 396.94232737356117 L 687.5 396.64718625761424 L 687.5 396.6471862576143 L 688.5 396.3530681703679 L 688.5 396.353068170368 L 689.5 396.05996254682464 L 689.5 396.05996254682464 L 690.5 395.7678590025887 L 690.5 395.76785900258875 L 691.5 395.47674732957364 L 691.5 395.4767473295737 L 692.5 395.18661749183957 L 692.5 395.1866174918396 L 693.5 394.8974596215561 L 693.5 394.8974596215561 L 694.5 394.6092640150861 L 694.5 394.6092640150862 L 695.5 394.32202112918645 L 695.5 394.3220211291865 L 696.5 394.03572157732043 L 696.5 394.0357215773205 L 697.5 393.7503561260787 L 697.5 393.75035612607877 L 698.5 393.4659156917049 L 698.5 393.46591569170494 L 699.5 393.1823913367215 L 699.5 393.1823913367215 L 700.5 392.8997742666532 L 700.5 392.89977426665325 L 701.5 392.61805582684406 L 701.5 392.6180558268441 L 702.5 392.3372274993649 L 702.5 392.33722749936493 L 703.5 392.0572809000083 L 703.5 392.0572809000084 L 704.5 391.7782077753682 L 704.5 391.7782077753682 L 705.5 391.49999999999994 L 705.5 391.5 L 706.5 391.222649573661 L 706.5 391.22264957366104 L 707.5 390.9461486186258 L 707.5 390.9461486186258 L 708.5 390.6704893770752 L 708.5 390.6704893770752 L 709.5 390.3956642085569 L 709.5 390.395664208557 L 710.5 390.1216655875146 L 710.5 390.12166558751466 L 711.5 389.8484861008831 L 711.5 389.8484861008832 L 712.5 389.57611844574876 L 712.5 389.5761184457488 L 713.5 389.3045554270711 L 713.5 389.30455542707114 L 714.5 389.0337899554653 L 714.5 389.03378995546535 L 715.5 388.76381504504286 L 715.5 388.7638150450429 L 716.5 388.49462381130854 L 716.5 388.4946238113086 L 717.5 388.2262094691118 L 717.5 388.22620946911184 L 718.5 387.95856533065137 L 718.5 387.9585653306514 L 719.5 387.69168480353136 L 719.5 387.6916848035314 L 720.5 387.425561388866 L 720.5 387.4255613888661 L 721.5 387.1601886794339 L 721.5 387.16018867943393 L 722.5 386.89556035787746 L 722.5 386.89556035787746 L 723.5 386.6316701949486 L 723.5 386.6316701949486 L 724.5 386.3685120477977 L 724.5 386.3685120477977 L 725.5 386.1060798583054 L 725.5 386.1060798583054 L 726.5 385.84436765145495 L 726.5 385.844367651455 L 727.5 385.58336953374555 L 727.5 385.5833695337456 L 728.5 385.3230796916432 L 728.5 385.3230796916433 L 729.5 385.06349239007034 L 729.5 385.06349239007045 L 730.5 384.80460197093134 L 730.5 384.8046019709314 L 731.5 384.54640285167335 L 731.5 384.5464028516734 L 732.5 384.288889523882 L 732.5 384.28888952388206 L 733.5 384.0320565519103 L 733.5 384.03205655191033 L 734.5 383.77589857153964 L 734.5 383.77589857153964 L 735.5 383.5204102886728 L 735.5 383.52041028867285 L 736.5 383.26558647805746 L 736.5 383.26558647805746 L 737.5 383.0114219820389 L 737.5 383.01142198203894 L 738.5 382.75791170934247 L 738.5 382.75791170934247 L 739.5 382.5050506338833 L 739.5 382.50505063388334 L 740.5 382.2528337936039 L 740.5 382.25283379360394 L 741.5 382.00125628933796 L 741.5 382.001256289338 L 742.5 381.75031328369994 L 742.5 381.75031328369994 L 743.5 381.49999999999994 L 743.5 381.5 L 744.5 381.2503117211828 L 744.5 381.25031172118287 L 745.5 381.00124378879104 L 745.5 381.00124378879104 L 746.5 380.7527916019505 L 746.5 380.75279160195055 L 747.5 380.5049506163791 L 747.5 380.50495061637923 L 748.5 380.257716343417 L 748.5 380.25771634341703 L 749.5 380.0110843490777 L 749.5 380.0110843490778 L 750.5 379.7650502531209 L 750.5 379.765050253121 L 751.5 379.51960972814425 L 751.5 379.5196097281443 L 752.5 379.2747584986955 L 752.5 379.27475849869563 L 753.5 379.03049234040395 L 753.5 379.030492340404 L 754.5 378.78680707912923 L 754.5 378.7868070791293 L 755.5 378.5436985901299 L 755.5 378.54369859012996 L 756.5 378.3011627972485 L 756.5 378.30116279724854 L 757.5 378.0591956721139 L 757.5 378.059195672114 L 758.5 377.81779323336133 L 758.5 377.8177932333614 L 759.5 377.5769515458673 L 759.5 377.57695154586736 L 760.5 377.33666672000163 L 760.5 377.3366667200017 L 761.5 377.09693491089445 L 761.5 377.0969349108945 L 762.5 376.85775231771817 L 762.5 376.8577523177182 L 763.5 376.61911518298473 L 763.5 376.61911518298484 L 764.5 376.3810197918567 L 764.5 376.3810197918568 L 765.5 376.1434624714725 L 765.5 376.1434624714726 L 766.5 375.9064395902855 L 766.5 375.9064395902856 L 767.5 375.6699475574163 L 767.5 375.6699475574164 L 768.5 375.4339828220178 L 768.5 375.43398282201787 L 769.5 375.19854187265344 L 769.5 375.1985418726535 L 770.5 374.96362123668735 L 770.5 374.9636212366874 L 771.5 374.7292174796868 L 771.5 374.7292174796869 L 772.5 374.4953272048364 L 772.5 374.4953272048365 L 773.5 374.26194705236384 L 773.5 374.2619470523639 L 774.5 374.0290736989765 L 774.5 374.0290736989766 L 775.5 373.79670385730986 L 775.5 373.7967038573099 L 776.5 373.5648342753854 L 776.5 373.56483427538546 L 777.5 373.33346173608027 L 777.5 373.3334617360803 L 778.5 373.1025830566059 L 778.5 373.10258305660597 L 779.5 372.87219508799774 L 779.5 372.87219508799785 L 780.5 372.6422947146137 L 780.5 372.6422947146138 L 781.5 372.4128788536428 L 781.5 372.41287885364284 L 782.5 372.1839444546227 L 782.5 372.18394445462275 L 783.5 371.9554884989667 L 783.5 371.95548849896676 L 784.5 371.72750799949915 L 784.5 371.72750799949927 L 785.5 371.4999999999999 L 785.5 371.5 L 786.5 371.2729615747569 L 786.5 371.272961574757 L 787.5 371.0463898281273 L 787.5 371.0463898281274 L 788.5 370.82028189410664 L 788.5 370.8202818941067 L 789.5 370.59463493590573 L 789.5 370.5946349359058 L 790.5 370.36944614553556 L 790.5 370.3694461455356 L 791.5 370.1447127433995 L 791.5 370.14471274339957 L 792.5 369.9204319778929 L 792.5 369.920431977893 L 793.5 369.69660112501043 L 793.5 369.6966011250105 L 794.5 369.4732174879595 L 794.5 369.4732174879596 L 795.5 369.2502783967817 L 795.5 369.25027839678177 L 796.5 369.02778120797996 L 796.5 369.02778120798007 L 797.5 368.80572330415345 L 797.5 368.8057233041535 L 798.5 368.58410209363774 L 798.5 368.58410209363785 L 799.5 368.3629150101523 L 799.5 368.3629150101524 L 800.5 368.14215951245353 L 800.5 368.14215951245365 L 801.5 367.92183308399444 L 801.5 367.9218330839945 L 802.5 367.7019332325895 L 802.5 367.70193323258957 L 803.5 367.4824574900861 L 803.5 367.4824574900862 L 804.5 367.26340341204127 L 804.5 367.2634034120414 L 805.5 367.04476857740394 L 805.5 367.044768577404 L 806.5 366.82655058820274 L 806.5 366.82655058820285 L 807.5 366.6087470692393 L 807.5 366.60874706923937 L 808.5 366.3913556677865 L 808.5 366.39135566778657 L 809.5 366.17437405329196 L 809.5 366.174374053292 L 810.5 365.9577999170865 L 810.5 365.95779991708656 L 811.5 365.74163097209765 L 811.5 365.7416309720977 L 812.5 365.5258649525679 L 812.5 365.525864952568 L 813.5 365.31049961377744 L 813.5 365.3104996137775 L 814.5 365.09553273177175 L 814.5 365.09553273177187 L 815.5 364.8809621030939 L 815.5 364.88096210309396 L 816.5 364.6667855445207 L 816.5 364.66678554452074 L 817.5 364.45300089280363 L 817.5 364.45300089280374 L 818.5 364.2396060044142 L 818.5 364.2396060044142 L 819.5 364.02659875529264 L 819.5 364.0265987552927 L 820.5 363.8139770406017 L 820.5 363.8139770406018 L 821.5 363.601738774484 L 821.5 363.60173877448403 L 822.5 363.38988188982273 L 822.5 363.38988188982285 L 823.5 363.17840433800757 L 823.5 363.1784043380077 L 824.5 362.9673040887029 L 824.5 362.96730408870303 L 825.5 362.7565791296207 L 825.5 362.75657912962083 L 826.5 362.5462274662967 L 826.5 362.5462274662968 L 827.5 362.3362471218701 L 827.5 362.33624712187014 L 828.5 362.1266361368667 L 828.5 362.12663613686675 L 829.5 361.9173925689859 L 829.5 361.917392568986 L 830.5 361.7085144928905 L 830.5 361.7085144928906 L 831.5 361.4999999999999 L 831.5 361.5 L 832.5 361.29184719828686 L 832.5 361.2918471982869 L 833.5 361.084054212077 L 833.5 361.08405421207704 L 834.5 360.8766191818517 L 834.5 360.87661918185177 L 835.5 360.66954026405415 L 835.5 360.66954026405426 L 836.5 360.46281563089786 L 836.5 360.4628156308979 L 837.5 360.2564434701785 L 837.5 360.25644347017857 L 838.5 360.05042198508875 L 838.5 360.05042198508875 L 839.5 359.8447493940355 L 839.5 359.8447493940356 L 840.5 359.6394239304605 L 840.5 359.63942393046057 L 841.5 359.43444384266286 L 841.5 359.4344438426629 L 842.5 359.2298073936251 L 842.5 359.22980739362515 L 843.5 359.025512860841 L 843.5 359.0255128608411 L 844.5 358.82155853614694 L 844.5 358.821558536147 L 845.5 358.6179427255548 L 845.5 358.61794272555494 L 846.5 358.41466374908816 L 846.5 358.4146637490883 L 847.5 358.2117199406204 L 847.5 358.21171994062047 L 848.5 358.0091096477152 L 848.5 358.0091096477153 L 849.5 357.8068312314701 L 849.5 357.80683123147014 L 850.5 357.60488306636125 L 850.5 357.6048830663613 L 851.5 357.40326354009136 L 851.5 357.4032635400914 L 852.5 357.20197105343937 L 852.5 357.2019710534394 L 853.5 357.0010040201126 L 853.5 357.00100402011265 L 854.5 356.8003608666006 L 854.5 356.8003608666007 L 855.5 356.600040032032 L 855.5 356.60004003203204 L 856.5 356.4000399680319 L 856.5 356.40003996803193 L 857.5 356.2003591385833 L 857.5 356.2003591385833 L 858.5 356.0009960198886 L 858.5 356.00099601988865 L 859.5 355.80194910023454 L 859.5 355.80194910023465 L 860.5 355.60321687985817 L 860.5 355.6032168798583 L 861.5 355.404797870815 L 861.5 355.40479787081506 L 862.5 355.20669059684906 L 862.5 355.2066905968491 L 863.5 355.00889359326476 L 863.5 355.0088935932648 L 864.5 354.81140540680065 L 864.5 354.8114054068007 L 865.5 354.6142245955047 L 865.5 354.61422459550477 L 866.5 354.41734972861155 L 866.5 354.4173497286116 L 867.5 354.2207793864213 L 867.5 354.22077938642144 L 868.5 354.0245121601803 L 868.5 354.02451216018034 L 869.5 353.8285466519628 L 869.5 353.82854665196294 L 870.5 353.6328814745557 L 870.5 353.63288147455575 L 871.5 353.4375152513429 L 871.5 353.43751525134303 L 872.5 353.2424466161933 L 872.5 353.2424466161934 L 873.5 353.0476742133486 L 873.5 353.0476742133487 L 874.5 352.8531966973138 L 874.5 352.8531966973139 L 875.5 352.65901273274864 L 875.5 352.6590127327487 L 876.5 352.4651209943605 L 876.5 352.4651209943606 L 877.5 352.27152016679906 L 877.5 352.2715201667992 L 878.5 352.07820894455205 L 878.5 352.0782089445521 L 879.5 351.8851860318427 L 879.5 351.88518603184275 L 880.5 351.6924501425282 L 880.5 351.6924501425283 L 881.5 351.4999999999999 L 881.5 351.5 L 882.5 351.3078343370845 L 882.5 351.3078343370846 L 883.5 351.1159518959469 L 883.5 351.115951895947 L 884.5 350.92435142799394 L 884.5 350.924351427994 L 885.5 350.7330316937797 L 885.5 350.73303169377976 L 886.5 350.54199146291194 L 886.5 350.54199146291205 L 887.5 350.3512295139599 L 887.5 350.35122951396 L 888.5 350.1607446343629 L 888.5 350.160744634363 L 889.5 349.97053562034085 L 889.5 349.9705356203409 L 890.5 349.780601276805 L 890.5 349.7806012768051 L 891.5 349.5909404172707 L 891.5 349.59094041727076 L 892.5 349.4015518637708 L 892.5 349.4015518637709 L 893.5 349.2124344467704 L 893.5 349.21243444677043 L 894.5 349.02358700508216 L 894.5 349.0235870050823 L 895.5 348.8350083857839 L 895.5 348.83500838578396 L 896.5 348.6466974441357 L 896.5 348.6466974441357 L 897.5 348.4586530434992 L 897.5 348.4586530434992 L 898.5 348.27087405525765 L 898.5 348.2708740552577 L 899.5 348.0833593587366 L 899.5 348.08335935873663 L 900.5 347.896107841126 L 900.5 347.8961078411261 L 901.5 347.70911839740336 L 901.5 347.7091183974035 L 902.5 347.5223899302573 L 902.5 347.52238993025736 L 903.5 347.33592135001254 L 903.5 347.33592135001254 L 904.5 347.14971157455585 L 904.5 347.14971157455597 L 905.5 346.9637595292628 L 905.5 346.96375952926286 L 906.5 346.7780641469251 L 906.5 346.7780641469252 L 907.5 346.5926243676795 L 907.5 346.59262436767955 L 908.5 346.4074391389369 L 908.5 346.40743913893704 L 909.5 346.2225074153131 L 909.5 346.22250741531315 L 910.5 346.03782815855925 L 910.5 346.0378281585593 L 911.5 345.8534003374945 L 911.5 345.8534003374946 L 912.5 345.6692229279387 L 912.5 345.66922292793873 L 913.5 345.4852949126455 L 913.5 345.4852949126456 L 914.5 345.30161528123756 L 914.5 345.3016152812376 L 915.5 345.1181830301413 L 915.5 345.1181830301414 L 916.5 344.93499716252325 L 916.5 344.93499716252336 L 917.5 344.75205668822645 L 917.5 344.75205668822656 L 918.5 344.56936062370835 L 918.5 344.56936062370846 L 919.5 344.386907991979 L 919.5 344.3869079919791 L 920.5 344.2046978225401 L 920.5 344.2046978225402 L 921.5 344.0227291513247 L 921.5 344.02272915132477 L 922.5 343.8410010206378 L 922.5 343.8410010206379 L 923.5 343.65951247909766 L 923.5 343.65951247909777 L 924.5 343.47826258157727 L 924.5 343.4782625815774 L 925.5 343.29725038914734 L 925.5 343.2972503891474 L 926.5 343.1164749690194 L 926.5 343.1164749690195 L 927.5 342.93593539448966 L 927.5 342.9359353944898 L 928.5 342.7556307448838 L 928.5 342.7556307448839 L 929.5 342.57556010550184 L 929.5 342.57556010550195 L 930.5 342.39572256756435 L 930.5 342.39572256756446 L 931.5 342.2161172281587 L 931.5 342.2161172281588 L 932.5 342.03674319018637 L 932.5 342.0367431901865 L 933.5 341.8575995623105 L 933.5 341.8575995623106 L 934.5 341.6786854589043 L 934.5 341.6786854589044 L 935.5 341.4999999999999 L 935.5 341.5 L 936.5 341.32154231123803 L 936.5 341.3215423112381 L 937.5 341.14331152381794 L 937.5 341.143311523818 L 938.5 340.9653067744479 L 938.5 340.96530677444804 L 939.5 340.787527205297 L 939.5 340.7875272052971 L 940.5 340.6099719639462 L 940.5 340.60997196394624 L 941.5 340.432640203341 L 941.5 340.4326402033411 L 942.5 340.25553108174455 L 942.5 340.2555310817446 L 943.5 340.0786437626904 L 943.5 340.0786437626905 L 944.5 339.90197741493694 L 944.5 339.90197741493705 L 945.5 339.72553121242163 L 945.5 339.72553121242174 L 946.5 339.549304334216 L 946.5 339.5493043342161 L 947.5 339.3732959644809 L 947.5 339.37329596448103 L 948.5 339.19750529242276 L 948.5 339.1975052924229 L 949.5 339.0219315122498 L 949.5 339.0219315122499 L 950.5 338.84657382312884 L 950.5 338.84657382312895 L 951.5 338.6714314291429 L 951.5 338.671431429143 L 952.5 338.4965035392489 L 952.5 338.49650353924903 L 953.5 338.3217893672363 L 953.5 338.3217893672364 L 954.5 338.1472881316854 L 954.5 338.1472881316855 L 955.5 337.9729990559266 L 955.5 337.9729990559267 L 956.5 337.7989213680007 L 956.5 337.79892136800083 L 957.5 337.62505430061833 L 957.5 337.62505430061844 L 958.5 337.45139709112055 L 958.5 337.45139709112067 L 959.5 337.2779489814403 L 959.5 337.27794898144043 L 960.5 337.10470921806336 L 960.5 337.1047092180635 L 961.5 336.9316770519903 L 961.5 336.9316770519904 L 962.5 336.7588517386986 L 962.5 336.7588517386987 L 963.5 336.5862325381055 L 963.5 336.5862325381056 L 964.5 336.4138187145308 L 964.5 336.41381871453086 L 965.5 336.24160953666035 L 965.5 336.24160953666046 L 966.5 336.06960427751005 L 966.5 336.06960427751017 L 967.5 335.8978022143895 L 967.5 335.8978022143896 L 968.5 335.7262026288674 L 968.5 335.72620262886744 L 969.5 335.55480480673566 L 969.5 335.5548048067357 L 970.5 335.3836080379753 L 970.5 335.3836080379754 L 971.5 335.2126116167219 L 971.5 335.21261161672203 L 972.5 335.04181484123177 L 972.5 335.0418148412318 L 973.5 334.8712170138481 L 973.5 334.8712170138482 L 974.5 334.7008174409679 L 974.5 334.700817440968 L 975.5 334.5306154330092 L 975.5 334.5306154330093 L 976.5 334.36061030437827 L 976.5 334.3606103043784 L 977.5 334.1908013734375 L 977.5 334.19080137343764 L 978.5 334.0211879624736 L 978.5 334.02118796247373 L 979.5 333.85176939766586 L 979.5 333.851769397666 L 980.5 333.68254500905505 L 980.5 333.68254500905516 L 981.5 333.5135141305125 L 981.5 333.5135141305126 L 982.5 333.3446760997093 L 982.5 333.34467609970943 L 983.5 333.1760302580866 L 983.5 333.1760302580867 L 984.5 333.0075759508249 L 984.5 333.00757595082496 L 985.5 332.83931252681487 L 985.5 332.839312526815 L 986.5 332.67123933862774 L 986.5 332.67123933862786 L 987.5 332.50335574248646 L 987.5 332.5033557424866 L 988.5 332.33566109823687 L 988.5 332.335661098237 L 989.5 332.16815476931913 L 989.5 332.16815476931924 L 990.5 332.0008361227393 L 990.5 332.00083612273943 L 991.5 331.8337045290422 L 991.5 331.83370452904234 L 992.5 331.6667593622829 L 992.5 331.666759362283 L 993.5 331.4999999999999 L 993.5 331.5 L 994.5 331.3334258231878 L 994.5 331.3334258231879 L 995.5 331.1670362162708 L 995.5 331.16703621627096 L 996.5 331.0008305670758 L 996.5 331.00083056707587 L 997.5 330.83480826680625 L 997.5 330.83480826680636 L 998.5 330.6689687100163 L 998.5 330.66896871001643 L 999.5 330.5033112945849 L 999.5 330.50331129458493 L 1000.5 330.3378354216901 L 1000.5 330.3378354216902 L 1001.5 330.17254049578435 L 1001.5 330.17254049578446 L 1002.5 330.0074259245687 L 1002.5 330.0074259245688 L 1003.5 329.84249111896884 L 1003.5 329.84249111896895 L 1004.5 329.67773549311005 L 1004.5 329.67773549311016 L 1005.5 329.51315846429327 L 1005.5 329.5131584642934 L 1006.5 329.3487594529705 L 1006.5 329.34875945297057 L 1007.5 329.18453788272177 L 1007.5 329.1845378827219 L 1008.5 329.0204931802308 L 1008.5 329.0204931802309 L 1009.5 328.8566247752624 L 1009.5 328.8566247752625 L 1010.5 328.69293210063864 L 1010.5 328.6929321006387 L 1011.5 328.5294145922163 L 1011.5 328.5294145922164 L 1012.5 328.3660716888643 L 1012.5 328.36607168886445 L 1013.5 328.20290283244094 L 1013.5 328.20290283244105 L 1014.5 328.0399074677718 L 1014.5 328.0399074677719 L 1015.5 327.87708504262775 L 1015.5 327.87708504262787 L 1016.5 327.71443500770295 L 1016.5 327.714435007703 L 1017.5 327.55195681659336 L 1017.5 327.5519568165935 L 1018.5 327.3896499257754 L 1018.5 327.38964992577553 L 1019.5 327.22751379458475 L 1019.5 327.22751379458487 L 1020.5 327.06554788519486 L 1020.5 327.065547885195 L 1021.5 326.9037516625968 L 1021.5 326.9037516625969 L 1022.5 326.7421245945783 L 1022.5 326.7421245945784 L 1023.5 326.5806661517032 L 1023.5 326.5806661517033 L 1024.5 326.41937580729166 L 1024.5 326.4193758072918 L 1025.5 326.25825303739964 L 1025.5 326.25825303739975 L 1026.5 326.0972973207993 L 1026.5 326.09729732079944 L 1027.5 325.9365081389594 L 1027.5 325.93650813895954 L 1028.5 325.7758849760255 L 1028.5 325.7758849760256 L 1029.5 325.6154273188009 L 1029.5 325.61542731880104 L 1030.5 325.4551346567275 L 1030.5 325.45513465672764 L 1031.5 325.2950064818668 L 1031.5 325.2950064818669 L 1032.5 325.135042288881 L 1032.5 325.1350422888811 L 1033.5 324.9752415750146 L 1033.5 324.9752415750147 L 1034.5 324.8156038400759 L 1034.5 324.815603840076 L 1035.5 324.6561285864187 L 1035.5 324.65612858641873 L 1036.5 324.49681531892406 L 1036.5 324.4968153189242 L 1037.5 324.3376635449828 L 1037.5 324.3376635449829 L 1038.5 324.17867277447715 L 1038.5 324.17867277447726 L 1039.5 324.01984251976364 L 1039.5 324.01984251976376 L 1040.5 323.8611722956554 L 1040.5 323.86117229565554 L 1041.5 323.70266161940486 L 1041.5 323.702661619405 L 1042.5 323.54431001068673 L 1042.5 323.54431001068684 L 1043.5 323.38611699158093 L 1043.5 323.38611699158105 L 1044.5 323.22808208655573 L 1044.5 323.22808208655584 L 1045.5 323.0702048224513 L 1045.5 323.0702048224514 L 1046.5 322.9124847284628 L 1046.5 322.9124847284629 L 1047.5 322.7549213361244 L 1047.5 322.75492133612454 L 1048.5 322.59751417929283 L 1048.5 322.59751417929294 L 1049.5 322.4402627941312 L 1049.5 322.4402627941313 L 1050.5 322.2831667190933 L 1050.5 322.2831667190934 L 1051.5 322.12622549490766 L 1051.5 322.12622549490777 L 1052.5 321.9694386645617 L 1052.5 321.96943866456184 L 1053.5 321.81280577328675 L 1053.5 321.81280577328687 L 1054.5 321.65632636854207 L 1054.5 321.6563263685422 L 1055.5 321.4999999999999 L 1055.5 321.5 L 1056.5 321.34382621953023 L 1056.5 321.34382621953034 L 1057.5 321.1878045811859 L 1057.5 321.187804581186 L 1058.5 321.0319346411877 L 1058.5 321.03193464118783 L 1059.5 320.8762159579097 L 1059.5 320.87621595790984 L 1060.5 320.7206480918646 L 1060.5 320.7206480918647 L 1061.5 320.56523060568907 L 1061.5 320.5652306056892 L 1062.5 320.4099630641298 L 1062.5 320.4099630641299 L 1063.5 320.25484503402885 L 1063.5 320.25484503402896 L 1064.5 320.09987608431015 L 1064.5 320.09987608431027 L 1065.5 319.94505578596477 L 1065.5 319.9450557859649 L 1066.5 319.79038371203757 L 1066.5 319.7903837120377 L 1067.5 319.6358594376134 L 1067.5 319.63585943761353 L 1068.5 319.4814825398033 L 1068.5 319.48148253980344 L 1069.5 319.32725259773133 L 1069.5 319.32725259773144 L 1070.5 319.17316919252056 L 1070.5 319.17316919252073 L 1071.5 319.01923190728064 L 1071.5 319.01923190728075 L 1072.5 318.8654403270939 L 1072.5 318.865440327094 L 1073.5 318.7117940390028 L 1073.5 318.71179403900294 L 1074.5 318.5582926319966 L 1074.5 318.5582926319967 L 1075.5 318.40493569699896 L 1075.5 318.4049356969991 L 1076.5 318.2517228268548 L 1076.5 318.2517228268549 L 1077.5 318.09865361631796 L 1077.5 318.0986536163181 L 1078.5 317.9457276620386 L 1078.5 317.94572766203873 L 1079.5 317.7929445625508 L 1079.5 317.792944562551 L 1080.5 317.64030391826043 L 1080.5 317.6403039182606 L 1081.5 317.4878053314326 L 1081.5 317.48780533143275 L 1082.5 317.3354484061798 L 1082.5 317.3354484061799 L 1083.5 317.18323274845 L 1083.5 317.1832327484501 L 1084.5 317.03115796601463 L 1084.5 317.03115796601475 L 1085.5 316.8792236684566 L 1085.5 316.8792236684567 L 1086.5 316.727429467159 L 1086.5 316.72742946715914 L 1087.5 316.5757749752935" stroke-opacity="0.8" stroke-linecap="round" stroke-linejoin="round" stroke-miterlimit="10" stroke-width="5"/><g transform="scale(27,27)"><g transform="translate(21.296296296296298,16.598517518518516)"><path fill="rgb(211,47,47)" stroke="none" paint-order="stroke fill markers" d=" M 0.389 0.855 L 0.812 -0.021 Q 0.8250000000000001 -0.038 0.833 -0.04 Q 0.85 -0.04 0.853 -0.02 Q 0.853 -0.016 0.847 -0.003 L 0.391 0.9410000000000001 Q 0.383 0.9570000000000001 0.375 0.9590000000000001 Q 0.372 0.96 0.366 0.96 Q 0.354 0.96 0.35000000000000003 0.9510000000000001 L 0.34700000000000003 0.9450000000000001 L 0.149 0.51 L 0.097 0.549 Q 0.088 0.557 0.083 0.557 Q 0.073 0.557 0.073 0.546 Q 0.073 0.542 0.085 0.532 L 0.184 0.457 Q 0.193 0.449 0.198 0.449 Q 0.20400000000000001 0.449 0.211 0.463 L 0.389 0.855 Z"/></g><rect fill="rgb(211,47,47)" stroke="none" x="22.129296296296296" y="16.558518518518518" width="0.6275555555555555" height="0.04"/><g transform="translate(22.129296296296296,17.36789301851852)"><path fill="rgb(211,47,47)" stroke="none" paint-order="stroke fill markers" d=" M 0.334 -0.302 L 0.3 -0.165 Q 0.28300000000000003 -0.097 0.28300000000000003 -0.077 Q 0.28300000000000003 -0.025 0.32 -0.014 Q 0.328 -0.011 0.338 -0.011 Q 0.388 -0.011 0.429 -0.061 Q 0.456 -0.093 0.47100000000000003 -0.14200000000000002 Q 0.47400000000000003 -0.153 0.484 -0.153 Q 0.496 -0.153 0.496 -0.14300000000000002 Q 0.496 -0.11800000000000001 0.465 -0.07100000000000001 Q 0.41100000000000003 0.011 0.336 0.011 Q 0.268 0.011 0.23700000000000002 -0.046 Q 0.231 -0.055 0.228 -0.065 Q 0.20400000000000001 -0.017 0.162 0.002 Q 0.14300000000000002 0.011 0.123 0.011 Q 0.063 0.011 0.039 -0.024 Q 0.029 -0.037 0.029 -0.055 Q 0.029 -0.092 0.061 -0.107 Q 0.07200000000000001 -0.113 0.084 -0.113 Q 0.114 -0.113 0.12 -0.088 Q 0.121 -0.083 0.121 -0.078 Q 0.121 -0.044 0.08700000000000001 -0.028 Q 0.081 -0.025 0.074 -0.024 Q 0.095 -0.011 0.124 -0.011 Q 0.177 -0.011 0.20800000000000002 -0.082 Q 0.214 -0.097 0.219 -0.115 Q 0.273 -0.319 0.273 -0.353 Q 0.267 -0.41500000000000004 0.219 -0.42 Q 0.167 -0.42 0.124 -0.367 L 0.124 -0.366 Q 0.124 -0.365 0.123 -0.365 Q 0.108 -0.34500000000000003 0.096 -0.319 Q 0.091 -0.307 0.08700000000000001 -0.295 L 0.085 -0.289 Q 0.083 -0.278 0.07200000000000001 -0.278 Q 0.06 -0.278 0.06 -0.28800000000000003 Q 0.06 -0.313 0.092 -0.36 Q 0.146 -0.442 0.221 -0.442 Q 0.298 -0.442 0.329 -0.366 Q 0.361 -0.428 0.41400000000000003 -0.44 Q 0.424 -0.442 0.434 -0.442 Q 0.493 -0.442 0.517 -0.40900000000000003 Q 0.527 -0.395 0.527 -0.376 Q 0.527 -0.335 0.49 -0.321 Q 0.481 -0.318 0.47300000000000003 -0.318 Q 0.442 -0.318 0.436 -0.34500000000000003 Q 0.435 -0.34900000000000003 0.435 -0.353 Q 0.435 -0.383 0.464 -0.4 Q 0.47300000000000003 -0.405 0.483 -0.40700000000000003 Q 0.462 -0.42 0.433 -0.42 Q 0.365 -0.42 0.337 -0.314 Q 0.335 -0.308 0.334 -0.302 Z"/></g></g><path fill="rgb(211,47,47)" stroke="none" paint-order="stroke fill markers" d=" M 998.4999999999998 331.49999999999994 C 998.4999999999998 334.2614237491539 996.2614237491538 336.49999999999994 993.4999999999998 336.49999999999994 C 990.7385762508458 336.49999999999994 988.4999999999998 334.2614237491539 988.4999999999998 331.49999999999994 C 988.4999999999998 328.738576250846 990.7385762508458 326.49999999999994 993.4999999999998 326.49999999999994 C 996.2614237491538 326.49999999999994 998.4999999999998 328.738576250846 998.4999999999998 331.49999999999994 Z" fill-opacity="1"/><path fill="none" stroke="rgb(0,0,0)" paint-order="fill stroke markers" d=" M 998.4999999999998 331.49999999999994 C 998.4999999999998 334.2614237491539 996.2614237491538 336.49999999999994 993.4999999999998 336.49999999999994 C 990.7385762508458 336.49999999999994 988.4999999999998 334.2614237491539 988.4999999999998 331.49999999999994 C 988.4999999999998 328.738576250846 990.7385762508458 326.49999999999994 993.4999999999998 326.49999999999994 C 996.2614237491538 326.49999999999994 998.4999999999998 328.738576250846 998.4999999999998 331.49999999999994 Z" stroke-opacity="1" stroke-linecap="round" stroke-linejoin="round" stroke-miterlimit="10"/><text fill="rgb(211,47,47)" stroke="none" font-family="geogebra-sans-serif, sans-serif" font-size="24px" font-style="normal" font-weight="normal" text-decoration="normal" x="970" y="310" text-anchor="start" dominant-baseline="alphabetic" fill-opacity="1">(9, 3)</text><text fill="none" stroke="rgb(255,255,255)" font-family="geogebra-sans-serif, sans-serif" font-size="24px" font-style="normal" font-weight="normal" text-decoration="normal" x="970" y="310" text-anchor="start" dominant-baseline="alphabetic" stroke-opacity="1" stroke-linejoin="bevel" stroke-miterlimit="10" stroke-width="3">(9, 3)</text><text fill="rgb(211,47,47)" stroke="none" font-family="geogebra-sans-serif, sans-serif" font-size="24px" font-style="normal" font-weight="normal" text-decoration="normal" x="970" y="310" text-anchor="start" dominant-baseline="alphabetic" fill-opacity="1">(9, 3)</text><path fill="rgb(211,47,47)" stroke="none" paint-order="stroke fill markers" d=" M 598.5 431.5 C 598.5 434.26142374915395 596.261423749154 436.5 593.5 436.5 C 590.738576250846 436.5 588.5 434.26142374915395 588.5 431.5 C 588.5 428.73857625084605 590.738576250846 426.5 593.5 426.5 C 596.261423749154 426.5 598.5 428.73857625084605 598.5 431.5 Z" fill-opacity="1"/><path fill="none" stroke="rgb(0,0,0)" paint-order="fill stroke markers" d=" M 598.5 431.5 C 598.5 434.26142374915395 596.261423749154 436.5 593.5 436.5 C 590.738576250846 436.5 588.5 434.26142374915395 588.5 431.5 C 588.5 428.73857625084605 590.738576250846 426.5 593.5 426.5 C 596.261423749154 426.5 598.5 428.73857625084605 598.5 431.5 Z" stroke-opacity="1" stroke-linecap="round" stroke-linejoin="round" stroke-miterlimit="10"/><text fill="rgb(211,47,47)" stroke="none" font-family="geogebra-sans-serif, sans-serif" font-size="24px" font-style="normal" font-weight="normal" text-decoration="normal" x="558" y="410" text-anchor="start" dominant-baseline="alphabetic" fill-opacity="1">(1, 1)</text><text fill="none" stroke="rgb(255,255,255)" font-family="geogebra-sans-serif, sans-serif" font-size="24px" font-style="normal" font-weight="normal" text-decoration="normal" x="558" y="410" text-anchor="start" dominant-baseline="alphabetic" stroke-opacity="1" stroke-linejoin="bevel" stroke-miterlimit="10" stroke-width="3">(1, 1)</text><text fill="rgb(211,47,47)" stroke="none" font-family="geogebra-sans-serif, sans-serif" font-size="24px" font-style="normal" font-weight="normal" text-decoration="normal" x="558" y="410" text-anchor="start" dominant-baseline="alphabetic" fill-opacity="1">(1, 1)</text><path fill="rgb(211,47,47)" stroke="none" paint-order="stroke fill markers" d=" M 748.4999999999999 381.5 C 748.4999999999999 384.26142374915395 746.2614237491539 386.5 743.4999999999999 386.5 C 740.7385762508459 386.5 738.4999999999999 384.26142374915395 738.4999999999999 381.5 C 738.4999999999999 378.73857625084605 740.7385762508459 376.5 743.4999999999999 376.5 C 746.2614237491539 376.5 748.4999999999999 378.73857625084605 748.4999999999999 381.5 Z" fill-opacity="1"/><path fill="none" stroke="rgb(0,0,0)" paint-order="fill stroke markers" d=" M 748.4999999999999 381.5 C 748.4999999999999 384.26142374915395 746.2614237491539 386.5 743.4999999999999 386.5 C 740.7385762508459 386.5 738.4999999999999 384.26142374915395 738.4999999999999 381.5 C 738.4999999999999 378.73857625084605 740.7385762508459 376.5 743.4999999999999 376.5 C 746.2614237491539 376.5 748.4999999999999 378.73857625084605 748.4999999999999 381.5 Z" stroke-opacity="1" stroke-linecap="round" stroke-linejoin="round" stroke-miterlimit="10"/><text fill="rgb(211,47,47)" stroke="none" font-family="geogebra-sans-serif, sans-serif" font-size="24px" font-style="normal" font-weight="normal" text-decoration="normal" x="713" y="357" text-anchor="start" dominant-baseline="alphabetic" fill-opacity="1">(4, 2)</text><text fill="none" stroke="rgb(255,255,255)" font-family="geogebra-sans-serif, sans-serif" font-size="24px" font-style="normal" font-weight="normal" text-decoration="normal" x="713" y="357" text-anchor="start" dominant-baseline="alphabetic" stroke-opacity="1" stroke-linejoin="bevel" stroke-miterlimit="10" stroke-width="3">(4, 2)</text><text fill="rgb(211,47,47)" stroke="none" font-family="geogebra-sans-serif, sans-serif" font-size="24px" font-style="normal" font-weight="normal" text-decoration="normal" x="713" y="357" text-anchor="start" dominant-baseline="alphabetic" fill-opacity="1">(4, 2)</text></g></g></svg>