<svg version="1.1" xmlns="http://www.w3.org/2000/svg" xmlns:xlink="http://www.w3.org/1999/xlink" width="1087" height="963"><defs><clipPath id="gEhfLWWceAJF"><path fill="none" stroke="none" d=" M 0 0 L 1087 0 L 1087 963 L 0 963 L 0 0 Z"/></clipPath></defs><g transform="scale(1,1)" clip-path="url(#gEhfLWWceAJF)"><g><rect fill="rgb(255,255,255)" stroke="none" x="0" y="0" width="1087" height="963" fill-opacity="1"/><path fill="none" stroke="rgb(192,192,192)" paint-order="fill stroke markers" d=" M 72.5 0.5 L 72.5 963.5 M 72.5 0.5 L 72.5 963.5 M 150.5 0.5 L 150.5 963.5 M 229.5 0.5 L 229.5 963.5 M 307.5 0.5 L 307.5 963.5 M 386.5 0.5 L 386.5 963.5 M 464.5 0.5 L 464.5 963.5 M 622.5 0.5 L 622.5 963.5 M 700.5 0.5 L 700.5 963.5 M 779.5 0.5 L 779.5 963.5 M 857.5 0.5 L 857.5 963.5 M 936.5 0.5 L 936.5 963.5 M 1014.5 0.5 L 1014.5 963.5" stroke-opacity="1" stroke-linecap="round" stroke-linejoin="round" stroke-miterlimit="10"/><path fill="none" stroke="rgb(192,192,192)" paint-order="fill stroke markers" d=" M 9.5 0.5 L 9.5 963.5 M 25.5 0.5 L 25.5 963.5 M 40.5 0.5 L 40.5 963.5 M 56.5 0.5 L 56.5 963.5 M 87.5 0.5 L 87.5 963.5 M 103.5 0.5 L 103.5 963.5 M 119.5 0.5 L 119.5 963.5 M 135.5 0.5 L 135.5 963.5 M 166.5 0.5 L 166.5 963.5 M 182.5 0.5 L 182.5 963.5 M 197.5 0.5 L 197.5 963.5 M 213.5 0.5 L 213.5 963.5 M 245.5 0.5 L 245.5 963.5 M 260.5 0.5 L 260.5 963.5 M 276.5 0.5 L 276.5 963.5 M 292.5 0.5 L 292.5 963.5 M 323.5 0.5 L 323.5 963.5 M 339.5 0.5 L 339.5 963.5 M 355.5 0.5 L 355.5 963.5 M 370.5 0.5 L 370.5 963.5 M 402.5 0.5 L 402.5 963.5 M 417.5 0.5 L 417.5 963.5 M 433.5 0.5 L 433.5 963.5 M 449.5 0.5 L 449.5 963.5 M 480.5 0.5 L 480.5 963.5 M 496.5 0.5 L 496.5 963.5 M 512.5 0.5 L 512.5 963.5 M 527.5 0.5 L 527.5 963.5 M 559.5 0.5 L 559.5 963.5 M 574.5 0.5 L 574.5 963.5 M 590.5 0.5 L 590.5 963.5 M 606.5 0.5 L 606.5 963.5 M 637.5 0.5 L 637.5 963.5 M 653.5 0.5 L 653.5 963.5 M 669.5 0.5 L 669.5 963.5 M 684.5 0.5 L 684.5 963.5 M 716.5 0.5 L 716.5 963.5 M 731.5 0.5 L 731.5 963.5 M 747.5 0.5 L 747.5 963.5 M 763.5 0.5 L 763.5 963.5 M 794.5 0.5 L 794.5 963.5 M 810.5 0.5 L 810.5 963.5 M 826.5 0.5 L 826.5 963.5 M 841.5 0.5 L 841.5 963.5 M 873.5 0.5 L 873.5 963.5 M 889.5 0.5 L 889.5 963.5 M 904.5 0.5 L 904.5 963.5 M 920.5 0.5 L 920.5 963.5 M 951.5 0.5 L 951.5 963.5 M 967.5 0.5 L 967.5 963.5 M 983.5 0.5 L 983.5 963.5 M 999.5 0.5 L 999.5 963.5 M 1030.5 0.5 L 1030.5 963.5 M 1046.5 0.5 L 1046.5 963.5 M 1061.5 0.5 L 1061.5 963.5 M 1077.5 0.5 L 1077.5 963.5" stroke-opacity="0.23529411764705882" stroke-linecap="round" stroke-linejoin="round" stroke-miterlimit="10"/><path fill="none" stroke="rgb(192,192,192)" paint-order="fill stroke markers" d=" M 0.5 0.5 L 1087.5 0.5 M 0.5 0.5 L 1087.5 0.5 M 0.5 96.5 L 1087.5 96.5 M 0.5 192.5 L 1087.5 192.5 M 0.5 288.5 L 1087.5 288.5 M 0.5 385.5 L 1087.5 385.5 M 0.5 577.5 L 1087.5 577.5 M 0.5 674.5 L 1087.5 674.5 M 0.5 770.5 L 1087.5 770.5 M 0.5 866.5 L 1087.5 866.5 M 0.5 963.5 L 1087.5 963.5" stroke-opacity="1" stroke-linecap="round" stroke-linejoin="round" stroke-miterlimit="10"/><path fill="none" stroke="rgb(192,192,192)" paint-order="fill stroke markers" d=" M 0.5 0.5 L 1087.5 0.5 M 0.5 19.5 L 1087.5 19.5 M 0.5 38.5 L 1087.5 38.5 M 0.5 57.5 L 1087.5 57.5 M 0.5 77.5 L 1087.5 77.5 M 0.5 115.5 L 1087.5 115.5 M 0.5 134.5 L 1087.5 134.5 M 0.5 154.5 L 1087.5 154.5 M 0.5 173.5 L 1087.5 173.5 M 0.5 211.5 L 1087.5 211.5 M 0.5 231.5 L 1087.5 231.5 M 0.5 250.5 L 1087.5 250.5 M 0.5 269.5 L 1087.5 269.5 M 0.5 308.5 L 1087.5 308.5 M 0.5 327.5 L 1087.5 327.5 M 0.5 346.5 L 1087.5 346.5 M 0.5 365.5 L 1087.5 365.5 M 0.5 404.5 L 1087.5 404.5 M 0.5 423.5 L 1087.5 423.5 M 0.5 442.5 L 1087.5 442.5 M 0.5 462.5 L 1087.5 462.5 M 0.5 500.5 L 1087.5 500.5 M 0.5 520.5 L 1087.5 520.5 M 0.5 539.5 L 1087.5 539.5 M 0.5 558.5 L 1087.5 558.5 M 0.5 597.5 L 1087.5 597.5 M 0.5 616.5 L 1087.5 616.5 M 0.5 635.5 L 1087.5 635.5 M 0.5 654.5 L 1087.5 654.5 M 0.5 693.5 L 1087.5 693.5 M 0.5 712.5 L 1087.5 712.5 M 0.5 731.5 L 1087.5 731.5 M 0.5 751.5 L 1087.5 751.5 M 0.5 789.5 L 1087.5 789.5 M 0.5 808.5 L 1087.5 808.5 M 0.5 828.5 L 1087.5 828.5 M 0.5 847.5 L 1087.5 847.5 M 0.5 885.5 L 1087.5 885.5 M 0.5 905.5 L 1087.5 905.5 M 0.5 924.5 L 1087.5 924.5 M 0.5 943.5 L 1087.5 943.5" stroke-opacity="0.23529411764705882" stroke-linecap="round" stroke-linejoin="round" stroke-miterlimit="10"/><path fill="none" stroke="rgb(37,37,37)" paint-order="fill stroke markers" d=" M 543.5 2.5 L 543.5 963.5" stroke-opacity="1" stroke-miterlimit="10"/><path fill="none" stroke="rgb(37,37,37)" paint-order="fill stroke markers" d=" M 543.5 1.5 L 537.5 7.5" stroke-opacity="1" stroke-miterlimit="10"/><path fill="none" stroke="rgb(37,37,37)" paint-order="fill stroke markers" d=" M 543.5 1.5 L 549.5 7.5" stroke-opacity="1" stroke-miterlimit="10"/><path fill="none" stroke="rgb(37,37,37)" paint-order="fill stroke markers" d=" M 0.5 481.5 L 1085.5 481.5" stroke-opacity="1" stroke-miterlimit="10"/><path fill="none" stroke="rgb(37,37,37)" paint-order="fill stroke markers" d=" M 1086.5 481.5 L 1080.5 475.5" stroke-opacity="1" stroke-miterlimit="10"/><path fill="none" stroke="rgb(37,37,37)" paint-order="fill stroke markers" d=" M 1086.5 481.5 L 1080.5 487.5" stroke-opacity="1" stroke-miterlimit="10"/><text fill="rgb(37,37,37)" stroke="none" font-family="geogebra-sans-serif, sans-serif" font-size="18px" font-style="normal" font-weight="normal" text-decoration="normal" x="59" y="503" text-anchor="start" dominant-baseline="alphabetic" fill-opacity="1">–3π</text><text fill="none" stroke="rgb(255,255,255)" font-family="geogebra-sans-serif, sans-serif" font-size="18px" font-style="normal" font-weight="normal" text-decoration="normal" x="59" y="503" text-anchor="start" dominant-baseline="alphabetic" stroke-opacity="1" stroke-linejoin="bevel" stroke-miterlimit="10" stroke-width="3">–3π</text><text fill="rgb(37,37,37)" stroke="none" font-family="geogebra-sans-serif, sans-serif" font-size="18px" font-style="normal" font-weight="normal" text-decoration="normal" x="59" y="503" text-anchor="start" dominant-baseline="alphabetic" fill-opacity="1">–3π</text><text fill="rgb(37,37,37)" stroke="none" font-family="geogebra-sans-serif, sans-serif" font-size="18px" font-style="normal" font-weight="normal" text-decoration="normal" x="120" y="503" text-anchor="start" dominant-baseline="alphabetic" fill-opacity="1">–5π / 2</text><text fill="none" stroke="rgb(255,255,255)" font-family="geogebra-sans-serif, sans-serif" font-size="18px" font-style="normal" font-weight="normal" text-decoration="normal" x="120" y="503" text-anchor="start" dominant-baseline="alphabetic" stroke-opacity="1" stroke-linejoin="bevel" stroke-miterlimit="10" stroke-width="3">–5π / 2</text><text fill="rgb(37,37,37)" stroke="none" font-family="geogebra-sans-serif, sans-serif" font-size="18px" font-style="normal" font-weight="normal" text-decoration="normal" x="120" y="503" text-anchor="start" dominant-baseline="alphabetic" fill-opacity="1">–5π / 2</text><text fill="rgb(37,37,37)" stroke="none" font-family="geogebra-sans-serif, sans-serif" font-size="18px" font-style="normal" font-weight="normal" text-decoration="normal" x="216" y="503" text-anchor="start" dominant-baseline="alphabetic" fill-opacity="1">–2π</text><text fill="none" stroke="rgb(255,255,255)" font-family="geogebra-sans-serif, sans-serif" font-size="18px" font-style="normal" font-weight="normal" text-decoration="normal" x="216" y="503" text-anchor="start" dominant-baseline="alphabetic" stroke-opacity="1" stroke-linejoin="bevel" stroke-miterlimit="10" stroke-width="3">–2π</text><text fill="rgb(37,37,37)" stroke="none" font-family="geogebra-sans-serif, sans-serif" font-size="18px" font-style="normal" font-weight="normal" text-decoration="normal" x="216" y="503" text-anchor="start" dominant-baseline="alphabetic" fill-opacity="1">–2π</text><text fill="rgb(37,37,37)" stroke="none" font-family="geogebra-sans-serif, sans-serif" font-size="18px" font-style="normal" font-weight="normal" text-decoration="normal" x="277" y="503" text-anchor="start" dominant-baseline="alphabetic" fill-opacity="1">–3π / 2</text><text fill="none" stroke="rgb(255,255,255)" font-family="geogebra-sans-serif, sans-serif" font-size="18px" font-style="normal" font-weight="normal" text-decoration="normal" x="277" y="503" text-anchor="start" dominant-baseline="alphabetic" stroke-opacity="1" stroke-linejoin="bevel" stroke-miterlimit="10" stroke-width="3">–3π / 2</text><text fill="rgb(37,37,37)" stroke="none" font-family="geogebra-sans-serif, sans-serif" font-size="18px" font-style="normal" font-weight="normal" text-decoration="normal" x="277" y="503" text-anchor="start" dominant-baseline="alphabetic" fill-opacity="1">–3π / 2</text><text fill="rgb(37,37,37)" stroke="none" font-family="geogebra-sans-serif, sans-serif" font-size="18px" font-style="normal" font-weight="normal" text-decoration="normal" x="378" y="503" text-anchor="start" dominant-baseline="alphabetic" fill-opacity="1">–π</text><text fill="none" stroke="rgb(255,255,255)" font-family="geogebra-sans-serif, sans-serif" font-size="18px" font-style="normal" font-weight="normal" text-decoration="normal" x="378" y="503" text-anchor="start" dominant-baseline="alphabetic" stroke-opacity="1" stroke-linejoin="bevel" stroke-miterlimit="10" stroke-width="3">–π</text><text fill="rgb(37,37,37)" stroke="none" font-family="geogebra-sans-serif, sans-serif" font-size="18px" font-style="normal" font-weight="normal" text-decoration="normal" x="378" y="503" text-anchor="start" dominant-baseline="alphabetic" fill-opacity="1">–π</text><text fill="rgb(37,37,37)" stroke="none" font-family="geogebra-sans-serif, sans-serif" font-size="18px" font-style="normal" font-weight="normal" text-decoration="normal" x="438" y="503" text-anchor="start" dominant-baseline="alphabetic" fill-opacity="1">–π / 2</text><text fill="none" stroke="rgb(255,255,255)" font-family="geogebra-sans-serif, sans-serif" font-size="18px" font-style="normal" font-weight="normal" text-decoration="normal" x="438" y="503" text-anchor="start" dominant-baseline="alphabetic" stroke-opacity="1" stroke-linejoin="bevel" stroke-miterlimit="10" stroke-width="3">–π / 2</text><text fill="rgb(37,37,37)" stroke="none" font-family="geogebra-sans-serif, sans-serif" font-size="18px" font-style="normal" font-weight="normal" text-decoration="normal" x="438" y="503" text-anchor="start" dominant-baseline="alphabetic" fill-opacity="1">–π / 2</text><text fill="rgb(37,37,37)" stroke="none" font-family="geogebra-sans-serif, sans-serif" font-size="18px" font-style="normal" font-weight="normal" text-decoration="normal" x="600" y="503" text-anchor="start" dominant-baseline="alphabetic" fill-opacity="1">π / 2</text><text fill="none" stroke="rgb(255,255,255)" font-family="geogebra-sans-serif, sans-serif" font-size="18px" font-style="normal" font-weight="normal" text-decoration="normal" x="600" y="503" text-anchor="start" dominant-baseline="alphabetic" stroke-opacity="1" stroke-linejoin="bevel" stroke-miterlimit="10" stroke-width="3">π / 2</text><text fill="rgb(37,37,37)" stroke="none" font-family="geogebra-sans-serif, sans-serif" font-size="18px" font-style="normal" font-weight="normal" text-decoration="normal" x="600" y="503" text-anchor="start" dominant-baseline="alphabetic" fill-opacity="1">π / 2</text><text fill="rgb(37,37,37)" stroke="none" font-family="geogebra-sans-serif, sans-serif" font-size="18px" font-style="normal" font-weight="normal" text-decoration="normal" x="697" y="503" text-anchor="start" dominant-baseline="alphabetic" fill-opacity="1">π</text><text fill="none" stroke="rgb(255,255,255)" font-family="geogebra-sans-serif, sans-serif" font-size="18px" font-style="normal" font-weight="normal" text-decoration="normal" x="697" y="503" text-anchor="start" dominant-baseline="alphabetic" stroke-opacity="1" stroke-linejoin="bevel" stroke-miterlimit="10" stroke-width="3">π</text><text fill="rgb(37,37,37)" stroke="none" font-family="geogebra-sans-serif, sans-serif" font-size="18px" font-style="normal" font-weight="normal" text-decoration="normal" x="697" y="503" text-anchor="start" dominant-baseline="alphabetic" fill-opacity="1">π</text><text fill="rgb(37,37,37)" stroke="none" font-family="geogebra-sans-serif, sans-serif" font-size="18px" font-style="normal" font-weight="normal" text-decoration="normal" x="753" y="503" text-anchor="start" dominant-baseline="alphabetic" fill-opacity="1">3π / 2</text><text fill="none" stroke="rgb(255,255,255)" font-family="geogebra-sans-serif, sans-serif" font-size="18px" font-style="normal" font-weight="normal" text-decoration="normal" x="753" y="503" text-anchor="start" dominant-baseline="alphabetic" stroke-opacity="1" stroke-linejoin="bevel" stroke-miterlimit="10" stroke-width="3">3π / 2</text><text fill="rgb(37,37,37)" stroke="none" font-family="geogebra-sans-serif, sans-serif" font-size="18px" font-style="normal" font-weight="normal" text-decoration="normal" x="753" y="503" text-anchor="start" dominant-baseline="alphabetic" fill-opacity="1">3π / 2</text><text fill="rgb(37,37,37)" stroke="none" font-family="geogebra-sans-serif, sans-serif" font-size="18px" font-style="normal" font-weight="normal" text-decoration="normal" x="849" y="503" text-anchor="start" dominant-baseline="alphabetic" fill-opacity="1">2π</text><text fill="none" stroke="rgb(255,255,255)" font-family="geogebra-sans-serif, sans-serif" font-size="18px" font-style="normal" font-weight="normal" text-decoration="normal" x="849" y="503" text-anchor="start" dominant-baseline="alphabetic" stroke-opacity="1" stroke-linejoin="bevel" stroke-miterlimit="10" stroke-width="3">2π</text><text fill="rgb(37,37,37)" stroke="none" font-family="geogebra-sans-serif, sans-serif" font-size="18px" font-style="normal" font-weight="normal" text-decoration="normal" x="849" y="503" text-anchor="start" dominant-baseline="alphabetic" fill-opacity="1">2π</text><text fill="rgb(37,37,37)" stroke="none" font-family="geogebra-sans-serif, sans-serif" font-size="18px" font-style="normal" font-weight="normal" text-decoration="normal" x="910" y="503" text-anchor="start" dominant-baseline="alphabetic" fill-opacity="1">5π / 2</text><text fill="none" stroke="rgb(255,255,255)" font-family="geogebra-sans-serif, sans-serif" font-size="18px" font-style="normal" font-weight="normal" text-decoration="normal" x="910" y="503" text-anchor="start" dominant-baseline="alphabetic" stroke-opacity="1" stroke-linejoin="bevel" stroke-miterlimit="10" stroke-width="3">5π / 2</text><text fill="rgb(37,37,37)" stroke="none" font-family="geogebra-sans-serif, sans-serif" font-size="18px" font-style="normal" font-weight="normal" text-decoration="normal" x="910" y="503" text-anchor="start" dominant-baseline="alphabetic" fill-opacity="1">5π / 2</text><text fill="rgb(37,37,37)" stroke="none" font-family="geogebra-sans-serif, sans-serif" font-size="18px" font-style="normal" font-weight="normal" text-decoration="normal" x="1006" y="503" text-anchor="start" dominant-baseline="alphabetic" fill-opacity="1">3π</text><text fill="none" stroke="rgb(255,255,255)" font-family="geogebra-sans-serif, sans-serif" font-size="18px" font-style="normal" font-weight="normal" text-decoration="normal" x="1006" y="503" text-anchor="start" dominant-baseline="alphabetic" stroke-opacity="1" stroke-linejoin="bevel" stroke-miterlimit="10" stroke-width="3">3π</text><text fill="rgb(37,37,37)" stroke="none" font-family="geogebra-sans-serif, sans-serif" font-size="18px" font-style="normal" font-weight="normal" text-decoration="normal" x="1006" y="503" text-anchor="start" dominant-baseline="alphabetic" fill-opacity="1">3π</text><text fill="rgb(37,37,37)" stroke="none" font-family="geogebra-sans-serif, sans-serif" font-size="24px" font-style="normal" font-weight="normal" text-decoration="normal" x="548" y="23" text-anchor="start" dominant-baseline="alphabetic" fill-opacity="1">y</text><text fill="rgb(37,37,37)" stroke="none" font-family="geogebra-sans-serif, sans-serif" font-size="18px" font-style="normal" font-weight="normal" text-decoration="normal" x="515" y="874" text-anchor="start" dominant-baseline="alphabetic" fill-opacity="1">–4</text><text fill="none" stroke="rgb(255,255,255)" font-family="geogebra-sans-serif, sans-serif" font-size="18px" font-style="normal" font-weight="normal" text-decoration="normal" x="515" y="874" text-anchor="start" dominant-baseline="alphabetic" stroke-opacity="1" stroke-linejoin="bevel" stroke-miterlimit="10" stroke-width="3">–4</text><text fill="rgb(37,37,37)" stroke="none" font-family="geogebra-sans-serif, sans-serif" font-size="18px" font-style="normal" font-weight="normal" text-decoration="normal" x="515" y="874" text-anchor="start" dominant-baseline="alphabetic" fill-opacity="1">–4</text><text fill="rgb(37,37,37)" stroke="none" font-family="geogebra-sans-serif, sans-serif" font-size="18px" font-style="normal" font-weight="normal" text-decoration="normal" x="515" y="778" text-anchor="start" dominant-baseline="alphabetic" fill-opacity="1">–3</text><text fill="none" stroke="rgb(255,255,255)" font-family="geogebra-sans-serif, sans-serif" font-size="18px" font-style="normal" font-weight="normal" text-decoration="normal" x="515" y="778" text-anchor="start" dominant-baseline="alphabetic" stroke-opacity="1" stroke-linejoin="bevel" stroke-miterlimit="10" stroke-width="3">–3</text><text fill="rgb(37,37,37)" stroke="none" font-family="geogebra-sans-serif, sans-serif" font-size="18px" font-style="normal" font-weight="normal" text-decoration="normal" x="515" y="778" text-anchor="start" dominant-baseline="alphabetic" fill-opacity="1">–3</text><text fill="rgb(37,37,37)" stroke="none" font-family="geogebra-sans-serif, sans-serif" font-size="18px" font-style="normal" font-weight="normal" text-decoration="normal" x="515" y="682" text-anchor="start" dominant-baseline="alphabetic" fill-opacity="1">–2</text><text fill="none" stroke="rgb(255,255,255)" font-family="geogebra-sans-serif, sans-serif" font-size="18px" font-style="normal" font-weight="normal" text-decoration="normal" x="515" y="682" text-anchor="start" dominant-baseline="alphabetic" stroke-opacity="1" stroke-linejoin="bevel" stroke-miterlimit="10" stroke-width="3">–2</text><text fill="rgb(37,37,37)" stroke="none" font-family="geogebra-sans-serif, sans-serif" font-size="18px" font-style="normal" font-weight="normal" text-decoration="normal" x="515" y="682" text-anchor="start" dominant-baseline="alphabetic" fill-opacity="1">–2</text><text fill="rgb(37,37,37)" stroke="none" font-family="geogebra-sans-serif, sans-serif" font-size="18px" font-style="normal" font-weight="normal" text-decoration="normal" x="515" y="585" text-anchor="start" dominant-baseline="alphabetic" fill-opacity="1">–1</text><text fill="none" stroke="rgb(255,255,255)" font-family="geogebra-sans-serif, sans-serif" font-size="18px" font-style="normal" font-weight="normal" text-decoration="normal" x="515" y="585" text-anchor="start" dominant-baseline="alphabetic" stroke-opacity="1" stroke-linejoin="bevel" stroke-miterlimit="10" stroke-width="3">–1</text><text fill="rgb(37,37,37)" stroke="none" font-family="geogebra-sans-serif, sans-serif" font-size="18px" font-style="normal" font-weight="normal" text-decoration="normal" x="515" y="585" text-anchor="start" dominant-baseline="alphabetic" fill-opacity="1">–1</text><text fill="rgb(37,37,37)" stroke="none" font-family="geogebra-sans-serif, sans-serif" font-size="18px" font-style="normal" font-weight="normal" text-decoration="normal" x="525" y="393" text-anchor="start" dominant-baseline="alphabetic" fill-opacity="1">1</text><text fill="none" stroke="rgb(255,255,255)" font-family="geogebra-sans-serif, sans-serif" font-size="18px" font-style="normal" font-weight="normal" text-decoration="normal" x="525" y="393" text-anchor="start" dominant-baseline="alphabetic" stroke-opacity="1" stroke-linejoin="bevel" stroke-miterlimit="10" stroke-width="3">1</text><text fill="rgb(37,37,37)" stroke="none" font-family="geogebra-sans-serif, sans-serif" font-size="18px" font-style="normal" font-weight="normal" text-decoration="normal" x="525" y="393" text-anchor="start" dominant-baseline="alphabetic" fill-opacity="1">1</text><text fill="rgb(37,37,37)" stroke="none" font-family="geogebra-sans-serif, sans-serif" font-size="18px" font-style="normal" font-weight="normal" text-decoration="normal" x="525" y="296" text-anchor="start" dominant-baseline="alphabetic" fill-opacity="1">2</text><text fill="none" stroke="rgb(255,255,255)" font-family="geogebra-sans-serif, sans-serif" font-size="18px" font-style="normal" font-weight="normal" text-decoration="normal" x="525" y="296" text-anchor="start" dominant-baseline="alphabetic" stroke-opacity="1" stroke-linejoin="bevel" stroke-miterlimit="10" stroke-width="3">2</text><text fill="rgb(37,37,37)" stroke="none" font-family="geogebra-sans-serif, sans-serif" font-size="18px" font-style="normal" font-weight="normal" text-decoration="normal" x="525" y="296" text-anchor="start" dominant-baseline="alphabetic" fill-opacity="1">2</text><text fill="rgb(37,37,37)" stroke="none" font-family="geogebra-sans-serif, sans-serif" font-size="18px" font-style="normal" font-weight="normal" text-decoration="normal" x="525" y="200" text-anchor="start" dominant-baseline="alphabetic" fill-opacity="1">3</text><text fill="none" stroke="rgb(255,255,255)" font-family="geogebra-sans-serif, sans-serif" font-size="18px" font-style="normal" font-weight="normal" text-decoration="normal" x="525" y="200" text-anchor="start" dominant-baseline="alphabetic" stroke-opacity="1" stroke-linejoin="bevel" stroke-miterlimit="10" stroke-width="3">3</text><text fill="rgb(37,37,37)" stroke="none" font-family="geogebra-sans-serif, sans-serif" font-size="18px" font-style="normal" font-weight="normal" text-decoration="normal" x="525" y="200" text-anchor="start" dominant-baseline="alphabetic" fill-opacity="1">3</text><text fill="rgb(37,37,37)" stroke="none" font-family="geogebra-sans-serif, sans-serif" font-size="18px" font-style="normal" font-weight="normal" text-decoration="normal" x="525" y="104" text-anchor="start" dominant-baseline="alphabetic" fill-opacity="1">4</text><text fill="none" stroke="rgb(255,255,255)" font-family="geogebra-sans-serif, sans-serif" font-size="18px" font-style="normal" font-weight="normal" text-decoration="normal" x="525" y="104" text-anchor="start" dominant-baseline="alphabetic" stroke-opacity="1" stroke-linejoin="bevel" stroke-miterlimit="10" stroke-width="3">4</text><text fill="rgb(37,37,37)" stroke="none" font-family="geogebra-sans-serif, sans-serif" font-size="18px" font-style="normal" font-weight="normal" text-decoration="normal" x="525" y="104" text-anchor="start" dominant-baseline="alphabetic" fill-opacity="1">4</text><text fill="rgb(37,37,37)" stroke="none" font-family="geogebra-sans-serif, sans-serif" font-size="18px" font-style="normal" font-weight="normal" text-decoration="normal" x="525" y="503" text-anchor="start" dominant-baseline="alphabetic" fill-opacity="1">0</text><text fill="none" stroke="rgb(255,255,255)" font-family="geogebra-sans-serif, sans-serif" font-size="18px" font-style="normal" font-weight="normal" text-decoration="normal" x="525" y="503" text-anchor="start" dominant-baseline="alphabetic" stroke-opacity="1" stroke-linejoin="bevel" stroke-miterlimit="10" stroke-width="3">0</text><text fill="rgb(37,37,37)" stroke="none" font-family="geogebra-sans-serif, sans-serif" font-size="18px" font-style="normal" font-weight="normal" text-decoration="normal" x="525" y="503" text-anchor="start" dominant-baseline="alphabetic" fill-opacity="1">0</text><path fill="none" stroke="rgb(46,125,50)" paint-order="fill stroke markers" d=" M 0.5 385.8424439839814 L 0.5 386.08366090835636 L 0.5 386.0836609083563 L 1.5 386.36304309616696 L 1.5 386.36304309616696 L 2.5 386.6804787982633 L 2.5 386.68047879826327 L 3.5 387.0358410445969 L 3.5 387.03584104459685 L 4.5 387.4289876950074 L 4.5 387.4289876950073 L 5.5 387.8597614960764 L 5.5 387.8597614960763 L 6.5 388.32799014402707 L 6.5 388.327990144027 L 7.5 388.83348635364325 L 7.5 388.8334863536432 L 8.5 389.376047933181 L 8.5 389.3760479331809 L 9.5 389.95545786524235 L 9.5 389.95545786524235 L 10.5 390.5714843935801 L 10.5 390.5714843935801 L 11.5 391.2238811157963 L 11.5 391.2238811157963 L 12.5 391.9123870819007 L 12.5 391.91238708190065 L 13.5 392.6367268986868 L 13.5 392.6367268986868 L 14.5 393.3966108398855 L 14.5 393.3966108398855 L 15.5 394.19173496205207 L 15.5 394.19173496205207 L 16.5 395.0217812261391 L 16.5 395.0217812261391 L 17.5 395.88641762470826 L 17.5 395.88641762470826 L 18.5 396.78529831472827 L 18.5 396.7852983147282 L 19.5 397.718063755908 L 19.5 397.718063755908 L 20.5 398.68434085450787 L 20.5 398.6843408545078 L 21.5 399.6837431125719 L 21.5 399.68374311257185 L 22.5 400.71587078252196 L 22.5 400.71587078252196 L 23.5 401.78031102705165 L 23.5 401.7803110270516 L 24.5 402.8766380842555 L 24.5 402.87663808425543 L 25.5 404.0044134379282 L 25.5 404.0044134379282 L 26.5 405.16318599296494 L 26.5 405.16318599296494 L 27.5 406.3524922557939 L 27.5 406.3524922557939 L 28.5 407.5718565197671 L 28.5 407.5718565197671 L 29.5 408.8207910554371 L 29.5 408.8207910554371 L 30.5 410.0987963056416 L 30.5 410.09879630564154 L 31.5 411.40536108532046 L 31.5 411.40536108532046 L 32.5 412.73996278598247 L 32.5 412.73996278598247 L 33.49999999999994 414.10206758474186 L 33.49999999999994 414.1020675847418 L 34.50000000000006 415.4911306578403 L 34.50000000000006 415.4911306578403 L 35.5 416.90659639856904 L 35.5 416.906596398569 L 36.5 418.34789863950436 L 36.5 418.34789863950436 L 37.49999999999994 419.81446087896717 L 37.49999999999994 419.8144608789671 L 38.50000000000006 421.30569651161557 L 38.50000000000006 421.30569651161557 L 39.5 422.8210090630792 L 39.5 422.8210090630792 L 40.5 424.3597924285415 L 40.5 424.3597924285415 L 41.49999999999994 425.9214311151731 L 41.49999999999994 425.92143111517305 L 42.50000000000006 427.50530048832104 L 42.50000000000006 427.50530048832104 L 43.5 429.1107670213538 L 43.5 429.1107670213538 L 44.5 430.73718854906423 L 44.5 430.73718854906423 L 45.5 432.3839145245266 L 45.5 432.3839145245266 L 46.50000000000006 434.0502862793068 L 46.50000000000006 434.0502862793068 L 47.5 435.73563728692085 L 47.5 435.7356372869208 L 48.5 437.4392934294367 L 48.5 437.43929342943665 L 49.5 439.1605732671125 L 49.5 439.16057326711245 L 50.50000000000006 440.8987883109635 L 50.50000000000006 440.8987883109634 L 51.5 442.65324329814763 L 51.5 442.6532432981476 L 52.5 444.42323647006265 L 52.5 444.42323647006265 L 53.5 446.2080598530394 L 53.5 446.2080598530394 L 54.49999999999994 448.006999541522 L 54.49999999999994 448.006999541522 L 55.50000000000006 449.8193359836208 L 55.50000000000006 449.8193359836208 L 56.5 451.6443442689228 L 56.5 451.6443442689228 L 57.5 453.4812944184471 L 57.5 453.4812944184471 L 58.49999999999994 455.3294516766262 L 58.49999999999994 455.3294516766262 L 59.50000000000006 457.1880768051989 L 59.50000000000006 457.1880768051989 L 60.5 459.0564263788946 L 60.5 459.0564263788946 L 61.5 460.9337530827952 L 61.5 460.9337530827952 L 62.49999999999994 462.81930601124964 L 62.49999999999994 462.81930601124964 L 63.50000000000006 464.7123309682272 L 63.50000000000006 464.7123309682272 L 64.5 466.61207076898467 L 64.5 466.61207076898467 L 65.5 468.51776554293144 L 65.5 468.51776554293144 L 66.5 470.42865303756696 L 66.5 470.42865303756696 L 67.50000000000006 472.34396892337156 L 67.50000000000006 472.34396892337156 L 68.5 474.2629470995279 L 68.5 474.2629470995279 L 69.5 476.18482000035164 L 69.5 476.18482000035164 L 70.5 478.1088189023072 L 70.5 478.1088189023072 L 71.50000000000006 480.03417423148676 L 71.50000000000006 480.03417423148676 L 72.5 481.9601158714295 L 72.5 481.9601158714295 L 73.5 483.8858734711585 L 73.5 483.8858734711585 L 74.5 485.8106767533102 L 74.5 485.8106767533102 L 75.49999999999994 487.73375582223554 L 75.49999999999994 487.73375582223554 L 76.50000000000006 489.6543414719478 L 76.50000000000006 489.6543414719478 L 77.5 491.5716654937942 L 77.5 491.5716654937942 L 78.5 493.48496098373016 L 78.5 493.48496098373016 L 79.49999999999994 495.39346264907 L 79.49999999999994 495.39346264907 L 80.50000000000006 497.29640711459405 L 80.50000000000006 497.29640711459405 L 81.5 499.19303322788807 L 81.5 499.19303322788807 L 82.5 501.08258236379487 L 82.5 501.08258236379487 L 83.49999999999994 502.9642987278538 L 83.49999999999994 502.9642987278538 L 84.50000000000006 504.8374296586086 L 84.50000000000006 504.8374296586086 L 85.5 506.70122592866136 L 85.5 506.7012259286613 L 86.5 508.5549420443545 L 86.5 508.5549420443545 L 87.5 510.3978365439576 L 87.5 510.3978365439576 L 88.50000000000006 512.2291722942427 L 88.50000000000006 512.2291722942427 L 89.5 514.0482167853268 L 89.5 514.0482167853268 L 90.5 515.8542424236672 L 90.5 515.8542424236672 L 91.5 517.6465268230885 L 91.5 517.6465268230885 L 92.50000000000006 519.4243530937281 L 92.50000000000006 519.4243530937281 L 93.5 521.1870101287813 L 93.5 521.1870101287813 L 94.5 522.9337928889361 L 94.5 522.9337928889361 L 95.5 524.6640026843785 L 95.5 524.6640026843785 L 96.49999999999994 526.3769474542595 L 96.49999999999994 526.3769474542595 L 97.50000000000006 528.0719420435103 L 97.50000000000006 528.0719420435103 L 98.5 529.7483084768944 L 98.5 529.7483084768944 L 99.5 531.4053762301901 L 99.5 531.40537623019 L 100.49999999999994 533.0424824983897 L 100.49999999999994 533.0424824983897 L 101.50000000000006 534.6589724608141 L 101.50000000000006 534.6589724608141 L 102.5 536.254199543031 L 102.5 536.254199543031 L 103.5 537.8275256754767 L 103.5 537.8275256754767 L 104.49999999999994 539.3783215486761 L 104.49999999999994 539.378321548676 L 105.50000000000006 540.9059668649567 L 105.50000000000006 540.9059668649567 L 106.5 542.4098505865602 L 106.5 542.4098505865602 L 107.5 543.8893711800497 L 107.5 543.8893711800496 L 108.5 545.3439368569142 L 108.5 545.3439368569142 L 109.50000000000006 546.7729658102774 L 109.50000000000006 546.7729658102774 L 110.5 548.1758864476108 L 110.5 548.1758864476108 L 111.5 549.5521376193651 L 111.5 549.5521376193651 L 112.5 550.9011688434215 L 112.5 550.9011688434215 L 113.50000000000006 552.2224405252772 L 113.50000000000006 552.2224405252772 L 114.5 553.515424173876 L 114.5 553.515424173876 L 115.5 554.779602612998 L 115.5 554.779602612998 L 116.5 556.0144701881233 L 116.5 556.0144701881233 L 117.49999999999994 557.2195329686863 L 117.49999999999994 557.2195329686863 L 118.50000000000006 558.3943089456423 L 118.50000000000006 558.3943089456421 L 119.5 559.5383282242635 L 119.5 559.5383282242635 L 120.5 560.6511332120924 L 120.5 560.6511332120924 L 121.49999999999994 561.7322788019708 L 121.49999999999994 561.7322788019707 L 122.50000000000006 562.7813325500779 L 122.50000000000006 562.7813325500779 L 123.5 563.7978748489015 L 123.5 563.7978748489015 L 124.5 564.7814990950759 L 124.5 564.7814990950759 L 125.49999999999994 565.7318118520176 L 125.49999999999994 565.7318118520175 L 126.50000000000006 566.6484330072942 L 126.50000000000006 566.6484330072942 L 127.5 567.5309959246653 L 127.5 567.5309959246653 L 128.5 568.3791475907311 L 128.5 568.3791475907311 L 129.5 569.1925487561339 L 129.5 569.1925487561338 L 130.50000000000006 569.9708740712525 L 130.50000000000006 569.9708740712525 L 131.5 570.7138122163386 L 131.5 570.7138122163386 L 132.5 571.4210660260399 L 132.5 571.4210660260399 L 133.5 572.0923526082621 L 133.5 572.0923526082621 L 134.50000000000006 572.7274034573231 L 134.50000000000006 572.7274034573231 L 135.5 573.3259645613504 L 135.5 573.3259645613504 L 136.5 573.8877965038829 L 136.5 573.8877965038828 L 137.5 574.4126745596346 L 137.5 574.4126745596346 L 138.49999999999994 574.9003887843818 L 138.49999999999994 574.9003887843818 L 139.5 575.3507440989372 L 139.5 575.3507440989371 L 140.5 575.7635603671794 L 140.5 575.7635603671794 L 141.5 576.1386724681055 L 141.5 576.1386724681055 L 142.49999999999994 576.4759303618765 L 142.49999999999994 576.4759303618765 L 143.5 576.7751991498317 L 143.5 576.7751991498317 L 144.5 577.036359128446 L 144.5 577.036359128446 L 145.5 577.2593058372099 L 145.5 577.2593058372099 L 146.5 577.4439501004127 L 146.5 577.4439501004127 L 147.5 577.5902180628111 L 147.5 577.590218062811 L 148.5 577.6980512191701 L 148.5 577.69805121917 L 149.5 577.7674064376649 L 149.5 577.7674064376649 L 150.5 577.7982559771331 L 150.5 577.79058749817 L 151.5 577.8 L 151.5 577.79058749817 L 152.5 577.744404068065 L 152.5 577.744404068065 L 153.5 577.6597241595745 L 153.5 577.6597241595745 L 154.5 577.5365816435326 L 154.5 577.5365816435326 L 155.5 577.375025775304 L 155.5 577.375025775304 L 156.5 577.1751211750819 L 156.5 577.1751211750819 L 157.5 576.9369478020411 L 157.5 576.9369478020411 L 158.5 576.6606009223551 L 158.5 576.6606009223551 L 159.5 576.3461910710913 L 159.5 576.3461910710913 L 160.5 575.9938440079981 L 160.5 575.9938440079981 L 161.5 575.6037006672027 L 161.5 575.6037006672027 L 162.5 575.1759171008398 L 162.5 575.1759171008398 L 163.5 574.7106644166321 L 163.5 574.7106644166322 L 164.5 574.2081287094501 L 164.5 574.2081287094501 L 165.5 573.6685109868761 L 165.5 573.6685109868762 L 166.5 573.0920270888046 L 166.5 573.0920270888046 L 167.5 572.4789076011082 L 167.5 572.4789076011082 L 168.5 571.8293977634073 L 168.5 571.8293977634073 L 169.5 571.143757370977 L 169.5 571.143757370977 L 170.5 570.4222606708324 L 170.5 570.4222606708324 L 171.5 569.6651962520339 L 171.5 569.6651962520339 L 172.5 568.8728669302549 L 172.5 568.8728669302549 L 173.5 568.0455896266596 L 173.5 568.0455896266596 L 174.5 567.1836952411396 L 174.5 567.1836952411396 L 175.5 566.287528519957 L 175.5 566.287528519957 L 176.5 565.357447917852 L 176.5 565.357447917852 L 177.5 564.3938254546641 L 177.5 564.3938254546641 L 178.5 563.3970465665307 L 178.5 563.3970465665308 L 179.5 562.3675099517168 L 179.5 562.3675099517168 L 180.5 561.3056274111411 L 180.5 561.3056274111411 L 181.5 560.2118236836619 L 181.5 560.211823683662 L 182.5 559.0865362761862 L 182.5 559.0865362761862 L 183.5 557.9302152886734 L 183.5 557.9302152886735 L 184.5 556.743323234101 L 184.5 556.743323234101 L 185.5 555.526334853466 L 185.5 555.526334853466 L 186.5 554.2797369258942 L 186.5 554.2797369258942 L 187.5 553.0040280739356 L 187.5 553.0040280739357 L 188.5 551.6997185641219 L 188.5 551.6997185641219 L 189.5 550.3673301028662 L 189.5 550.3673301028662 L 190.5 549.007395627788 L 190.5 549.0073956277881 L 191.5 547.6204590945455 L 191.5 547.6204590945456 L 192.5 546.2070752592595 L 192.5 546.2070752592595 L 193.5 544.7678094566193 L 193.5 544.7678094566193 L 194.5 543.303237373756 L 194.5 543.303237373756 L 195.5 541.8139448199754 L 195.5 541.8139448199754 L 196.5 540.300527492442 L 196.5 540.300527492442 L 197.5 538.7635907379082 L 197.5 538.7635907379083 L 198.5 537.2037493105836 L 198.5 537.2037493105836 L 199.5 535.6216271262415 L 199.5 535.6216271262415 L 200.5 534.0178570126609 L 200.5 534.0178570126609 L 201.5 532.3930804565041 L 201.5 532.3930804565041 L 202.5 530.74794734673 L 202.5 530.7479473467301 L 203.5 529.0831157146479 L 203.5 529.0831157146479 L 204.5 527.399251470713 L 204.5 527.399251470713 L 205.5 525.6970281381716 L 205.5 525.6970281381716 L 206.5 523.9771265836608 L 206.5 523.9771265836608 L 207.5 522.2402347448706 L 207.5 522.2402347448706 L 208.5 520.4870473553783 L 208.5 520.4870473553784 L 209.5 518.7182656667643 L 209.5 518.7182656667643 L 210.5 516.9345971681205 L 210.5 516.9345971681205 L 211.5 515.1367553030645 L 211.5 515.1367553030645 L 212.5 513.3254591843714 L 212.5 513.3254591843714 L 213.5 511.5014333063383 L 213.5 511.5014333063383 L 214.5 509.66540725499647 L 214.5 509.66540725499647 L 215.5 507.8181154162862 L 215.5 507.8181154162862 L 216.5 505.9602966823132 L 216.5 505.9602966823132 L 217.5 504.09269415579996 L 217.5 504.09269415579996 L 218.5 502.2160548528565 L 218.5 502.2160548528565 L 219.5 500.33112940418226 L 219.5 500.33112940418226 L 220.5 498.4386717548247 L 220.5 498.4386717548248 L 221.5 496.53943886261123 L 221.5 496.53943886261123 L 222.5 494.6341903953758 L 222.5 494.6341903953758 L 223.5 492.7236884271024 L 223.5 492.7236884271024 L 224.5 490.8086971331054 L 224.5 490.8086971331054 L 225.5 488.8899824843695 L 225.5 488.8899824843695 L 226.5 486.9683119411716 L 226.5 486.9683119411716 L 227.5 485.04445414610706 L 227.5 485.04445414610706 L 228.5 483.11917861664284 L 228.5 483.11917861664284 L 229.5 481.1932554373208 L 229.5 481.1932554373208 L 230.5 479.2674549517338 L 230.5 479.2674549517338 L 231.5 477.3425474543994 L 231.5 477.3425474543994 L 232.5 475.41930288265115 L 232.5 475.41930288265115 L 233.5 473.49849050867505 L 233.5 473.49849050867505 L 234.5 471.58087863181004 L 234.5 471.58087863181004 L 235.5 469.6672342712392 L 235.5 469.6672342712392 L 236.5 467.75832285919165 L 236.5 467.75832285919165 L 237.5 465.8549079347806 L 237.5 465.8549079347806 L 238.5 463.9577508385971 L 238.5 463.9577508385971 L 239.5 462.06761040818475 L 239.5 462.06761040818475 L 240.5 460.1852426745139 L 240.5 460.1852426745139 L 241.5 458.3114005595804 L 241.5 458.3114005595804 L 242.5 456.44683357524576 L 242.5 456.4468335752458 L 243.5 454.59228752344336 L 243.5 454.5922875234434 L 244.5 452.7485041978668 L 244.5 452.7485041978668 L 245.5 450.916221087263 L 245.5 450.916221087263 L 246.5 449.09617108044597 L 246.5 449.09617108044597 L 247.5 447.2890821731514 L 247.5 447.2890821731514 L 248.5 445.49567717684823 L 248.5 445.49567717684823 L 249.5 443.7166734296229 L 249.5 443.716673429623 L 250.5 441.9527825092549 L 250.5 441.9527825092549 L 251.5 440.2047099485939 L 251.5 440.2047099485939 L 252.5 438.47315495335704 L 252.5 438.47315495335704 L 253.5 436.7588101224551 L 253.5 436.75881012245515 L 254.5 435.062361170963 L 254.5 435.0623611709631 L 255.5 433.38448665584224 L 255.5 433.38448665584224 L 256.5 431.7258577045276 L 256.5 431.7258577045276 L 257.5 430.0871377464846 L 257.5 430.08713774648464 L 258.5 428.4689822478474 L 258.5 428.46898224784746 L 259.5 426.8720384492403 L 259.5 426.8720384492403 L 260.5 425.29694510689035 L 260.5 425.29694510689035 L 261.5 423.7443322371335 L 261.5 423.74433223713356 L 262.5 422.21482086441665 L 262.5 422.21482086441665 L 263.5 420.70902277289537 L 263.5 420.7090227728954 L 264.5 419.2275402617295 L 264.5 419.2275402617295 L 265.5 417.77096590417045 L 265.5 417.77096590417045 L 266.5 416.33988231054064 L 266.5 416.3398823105407 L 267.5 414.93486189519666 L 267.5 414.9348618951967 L 268.5 413.5564666475712 L 268.5 413.55646664757126 L 269.5 412.20524790738506 L 269.5 412.2052479073851 L 270.5 410.8817461441182 L 270.5 410.88174614411827 L 271.5 409.5864907408296 L 271.5 409.5864907408296 L 272.5 408.3199997824106 L 272.5 408.31999978241066 L 273.5 407.0827798483584 L 273.5 407.0827798483584 L 274.5 405.8753258101504 L 274.5 405.8753258101504 L 275.5 404.69812063330284 L 275.5 404.69812063330284 L 276.5 403.5516351841905 L 276.5 403.5516351841905 L 277.5 402.4363280417069 L 277.5 402.43632804170693 L 278.5 401.35264531383825 L 278.5 401.3526453138383 L 279.5 400.30102045922706 L 279.5 400.30102045922706 L 280.5 399.28187411379344 L 280.5 399.2818741137935 L 281.5 398.2956139224873 L 281.5 398.2956139224873 L 282.5 397.3426343762351 L 282.5 397.34263437623514 L 283.5 396.42331665414923 L 283.5 396.42331665414923 L 284.5 395.53802847106095 L 284.5 395.538028471061 L 285.5 394.68712393044 L 285.5 394.68712393044 L 286.5 393.8709433827572 L 286.5 393.8709433827572 L 287.5 393.08981328934954 L 287.5 393.0898132893496 L 288.5 392.34404609183935 L 288.5 392.3440460918394 L 289.5 391.6339400871622 L 289.5 391.6339400871622 L 290.5 390.95977930825205 L 290.5 390.9597793082521 L 291.5 390.32183341043174 L 291.5 390.32183341043174 L 292.5 389.72035756355456 L 292.5 389.7203575635546 L 293.5 389.15559234993975 L 293.5 389.15559234993975 L 294.5 388.6277636681426 L 294.5 388.6277636681426 L 295.5 388.1370826425982 L 295.5 388.1370826425982 L 296.5 387.6837455391745 L 296.5 387.6837455391745 L 297.5 387.26793368666836 L 297.5 387.26793368666836 L 298.5 386.88981340427677 L 298.5 386.88981340427677 L 299.5 386.5495359350711 L 299.5 386.54953593507116 L 300.5 386.24723738550216 L 300.5 386.2472373855022 L 301.5 385.9830386709591 L 301.5 385.9830386709591 L 302.5 385.75704546740513 L 302.5 385.7570454674052 L 303.5 385.56934816910854 L 303.5 385.56934816910854 L 304.5 385.420021852486 L 304.5 385.420021852486 L 305.5 385.3091262460731 L 305.5 385.3091262460731 L 306.5 385.2367057066339 L 306.5 385.236705706634 L 307.5 385.2027892014186 L 307.5 385.2073902965771 L 308.5 385.2 L 308.5 385.2073902965771 L 309.5 385.25050715173256 L 309.5 385.25050715173256 L 310.5 385.33212252071786 L 310.5 385.33212252071786 L 311.5 385.4522037584736 L 311.5 385.4522037584736 L 312.5 385.6107028341058 L 312.5 385.6107028341058 L 313.5 385.8075563500974 L 313.5 385.80755635009734 L 314.5 386.0426855676667 L 314.5 386.0426855676667 L 315.5 386.3159964382618 L 315.5 386.3159964382617 L 316.5 386.6273796411783 L 316.5 386.6273796411783 L 317.5 386.97671062728705 L 317.5 386.97671062728705 L 318.5 387.3638496688512 L 318.5 387.3638496688512 L 319.5 387.7886419154158 L 319.5 387.7886419154158 L 320.5 388.25091745574616 L 320.5 388.2509174557461 L 321.5 388.75049138578964 L 321.5 388.7504913857896 L 322.5 389.28716388263524 L 322.5 389.2871638826352 L 323.5 389.86072028443965 L 323.5 389.8607202844396 L 324.5 390.4709311762895 L 324.5 390.4709311762895 L 325.5 391.11755248196414 L 325.5 391.11755248196414 L 326.5 391.8003255615628 L 326.5 391.8003255615628 L 327.5 392.51897731495706 L 327.5 392.518977314957 L 328.5 393.27322029102754 L 328.5 393.2732202910275 L 329.5 394.0627528026402 L 329.5 394.06275280264015 L 330.5 394.8872590473174 L 330.5 394.88725904731734 L 331.5 395.7464092335546 L 331.5 395.7464092335545 L 332.5 396.6398597127323 L 332.5 396.63985971273223 L 333.5 397.5672531165715 L 333.5 397.56725311657146 L 334.5 398.5282185000757 L 334.5 398.5282185000757 L 335.5 399.52237148990423 L 335.5 399.52237148990423 L 336.5 400.54931443811626 L 336.5 400.54931443811626 L 337.5 401.608636581225 L 337.5 401.608636581225 L 338.5 402.6999142044973 L 338.5 402.6999142044973 L 339.5 403.822710811434 L 339.5 403.822710811434 L 340.5 404.9765772983627 L 340.5 404.97657729836266 L 341.5 406.1610521340734 L 341.5 406.1610521340734 L 342.5 407.3756615444245 L 342.5 407.3756615444245 L 343.5 408.61991970184647 L 343.5 408.61991970184647 L 344.5 409.8933289196664 L 344.5 409.8933289196664 L 345.5 411.1953798511755 L 345.5 411.1953798511755 L 346.5 412.52555169336165 L 346.5 412.52555169336165 L 347.5 413.88331239522347 L 347.5 413.8833123952234 L 348.5 415.26811887058335 L 348.5 415.26811887058335 L 349.5 416.6794172153151 L 349.5 416.6794172153151 L 350.5 418.1166429288977 L 350.5 418.11664292889765 L 351.5 419.5792211402086 L 351.5 419.5792211402086 L 352.5 421.06656683746405 L 352.5 421.06656683746405 L 353.5 422.5780851022162 L 353.5 422.5780851022162 L 354.5 424.11317134731235 L 354.5 424.11317134731235 L 355.5 425.67121155872206 L 355.5 425.67121155872206 L 356.5 427.25158254113444 L 356.5 427.25158254113444 L 357.5 428.8536521672277 L 357.5 428.8536521672277 L 358.5 430.47677963051217 L 358.5 430.47677963051217 L 359.5 432.12031570164385 L 359.5 432.1203157016438 L 360.5 433.7836029881079 L 360.5 433.7836029881079 L 361.5 435.4659761971666 L 361.5 435.4659761971666 L 362.5 437.1667624019675 L 362.5 437.1667624019675 L 363.5 438.88528131070575 L 363.5 438.88528131070575 L 364.5 440.620845538731 L 364.5 440.620845538731 L 365.5 442.3727608834927 L 365.5 442.3727608834927 L 366.5 444.1403266022114 L 366.5 444.1403266022114 L 367.5 445.92283569216687 L 367.5 445.92283569216687 L 368.5 447.7195751734896 L 368.5 447.7195751734896 L 369.5 449.5298263743433 L 369.5 449.5298263743433 L 370.5 451.35286521838407 L 370.5 451.352865218384 L 371.5 453.18796251438084 L 371.5 453.18796251438084 L 372.5 455.03438424788317 L 372.5 455.0343842478831 L 373.5 456.8913918748162 L 373.5 456.8913918748162 L 374.5 458.7582426168889 L 374.5 458.7582426168889 L 375.5 460.63418975869536 L 375.5 460.63418975869536 L 376.5 462.51848294639126 L 376.5 462.51848294639126 L 377.5 464.41036848782517 L 377.5 464.41036848782517 L 378.5 466.3090896540053 L 378.5 466.3090896540053 L 379.5 468.2138869817809 L 379.5 468.2138869817809 L 380.5 470.12399857761795 L 380.5 470.12399857761795 L 381.5 472.0386604223461 L 381.5 472.0386604223461 L 382.5 473.95710667675576 L 382.5 473.95710667675576 L 383.5 475.8785699879241 L 383.5 475.8785699879241 L 384.5 477.80228179614585 L 384.5 477.80228179614585 L 385.5 479.7274726423469 L 385.5 479.7274726423469 L 386.5 481.6533724758577 L 386.5 481.6533724758577 L 387.5 483.57921096242313 L 387.5 483.57921096242313 L 388.5 485.5042177923259 L 388.5 485.5042177923259 L 389.5 487.4276229885006 L 389.5 487.4276229885006 L 390.5 489.34865721451393 L 390.5 489.34865721451393 L 391.5 491.26655208228885 L 391.5 491.26655208228885 L 392.5 493.1805404594497 L 392.5 493.1805404594497 L 393.5 495.0898567761652 L 393.5 495.0898567761652 L 394.5 496.993737331366 L 394.5 496.993737331366 L 395.5 498.8914205982147 L 395.5 498.8914205982147 L 396.5 500.7821475287065 L 396.5 500.7821475287065 L 397.5 502.66516185727875 L 397.5 502.66516185727875 L 398.5 504.5397104033065 L 398.5 504.5397104033065 L 399.5 506.40504337236507 L 399.5 506.405043372365 L 400.5 508.26041465613736 L 400.5 508.2604146561373 L 401.5 510.10508213084796 L 401.5 510.10508213084796 L 402.5 511.9383079541023 L 402.5 511.9383079541023 L 403.5 513.7593588600138 L 403.5 513.7593588600137 L 404.5 515.5675064525001 L 404.5 515.5675064525001 L 405.5 517.3620274966329 L 405.5 517.3620274966329 L 406.5 519.1422042079209 L 406.5 519.1422042079209 L 407.5 520.9073245394153 L 407.5 520.9073245394153 L 408.5 522.6566824665179 L 408.5 522.6566824665179 L 409.5 524.3895782693822 L 409.5 524.3895782693822 L 410.5 526.1053188127922 L 410.5 526.1053188127922 L 411.5 527.8032178234068 L 411.5 527.8032178234068 L 412.5 529.4825961642601 L 412.5 529.4825961642601 L 413.5 531.142782106407 L 413.5 531.142782106407 L 414.5 532.7831115976063 L 414.5 532.7831115976063 L 415.5 534.4029285279323 L 415.5 534.4029285279323 L 416.5 536.0015849922102 L 416.5 536.0015849922102 L 417.5 537.5784415491692 L 417.5 537.578441549169 L 418.5 539.132867477211 L 418.5 539.132867477211 L 419.5 540.6642410266901 L 419.5 540.6642410266901 L 420.5 542.1719496686045 L 420.5 542.1719496686045 L 421.5 543.6553903395999 L 421.5 543.6553903395999 L 422.5 545.1139696831871 L 422.5 545.1139696831871 L 423.5 546.5471042870759 L 423.5 546.5471042870759 L 424.5 547.954220916533 L 424.5 547.954220916533 L 425.5 549.334756743668 L 425.5 549.334756743668 L 426.5 550.6881595725569 L 426.5 550.6881595725569 L 427.5 552.0138880601132 L 427.5 552.0138880601132 L 428.5 553.3114119326182 L 428.5 553.3114119326182 L 429.5 554.5802121978228 L 429.5 554.5802121978228 L 430.5 555.8197813525381 L 430.5 555.8197813525381 L 431.5 557.0296235856297 L 431.5 557.0296235856297 L 432.5 558.2092549763352 L 432.5 558.2092549763352 L 433.5 559.3582036878265 L 433.5 559.3582036878265 L 434.5 560.4760101559384 L 434.5 560.4760101559383 L 435.5 561.5622272729872 L 435.5 561.5622272729872 L 436.5 562.616420566609 L 436.5 562.616420566609 L 437.5 563.638168373542 L 437.5 563.6381683735419 L 438.5 564.6270620082865 L 438.5 564.6270620082865 L 439.5 565.5827059265739 L 439.5 565.5827059265738 L 440.5 566.5047178835783 L 440.5 566.5047178835783 L 441.5 567.3927290868105 L 441.5 567.3927290868105 L 442.5 568.246384343629 L 442.5 568.246384343629 L 443.5 569.0653422033131 L 443.5 569.0653422033131 L 444.5 569.8492750936383 L 444.5 569.8492750936383 L 445.5 570.5978694519006 L 445.5 570.5978694519006 L 446.5 571.3108258503379 L 446.5 571.3108258503379 L 447.5 571.9878591158968 L 447.5 571.9878591158968 L 448.5 572.628698444298 L 448.5 572.628698444298 L 449.5 573.2330875083546 L 449.5 573.2330875083546 L 450.5 573.8007845604994 L 450.5 573.8007845604994 L 451.5 574.3315625294807 L 451.5 574.3315625294807 L 452.5 574.825209111188 L 452.5 574.825209111188 L 453.5 575.2815268535702 L 453.5 575.2815268535702 L 454.5 575.7003332356147 L 454.5 575.7003332356147 L 455.5 576.0814607403527 L 455.5 576.0814607403527 L 456.5 576.4247569218638 L 456.5 576.4247569218638 L 457.5 576.7300844662527 L 457.5 576.7300844662527 L 458.5 576.9973212465727 L 458.5 576.9973212465727 L 459.5 577.2263603716747 L 459.5 577.2263603716747 L 460.5 577.4171102289625 L 460.5 577.4171102289624 L 461.5 577.5694945210364 L 461.5 577.5694945210364 L 462.5 577.6834522962115 L 462.5 577.6834522962115 L 463.5 577.758937972897 L 463.5 577.758937972897 L 464.5 577.7959213578287 L 464.5 577.7943876581458 L 465.5 577.8 L 465.5 577.7943876581458 L 466.5 577.7543374873076 L 466.5 577.7543374873077 L 467.5 577.6757868648486 L 467.5 577.6757868648486 L 468.5 577.5587672099705 L 468.5 577.5587672099705 L 469.5 577.4033253289747 L 469.5 577.4033253289747 L 470.5 577.2095233965414 L 470.5 577.2095233965414 L 471.5 576.9774389308594 L 471.5 576.9774389308594 L 472.5 576.7071647626206 L 472.5 576.7071647626207 L 473.5 576.3988089978886 L 473.5 576.3988089978888 L 474.5 576.0524949748582 L 474.5 576.0524949748583 L 475.5 575.6683612145209 L 475.5 575.6683612145209 L 476.5 575.2465613652593 L 476.5 575.2465613652593 L 477.5 574.787264141389 L 477.5 574.787264141389 L 478.5 574.2906532556757 L 478.5 574.2906532556757 L 479.5 573.7569273458523 L 479.5 573.7569273458523 L 480.5 573.1862998951667 L 480.5 573.1862998951667 L 481.5 572.5789991469906 L 481.5 572.5789991469906 L 482.5 571.9352680135262 L 482.5 571.9352680135262 L 483.5 571.2553639786439 L 483.5 571.2553639786439 L 484.5 570.5395589948923 L 484.5 570.5395589948923 L 485.5 569.7881393747211 L 485.5 569.7881393747211 L 486.5 569.0014056759595 L 486.5 569.0014056759595 L 487.5 568.1796725815974 L 487.5 568.1796725815974 L 488.5 567.3232687739162 L 488.5 567.3232687739162 L 489.5 566.4325368030204 L 489.5 566.4325368030204 L 490.5 565.5078329498222 L 490.5 565.5078329498222 L 491.5 564.5495270835335 L 491.5 564.5495270835335 L 492.5 563.5580025137236 L 492.5 563.5580025137236 L 493.5 562.5336558370004 L 493.5 562.5336558370004 L 494.5 561.4768967783767 L 494.5 561.4768967783767 L 495.5 560.3881480273861 L 495.5 560.3881480273861 L 496.5 559.2678450690125 L 496.5 559.2678450690125 L 497.5 558.1164360095021 L 497.5 558.1164360095021 L 498.5 556.9343813971266 L 498.5 556.9343813971267 L 499.5 555.7221540379708 L 499.5 555.7221540379708 L 500.5 554.4802388068151 L 500.5 554.4802388068151 L 501.5 553.2091324531938 L 501.5 553.2091324531938 L 502.5 551.9093434027001 L 502.5 551.9093434027001 L 503.5 550.581391553624 L 503.5 550.581391553624 L 504.5 549.2258080689995 L 504.5 549.2258080689995 L 505.5 547.843135164146 L 505.5 547.8431351641461 L 506.5 546.4339258897903 L 506.5 546.4339258897903 L 507.5 544.9987439108528 L 507.5 544.9987439108529 L 508.5 543.5381632809896 L 508.5 543.5381632809896 L 509.5 542.0527682129784 L 509.5 542.0527682129785 L 510.5 540.5431528450417 L 510.5 540.5431528450417 L 511.5 539.0099210031983 L 511.5 539.0099210031983 L 512.5 537.4536859597425 L 512.5 537.4536859597425 L 513.5 535.8750701879419 L 513.5 535.8750701879419 L 514.5 534.2747051130574 L 514.5 534.2747051130574 L 515.5 532.6532308597812 L 515.5 532.6532308597812 L 516.5 531.0112959961948 L 516.5 531.0112959961948 L 517.5 529.3495572743518 L 517.5 529.3495572743518 L 518.5 527.6686793675848 L 518.5 527.6686793675848 L 519.5 525.9693346046448 L 519.5 525.9693346046448 L 520.5 524.2522027007795 L 520.5 524.2522027007795 L 521.5 522.5179704858557 L 521.5 522.5179704858557 L 522.5 520.7673316296366 L 522.5 520.7673316296366 L 523.5 519.0009863643231 L 523.5 519.0009863643231 L 524.5 517.2196412044702 L 524.5 517.2196412044702 L 525.5 515.4240086643911 L 525.5 515.4240086643911 L 526.5 513.6148069731604 L 526.5 513.6148069731604 L 527.5 511.79275978733216 L 527.5 511.79275978733216 L 528.5 509.958595901487 L 528.5 509.958595901487 L 529.5 508.1130489567242 L 529.5 508.1130489567242 L 530.5 506.25685714721453 L 530.5 506.25685714721453 L 531.5 504.3907629249331 L 531.5 504.3907629249331 L 532.5 502.5155127026877 L 532.5 502.5155127026877 L 533.5 500.6318565555644 L 533.5 500.6318565555644 L 534.5 498.74054792090686 L 534.5 498.74054792090686 L 535.5 496.8423432969519 L 535.5 496.8423432969519 L 536.5 494.93800194023993 L 536.5 494.93800194023993 L 537.5 493.0282855619229 L 537.5 493.0282855619229 L 538.5 491.11395802308954 L 538.5 491.11395802308954 L 539.5 489.19578502923133 L 539.5 489.19578502923133 L 540.5 487.27453382397056 L 540.5 487.27453382397056 L 541.5 485.35097288217287 L 541.5 485.35097288217287 L 542.5 483.42587160256795 L 542.5 483.42587160256795 L 543.5 481.5 L 543.5 481.5 L 544.5 479.57412839743205 L 544.5 479.57412839743205 L 545.5 477.64902711782713 L 545.5 477.64902711782713 L 546.5 475.72546617602944 L 546.5 475.72546617602944 L 547.5 473.80421497076867 L 547.5 473.80421497076867 L 548.5 471.88604197691046 L 548.5 471.8860419769105 L 549.5 469.9717144380771 L 549.5 469.9717144380771 L 550.5 468.06199805976007 L 550.5 468.06199805976007 L 551.5 466.15765670304813 L 551.5 466.15765670304813 L 552.5 464.25945207909314 L 552.5 464.2594520790932 L 553.5 462.3681434444356 L 553.5 462.3681434444356 L 554.5 460.4844872973123 L 554.5 460.48448729731234 L 555.5 458.6092370750669 L 555.5 458.6092370750669 L 556.5 456.74314285278547 L 556.5 456.74314285278547 L 557.5 454.8869510432758 L 557.5 454.8869510432758 L 558.5 453.041404098513 L 558.5 453.04140409851306 L 559.5 451.20724021266784 L 559.5 451.20724021266784 L 560.5 449.3851930268396 L 560.5 449.3851930268396 L 561.5 447.5759913356089 L 561.5 447.5759913356089 L 562.5 445.78035879552976 L 562.5 445.78035879552976 L 563.5 443.99901363567693 L 563.5 443.99901363567693 L 564.5 442.2326683703634 L 564.5 442.2326683703634 L 565.5 440.4820295141443 L 565.5 440.4820295141443 L 566.5 438.74779729922045 L 566.5 438.74779729922045 L 567.5 437.0306653953552 L 567.5 437.0306653953552 L 568.5 435.33132063241527 L 568.5 435.33132063241527 L 569.5 433.6504427256482 L 569.5 433.6504427256482 L 570.5 431.9887040038052 L 570.5 431.9887040038052 L 571.5 430.3467691402189 L 571.5 430.3467691402189 L 572.5 428.72529488694255 L 572.5 428.7252948869426 L 573.5 427.1249298120581 L 573.5 427.12492981205816 L 574.5 425.5463140402575 L 574.5 425.5463140402575 L 575.5 423.9900789968017 L 575.5 423.9900789968017 L 576.5 422.4568471549583 L 576.5 422.4568471549583 L 577.5 420.9472317870215 L 577.5 420.9472317870215 L 578.5 419.4618367190103 L 578.5 419.46183671901036 L 579.5 418.00125608914715 L 579.5 418.0012560891472 L 580.5 416.5660741102096 L 580.5 416.5660741102096 L 581.5 415.1568648358539 L 581.5 415.1568648358539 L 582.5 413.7741919310005 L 582.5 413.7741919310005 L 583.5 412.41860844637597 L 583.5 412.41860844637597 L 584.5 411.0906565972999 L 584.5 411.0906565972999 L 585.5 409.7908675468062 L 585.5 409.7908675468063 L 586.5 408.5197611931849 L 586.5 408.5197611931849 L 587.5 407.27784596202923 L 587.5 407.2778459620293 L 588.5 406.0656186028733 L 588.5 406.0656186028733 L 589.5 404.8835639904979 L 589.5 404.883563990498 L 590.5 403.7321549309875 L 590.5 403.7321549309875 L 591.5 402.61185197261386 L 591.5 402.61185197261386 L 592.5 401.5231032216233 L 592.5 401.5231032216233 L 593.5 400.4663441629996 L 593.5 400.4663441629996 L 594.5 399.44199748627636 L 594.5 399.44199748627636 L 595.5 398.4504729164665 L 595.5 398.45047291646654 L 596.5 397.49216705017784 L 596.5 397.49216705017784 L 597.5 396.56746319697953 L 597.5 396.5674631969796 L 598.5 395.6767312260838 L 598.5 395.6767312260838 L 599.5 394.82032741840254 L 599.5 394.8203274184026 L 600.5 393.9985943240405 L 600.5 393.9985943240405 L 601.5 393.21186062527886 L 601.5 393.21186062527886 L 602.5 392.46044100510767 L 602.5 392.46044100510767 L 603.5 391.7446360213561 L 603.5 391.74463602135614 L 604.5 391.0647319864738 L 604.5 391.0647319864738 L 605.5 390.4210008530094 L 605.5 390.4210008530094 L 606.5 389.81370010483334 L 606.5 389.81370010483334 L 607.5 389.2430726541476 L 607.5 389.2430726541477 L 608.5 388.7093467443243 L 608.5 388.7093467443243 L 609.5 388.21273585861104 L 609.5 388.21273585861104 L 610.5 387.75343863474075 L 610.5 387.75343863474075 L 611.5 387.3316387854791 L 611.5 387.3316387854791 L 612.5 386.94750502514177 L 612.5 386.94750502514177 L 613.5 386.6011910021113 L 613.5 386.6011910021113 L 614.5 386.2928352373794 L 614.5 386.2928352373794 L 615.5 386.0225610691406 L 615.5 386.0225610691406 L 616.5 385.7904766034586 L 616.5 385.7904766034586 L 617.5 385.59667467102526 L 617.5 385.5966746710253 L 618.5 385.4412327900295 L 618.5 385.4412327900296 L 619.5 385.32421313515135 L 619.5 385.32421313515135 L 620.5 385.2456625126924 L 620.5 385.2456625126924 L 621.5 385.20561234185425 L 621.5 385.20561234185425 L 622.5 385.2 L 622.5 385.20407864217134 L 623.5 385.24106202710306 L 623.5 385.24106202710306 L 624.5 385.31654770378856 L 624.5 385.3165477037885 L 625.5 385.4305054789636 L 625.5 385.4305054789636 L 626.5 385.5828897710375 L 626.5 385.5828897710375 L 627.5 385.7736396283253 L 627.5 385.77363962832527 L 628.5 386.0026787534273 L 628.5 386.0026787534273 L 629.5 386.2699155337473 L 629.5 386.2699155337472 L 630.5 386.5752430781362 L 630.5 386.57524307813617 L 631.5 386.91853925964733 L 631.5 386.91853925964733 L 632.5 387.2996667643853 L 632.5 387.2996667643853 L 633.5 387.7184731464298 L 633.5 387.7184731464298 L 634.5 388.174790888812 L 634.5 388.174790888812 L 635.5 388.6684374705193 L 635.5 388.6684374705192 L 636.5 389.19921543950056 L 636.5 389.19921543950056 L 637.5 389.76691249164537 L 637.5 389.76691249164537 L 638.5 390.37130155570196 L 638.5 390.37130155570196 L 639.5 391.01214088410325 L 639.5 391.0121408841032 L 640.5 391.6891741496621 L 640.5 391.6891741496621 L 641.5 392.4021305480994 L 641.5 392.4021305480994 L 642.5 393.1507249063617 L 642.5 393.1507249063617 L 643.5 393.93465779668685 L 643.5 393.93465779668685 L 644.5 394.753615656371 L 644.5 394.753615656371 L 645.5 395.60727091318955 L 645.5 395.6072709131895 L 646.5 396.4952821164217 L 646.5 396.49528211642166 L 647.5 397.41729407342615 L 647.5 397.41729407342615 L 648.5 398.37293799171346 L 648.5 398.37293799171346 L 649.5 399.361831626458 L 649.5 399.361831626458 L 650.5 400.383579433391 L 650.5 400.383579433391 L 651.5 401.4377727270128 L 651.5 401.43777272701277 L 652.5 402.52398984406165 L 652.5 402.52398984406165 L 653.5 403.6417963121735 L 653.5 403.6417963121734 L 654.5 404.79074502366484 L 654.5 404.79074502366484 L 655.5 405.9703764143703 L 655.5 405.9703764143703 L 656.5 407.18021864746186 L 656.5 407.18021864746186 L 657.5 408.4197878021772 L 657.5 408.4197878021772 L 658.5 409.68858806738183 L 658.5 409.68858806738183 L 659.5 410.98611193988677 L 659.5 410.98611193988677 L 660.5 412.31184042744314 L 660.5 412.31184042744314 L 661.5 413.665243256332 L 661.5 413.665243256332 L 662.5 415.045779083467 L 662.5 415.045779083467 L 663.5 416.45289571292415 L 663.5 416.45289571292415 L 664.5 417.88603031681293 L 664.5 417.88603031681293 L 665.5 419.34460966040007 L 665.5 419.34460966040007 L 666.5 420.82805033139556 L 666.5 420.82805033139556 L 667.5 422.33575897330996 L 667.5 422.3357589733099 L 668.5 423.867132522789 L 668.5 423.86713252278895 L 669.5 425.4215584508309 L 669.5 425.42155845083084 L 670.5 426.9984150077899 L 670.5 426.9984150077899 L 671.5 428.5970714720677 L 671.5 428.5970714720677 L 672.5 430.2168884023937 L 672.5 430.21688840239364 L 673.5 431.857217893593 L 673.5 431.857217893593 L 674.5 433.5174038357399 L 674.5 433.5174038357399 L 675.5 435.19678217659316 L 675.5 435.19678217659316 L 676.5 436.8946811872077 L 676.5 436.8946811872077 L 677.5 438.61042173061776 L 677.5 438.61042173061776 L 678.5 440.34331753348215 L 678.5 440.34331753348215 L 679.5 442.0926754605847 L 679.5 442.0926754605847 L 680.5 443.857795792079 L 680.5 443.857795792079 L 681.5 445.63797250336717 L 681.5 445.6379725033671 L 682.5 447.4324935474999 L 682.5 447.43249354749986 L 683.5 449.24064113998634 L 683.5 449.2406411399863 L 684.5 451.0616920458977 L 684.5 451.0616920458977 L 685.5 452.89491786915204 L 685.5 452.894917869152 L 686.5 454.73958534386264 L 686.5 454.73958534386264 L 687.5 456.594956627635 L 687.5 456.594956627635 L 688.5 458.4602895966935 L 688.5 458.4602895966934 L 689.5 460.3348381427212 L 689.5 460.3348381427212 L 690.5 462.21785247129344 L 690.5 462.21785247129344 L 691.5 464.10857940178533 L 691.5 464.10857940178533 L 692.5 466.00626266863395 L 692.5 466.00626266863395 L 693.5 467.9101432238348 L 693.5 467.9101432238347 L 694.5 469.8194595405503 L 694.5 469.8194595405503 L 695.5 471.7334479177112 L 695.5 471.7334479177112 L 696.5 473.65134278548607 L 696.5 473.65134278548607 L 697.5 475.5723770114993 L 697.5 475.5723770114993 L 698.5 477.4957822076741 L 698.5 477.4957822076741 L 699.5 479.4207890375769 L 699.5 479.4207890375769 L 700.5 481.34662752414226 L 700.5 481.34662752414226 L 701.5 483.272527357653 L 701.5 483.272527357653 L 702.5 485.19771820385415 L 702.5 485.19771820385415 L 703.5 487.1214300120759 L 703.5 487.1214300120759 L 704.5 489.04289332324424 L 704.5 489.04289332324424 L 705.5 490.9613395776539 L 705.5 490.96133957765386 L 706.5 492.876001422382 L 706.5 492.876001422382 L 707.5 494.7861130182191 L 707.5 494.7861130182191 L 708.5 496.6909103459948 L 708.5 496.6909103459948 L 709.5 498.5896315121748 L 709.5 498.5896315121748 L 710.5 500.4815170536087 L 710.5 500.4815170536087 L 711.5 502.36581024130464 L 711.5 502.36581024130464 L 712.5 504.2417573831111 L 712.5 504.2417573831111 L 713.5 506.1086081251838 L 713.5 506.1086081251838 L 714.5 507.96561575211683 L 714.5 507.9656157521168 L 715.5 509.81203748561916 L 715.5 509.8120374856191 L 716.5 511.647134781616 L 716.5 511.647134781616 L 717.5 513.4701736256567 L 717.5 513.4701736256567 L 718.5 515.2804248265104 L 718.5 515.2804248265104 L 719.5 517.0771643078331 L 719.5 517.0771643078331 L 720.5 518.8596733977886 L 720.5 518.8596733977886 L 721.5 520.6272391165073 L 721.5 520.6272391165073 L 722.5 522.379154461269 L 722.5 522.379154461269 L 723.5 524.1147186892942 L 723.5 524.1147186892942 L 724.5 525.8332375980325 L 724.5 525.8332375980325 L 725.5 527.5340238028334 L 725.5 527.5340238028334 L 726.5 529.2163970118921 L 726.5 529.2163970118921 L 727.5 530.8796842983561 L 727.5 530.8796842983561 L 728.5 532.5232203694878 L 728.5 532.5232203694878 L 729.5 534.1463478327723 L 729.5 534.1463478327723 L 730.5 535.7484174588656 L 730.5 535.7484174588656 L 731.5 537.3287884412779 L 731.5 537.3287884412779 L 732.5 538.8868286526877 L 732.5 538.8868286526877 L 733.5 540.4219148977838 L 733.5 540.4219148977838 L 734.5 541.933433162536 L 734.5 541.933433162536 L 735.5 543.4207788597914 L 735.5 543.4207788597914 L 736.5 544.8833570711023 L 736.5 544.8833570711023 L 737.5 546.320582784685 L 737.5 546.3205827846849 L 738.5 547.7318811294167 L 738.5 547.7318811294166 L 739.5 549.1166876047765 L 739.5 549.1166876047765 L 740.5 550.4744483066384 L 740.5 550.4744483066384 L 741.5 551.8046201488245 L 741.5 551.8046201488245 L 742.5 553.1066710803336 L 742.5 553.1066710803336 L 743.5 554.3800802981534 L 743.5 554.3800802981534 L 744.5 555.6243384555755 L 744.5 555.6243384555755 L 745.5 556.8389478659266 L 745.5 556.8389478659266 L 746.5 558.0234227016373 L 746.5 558.0234227016373 L 747.5 559.177289188566 L 747.5 559.177289188566 L 748.5 560.3000857955027 L 748.5 560.3000857955027 L 749.5 561.391363418775 L 749.5 561.391363418775 L 750.5 562.4506855618838 L 750.5 562.4506855618837 L 751.5 563.4776285100958 L 751.5 563.4776285100958 L 752.5 564.4717814999243 L 752.5 564.4717814999243 L 753.5 565.4327468834285 L 753.5 565.4327468834285 L 754.5 566.3601402872678 L 754.5 566.3601402872678 L 755.5 567.2535907664454 L 755.5 567.2535907664454 L 756.5 568.1127409526827 L 756.5 568.1127409526825 L 757.5 568.9372471973599 L 757.5 568.9372471973597 L 758.5 569.7267797089725 L 758.5 569.7267797089725 L 759.5 570.481022685043 L 759.5 570.481022685043 L 760.5 571.1996744384372 L 760.5 571.1996744384372 L 761.5 571.8824475180359 L 761.5 571.8824475180359 L 762.5 572.5290688237105 L 762.5 572.5290688237104 L 763.5 573.1392797155604 L 763.5 573.1392797155604 L 764.5 573.7128361173648 L 764.5 573.7128361173648 L 765.5 574.2495086142104 L 765.5 574.2495086142103 L 766.5 574.7490825442538 L 766.5 574.7490825442538 L 767.5 575.2113580845843 L 767.5 575.2113580845842 L 768.5 575.6361503311489 L 768.5 575.6361503311488 L 769.5 576.023289372713 L 769.5 576.023289372713 L 770.5 576.3726203588217 L 770.5 576.3726203588217 L 771.5 576.6840035617383 L 771.5 576.6840035617382 L 772.5 576.9573144323333 L 772.5 576.9573144323333 L 773.5 577.1924436499027 L 773.5 577.1924436499027 L 774.5 577.3892971658943 L 774.5 577.3892971658942 L 775.5 577.5477962415264 L 775.5 577.5477962415264 L 776.5 577.6678774792822 L 776.5 577.6678774792821 L 777.5 577.7494928482674 L 777.5 577.7494928482674 L 778.5 577.792609703423 L 778.5 577.7926097034228 L 779.5 577.8 L 779.5 577.7972107985813 L 780.5 577.763294293366 L 780.5 577.763294293366 L 781.5 577.6908737539269 L 781.5 577.6908737539269 L 782.5 577.579978147514 L 782.5 577.579978147514 L 783.5 577.4306518308914 L 783.5 577.4306518308915 L 784.5 577.2429545325948 L 784.5 577.2429545325948 L 785.5 577.0169613290409 L 785.5 577.0169613290409 L 786.5 576.7527626144978 L 786.5 576.7527626144978 L 787.5 576.4504640649288 L 787.5 576.4504640649288 L 788.5 576.1101865957232 L 788.5 576.1101865957232 L 789.5 575.7320663133316 L 789.5 575.7320663133316 L 790.5 575.3162544608255 L 790.5 575.3162544608256 L 791.5 574.8629173574018 L 791.5 574.8629173574018 L 792.5 574.3722363318574 L 792.5 574.3722363318574 L 793.5 573.8444076500602 L 793.5 573.8444076500602 L 794.5 573.2796424364454 L 794.5 573.2796424364454 L 795.5 572.6781665895683 L 795.5 572.6781665895683 L 796.5 572.0402206917479 L 796.5 572.0402206917479 L 797.5 571.3660599128377 L 797.5 571.3660599128378 L 798.5 570.6559539081607 L 798.5 570.6559539081607 L 799.5 569.9101867106505 L 799.5 569.9101867106505 L 800.5 569.1290566172428 L 800.5 569.1290566172428 L 801.5 568.3128760695599 L 801.5 568.31287606956 L 802.5 567.461971528939 L 802.5 567.461971528939 L 803.5 566.5766833458508 L 803.5 566.5766833458508 L 804.5 565.6573656237649 L 804.5 565.6573656237649 L 805.5 564.7043860775127 L 805.5 564.7043860775127 L 806.5 563.7181258862065 L 806.5 563.7181258862066 L 807.5 562.6989795407729 L 807.5 562.6989795407729 L 808.5 561.6473546861617 L 808.5 561.6473546861617 L 809.5 560.5636719582931 L 809.5 560.5636719582932 L 810.5 559.4483648158094 L 810.5 559.4483648158096 L 811.5 558.3018793666971 L 811.5 558.3018793666972 L 812.5 557.1246741898497 L 812.5 557.1246741898497 L 813.5 555.9172201516416 L 813.5 555.9172201516416 L 814.5 554.6800002175894 L 814.5 554.6800002175894 L 815.5 553.4135092591704 L 815.5 553.4135092591704 L 816.5 552.1182538558818 L 816.5 552.1182538558818 L 817.5 550.7947520926149 L 817.5 550.7947520926149 L 818.5 549.4435333524287 L 818.5 549.4435333524287 L 819.5 548.0651381048033 L 819.5 548.0651381048033 L 820.5 546.6601176894593 L 820.5 546.6601176894594 L 821.5 545.2290340958295 L 821.5 545.2290340958295 L 822.5 543.7724597382705 L 822.5 543.7724597382705 L 823.5 542.2909772271046 L 823.5 542.2909772271046 L 824.5 540.7851791355833 L 824.5 540.7851791355833 L 825.5 539.2556677628664 L 825.5 539.2556677628664 L 826.5 537.7030548931097 L 826.5 537.7030548931097 L 827.5 536.1279615507598 L 827.5 536.1279615507598 L 828.5 534.5310177521526 L 828.5 534.5310177521526 L 829.5 532.9128622535154 L 829.5 532.9128622535154 L 830.5 531.2741422954724 L 830.5 531.2741422954724 L 831.5 529.6155133441578 L 831.5 529.6155133441578 L 832.5 527.9376388290369 L 832.5 527.9376388290369 L 833.5 526.2411898775449 L 833.5 526.2411898775449 L 834.5 524.526845046643 L 834.5 524.526845046643 L 835.5 522.795290051406 L 835.5 522.7952900514061 L 836.5 521.0472174907451 L 836.5 521.0472174907451 L 837.5 519.2833265703771 L 837.5 519.2833265703771 L 838.5 517.5043228231518 L 838.5 517.5043228231518 L 839.5 515.7109178268486 L 839.5 515.7109178268486 L 840.5 513.903828919554 L 840.5 513.903828919554 L 841.5 512.083778912737 L 841.5 512.083778912737 L 842.5 510.2514958021332 L 842.5 510.2514958021332 L 843.5 508.40771247655664 L 843.5 508.40771247655664 L 844.5 506.55316642475424 L 844.5 506.55316642475424 L 845.5 504.6885994404196 L 845.5 504.6885994404196 L 846.5 502.8147573254861 L 846.5 502.8147573254861 L 847.5 500.93238959181525 L 847.5 500.9323895918153 L 848.5 499.0422491614029 L 848.5 499.0422491614029 L 849.5 497.1450920652194 L 849.5 497.14509206521944 L 850.5 495.24167714080835 L 850.5 495.24167714080835 L 851.5 493.3327657287608 L 851.5 493.3327657287608 L 852.5 491.41912136818996 L 852.5 491.41912136818996 L 853.5 489.50150949132495 L 853.5 489.50150949132495 L 854.5 487.5806971173489 L 854.5 487.5806971173489 L 855.5 485.6574525456006 L 855.5 485.6574525456006 L 856.5 483.7325450482662 L 856.5 483.7325450482662 L 857.5 481.8067445626793 L 857.5 481.8067445626793 L 858.5 479.8808213833572 L 858.5 479.8808213833572 L 859.5 477.95554585389294 L 859.5 477.95554585389294 L 860.5 476.0316880588284 L 860.5 476.0316880588285 L 861.5 474.1100175156305 L 861.5 474.1100175156305 L 862.5 472.1913028668946 L 862.5 472.1913028668946 L 863.5 470.2763115728976 L 863.5 470.2763115728976 L 864.5 468.3658096046242 L 864.5 468.36580960462425 L 865.5 466.4605611373888 L 865.5 466.4605611373888 L 866.5 464.5613282451753 L 866.5 464.5613282451753 L 867.5 462.66887059581774 L 867.5 462.66887059581774 L 868.5 460.7839451471434 L 868.5 460.7839451471434 L 869.5 458.9073058442 L 869.5 458.9073058442 L 870.5 457.0397033176868 L 870.5 457.0397033176869 L 871.5 455.1818845837138 L 871.5 455.1818845837138 L 872.5 453.3345927450036 L 872.5 453.33459274500365 L 873.5 451.49856669366176 L 873.5 451.49856669366176 L 874.5 449.67454081562863 L 874.5 449.67454081562863 L 875.5 447.8632446969355 L 875.5 447.8632446969355 L 876.5 446.0654028318794 L 876.5 446.0654028318794 L 877.5 444.2817343332357 L 877.5 444.2817343332357 L 878.5 442.51295264462163 L 878.5 442.51295264462163 L 879.5 440.7597652551295 L 879.5 440.7597652551295 L 880.5 439.0228734163393 L 880.5 439.0228734163393 L 881.5 437.3029718618285 L 881.5 437.3029718618285 L 882.5 435.60074852928705 L 882.5 435.60074852928705 L 883.5 433.91688428535207 L 883.5 433.9168842853521 L 884.5 432.25205265326986 L 884.5 432.25205265326986 L 885.5 430.6069195434958 L 885.5 430.60691954349585 L 886.5 428.98214298733905 L 886.5 428.98214298733905 L 887.5 427.3783728737585 L 887.5 427.3783728737585 L 888.5 425.7962506894164 L 888.5 425.79625068941647 L 889.5 424.2364092620918 L 889.5 424.2364092620918 L 890.5 422.699472507558 L 890.5 422.6994725075581 L 891.5 421.1860551800246 L 891.5 421.1860551800246 L 892.5 419.696762626244 L 892.5 419.696762626244 L 893.5 418.2321905433806 L 893.5 418.2321905433807 L 894.5 416.7929247407405 L 894.5 416.7929247407405 L 895.5 415.37954090545446 L 895.5 415.37954090545446 L 896.5 413.99260437221193 L 896.5 413.992604372212 L 897.5 412.6326698971339 L 897.5 412.6326698971339 L 898.5 411.30028143587816 L 898.5 411.3002814358782 L 899.5 409.9959719260643 L 899.5 409.9959719260643 L 900.5 408.7202630741058 L 900.5 408.7202630741058 L 901.5 407.47366514653396 L 901.5 407.47366514653396 L 902.5 406.25667676589893 L 902.5 406.256676765899 L 903.5 405.0697847113266 L 903.5 405.06978471132663 L 904.5 403.9134637238138 L 904.5 403.91346372381383 L 905.5 402.7881763163381 L 905.5 402.7881763163381 L 906.5 401.69437258885887 L 906.5 401.6943725888589 L 907.5 400.63249004828333 L 907.5 400.63249004828333 L 908.5 399.6029534334693 L 908.5 399.6029534334693 L 909.5 398.6061745453358 L 909.5 398.6061745453359 L 910.5 397.642552082148 L 910.5 397.642552082148 L 911.5 396.71247148004284 L 911.5 396.7124714800429 L 912.5 395.8163047588604 L 912.5 395.8163047588604 L 913.5 394.95441037334035 L 913.5 394.9544103733404 L 914.5 394.1271330697452 L 914.5 394.12713306974524 L 915.5 393.33480374796613 L 915.5 393.33480374796613 L 916.5 392.57773932916757 L 916.5 392.57773932916757 L 917.5 391.856242629023 L 917.5 391.85624262902303 L 918.5 391.1706022365927 L 918.5 391.1706022365927 L 919.5 390.5210923988918 L 919.5 390.5210923988918 L 920.5 389.90797291119543 L 920.5 389.90797291119543 L 921.5 389.3314890131238 L 921.5 389.33148901312387 L 922.5 388.7918712905499 L 922.5 388.7918712905499 L 923.5 388.28933558336786 L 923.5 388.2893355833679 L 924.5 387.8240828991602 L 924.5 387.8240828991602 L 925.5 387.3962993327973 L 925.5 387.3962993327973 L 926.5 387.00615599200194 L 926.5 387.00615599200194 L 927.5 386.6538089289087 L 927.5 386.6538089289087 L 928.5 386.3393990776449 L 928.5 386.3393990776449 L 929.5 386.0630521979589 L 929.5 386.0630521979589 L 930.5 385.8248788249181 L 930.5 385.8248788249181 L 931.5 385.62497422469596 L 931.5 385.624974224696 L 932.5 385.4634183564674 L 932.5 385.4634183564674 L 933.5 385.34027584042553 L 933.5 385.34027584042553 L 934.5 385.255595931935 L 934.5 385.255595931935 L 935.5 385.20941250183 L 935.5 385.20941250183 L 936.5 385.2 L 936.5 385.20174402286693 L 937.5 385.23259356233507 L 937.5 385.23259356233507 L 938.5 385.30194878082995 L 938.5 385.30194878082995 L 939.5 385.40978193718894 L 939.5 385.40978193718894 L 940.5 385.55604989958726 L 940.5 385.5560498995872 L 941.5 385.7406941627901 L 941.5 385.7406941627901 L 942.5 385.9636408715541 L 942.5 385.96364087155405 L 943.5 386.2248008501683 L 943.5 386.2248008501683 L 944.5 386.5240696381235 L 944.5 386.5240696381235 L 945.5 386.8613275318945 L 945.5 386.86132753189446 L 946.5 387.23643963282063 L 946.5 387.2364396328206 L 947.5 387.6492559010629 L 947.5 387.6492559010629 L 948.5 388.0996112156182 L 948.5 388.0996112156182 L 949.5 388.5873254403653 L 949.5 388.5873254403653 L 950.5 389.11220349611716 L 950.5 389.1122034961171 L 951.5 389.67403543864964 L 951.5 389.67403543864964 L 952.5 390.27259654267687 L 952.5 390.27259654267687 L 953.5 390.9076473917379 L 953.5 390.90764739173784 L 954.5 391.5789339739602 L 954.5 391.57893397396015 L 955.5 392.2861877836614 L 955.5 392.2861877836614 L 956.5 393.0291259287475 L 956.5 393.0291259287474 L 957.5 393.8074512438662 L 957.5 393.8074512438662 L 958.5 394.6208524092689 L 958.5 394.6208524092689 L 959.5 395.46900407533474 L 959.5 395.4690040753347 L 960.5 396.3515669927057 L 960.5 396.3515669927057 L 961.5 397.26818814798247 L 961.5 397.26818814798247 L 962.5 398.2185009049241 L 962.5 398.21850090492404 L 963.5 399.2021251510985 L 963.5 399.2021251510985 L 964.5 400.2186674499222 L 964.5 400.2186674499221 L 965.5 401.2677211980293 L 965.5 401.2677211980293 L 966.5 402.34886678790764 L 966.5 402.34886678790764 L 967.5 403.4616717757365 L 967.5 403.4616717757364 L 968.5 404.6056910543578 L 968.5 404.6056910543578 L 969.5 405.7804670313137 L 969.5 405.7804670313137 L 970.5 406.98552981187675 L 970.5 406.98552981187675 L 971.5 408.220397387002 L 971.5 408.2203973870019 L 972.5 409.484575826124 L 972.5 409.484575826124 L 973.5 410.7775594747228 L 973.5 410.7775594747228 L 974.5 412.0988311565785 L 974.5 412.09883115657846 L 975.5 413.4478623806349 L 975.5 413.44786238063483 L 976.5 414.82411355238924 L 976.5 414.82411355238924 L 977.5 416.2270341897227 L 977.5 416.22703418972264 L 978.5 417.65606314308576 L 978.5 417.65606314308576 L 979.5 419.11062881995036 L 979.5 419.1106288199503 L 980.5 420.5901494134398 L 980.5 420.59014941343975 L 981.5 422.0940331350433 L 981.5 422.0940331350433 L 982.5 423.62167845132393 L 982.5 423.62167845132393 L 983.5 425.17247432452325 L 983.5 425.17247432452325 L 984.5 426.7458004569691 L 984.5 426.74580045696905 L 985.5 428.34102753918586 L 985.5 428.34102753918586 L 986.5 429.9575175016103 L 986.5 429.95751750161025 L 987.5 431.59462376980997 L 987.5 431.59462376980997 L 988.5 433.2516915231056 L 988.5 433.2516915231056 L 989.5 434.92805795648974 L 989.5 434.92805795648974 L 990.5 436.62305254574056 L 990.5 436.6230525457405 L 991.5 438.33599731562157 L 991.5 438.3359973156215 L 992.5 440.06620711106393 L 992.5 440.06620711106393 L 993.5 441.81298987121875 L 993.5 441.8129898712187 L 994.5 443.5756469062719 L 994.5 443.5756469062719 L 995.5 445.35347317691145 L 995.5 445.35347317691145 L 996.5 447.1457575763328 L 996.5 447.1457575763328 L 997.5 448.9517832146732 L 997.5 448.9517832146732 L 998.5 450.77082770575726 L 998.5 450.77082770575726 L 999.5 452.6021634560424 L 999.5 452.6021634560423 L 1000.5 454.4450579556455 L 1000.5 454.4450579556455 L 1001.5 456.29877407133864 L 1001.5 456.29877407133864 L 1002.5 458.1625703413914 L 1002.5 458.1625703413914 L 1003.5 460.0357012721462 L 1003.5 460.0357012721462 L 1004.5 461.9174176362051 L 1004.5 461.9174176362051 L 1005.5 463.80696677211193 L 1005.5 463.80696677211193 L 1006.5 465.70359288540595 L 1006.5 465.70359288540595 L 1007.5 467.60653735093 L 1007.5 467.60653735093 L 1008.5 469.51503901626984 L 1008.5 469.51503901626984 L 1009.5 471.4283345062058 L 1009.5 471.4283345062058 L 1010.5 473.3456585280522 L 1010.5 473.3456585280522 L 1011.5 475.26624417776446 L 1011.5 475.2662441777644 L 1012.5 477.18932324668975 L 1012.5 477.18932324668975 L 1013.5 479.1141265288415 L 1013.5 479.1141265288415 L 1014.5 481.03988412857046 L 1014.5 481.03988412857046 L 1015.5 482.96582576851324 L 1015.5 482.96582576851324 L 1016.5 484.8911810976928 L 1016.5 484.8911810976928 L 1017.5 486.8151799996483 L 1017.5 486.8151799996483 L 1018.5 488.7370529004721 L 1018.5 488.7370529004721 L 1019.5 490.65603107662844 L 1019.5 490.65603107662844 L 1020.5 492.57134696243304 L 1020.5 492.57134696243304 L 1021.5 494.48223445706856 L 1021.5 494.4822344570685 L 1022.5 496.38792923101533 L 1022.5 496.38792923101533 L 1023.5 498.2876690317728 L 1023.5 498.2876690317728 L 1024.5 500.18069398875036 L 1024.5 500.1806939887503 L 1025.5 502.0662469172048 L 1025.5 502.0662469172048 L 1026.5 503.9435736211054 L 1026.5 503.9435736211054 L 1027.5 505.8119231948011 L 1027.5 505.8119231948011 L 1028.5 507.6705483233738 L 1028.5 507.6705483233738 L 1029.5 509.5187055815529 L 1029.5 509.5187055815529 L 1030.5 511.3556557310772 L 1030.5 511.3556557310772 L 1031.5 513.1806640163792 L 1031.5 513.1806640163792 L 1032.5 514.9930004584779 L 1032.5 514.9930004584779 L 1033.5 516.7919401469605 L 1033.5 516.7919401469605 L 1034.5 518.5767635299374 L 1034.5 518.5767635299374 L 1035.5 520.3467567018524 L 1035.5 520.3467567018524 L 1036.5 522.1012116890365 L 1036.5 522.1012116890365 L 1037.5 523.8394267328875 L 1037.5 523.8394267328875 L 1038.5 525.5607065705633 L 1038.5 525.5607065705633 L 1039.5 527.2643627130792 L 1039.5 527.2643627130792 L 1040.5 528.9497137206931 L 1040.5 528.9497137206931 L 1041.5 530.6160854754735 L 1041.5 530.6160854754734 L 1042.5 532.2628114509358 L 1042.5 532.2628114509357 L 1043.5 533.8892329786462 L 1043.5 533.8892329786462 L 1044.5 535.494699511679 L 1044.5 535.494699511679 L 1045.5 537.078568884827 L 1045.5 537.078568884827 L 1046.5 538.6402075714585 L 1046.5 538.6402075714585 L 1047.5 540.1789909369209 L 1047.5 540.1789909369207 L 1048.5 541.6943034883844 L 1048.5 541.6943034883844 L 1049.5 543.1855391210329 L 1049.5 543.1855391210329 L 1050.5 544.6521013604956 L 1050.5 544.6521013604956 L 1051.5 546.093403601431 L 1051.5 546.093403601431 L 1052.5 547.5088693421596 L 1052.5 547.5088693421596 L 1053.5 548.8979324152582 L 1053.5 548.8979324152581 L 1054.5 550.2600372140175 L 1054.5 550.2600372140175 L 1055.5 551.5946389146795 L 1055.5 551.5946389146795 L 1056.5 552.9012036943584 L 1056.5 552.9012036943584 L 1057.5 554.1792089445629 L 1057.5 554.1792089445629 L 1058.5 555.4281434802328 L 1058.5 555.4281434802328 L 1059.5 556.6475077442061 L 1059.5 556.6475077442061 L 1060.5 557.8368140070351 L 1060.5 557.8368140070351 L 1061.5 558.9955865620718 L 1061.5 558.9955865620718 L 1062.5 560.1233619157446 L 1062.5 560.1233619157445 L 1063.5 561.2196889729483 L 1063.5 561.2196889729483 L 1064.5 562.284129217478 L 1064.5 562.284129217478 L 1065.5 563.3162568874282 L 1065.5 563.316256887428 L 1066.5 564.3156591454922 L 1066.5 564.3156591454922 L 1067.5 565.281936244092 L 1067.5 565.281936244092 L 1068.5 566.2147016852717 L 1068.5 566.2147016852717 L 1069.5 567.1135823752918 L 1069.5 567.1135823752917 L 1070.5 567.9782187738609 L 1070.5 567.9782187738608 L 1071.5 568.808265037948 L 1071.5 568.8082650379479 L 1072.5 569.6033891601145 L 1072.5 569.6033891601145 L 1073.5 570.3632731013132 L 1073.5 570.3632731013132 L 1074.5 571.0876129180994 L 1074.5 571.0876129180994 L 1075.5 571.7761188842037 L 1075.5 571.7761188842037 L 1076.5 572.42851560642 L 1076.5 572.4285156064199 L 1077.5 573.0445421347576 L 1077.5 573.0445421347576 L 1078.5 573.623952066819 L 1078.5 573.623952066819 L 1079.5 574.1665136463567 L 1079.5 574.1665136463567 L 1080.5 574.672009855973 L 1080.5 574.672009855973 L 1081.5 575.1402385039237 L 1081.5 575.1402385039237 L 1082.5 575.5710123049927 L 1082.5 575.5710123049926 L 1083.5 575.9641589554031 L 1083.5 575.964158955403 L 1084.5 576.3195212017367 L 1084.5 576.3195212017367 L 1085.5 576.636956903833 L 1085.5 576.636956903833 L 1086.5 576.9163390916437 L 1086.5 576.9163390916436 L 1087.5 577.1575560160186" stroke-opacity="0.8" stroke-linecap="round" stroke-linejoin="round" stroke-miterlimit="10" stroke-width="5"/><g transform="scale(27,27)"><g transform="translate(3.8518518518518516,15.712962962962964)"><path fill="rgb(46,125,50)" stroke="none" paint-order="stroke fill markers" d=" M 0.20800000000000002 -0.194 L 0.20800000000000002 -0.194 Q 0.122 -0.211 0.095 -0.227 Q 0.085 -0.232 0.076 -0.24 Q 0.033 -0.275 0.033 -0.325 Q 0.033 -0.395 0.095 -0.427 Q 0.134 -0.448 0.193 -0.448 Q 0.249 -0.448 0.28700000000000003 -0.42 Q 0.298 -0.429 0.304 -0.436 Q 0.317 -0.448 0.324 -0.448 Q 0.334 -0.439 0.335 -0.424 L 0.335 -0.323 Q 0.335 -0.302 0.329 -0.3 L 0.328 -0.3 L 0.327 -0.299 L 0.322 -0.299 Q 0.311 -0.299 0.31 -0.308 Q 0.303 -0.40900000000000003 0.227 -0.426 Q 0.211 -0.429 0.193 -0.429 Q 0.099 -0.429 0.083 -0.371 Q 0.081 -0.362 0.081 -0.353 Q 0.081 -0.302 0.158 -0.281 Q 0.17300000000000001 -0.277 0.20400000000000001 -0.271 Q 0.276 -0.257 0.307 -0.232 Q 0.313 -0.228 0.318 -0.223 Q 0.36 -0.181 0.36 -0.128 Q 0.36 -0.043000000000000003 0.29 -0.008 Q 0.252 0.011 0.199 0.011 Q 0.134 0.011 0.089 -0.032 L 0.069 -0.009000000000000001 Q 0.049 0.011 0.044 0.011 Q 0.034 0.002 0.033 -0.013000000000000001 L 0.033 -0.145 Q 0.033 -0.167 0.04 -0.169 L 0.04 -0.169 L 0.041 -0.17 L 0.046 -0.17 Q 0.056 -0.17 0.059000000000000004 -0.159 Q 0.059000000000000004 -0.157 0.06 -0.153 Q 0.08600000000000001 -0.037 0.159 -0.016 Q 0.177 -0.011 0.199 -0.011 Q 0.289 -0.011 0.308 -0.074 Q 0.312 -0.08700000000000001 0.312 -0.10200000000000001 Q 0.312 -0.17500000000000002 0.20800000000000002 -0.194 Z"/></g><g transform="translate(4.245851851851851,15.712962962962964)"><path fill="rgb(46,125,50)" stroke="none" paint-order="stroke fill markers" d=" M 0.177 -0.442 L 0.177 -0.442 L 0.177 -0.075 Q 0.177 -0.044 0.189 -0.037 L 0.189 -0.037 Q 0.201 -0.031 0.247 -0.031 L 0.247 0 Q 0.145 -0.003 0.14300000000000002 -0.003 Q 0.129 -0.003 0.033 0 L 0.033 -0.031 Q 0.092 -0.031 0.10200000000000001 -0.04 L 0.10400000000000001 -0.042 Q 0.111 -0.05 0.111 -0.076 L 0.111 -0.34500000000000003 Q 0.111 -0.385 0.095 -0.393 L 0.094 -0.393 L 0.094 -0.393 L 0.093 -0.394 L 0.093 -0.394 Q 0.08 -0.4 0.037 -0.4 L 0.037 -0.431 L 0.177 -0.442 M 0.181 -0.616 Q 0.181 -0.579 0.148 -0.5670000000000001 Q 0.138 -0.5630000000000001 0.128 -0.5630000000000001 Q 0.093 -0.5630000000000001 0.079 -0.595 L 0.079 -0.596 Q 0.075 -0.606 0.075 -0.616 Q 0.075 -0.647 0.10300000000000001 -0.662 Q 0.114 -0.669 0.128 -0.669 Q 0.162 -0.669 0.176 -0.639 Q 0.181 -0.628 0.181 -0.616 Z"/></g><g transform="translate(4.523851851851852,15.712962962962964)"><path fill="rgb(46,125,50)" stroke="none" paint-order="stroke fill markers" d=" M 0.11 -0.34400000000000003 Q 0.11 -0.383 0.095 -0.392 Q 0.083 -0.399 0.052000000000000005 -0.4 L 0.032 -0.4 L 0.032 -0.431 L 0.17300000000000001 -0.442 L 0.17300000000000001 -0.337 Q 0.22 -0.442 0.321 -0.442 Q 0.396 -0.442 0.426 -0.405 Q 0.453 -0.374 0.456 -0.32 Q 0.457 -0.301 0.457 -0.252 L 0.457 -0.061 Q 0.458 -0.037 0.486 -0.033 Q 0.498 -0.031 0.535 -0.031 L 0.535 0 Q 0.433 -0.003 0.423 -0.003 Q 0.41500000000000004 -0.003 0.31 0 L 0.31 -0.031 Q 0.369 -0.031 0.379 -0.04 L 0.381 -0.042 Q 0.388 -0.05 0.388 -0.076 L 0.388 -0.309 Q 0.388 -0.40800000000000003 0.331 -0.418 Q 0.323 -0.42 0.314 -0.42 Q 0.253 -0.42 0.212 -0.367 Q 0.179 -0.324 0.179 -0.26 L 0.179 -0.076 Q 0.179 -0.042 0.195 -0.036000000000000004 Q 0.20600000000000002 -0.031 0.257 -0.031 L 0.257 0 Q 0.155 -0.003 0.145 -0.003 Q 0.137 -0.003 0.032 0 L 0.032 -0.031 Q 0.091 -0.031 0.101 -0.04 L 0.10300000000000001 -0.042 Q 0.11 -0.05 0.11 -0.076 L 0.11 -0.34400000000000003 Z"/></g><g transform="translate(5.079851851851852,15.712962962962964)"><path fill="rgb(46,125,50)" stroke="none" paint-order="stroke fill markers" d=" M 0.331 0.24 L 0.331 0.24 Q 0.331 0.25 0.321 0.25 Q 0.309 0.25 0.268 0.209 Q 0.20600000000000002 0.147 0.165 0.062 Q 0.099 -0.074 0.099 -0.25 Q 0.099 -0.419 0.162 -0.555 Q 0.214 -0.666 0.294 -0.733 Q 0.315 -0.75 0.321 -0.75 Q 0.331 -0.75 0.331 -0.74 Q 0.331 -0.735 0.318 -0.723 Q 0.157 -0.559 0.157 -0.25 Q 0.157 0.058 0.314 0.218 Q 0.331 0.23500000000000001 0.331 0.24 Z"/></g><g transform="translate(5.468851851851852,15.712962962962964)"><path fill="rgb(46,125,50)" stroke="none" paint-order="stroke fill markers" d=" M 0.334 -0.302 L 0.3 -0.165 Q 0.28300000000000003 -0.097 0.28300000000000003 -0.077 Q 0.28300000000000003 -0.025 0.32 -0.014 Q 0.328 -0.011 0.338 -0.011 Q 0.388 -0.011 0.429 -0.061 Q 0.456 -0.093 0.47100000000000003 -0.14200000000000002 Q 0.47400000000000003 -0.153 0.484 -0.153 Q 0.496 -0.153 0.496 -0.14300000000000002 Q 0.496 -0.11800000000000001 0.465 -0.07100000000000001 Q 0.41100000000000003 0.011 0.336 0.011 Q 0.268 0.011 0.23700000000000002 -0.046 Q 0.231 -0.055 0.228 -0.065 Q 0.20400000000000001 -0.017 0.162 0.002 Q 0.14300000000000002 0.011 0.123 0.011 Q 0.063 0.011 0.039 -0.024 Q 0.029 -0.037 0.029 -0.055 Q 0.029 -0.092 0.061 -0.107 Q 0.07200000000000001 -0.113 0.084 -0.113 Q 0.114 -0.113 0.12 -0.088 Q 0.121 -0.083 0.121 -0.078 Q 0.121 -0.044 0.08700000000000001 -0.028 Q 0.081 -0.025 0.074 -0.024 Q 0.095 -0.011 0.124 -0.011 Q 0.177 -0.011 0.20800000000000002 -0.082 Q 0.214 -0.097 0.219 -0.115 Q 0.273 -0.319 0.273 -0.353 Q 0.267 -0.41500000000000004 0.219 -0.42 Q 0.167 -0.42 0.124 -0.367 L 0.124 -0.366 Q 0.124 -0.365 0.123 -0.365 Q 0.108 -0.34500000000000003 0.096 -0.319 Q 0.091 -0.307 0.08700000000000001 -0.295 L 0.085 -0.289 Q 0.083 -0.278 0.07200000000000001 -0.278 Q 0.06 -0.278 0.06 -0.28800000000000003 Q 0.06 -0.313 0.092 -0.36 Q 0.146 -0.442 0.221 -0.442 Q 0.298 -0.442 0.329 -0.366 Q 0.361 -0.428 0.41400000000000003 -0.44 Q 0.424 -0.442 0.434 -0.442 Q 0.493 -0.442 0.517 -0.40900000000000003 Q 0.527 -0.395 0.527 -0.376 Q 0.527 -0.335 0.49 -0.321 Q 0.481 -0.318 0.47300000000000003 -0.318 Q 0.442 -0.318 0.436 -0.34500000000000003 Q 0.435 -0.34900000000000003 0.435 -0.353 Q 0.435 -0.383 0.464 -0.4 Q 0.47300000000000003 -0.405 0.483 -0.40700000000000003 Q 0.462 -0.42 0.433 -0.42 Q 0.365 -0.42 0.337 -0.314 Q 0.335 -0.308 0.334 -0.302 Z"/></g><g transform="translate(6.040851851851852,15.712962962962964)"><path fill="rgb(46,125,50)" stroke="none" paint-order="stroke fill markers" d=" M 0.289 -0.25 L 0.289 -0.25 Q 0.289 -0.081 0.226 0.055 Q 0.17400000000000002 0.166 0.094 0.233 Q 0.073 0.25 0.067 0.25 Q 0.057 0.25 0.057 0.24 Q 0.057 0.23500000000000001 0.07 0.223 Q 0.231 0.059000000000000004 0.231 -0.25 Q 0.231 -0.555 0.081 -0.712 L 0.076 -0.717 Q 0.057 -0.735 0.057 -0.74 Q 0.057 -0.75 0.067 -0.75 Q 0.079 -0.75 0.12 -0.709 Q 0.182 -0.647 0.223 -0.562 Q 0.289 -0.426 0.289 -0.25 Z"/></g></g></g></g></svg>