<svg version="1.1" xmlns="http://www.w3.org/2000/svg" xmlns:xlink="http://www.w3.org/1999/xlink" width="1087" height="963"><defs><clipPath id="PBTvkHISUOcC"><path fill="none" stroke="none" d=" M 0 0 L 1087 0 L 1087 963 L 0 963 L 0 0 Z"/></clipPath></defs><g transform="scale(1,1)" clip-path="url(#PBTvkHISUOcC)"><g><rect fill="rgb(255,255,255)" stroke="none" x="0" y="0" width="1087" height="963" fill-opacity="1"/><path fill="none" stroke="rgb(192,192,192)" paint-order="fill stroke markers" d=" M 72.5 0.5 L 72.5 963.5 M 72.5 0.5 L 72.5 963.5 M 150.5 0.5 L 150.5 963.5 M 229.5 0.5 L 229.5 963.5 M 307.5 0.5 L 307.5 963.5 M 386.5 0.5 L 386.5 963.5 M 464.5 0.5 L 464.5 963.5 M 622.5 0.5 L 622.5 963.5 M 700.5 0.5 L 700.5 963.5 M 779.5 0.5 L 779.5 963.5 M 857.5 0.5 L 857.5 963.5 M 936.5 0.5 L 936.5 963.5 M 1014.5 0.5 L 1014.5 963.5" stroke-opacity="1" stroke-linecap="round" stroke-linejoin="round" stroke-miterlimit="10"/><path fill="none" stroke="rgb(192,192,192)" paint-order="fill stroke markers" d=" M 9.5 0.5 L 9.5 963.5 M 25.5 0.5 L 25.5 963.5 M 40.5 0.5 L 40.5 963.5 M 56.5 0.5 L 56.5 963.5 M 87.5 0.5 L 87.5 963.5 M 103.5 0.5 L 103.5 963.5 M 119.5 0.5 L 119.5 963.5 M 135.5 0.5 L 135.5 963.5 M 166.5 0.5 L 166.5 963.5 M 182.5 0.5 L 182.5 963.5 M 197.5 0.5 L 197.5 963.5 M 213.5 0.5 L 213.5 963.5 M 245.5 0.5 L 245.5 963.5 M 260.5 0.5 L 260.5 963.5 M 276.5 0.5 L 276.5 963.5 M 292.5 0.5 L 292.5 963.5 M 323.5 0.5 L 323.5 963.5 M 339.5 0.5 L 339.5 963.5 M 355.5 0.5 L 355.5 963.5 M 370.5 0.5 L 370.5 963.5 M 402.5 0.5 L 402.5 963.5 M 417.5 0.5 L 417.5 963.5 M 433.5 0.5 L 433.5 963.5 M 449.5 0.5 L 449.5 963.5 M 480.5 0.5 L 480.5 963.5 M 496.5 0.5 L 496.5 963.5 M 512.5 0.5 L 512.5 963.5 M 527.5 0.5 L 527.5 963.5 M 559.5 0.5 L 559.5 963.5 M 574.5 0.5 L 574.5 963.5 M 590.5 0.5 L 590.5 963.5 M 606.5 0.5 L 606.5 963.5 M 637.5 0.5 L 637.5 963.5 M 653.5 0.5 L 653.5 963.5 M 669.5 0.5 L 669.5 963.5 M 684.5 0.5 L 684.5 963.5 M 716.5 0.5 L 716.5 963.5 M 731.5 0.5 L 731.5 963.5 M 747.5 0.5 L 747.5 963.5 M 763.5 0.5 L 763.5 963.5 M 794.5 0.5 L 794.5 963.5 M 810.5 0.5 L 810.5 963.5 M 826.5 0.5 L 826.5 963.5 M 841.5 0.5 L 841.5 963.5 M 873.5 0.5 L 873.5 963.5 M 889.5 0.5 L 889.5 963.5 M 904.5 0.5 L 904.5 963.5 M 920.5 0.5 L 920.5 963.5 M 951.5 0.5 L 951.5 963.5 M 967.5 0.5 L 967.5 963.5 M 983.5 0.5 L 983.5 963.5 M 999.5 0.5 L 999.5 963.5 M 1030.5 0.5 L 1030.5 963.5 M 1046.5 0.5 L 1046.5 963.5 M 1061.5 0.5 L 1061.5 963.5 M 1077.5 0.5 L 1077.5 963.5" stroke-opacity="0.23529411764705882" stroke-linecap="round" stroke-linejoin="round" stroke-miterlimit="10"/><path fill="none" stroke="rgb(192,192,192)" paint-order="fill stroke markers" d=" M 0.5 0.5 L 1087.5 0.5 M 0.5 0.5 L 1087.5 0.5 M 0.5 96.5 L 1087.5 96.5 M 0.5 192.5 L 1087.5 192.5 M 0.5 288.5 L 1087.5 288.5 M 0.5 385.5 L 1087.5 385.5 M 0.5 577.5 L 1087.5 577.5 M 0.5 674.5 L 1087.5 674.5 M 0.5 770.5 L 1087.5 770.5 M 0.5 866.5 L 1087.5 866.5 M 0.5 963.5 L 1087.5 963.5" stroke-opacity="1" stroke-linecap="round" stroke-linejoin="round" stroke-miterlimit="10"/><path fill="none" stroke="rgb(192,192,192)" paint-order="fill stroke markers" d=" M 0.5 0.5 L 1087.5 0.5 M 0.5 19.5 L 1087.5 19.5 M 0.5 38.5 L 1087.5 38.5 M 0.5 57.5 L 1087.5 57.5 M 0.5 77.5 L 1087.5 77.5 M 0.5 115.5 L 1087.5 115.5 M 0.5 134.5 L 1087.5 134.5 M 0.5 154.5 L 1087.5 154.5 M 0.5 173.5 L 1087.5 173.5 M 0.5 211.5 L 1087.5 211.5 M 0.5 231.5 L 1087.5 231.5 M 0.5 250.5 L 1087.5 250.5 M 0.5 269.5 L 1087.5 269.5 M 0.5 308.5 L 1087.5 308.5 M 0.5 327.5 L 1087.5 327.5 M 0.5 346.5 L 1087.5 346.5 M 0.5 365.5 L 1087.5 365.5 M 0.5 404.5 L 1087.5 404.5 M 0.5 423.5 L 1087.5 423.5 M 0.5 442.5 L 1087.5 442.5 M 0.5 462.5 L 1087.5 462.5 M 0.5 500.5 L 1087.5 500.5 M 0.5 520.5 L 1087.5 520.5 M 0.5 539.5 L 1087.5 539.5 M 0.5 558.5 L 1087.5 558.5 M 0.5 597.5 L 1087.5 597.5 M 0.5 616.5 L 1087.5 616.5 M 0.5 635.5 L 1087.5 635.5 M 0.5 654.5 L 1087.5 654.5 M 0.5 693.5 L 1087.5 693.5 M 0.5 712.5 L 1087.5 712.5 M 0.5 731.5 L 1087.5 731.5 M 0.5 751.5 L 1087.5 751.5 M 0.5 789.5 L 1087.5 789.5 M 0.5 808.5 L 1087.5 808.5 M 0.5 828.5 L 1087.5 828.5 M 0.5 847.5 L 1087.5 847.5 M 0.5 885.5 L 1087.5 885.5 M 0.5 905.5 L 1087.5 905.5 M 0.5 924.5 L 1087.5 924.5 M 0.5 943.5 L 1087.5 943.5" stroke-opacity="0.23529411764705882" stroke-linecap="round" stroke-linejoin="round" stroke-miterlimit="10"/><path fill="none" stroke="rgb(37,37,37)" paint-order="fill stroke markers" d=" M 543.5 2.5 L 543.5 963.5" stroke-opacity="1" stroke-miterlimit="10"/><path fill="none" stroke="rgb(37,37,37)" paint-order="fill stroke markers" d=" M 543.5 1.5 L 537.5 7.5" stroke-opacity="1" stroke-miterlimit="10"/><path fill="none" stroke="rgb(37,37,37)" paint-order="fill stroke markers" d=" M 543.5 1.5 L 549.5 7.5" stroke-opacity="1" stroke-miterlimit="10"/><path fill="none" stroke="rgb(37,37,37)" paint-order="fill stroke markers" d=" M 0.5 481.5 L 1085.5 481.5" stroke-opacity="1" stroke-miterlimit="10"/><path fill="none" stroke="rgb(37,37,37)" paint-order="fill stroke markers" d=" M 1086.5 481.5 L 1080.5 475.5" stroke-opacity="1" stroke-miterlimit="10"/><path fill="none" stroke="rgb(37,37,37)" paint-order="fill stroke markers" d=" M 1086.5 481.5 L 1080.5 487.5" stroke-opacity="1" stroke-miterlimit="10"/><text fill="rgb(37,37,37)" stroke="none" font-family="geogebra-sans-serif, sans-serif" font-size="18px" font-style="normal" font-weight="normal" text-decoration="normal" x="59" y="503" text-anchor="start" dominant-baseline="alphabetic" fill-opacity="1">–3π</text><text fill="none" stroke="rgb(255,255,255)" font-family="geogebra-sans-serif, sans-serif" font-size="18px" font-style="normal" font-weight="normal" text-decoration="normal" x="59" y="503" text-anchor="start" dominant-baseline="alphabetic" stroke-opacity="1" stroke-linejoin="bevel" stroke-miterlimit="10" stroke-width="3">–3π</text><text fill="rgb(37,37,37)" stroke="none" font-family="geogebra-sans-serif, sans-serif" font-size="18px" font-style="normal" font-weight="normal" text-decoration="normal" x="59" y="503" text-anchor="start" dominant-baseline="alphabetic" fill-opacity="1">–3π</text><text fill="rgb(37,37,37)" stroke="none" font-family="geogebra-sans-serif, sans-serif" font-size="18px" font-style="normal" font-weight="normal" text-decoration="normal" x="120" y="503" text-anchor="start" dominant-baseline="alphabetic" fill-opacity="1">–5π / 2</text><text fill="none" stroke="rgb(255,255,255)" font-family="geogebra-sans-serif, sans-serif" font-size="18px" font-style="normal" font-weight="normal" text-decoration="normal" x="120" y="503" text-anchor="start" dominant-baseline="alphabetic" stroke-opacity="1" stroke-linejoin="bevel" stroke-miterlimit="10" stroke-width="3">–5π / 2</text><text fill="rgb(37,37,37)" stroke="none" font-family="geogebra-sans-serif, sans-serif" font-size="18px" font-style="normal" font-weight="normal" text-decoration="normal" x="120" y="503" text-anchor="start" dominant-baseline="alphabetic" fill-opacity="1">–5π / 2</text><text fill="rgb(37,37,37)" stroke="none" font-family="geogebra-sans-serif, sans-serif" font-size="18px" font-style="normal" font-weight="normal" text-decoration="normal" x="216" y="503" text-anchor="start" dominant-baseline="alphabetic" fill-opacity="1">–2π</text><text fill="none" stroke="rgb(255,255,255)" font-family="geogebra-sans-serif, sans-serif" font-size="18px" font-style="normal" font-weight="normal" text-decoration="normal" x="216" y="503" text-anchor="start" dominant-baseline="alphabetic" stroke-opacity="1" stroke-linejoin="bevel" stroke-miterlimit="10" stroke-width="3">–2π</text><text fill="rgb(37,37,37)" stroke="none" font-family="geogebra-sans-serif, sans-serif" font-size="18px" font-style="normal" font-weight="normal" text-decoration="normal" x="216" y="503" text-anchor="start" dominant-baseline="alphabetic" fill-opacity="1">–2π</text><text fill="rgb(37,37,37)" stroke="none" font-family="geogebra-sans-serif, sans-serif" font-size="18px" font-style="normal" font-weight="normal" text-decoration="normal" x="277" y="503" text-anchor="start" dominant-baseline="alphabetic" fill-opacity="1">–3π / 2</text><text fill="none" stroke="rgb(255,255,255)" font-family="geogebra-sans-serif, sans-serif" font-size="18px" font-style="normal" font-weight="normal" text-decoration="normal" x="277" y="503" text-anchor="start" dominant-baseline="alphabetic" stroke-opacity="1" stroke-linejoin="bevel" stroke-miterlimit="10" stroke-width="3">–3π / 2</text><text fill="rgb(37,37,37)" stroke="none" font-family="geogebra-sans-serif, sans-serif" font-size="18px" font-style="normal" font-weight="normal" text-decoration="normal" x="277" y="503" text-anchor="start" dominant-baseline="alphabetic" fill-opacity="1">–3π / 2</text><text fill="rgb(37,37,37)" stroke="none" font-family="geogebra-sans-serif, sans-serif" font-size="18px" font-style="normal" font-weight="normal" text-decoration="normal" x="378" y="503" text-anchor="start" dominant-baseline="alphabetic" fill-opacity="1">–π</text><text fill="none" stroke="rgb(255,255,255)" font-family="geogebra-sans-serif, sans-serif" font-size="18px" font-style="normal" font-weight="normal" text-decoration="normal" x="378" y="503" text-anchor="start" dominant-baseline="alphabetic" stroke-opacity="1" stroke-linejoin="bevel" stroke-miterlimit="10" stroke-width="3">–π</text><text fill="rgb(37,37,37)" stroke="none" font-family="geogebra-sans-serif, sans-serif" font-size="18px" font-style="normal" font-weight="normal" text-decoration="normal" x="378" y="503" text-anchor="start" dominant-baseline="alphabetic" fill-opacity="1">–π</text><text fill="rgb(37,37,37)" stroke="none" font-family="geogebra-sans-serif, sans-serif" font-size="18px" font-style="normal" font-weight="normal" text-decoration="normal" x="438" y="503" text-anchor="start" dominant-baseline="alphabetic" fill-opacity="1">–π / 2</text><text fill="none" stroke="rgb(255,255,255)" font-family="geogebra-sans-serif, sans-serif" font-size="18px" font-style="normal" font-weight="normal" text-decoration="normal" x="438" y="503" text-anchor="start" dominant-baseline="alphabetic" stroke-opacity="1" stroke-linejoin="bevel" stroke-miterlimit="10" stroke-width="3">–π / 2</text><text fill="rgb(37,37,37)" stroke="none" font-family="geogebra-sans-serif, sans-serif" font-size="18px" font-style="normal" font-weight="normal" text-decoration="normal" x="438" y="503" text-anchor="start" dominant-baseline="alphabetic" fill-opacity="1">–π / 2</text><text fill="rgb(37,37,37)" stroke="none" font-family="geogebra-sans-serif, sans-serif" font-size="18px" font-style="normal" font-weight="normal" text-decoration="normal" x="600" y="503" text-anchor="start" dominant-baseline="alphabetic" fill-opacity="1">π / 2</text><text fill="none" stroke="rgb(255,255,255)" font-family="geogebra-sans-serif, sans-serif" font-size="18px" font-style="normal" font-weight="normal" text-decoration="normal" x="600" y="503" text-anchor="start" dominant-baseline="alphabetic" stroke-opacity="1" stroke-linejoin="bevel" stroke-miterlimit="10" stroke-width="3">π / 2</text><text fill="rgb(37,37,37)" stroke="none" font-family="geogebra-sans-serif, sans-serif" font-size="18px" font-style="normal" font-weight="normal" text-decoration="normal" x="600" y="503" text-anchor="start" dominant-baseline="alphabetic" fill-opacity="1">π / 2</text><text fill="rgb(37,37,37)" stroke="none" font-family="geogebra-sans-serif, sans-serif" font-size="18px" font-style="normal" font-weight="normal" text-decoration="normal" x="697" y="503" text-anchor="start" dominant-baseline="alphabetic" fill-opacity="1">π</text><text fill="none" stroke="rgb(255,255,255)" font-family="geogebra-sans-serif, sans-serif" font-size="18px" font-style="normal" font-weight="normal" text-decoration="normal" x="697" y="503" text-anchor="start" dominant-baseline="alphabetic" stroke-opacity="1" stroke-linejoin="bevel" stroke-miterlimit="10" stroke-width="3">π</text><text fill="rgb(37,37,37)" stroke="none" font-family="geogebra-sans-serif, sans-serif" font-size="18px" font-style="normal" font-weight="normal" text-decoration="normal" x="697" y="503" text-anchor="start" dominant-baseline="alphabetic" fill-opacity="1">π</text><text fill="rgb(37,37,37)" stroke="none" font-family="geogebra-sans-serif, sans-serif" font-size="18px" font-style="normal" font-weight="normal" text-decoration="normal" x="753" y="503" text-anchor="start" dominant-baseline="alphabetic" fill-opacity="1">3π / 2</text><text fill="none" stroke="rgb(255,255,255)" font-family="geogebra-sans-serif, sans-serif" font-size="18px" font-style="normal" font-weight="normal" text-decoration="normal" x="753" y="503" text-anchor="start" dominant-baseline="alphabetic" stroke-opacity="1" stroke-linejoin="bevel" stroke-miterlimit="10" stroke-width="3">3π / 2</text><text fill="rgb(37,37,37)" stroke="none" font-family="geogebra-sans-serif, sans-serif" font-size="18px" font-style="normal" font-weight="normal" text-decoration="normal" x="753" y="503" text-anchor="start" dominant-baseline="alphabetic" fill-opacity="1">3π / 2</text><text fill="rgb(37,37,37)" stroke="none" font-family="geogebra-sans-serif, sans-serif" font-size="18px" font-style="normal" font-weight="normal" text-decoration="normal" x="849" y="503" text-anchor="start" dominant-baseline="alphabetic" fill-opacity="1">2π</text><text fill="none" stroke="rgb(255,255,255)" font-family="geogebra-sans-serif, sans-serif" font-size="18px" font-style="normal" font-weight="normal" text-decoration="normal" x="849" y="503" text-anchor="start" dominant-baseline="alphabetic" stroke-opacity="1" stroke-linejoin="bevel" stroke-miterlimit="10" stroke-width="3">2π</text><text fill="rgb(37,37,37)" stroke="none" font-family="geogebra-sans-serif, sans-serif" font-size="18px" font-style="normal" font-weight="normal" text-decoration="normal" x="849" y="503" text-anchor="start" dominant-baseline="alphabetic" fill-opacity="1">2π</text><text fill="rgb(37,37,37)" stroke="none" font-family="geogebra-sans-serif, sans-serif" font-size="18px" font-style="normal" font-weight="normal" text-decoration="normal" x="910" y="503" text-anchor="start" dominant-baseline="alphabetic" fill-opacity="1">5π / 2</text><text fill="none" stroke="rgb(255,255,255)" font-family="geogebra-sans-serif, sans-serif" font-size="18px" font-style="normal" font-weight="normal" text-decoration="normal" x="910" y="503" text-anchor="start" dominant-baseline="alphabetic" stroke-opacity="1" stroke-linejoin="bevel" stroke-miterlimit="10" stroke-width="3">5π / 2</text><text fill="rgb(37,37,37)" stroke="none" font-family="geogebra-sans-serif, sans-serif" font-size="18px" font-style="normal" font-weight="normal" text-decoration="normal" x="910" y="503" text-anchor="start" dominant-baseline="alphabetic" fill-opacity="1">5π / 2</text><text fill="rgb(37,37,37)" stroke="none" font-family="geogebra-sans-serif, sans-serif" font-size="18px" font-style="normal" font-weight="normal" text-decoration="normal" x="1006" y="503" text-anchor="start" dominant-baseline="alphabetic" fill-opacity="1">3π</text><text fill="none" stroke="rgb(255,255,255)" font-family="geogebra-sans-serif, sans-serif" font-size="18px" font-style="normal" font-weight="normal" text-decoration="normal" x="1006" y="503" text-anchor="start" dominant-baseline="alphabetic" stroke-opacity="1" stroke-linejoin="bevel" stroke-miterlimit="10" stroke-width="3">3π</text><text fill="rgb(37,37,37)" stroke="none" font-family="geogebra-sans-serif, sans-serif" font-size="18px" font-style="normal" font-weight="normal" text-decoration="normal" x="1006" y="503" text-anchor="start" dominant-baseline="alphabetic" fill-opacity="1">3π</text><text fill="rgb(37,37,37)" stroke="none" font-family="geogebra-sans-serif, sans-serif" font-size="24px" font-style="normal" font-weight="normal" text-decoration="normal" x="548" y="23" text-anchor="start" dominant-baseline="alphabetic" fill-opacity="1">y</text><text fill="rgb(37,37,37)" stroke="none" font-family="geogebra-sans-serif, sans-serif" font-size="18px" font-style="normal" font-weight="normal" text-decoration="normal" x="515" y="874" text-anchor="start" dominant-baseline="alphabetic" fill-opacity="1">–4</text><text fill="none" stroke="rgb(255,255,255)" font-family="geogebra-sans-serif, sans-serif" font-size="18px" font-style="normal" font-weight="normal" text-decoration="normal" x="515" y="874" text-anchor="start" dominant-baseline="alphabetic" stroke-opacity="1" stroke-linejoin="bevel" stroke-miterlimit="10" stroke-width="3">–4</text><text fill="rgb(37,37,37)" stroke="none" font-family="geogebra-sans-serif, sans-serif" font-size="18px" font-style="normal" font-weight="normal" text-decoration="normal" x="515" y="874" text-anchor="start" dominant-baseline="alphabetic" fill-opacity="1">–4</text><text fill="rgb(37,37,37)" stroke="none" font-family="geogebra-sans-serif, sans-serif" font-size="18px" font-style="normal" font-weight="normal" text-decoration="normal" x="515" y="778" text-anchor="start" dominant-baseline="alphabetic" fill-opacity="1">–3</text><text fill="none" stroke="rgb(255,255,255)" font-family="geogebra-sans-serif, sans-serif" font-size="18px" font-style="normal" font-weight="normal" text-decoration="normal" x="515" y="778" text-anchor="start" dominant-baseline="alphabetic" stroke-opacity="1" stroke-linejoin="bevel" stroke-miterlimit="10" stroke-width="3">–3</text><text fill="rgb(37,37,37)" stroke="none" font-family="geogebra-sans-serif, sans-serif" font-size="18px" font-style="normal" font-weight="normal" text-decoration="normal" x="515" y="778" text-anchor="start" dominant-baseline="alphabetic" fill-opacity="1">–3</text><text fill="rgb(37,37,37)" stroke="none" font-family="geogebra-sans-serif, sans-serif" font-size="18px" font-style="normal" font-weight="normal" text-decoration="normal" x="515" y="682" text-anchor="start" dominant-baseline="alphabetic" fill-opacity="1">–2</text><text fill="none" stroke="rgb(255,255,255)" font-family="geogebra-sans-serif, sans-serif" font-size="18px" font-style="normal" font-weight="normal" text-decoration="normal" x="515" y="682" text-anchor="start" dominant-baseline="alphabetic" stroke-opacity="1" stroke-linejoin="bevel" stroke-miterlimit="10" stroke-width="3">–2</text><text fill="rgb(37,37,37)" stroke="none" font-family="geogebra-sans-serif, sans-serif" font-size="18px" font-style="normal" font-weight="normal" text-decoration="normal" x="515" y="682" text-anchor="start" dominant-baseline="alphabetic" fill-opacity="1">–2</text><text fill="rgb(37,37,37)" stroke="none" font-family="geogebra-sans-serif, sans-serif" font-size="18px" font-style="normal" font-weight="normal" text-decoration="normal" x="515" y="585" text-anchor="start" dominant-baseline="alphabetic" fill-opacity="1">–1</text><text fill="none" stroke="rgb(255,255,255)" font-family="geogebra-sans-serif, sans-serif" font-size="18px" font-style="normal" font-weight="normal" text-decoration="normal" x="515" y="585" text-anchor="start" dominant-baseline="alphabetic" stroke-opacity="1" stroke-linejoin="bevel" stroke-miterlimit="10" stroke-width="3">–1</text><text fill="rgb(37,37,37)" stroke="none" font-family="geogebra-sans-serif, sans-serif" font-size="18px" font-style="normal" font-weight="normal" text-decoration="normal" x="515" y="585" text-anchor="start" dominant-baseline="alphabetic" fill-opacity="1">–1</text><text fill="rgb(37,37,37)" stroke="none" font-family="geogebra-sans-serif, sans-serif" font-size="18px" font-style="normal" font-weight="normal" text-decoration="normal" x="525" y="393" text-anchor="start" dominant-baseline="alphabetic" fill-opacity="1">1</text><text fill="none" stroke="rgb(255,255,255)" font-family="geogebra-sans-serif, sans-serif" font-size="18px" font-style="normal" font-weight="normal" text-decoration="normal" x="525" y="393" text-anchor="start" dominant-baseline="alphabetic" stroke-opacity="1" stroke-linejoin="bevel" stroke-miterlimit="10" stroke-width="3">1</text><text fill="rgb(37,37,37)" stroke="none" font-family="geogebra-sans-serif, sans-serif" font-size="18px" font-style="normal" font-weight="normal" text-decoration="normal" x="525" y="393" text-anchor="start" dominant-baseline="alphabetic" fill-opacity="1">1</text><text fill="rgb(37,37,37)" stroke="none" font-family="geogebra-sans-serif, sans-serif" font-size="18px" font-style="normal" font-weight="normal" text-decoration="normal" x="525" y="296" text-anchor="start" dominant-baseline="alphabetic" fill-opacity="1">2</text><text fill="none" stroke="rgb(255,255,255)" font-family="geogebra-sans-serif, sans-serif" font-size="18px" font-style="normal" font-weight="normal" text-decoration="normal" x="525" y="296" text-anchor="start" dominant-baseline="alphabetic" stroke-opacity="1" stroke-linejoin="bevel" stroke-miterlimit="10" stroke-width="3">2</text><text fill="rgb(37,37,37)" stroke="none" font-family="geogebra-sans-serif, sans-serif" font-size="18px" font-style="normal" font-weight="normal" text-decoration="normal" x="525" y="296" text-anchor="start" dominant-baseline="alphabetic" fill-opacity="1">2</text><text fill="rgb(37,37,37)" stroke="none" font-family="geogebra-sans-serif, sans-serif" font-size="18px" font-style="normal" font-weight="normal" text-decoration="normal" x="525" y="200" text-anchor="start" dominant-baseline="alphabetic" fill-opacity="1">3</text><text fill="none" stroke="rgb(255,255,255)" font-family="geogebra-sans-serif, sans-serif" font-size="18px" font-style="normal" font-weight="normal" text-decoration="normal" x="525" y="200" text-anchor="start" dominant-baseline="alphabetic" stroke-opacity="1" stroke-linejoin="bevel" stroke-miterlimit="10" stroke-width="3">3</text><text fill="rgb(37,37,37)" stroke="none" font-family="geogebra-sans-serif, sans-serif" font-size="18px" font-style="normal" font-weight="normal" text-decoration="normal" x="525" y="200" text-anchor="start" dominant-baseline="alphabetic" fill-opacity="1">3</text><text fill="rgb(37,37,37)" stroke="none" font-family="geogebra-sans-serif, sans-serif" font-size="18px" font-style="normal" font-weight="normal" text-decoration="normal" x="525" y="104" text-anchor="start" dominant-baseline="alphabetic" fill-opacity="1">4</text><text fill="none" stroke="rgb(255,255,255)" font-family="geogebra-sans-serif, sans-serif" font-size="18px" font-style="normal" font-weight="normal" text-decoration="normal" x="525" y="104" text-anchor="start" dominant-baseline="alphabetic" stroke-opacity="1" stroke-linejoin="bevel" stroke-miterlimit="10" stroke-width="3">4</text><text fill="rgb(37,37,37)" stroke="none" font-family="geogebra-sans-serif, sans-serif" font-size="18px" font-style="normal" font-weight="normal" text-decoration="normal" x="525" y="104" text-anchor="start" dominant-baseline="alphabetic" fill-opacity="1">4</text><text fill="rgb(37,37,37)" stroke="none" font-family="geogebra-sans-serif, sans-serif" font-size="18px" font-style="normal" font-weight="normal" text-decoration="normal" x="525" y="503" text-anchor="start" dominant-baseline="alphabetic" fill-opacity="1">0</text><text fill="none" stroke="rgb(255,255,255)" font-family="geogebra-sans-serif, sans-serif" font-size="18px" font-style="normal" font-weight="normal" text-decoration="normal" x="525" y="503" text-anchor="start" dominant-baseline="alphabetic" stroke-opacity="1" stroke-linejoin="bevel" stroke-miterlimit="10" stroke-width="3">0</text><text fill="rgb(37,37,37)" stroke="none" font-family="geogebra-sans-serif, sans-serif" font-size="18px" font-style="normal" font-weight="normal" text-decoration="normal" x="525" y="503" text-anchor="start" dominant-baseline="alphabetic" fill-opacity="1">0</text><path fill="none" stroke="rgb(211,47,47)" paint-order="fill stroke markers" d=" M 148.7781935694238 978 L 3.3167310617500245 978 L 3.5 967.6020142420246 L 3.5 967.6020142420249 L 4.5 921.2722884477473 L 4.5 921.2722884477477 L 5.5 882.6981866991486 L 5.5 882.6981866991487 L 6.5 850.0585851924814 L 6.5 850.0585851924816 L 7.5 822.0610052945158 L 7.5 822.061005294516 L 8.5 797.7627595578565 L 8.5 797.7627595578567 L 9.5 776.4601085590946 L 9.5 776.4601085590948 L 10.5 757.6170547663553 L 10.5 757.6170547663555 L 11.5 740.8181671771933 L 11.5 740.8181671771936 L 12.5 725.7364789564573 L 12.5 725.7364789564575 L 13.5 712.1111234999065 L 13.5 712.1111234999066 L 14.5 699.7314282104121 L 14.5 699.7314282104122 L 15.5 688.4253903815811 L 15.5 688.4253903815812 L 16.5 678.0511885466548 L 16.5 678.0511885466549 L 17.5 668.4908357084347 L 17.5 668.4908357084348 L 18.5 659.645369366531 L 18.5 659.6453693665311 L 19.5 651.4311610358968 L 19.5 651.4311610358969 L 20.5 643.777052618535 L 20.5 643.7770526185351 L 21.5 636.6221112670845 L 21.5 636.6221112670846 L 22.5 629.913852299869 L 22.5 629.913852299869 L 23.5 623.6068201424342 L 23.5 623.6068201424343 L 24.5 617.6614458682079 L 24.5 617.661445868208 L 25.5 612.0431204093865 L 25.5 612.0431204093866 L 26.5 606.721437379423 L 26.5 606.7214373794232 L 27.5 601.6695703566916 L 27.5 601.6695703566917 L 28.5 596.8637575643079 L 28.5 596.863757564308 L 29.5 592.2828729326075 L 29.5 592.2828729326076 L 30.5 587.9080671014655 L 30.5 587.9080671014656 L 31.5 583.7224654014315 L 31.5 583.7224654014315 L 32.5 579.7109125263751 L 32.5 579.7109125263752 L 33.49999999999994 575.8597556790979 L 33.49999999999994 575.8597556790979 L 34.50000000000006 572.1566595835463 L 34.50000000000006 572.1566595835465 L 35.5 568.5904480221343 L 35.5 568.5904480221344 L 36.5 565.1509675554195 L 36.5 565.1509675554196 L 37.49999999999994 561.8289698748082 L 37.49999999999994 561.8289698748083 L 38.50000000000006 558.616009872882 L 38.50000000000006 558.6160098728822 L 39.5 555.5043570252401 L 39.5 555.5043570252401 L 40.5 552.4869180890325 L 40.5 552.4869180890325 L 41.49999999999994 549.557169457172 L 41.49999999999994 549.5571694571721 L 42.50000000000006 546.7090977793941 L 42.50000000000006 546.7090977793943 L 43.5 543.9371476843098 L 43.5 543.9371476843098 L 44.5 541.2361756200129 L 44.5 541.2361756200129 L 45.5 538.601408982337 L 45.5 538.601408982337 L 46.50000000000006 536.0284098255117 L 46.50000000000006 536.0284098255117 L 47.5 533.5130425545791 L 47.5 533.5130425545792 L 48.5 531.0514450863269 L 48.5 531.0514450863269 L 49.5 528.6400030387622 L 49.5 528.6400030387622 L 50.50000000000006 526.2753265707693 L 50.50000000000006 526.2753265707693 L 51.5 523.9542295455891 L 51.5 523.9542295455891 L 52.5 521.6737107357462 L 52.5 521.6737107357462 L 53.5 519.4309368243927 L 53.5 519.4309368243927 L 54.49999999999994 517.2232269897875 L 54.49999999999994 517.2232269897875 L 55.50000000000006 515.0480388867311 L 55.50000000000006 515.0480388867311 L 56.5 512.902955861925 L 56.5 512.9029558619251 L 57.5 510.78567526006134 L 57.5 510.78567526006134 L 58.49999999999994 508.69399769447233 L 58.49999999999994 508.69399769447233 L 59.50000000000006 506.62581717079223 L 59.50000000000006 506.62581717079223 L 60.5 504.5791119646714 L 60.5 504.5791119646714 L 61.5 502.5519361654182 L 61.5 502.5519361654182 L 62.49999999999994 500.5424118067818 L 62.49999999999994 500.5424118067818 L 63.50000000000006 498.5487215141228 L 63.50000000000006 498.5487215141228 L 64.5 496.569101604135 L 64.5 496.569101604135 L 65.5 494.6018355792103 L 65.5 494.60183557921033 L 66.5 492.64524796362235 L 66.5 492.64524796362235 L 67.50000000000006 490.69769843301526 L 67.50000000000006 490.69769843301526 L 68.5 488.7575761923369 L 68.5 488.7575761923369 L 69.5 486.82329456039713 L 69.5 486.82329456039713 L 70.5 484.89328572173844 L 70.5 484.89328572173844 L 71.50000000000006 482.9659956085056 L 71.50000000000006 482.9659956085056 L 72.5 481.03983081658913 L 72.5 481.0398788765488 L 73.5 479.1133939411029 L 73.5 479.1133939411029 L 74.5 477.18499803808913 L 74.5 477.18499803808913 L 75.49999999999994 475.25314227738266 L 75.49999999999994 475.25314227738266 L 76.50000000000006 473.3162666542961 L 76.50000000000006 473.3162666542961 L 77.5 471.37279498504074 L 77.5 471.37279498504074 L 78.5 469.4211297310284 L 78.5 469.4211297310284 L 79.49999999999994 467.4596466755684 L 79.49999999999994 467.4596466755684 L 80.50000000000006 465.4866894147478 L 80.50000000000006 465.48668941474784 L 81.5 463.5005636220495 L 81.5 463.5005636220496 L 82.5 461.4995310435063 L 82.5 461.4995310435063 L 83.49999999999994 459.4818031768658 L 83.49999999999994 459.4818031768658 L 84.50000000000006 457.44553458428055 L 84.50000000000006 457.44553458428055 L 85.5 455.3888157833699 L 85.5 455.3888157833699 L 86.5 453.3096656560258 L 86.5 453.3096656560258 L 87.5 451.20602330795515 L 87.5 451.20602330795515 L 88.50000000000006 449.07573930451406 L 88.50000000000006 449.0757393045141 L 89.5 446.9165661997615 L 89.5 446.9165661997616 L 90.5 444.7261482656286 L 90.5 444.7261482656286 L 91.5 442.5020103164692 L 91.5 442.5020103164692 L 92.50000000000006 440.2415455107292 L 92.50000000000006 440.2415455107293 L 93.5 437.94200199575357 L 93.5 437.94200199575357 L 94.5 435.6004682434367 L 94.5 435.60046824343675 L 95.5 433.21385690307955 L 95.5 433.2138569030796 L 96.49999999999994 430.7788869728517 L 96.49999999999994 430.77888697285175 L 97.50000000000006 428.29206406204463 L 97.50000000000006 428.2920640620447 L 98.5 425.74965848199923 L 98.5 425.7496584819993 L 99.5 423.1476808632201 L 99.5 423.14768086322016 L 100.49999999999994 420.48185494856733 L 100.49999999999994 420.4818549485674 L 101.50000000000006 417.7475871560382 L 101.50000000000006 417.74758715603826 L 102.5 414.93993243775196 L 102.5 414.939932437752 L 103.5 412.0535558820692 L 103.5 412.05355588206925 L 104.49999999999994 409.0826894105935 L 104.49999999999994 409.08268941059356 L 105.50000000000006 406.02108280765964 L 105.50000000000006 406.0210828076597 L 106.5 402.8619481825692 L 106.5 402.8619481825693 L 107.5 399.5978967989025 L 107.5 399.5978967989026 L 108.5 396.22086700399416 L 108.5 396.2208670039942 L 109.50000000000006 392.7220417465215 L 109.50000000000006 392.72204174652154 L 110.5 389.0917538702699 L 110.5 389.09175387026994 L 111.5 385.3193770035407 L 111.5 385.31937700354075 L 112.5 381.39319940846053 L 112.5 381.3931994084606 L 113.50000000000006 377.3002775893665 L 113.50000000000006 377.30027758936654 L 114.5 373.02626575426325 L 114.5 373.0262657542633 L 115.5 368.5552163383488 L 115.5 368.5552163383488 L 116.5 363.86934568140623 L 116.5 363.8693456814063 L 117.49999999999994 358.94875753167815 L 117.49999999999994 358.9487575316782 L 118.50000000000006 353.77111523424566 L 118.50000000000006 353.7711152342457 L 119.5 348.31125112556197 L 119.5 348.3112511255621 L 120.5 342.5406986254493 L 120.5 342.5406986254494 L 121.49999999999994 336.4271285567461 L 121.49999999999994 336.42712855674614 L 122.50000000000006 329.93366600194656 L 122.50000000000006 329.9336660019467 L 123.5 323.0180570642525 L 123.5 323.01805706425256 L 124.5 315.6316455830083 L 124.5 315.63164558300844 L 125.49999999999994 307.71810722169596 L 125.49999999999994 307.718107221696 L 126.50000000000006 299.21187103653443 L 126.50000000000006 299.2118710365345 L 127.5 290.0361346375963 L 127.5 290.03613463759643 L 128.5 280.100345374012 L 128.5 280.10034537401214 L 129.5 269.2969720640399 L 129.5 269.29697206404 L 130.50000000000006 257.497322639619 L 130.50000000000006 257.4973226396191 L 131.5 244.54606167880834 L 131.5 244.54606167880848 L 132.5 230.25393053873623 L 132.5 230.25393053873637 L 133.5 214.38794285457686 L 133.5 214.38794285457698 L 134.50000000000006 196.6579712653554 L 134.50000000000006 196.6579712653555 L 135.5 176.69807439139947 L 135.5 176.69807439139964 L 136.5 154.03998952515923 L 136.5 154.0399895251594 L 137.5 128.07466800978125 L 137.5 128.07466800978153 L 138.49999999999994 97.99504883739849 L 138.49999999999994 97.99504883739866 L 139.5 62.70844906821986 L 139.5 62.708449068220034 L 140.5 20.69792414708394 L 140.5 20.69792414708411 L 141.2012830444649 -15 M 152.25190188729542 978 L 160.3907769115803 978 L 160.5 971.696263384447 L 160.5 971.6962633844473 L 161.5 924.6487538200272 L 161.5 924.6487538200274 L 162.5 885.5323972822994 L 162.5 885.5323972822996 L 163.5 852.4731863981299 L 163.5 852.4731863981301 L 164.5 824.1442735030935 L 164.5 824.1442735030937 L 165.5 799.5798498580031 L 165.5 799.5798498580032 L 166.5 778.0601579522989 L 166.5 778.060157952299 L 167.5 759.0378189897588 L 167.5 759.0378189897589 L 168.5 742.0891353702095 L 168.5 742.0891353702096 L 169.5 726.8810187781266 L 169.5 726.8810187781266 L 170.5 713.1479913722015 L 170.5 713.1479913722017 L 171.5 700.6758535610466 L 171.5 700.6758535610467 L 172.5 689.2898677613084 L 172.5 689.2898677613085 L 173.5 678.8460654870339 L 173.5 678.8460654870339 L 174.5 669.2247552305096 L 174.5 669.2247552305097 L 175.5 660.325607404103 L 175.5 660.3256074041032 L 176.5 652.0638867768621 L 176.5 652.0638867768622 L 177.5 644.3675315529283 L 177.5 644.3675315529284 L 178.5 637.1748651305737 L 178.5 637.1748651305738 L 179.5 630.43278622322 L 179.5 630.4327862232201 L 180.5 624.0953245923154 L 180.5 624.0953245923155 L 181.5 618.1224790238571 L 181.5 618.1224790238571 L 182.5 612.4792752201633 L 182.5 612.4792752201635 L 183.5 607.1349965273578 L 183.5 607.1349965273579 L 184.5 602.0625515953734 L 184.5 602.0625515953734 L 185.5 597.2379513448 L 185.5 597.2379513448 L 186.5 592.6398738055525 L 186.5 592.6398738055525 L 187.5 588.2493000648365 L 187.5 588.2493000648365 L 188.5 584.0492081188696 L 188.5 584.0492081188697 L 189.5 580.0243141525898 L 189.5 580.0243141525898 L 190.5 576.1608528824702 L 190.5 576.1608528824703 L 191.5 572.446390241667 L 191.5 572.4463902416671 L 192.5 568.8696629759485 L 192.5 568.8696629759486 L 193.5 565.4204407363517 L 193.5 565.4204407363518 L 194.5 562.0894070624146 L 194.5 562.0894070624146 L 195.5 558.8680562950759 L 195.5 558.868056295076 L 196.5 555.7486039764719 L 196.5 555.748603976472 L 197.5 552.723908712138 L 197.5 552.723908712138 L 198.5 549.7874038104543 L 198.5 549.7874038104543 L 199.5 546.9330372907878 L 199.5 546.9330372907878 L 200.5 544.1552190782722 L 200.5 544.1552190782722 L 201.5 541.4487743894516 L 201.5 541.4487743894516 L 202.5 538.8089024668221 L 202.5 538.8089024668221 L 203.5 536.2311399478524 L 203.5 536.2311399478524 L 204.5 533.7113282601856 L 204.5 533.7113282601856 L 205.5 531.2455845233759 L 205.5 531.2455845233759 L 206.5 528.8302755118028 L 206.5 528.8302755118029 L 207.5 526.4619942958793 L 207.5 526.4619942958793 L 208.5 524.1375392313605 L 208.5 524.1375392313605 L 209.5 521.8538950111397 L 209.5 521.8538950111397 L 210.5 519.6082155317414 L 210.5 519.6082155317414 L 211.5 517.3978083588845 L 211.5 517.3978083588845 L 212.5 515.2201206039312 L 212.5 515.2201206039312 L 213.5 513.0727260464748 L 213.5 513.0727260464748 L 214.5 510.9533133584047 L 214.5 510.9533133584048 L 215.5 508.8596753020119 L 215.5 508.8596753020119 L 216.5 506.78969878950375 L 216.5 506.78969878950375 L 217.5 504.7413557040323 L 217.5 504.7413557040323 L 218.5 502.71269439330973 L 218.5 502.71269439330973 L 219.5 500.70183175632553 L 219.5 500.7018317563256 L 220.5 498.70694585182065 L 220.5 498.70694585182065 L 221.5 496.7262689641646 L 221.5 496.72626896416466 L 222.5 494.7580810682933 L 222.5 494.7580810682933 L 223.5 492.800703640502 L 223.5 492.800703640502 L 224.5 490.8524937662661 L 224.5 490.8524937662661 L 225.5 488.911838499958 L 225.5 488.911838499958 L 226.5 486.9771494344229 L 226.5 486.9771494344229 L 227.5 485.04685744091637 L 227.5 485.04685744091637 L 228.5 483.11940754194967 L 228.5 483.11940754194967 L 229.5 481.19321206866925 L 229.5 481.19325388117113 L 230.5 479.2668547555519 L 230.5 479.2668547555519 L 231.5 477.33866767588273 L 231.5 477.33866767588273 L 232.5 475.4071444219136 L 232.5 475.4071444219136 L 233.5 473.470726058411 L 233.5 473.470726058411 L 234.5 471.5278378779451 L 234.5 471.5278378779451 L 235.5 469.57688423536047 L 235.5 469.57688423536047 L 236.5 467.61624323760043 L 236.5 467.61624323760043 L 237.5 465.6442612508344 L 237.5 465.6442612508344 L 238.5 463.65924718463623 L 238.5 463.65924718463623 L 239.5 461.65946651025496 L 239.5 461.65946651025496 L 240.5 459.64313496673566 L 240.5 459.64313496673566 L 241.5 457.6084119047482 L 241.5 457.6084119047482 L 242.5 455.5533932133673 L 242.5 455.5533932133673 L 243.5 453.4761037696486 L 243.5 453.4761037696486 L 244.5 451.3744893445318 L 244.5 451.3744893445318 L 245.5 449.2464078912658 L 245.5 449.24640789126585 L 246.5 447.08962013401356 L 246.5 447.08962013401356 L 247.5 444.9017793643932 L 247.5 444.9017793643932 L 248.5 442.6804203422082 L 248.5 442.68042034220827 L 249.5 440.4229471832582 L 249.5 440.4229471832582 L 250.5 438.1266201015908 L 250.5 438.12662010159085 L 251.5 435.7885408554657 L 251.5 435.7885408554658 L 252.5 433.4056367252132 L 252.5 433.4056367252132 L 253.5 430.97464282652305 L 253.5 430.97464282652305 L 254.5 428.4920825338522 L 254.5 428.4920825338522 L 255.5 425.9542457547685 L 255.5 425.9542457547686 L 256.5 423.3571647562147 L 256.5 423.35716475621473 L 257.5 420.6965871966657 L 257.5 420.6965871966657 L 258.5 417.96794596254915 L 258.5 417.9679459625492 L 259.5 415.16632534129803 L 259.5 415.1663253412981 L 260.5 412.2864229848481 L 260.5 412.2864229848482 L 261.5 409.32250702354423 L 261.5 409.3225070235443 L 262.5 406.26836757794445 L 262.5 406.2683675779445 L 263.5 403.1172617806815 L 263.5 403.1172617806816 L 264.5 399.86185125712746 L 264.5 399.86185125712746 L 265.5 396.4941308154479 L 265.5 396.49413081544793 L 266.5 393.0053468553695 L 266.5 393.00534685536957 L 267.5 389.38590370990977 L 267.5 389.3859037099098 L 268.5 385.62525577180276 L 268.5 385.6252557718028 L 269.5 381.7117828088044 L 269.5 381.7117828088045 L 270.5 377.63264531673457 L 270.5 377.6326453167346 L 271.5 373.3736160664032 L 271.5 373.3736160664033 L 272.5 368.9188831316168 L 272.5 368.9188831316169 L 273.5 364.25081858904036 L 273.5 364.2508185890404 L 274.5 359.349705688623 L 274.5 359.3497056886231 L 275.5 354.1934155143192 L 275.5 354.1934155143193 L 276.5 348.757021865608 L 276.5 348.75702186560807 L 277.5 343.012340122934 L 277.5 343.0123401229341 L 278.5 336.9273719837924 L 278.5 336.9273719837925 L 279.5 330.46563285051775 L 279.5 330.46563285051786 L 280.5 323.5853318668976 L 280.5 323.5853318668977 L 281.5 316.23836550240924 L 281.5 316.23836550240935 L 282.5 308.3690732582185 L 282.5 308.3690732582186 L 283.5 299.9126871948464 L 283.5 299.9126871948465 L 284.5 290.79338361163644 L 284.5 290.7933836116365 L 285.5 280.9218124406169 L 285.5 280.92181244061703 L 286.5 270.19193335648197 L 286.5 270.1919333564821 L 287.5 258.476920482427 L 287.5 258.47692048242715 L 288.5 245.62379927920327 L 288.5 245.6237992792034 L 289.5 231.44633278377555 L 289.5 231.4463327837757 L 290.5 215.7154521231925 L 290.5 215.71545212319262 L 291.5 198.14618188230514 L 291.5 198.1461818823053 L 292.5 178.3794650608067 L 292.5 178.37946506080687 L 293.5 155.95640489845294 L 293.5 155.95640489845312 L 294.5 130.2809564714812 L 294.5 130.2809564714815 L 295.5 100.56453752522691 L 295.5 100.56453752522708 L 296.5 65.74143734465196 L 296.5 65.74143734465213 L 297.5 24.3353316684113 L 297.5 24.33533166841147 L 298.28521607484987 -14.999999999999998 M 309.1831042349431 978 L 317.46351118921916 978.0000000000001 L 317.5 975.8574400697681 L 317.5 975.8574400697684 L 318.5 928.0750768532776 L 318.5 928.0750768532778 L 319.5 888.4047395011589 L 319.5 888.4047395011592 L 320.5 854.917599258426 L 320.5 854.9175992584262 L 321.5 826.2512872560394 L 321.5 826.2512872560396 L 322.5 801.4161590670728 L 322.5 801.416159067073 L 323.5 779.6759800765697 L 323.5 779.6759800765699 L 324.5 760.4716861186165 L 324.5 760.4716861186166 L 325.5 743.3711060823359 L 325.5 743.371106082336 L 326.5 728.0348860582882 L 326.5 728.0348860582883 L 327.5 714.1928344958576 L 327.5 714.1928344958578 L 328.5 701.6271505904397 L 328.5 701.6271505904399 L 329.5 690.1603072297806 L 329.5 690.1603072297808 L 330.5 679.6461480603386 L 330.5 679.6461480603389 L 331.5 669.963246116864 L 331.5 669.9632461168642 L 332.5 661.009880988146 L 332.5 661.009880988146 L 333.5 652.7001922852012 L 333.5 652.7001922852012 L 334.5 644.9612000835475 L 334.5 644.9612000835476 L 335.5 637.7304726083621 L 335.5 637.7304726083623 L 336.5 630.9542828527517 L 336.5 630.9542828527518 L 337.5 624.5861385775836 L 337.5 624.5861385775837 L 338.5 618.5856003316173 L 338.5 618.5856003316175 L 339.5 612.9173237277103 L 339.5 612.9173237277104 L 340.5 607.5502778491211 L 340.5 607.5502778491212 L 341.5 602.4571031117501 L 341.5 602.4571031117503 L 342.5 597.6135803828694 L 342.5 597.6135803828695 L 343.5 592.9981894902643 L 343.5 592.9981894902644 L 344.5 588.5917400325317 L 344.5 588.5917400325317 L 345.5 584.3770610352782 L 345.5 584.3770610352782 L 346.5 580.3387387850878 L 346.5 580.3387387850879 L 347.5 576.4628943271082 L 347.5 576.4628943271083 L 348.5 572.7369937888263 L 348.5 572.7369937888265 L 349.5 569.1496860067284 L 349.5 569.1496860067284 L 350.5 565.690662969147 L 350.5 565.690662969147 L 351.5 562.350539411315 L 351.5 562.350539411315 L 352.5 559.1207485553981 L 352.5 559.1207485553982 L 353.5 555.9934515154509 L 353.5 555.9934515154509 L 354.5 552.9614583126304 L 354.5 552.9614583126304 L 355.5 550.0181587909724 L 355.5 550.0181587909724 L 356.5 547.1574620051376 L 356.5 547.1574620051377 L 357.5 544.3737428816262 L 357.5 544.3737428816262 L 358.5 541.6617951441253 L 358.5 541.6617951441254 L 359.5 539.0167896498218 L 359.5 539.0167896498218 L 360.5 536.4342374129361 L 360.5 536.4342374129362 L 361.5 533.9099566994234 L 361.5 533.9099566994236 L 362.5 531.4400436666941 L 362.5 531.4400436666941 L 363.5 529.0208460975462 L 363.5 529.0208460975462 L 364.5 526.648939840834 L 364.5 526.6489398408341 L 365.5 524.3211076247994 L 365.5 524.3211076247994 L 366.5 522.0343199541677 L 366.5 522.0343199541678 L 367.5 519.7857178404246 L 367.5 519.7857178404247 L 368.5 517.5725971472726 L 368.5 517.5725971472727 L 369.5 515.3923943610508 L 369.5 515.3923943610508 L 370.5 513.2426736196362 L 370.5 513.2426736196362 L 371.5 511.12111485367564 L 371.5 511.12111485367564 L 372.5 509.0255029114348 L 372.5 509.0255029114348 L 373.5 506.953717553533 L 373.5 506.953717553533 L 374.5 504.9037242167245 L 374.5 504.9037242167245 L 375.5 502.8735654569811 L 375.5 502.8735654569811 L 376.5 500.86135299169416 L 376.5 500.86135299169416 L 377.5 498.86526026904323 L 377.5 498.86526026904323 L 378.5 496.88351549966103 L 378.5 496.88351549966103 L 379.5 494.9143950918048 L 379.5 494.9143950918048 L 380.5 492.95621743645074 L 380.5 492.95621743645074 L 381.5 491.0073369931597 L 381.5 491.00733699315975 L 382.5 489.06613863131383 L 382.5 489.06613863131383 L 383.5 487.13103218445735 L 383.5 487.13103218445735 L 384.5 485.2004471780641 L 384.5 485.2004471780641 L 385.5 483.27282769313257 L 385.5 483.27282769313257 L 386.5 481.3466015368446 L 386.5 481.34662732962397 L 387.5 479.42030423494066 L 387.5 479.42030423494066 L 388.5 477.49231616340325 L 388.5 477.49231616340325 L 389.5 475.5611155330494 L 389.5 475.5611155330495 L 390.5 473.625144446048 L 390.5 473.625144446048 L 391.5 471.6828296385911 L 391.5 471.6828296385911 L 392.5 469.73257732530203 L 392.5 469.73257732530203 L 393.5 467.7727679019471 L 393.5 467.7727679019471 L 394.5 465.80175046855373 L 394.5 465.80175046855373 L 395.5 463.8178371328795 L 395.5 463.8178371328795 L 396.5 461.819297051504 L 396.5 461.819297051504 L 397.5 459.8043501625893 L 397.5 459.8043501625893 L 398.5 457.7711605604996 L 398.5 457.7711605604996 L 399.5 455.71782945792074 L 399.5 455.71782945792074 L 400.5 453.64238767578263 L 400.5 453.64238767578263 L 401.5 451.542787595058 L 401.5 451.542787595058 L 402.5 449.41689449725493 L 402.5 449.41689449725493 L 403.5 447.26247721199167 L 403.5 447.26247721199167 L 404.5 445.0771979802504 L 404.5 445.0771979802504 L 405.5 442.85860143054526 L 405.5 442.8586014305453 L 406.5 440.60410255203635 L 406.5 440.60410255203635 L 407.5 438.31097353327186 L 407.5 438.3109735332719 L 408.5 435.9763293173774 L 408.5 435.97632931737746 L 409.5 433.59711170367234 L 409.5 433.59711170367234 L 410.5 431.17007180136056 L 410.5 431.17007180136056 L 411.5 428.6917506124498 L 411.5 428.6917506124498 L 412.5 426.1584574876225 L 412.5 426.15845748762257 L 413.5 423.56624615945617 L 413.5 423.5662461594562 L 414.5 420.9108880110076 L 414.5 420.9108880110076 L 415.5 418.1878421829107 L 415.5 418.18784218291074 L 416.5 415.3922220570446 L 416.5 415.3922220570446 L 417.5 412.51875757735684 L 417.5 412.51875757735684 L 418.5 409.561752775917 L 418.5 409.56175277591706 L 419.5 406.5150377614188 L 419.5 406.51503776141885 L 420.5 403.3719142940223 L 420.5 403.37191429402236 L 421.5 400.1250939094675 L 421.5 400.1250939094676 L 422.5 396.7666273602848 L 422.5 396.7666273602849 L 423.5 393.2878239044505 L 423.5 393.28782390445053 L 424.5 389.6791586815046 L 424.5 389.67915868150465 L 425.5 385.9301660595885 L 425.5 385.93016605958854 L 426.5 382.0293163968342 L 426.5 382.02931639683425 L 427.5 377.9638731147808 L 427.5 377.9638731147809 L 428.5 373.71972630100305 L 428.5 373.7197263010031 L 429.5 369.28119820491236 L 429.5 369.28119820491247 L 430.5 364.63081491462395 L 430.5 364.630814914624 L 431.5 359.74903713725297 L 431.5 359.749037137253 L 432.5 354.61394126086293 L 432.5 354.613941260863 L 433.5 349.20083963316483 L 433.5 349.20083963316495 L 434.5 343.4818260861714 L 434.5 343.4818260861715 L 435.5 337.4252289423525 L 435.5 337.42522894235253 L 436.5 330.99494874450556 L 436.5 330.9949487445057 L 437.5 324.1496513216506 L 437.5 324.1496513216507 L 438.5 316.84177791829575 L 438.5 316.84177791829586 L 439.5 309.01632208867784 L 439.5 309.0163220886779 L 440.5 300.60930660701104 L 440.5 300.6093066070111 L 441.5 291.5458708832957 L 441.5 291.5458708832958 L 442.5 281.73784749200365 L 442.5 281.7378474920038 L 443.5 271.08066116791576 L 443.5 271.0806611679159 L 444.5 259.44931846447395 L 444.5 259.4493184644741 L 445.5 246.6931609762222 L 445.5 246.69316097622232 L 446.5 232.62891327396505 L 446.5 232.62891327396517 L 447.5 217.03134188060608 L 447.5 217.03134188060625 L 448.5 199.62050933653 L 448.5 199.62050933653018 L 449.5 180.04408169124048 L 449.5 180.0440816912407 L 450.5 157.852294843123 L 450.5 157.85229484312316 L 451.5 132.46176194258197 L 451.5 132.4617619425822 L 452.5 103.10185288382809 L 452.5 103.10185288382826 L 453.5 68.73300073331734 L 453.5 68.73300073331751 L 454.5 27.918148478195803 L 454.5 27.918148478195974 L 455.3704538186842 -15 M 466.112992567578 977.9999999999999 L 474.5430045888689 978 L 475.5 931.5523878477973 L 475.5 931.5523878477975 L 476.5 891.3160029745104 L 476.5 891.3160029745106 L 477.5 857.3923919359254 L 477.5 857.3923919359255 L 478.5 828.3824657393161 L 478.5 828.3824657393163 L 479.5 803.2720031814099 L 479.5 803.27200318141 L 480.5 781.307817629732 L 480.5 781.3078176297322 L 481.5 761.9188456292485 L 481.5 761.9188456292486 L 482.5 744.6642293932364 L 482.5 744.6642293932366 L 483.5 729.1982012107641 L 483.5 729.1982012107642 L 484.5 715.2457506028413 L 484.5 715.2457506028414 L 485.5 702.5853994493997 L 485.5 702.5853994493998 L 486.5 691.0367751408074 L 486.5 691.0367751408075 L 487.5 680.4514916709431 L 487.5 680.4514916709433 L 488.5 670.706354993045 L 488.5 670.7063549930451 L 489.5 661.6982296395656 L 489.5 661.6982296395657 L 490.5 653.3401112825032 L 490.5 653.3401112825034 L 491.5 645.5580871605545 L 491.5 645.5580871605546 L 492.5 638.2889586960687 L 492.5 638.2889586960688 L 493.5 631.4783638842671 L 493.5 631.4783638842671 L 494.5 625.0792810231487 L 494.5 625.0792810231487 L 495.5 619.0508263759436 L 495.5 619.0508263759438 L 496.5 613.3572805287322 L 496.5 613.3572805287323 L 497.5 607.9672942445399 L 497.5 607.96729424454 L 498.5 602.8532363500976 L 498.5 602.8532363500977 L 499.5 597.9906548686005 L 499.5 597.9906548686006 L 500.5 593.3578290915455 L 500.5 593.3578290915455 L 501.5 588.935395166476 L 501.5 588.9353951664762 L 502.5 584.7060314903354 L 502.5 584.7060314903355 L 503.5 580.65419304395 L 503.5 580.65419304395 L 504.5 576.765886001217 L 504.5 576.7658860012172 L 505.5 573.0284756566277 L 505.5 573.0284756566277 L 506.5 569.4305220543151 L 506.5 569.4305220543152 L 507.5 565.9616387579465 L 507.5 565.9616387579465 L 508.5 562.6123710385945 L 508.5 562.6123710385946 L 509.5 559.374090426229 L 509.5 559.374090426229 L 510.5 556.2389031068448 L 510.5 556.2389031068449 L 511.5 553.1995700798788 L 511.5 553.1995700798789 L 512.5 550.2494373412849 L 512.5 550.2494373412849 L 513.5 547.382374643305 L 513.5 547.382374643305 L 514.5 544.5927216157332 L 514.5 544.5927216157332 L 515.5 541.8752402255749 L 515.5 541.8752402255749 L 516.5 539.2250727105478 L 516.5 539.2250727105478 L 517.5 536.6377042532356 L 517.5 536.6377042532356 L 518.5 534.108929771957 L 518.5 534.108929771957 L 519.5 531.6348242956182 L 519.5 531.6348242956182 L 520.5 529.2117164662126 L 520.5 529.2117164662127 L 521.5 526.836164776835 L 521.5 526.836164776835 L 522.5 524.5049362072065 L 522.5 524.5049362072065 L 523.5 522.214986964485 L 523.5 522.214986964485 L 524.5 519.9634450759456 L 524.5 519.9634450759457 L 525.5 517.7475946131271 L 525.5 517.7475946131271 L 526.5 515.5648613551675 L 526.5 515.5648613551675 L 527.5 513.4127997230938 L 527.5 513.4127997230938 L 528.5 511.2890808374067 L 528.5 511.2890808374067 L 529.5 509.1914815689524 L 529.5 509.1914815689524 L 530.5 507.11787446823934 L 530.5 507.11787446823934 L 531.5 505.066218471403 L 531.5 505.06621847140303 L 532.5 503.03455029224926 L 532.5 503.03455029224926 L 533.5 501.0209764194852 L 533.5 501.0209764194852 L 534.5 499.0236656465711 L 534.5 499.0236656465711 L 535.5 497.0408420688008 L 535.5 497.0408420688008 L 536.5 495.0707784883676 L 536.5 495.0707784883676 L 537.5 493.1117901734487 L 537.5 493.1117901734487 L 538.5 491.16222892182884 L 538.5 491.16222892182884 L 539.5 489.2204773833874 L 539.5 489.2204773833874 L 540.5 487.284943598954 L 540.5 487.284943598954 L 541.5 485.35405571566804 L 541.5 485.35405571566804 L 542.5 483.42625684109464 L 542.5 483.42625684109464 L 543.5 481.5 L 543.5 481.5 L 544.5 479.5737431589054 L 544.5 479.5737431589054 L 545.5 477.64594428433196 L 545.5 477.64594428433196 L 546.5 475.715056401046 L 546.5 475.715056401046 L 547.5 473.7795226166126 L 547.5 473.7795226166126 L 548.5 471.83777107817116 L 548.5 471.83777107817116 L 549.5 469.8882098265513 L 549.5 469.8882098265513 L 550.5 467.9292215116324 L 550.5 467.9292215116324 L 551.5 465.9591579311992 L 551.5 465.9591579311992 L 552.5 463.9763343534289 L 552.5 463.9763343534289 L 553.5 461.9790235805148 L 553.5 461.9790235805148 L 554.5 459.96544970775074 L 554.5 459.96544970775074 L 555.5 457.933781528597 L 555.5 457.933781528597 L 556.5 455.88212553176066 L 556.5 455.88212553176066 L 557.5 453.8085184310476 L 557.5 453.8085184310476 L 558.5 451.7109191625933 L 558.5 451.7109191625933 L 559.5 449.5872002769062 L 559.5 449.5872002769062 L 560.5 447.4351386448325 L 560.5 447.43513864483253 L 561.5 445.25240538687285 L 561.5 445.25240538687285 L 562.5 443.0365549240543 L 562.5 443.0365549240543 L 563.5 440.785013035515 L 563.5 440.785013035515 L 564.5 438.4950637927935 L 564.5 438.49506379279353 L 565.5 436.16383522316505 L 565.5 436.1638352231651 L 566.5 433.78828353378736 L 566.5 433.7882835337874 L 567.5 431.36517570438184 L 567.5 431.36517570438184 L 568.5 428.89107022804296 L 568.5 428.891070228043 L 569.5 426.36229574676435 L 569.5 426.3622957467644 L 570.5 423.7749272894522 L 570.5 423.77492728945225 L 571.5 421.1247597744251 L 571.5 421.1247597744252 L 572.5 418.40727838426676 L 572.5 418.40727838426676 L 573.5 415.61762535669504 L 573.5 415.6176253566951 L 574.5 412.7505626587151 L 574.5 412.7505626587152 L 575.5 409.8004299201212 L 575.5 409.80042992012125 L 576.5 406.7610968931552 L 576.5 406.76109689315524 L 577.5 403.62590957377097 L 577.5 403.625909573771 L 578.5 400.3876289614054 L 578.5 400.3876289614055 L 579.5 397.0383612420535 L 579.5 397.03836124205355 L 580.5 393.5694779456848 L 580.5 393.56947794568487 L 581.5 389.97152434337227 L 581.5 389.9715243433723 L 582.5 386.2341139987829 L 582.5 386.23411399878296 L 583.5 382.34580695604996 L 583.5 382.34580695605 L 584.5 378.2939685096646 L 584.5 378.29396850966464 L 585.5 374.0646048335239 L 585.5 374.06460483352396 L 586.5 369.64217090845455 L 586.5 369.6421709084546 L 587.5 365.00934513139947 L 587.5 365.0093451313995 L 588.5 360.1467636499023 L 588.5 360.14676364990237 L 589.5 355.03270575546014 L 589.5 355.03270575546026 L 590.5 349.64271947126775 L 590.5 349.6427194712678 L 591.5 343.9491736240563 L 591.5 343.94917362405636 L 592.5 337.9207189768513 L 592.5 337.92071897685133 L 593.5 331.5216361157329 L 593.5 331.521636115733 L 594.5 324.7110413039312 L 594.5 324.7110413039313 L 595.5 317.4419128394454 L 595.5 317.44191283944554 L 596.5 309.65988871749664 L 596.5 309.65988871749676 L 597.5 301.3017703604343 L 597.5 301.3017703604344 L 598.5 292.2936450069549 L 598.5 292.29364500695493 L 599.5 282.54850832905686 L 599.5 282.548508329057 L 600.5 271.96322485919245 L 600.5 271.96322485919256 L 601.5 260.4146005506004 L 601.5 260.4146005506005 L 602.5 247.75424939715862 L 602.5 247.75424939715876 L 603.5 233.80179878923568 L 603.5 233.80179878923582 L 604.5 218.3357706067635 L 604.5 218.33577060676367 L 605.5 201.08115437075185 L 605.5 201.08115437075202 L 606.5 181.69218237026797 L 606.5 181.69218237026814 L 607.5 159.72799681858965 L 607.5 159.72799681858987 L 608.5 134.61753426068384 L 608.5 134.61753426068412 L 609.5 105.6076080640753 L 609.5 105.60760806407546 L 610.5 71.68399702548965 L 610.5 71.68399702548993 L 611.5 31.447612152201998 L 611.5 31.44761215220217 L 612.4569954111312 -15.000000000000002 M 623.0415675965655 978 L 631.6295461813157 978 L 632.5 935.0818515218034 L 632.5 935.0818515218036 L 633.5 894.2669992666827 L 633.5 894.2669992666829 L 634.5 859.8981471161716 L 634.5 859.8981471161717 L 635.5 830.5382380574183 L 635.5 830.5382380574185 L 636.5 805.1477051568768 L 636.5 805.1477051568769 L 637.5 782.9559183087597 L 637.5 782.9559183087599 L 638.5 763.3794906634697 L 638.5 763.3794906634698 L 639.5 745.9686581193941 L 639.5 745.9686581193941 L 640.5 730.3710867260347 L 640.5 730.371086726035 L 641.5 716.3068390237779 L 641.5 716.306839023778 L 642.5 703.5506815355259 L 642.5 703.550681535526 L 643.5 691.9193388320843 L 643.5 691.9193388320845 L 644.5 681.2621525079962 L 644.5 681.2621525079963 L 645.5 671.4541291167042 L 645.5 671.4541291167043 L 646.5 662.390693392989 L 646.5 662.3906933929891 L 647.5 653.9836779113223 L 647.5 653.9836779113224 L 648.5 646.1582220817041 L 648.5 646.1582220817043 L 649.5 638.8503486783493 L 649.5 638.8503486783494 L 650.5 632.0050512554944 L 650.5 632.0050512554944 L 651.5 625.5747710576476 L 651.5 625.5747710576477 L 652.5 619.5181739138285 L 652.5 619.5181739138286 L 653.5 613.7991603668349 L 653.5 613.799160366835 L 654.5 608.3860587391371 L 654.5 608.3860587391372 L 655.5 603.2509628627471 L 655.5 603.2509628627471 L 656.5 598.369185085376 L 656.5 598.3691850853761 L 657.5 593.7188017950875 L 657.5 593.7188017950875 L 658.5 589.2802736989969 L 658.5 589.280273698997 L 659.5 585.0361268852191 L 659.5 585.0361268852192 L 660.5 580.9706836031658 L 660.5 580.9706836031659 L 661.5 577.0698339404115 L 661.5 577.0698339404115 L 662.5 573.3208413184954 L 662.5 573.3208413184955 L 663.5 569.7121760955495 L 663.5 569.7121760955496 L 664.5 566.2333726397152 L 664.5 566.2333726397152 L 665.5 562.8749060905325 L 665.5 562.8749060905325 L 666.5 559.6280857059776 L 666.5 559.6280857059777 L 667.5 556.4849622385811 L 667.5 556.4849622385813 L 668.5 553.438247224083 L 668.5 553.438247224083 L 669.5 550.4812424226432 L 669.5 550.4812424226432 L 670.5 547.6077779429554 L 670.5 547.6077779429554 L 671.5 544.8121578170893 L 671.5 544.8121578170893 L 672.5 542.0891119889924 L 672.5 542.0891119889925 L 673.5 539.4337538405438 L 673.5 539.4337538405438 L 674.5 536.8415425123774 L 674.5 536.8415425123775 L 675.5 534.3082493875502 L 675.5 534.3082493875502 L 676.5 531.8299281986394 L 676.5 531.8299281986395 L 677.5 529.4028882963277 L 677.5 529.4028882963277 L 678.5 527.0236706826225 L 678.5 527.0236706826225 L 679.5 524.6890264667281 L 679.5 524.6890264667281 L 680.5 522.3958974479636 L 680.5 522.3958974479638 L 681.5 520.1413985694547 L 681.5 520.1413985694547 L 682.5 517.9228020197496 L 682.5 517.9228020197496 L 683.5 515.7375227880083 L 683.5 515.7375227880083 L 684.5 513.5831055027451 L 684.5 513.5831055027451 L 685.5 511.4572124049421 L 685.5 511.4572124049421 L 686.5 509.35761232421737 L 686.5 509.35761232421737 L 687.5 507.2821705420792 L 687.5 507.28217054207926 L 688.5 505.2288394395004 L 688.5 505.2288394395004 L 689.5 503.19564983741077 L 689.5 503.19564983741077 L 690.5 501.180702948496 L 690.5 501.180702948496 L 691.5 499.18216286712044 L 691.5 499.18216286712044 L 692.5 497.19824953144627 L 692.5 497.19824953144627 L 693.5 495.227232098053 L 693.5 495.227232098053 L 694.5 493.26742267469797 L 694.5 493.26742267469797 L 695.5 491.31717036140884 L 695.5 491.3171703614089 L 696.5 489.37485555395205 L 696.5 489.37485555395205 L 697.5 487.4388844669506 L 697.5 487.43888446695064 L 698.5 485.50768383659675 L 698.5 485.50768383659675 L 699.5 483.5796957650593 L 699.5 483.5796957650593 L 700.5 481.65337267037603 L 700.5 481.6533984631554 L 701.5 479.7271723068675 L 701.5 479.7271723068675 L 702.5 477.7995528219359 L 702.5 477.7995528219359 L 703.5 475.86896781554265 L 703.5 475.86896781554265 L 704.5 473.9338613686861 L 704.5 473.9338613686861 L 705.5 471.9926630068403 L 705.5 471.9926630068403 L 706.5 470.0437825635493 L 706.5 470.0437825635493 L 707.5 468.0856049081952 L 707.5 468.0856049081952 L 708.5 466.1164845003389 L 708.5 466.1164845003389 L 709.5 464.13473973095677 L 709.5 464.13473973095677 L 710.5 462.1386470083059 L 710.5 462.1386470083059 L 711.5 460.1264345430189 L 711.5 460.1264345430189 L 712.5 458.0962757832755 L 712.5 458.0962757832755 L 713.5 456.046282446467 L 713.5 456.046282446467 L 714.5 453.9744970885653 L 714.5 453.9744970885653 L 715.5 451.87888514632436 L 715.5 451.87888514632436 L 716.5 449.7573263803638 L 716.5 449.7573263803638 L 717.5 447.60760563894917 L 717.5 447.60760563894917 L 718.5 445.42740285272737 L 718.5 445.42740285272737 L 719.5 443.21428215957536 L 719.5 443.2142821595754 L 720.5 440.9656800458322 L 720.5 440.96568004583224 L 721.5 438.6788923752006 L 721.5 438.6788923752006 L 722.5 436.35106015916597 L 722.5 436.35106015916597 L 723.5 433.9791539024538 L 723.5 433.97915390245385 L 724.5 431.5599563333059 L 724.5 431.5599563333059 L 725.5 429.09004330057644 L 725.5 429.0900433005765 L 726.5 426.56576258706383 L 726.5 426.5657625870639 L 727.5 423.9832103501782 L 727.5 423.98321035017824 L 728.5 421.3382048558746 L 728.5 421.33820485587466 L 729.5 418.6262571183737 L 729.5 418.62625711837376 L 730.5 415.8425379948623 L 730.5 415.84253799486237 L 731.5 412.98184120902766 L 731.5 412.9818412090277 L 732.5 410.0385416873696 L 732.5 410.0385416873697 L 733.5 407.006548484549 L 733.5 407.00654848454906 L 734.5 403.8792514446019 L 734.5 403.8792514446019 L 735.5 400.64946058868503 L 735.5 400.6494605886851 L 736.5 397.30933703085304 L 736.5 397.3093370308531 L 737.5 393.8503139932715 L 737.5 393.8503139932716 L 738.5 390.2630062111736 L 738.5 390.26300621117366 L 739.5 386.5371056728918 L 739.5 386.5371056728918 L 740.5 382.66126121491214 L 740.5 382.6612612149122 L 741.5 378.62293896472175 L 741.5 378.6229389647218 L 742.5 374.4082599674683 L 742.5 374.40825996746844 L 743.5 370.0018105097357 L 743.5 370.00181050973583 L 744.5 365.38641961713057 L 744.5 365.3864196171306 L 745.5 360.5428968882498 L 745.5 360.54289688824986 L 746.5 355.4497221508788 L 746.5 355.44972215087887 L 747.5 350.0826762722897 L 747.5 350.08267627228975 L 748.5 344.4143996683826 L 748.5 344.41439966838266 L 749.5 338.4138614224163 L 749.5 338.4138614224164 L 750.5 332.0457171472483 L 750.5 332.0457171472484 L 751.5 325.2695273916378 L 751.5 325.2695273916379 L 752.5 318.0387999164525 L 752.5 318.0387999164526 L 753.5 310.2998077147988 L 753.5 310.29980771479893 L 754.5 301.99011901185395 L 754.5 301.99011901185406 L 755.5 293.03675388313593 L 755.5 293.03675388313604 L 756.5 283.35385193966124 L 756.5 283.35385193966135 L 757.5 272.83969277021936 L 757.5 272.8396927702194 L 758.5 261.3728494095602 L 758.5 261.37284940956033 L 759.5 248.80716550414232 L 759.5 248.80716550414243 L 760.5 234.96511394171176 L 760.5 234.9651139417119 L 761.5 219.62889391766402 L 761.5 219.6288939176642 L 762.5 202.52831388138344 L 762.5 202.52831388138355 L 763.5 183.32401992343023 L 763.5 183.3240199234304 L 764.5 161.58384093292722 L 764.5 161.5838409329274 L 765.5 136.74871274396048 L 765.5 136.7487127439607 L 766.5 108.08240074157402 L 766.5 108.08240074157419 L 767.5 74.59526049884107 L 767.5 74.5952604988413 L 768.5 34.92492314672245 L 768.5 34.92492314672273 L 769.5 -12.85744006976796 L 769.5 -12.857440069767677 L 769.5364888107808 -15 M 779.9688300465958 978.0000000000001 L 788.7147839251502 978 L 789.5 938.6646683315887 L 789.5 938.6646683315889 L 790.5 897.2585626553481 L 790.5 897.2585626553482 L 791.5 862.4354624747731 L 791.5 862.4354624747732 L 792.5 832.7190435285187 L 792.5 832.7190435285189 L 793.5 807.043595101547 L 793.5 807.0435951015472 L 794.5 784.6205349391932 L 794.5 784.6205349391935 L 795.5 764.8538181176948 L 795.5 764.853818117695 L 796.5 747.2845478768074 L 796.5 747.2845478768077 L 797.5 731.5536672162244 L 797.5 731.5536672162245 L 798.5 717.3762007207966 L 798.5 717.3762007207968 L 799.5 704.5230795175729 L 799.5 704.523079517573 L 800.5 692.808066643518 L 800.5 692.8080666435181 L 801.5 682.0781875593831 L 801.5 682.0781875593832 L 802.5 672.2066163883635 L 802.5 672.2066163883636 L 803.5 663.0873128051535 L 803.5 663.0873128051536 L 804.5 654.6309267417814 L 804.5 654.6309267417815 L 805.5 646.7616344975906 L 805.5 646.7616344975908 L 806.5 639.4146681331024 L 806.5 639.4146681331025 L 807.5 632.5343671494821 L 807.5 632.5343671494823 L 808.5 626.0726280162075 L 808.5 626.0726280162077 L 809.5 619.9876598770659 L 809.5 619.987659877066 L 810.5 614.2429781343919 L 810.5 614.242978134392 L 811.5 608.8065844856807 L 811.5 608.8065844856808 L 812.5 603.650294311377 L 812.5 603.650294311377 L 813.5 598.7491814109596 L 813.5 598.7491814109596 L 814.5 594.0811168683831 L 814.5 594.0811168683832 L 815.5 589.6263839335968 L 815.5 589.6263839335968 L 816.5 585.3673546832654 L 816.5 585.3673546832655 L 817.5 581.2882171911955 L 817.5 581.2882171911956 L 818.5 577.3747442281972 L 818.5 577.3747442281973 L 819.5 573.6140962900902 L 819.5 573.6140962900903 L 820.5 569.9946531446304 L 820.5 569.9946531446304 L 821.5 566.5058691845521 L 821.5 566.5058691845521 L 822.5 563.1381487428725 L 822.5 563.1381487428725 L 823.5 559.8827382193185 L 823.5 559.8827382193185 L 824.5 556.7316324220556 L 824.5 556.7316324220556 L 825.5 553.6774929764557 L 825.5 553.6774929764558 L 826.5 550.7135770151518 L 826.5 550.7135770151519 L 827.5 547.833674658702 L 827.5 547.833674658702 L 828.5 545.0320540374508 L 828.5 545.0320540374508 L 829.5 542.3034128033344 L 829.5 542.3034128033344 L 830.5 539.6428352437853 L 830.5 539.6428352437854 L 831.5 537.0457542452315 L 831.5 537.0457542452315 L 832.5 534.5079174661478 L 832.5 534.5079174661478 L 833.5 532.0253571734769 L 833.5 532.025357173477 L 834.5 529.5943632747868 L 834.5 529.5943632747868 L 835.5 527.2114591445343 L 835.5 527.2114591445343 L 836.5 524.8733798984092 L 836.5 524.8733798984092 L 837.5 522.5770528167418 L 837.5 522.5770528167418 L 838.5 520.3195796577918 L 838.5 520.3195796577918 L 839.5 518.0982206356068 L 839.5 518.0982206356068 L 840.5 515.9103798659864 L 840.5 515.9103798659864 L 841.5 513.7535921087342 L 841.5 513.7535921087342 L 842.5 511.6255106554682 L 842.5 511.62551065546825 L 843.5 509.5238962303514 L 843.5 509.5238962303514 L 844.5 507.4466067866327 L 844.5 507.44660678663274 L 845.5 505.3915880952518 L 845.5 505.3915880952518 L 846.5 503.35686503326434 L 846.5 503.35686503326434 L 847.5 501.34053348974504 L 847.5 501.34053348974504 L 848.5 499.34075281536377 L 848.5 499.34075281536377 L 849.5 497.3557387491656 L 849.5 497.3557387491656 L 850.5 495.38375676239957 L 850.5 495.38375676239957 L 851.5 493.42311576463953 L 851.5 493.42311576463953 L 852.5 491.47216212205495 L 852.5 491.47216212205495 L 853.5 489.529273941589 L 853.5 489.529273941589 L 854.5 487.5928555780864 L 854.5 487.5928555780864 L 855.5 485.66133232411727 L 855.5 485.66133232411727 L 856.5 483.7331452444481 L 856.5 483.7331452444481 L 857.5 481.80674611882887 L 857.5 481.80678793133075 L 858.5 479.88059245805033 L 858.5 479.88059245805033 L 859.5 477.95314255908363 L 859.5 477.95314255908363 L 860.5 476.02285056557713 L 860.5 476.02285056557713 L 861.5 474.088161500042 L 861.5 474.088161500042 L 862.5 472.1475062337339 L 862.5 472.1475062337339 L 863.5 470.199296359498 L 863.5 470.199296359498 L 864.5 468.2419189317067 L 864.5 468.2419189317067 L 865.5 466.27373103583545 L 865.5 466.27373103583545 L 866.5 464.29305414817935 L 866.5 464.29305414817935 L 867.5 462.29816824367447 L 867.5 462.29816824367447 L 868.5 460.2873056066902 L 868.5 460.2873056066902 L 869.5 458.25864429596766 L 869.5 458.25864429596766 L 870.5 456.21030121049625 L 870.5 456.21030121049625 L 871.5 454.1403246979881 L 871.5 454.14032469798815 L 872.5 452.04668664159533 L 872.5 452.04668664159533 L 873.5 449.9272739535253 L 873.5 449.92727395352534 L 874.5 447.77987939606885 L 874.5 447.77987939606885 L 875.5 445.6021916411155 L 875.5 445.60219164111555 L 876.5 443.3917844682585 L 876.5 443.39178446825855 L 877.5 441.1461049888602 L 877.5 441.14610498886026 L 878.5 438.8624607686395 L 878.5 438.8624607686395 L 879.5 436.5380057041207 L 879.5 436.5380057041207 L 880.5 434.16972448819723 L 880.5 434.16972448819723 L 881.5 431.7544154766242 L 881.5 431.7544154766242 L 882.5 429.2886717398144 L 882.5 429.28867173981445 L 883.5 426.76886005214766 L 883.5 426.76886005214766 L 884.5 424.19109753317775 L 884.5 424.1910975331778 L 885.5 421.5512256105483 L 885.5 421.55122561054833 L 886.5 418.8447809217277 L 886.5 418.84478092172776 L 887.5 416.06696270921225 L 887.5 416.0669627092123 L 888.5 413.2125961895457 L 888.5 413.21259618954576 L 889.5 410.2760912878621 L 889.5 410.2760912878621 L 890.5 407.25139602352806 L 890.5 407.2513960235281 L 891.5 404.131943704924 L 891.5 404.1319437049241 L 892.5 400.9105929375854 L 892.5 400.9105929375854 L 893.5 397.5795592636482 L 893.5 397.57955926364826 L 894.5 394.1303370240514 L 894.5 394.13033702405147 L 895.5 390.5536097583329 L 895.5 390.553609758333 L 896.5 386.83914711752976 L 896.5 386.8391471175298 L 897.5 382.97568584741026 L 897.5 382.9756858474103 L 898.5 378.9507918811304 L 898.5 378.95079188113044 L 899.5 374.7506999351635 L 899.5 374.7506999351636 L 900.5 370.3601261944475 L 900.5 370.36012619444756 L 901.5 365.7620486551999 L 901.5 365.7620486552 L 902.5 360.9374484046265 L 902.5 360.9374484046266 L 903.5 355.8650034726422 L 903.5 355.86500347264223 L 904.5 350.5207247798366 L 904.5 350.52072477983666 L 905.5 344.877520976143 L 905.5 344.87752097614305 L 906.5 338.90467540768464 L 906.5 338.90467540768475 L 907.5 332.56721377678 L 907.5 332.56721377678014 L 908.5 325.8251348694262 L 908.5 325.8251348694263 L 909.5 318.6324684470717 L 909.5 318.6324684470718 L 910.5 310.93611322313774 L 910.5 310.9361132231378 L 911.5 302.67439259589685 L 911.5 302.67439259589696 L 912.5 293.7752447694903 L 912.5 293.7752447694904 L 913.5 284.1539345129661 L 913.5 284.15393451296615 L 914.5 273.7101322386917 L 914.5 273.71013223869176 L 915.5 262.32414643895345 L 915.5 262.32414643895356 L 916.5 249.85200862779843 L 916.5 249.85200862779854 L 917.5 236.11898122187333 L 917.5 236.1189812218735 L 918.5 220.9108646297904 L 918.5 220.91086462979052 L 919.5 203.96218101024112 L 919.5 203.9621810102413 L 920.5 184.93984204770106 L 920.5 184.93984204770123 L 921.5 163.42015014199694 L 921.5 163.4201501419971 L 922.5 138.85572649690653 L 922.5 138.85572649690675 L 923.5 110.52681360187017 L 923.5 110.5268136018704 L 924.5 77.46760271770074 L 924.5 77.46760271770091 L 925.5 38.35124617997275 L 925.5 38.35124617997303 L 926.5 -8.696263384446922 L 926.5 -8.696263384446638 L 926.6092230884198 -15 M 936.8947806556765 978 L 945.7987169555352 978 L 946.5 942.3020758529161 L 946.5 942.3020758529162 L 947.5 900.2915509317802 L 947.5 900.2915509317804 L 948.5 865.0049511626016 L 948.5 865.0049511626017 L 949.5 834.9253319902186 L 949.5 834.9253319902189 L 950.5 808.9600104748408 L 950.5 808.9600104748409 L 951.5 786.3019256086005 L 951.5 786.3019256086006 L 952.5 766.3420287346446 L 952.5 766.3420287346448 L 953.5 748.6120571454231 L 953.5 748.6120571454233 L 954.5 732.7460694612637 L 954.5 732.7460694612639 L 955.5 718.4539383211916 L 955.5 718.4539383211918 L 956.5 705.5026773603811 L 956.5 705.5026773603811 L 957.5 693.7030279359601 L 957.5 693.7030279359602 L 958.5 682.899654625988 L 958.5 682.899654625988 L 959.5 672.9638653624037 L 959.5 672.9638653624038 L 960.5 663.7881289634655 L 960.5 663.7881289634656 L 961.5 655.281892778304 L 961.5 655.2818927783042 L 962.5 647.3683544169916 L 962.5 647.3683544169917 L 963.5 639.9819429357474 L 963.5 639.9819429357475 L 964.5 633.0663339980533 L 964.5 633.0663339980536 L 965.5 626.5728714432539 L 965.5 626.572871443254 L 966.5 620.4593013745506 L 966.5 620.4593013745507 L 967.5 614.6887488744379 L 967.5 614.688748874438 L 968.5 609.2288847657543 L 968.5 609.2288847657544 L 969.5 604.0512424683218 L 969.5 604.0512424683219 L 970.5 599.1306543185938 L 970.5 599.1306543185938 L 971.5 594.4447836616512 L 971.5 594.4447836616512 L 972.5 589.9737342457368 L 972.5 589.9737342457368 L 973.5 585.6997224106334 L 973.5 585.6997224106335 L 974.5 581.6068005915395 L 974.5 581.6068005915395 L 975.5 577.6806229964593 L 975.5 577.6806229964593 L 976.5 573.9082461297301 L 976.5 573.9082461297301 L 977.5 570.2779582534785 L 977.5 570.2779582534786 L 978.5 566.7791329960058 L 978.5 566.7791329960058 L 979.5 563.4021032010975 L 979.5 563.4021032010975 L 980.5 560.1380518174308 L 980.5 560.1380518174308 L 981.5 556.9789171923403 L 981.5 556.9789171923404 L 982.5 553.9173105894065 L 982.5 553.9173105894065 L 983.5 550.9464441179307 L 983.5 550.9464441179308 L 984.5 548.060067562248 L 984.5 548.060067562248 L 985.5 545.2524128439618 L 985.5 545.2524128439618 L 986.5 542.5181450514326 L 986.5 542.5181450514326 L 987.5 539.8523191367799 L 987.5 539.8523191367799 L 988.5 537.2503415180007 L 988.5 537.2503415180008 L 989.5 534.7079359379553 L 989.5 534.7079359379553 L 990.5 532.2211130271482 L 990.5 532.2211130271484 L 991.5 529.7861430969205 L 991.5 529.7861430969205 L 992.5 527.3995317565633 L 992.5 527.3995317565633 L 993.5 525.0579980042464 L 993.5 525.0579980042464 L 994.5 522.7584544892708 L 994.5 522.7584544892708 L 995.5 520.4979896835308 L 995.5 520.4979896835308 L 996.5 518.2738517343714 L 996.5 518.2738517343714 L 997.5 516.0834338002385 L 997.5 516.0834338002385 L 998.5 513.9242606954859 L 998.5 513.9242606954859 L 999.5 511.7939766920449 L 999.5 511.7939766920449 L 1000.5 509.6903343439742 L 1000.5 509.6903343439742 L 1001.5 507.6111842166301 L 1001.5 507.61118421663014 L 1002.5 505.55446541571945 L 1002.5 505.55446541571945 L 1003.5 503.51819682313425 L 1003.5 503.51819682313425 L 1004.5 501.5004689564937 L 1004.5 501.5004689564937 L 1005.5 499.4994363779505 L 1005.5 499.4994363779505 L 1006.5 497.5133105852522 L 1006.5 497.5133105852522 L 1007.5 495.5403533244316 L 1007.5 495.5403533244316 L 1008.5 493.5788702689717 L 1008.5 493.5788702689717 L 1009.5 491.62720501495926 L 1009.5 491.62720501495926 L 1010.5 489.6837333457039 L 1010.5 489.6837333457039 L 1011.5 487.74685772261734 L 1011.5 487.74685772261734 L 1012.5 485.81500196191087 L 1012.5 485.81500196191087 L 1013.5 483.8866060588971 L 1013.5 483.8866060588971 L 1014.5 481.9601211234512 L 1014.5 481.96016918341087 L 1015.5 480.0340043914944 L 1015.5 480.0340043914944 L 1016.5 478.10671427826156 L 1016.5 478.10671427826156 L 1017.5 476.17670543960287 L 1017.5 476.17670543960287 L 1018.5 474.2424238076631 L 1018.5 474.2424238076631 L 1019.5 472.30230156698474 L 1019.5 472.30230156698474 L 1020.5 470.35475203637765 L 1020.5 470.35475203637765 L 1021.5 468.3981644207897 L 1021.5 468.3981644207897 L 1022.5 466.430898395865 L 1022.5 466.43089839586503 L 1023.5 464.4512784858772 L 1023.5 464.4512784858772 L 1024.5 462.4575881932182 L 1024.5 462.4575881932182 L 1025.5 460.4480638345818 L 1025.5 460.44806383458183 L 1026.5 458.4208880353286 L 1026.5 458.4208880353286 L 1027.5 456.37418282920777 L 1027.5 456.37418282920777 L 1028.5 454.30600230552767 L 1028.5 454.30600230552767 L 1029.5 452.21432473993866 L 1029.5 452.2143247399387 L 1030.5 450.097044138075 L 1030.5 450.097044138075 L 1031.5 447.9519611132689 L 1031.5 447.95196111326896 L 1032.5 445.77677301021254 L 1032.5 445.7767730102126 L 1033.5 443.56906317560737 L 1033.5 443.56906317560737 L 1034.5 441.3262892642538 L 1034.5 441.3262892642538 L 1035.5 439.0457704544109 L 1035.5 439.04577045441096 L 1036.5 436.72467342923073 L 1036.5 436.72467342923073 L 1037.5 434.3599969612378 L 1037.5 434.35999696123787 L 1038.5 431.9485549136731 L 1038.5 431.9485549136731 L 1039.5 429.48695744542084 L 1039.5 429.4869574454209 L 1040.5 426.9715901744883 L 1040.5 426.9715901744883 L 1041.5 424.39859101766297 L 1041.5 424.39859101766297 L 1042.5 421.7638243799871 L 1042.5 421.76382437998717 L 1043.5 419.0628523156901 L 1043.5 419.0628523156902 L 1044.5 416.2909022206058 L 1044.5 416.29090222060586 L 1045.5 413.44283054282795 L 1045.5 413.442830542828 L 1046.5 410.51308191096746 L 1046.5 410.5130819109675 L 1047.5 407.4956429747599 L 1047.5 407.4956429747599 L 1048.5 404.3839901271179 L 1048.5 404.38399012711795 L 1049.5 401.17103012519175 L 1049.5 401.1710301251918 L 1050.5 397.84903244458053 L 1050.5 397.84903244458053 L 1051.5 394.40955197786565 L 1051.5 394.4095519778657 L 1052.5 390.8433404164536 L 1052.5 390.84334041645366 L 1053.5 387.14024432090207 L 1053.5 387.1402443209021 L 1054.5 383.2890874736248 L 1054.5 383.2890874736249 L 1055.5 379.27753459856854 L 1055.5 379.2775345985686 L 1056.5 375.0919328985344 L 1056.5 375.09193289853454 L 1057.5 370.7171270673925 L 1057.5 370.71712706739254 L 1058.5 366.136242435692 L 1058.5 366.1362424356921 L 1059.5 361.3304296433083 L 1059.5 361.33042964330843 L 1060.5 356.2785626205769 L 1060.5 356.27856262057696 L 1061.5 350.9568795906135 L 1061.5 350.95687959061354 L 1062.5 345.33855413179197 L 1062.5 345.3385541317921 L 1063.5 339.39317985756577 L 1063.5 339.3931798575659 L 1064.5 333.08614770013105 L 1064.5 333.08614770013116 L 1065.5 326.3778887329155 L 1065.5 326.3778887329156 L 1066.5 319.2229473814649 L 1066.5 319.222947381465 L 1067.5 311.5688389641031 L 1067.5 311.5688389641032 L 1068.5 303.354630633469 L 1068.5 303.35463063346907 L 1069.5 294.5091642915653 L 1069.5 294.5091642915654 L 1070.5 284.94881145334523 L 1070.5 284.94881145334534 L 1071.5 274.57460961841883 L 1071.5 274.5746096184189 L 1072.5 263.26857178958784 L 1072.5 263.268571789588 L 1073.5 250.88887650009352 L 1073.5 250.88887650009363 L 1074.5 237.2635210435426 L 1074.5 237.26352104354274 L 1075.5 222.18183282280654 L 1075.5 222.1818328228067 L 1076.5 205.3829452336447 L 1076.5 205.38294523364488 L 1077.5 186.5398914409053 L 1077.5 186.53989144090548 L 1078.5 165.2372404421434 L 1078.5 165.23724044214362 L 1079.5 140.93899470548422 L 1079.5 140.93899470548445 L 1080.5 112.94141480751864 L 1080.5 112.94141480751887 L 1081.5 80.30181330085156 L 1081.5 80.30181330085173 L 1082.5 41.72771155225263 L 1082.5 41.727711552252856 L 1083.5 -4.602014242024552 L 1083.5 -4.602014242024268 L 1083.68326893825 -15" stroke-opacity="0.8" stroke-linecap="round" stroke-linejoin="round" stroke-miterlimit="10" stroke-width="5"/><g transform="scale(27,27)"><g transform="translate(2.740740740740741,20.083333333333332)"><path fill="rgb(211,47,47)" stroke="none" paint-order="stroke fill markers" d=" M 0.17300000000000001 -0.4 L 0.17300000000000001 -0.4 L 0.17300000000000001 -0.122 Q 0.17300000000000001 -0.022 0.231 -0.015 Q 0.23500000000000001 -0.014 0.24 -0.014 Q 0.28300000000000003 -0.014 0.3 -0.07 Q 0.307 -0.094 0.307 -0.126 L 0.307 -0.181 L 0.332 -0.181 L 0.332 -0.124 Q 0.332 -0.042 0.28600000000000003 -0.006 Q 0.264 0.011 0.233 0.011 Q 0.149 0.011 0.11800000000000001 -0.052000000000000005 Q 0.10400000000000001 -0.082 0.10400000000000001 -0.124 L 0.10400000000000001 -0.4 L 0.019 -0.4 L 0.019 -0.422 Q 0.108 -0.426 0.137 -0.534 Q 0.147 -0.5720000000000001 0.148 -0.615 L 0.17300000000000001 -0.615 L 0.17300000000000001 -0.431 L 0.316 -0.431 L 0.316 -0.4 L 0.17300000000000001 -0.4 Z"/></g><g transform="translate(3.1297407407407407,20.083333333333332)"><path fill="rgb(211,47,47)" stroke="none" paint-order="stroke fill markers" d=" M 0.333 -0.076 Q 0.308 -0.014 0.245 0.005 Q 0.225 0.011 0.202 0.011 Q 0.117 0.011 0.07100000000000001 -0.03 Q 0.042 -0.056 0.042 -0.095 Q 0.042 -0.17200000000000001 0.127 -0.218 Q 0.134 -0.222 0.14200000000000002 -0.225 Q 0.203 -0.254 0.321 -0.261 L 0.326 -0.261 L 0.326 -0.298 Q 0.326 -0.383 0.265 -0.41500000000000004 Q 0.244 -0.426 0.22 -0.426 Q 0.154 -0.426 0.11800000000000001 -0.387 Q 0.115 -0.383 0.112 -0.38 Q 0.159 -0.374 0.163 -0.334 Q 0.163 -0.3 0.132 -0.29 Q 0.125 -0.28800000000000003 0.117 -0.28800000000000003 Q 0.081 -0.28800000000000003 0.073 -0.321 Q 0.07100000000000001 -0.326 0.07100000000000001 -0.335 Q 0.07100000000000001 -0.395 0.134 -0.427 Q 0.17300000000000001 -0.448 0.222 -0.448 Q 0.304 -0.448 0.359 -0.393 Q 0.394 -0.357 0.395 -0.293 L 0.395 -0.292 L 0.395 -0.275 L 0.395 -0.075 Q 0.395 -0.046 0.41300000000000003 -0.032 Q 0.421 -0.025 0.432 -0.025 Q 0.467 -0.025 0.468 -0.089 L 0.468 -0.145 L 0.493 -0.145 L 0.493 -0.089 Q 0.493 -0.016 0.433 0.002 Q 0.421 0.006 0.41100000000000003 0.006 Q 0.362 0.006 0.341 -0.046 Q 0.335 -0.06 0.333 -0.076 M 0.326 -0.24 Q 0.17200000000000001 -0.234 0.13 -0.146 Q 0.11900000000000001 -0.122 0.11900000000000001 -0.096 Q 0.11900000000000001 -0.045 0.165 -0.021 Q 0.185 -0.011 0.209 -0.011 Q 0.261 -0.011 0.296 -0.052000000000000005 Q 0.326 -0.08600000000000001 0.326 -0.14 L 0.326 -0.24 Z"/></g><g transform="translate(3.6297407407407407,20.083333333333332)"><path fill="rgb(211,47,47)" stroke="none" paint-order="stroke fill markers" d=" M 0.11 -0.34400000000000003 Q 0.11 -0.383 0.095 -0.392 Q 0.083 -0.399 0.052000000000000005 -0.4 L 0.032 -0.4 L 0.032 -0.431 L 0.17300000000000001 -0.442 L 0.17300000000000001 -0.337 Q 0.22 -0.442 0.321 -0.442 Q 0.396 -0.442 0.426 -0.405 Q 0.453 -0.374 0.456 -0.32 Q 0.457 -0.301 0.457 -0.252 L 0.457 -0.061 Q 0.458 -0.037 0.486 -0.033 Q 0.498 -0.031 0.535 -0.031 L 0.535 0 Q 0.433 -0.003 0.423 -0.003 Q 0.41500000000000004 -0.003 0.31 0 L 0.31 -0.031 Q 0.369 -0.031 0.379 -0.04 L 0.381 -0.042 Q 0.388 -0.05 0.388 -0.076 L 0.388 -0.309 Q 0.388 -0.40800000000000003 0.331 -0.418 Q 0.323 -0.42 0.314 -0.42 Q 0.253 -0.42 0.212 -0.367 Q 0.179 -0.324 0.179 -0.26 L 0.179 -0.076 Q 0.179 -0.042 0.195 -0.036000000000000004 Q 0.20600000000000002 -0.031 0.257 -0.031 L 0.257 0 Q 0.155 -0.003 0.145 -0.003 Q 0.137 -0.003 0.032 0 L 0.032 -0.031 Q 0.091 -0.031 0.101 -0.04 L 0.10300000000000001 -0.042 Q 0.11 -0.05 0.11 -0.076 L 0.11 -0.34400000000000003 Z"/></g><g transform="translate(4.185740740740741,20.083333333333332)"><path fill="rgb(211,47,47)" stroke="none" paint-order="stroke fill markers" d=" M 0.331 0.24 L 0.331 0.24 Q 0.331 0.25 0.321 0.25 Q 0.309 0.25 0.268 0.209 Q 0.20600000000000002 0.147 0.165 0.062 Q 0.099 -0.074 0.099 -0.25 Q 0.099 -0.419 0.162 -0.555 Q 0.214 -0.666 0.294 -0.733 Q 0.315 -0.75 0.321 -0.75 Q 0.331 -0.75 0.331 -0.74 Q 0.331 -0.735 0.318 -0.723 Q 0.157 -0.559 0.157 -0.25 Q 0.157 0.058 0.314 0.218 Q 0.331 0.23500000000000001 0.331 0.24 Z"/></g><g transform="translate(4.574740740740741,20.083333333333332)"><path fill="rgb(211,47,47)" stroke="none" paint-order="stroke fill markers" d=" M 0.334 -0.302 L 0.3 -0.165 Q 0.28300000000000003 -0.097 0.28300000000000003 -0.077 Q 0.28300000000000003 -0.025 0.32 -0.014 Q 0.328 -0.011 0.338 -0.011 Q 0.388 -0.011 0.429 -0.061 Q 0.456 -0.093 0.47100000000000003 -0.14200000000000002 Q 0.47400000000000003 -0.153 0.484 -0.153 Q 0.496 -0.153 0.496 -0.14300000000000002 Q 0.496 -0.11800000000000001 0.465 -0.07100000000000001 Q 0.41100000000000003 0.011 0.336 0.011 Q 0.268 0.011 0.23700000000000002 -0.046 Q 0.231 -0.055 0.228 -0.065 Q 0.20400000000000001 -0.017 0.162 0.002 Q 0.14300000000000002 0.011 0.123 0.011 Q 0.063 0.011 0.039 -0.024 Q 0.029 -0.037 0.029 -0.055 Q 0.029 -0.092 0.061 -0.107 Q 0.07200000000000001 -0.113 0.084 -0.113 Q 0.114 -0.113 0.12 -0.088 Q 0.121 -0.083 0.121 -0.078 Q 0.121 -0.044 0.08700000000000001 -0.028 Q 0.081 -0.025 0.074 -0.024 Q 0.095 -0.011 0.124 -0.011 Q 0.177 -0.011 0.20800000000000002 -0.082 Q 0.214 -0.097 0.219 -0.115 Q 0.273 -0.319 0.273 -0.353 Q 0.267 -0.41500000000000004 0.219 -0.42 Q 0.167 -0.42 0.124 -0.367 L 0.124 -0.366 Q 0.124 -0.365 0.123 -0.365 Q 0.108 -0.34500000000000003 0.096 -0.319 Q 0.091 -0.307 0.08700000000000001 -0.295 L 0.085 -0.289 Q 0.083 -0.278 0.07200000000000001 -0.278 Q 0.06 -0.278 0.06 -0.28800000000000003 Q 0.06 -0.313 0.092 -0.36 Q 0.146 -0.442 0.221 -0.442 Q 0.298 -0.442 0.329 -0.366 Q 0.361 -0.428 0.41400000000000003 -0.44 Q 0.424 -0.442 0.434 -0.442 Q 0.493 -0.442 0.517 -0.40900000000000003 Q 0.527 -0.395 0.527 -0.376 Q 0.527 -0.335 0.49 -0.321 Q 0.481 -0.318 0.47300000000000003 -0.318 Q 0.442 -0.318 0.436 -0.34500000000000003 Q 0.435 -0.34900000000000003 0.435 -0.353 Q 0.435 -0.383 0.464 -0.4 Q 0.47300000000000003 -0.405 0.483 -0.40700000000000003 Q 0.462 -0.42 0.433 -0.42 Q 0.365 -0.42 0.337 -0.314 Q 0.335 -0.308 0.334 -0.302 Z"/></g><g transform="translate(5.146740740740741,20.083333333333332)"><path fill="rgb(211,47,47)" stroke="none" paint-order="stroke fill markers" d=" M 0.289 -0.25 L 0.289 -0.25 Q 0.289 -0.081 0.226 0.055 Q 0.17400000000000002 0.166 0.094 0.233 Q 0.073 0.25 0.067 0.25 Q 0.057 0.25 0.057 0.24 Q 0.057 0.23500000000000001 0.07 0.223 Q 0.231 0.059000000000000004 0.231 -0.25 Q 0.231 -0.555 0.081 -0.712 L 0.076 -0.717 Q 0.057 -0.735 0.057 -0.74 Q 0.057 -0.75 0.067 -0.75 Q 0.079 -0.75 0.12 -0.709 Q 0.182 -0.647 0.223 -0.562 Q 0.289 -0.426 0.289 -0.25 Z"/></g></g></g></g></svg>