<svg version="1.1" xmlns="http://www.w3.org/2000/svg" xmlns:xlink="http://www.w3.org/1999/xlink" width="1026" height="826"><defs><clipPath id="XgSlFHHiADDM"><path fill="none" stroke="none" d=" M 0 0 L 1026 0 L 1026 826 L 0 826 L 0 0 Z"/></clipPath></defs><g transform="scale(1,1)" clip-path="url(#XgSlFHHiADDM)"><g><rect fill="rgb(255,255,255)" stroke="none" x="0" y="0" width="1026" height="826" fill-opacity="1"/><path fill="none" stroke="rgb(192,192,192)" paint-order="fill stroke markers" d=" M 13.5 0.5 L 13.5 826.5 M 13.5 0.5 L 13.5 826.5 M 63.5 0.5 L 63.5 826.5 M 113.5 0.5 L 113.5 826.5 M 163.5 0.5 L 163.5 826.5 M 213.5 0.5 L 213.5 826.5 M 263.5 0.5 L 263.5 826.5 M 313.5 0.5 L 313.5 826.5 M 363.5 0.5 L 363.5 826.5 M 413.5 0.5 L 413.5 826.5 M 463.5 0.5 L 463.5 826.5 M 563.5 0.5 L 563.5 826.5 M 613.5 0.5 L 613.5 826.5 M 663.5 0.5 L 663.5 826.5 M 713.5 0.5 L 713.5 826.5 M 763.5 0.5 L 763.5 826.5 M 813.5 0.5 L 813.5 826.5 M 863.5 0.5 L 863.5 826.5 M 913.5 0.5 L 913.5 826.5 M 963.5 0.5 L 963.5 826.5 M 1013.5 0.5 L 1013.5 826.5" stroke-opacity="1" stroke-linecap="round" stroke-linejoin="round" stroke-miterlimit="10"/><path fill="none" stroke="rgb(192,192,192)" paint-order="fill stroke markers" d=" M 3.5 0.5 L 3.5 826.5 M 23.5 0.5 L 23.5 826.5 M 33.5 0.5 L 33.5 826.5 M 43.5 0.5 L 43.5 826.5 M 53.5 0.5 L 53.5 826.5 M 73.5 0.5 L 73.5 826.5 M 83.5 0.5 L 83.5 826.5 M 93.5 0.5 L 93.5 826.5 M 103.5 0.5 L 103.5 826.5 M 123.5 0.5 L 123.5 826.5 M 133.5 0.5 L 133.5 826.5 M 143.5 0.5 L 143.5 826.5 M 153.5 0.5 L 153.5 826.5 M 173.5 0.5 L 173.5 826.5 M 183.5 0.5 L 183.5 826.5 M 193.5 0.5 L 193.5 826.5 M 203.5 0.5 L 203.5 826.5 M 223.5 0.5 L 223.5 826.5 M 233.5 0.5 L 233.5 826.5 M 243.5 0.5 L 243.5 826.5 M 253.5 0.5 L 253.5 826.5 M 273.5 0.5 L 273.5 826.5 M 283.5 0.5 L 283.5 826.5 M 293.5 0.5 L 293.5 826.5 M 303.5 0.5 L 303.5 826.5 M 323.5 0.5 L 323.5 826.5 M 333.5 0.5 L 333.5 826.5 M 343.5 0.5 L 343.5 826.5 M 353.5 0.5 L 353.5 826.5 M 373.5 0.5 L 373.5 826.5 M 383.5 0.5 L 383.5 826.5 M 393.5 0.5 L 393.5 826.5 M 403.5 0.5 L 403.5 826.5 M 423.5 0.5 L 423.5 826.5 M 433.5 0.5 L 433.5 826.5 M 443.5 0.5 L 443.5 826.5 M 453.5 0.5 L 453.5 826.5 M 473.5 0.5 L 473.5 826.5 M 483.5 0.5 L 483.5 826.5 M 493.5 0.5 L 493.5 826.5 M 503.5 0.5 L 503.5 826.5 M 523.5 0.5 L 523.5 826.5 M 533.5 0.5 L 533.5 826.5 M 543.5 0.5 L 543.5 826.5 M 553.5 0.5 L 553.5 826.5 M 573.5 0.5 L 573.5 826.5 M 583.5 0.5 L 583.5 826.5 M 593.5 0.5 L 593.5 826.5 M 603.5 0.5 L 603.5 826.5 M 623.5 0.5 L 623.5 826.5 M 633.5 0.5 L 633.5 826.5 M 643.5 0.5 L 643.5 826.5 M 653.5 0.5 L 653.5 826.5 M 673.5 0.5 L 673.5 826.5 M 683.5 0.5 L 683.5 826.5 M 693.5 0.5 L 693.5 826.5 M 703.5 0.5 L 703.5 826.5 M 723.5 0.5 L 723.5 826.5 M 733.5 0.5 L 733.5 826.5 M 743.5 0.5 L 743.5 826.5 M 753.5 0.5 L 753.5 826.5 M 773.5 0.5 L 773.5 826.5 M 783.5 0.5 L 783.5 826.5 M 793.5 0.5 L 793.5 826.5 M 803.5 0.5 L 803.5 826.5 M 822.5 0.5 L 822.5 826.5 M 832.5 0.5 L 832.5 826.5 M 842.5 0.5 L 842.5 826.5 M 852.5 0.5 L 852.5 826.5 M 872.5 0.5 L 872.5 826.5 M 882.5 0.5 L 882.5 826.5 M 892.5 0.5 L 892.5 826.5 M 902.5 0.5 L 902.5 826.5 M 922.5 0.5 L 922.5 826.5 M 932.5 0.5 L 932.5 826.5 M 942.5 0.5 L 942.5 826.5 M 952.5 0.5 L 952.5 826.5 M 972.5 0.5 L 972.5 826.5 M 982.5 0.5 L 982.5 826.5 M 992.5 0.5 L 992.5 826.5 M 1002.5 0.5 L 1002.5 826.5 M 1022.5 0.5 L 1022.5 826.5" stroke-opacity="0.23529411764705882" stroke-linecap="round" stroke-linejoin="round" stroke-miterlimit="10"/><path fill="none" stroke="rgb(192,192,192)" paint-order="fill stroke markers" d=" M 0.5 41.5 L 1026.5 41.5 M 0.5 41.5 L 1026.5 41.5 M 0.5 91.5 L 1026.5 91.5 M 0.5 141.5 L 1026.5 141.5 M 0.5 191.5 L 1026.5 191.5 M 0.5 241.5 L 1026.5 241.5 M 0.5 291.5 L 1026.5 291.5 M 0.5 341.5 L 1026.5 341.5 M 0.5 391.5 L 1026.5 391.5 M 0.5 491.5 L 1026.5 491.5 M 0.5 541.5 L 1026.5 541.5 M 0.5 591.5 L 1026.5 591.5 M 0.5 641.5 L 1026.5 641.5 M 0.5 691.5 L 1026.5 691.5 M 0.5 741.5 L 1026.5 741.5 M 0.5 791.5 L 1026.5 791.5" stroke-opacity="1" stroke-linecap="round" stroke-linejoin="round" stroke-miterlimit="10"/><path fill="none" stroke="rgb(192,192,192)" paint-order="fill stroke markers" d=" M 0.5 1.5 L 1026.5 1.5 M 0.5 11.5 L 1026.5 11.5 M 0.5 21.5 L 1026.5 21.5 M 0.5 31.5 L 1026.5 31.5 M 0.5 51.5 L 1026.5 51.5 M 0.5 61.5 L 1026.5 61.5 M 0.5 71.5 L 1026.5 71.5 M 0.5 81.5 L 1026.5 81.5 M 0.5 101.5 L 1026.5 101.5 M 0.5 111.5 L 1026.5 111.5 M 0.5 121.5 L 1026.5 121.5 M 0.5 131.5 L 1026.5 131.5 M 0.5 151.5 L 1026.5 151.5 M 0.5 161.5 L 1026.5 161.5 M 0.5 171.5 L 1026.5 171.5 M 0.5 181.5 L 1026.5 181.5 M 0.5 201.5 L 1026.5 201.5 M 0.5 211.5 L 1026.5 211.5 M 0.5 221.5 L 1026.5 221.5 M 0.5 231.5 L 1026.5 231.5 M 0.5 251.5 L 1026.5 251.5 M 0.5 261.5 L 1026.5 261.5 M 0.5 271.5 L 1026.5 271.5 M 0.5 281.5 L 1026.5 281.5 M 0.5 301.5 L 1026.5 301.5 M 0.5 311.5 L 1026.5 311.5 M 0.5 321.5 L 1026.5 321.5 M 0.5 331.5 L 1026.5 331.5 M 0.5 351.5 L 1026.5 351.5 M 0.5 361.5 L 1026.5 361.5 M 0.5 371.5 L 1026.5 371.5 M 0.5 381.5 L 1026.5 381.5 M 0.5 401.5 L 1026.5 401.5 M 0.5 411.5 L 1026.5 411.5 M 0.5 421.5 L 1026.5 421.5 M 0.5 431.5 L 1026.5 431.5 M 0.5 451.5 L 1026.5 451.5 M 0.5 461.5 L 1026.5 461.5 M 0.5 471.5 L 1026.5 471.5 M 0.5 481.5 L 1026.5 481.5 M 0.5 501.5 L 1026.5 501.5 M 0.5 511.5 L 1026.5 511.5 M 0.5 521.5 L 1026.5 521.5 M 0.5 531.5 L 1026.5 531.5 M 0.5 551.5 L 1026.5 551.5 M 0.5 561.5 L 1026.5 561.5 M 0.5 571.5 L 1026.5 571.5 M 0.5 581.5 L 1026.5 581.5 M 0.5 601.5 L 1026.5 601.5 M 0.5 611.5 L 1026.5 611.5 M 0.5 621.5 L 1026.5 621.5 M 0.5 631.5 L 1026.5 631.5 M 0.5 651.5 L 1026.5 651.5 M 0.5 661.5 L 1026.5 661.5 M 0.5 671.5 L 1026.5 671.5 M 0.5 681.5 L 1026.5 681.5 M 0.5 701.5 L 1026.5 701.5 M 0.5 711.5 L 1026.5 711.5 M 0.5 721.5 L 1026.5 721.5 M 0.5 731.5 L 1026.5 731.5 M 0.5 751.5 L 1026.5 751.5 M 0.5 761.5 L 1026.5 761.5 M 0.5 771.5 L 1026.5 771.5 M 0.5 781.5 L 1026.5 781.5 M 0.5 801.5 L 1026.5 801.5 M 0.5 811.5 L 1026.5 811.5 M 0.5 821.5 L 1026.5 821.5" stroke-opacity="0.23529411764705882" stroke-linecap="round" stroke-linejoin="round" stroke-miterlimit="10"/><path fill="none" stroke="rgb(37,37,37)" paint-order="fill stroke markers" d=" M 513.5 2.5 L 513.5 826.5" stroke-opacity="1" stroke-miterlimit="10"/><path fill="none" stroke="rgb(37,37,37)" paint-order="fill stroke markers" d=" M 513.5 1.5 L 506.5 8.5" stroke-opacity="1" stroke-miterlimit="10"/><path fill="none" stroke="rgb(37,37,37)" paint-order="fill stroke markers" d=" M 513.5 1.5 L 520.5 8.5" stroke-opacity="1" stroke-miterlimit="10"/><path fill="none" stroke="rgb(37,37,37)" paint-order="fill stroke markers" d=" M 0.5 441.5 L 1024.5 441.5" stroke-opacity="1" stroke-miterlimit="10"/><path fill="none" stroke="rgb(37,37,37)" paint-order="fill stroke markers" d=" M 1025.5 441.5 L 1018.5 434.5" stroke-opacity="1" stroke-miterlimit="10"/><path fill="none" stroke="rgb(37,37,37)" paint-order="fill stroke markers" d=" M 1025.5 441.5 L 1018.5 448.5" stroke-opacity="1" stroke-miterlimit="10"/><text fill="rgb(37,37,37)" stroke="none" font-family="geogebra-sans-serif, sans-serif" font-size="21px" font-style="normal" font-weight="normal" text-decoration="normal" x="-1" y="466" text-anchor="start" dominant-baseline="alphabetic" fill-opacity="1">–10</text><text fill="none" stroke="rgb(255,255,255)" font-family="geogebra-sans-serif, sans-serif" font-size="21px" font-style="normal" font-weight="normal" text-decoration="normal" x="-1" y="466" text-anchor="start" dominant-baseline="alphabetic" stroke-opacity="1" stroke-linejoin="bevel" stroke-miterlimit="10" stroke-width="3">–10</text><text fill="rgb(37,37,37)" stroke="none" font-family="geogebra-sans-serif, sans-serif" font-size="21px" font-style="normal" font-weight="normal" text-decoration="normal" x="-1" y="466" text-anchor="start" dominant-baseline="alphabetic" fill-opacity="1">–10</text><text fill="rgb(37,37,37)" stroke="none" font-family="geogebra-sans-serif, sans-serif" font-size="21px" font-style="normal" font-weight="normal" text-decoration="normal" x="53" y="466" text-anchor="start" dominant-baseline="alphabetic" fill-opacity="1">–9</text><text fill="none" stroke="rgb(255,255,255)" font-family="geogebra-sans-serif, sans-serif" font-size="21px" font-style="normal" font-weight="normal" text-decoration="normal" x="53" y="466" text-anchor="start" dominant-baseline="alphabetic" stroke-opacity="1" stroke-linejoin="bevel" stroke-miterlimit="10" stroke-width="3">–9</text><text fill="rgb(37,37,37)" stroke="none" font-family="geogebra-sans-serif, sans-serif" font-size="21px" font-style="normal" font-weight="normal" text-decoration="normal" x="53" y="466" text-anchor="start" dominant-baseline="alphabetic" fill-opacity="1">–9</text><text fill="rgb(37,37,37)" stroke="none" font-family="geogebra-sans-serif, sans-serif" font-size="21px" font-style="normal" font-weight="normal" text-decoration="normal" x="103" y="466" text-anchor="start" dominant-baseline="alphabetic" fill-opacity="1">–8</text><text fill="none" stroke="rgb(255,255,255)" font-family="geogebra-sans-serif, sans-serif" font-size="21px" font-style="normal" font-weight="normal" text-decoration="normal" x="103" y="466" text-anchor="start" dominant-baseline="alphabetic" stroke-opacity="1" stroke-linejoin="bevel" stroke-miterlimit="10" stroke-width="3">–8</text><text fill="rgb(37,37,37)" stroke="none" font-family="geogebra-sans-serif, sans-serif" font-size="21px" font-style="normal" font-weight="normal" text-decoration="normal" x="103" y="466" text-anchor="start" dominant-baseline="alphabetic" fill-opacity="1">–8</text><text fill="rgb(37,37,37)" stroke="none" font-family="geogebra-sans-serif, sans-serif" font-size="21px" font-style="normal" font-weight="normal" text-decoration="normal" x="153" y="466" text-anchor="start" dominant-baseline="alphabetic" fill-opacity="1">–7</text><text fill="none" stroke="rgb(255,255,255)" font-family="geogebra-sans-serif, sans-serif" font-size="21px" font-style="normal" font-weight="normal" text-decoration="normal" x="153" y="466" text-anchor="start" dominant-baseline="alphabetic" stroke-opacity="1" stroke-linejoin="bevel" stroke-miterlimit="10" stroke-width="3">–7</text><text fill="rgb(37,37,37)" stroke="none" font-family="geogebra-sans-serif, sans-serif" font-size="21px" font-style="normal" font-weight="normal" text-decoration="normal" x="153" y="466" text-anchor="start" dominant-baseline="alphabetic" fill-opacity="1">–7</text><text fill="rgb(37,37,37)" stroke="none" font-family="geogebra-sans-serif, sans-serif" font-size="21px" font-style="normal" font-weight="normal" text-decoration="normal" x="203" y="466" text-anchor="start" dominant-baseline="alphabetic" fill-opacity="1">–6</text><text fill="none" stroke="rgb(255,255,255)" font-family="geogebra-sans-serif, sans-serif" font-size="21px" font-style="normal" font-weight="normal" text-decoration="normal" x="203" y="466" text-anchor="start" dominant-baseline="alphabetic" stroke-opacity="1" stroke-linejoin="bevel" stroke-miterlimit="10" stroke-width="3">–6</text><text fill="rgb(37,37,37)" stroke="none" font-family="geogebra-sans-serif, sans-serif" font-size="21px" font-style="normal" font-weight="normal" text-decoration="normal" x="203" y="466" text-anchor="start" dominant-baseline="alphabetic" fill-opacity="1">–6</text><text fill="rgb(37,37,37)" stroke="none" font-family="geogebra-sans-serif, sans-serif" font-size="21px" font-style="normal" font-weight="normal" text-decoration="normal" x="253" y="466" text-anchor="start" dominant-baseline="alphabetic" fill-opacity="1">–5</text><text fill="none" stroke="rgb(255,255,255)" font-family="geogebra-sans-serif, sans-serif" font-size="21px" font-style="normal" font-weight="normal" text-decoration="normal" x="253" y="466" text-anchor="start" dominant-baseline="alphabetic" stroke-opacity="1" stroke-linejoin="bevel" stroke-miterlimit="10" stroke-width="3">–5</text><text fill="rgb(37,37,37)" stroke="none" font-family="geogebra-sans-serif, sans-serif" font-size="21px" font-style="normal" font-weight="normal" text-decoration="normal" x="253" y="466" text-anchor="start" dominant-baseline="alphabetic" fill-opacity="1">–5</text><text fill="rgb(37,37,37)" stroke="none" font-family="geogebra-sans-serif, sans-serif" font-size="21px" font-style="normal" font-weight="normal" text-decoration="normal" x="303" y="466" text-anchor="start" dominant-baseline="alphabetic" fill-opacity="1">–4</text><text fill="none" stroke="rgb(255,255,255)" font-family="geogebra-sans-serif, sans-serif" font-size="21px" font-style="normal" font-weight="normal" text-decoration="normal" x="303" y="466" text-anchor="start" dominant-baseline="alphabetic" stroke-opacity="1" stroke-linejoin="bevel" stroke-miterlimit="10" stroke-width="3">–4</text><text fill="rgb(37,37,37)" stroke="none" font-family="geogebra-sans-serif, sans-serif" font-size="21px" font-style="normal" font-weight="normal" text-decoration="normal" x="303" y="466" text-anchor="start" dominant-baseline="alphabetic" fill-opacity="1">–4</text><text fill="rgb(37,37,37)" stroke="none" font-family="geogebra-sans-serif, sans-serif" font-size="21px" font-style="normal" font-weight="normal" text-decoration="normal" x="353" y="466" text-anchor="start" dominant-baseline="alphabetic" fill-opacity="1">–3</text><text fill="none" stroke="rgb(255,255,255)" font-family="geogebra-sans-serif, sans-serif" font-size="21px" font-style="normal" font-weight="normal" text-decoration="normal" x="353" y="466" text-anchor="start" dominant-baseline="alphabetic" stroke-opacity="1" stroke-linejoin="bevel" stroke-miterlimit="10" stroke-width="3">–3</text><text fill="rgb(37,37,37)" stroke="none" font-family="geogebra-sans-serif, sans-serif" font-size="21px" font-style="normal" font-weight="normal" text-decoration="normal" x="353" y="466" text-anchor="start" dominant-baseline="alphabetic" fill-opacity="1">–3</text><text fill="rgb(37,37,37)" stroke="none" font-family="geogebra-sans-serif, sans-serif" font-size="21px" font-style="normal" font-weight="normal" text-decoration="normal" x="403" y="466" text-anchor="start" dominant-baseline="alphabetic" fill-opacity="1">–2</text><text fill="none" stroke="rgb(255,255,255)" font-family="geogebra-sans-serif, sans-serif" font-size="21px" font-style="normal" font-weight="normal" text-decoration="normal" x="403" y="466" text-anchor="start" dominant-baseline="alphabetic" stroke-opacity="1" stroke-linejoin="bevel" stroke-miterlimit="10" stroke-width="3">–2</text><text fill="rgb(37,37,37)" stroke="none" font-family="geogebra-sans-serif, sans-serif" font-size="21px" font-style="normal" font-weight="normal" text-decoration="normal" x="403" y="466" text-anchor="start" dominant-baseline="alphabetic" fill-opacity="1">–2</text><text fill="rgb(37,37,37)" stroke="none" font-family="geogebra-sans-serif, sans-serif" font-size="21px" font-style="normal" font-weight="normal" text-decoration="normal" x="453" y="466" text-anchor="start" dominant-baseline="alphabetic" fill-opacity="1">–1</text><text fill="none" stroke="rgb(255,255,255)" font-family="geogebra-sans-serif, sans-serif" font-size="21px" font-style="normal" font-weight="normal" text-decoration="normal" x="453" y="466" text-anchor="start" dominant-baseline="alphabetic" stroke-opacity="1" stroke-linejoin="bevel" stroke-miterlimit="10" stroke-width="3">–1</text><text fill="rgb(37,37,37)" stroke="none" font-family="geogebra-sans-serif, sans-serif" font-size="21px" font-style="normal" font-weight="normal" text-decoration="normal" x="453" y="466" text-anchor="start" dominant-baseline="alphabetic" fill-opacity="1">–1</text><text fill="rgb(37,37,37)" stroke="none" font-family="geogebra-sans-serif, sans-serif" font-size="21px" font-style="normal" font-weight="normal" text-decoration="normal" x="558" y="466" text-anchor="start" dominant-baseline="alphabetic" fill-opacity="1">1</text><text fill="none" stroke="rgb(255,255,255)" font-family="geogebra-sans-serif, sans-serif" font-size="21px" font-style="normal" font-weight="normal" text-decoration="normal" x="558" y="466" text-anchor="start" dominant-baseline="alphabetic" stroke-opacity="1" stroke-linejoin="bevel" stroke-miterlimit="10" stroke-width="3">1</text><text fill="rgb(37,37,37)" stroke="none" font-family="geogebra-sans-serif, sans-serif" font-size="21px" font-style="normal" font-weight="normal" text-decoration="normal" x="558" y="466" text-anchor="start" dominant-baseline="alphabetic" fill-opacity="1">1</text><text fill="rgb(37,37,37)" stroke="none" font-family="geogebra-sans-serif, sans-serif" font-size="21px" font-style="normal" font-weight="normal" text-decoration="normal" x="608" y="466" text-anchor="start" dominant-baseline="alphabetic" fill-opacity="1">2</text><text fill="none" stroke="rgb(255,255,255)" font-family="geogebra-sans-serif, sans-serif" font-size="21px" font-style="normal" font-weight="normal" text-decoration="normal" x="608" y="466" text-anchor="start" dominant-baseline="alphabetic" stroke-opacity="1" stroke-linejoin="bevel" stroke-miterlimit="10" stroke-width="3">2</text><text fill="rgb(37,37,37)" stroke="none" font-family="geogebra-sans-serif, sans-serif" font-size="21px" font-style="normal" font-weight="normal" text-decoration="normal" x="608" y="466" text-anchor="start" dominant-baseline="alphabetic" fill-opacity="1">2</text><text fill="rgb(37,37,37)" stroke="none" font-family="geogebra-sans-serif, sans-serif" font-size="21px" font-style="normal" font-weight="normal" text-decoration="normal" x="658" y="466" text-anchor="start" dominant-baseline="alphabetic" fill-opacity="1">3</text><text fill="none" stroke="rgb(255,255,255)" font-family="geogebra-sans-serif, sans-serif" font-size="21px" font-style="normal" font-weight="normal" text-decoration="normal" x="658" y="466" text-anchor="start" dominant-baseline="alphabetic" stroke-opacity="1" stroke-linejoin="bevel" stroke-miterlimit="10" stroke-width="3">3</text><text fill="rgb(37,37,37)" stroke="none" font-family="geogebra-sans-serif, sans-serif" font-size="21px" font-style="normal" font-weight="normal" text-decoration="normal" x="658" y="466" text-anchor="start" dominant-baseline="alphabetic" fill-opacity="1">3</text><text fill="rgb(37,37,37)" stroke="none" font-family="geogebra-sans-serif, sans-serif" font-size="21px" font-style="normal" font-weight="normal" text-decoration="normal" x="708" y="466" text-anchor="start" dominant-baseline="alphabetic" fill-opacity="1">4</text><text fill="none" stroke="rgb(255,255,255)" font-family="geogebra-sans-serif, sans-serif" font-size="21px" font-style="normal" font-weight="normal" text-decoration="normal" x="708" y="466" text-anchor="start" dominant-baseline="alphabetic" stroke-opacity="1" stroke-linejoin="bevel" stroke-miterlimit="10" stroke-width="3">4</text><text fill="rgb(37,37,37)" stroke="none" font-family="geogebra-sans-serif, sans-serif" font-size="21px" font-style="normal" font-weight="normal" text-decoration="normal" x="708" y="466" text-anchor="start" dominant-baseline="alphabetic" fill-opacity="1">4</text><text fill="rgb(37,37,37)" stroke="none" font-family="geogebra-sans-serif, sans-serif" font-size="21px" font-style="normal" font-weight="normal" text-decoration="normal" x="758" y="466" text-anchor="start" dominant-baseline="alphabetic" fill-opacity="1">5</text><text fill="none" stroke="rgb(255,255,255)" font-family="geogebra-sans-serif, sans-serif" font-size="21px" font-style="normal" font-weight="normal" text-decoration="normal" x="758" y="466" text-anchor="start" dominant-baseline="alphabetic" stroke-opacity="1" stroke-linejoin="bevel" stroke-miterlimit="10" stroke-width="3">5</text><text fill="rgb(37,37,37)" stroke="none" font-family="geogebra-sans-serif, sans-serif" font-size="21px" font-style="normal" font-weight="normal" text-decoration="normal" x="758" y="466" text-anchor="start" dominant-baseline="alphabetic" fill-opacity="1">5</text><text fill="rgb(37,37,37)" stroke="none" font-family="geogebra-sans-serif, sans-serif" font-size="21px" font-style="normal" font-weight="normal" text-decoration="normal" x="808" y="466" text-anchor="start" dominant-baseline="alphabetic" fill-opacity="1">6</text><text fill="none" stroke="rgb(255,255,255)" font-family="geogebra-sans-serif, sans-serif" font-size="21px" font-style="normal" font-weight="normal" text-decoration="normal" x="808" y="466" text-anchor="start" dominant-baseline="alphabetic" stroke-opacity="1" stroke-linejoin="bevel" stroke-miterlimit="10" stroke-width="3">6</text><text fill="rgb(37,37,37)" stroke="none" font-family="geogebra-sans-serif, sans-serif" font-size="21px" font-style="normal" font-weight="normal" text-decoration="normal" x="808" y="466" text-anchor="start" dominant-baseline="alphabetic" fill-opacity="1">6</text><text fill="rgb(37,37,37)" stroke="none" font-family="geogebra-sans-serif, sans-serif" font-size="21px" font-style="normal" font-weight="normal" text-decoration="normal" x="858" y="466" text-anchor="start" dominant-baseline="alphabetic" fill-opacity="1">7</text><text fill="none" stroke="rgb(255,255,255)" font-family="geogebra-sans-serif, sans-serif" font-size="21px" font-style="normal" font-weight="normal" text-decoration="normal" x="858" y="466" text-anchor="start" dominant-baseline="alphabetic" stroke-opacity="1" stroke-linejoin="bevel" stroke-miterlimit="10" stroke-width="3">7</text><text fill="rgb(37,37,37)" stroke="none" font-family="geogebra-sans-serif, sans-serif" font-size="21px" font-style="normal" font-weight="normal" text-decoration="normal" x="858" y="466" text-anchor="start" dominant-baseline="alphabetic" fill-opacity="1">7</text><text fill="rgb(37,37,37)" stroke="none" font-family="geogebra-sans-serif, sans-serif" font-size="21px" font-style="normal" font-weight="normal" text-decoration="normal" x="908" y="466" text-anchor="start" dominant-baseline="alphabetic" fill-opacity="1">8</text><text fill="none" stroke="rgb(255,255,255)" font-family="geogebra-sans-serif, sans-serif" font-size="21px" font-style="normal" font-weight="normal" text-decoration="normal" x="908" y="466" text-anchor="start" dominant-baseline="alphabetic" stroke-opacity="1" stroke-linejoin="bevel" stroke-miterlimit="10" stroke-width="3">8</text><text fill="rgb(37,37,37)" stroke="none" font-family="geogebra-sans-serif, sans-serif" font-size="21px" font-style="normal" font-weight="normal" text-decoration="normal" x="908" y="466" text-anchor="start" dominant-baseline="alphabetic" fill-opacity="1">8</text><text fill="rgb(37,37,37)" stroke="none" font-family="geogebra-sans-serif, sans-serif" font-size="21px" font-style="normal" font-weight="normal" text-decoration="normal" x="958" y="466" text-anchor="start" dominant-baseline="alphabetic" fill-opacity="1">9</text><text fill="none" stroke="rgb(255,255,255)" font-family="geogebra-sans-serif, sans-serif" font-size="21px" font-style="normal" font-weight="normal" text-decoration="normal" x="958" y="466" text-anchor="start" dominant-baseline="alphabetic" stroke-opacity="1" stroke-linejoin="bevel" stroke-miterlimit="10" stroke-width="3">9</text><text fill="rgb(37,37,37)" stroke="none" font-family="geogebra-sans-serif, sans-serif" font-size="21px" font-style="normal" font-weight="normal" text-decoration="normal" x="958" y="466" text-anchor="start" dominant-baseline="alphabetic" fill-opacity="1">9</text><text fill="rgb(37,37,37)" stroke="none" font-family="geogebra-sans-serif, sans-serif" font-size="21px" font-style="normal" font-weight="normal" text-decoration="normal" x="1003" y="466" text-anchor="start" dominant-baseline="alphabetic" fill-opacity="1">10</text><text fill="none" stroke="rgb(255,255,255)" font-family="geogebra-sans-serif, sans-serif" font-size="21px" font-style="normal" font-weight="normal" text-decoration="normal" x="1003" y="466" text-anchor="start" dominant-baseline="alphabetic" stroke-opacity="1" stroke-linejoin="bevel" stroke-miterlimit="10" stroke-width="3">10</text><text fill="rgb(37,37,37)" stroke="none" font-family="geogebra-sans-serif, sans-serif" font-size="21px" font-style="normal" font-weight="normal" text-decoration="normal" x="1003" y="466" text-anchor="start" dominant-baseline="alphabetic" fill-opacity="1">10</text><text fill="rgb(37,37,37)" stroke="none" font-family="geogebra-sans-serif, sans-serif" font-size="21px" font-style="normal" font-weight="normal" text-decoration="normal" x="480" y="801" text-anchor="start" dominant-baseline="alphabetic" fill-opacity="1">–7</text><text fill="none" stroke="rgb(255,255,255)" font-family="geogebra-sans-serif, sans-serif" font-size="21px" font-style="normal" font-weight="normal" text-decoration="normal" x="480" y="801" text-anchor="start" dominant-baseline="alphabetic" stroke-opacity="1" stroke-linejoin="bevel" stroke-miterlimit="10" stroke-width="3">–7</text><text fill="rgb(37,37,37)" stroke="none" font-family="geogebra-sans-serif, sans-serif" font-size="21px" font-style="normal" font-weight="normal" text-decoration="normal" x="480" y="801" text-anchor="start" dominant-baseline="alphabetic" fill-opacity="1">–7</text><text fill="rgb(37,37,37)" stroke="none" font-family="geogebra-sans-serif, sans-serif" font-size="21px" font-style="normal" font-weight="normal" text-decoration="normal" x="480" y="751" text-anchor="start" dominant-baseline="alphabetic" fill-opacity="1">–6</text><text fill="none" stroke="rgb(255,255,255)" font-family="geogebra-sans-serif, sans-serif" font-size="21px" font-style="normal" font-weight="normal" text-decoration="normal" x="480" y="751" text-anchor="start" dominant-baseline="alphabetic" stroke-opacity="1" stroke-linejoin="bevel" stroke-miterlimit="10" stroke-width="3">–6</text><text fill="rgb(37,37,37)" stroke="none" font-family="geogebra-sans-serif, sans-serif" font-size="21px" font-style="normal" font-weight="normal" text-decoration="normal" x="480" y="751" text-anchor="start" dominant-baseline="alphabetic" fill-opacity="1">–6</text><text fill="rgb(37,37,37)" stroke="none" font-family="geogebra-sans-serif, sans-serif" font-size="21px" font-style="normal" font-weight="normal" text-decoration="normal" x="480" y="701" text-anchor="start" dominant-baseline="alphabetic" fill-opacity="1">–5</text><text fill="none" stroke="rgb(255,255,255)" font-family="geogebra-sans-serif, sans-serif" font-size="21px" font-style="normal" font-weight="normal" text-decoration="normal" x="480" y="701" text-anchor="start" dominant-baseline="alphabetic" stroke-opacity="1" stroke-linejoin="bevel" stroke-miterlimit="10" stroke-width="3">–5</text><text fill="rgb(37,37,37)" stroke="none" font-family="geogebra-sans-serif, sans-serif" font-size="21px" font-style="normal" font-weight="normal" text-decoration="normal" x="480" y="701" text-anchor="start" dominant-baseline="alphabetic" fill-opacity="1">–5</text><text fill="rgb(37,37,37)" stroke="none" font-family="geogebra-sans-serif, sans-serif" font-size="21px" font-style="normal" font-weight="normal" text-decoration="normal" x="480" y="651" text-anchor="start" dominant-baseline="alphabetic" fill-opacity="1">–4</text><text fill="none" stroke="rgb(255,255,255)" font-family="geogebra-sans-serif, sans-serif" font-size="21px" font-style="normal" font-weight="normal" text-decoration="normal" x="480" y="651" text-anchor="start" dominant-baseline="alphabetic" stroke-opacity="1" stroke-linejoin="bevel" stroke-miterlimit="10" stroke-width="3">–4</text><text fill="rgb(37,37,37)" stroke="none" font-family="geogebra-sans-serif, sans-serif" font-size="21px" font-style="normal" font-weight="normal" text-decoration="normal" x="480" y="651" text-anchor="start" dominant-baseline="alphabetic" fill-opacity="1">–4</text><text fill="rgb(37,37,37)" stroke="none" font-family="geogebra-sans-serif, sans-serif" font-size="21px" font-style="normal" font-weight="normal" text-decoration="normal" x="480" y="601" text-anchor="start" dominant-baseline="alphabetic" fill-opacity="1">–3</text><text fill="none" stroke="rgb(255,255,255)" font-family="geogebra-sans-serif, sans-serif" font-size="21px" font-style="normal" font-weight="normal" text-decoration="normal" x="480" y="601" text-anchor="start" dominant-baseline="alphabetic" stroke-opacity="1" stroke-linejoin="bevel" stroke-miterlimit="10" stroke-width="3">–3</text><text fill="rgb(37,37,37)" stroke="none" font-family="geogebra-sans-serif, sans-serif" font-size="21px" font-style="normal" font-weight="normal" text-decoration="normal" x="480" y="601" text-anchor="start" dominant-baseline="alphabetic" fill-opacity="1">–3</text><text fill="rgb(37,37,37)" stroke="none" font-family="geogebra-sans-serif, sans-serif" font-size="21px" font-style="normal" font-weight="normal" text-decoration="normal" x="480" y="551" text-anchor="start" dominant-baseline="alphabetic" fill-opacity="1">–2</text><text fill="none" stroke="rgb(255,255,255)" font-family="geogebra-sans-serif, sans-serif" font-size="21px" font-style="normal" font-weight="normal" text-decoration="normal" x="480" y="551" text-anchor="start" dominant-baseline="alphabetic" stroke-opacity="1" stroke-linejoin="bevel" stroke-miterlimit="10" stroke-width="3">–2</text><text fill="rgb(37,37,37)" stroke="none" font-family="geogebra-sans-serif, sans-serif" font-size="21px" font-style="normal" font-weight="normal" text-decoration="normal" x="480" y="551" text-anchor="start" dominant-baseline="alphabetic" fill-opacity="1">–2</text><text fill="rgb(37,37,37)" stroke="none" font-family="geogebra-sans-serif, sans-serif" font-size="21px" font-style="normal" font-weight="normal" text-decoration="normal" x="480" y="501" text-anchor="start" dominant-baseline="alphabetic" fill-opacity="1">–1</text><text fill="none" stroke="rgb(255,255,255)" font-family="geogebra-sans-serif, sans-serif" font-size="21px" font-style="normal" font-weight="normal" text-decoration="normal" x="480" y="501" text-anchor="start" dominant-baseline="alphabetic" stroke-opacity="1" stroke-linejoin="bevel" stroke-miterlimit="10" stroke-width="3">–1</text><text fill="rgb(37,37,37)" stroke="none" font-family="geogebra-sans-serif, sans-serif" font-size="21px" font-style="normal" font-weight="normal" text-decoration="normal" x="480" y="501" text-anchor="start" dominant-baseline="alphabetic" fill-opacity="1">–1</text><text fill="rgb(37,37,37)" stroke="none" font-family="geogebra-sans-serif, sans-serif" font-size="21px" font-style="normal" font-weight="normal" text-decoration="normal" x="491" y="400" text-anchor="start" dominant-baseline="alphabetic" fill-opacity="1">1</text><text fill="none" stroke="rgb(255,255,255)" font-family="geogebra-sans-serif, sans-serif" font-size="21px" font-style="normal" font-weight="normal" text-decoration="normal" x="491" y="400" text-anchor="start" dominant-baseline="alphabetic" stroke-opacity="1" stroke-linejoin="bevel" stroke-miterlimit="10" stroke-width="3">1</text><text fill="rgb(37,37,37)" stroke="none" font-family="geogebra-sans-serif, sans-serif" font-size="21px" font-style="normal" font-weight="normal" text-decoration="normal" x="491" y="400" text-anchor="start" dominant-baseline="alphabetic" fill-opacity="1">1</text><text fill="rgb(37,37,37)" stroke="none" font-family="geogebra-sans-serif, sans-serif" font-size="21px" font-style="normal" font-weight="normal" text-decoration="normal" x="491" y="350" text-anchor="start" dominant-baseline="alphabetic" fill-opacity="1">2</text><text fill="none" stroke="rgb(255,255,255)" font-family="geogebra-sans-serif, sans-serif" font-size="21px" font-style="normal" font-weight="normal" text-decoration="normal" x="491" y="350" text-anchor="start" dominant-baseline="alphabetic" stroke-opacity="1" stroke-linejoin="bevel" stroke-miterlimit="10" stroke-width="3">2</text><text fill="rgb(37,37,37)" stroke="none" font-family="geogebra-sans-serif, sans-serif" font-size="21px" font-style="normal" font-weight="normal" text-decoration="normal" x="491" y="350" text-anchor="start" dominant-baseline="alphabetic" fill-opacity="1">2</text><text fill="rgb(37,37,37)" stroke="none" font-family="geogebra-sans-serif, sans-serif" font-size="21px" font-style="normal" font-weight="normal" text-decoration="normal" x="491" y="300" text-anchor="start" dominant-baseline="alphabetic" fill-opacity="1">3</text><text fill="none" stroke="rgb(255,255,255)" font-family="geogebra-sans-serif, sans-serif" font-size="21px" font-style="normal" font-weight="normal" text-decoration="normal" x="491" y="300" text-anchor="start" dominant-baseline="alphabetic" stroke-opacity="1" stroke-linejoin="bevel" stroke-miterlimit="10" stroke-width="3">3</text><text fill="rgb(37,37,37)" stroke="none" font-family="geogebra-sans-serif, sans-serif" font-size="21px" font-style="normal" font-weight="normal" text-decoration="normal" x="491" y="300" text-anchor="start" dominant-baseline="alphabetic" fill-opacity="1">3</text><text fill="rgb(37,37,37)" stroke="none" font-family="geogebra-sans-serif, sans-serif" font-size="21px" font-style="normal" font-weight="normal" text-decoration="normal" x="491" y="250" text-anchor="start" dominant-baseline="alphabetic" fill-opacity="1">4</text><text fill="none" stroke="rgb(255,255,255)" font-family="geogebra-sans-serif, sans-serif" font-size="21px" font-style="normal" font-weight="normal" text-decoration="normal" x="491" y="250" text-anchor="start" dominant-baseline="alphabetic" stroke-opacity="1" stroke-linejoin="bevel" stroke-miterlimit="10" stroke-width="3">4</text><text fill="rgb(37,37,37)" stroke="none" font-family="geogebra-sans-serif, sans-serif" font-size="21px" font-style="normal" font-weight="normal" text-decoration="normal" x="491" y="250" text-anchor="start" dominant-baseline="alphabetic" fill-opacity="1">4</text><text fill="rgb(37,37,37)" stroke="none" font-family="geogebra-sans-serif, sans-serif" font-size="21px" font-style="normal" font-weight="normal" text-decoration="normal" x="491" y="200" text-anchor="start" dominant-baseline="alphabetic" fill-opacity="1">5</text><text fill="none" stroke="rgb(255,255,255)" font-family="geogebra-sans-serif, sans-serif" font-size="21px" font-style="normal" font-weight="normal" text-decoration="normal" x="491" y="200" text-anchor="start" dominant-baseline="alphabetic" stroke-opacity="1" stroke-linejoin="bevel" stroke-miterlimit="10" stroke-width="3">5</text><text fill="rgb(37,37,37)" stroke="none" font-family="geogebra-sans-serif, sans-serif" font-size="21px" font-style="normal" font-weight="normal" text-decoration="normal" x="491" y="200" text-anchor="start" dominant-baseline="alphabetic" fill-opacity="1">5</text><text fill="rgb(37,37,37)" stroke="none" font-family="geogebra-sans-serif, sans-serif" font-size="21px" font-style="normal" font-weight="normal" text-decoration="normal" x="491" y="150" text-anchor="start" dominant-baseline="alphabetic" fill-opacity="1">6</text><text fill="none" stroke="rgb(255,255,255)" font-family="geogebra-sans-serif, sans-serif" font-size="21px" font-style="normal" font-weight="normal" text-decoration="normal" x="491" y="150" text-anchor="start" dominant-baseline="alphabetic" stroke-opacity="1" stroke-linejoin="bevel" stroke-miterlimit="10" stroke-width="3">6</text><text fill="rgb(37,37,37)" stroke="none" font-family="geogebra-sans-serif, sans-serif" font-size="21px" font-style="normal" font-weight="normal" text-decoration="normal" x="491" y="150" text-anchor="start" dominant-baseline="alphabetic" fill-opacity="1">6</text><text fill="rgb(37,37,37)" stroke="none" font-family="geogebra-sans-serif, sans-serif" font-size="21px" font-style="normal" font-weight="normal" text-decoration="normal" x="491" y="100" text-anchor="start" dominant-baseline="alphabetic" fill-opacity="1">7</text><text fill="none" stroke="rgb(255,255,255)" font-family="geogebra-sans-serif, sans-serif" font-size="21px" font-style="normal" font-weight="normal" text-decoration="normal" x="491" y="100" text-anchor="start" dominant-baseline="alphabetic" stroke-opacity="1" stroke-linejoin="bevel" stroke-miterlimit="10" stroke-width="3">7</text><text fill="rgb(37,37,37)" stroke="none" font-family="geogebra-sans-serif, sans-serif" font-size="21px" font-style="normal" font-weight="normal" text-decoration="normal" x="491" y="100" text-anchor="start" dominant-baseline="alphabetic" fill-opacity="1">7</text><text fill="rgb(37,37,37)" stroke="none" font-family="geogebra-sans-serif, sans-serif" font-size="21px" font-style="normal" font-weight="normal" text-decoration="normal" x="491" y="50" text-anchor="start" dominant-baseline="alphabetic" fill-opacity="1">8</text><text fill="none" stroke="rgb(255,255,255)" font-family="geogebra-sans-serif, sans-serif" font-size="21px" font-style="normal" font-weight="normal" text-decoration="normal" x="491" y="50" text-anchor="start" dominant-baseline="alphabetic" stroke-opacity="1" stroke-linejoin="bevel" stroke-miterlimit="10" stroke-width="3">8</text><text fill="rgb(37,37,37)" stroke="none" font-family="geogebra-sans-serif, sans-serif" font-size="21px" font-style="normal" font-weight="normal" text-decoration="normal" x="491" y="50" text-anchor="start" dominant-baseline="alphabetic" fill-opacity="1">8</text><text fill="rgb(37,37,37)" stroke="none" font-family="geogebra-sans-serif, sans-serif" font-size="21px" font-style="normal" font-weight="normal" text-decoration="normal" x="491" y="466" text-anchor="start" dominant-baseline="alphabetic" fill-opacity="1">0</text><text fill="none" stroke="rgb(255,255,255)" font-family="geogebra-sans-serif, sans-serif" font-size="21px" font-style="normal" font-weight="normal" text-decoration="normal" x="491" y="466" text-anchor="start" dominant-baseline="alphabetic" stroke-opacity="1" stroke-linejoin="bevel" stroke-miterlimit="10" stroke-width="3">0</text><text fill="rgb(37,37,37)" stroke="none" font-family="geogebra-sans-serif, sans-serif" font-size="21px" font-style="normal" font-weight="normal" text-decoration="normal" x="491" y="466" text-anchor="start" dominant-baseline="alphabetic" fill-opacity="1">0</text><path fill="none" stroke="rgb(21,101,192)" paint-order="fill stroke markers" d=" M 1 -4821.880000000025 L 1 -4801.380000000024 L 1 -4801.380000000026 L 1.9999999999999432 -4780.920000000024 L 1.9999999999999432 -4780.9200000000255 L 2.999999999999943 -4760.500000000025 L 2.999999999999943 -4760.500000000026 L 4 -4740.120000000023 L 4 -4740.120000000024 L 5 -4719.780000000023 L 5 -4719.780000000025 L 5.999999999999943 -4699.480000000024 L 5.999999999999943 -4699.480000000025 L 6.999999999999943 -4679.220000000024 L 6.999999999999943 -4679.220000000026 L 8 -4659.000000000023 L 8 -4659.000000000025 L 9 -4638.820000000022 L 9 -4638.820000000024 L 9.999999999999943 -4618.680000000023 L 9.999999999999943 -4618.680000000025 L 10.999999999999943 -4598.580000000024 L 10.999999999999943 -4598.5800000000245 L 12 -4578.520000000022 L 12 -4578.520000000024 L 13 -4558.500000000023 L 13 -4558.500000000025 L 13.999999999999943 -4538.520000000023 L 13.999999999999943 -4538.520000000024 L 14.999999999999943 -4518.580000000024 L 14.999999999999943 -4518.5800000000245 L 16 -4498.680000000022 L 16 -4498.680000000023 L 17 -4478.8200000000215 L 17 -4478.820000000023 L 17.999999999999943 -4459.000000000023 L 17.999999999999943 -4459.000000000024 L 18.999999999999943 -4439.220000000022 L 18.999999999999943 -4439.220000000024 L 20 -4419.480000000021 L 20 -4419.480000000023 L 21 -4399.780000000022 L 21 -4399.780000000023 L 21.999999999999943 -4380.120000000022 L 21.999999999999943 -4380.1200000000235 L 22.999999999999943 -4360.500000000022 L 22.999999999999943 -4360.500000000024 L 24 -4340.920000000021 L 24 -4340.920000000022 L 25 -4321.380000000021 L 25 -4321.380000000022 L 25.999999999999943 -4301.880000000021 L 25.999999999999943 -4301.880000000023 L 26.999999999999943 -4282.420000000022 L 26.999999999999943 -4282.420000000024 L 28 -4263.00000000002 L 28 -4263.000000000022 L 29 -4243.620000000021 L 29 -4243.620000000022 L 30 -4224.280000000021 L 30 -4224.2800000000225 L 30.999999999999943 -4204.980000000021 L 30.999999999999943 -4204.980000000023 L 32 -4185.72000000002 L 32 -4185.720000000022 L 33 -4166.50000000002 L 33 -4166.500000000022 L 34 -4147.320000000021 L 34 -4147.320000000022 L 34.99999999999994 -4128.180000000021 L 34.99999999999994 -4128.180000000023 L 35.99999999999994 -4109.080000000022 L 35.99999999999994 -4109.080000000023 L 37 -4090.0200000000195 L 37 -4090.0200000000214 L 38 -4071.00000000002 L 38 -4071.000000000021 L 38.99999999999994 -4052.0200000000204 L 38.99999999999994 -4052.0200000000223 L 39.99999999999994 -4033.080000000021 L 39.99999999999994 -4033.0800000000218 L 41 -4014.1800000000194 L 41 -4014.1800000000203 L 42 -3995.3200000000197 L 42 -3995.3200000000215 L 42.99999999999994 -3976.50000000002 L 42.99999999999994 -3976.500000000022 L 43.99999999999994 -3957.7200000000203 L 43.99999999999994 -3957.720000000022 L 45 -3938.9800000000196 L 45 -3938.9800000000205 L 46 -3920.2800000000198 L 46 -3920.2800000000207 L 46.99999999999994 -3901.62000000002 L 46.99999999999994 -3901.620000000021 L 47.99999999999994 -3883.00000000002 L 47.99999999999994 -3883.000000000022 L 49 -3864.420000000019 L 49 -3864.42000000002 L 50 -3845.880000000019 L 50 -3845.880000000021 L 50.99999999999994 -3827.38000000002 L 50.99999999999994 -3827.380000000021 L 51.99999999999994 -3808.92000000002 L 51.99999999999994 -3808.920000000021 L 53 -3790.500000000018 L 53 -3790.500000000019 L 54 -3772.120000000019 L 54 -3772.12000000002 L 54.99999999999994 -3753.780000000019 L 54.99999999999994 -3753.7800000000207 L 55.99999999999994 -3735.4800000000196 L 55.99999999999994 -3735.4800000000214 L 57 -3717.2200000000184 L 57 -3717.2200000000194 L 58 -3699.000000000018 L 58 -3699.00000000002 L 59 -3680.820000000019 L 59 -3680.8200000000206 L 59.99999999999994 -3662.6800000000194 L 59.99999999999994 -3662.6800000000203 L 61 -3644.5800000000177 L 61 -3644.5800000000195 L 62 -3626.520000000018 L 62 -3626.5200000000195 L 63 -3608.500000000018 L 63 -3608.5000000000196 L 63.99999999999994 -3590.5200000000186 L 63.99999999999994 -3590.52000000002 L 65 -3572.580000000017 L 65 -3572.5800000000186 L 66 -3554.6800000000176 L 66 -3554.680000000019 L 67 -3536.820000000018 L 67 -3536.8200000000193 L 67.99999999999994 -3519.000000000018 L 67.99999999999994 -3519.0000000000196 L 68.99999999999994 -3501.220000000018 L 68.99999999999994 -3501.2200000000194 L 70 -3483.480000000017 L 70 -3483.480000000018 L 71 -3465.7800000000175 L 71 -3465.780000000019 L 71.99999999999994 -3448.120000000018 L 71.99999999999994 -3448.1200000000194 L 72.99999999999994 -3430.5000000000177 L 72.99999999999994 -3430.500000000019 L 74 -3412.920000000017 L 74 -3412.9200000000183 L 75 -3395.380000000017 L 75 -3395.3800000000183 L 75.99999999999994 -3377.8800000000174 L 75.99999999999994 -3377.8800000000188 L 76.99999999999994 -3360.4200000000174 L 76.99999999999994 -3360.4200000000187 L 78 -3343.000000000016 L 78 -3343.0000000000173 L 79 -3325.6200000000167 L 79 -3325.620000000018 L 79.99999999999994 -3308.280000000017 L 79.99999999999994 -3308.280000000019 L 80.99999999999994 -3290.980000000017 L 80.99999999999994 -3290.980000000018 L 82 -3273.7200000000157 L 82 -3273.7200000000175 L 83 -3256.5000000000164 L 83 -3256.5000000000177 L 83.99999999999994 -3239.3200000000165 L 83.99999999999994 -3239.320000000018 L 84.99999999999994 -3222.180000000017 L 84.99999999999994 -3222.1800000000185 L 86 -3205.080000000016 L 86 -3205.080000000017 L 87 -3188.0200000000154 L 87 -3188.020000000017 L 88 -3171.000000000016 L 88 -3171.0000000000177 L 88.99999999999994 -3154.0200000000164 L 88.99999999999994 -3154.020000000018 L 90 -3137.0800000000154 L 90 -3137.0800000000168 L 91 -3120.1800000000158 L 91 -3120.180000000017 L 92 -3103.3200000000156 L 92 -3103.3200000000174 L 92.99999999999994 -3086.500000000016 L 92.99999999999994 -3086.5000000000173 L 94 -3069.7200000000153 L 94 -3069.7200000000166 L 95 -3052.980000000015 L 95 -3052.9800000000164 L 96 -3036.2800000000157 L 96 -3036.280000000017 L 96.99999999999994 -3019.620000000016 L 96.99999999999994 -3019.620000000017 L 97.99999999999994 -3003.000000000016 L 97.99999999999994 -3003.0000000000177 L 99 -2986.420000000015 L 99 -2986.4200000000164 L 100 -2969.880000000015 L 100 -2969.8800000000165 L 100.99999999999994 -2953.3800000000156 L 100.99999999999994 -2953.3800000000174 L 101.99999999999994 -2936.9200000000155 L 101.99999999999994 -2936.920000000017 L 103 -2920.500000000015 L 103 -2920.5000000000164 L 104 -2904.1200000000144 L 104 -2904.120000000016 L 104.99999999999994 -2887.7800000000148 L 104.99999999999994 -2887.780000000016 L 105.99999999999994 -2871.480000000015 L 105.99999999999994 -2871.4800000000164 L 107 -2855.220000000014 L 107 -2855.2200000000153 L 108 -2839.0000000000146 L 108 -2839.000000000016 L 108.99999999999994 -2822.8200000000147 L 108.99999999999994 -2822.820000000016 L 109.99999999999994 -2806.6800000000153 L 109.99999999999994 -2806.6800000000167 L 111 -2790.5800000000136 L 111 -2790.580000000015 L 112 -2774.520000000014 L 112 -2774.5200000000154 L 112.99999999999994 -2758.5000000000146 L 112.99999999999994 -2758.500000000016 L 114 -2742.520000000014 L 114 -2742.520000000015 L 114.99999999999994 -2726.580000000015 L 114.99999999999994 -2726.5800000000154 L 116 -2710.680000000014 L 116 -2710.680000000015 L 116.99999999999994 -2694.8200000000143 L 116.99999999999994 -2694.820000000015 L 118 -2679.0000000000136 L 118 -2679.0000000000146 L 119 -2663.2200000000144 L 119 -2663.220000000015 L 120 -2647.4800000000137 L 120 -2647.480000000014 L 121 -2631.780000000014 L 121 -2631.7800000000148 L 122 -2616.1200000000135 L 122 -2616.1200000000144 L 123 -2600.5000000000136 L 123 -2600.5000000000146 L 124 -2584.9200000000137 L 124 -2584.920000000014 L 125 -2569.3800000000138 L 125 -2569.3800000000147 L 126 -2553.8800000000133 L 126 -2553.8800000000138 L 127 -2538.4200000000137 L 127 -2538.420000000014 L 128 -2523.0000000000127 L 128 -2523.0000000000136 L 129 -2507.620000000013 L 129 -2507.620000000014 L 129.99999999999994 -2492.280000000014 L 129.99999999999994 -2492.2800000000143 L 131 -2476.980000000013 L 131 -2476.9800000000137 L 131.99999999999994 -2461.7200000000134 L 131.99999999999994 -2461.720000000014 L 133 -2446.5000000000127 L 133 -2446.5000000000136 L 133.99999999999994 -2431.3200000000134 L 133.99999999999994 -2431.3200000000143 L 135 -2416.1800000000126 L 135 -2416.1800000000135 L 135.99999999999994 -2401.080000000013 L 135.99999999999994 -2401.0800000000136 L 137 -2386.0200000000127 L 137 -2386.020000000013 L 137.99999999999994 -2371.000000000013 L 137.99999999999994 -2371.0000000000136 L 139 -2356.0200000000123 L 139 -2356.020000000013 L 139.99999999999994 -2341.0800000000127 L 139.99999999999994 -2341.0800000000136 L 141 -2326.1800000000126 L 141 -2326.180000000013 L 141.99999999999994 -2311.3200000000124 L 141.99999999999994 -2311.3200000000134 L 143 -2296.5000000000123 L 143 -2296.500000000013 L 143.99999999999994 -2281.7200000000125 L 143.99999999999994 -2281.7200000000134 L 145 -2266.980000000012 L 145 -2266.9800000000128 L 145.99999999999994 -2252.2800000000125 L 145.99999999999994 -2252.2800000000134 L 147 -2237.6200000000117 L 147 -2237.6200000000126 L 148 -2223.000000000012 L 148 -2223.0000000000127 L 149 -2208.420000000012 L 149 -2208.4200000000124 L 150 -2193.880000000012 L 150 -2193.880000000013 L 151 -2179.3800000000115 L 151 -2179.3800000000124 L 152 -2164.920000000012 L 152 -2164.9200000000124 L 153 -2150.5000000000114 L 153 -2150.5000000000123 L 154 -2136.1200000000117 L 154 -2136.120000000012 L 155 -2121.780000000011 L 155 -2121.780000000012 L 156 -2107.4800000000114 L 156 -2107.4800000000123 L 157 -2093.220000000011 L 157 -2093.220000000012 L 158 -2079.0000000000114 L 158 -2079.000000000012 L 159 -2064.820000000011 L 159 -2064.8200000000115 L 160 -2050.680000000011 L 160 -2050.6800000000117 L 161 -2036.5800000000108 L 161 -2036.5800000000118 L 162 -2022.5200000000114 L 162 -2022.5200000000118 L 162.99999999999994 -2008.5000000000114 L 162.99999999999994 -2008.5000000000123 L 164 -1994.520000000011 L 164 -1994.5200000000118 L 164.99999999999994 -1980.5800000000113 L 164.99999999999994 -1980.5800000000118 L 166 -1966.6800000000108 L 166 -1966.6800000000117 L 166.99999999999994 -1952.820000000011 L 166.99999999999994 -1952.8200000000115 L 168 -1939.0000000000105 L 168 -1939.0000000000114 L 168.99999999999994 -1925.2200000000107 L 168.99999999999994 -1925.2200000000116 L 170 -1911.4800000000105 L 170 -1911.4800000000114 L 170.99999999999994 -1897.7800000000107 L 170.99999999999994 -1897.7800000000116 L 172 -1884.1200000000104 L 172 -1884.1200000000108 L 172.99999999999994 -1870.5000000000105 L 172.99999999999994 -1870.5000000000114 L 174 -1856.92000000001 L 174 -1856.920000000011 L 174.99999999999994 -1843.3800000000106 L 174.99999999999994 -1843.380000000011 L 176 -1829.88000000001 L 176 -1829.8800000000106 L 176.99999999999994 -1816.4200000000105 L 176.99999999999994 -1816.420000000011 L 178 -1803.00000000001 L 178 -1803.0000000000105 L 179 -1789.6200000000104 L 179 -1789.6200000000108 L 180 -1776.2800000000097 L 180 -1776.2800000000107 L 181 -1762.98000000001 L 181 -1762.9800000000105 L 182 -1749.7200000000093 L 182 -1749.7200000000103 L 183 -1736.5000000000095 L 183 -1736.5000000000105 L 184 -1723.3200000000097 L 184 -1723.3200000000102 L 185 -1710.1800000000098 L 185 -1710.1800000000108 L 186 -1697.0800000000095 L 186 -1697.08000000001 L 187 -1684.0200000000095 L 187 -1684.0200000000104 L 188 -1671.0000000000095 L 188 -1671.00000000001 L 189 -1658.0200000000095 L 189 -1658.02000000001 L 190 -1645.0800000000095 L 190 -1645.08000000001 L 191 -1632.1800000000094 L 191 -1632.1800000000103 L 192 -1619.3200000000088 L 192 -1619.3200000000097 L 193 -1606.500000000009 L 193 -1606.50000000001 L 193.99999999999994 -1593.7200000000093 L 193.99999999999994 -1593.72000000001 L 195 -1580.980000000009 L 195 -1580.9800000000098 L 195.99999999999994 -1568.2800000000093 L 195.99999999999994 -1568.28000000001 L 197 -1555.6200000000088 L 197 -1555.6200000000094 L 197.99999999999994 -1543.000000000009 L 197.99999999999994 -1543.0000000000098 L 199 -1530.420000000009 L 199 -1530.4200000000096 L 199.99999999999994 -1517.880000000009 L 199.99999999999994 -1517.8800000000097 L 201 -1505.3800000000085 L 201 -1505.3800000000092 L 201.99999999999994 -1492.9200000000087 L 201.99999999999994 -1492.9200000000094 L 203 -1480.5000000000084 L 203 -1480.500000000009 L 203.99999999999994 -1468.1200000000088 L 203.99999999999994 -1468.1200000000094 L 205 -1455.7800000000084 L 205 -1455.780000000009 L 205.99999999999994 -1443.4800000000087 L 205.99999999999994 -1443.4800000000093 L 207 -1431.2200000000082 L 207 -1431.2200000000091 L 208 -1419.0000000000084 L 208 -1419.000000000009 L 209 -1406.8200000000083 L 209 -1406.820000000009 L 210 -1394.6800000000085 L 210 -1394.6800000000092 L 211 -1382.580000000008 L 211 -1382.5800000000088 L 212 -1370.5200000000082 L 212 -1370.5200000000088 L 213 -1358.500000000008 L 213 -1358.5000000000086 L 214 -1346.5200000000082 L 214 -1346.5200000000088 L 215 -1334.5800000000079 L 215 -1334.5800000000086 L 216 -1322.6800000000078 L 216 -1322.6800000000085 L 217 -1310.8200000000077 L 217 -1310.8200000000083 L 218 -1299.000000000008 L 218 -1299.0000000000086 L 219 -1287.2200000000075 L 219 -1287.2200000000082 L 220 -1275.4800000000075 L 220 -1275.4800000000082 L 221 -1263.7800000000075 L 221 -1263.7800000000082 L 222 -1252.1200000000076 L 222 -1252.1200000000083 L 223 -1240.5000000000073 L 223 -1240.500000000008 L 224 -1228.9200000000076 L 224 -1228.9200000000083 L 224.99999999999994 -1217.3800000000076 L 224.99999999999994 -1217.3800000000083 L 226 -1205.8800000000074 L 226 -1205.880000000008 L 226.99999999999994 -1194.4200000000073 L 226.99999999999994 -1194.4200000000083 L 228 -1183.000000000007 L 228 -1183.0000000000077 L 228.99999999999994 -1171.6200000000072 L 228.99999999999994 -1171.6200000000078 L 230 -1160.280000000007 L 230 -1160.2800000000077 L 230.99999999999994 -1148.9800000000075 L 230.99999999999994 -1148.9800000000077 L 232 -1137.7200000000073 L 232 -1137.7200000000075 L 232.99999999999994 -1126.5000000000073 L 232.99999999999994 -1126.5000000000077 L 234 -1115.320000000007 L 234 -1115.3200000000072 L 234.99999999999994 -1104.1800000000073 L 234.99999999999994 -1104.1800000000076 L 236 -1093.080000000007 L 236 -1093.0800000000072 L 237 -1082.020000000007 L 237 -1082.0200000000075 L 238 -1071.0000000000068 L 238 -1071.000000000007 L 239 -1060.020000000007 L 239 -1060.0200000000073 L 240 -1049.0800000000067 L 240 -1049.080000000007 L 241 -1038.1800000000067 L 241 -1038.180000000007 L 242 -1027.3200000000065 L 242 -1027.3200000000068 L 243 -1016.5000000000068 L 243 -1016.500000000007 L 244 -1005.7200000000064 L 244 -1005.7200000000068 L 245 -994.9800000000066 L 245 -994.9800000000068 L 246 -984.2800000000061 L 246 -984.2800000000066 L 247 -973.6200000000065 L 247 -973.6200000000069 L 248 -963.0000000000061 L 248 -963.0000000000066 L 249 -952.4200000000064 L 249 -952.4200000000069 L 250 -941.880000000006 L 250 -941.8800000000065 L 251 -931.3800000000062 L 251 -931.3800000000065 L 252 -920.920000000006 L 252 -920.9200000000064 L 253 -910.5000000000061 L 253 -910.5000000000064 L 254 -900.1200000000058 L 254 -900.1200000000063 L 255 -889.7800000000059 L 255 -889.7800000000063 L 256 -879.4800000000057 L 256 -879.4800000000062 L 257 -869.2200000000059 L 257 -869.2200000000064 L 258 -859.0000000000061 L 258 -859.0000000000066 L 259 -848.8200000000058 L 259 -848.8200000000063 L 260 -838.680000000006 L 260 -838.6800000000064 L 261 -828.5800000000056 L 261 -828.5800000000061 L 262 -818.5200000000059 L 262 -818.5200000000061 L 263 -808.5000000000057 L 263 -808.5000000000061 L 264 -798.5200000000059 L 264 -798.5200000000061 L 265 -788.5800000000054 L 265 -788.5800000000058 L 266 -778.6800000000055 L 266 -778.680000000006 L 267 -768.8200000000054 L 267 -768.8200000000058 L 268 -759.0000000000055 L 268 -759.0000000000059 L 269 -749.2200000000053 L 269 -749.2200000000055 L 270 -739.4800000000055 L 270 -739.4800000000059 L 271 -729.7800000000052 L 271 -729.7800000000054 L 272 -720.1200000000053 L 272 -720.1200000000058 L 273 -710.500000000005 L 273 -710.5000000000055 L 274 -700.9200000000053 L 274 -700.9200000000058 L 275 -691.3800000000049 L 275 -691.3800000000053 L 276 -681.8800000000051 L 276 -681.8800000000056 L 277 -672.4200000000048 L 277 -672.4200000000051 L 278 -663.000000000005 L 278 -663.0000000000055 L 279 -653.6200000000049 L 279 -653.6200000000051 L 280 -644.280000000005 L 280 -644.2800000000052 L 281 -634.9800000000048 L 281 -634.980000000005 L 282 -625.720000000005 L 282 -625.7200000000053 L 283 -616.5000000000045 L 283 -616.5000000000048 L 284 -607.3200000000047 L 284 -607.3200000000052 L 285 -598.1800000000046 L 285 -598.1800000000048 L 286 -589.0800000000047 L 286 -589.0800000000052 L 287 -580.0200000000044 L 287 -580.0200000000049 L 288 -571.0000000000045 L 288 -571.0000000000049 L 289 -562.0200000000043 L 289 -562.0200000000046 L 290 -553.0800000000045 L 290 -553.0800000000048 L 291 -544.1800000000045 L 291 -544.1800000000048 L 292 -535.3200000000044 L 292 -535.3200000000047 L 293 -526.5000000000044 L 293 -526.5000000000048 L 294 -517.7200000000042 L 294 -517.7200000000046 L 295 -508.98000000000434 L 295 -508.9800000000047 L 296 -500.2800000000042 L 296 -500.2800000000045 L 297 -491.6200000000042 L 297 -491.62000000000455 L 298 -483.0000000000041 L 298 -483.00000000000443 L 299 -474.4200000000043 L 299 -474.4200000000046 L 300 -465.88000000000386 L 300 -465.8800000000042 L 301 -457.3800000000041 L 301 -457.38000000000454 L 302 -448.92000000000394 L 302 -448.9200000000043 L 303 -440.500000000004 L 303 -440.5000000000043 L 304 -432.12000000000376 L 304 -432.1200000000041 L 305 -423.78000000000395 L 305 -423.7800000000043 L 306 -415.48000000000377 L 306 -415.4800000000041 L 307 -407.2200000000039 L 307 -407.22000000000435 L 308 -399.00000000000375 L 308 -399.0000000000041 L 309 -390.8200000000037 L 309 -390.82000000000403 L 310 -382.6800000000035 L 310 -382.6800000000038 L 311 -374.5800000000037 L 311 -374.580000000004 L 312 -366.5200000000034 L 312 -366.52000000000373 L 313 -358.50000000000364 L 313 -358.500000000004 L 314 -350.52000000000373 L 314 -350.52000000000385 L 315 -342.58000000000357 L 315 -342.5800000000038 L 316 -334.6800000000036 L 316 -334.6800000000037 L 317 -326.82000000000346 L 317 -326.8200000000037 L 318 -319.0000000000034 L 318 -319.00000000000364 L 319 -311.22000000000344 L 319 -311.22000000000367 L 320 -303.48000000000343 L 320 -303.48000000000354 L 321 -295.78000000000327 L 321 -295.7800000000035 L 322 -288.1200000000033 L 322 -288.1200000000034 L 323 -280.5000000000032 L 323 -280.5000000000034 L 324 -272.92000000000314 L 324 -272.92000000000337 L 325 -265.3800000000032 L 325 -265.3800000000033 L 326 -257.88000000000306 L 326 -257.8800000000033 L 327 -250.42000000000314 L 327 -250.42000000000326 L 328 -243.00000000000307 L 328 -243.0000000000033 L 329 -235.62000000000296 L 329 -235.6200000000032 L 330 -228.28000000000293 L 330 -228.28000000000316 L 331 -220.98000000000297 L 331 -220.9800000000031 L 332 -213.72000000000287 L 332 -213.7200000000031 L 333 -206.50000000000284 L 333 -206.50000000000307 L 334 -199.32000000000278 L 334 -199.320000000003 L 335 -192.1800000000028 L 335 -192.18000000000302 L 336 -185.08000000000277 L 336 -185.08000000000288 L 337 -178.0200000000027 L 337 -178.02000000000294 L 338 -171.00000000000284 L 338 -171.00000000000307 L 339 -164.02000000000282 L 339 -164.02000000000294 L 340 -157.08000000000277 L 340 -157.08000000000288 L 341 -150.18000000000268 L 341 -150.1800000000029 L 342 -143.32000000000266 L 342 -143.3200000000029 L 343 -136.50000000000261 L 343 -136.50000000000284 L 344 -129.72000000000264 L 344 -129.72000000000276 L 345 -122.98000000000263 L 345 -122.98000000000275 L 346 -116.28000000000259 L 346 -116.2800000000027 L 347 -109.6200000000025 L 347 -109.62000000000262 L 348 -103.00000000000239 L 348 -103.00000000000261 L 349 -96.42000000000246 L 349 -96.42000000000269 L 350 -89.88000000000238 L 350 -89.88000000000261 L 351 -83.38000000000238 L 351 -83.3800000000025 L 352 -76.92000000000235 L 352 -76.92000000000257 L 353 -70.50000000000227 L 353 -70.5000000000025 L 354 -64.12000000000228 L 354 -64.12000000000245 L 355 -57.78000000000219 L 355 -57.78000000000236 L 356 -51.480000000002235 L 356 -51.480000000002406 L 357 -45.22000000000213 L 357 -45.2200000000023 L 358 -39.0000000000021 L 358 -39.000000000002274 L 359 -32.820000000002096 L 359 -32.82000000000227 L 360 -26.680000000002053 L 360 -26.68000000000228 L 361 -20.580000000002087 L 361 -20.580000000002258 L 362 -14.520000000002028 L 362 -14.520000000002199 L 363 -8.50000000000199 L 363 -8.50000000000216 L 364 -2.5200000000019713 L 364 -2.520000000002142 L 365 3.4199999999980832 L 365 3.4199999999979127 L 366 9.319999999998117 L 366 9.319999999997947 L 367 15.179999999998131 L 367 15.17999999999796 L 368 20.99999999999818 L 368 20.99999999999801 L 369 26.779999999998097 L 369 26.779999999997926 L 370 32.51999999999816 L 370 32.519999999997935 L 371 38.21999999999821 L 371 38.21999999999804 L 372 43.87999999999812 L 372 43.87999999999806 L 373 49.49999999999818 L 373 49.49999999999807 L 374 55.079999999998165 L 374 55.07999999999811 L 375 60.61999999999824 L 375 60.61999999999813 L 376 66.11999999999824 L 376 66.11999999999819 L 377 71.57999999999834 L 377 71.57999999999822 L 378 76.9999999999983 L 378 76.99999999999824 L 379 82.37999999999835 L 379 82.37999999999829 L 380 87.71999999999838 L 380 87.71999999999827 L 381 93.01999999999839 L 381 93.01999999999828 L 382 98.27999999999844 L 382 98.27999999999838 L 383 103.49999999999847 L 383 103.49999999999841 L 384 108.67999999999853 L 384 108.67999999999842 L 385 113.81999999999852 L 385 113.8199999999984 L 386 118.91999999999854 L 386 118.91999999999842 L 387 123.9799999999986 L 387 123.97999999999848 L 388 128.99999999999858 L 388 128.99999999999847 L 389 133.97999999999865 L 389 133.97999999999854 L 390 138.91999999999865 L 390 138.91999999999854 L 391 143.81999999999869 L 391 143.81999999999863 L 392 148.6799999999987 L 392 148.67999999999864 L 393 153.49999999999875 L 393 153.49999999999864 L 394 158.27999999999878 L 394 158.27999999999867 L 395 163.0199999999988 L 395 163.01999999999873 L 396 167.71999999999878 L 396 167.71999999999872 L 397 172.3799999999988 L 397 172.37999999999874 L 398 176.99999999999886 L 398 176.9999999999988 L 399 181.57999999999885 L 399 181.5799999999988 L 400 186.1199999999989 L 400 186.11999999999878 L 401 190.61999999999892 L 401 190.61999999999884 L 402 195.07999999999888 L 402 195.0799999999988 L 403 199.4999999999989 L 403 199.4999999999988 L 404 203.87999999999892 L 404 203.87999999999883 L 405 208.21999999999895 L 405 208.21999999999886 L 406 212.51999999999893 L 406 212.51999999999884 L 407 216.77999999999898 L 407 216.77999999999886 L 408 220.999999999999 L 408 220.99999999999892 L 409 225.179999999999 L 409 225.17999999999893 L 410 229.31999999999903 L 410 229.3199999999989 L 411 233.41999999999908 L 411 233.419999999999 L 412 237.47999999999908 L 412 237.479999999999 L 413 241.4999999999991 L 413 241.499999999999 L 414 245.4799999999991 L 414 245.47999999999905 L 415 249.41999999999913 L 415 249.41999999999908 L 416 253.31999999999914 L 416 253.31999999999908 L 417 257.17999999999915 L 417 257.17999999999915 L 418 260.9999999999992 L 418 260.99999999999915 L 419 264.7799999999992 L 419 264.7799999999992 L 420 268.5199999999992 L 420 268.5199999999992 L 421 272.21999999999923 L 421 272.21999999999923 L 422 275.87999999999926 L 422 275.8799999999992 L 423 279.4999999999993 L 423 279.4999999999992 L 424 283.0799999999993 L 424 283.07999999999925 L 425 286.6199999999993 L 425 286.61999999999927 L 426 290.1199999999993 L 426 290.11999999999927 L 427 293.57999999999936 L 427 293.57999999999925 L 428 296.9999999999993 L 428 296.9999999999993 L 429 300.3799999999993 L 429 300.3799999999993 L 430 303.71999999999935 L 430 303.71999999999935 L 431 307.0199999999994 L 431 307.0199999999993 L 432 310.2799999999994 L 432 310.2799999999994 L 433 313.49999999999943 L 433 313.4999999999994 L 434 316.67999999999944 L 434 316.6799999999994 L 435 319.8199999999995 L 435 319.8199999999994 L 436 322.9199999999995 L 436 322.91999999999945 L 437 325.97999999999945 L 437 325.97999999999945 L 438 328.9999999999995 L 438 328.99999999999943 L 439 331.9799999999995 L 439 331.97999999999945 L 440 334.9199999999995 L 440 334.9199999999995 L 441 337.81999999999954 L 441 337.8199999999995 L 442 340.67999999999955 L 442 340.6799999999995 L 443 343.49999999999955 L 443 343.49999999999955 L 444 346.2799999999996 L 444 346.2799999999995 L 445 349.0199999999996 L 445 349.0199999999995 L 446 351.7199999999996 L 446 351.7199999999996 L 447 354.3799999999996 L 447 354.37999999999954 L 448 356.9999999999996 L 448 356.9999999999996 L 449 359.57999999999964 L 449 359.5799999999996 L 450 362.11999999999966 L 450 362.1199999999996 L 451 364.61999999999966 L 451 364.61999999999966 L 452 367.0799999999997 L 452 367.07999999999964 L 453 369.49999999999966 L 453 369.49999999999966 L 454 371.8799999999997 L 454 371.87999999999965 L 455 374.2199999999997 L 455 374.2199999999997 L 456 376.5199999999997 L 456 376.5199999999997 L 457 378.77999999999975 L 457 378.7799999999997 L 458 380.9999999999997 L 458 380.9999999999997 L 459 383.1799999999997 L 459 383.1799999999997 L 460 385.31999999999977 L 460 385.3199999999997 L 461 387.41999999999973 L 461 387.41999999999973 L 462 389.4799999999998 L 462 389.47999999999973 L 463 391.4999999999998 L 463 391.4999999999998 L 464 393.4799999999998 L 464 393.4799999999998 L 465 395.4199999999998 L 465 395.4199999999998 L 466 397.3199999999998 L 466 397.3199999999998 L 467 399.17999999999984 L 467 399.1799999999998 L 468 400.99999999999983 L 468 400.99999999999983 L 469 402.77999999999986 L 469 402.7799999999998 L 470 404.5199999999998 L 470 404.5199999999998 L 471 406.21999999999986 L 471 406.2199999999998 L 472 407.8799999999998 L 472 407.8799999999998 L 473 409.4999999999999 L 473 409.49999999999983 L 474 411.07999999999987 L 474 411.07999999999987 L 475 412.6199999999999 L 475 412.61999999999983 L 476 414.1199999999999 L 476 414.1199999999999 L 477 415.57999999999987 L 477 415.57999999999987 L 478 416.9999999999999 L 478 416.9999999999999 L 479 418.3799999999999 L 479 418.3799999999999 L 480 419.7199999999999 L 480 419.7199999999999 L 481 421.0199999999999 L 481 421.0199999999999 L 482 422.2799999999999 L 482 422.2799999999999 L 483 423.49999999999994 L 483 423.4999999999999 L 484 424.67999999999995 L 484 424.67999999999995 L 485 425.81999999999994 L 485 425.81999999999994 L 486 426.91999999999996 L 486 426.9199999999999 L 487 427.97999999999996 L 487 427.9799999999999 L 488 428.99999999999994 L 488 428.99999999999994 L 489 429.97999999999996 L 489 429.97999999999996 L 490 430.91999999999996 L 490 430.91999999999996 L 491 431.81999999999994 L 491 431.81999999999994 L 492 432.67999999999995 L 492 432.67999999999995 L 493 433.49999999999994 L 493 433.49999999999994 L 494 434.28 L 494 434.28 L 495 435.02 L 495 435.02 L 496 435.71999999999997 L 496 435.71999999999997 L 497 436.38 L 497 436.38 L 498 437 L 498 437 L 499 437.58 L 499 437.58 L 500 438.12 L 500 438.12 L 501 438.62 L 501 438.62 L 502 439.08 L 502 439.08 L 503 439.5 L 503 439.5 L 504 439.88 L 504 439.88 L 505 440.21999999999997 L 505 440.21999999999997 L 506 440.52 L 506 440.52 L 507 440.78 L 507 440.78 L 508 441 L 508 441 L 509 441.18 L 509 441.18 L 510 441.32 L 510 441.32 L 511 441.42 L 511 441.42 L 512 441.48 L 512 441.48 L 513 441.5 L 513 441.5 L 514 441.48 L 514 441.48 L 515 441.42 L 515 441.42 L 516 441.32 L 516 441.32 L 517 441.18 L 517 441.18 L 518 441 L 518 441 L 519 440.78 L 519 440.78 L 520 440.52 L 520 440.52 L 521 440.21999999999997 L 521 440.21999999999997 L 522 439.88 L 522 439.88 L 523 439.5 L 523 439.5 L 524 439.08 L 524 439.08 L 525 438.62 L 525 438.62 L 526 438.12 L 526 438.12 L 527 437.58 L 527 437.58 L 528 437 L 528 437 L 529 436.38 L 529 436.38 L 530 435.71999999999997 L 530 435.71999999999997 L 531 435.02 L 531 435.02 L 532 434.28 L 532 434.28 L 533 433.49999999999994 L 533 433.49999999999994 L 534 432.67999999999995 L 534 432.67999999999995 L 535 431.81999999999994 L 535 431.81999999999994 L 536 430.91999999999996 L 536 430.91999999999996 L 537 429.97999999999996 L 537 429.97999999999996 L 538 428.99999999999994 L 538 428.99999999999994 L 539 427.9799999999999 L 539 427.97999999999996 L 540 426.9199999999999 L 540 426.91999999999996 L 541 425.81999999999994 L 541 425.81999999999994 L 542 424.67999999999995 L 542 424.67999999999995 L 543 423.4999999999999 L 543 423.49999999999994 L 544 422.2799999999999 L 544 422.2799999999999 L 545 421.0199999999999 L 545 421.0199999999999 L 546 419.7199999999999 L 546 419.7199999999999 L 547 418.3799999999999 L 547 418.3799999999999 L 548 416.9999999999999 L 548 416.9999999999999 L 549 415.57999999999987 L 549 415.57999999999987 L 550 414.1199999999999 L 550 414.1199999999999 L 551 412.61999999999983 L 551 412.6199999999999 L 552 411.07999999999987 L 552 411.07999999999987 L 553 409.49999999999983 L 553 409.4999999999999 L 554 407.8799999999998 L 554 407.8799999999998 L 555 406.2199999999998 L 555 406.21999999999986 L 556 404.5199999999998 L 556 404.5199999999998 L 557 402.7799999999998 L 557 402.77999999999986 L 558 400.99999999999983 L 558 400.99999999999983 L 559 399.1799999999998 L 559 399.17999999999984 L 560 397.3199999999998 L 560 397.3199999999998 L 561 395.4199999999998 L 561 395.4199999999998 L 562 393.4799999999998 L 562 393.4799999999998 L 563 391.4999999999998 L 563 391.4999999999998 L 564 389.47999999999973 L 564 389.4799999999998 L 565 387.41999999999973 L 565 387.41999999999973 L 566 385.3199999999997 L 566 385.31999999999977 L 567 383.1799999999997 L 567 383.1799999999997 L 568 380.9999999999997 L 568 380.9999999999997 L 569 378.7799999999997 L 569 378.77999999999975 L 570 376.5199999999997 L 570 376.5199999999997 L 571 374.2199999999997 L 571 374.2199999999997 L 572 371.87999999999965 L 572 371.8799999999997 L 573 369.49999999999966 L 573 369.49999999999966 L 574 367.07999999999964 L 574 367.0799999999997 L 575 364.61999999999966 L 575 364.61999999999966 L 576 362.1199999999996 L 576 362.11999999999966 L 577 359.5799999999996 L 577 359.57999999999964 L 578 356.9999999999996 L 578 356.9999999999996 L 579 354.37999999999954 L 579 354.3799999999996 L 580 351.7199999999996 L 580 351.7199999999996 L 581 349.0199999999995 L 581 349.0199999999996 L 582 346.2799999999995 L 582 346.2799999999996 L 583 343.49999999999955 L 583 343.49999999999955 L 584 340.6799999999995 L 584 340.67999999999955 L 585 337.8199999999995 L 585 337.81999999999954 L 586 334.9199999999995 L 586 334.9199999999995 L 587 331.97999999999945 L 587 331.9799999999995 L 588 328.99999999999943 L 588 328.9999999999995 L 589 325.97999999999945 L 589 325.97999999999945 L 590 322.91999999999945 L 590 322.9199999999995 L 591 319.8199999999994 L 591 319.8199999999995 L 592 316.6799999999994 L 592 316.67999999999944 L 593 313.4999999999994 L 593 313.49999999999943 L 594 310.2799999999994 L 594 310.2799999999994 L 595 307.0199999999993 L 595 307.0199999999994 L 596 303.71999999999935 L 596 303.71999999999935 L 597 300.3799999999993 L 597 300.3799999999993 L 598 296.9999999999993 L 598 296.9999999999993 L 599 293.57999999999925 L 599 293.57999999999936 L 600 290.11999999999927 L 600 290.1199999999993 L 601 286.61999999999927 L 601 286.6199999999993 L 602 283.07999999999925 L 602 283.0799999999993 L 603 279.4999999999992 L 603 279.4999999999993 L 604 275.8799999999992 L 604 275.87999999999926 L 605 272.21999999999923 L 605 272.21999999999923 L 606 268.5199999999992 L 606 268.5199999999992 L 607 264.7799999999992 L 607 264.7799999999992 L 608 260.99999999999915 L 608 260.9999999999992 L 609 257.17999999999915 L 609 257.17999999999915 L 610 253.31999999999908 L 610 253.31999999999914 L 611 249.41999999999908 L 611 249.41999999999913 L 612 245.47999999999905 L 612 245.4799999999991 L 613 241.499999999999 L 613 241.4999999999991 L 614 237.479999999999 L 614 237.47999999999908 L 615 233.419999999999 L 615 233.41999999999908 L 616 229.3199999999989 L 616 229.31999999999903 L 617 225.17999999999893 L 617 225.179999999999 L 618 220.99999999999892 L 618 220.999999999999 L 619 216.77999999999886 L 619 216.77999999999898 L 620 212.51999999999884 L 620 212.51999999999893 L 621 208.21999999999886 L 621 208.21999999999895 L 622 203.87999999999883 L 622 203.87999999999892 L 623 199.4999999999988 L 623 199.4999999999989 L 624 195.0799999999988 L 624 195.07999999999888 L 625 190.61999999999884 L 625 190.61999999999892 L 626 186.11999999999878 L 626 186.1199999999989 L 627 181.5799999999988 L 627 181.57999999999885 L 628 176.9999999999988 L 628 176.99999999999886 L 629 172.37999999999874 L 629 172.3799999999988 L 630 167.71999999999872 L 630 167.71999999999878 L 631 163.01999999999873 L 631 163.0199999999988 L 632 158.27999999999867 L 632 158.27999999999878 L 633 153.49999999999864 L 633 153.49999999999875 L 634 148.67999999999864 L 634 148.6799999999987 L 635 143.81999999999863 L 635 143.81999999999869 L 636 138.91999999999854 L 636 138.91999999999865 L 637 133.97999999999854 L 637 133.97999999999865 L 638 128.99999999999847 L 638 128.99999999999858 L 639 123.97999999999848 L 639 123.9799999999986 L 640 118.91999999999842 L 640 118.91999999999854 L 641 113.8199999999984 L 641 113.81999999999852 L 642 108.67999999999842 L 642 108.67999999999853 L 643 103.49999999999841 L 643 103.49999999999847 L 644 98.27999999999838 L 644 98.27999999999844 L 645 93.01999999999828 L 645 93.01999999999839 L 646 87.71999999999827 L 646 87.71999999999838 L 647 82.37999999999829 L 647 82.37999999999835 L 648 76.99999999999824 L 648 76.9999999999983 L 649 71.57999999999822 L 649 71.57999999999834 L 650 66.11999999999819 L 650 66.11999999999824 L 651 60.61999999999813 L 651 60.61999999999824 L 652 55.07999999999811 L 652 55.079999999998165 L 653 49.49999999999807 L 653 49.49999999999818 L 654 43.87999999999806 L 654 43.87999999999812 L 655 38.21999999999804 L 655 38.21999999999821 L 656 32.519999999997935 L 656 32.51999999999816 L 657 26.779999999997926 L 657 26.779999999998097 L 658 20.99999999999801 L 658 20.99999999999818 L 659 15.17999999999796 L 659 15.179999999998131 L 660 9.319999999997947 L 660 9.319999999998117 L 661 3.4199999999979127 L 661 3.4199999999980832 L 662 -2.520000000002142 L 662 -2.5200000000019713 L 663 -8.50000000000216 L 663 -8.50000000000199 L 664 -14.520000000002199 L 664 -14.520000000002028 L 665 -20.580000000002258 L 665 -20.580000000002087 L 666 -26.68000000000228 L 666 -26.680000000002053 L 667 -32.82000000000227 L 667 -32.820000000002096 L 668 -39.000000000002274 L 668 -39.0000000000021 L 669 -45.2200000000023 L 669 -45.22000000000213 L 670 -51.480000000002406 L 670 -51.480000000002235 L 671 -57.78000000000236 L 671 -57.78000000000219 L 672 -64.12000000000245 L 672 -64.12000000000228 L 673 -70.5000000000025 L 673 -70.50000000000227 L 674 -76.92000000000257 L 674 -76.92000000000235 L 675 -83.3800000000025 L 675 -83.38000000000238 L 676 -89.88000000000261 L 676 -89.88000000000238 L 677 -96.42000000000269 L 677 -96.42000000000246 L 678 -103.00000000000261 L 678 -103.00000000000239 L 679 -109.62000000000262 L 679 -109.6200000000025 L 680 -116.2800000000027 L 680 -116.28000000000259 L 681 -122.98000000000275 L 681 -122.98000000000263 L 682 -129.72000000000276 L 682 -129.72000000000264 L 683 -136.50000000000284 L 683 -136.50000000000261 L 684 -143.3200000000029 L 684 -143.32000000000266 L 685 -150.1800000000029 L 685 -150.18000000000268 L 686 -157.08000000000288 L 686 -157.08000000000277 L 687 -164.02000000000294 L 687 -164.02000000000282 L 688 -171.00000000000307 L 688 -171.00000000000284 L 689 -178.02000000000294 L 689 -178.0200000000027 L 690 -185.08000000000288 L 690 -185.08000000000277 L 691 -192.18000000000302 L 691 -192.1800000000028 L 692 -199.320000000003 L 692 -199.32000000000278 L 693 -206.50000000000307 L 693 -206.50000000000284 L 694 -213.7200000000031 L 694 -213.72000000000287 L 695 -220.9800000000031 L 695 -220.98000000000297 L 696 -228.28000000000316 L 696 -228.28000000000293 L 697 -235.6200000000032 L 697 -235.62000000000296 L 698 -243.0000000000033 L 698 -243.00000000000307 L 699 -250.42000000000326 L 699 -250.42000000000314 L 700 -257.8800000000033 L 700 -257.88000000000306 L 701 -265.3800000000033 L 701 -265.3800000000032 L 702 -272.92000000000337 L 702 -272.92000000000314 L 703 -280.5000000000034 L 703 -280.5000000000032 L 704 -288.1200000000034 L 704 -288.1200000000033 L 705 -295.7800000000035 L 705 -295.78000000000327 L 706 -303.48000000000354 L 706 -303.48000000000343 L 707 -311.22000000000367 L 707 -311.22000000000344 L 708 -319.00000000000364 L 708 -319.0000000000034 L 709 -326.8200000000037 L 709 -326.82000000000346 L 710 -334.6800000000037 L 710 -334.6800000000036 L 711 -342.5800000000038 L 711 -342.58000000000357 L 712 -350.52000000000385 L 712 -350.52000000000373 L 713 -358.500000000004 L 713 -358.50000000000364 L 714 -366.52000000000373 L 714 -366.5200000000034 L 715 -374.580000000004 L 715 -374.5800000000037 L 716 -382.6800000000038 L 716 -382.6800000000035 L 717 -390.82000000000403 L 717 -390.8200000000037 L 718 -399.0000000000041 L 718 -399.00000000000375 L 719 -407.22000000000435 L 719 -407.2200000000039 L 720 -415.4800000000041 L 720 -415.48000000000377 L 721 -423.7800000000043 L 721 -423.78000000000395 L 722 -432.1200000000041 L 722 -432.12000000000376 L 723 -440.5000000000043 L 723 -440.500000000004 L 724 -448.9200000000043 L 724 -448.92000000000394 L 725 -457.38000000000454 L 725 -457.3800000000041 L 726 -465.8800000000042 L 726 -465.88000000000386 L 727 -474.4200000000046 L 727 -474.4200000000043 L 728 -483.00000000000443 L 728 -483.0000000000041 L 729 -491.62000000000455 L 729 -491.6200000000042 L 730 -500.2800000000045 L 730 -500.2800000000042 L 731 -508.9800000000047 L 731 -508.98000000000434 L 732 -517.7200000000046 L 732 -517.7200000000042 L 733 -526.5000000000048 L 733 -526.5000000000044 L 734 -535.3200000000047 L 734 -535.3200000000044 L 735 -544.1800000000048 L 735 -544.1800000000045 L 736 -553.0800000000048 L 736 -553.0800000000045 L 737 -562.0200000000046 L 737 -562.0200000000043 L 738 -571.0000000000049 L 738 -571.0000000000045 L 739 -580.0200000000049 L 739 -580.0200000000044 L 740 -589.0800000000052 L 740 -589.0800000000047 L 741 -598.1800000000048 L 741 -598.1800000000046 L 742 -607.3200000000052 L 742 -607.3200000000047 L 743 -616.5000000000048 L 743 -616.5000000000045 L 744 -625.7200000000053 L 744 -625.720000000005 L 745 -634.980000000005 L 745 -634.9800000000048 L 746 -644.2800000000052 L 746 -644.280000000005 L 747 -653.6200000000051 L 747 -653.6200000000049 L 748 -663.0000000000055 L 748 -663.000000000005 L 749 -672.4200000000051 L 749 -672.4200000000048 L 750 -681.8800000000056 L 750 -681.8800000000051 L 751 -691.3800000000053 L 751 -691.3800000000049 L 752 -700.9200000000058 L 752 -700.9200000000053 L 753 -710.5000000000055 L 753 -710.500000000005 L 754 -720.1200000000058 L 754 -720.1200000000053 L 755 -729.7800000000054 L 755 -729.7800000000052 L 756 -739.4800000000059 L 756 -739.4800000000055 L 757 -749.2200000000055 L 757 -749.2200000000053 L 758 -759.0000000000059 L 758 -759.0000000000055 L 759 -768.8200000000058 L 759 -768.8200000000054 L 760 -778.680000000006 L 760 -778.6800000000055 L 761 -788.5800000000058 L 761 -788.5800000000054 L 762 -798.5200000000061 L 762 -798.5200000000059 L 763 -808.5000000000061 L 763 -808.5000000000057 L 764 -818.5200000000061 L 764 -818.5200000000059 L 765 -828.5800000000061 L 765 -828.5800000000056 L 766 -838.6800000000064 L 766 -838.680000000006 L 767 -848.8200000000063 L 767 -848.8200000000058 L 768 -859.0000000000066 L 768 -859.0000000000061 L 769 -869.2200000000064 L 769 -869.2200000000059 L 770 -879.4800000000062 L 770 -879.4800000000057 L 771 -889.7800000000063 L 771 -889.7800000000059 L 772 -900.1200000000063 L 772 -900.1200000000058 L 773 -910.5000000000064 L 773 -910.5000000000061 L 774 -920.9200000000064 L 774 -920.920000000006 L 775 -931.3800000000065 L 775 -931.3800000000062 L 776 -941.8800000000065 L 776 -941.880000000006 L 777 -952.4200000000069 L 777 -952.4200000000064 L 778 -963.0000000000066 L 778 -963.0000000000061 L 779 -973.6200000000069 L 779 -973.6200000000065 L 780 -984.2800000000066 L 780 -984.2800000000061 L 781 -994.9800000000068 L 781 -994.9800000000066 L 782 -1005.7200000000068 L 782 -1005.7200000000064 L 783 -1016.500000000007 L 783 -1016.5000000000068 L 784 -1027.3200000000068 L 784 -1027.3200000000065 L 785 -1038.180000000007 L 785 -1038.1800000000067 L 786 -1049.080000000007 L 786 -1049.0800000000067 L 787 -1060.0200000000073 L 787 -1060.020000000007 L 788 -1071.000000000007 L 788 -1071.0000000000068 L 789 -1082.0200000000075 L 789 -1082.020000000007 L 790 -1093.0800000000072 L 790 -1093.080000000007 L 791 -1104.1800000000076 L 791 -1104.1800000000073 L 792 -1115.3200000000072 L 792 -1115.320000000007 L 793 -1126.5000000000077 L 793 -1126.5000000000073 L 794 -1137.7200000000075 L 794 -1137.7200000000073 L 795 -1148.9800000000077 L 795 -1148.9800000000075 L 796 -1160.2800000000077 L 796 -1160.280000000007 L 797 -1171.6200000000078 L 797 -1171.6200000000072 L 798 -1183.0000000000077 L 798 -1183.000000000007 L 799 -1194.4200000000083 L 799 -1194.4200000000073 L 800 -1205.880000000008 L 800 -1205.8800000000074 L 801 -1217.3800000000083 L 801 -1217.3800000000076 L 802 -1228.9200000000083 L 802 -1228.9200000000076 L 803 -1240.500000000008 L 803 -1240.5000000000073 L 804 -1252.1200000000083 L 804 -1252.1200000000076 L 805 -1263.7800000000082 L 805 -1263.7800000000075 L 806 -1275.4800000000082 L 806 -1275.4800000000075 L 807 -1287.2200000000082 L 807 -1287.2200000000075 L 808 -1299.0000000000086 L 808 -1299.000000000008 L 809 -1310.8200000000083 L 809 -1310.8200000000077 L 810 -1322.6800000000085 L 810 -1322.6800000000078 L 811 -1334.5800000000086 L 811 -1334.5800000000079 L 812 -1346.5200000000088 L 812 -1346.5200000000082 L 813 -1358.5000000000086 L 813 -1358.500000000008 L 814 -1370.5200000000088 L 814 -1370.5200000000082 L 815 -1382.5800000000088 L 815 -1382.580000000008 L 816 -1394.6800000000092 L 816 -1394.6800000000085 L 817 -1406.820000000009 L 817 -1406.8200000000083 L 818 -1419.000000000009 L 818 -1419.0000000000084 L 819 -1431.2200000000091 L 819 -1431.2200000000082 L 820 -1443.4800000000093 L 820 -1443.4800000000087 L 821 -1455.780000000009 L 821 -1455.7800000000084 L 822 -1468.1200000000094 L 822 -1468.1200000000088 L 823 -1480.500000000009 L 823 -1480.5000000000084 L 824 -1492.9200000000094 L 824 -1492.9200000000087 L 825 -1505.3800000000092 L 825 -1505.3800000000085 L 826 -1517.8800000000097 L 826 -1517.880000000009 L 827 -1530.4200000000096 L 827 -1530.420000000009 L 828 -1543.0000000000098 L 828 -1543.000000000009 L 829 -1555.6200000000094 L 829 -1555.6200000000088 L 830 -1568.28000000001 L 830 -1568.2800000000093 L 831 -1580.9800000000098 L 831 -1580.980000000009 L 832 -1593.72000000001 L 832 -1593.7200000000093 L 833 -1606.50000000001 L 833 -1606.500000000009 L 834 -1619.3200000000097 L 834 -1619.3200000000088 L 835 -1632.1800000000103 L 835 -1632.1800000000094 L 836 -1645.08000000001 L 836 -1645.0800000000095 L 837 -1658.02000000001 L 837 -1658.0200000000095 L 838 -1671.00000000001 L 838 -1671.0000000000095 L 839 -1684.0200000000104 L 839 -1684.0200000000095 L 840 -1697.08000000001 L 840 -1697.0800000000095 L 841 -1710.1800000000108 L 841 -1710.1800000000098 L 842 -1723.3200000000102 L 842 -1723.3200000000097 L 843 -1736.5000000000105 L 843 -1736.5000000000095 L 844 -1749.7200000000103 L 844 -1749.7200000000093 L 845 -1762.9800000000105 L 845 -1762.98000000001 L 846 -1776.2800000000107 L 846 -1776.2800000000097 L 847 -1789.6200000000108 L 847 -1789.6200000000104 L 848 -1803.0000000000105 L 848 -1803.00000000001 L 849 -1816.420000000011 L 849 -1816.4200000000105 L 850 -1829.8800000000106 L 850 -1829.88000000001 L 851 -1843.380000000011 L 851 -1843.3800000000106 L 852 -1856.920000000011 L 852 -1856.92000000001 L 853 -1870.5000000000114 L 853 -1870.5000000000105 L 854 -1884.1200000000108 L 854 -1884.1200000000104 L 855 -1897.7800000000116 L 855 -1897.7800000000107 L 856 -1911.4800000000114 L 856 -1911.4800000000105 L 857 -1925.2200000000116 L 857 -1925.2200000000107 L 858 -1939.0000000000114 L 858 -1939.0000000000105 L 859 -1952.8200000000115 L 859 -1952.820000000011 L 860 -1966.6800000000117 L 860 -1966.6800000000108 L 861 -1980.5800000000118 L 861 -1980.5800000000113 L 862 -1994.5200000000118 L 862 -1994.520000000011 L 863 -2008.5000000000123 L 863 -2008.5000000000114 L 864 -2022.5200000000118 L 864 -2022.5200000000114 L 865 -2036.5800000000118 L 865 -2036.5800000000108 L 866 -2050.6800000000117 L 866 -2050.680000000011 L 867 -2064.8200000000115 L 867 -2064.820000000011 L 868 -2079.000000000012 L 868 -2079.0000000000114 L 869 -2093.220000000012 L 869 -2093.220000000011 L 870 -2107.4800000000123 L 870 -2107.4800000000114 L 871 -2121.780000000012 L 871 -2121.780000000011 L 872 -2136.120000000012 L 872 -2136.1200000000117 L 873 -2150.5000000000123 L 873 -2150.5000000000114 L 874 -2164.9200000000124 L 874 -2164.920000000012 L 875 -2179.3800000000124 L 875 -2179.3800000000115 L 876 -2193.880000000013 L 876 -2193.880000000012 L 877 -2208.4200000000124 L 877 -2208.420000000012 L 878 -2223.0000000000127 L 878 -2223.000000000012 L 879 -2237.6200000000126 L 879 -2237.6200000000117 L 880 -2252.2800000000134 L 880 -2252.2800000000125 L 881 -2266.9800000000128 L 881 -2266.980000000012 L 882 -2281.7200000000134 L 882 -2281.7200000000125 L 883 -2296.500000000013 L 883 -2296.5000000000123 L 884 -2311.3200000000134 L 884 -2311.3200000000124 L 885 -2326.180000000013 L 885 -2326.1800000000126 L 886 -2341.0800000000136 L 886 -2341.0800000000127 L 887 -2356.020000000013 L 887 -2356.0200000000123 L 888 -2371.0000000000136 L 888 -2371.000000000013 L 889 -2386.020000000013 L 889 -2386.0200000000127 L 890 -2401.0800000000136 L 890 -2401.080000000013 L 891 -2416.1800000000135 L 891 -2416.1800000000126 L 892 -2431.3200000000143 L 892 -2431.3200000000134 L 893 -2446.5000000000136 L 893 -2446.5000000000127 L 894 -2461.720000000014 L 894 -2461.7200000000134 L 895 -2476.9800000000137 L 895 -2476.980000000013 L 896 -2492.2800000000143 L 896 -2492.280000000014 L 897 -2507.620000000014 L 897 -2507.620000000013 L 898 -2523.0000000000136 L 898 -2523.0000000000127 L 899 -2538.420000000014 L 899 -2538.4200000000137 L 900 -2553.8800000000138 L 900 -2553.8800000000133 L 901 -2569.3800000000147 L 901 -2569.3800000000138 L 902 -2584.920000000014 L 902 -2584.9200000000137 L 903 -2600.5000000000146 L 903 -2600.5000000000136 L 904 -2616.1200000000144 L 904 -2616.1200000000135 L 905 -2631.7800000000148 L 905 -2631.780000000014 L 906 -2647.480000000014 L 906 -2647.4800000000137 L 907 -2663.220000000015 L 907 -2663.2200000000144 L 908 -2679.0000000000146 L 908 -2679.0000000000136 L 909 -2694.820000000015 L 909 -2694.8200000000143 L 910 -2710.680000000015 L 910 -2710.680000000014 L 911 -2726.5800000000154 L 911 -2726.580000000015 L 912 -2742.520000000015 L 912 -2742.520000000014 L 913 -2758.500000000016 L 913 -2758.5000000000146 L 914 -2774.5200000000154 L 914 -2774.520000000014 L 915 -2790.580000000015 L 915 -2790.5800000000136 L 916 -2806.6800000000167 L 916 -2806.6800000000153 L 917 -2822.820000000016 L 917 -2822.8200000000147 L 918 -2839.000000000016 L 918 -2839.0000000000146 L 919 -2855.2200000000153 L 919 -2855.220000000014 L 920 -2871.4800000000164 L 920 -2871.480000000015 L 921 -2887.780000000016 L 921 -2887.7800000000148 L 922 -2904.120000000016 L 922 -2904.1200000000144 L 923 -2920.5000000000164 L 923 -2920.500000000015 L 924 -2936.920000000017 L 924 -2936.9200000000155 L 925 -2953.3800000000174 L 925 -2953.3800000000156 L 926 -2969.8800000000165 L 926 -2969.880000000015 L 927 -2986.4200000000164 L 927 -2986.420000000015 L 928 -3003.0000000000177 L 928 -3003.000000000016 L 929 -3019.620000000017 L 929 -3019.620000000016 L 930 -3036.280000000017 L 930 -3036.2800000000157 L 931 -3052.9800000000164 L 931 -3052.980000000015 L 932 -3069.7200000000166 L 932 -3069.7200000000153 L 933 -3086.5000000000173 L 933 -3086.500000000016 L 934 -3103.3200000000174 L 934 -3103.3200000000156 L 935 -3120.180000000017 L 935 -3120.1800000000158 L 936 -3137.0800000000168 L 936 -3137.0800000000154 L 937 -3154.020000000018 L 937 -3154.0200000000164 L 938 -3171.0000000000177 L 938 -3171.000000000016 L 939 -3188.020000000017 L 939 -3188.0200000000154 L 940 -3205.080000000017 L 940 -3205.080000000016 L 941 -3222.1800000000185 L 941 -3222.180000000017 L 942 -3239.320000000018 L 942 -3239.3200000000165 L 943 -3256.5000000000177 L 943 -3256.5000000000164 L 944 -3273.7200000000175 L 944 -3273.7200000000157 L 945 -3290.980000000018 L 945 -3290.980000000017 L 946 -3308.280000000019 L 946 -3308.280000000017 L 947 -3325.620000000018 L 947 -3325.6200000000167 L 948 -3343.0000000000173 L 948 -3343.000000000016 L 949 -3360.4200000000187 L 949 -3360.4200000000174 L 950 -3377.8800000000188 L 950 -3377.8800000000174 L 951 -3395.3800000000183 L 951 -3395.380000000017 L 952 -3412.9200000000183 L 952 -3412.920000000017 L 953 -3430.500000000019 L 953 -3430.5000000000177 L 954 -3448.1200000000194 L 954 -3448.120000000018 L 955 -3465.780000000019 L 955 -3465.7800000000175 L 956 -3483.480000000018 L 956 -3483.480000000017 L 957 -3501.2200000000194 L 957 -3501.220000000018 L 958 -3519.0000000000196 L 958 -3519.000000000018 L 959 -3536.8200000000193 L 959 -3536.820000000018 L 960 -3554.680000000019 L 960 -3554.6800000000176 L 961 -3572.5800000000186 L 961 -3572.580000000017 L 962 -3590.52000000002 L 962 -3590.5200000000186 L 963 -3608.5000000000196 L 963 -3608.500000000018 L 964 -3626.5200000000195 L 964 -3626.520000000018 L 965 -3644.5800000000195 L 965 -3644.5800000000177 L 966 -3662.6800000000203 L 966 -3662.6800000000194 L 967 -3680.8200000000206 L 967 -3680.820000000019 L 968 -3699.00000000002 L 968 -3699.000000000018 L 969 -3717.2200000000194 L 969 -3717.2200000000184 L 970 -3735.4800000000214 L 970 -3735.4800000000196 L 971 -3753.7800000000207 L 971 -3753.780000000019 L 972 -3772.12000000002 L 972 -3772.120000000019 L 973 -3790.500000000019 L 973 -3790.500000000018 L 974 -3808.920000000021 L 974 -3808.92000000002 L 975 -3827.380000000021 L 975 -3827.38000000002 L 976 -3845.880000000021 L 976 -3845.880000000019 L 977 -3864.42000000002 L 977 -3864.420000000019 L 978 -3883.000000000022 L 978 -3883.00000000002 L 979 -3901.620000000021 L 979 -3901.62000000002 L 980 -3920.2800000000207 L 980 -3920.2800000000198 L 981 -3938.9800000000205 L 981 -3938.9800000000196 L 982 -3957.720000000022 L 982 -3957.7200000000203 L 983 -3976.500000000022 L 983 -3976.50000000002 L 984 -3995.3200000000215 L 984 -3995.3200000000197 L 985 -4014.1800000000203 L 985 -4014.1800000000194 L 986 -4033.0800000000218 L 986 -4033.080000000021 L 987 -4052.0200000000223 L 987 -4052.0200000000204 L 988 -4071.000000000021 L 988 -4071.00000000002 L 989 -4090.0200000000214 L 989 -4090.0200000000195 L 990 -4109.080000000023 L 990 -4109.080000000022 L 991 -4128.180000000023 L 991 -4128.180000000021 L 992 -4147.320000000022 L 992 -4147.320000000021 L 993 -4166.500000000022 L 993 -4166.50000000002 L 994 -4185.720000000022 L 994 -4185.72000000002 L 995 -4204.980000000023 L 995 -4204.980000000021 L 996 -4224.2800000000225 L 996 -4224.280000000021 L 997 -4243.620000000022 L 997 -4243.620000000021 L 998 -4263.000000000022 L 998 -4263.00000000002 L 999 -4282.420000000024 L 999 -4282.420000000022 L 1000 -4301.880000000023 L 1000 -4301.880000000021 L 1001 -4321.380000000022 L 1001 -4321.380000000021 L 1002 -4340.920000000022 L 1002 -4340.920000000021 L 1003 -4360.500000000024 L 1003 -4360.500000000022 L 1004 -4380.1200000000235 L 1004 -4380.120000000022 L 1005 -4399.780000000023 L 1005 -4399.780000000022 L 1006 -4419.480000000023 L 1006 -4419.480000000021 L 1007 -4439.220000000024 L 1007 -4439.220000000022 L 1008 -4459.000000000024 L 1008 -4459.000000000023 L 1009 -4478.820000000023 L 1009 -4478.8200000000215 L 1010 -4498.680000000023 L 1010 -4498.680000000022 L 1011 -4518.5800000000245 L 1011 -4518.580000000024 L 1012 -4538.520000000024 L 1012 -4538.520000000023 L 1013 -4558.500000000025 L 1013 -4558.500000000023 L 1014 -4578.520000000024 L 1014 -4578.520000000022 L 1015 -4598.5800000000245 L 1015 -4598.580000000024 L 1016 -4618.680000000025 L 1016 -4618.680000000023 L 1017 -4638.820000000024 L 1017 -4638.820000000022 L 1018 -4659.000000000025 L 1018 -4659.000000000023 L 1019 -4679.220000000026 L 1019 -4679.220000000024 L 1020 -4699.480000000025 L 1020 -4699.480000000024 L 1021 -4719.780000000025 L 1021 -4719.780000000023 L 1022 -4740.120000000024 L 1022 -4740.120000000023 L 1023 -4760.500000000026 L 1023 -4760.500000000025 L 1024 -4780.9200000000255 L 1024 -4780.920000000024 L 1025 -4801.380000000026 L 1025 -4801.380000000024 L 1026 -4821.880000000025" stroke-opacity="0.8" stroke-linecap="round" stroke-linejoin="round" stroke-miterlimit="10" stroke-width="5"/><g transform="scale(31,31)"><g transform="translate(12.451612903225806,1.6701436129032257)"><path fill="rgb(21,101,192)" stroke="none" paint-order="stroke fill markers" d=" M 0.334 -0.302 L 0.3 -0.165 Q 0.28300000000000003 -0.097 0.28300000000000003 -0.077 Q 0.28300000000000003 -0.025 0.32 -0.014 Q 0.328 -0.011 0.338 -0.011 Q 0.388 -0.011 0.429 -0.061 Q 0.456 -0.093 0.47100000000000003 -0.14200000000000002 Q 0.47400000000000003 -0.153 0.484 -0.153 Q 0.496 -0.153 0.496 -0.14300000000000002 Q 0.496 -0.11800000000000001 0.465 -0.07100000000000001 Q 0.41100000000000003 0.011 0.336 0.011 Q 0.268 0.011 0.23700000000000002 -0.046 Q 0.231 -0.055 0.228 -0.065 Q 0.20400000000000001 -0.017 0.162 0.002 Q 0.14300000000000002 0.011 0.123 0.011 Q 0.063 0.011 0.039 -0.024 Q 0.029 -0.037 0.029 -0.055 Q 0.029 -0.092 0.061 -0.107 Q 0.07200000000000001 -0.113 0.084 -0.113 Q 0.114 -0.113 0.12 -0.088 Q 0.121 -0.083 0.121 -0.078 Q 0.121 -0.044 0.08700000000000001 -0.028 Q 0.081 -0.025 0.074 -0.024 Q 0.095 -0.011 0.124 -0.011 Q 0.177 -0.011 0.20800000000000002 -0.082 Q 0.214 -0.097 0.219 -0.115 Q 0.273 -0.319 0.273 -0.353 Q 0.267 -0.41500000000000004 0.219 -0.42 Q 0.167 -0.42 0.124 -0.367 L 0.124 -0.366 Q 0.124 -0.365 0.123 -0.365 Q 0.108 -0.34500000000000003 0.096 -0.319 Q 0.091 -0.307 0.08700000000000001 -0.295 L 0.085 -0.289 Q 0.083 -0.278 0.07200000000000001 -0.278 Q 0.06 -0.278 0.06 -0.28800000000000003 Q 0.06 -0.313 0.092 -0.36 Q 0.146 -0.442 0.221 -0.442 Q 0.298 -0.442 0.329 -0.366 Q 0.361 -0.428 0.41400000000000003 -0.44 Q 0.424 -0.442 0.434 -0.442 Q 0.493 -0.442 0.517 -0.40900000000000003 Q 0.527 -0.395 0.527 -0.376 Q 0.527 -0.335 0.49 -0.321 Q 0.481 -0.318 0.47300000000000003 -0.318 Q 0.442 -0.318 0.436 -0.34500000000000003 Q 0.435 -0.34900000000000003 0.435 -0.353 Q 0.435 -0.383 0.464 -0.4 Q 0.47300000000000003 -0.405 0.483 -0.40700000000000003 Q 0.462 -0.42 0.433 -0.42 Q 0.365 -0.42 0.337 -0.314 Q 0.335 -0.308 0.334 -0.302 Z"/></g><g transform="translate(13.023612903225805,1.2572516129032256) scale(0.7,0.7)"><path fill="rgb(21,101,192)" stroke="none" paint-order="stroke fill markers" d=" M 0.449 -0.17400000000000002 L 0.449 -0.17400000000000002 L 0.421 0 L 0.05 0 Q 0.05 -0.025 0.056 -0.032 L 0.061 -0.037 L 0.253 -0.251 Q 0.358 -0.369 0.358 -0.47200000000000003 Q 0.358 -0.561 0.304 -0.607 L 0.303 -0.608 L 0.302 -0.608 Q 0.27 -0.635 0.224 -0.635 Q 0.152 -0.635 0.109 -0.5730000000000001 Q 0.097 -0.555 0.089 -0.533 Q 0.092 -0.534 0.10200000000000001 -0.534 Q 0.14200000000000002 -0.534 0.153 -0.498 L 0.153 -0.497 Q 0.155 -0.49 0.155 -0.482 Q 0.155 -0.442 0.117 -0.431 Q 0.109 -0.429 0.10300000000000001 -0.429 Q 0.066 -0.429 0.054 -0.46 Q 0.05 -0.47100000000000003 0.05 -0.485 Q 0.05 -0.562 0.109 -0.617 Q 0.162 -0.666 0.23700000000000002 -0.666 Q 0.34700000000000003 -0.666 0.40800000000000003 -0.592 Q 0.443 -0.549 0.448 -0.49 Q 0.449 -0.481 0.449 -0.47200000000000003 Q 0.449 -0.399 0.394 -0.333 Q 0.365 -0.299 0.304 -0.243 L 0.243 -0.189 L 0.233 -0.18 L 0.127 -0.077 L 0.307 -0.077 Q 0.395 -0.077 0.402 -0.085 Q 0.41200000000000003 -0.099 0.424 -0.17400000000000002 L 0.449 -0.17400000000000002 Z"/></g></g></g></g></svg>